%TF.GenerationSoftware,KiCad,Pcbnew,9.0.2*%
%TF.CreationDate,2025-09-19T16:02:53+02:00*%
%TF.ProjectId,MPeV6PCB,4d506556-3650-4434-922e-6b696361645f,rev?*%
%TF.SameCoordinates,Original*%
%TF.FileFunction,Legend,Top*%
%TF.FilePolarity,Positive*%
%FSLAX46Y46*%
G04 Gerber Fmt 4.6, Leading zero omitted, Abs format (unit mm)*
G04 Created by KiCad (PCBNEW 9.0.2) date 2025-09-19 16:02:53*
%MOMM*%
%LPD*%
G01*
G04 APERTURE LIST*
%ADD10C,0.100000*%
%ADD11C,0.500000*%
%ADD12C,0.150000*%
%ADD13C,0.254000*%
%ADD14C,0.120000*%
%ADD15C,0.200000*%
G04 APERTURE END LIST*
D10*
X166858800Y-129681830D02*
X166896895Y-129567544D01*
X166896895Y-129567544D02*
X166896895Y-129377068D01*
X166896895Y-129377068D02*
X166858800Y-129300877D01*
X166858800Y-129300877D02*
X166820704Y-129262782D01*
X166820704Y-129262782D02*
X166744514Y-129224687D01*
X166744514Y-129224687D02*
X166668323Y-129224687D01*
X166668323Y-129224687D02*
X166592133Y-129262782D01*
X166592133Y-129262782D02*
X166554038Y-129300877D01*
X166554038Y-129300877D02*
X166515942Y-129377068D01*
X166515942Y-129377068D02*
X166477847Y-129529449D01*
X166477847Y-129529449D02*
X166439752Y-129605639D01*
X166439752Y-129605639D02*
X166401657Y-129643734D01*
X166401657Y-129643734D02*
X166325466Y-129681830D01*
X166325466Y-129681830D02*
X166249276Y-129681830D01*
X166249276Y-129681830D02*
X166173085Y-129643734D01*
X166173085Y-129643734D02*
X166134990Y-129605639D01*
X166134990Y-129605639D02*
X166096895Y-129529449D01*
X166096895Y-129529449D02*
X166096895Y-129338972D01*
X166096895Y-129338972D02*
X166134990Y-129224687D01*
X166896895Y-128881829D02*
X166096895Y-128881829D01*
X166096895Y-128881829D02*
X166096895Y-128691353D01*
X166096895Y-128691353D02*
X166134990Y-128577067D01*
X166134990Y-128577067D02*
X166211180Y-128500877D01*
X166211180Y-128500877D02*
X166287371Y-128462782D01*
X166287371Y-128462782D02*
X166439752Y-128424686D01*
X166439752Y-128424686D02*
X166554038Y-128424686D01*
X166554038Y-128424686D02*
X166706419Y-128462782D01*
X166706419Y-128462782D02*
X166782609Y-128500877D01*
X166782609Y-128500877D02*
X166858800Y-128577067D01*
X166858800Y-128577067D02*
X166896895Y-128691353D01*
X166896895Y-128691353D02*
X166896895Y-128881829D01*
X166668323Y-128119925D02*
X166668323Y-127738972D01*
X166896895Y-128196115D02*
X166096895Y-127929448D01*
X166096895Y-127929448D02*
X166896895Y-127662782D01*
X227713561Y-129300877D02*
X228246895Y-129300877D01*
X227408800Y-129491353D02*
X227980228Y-129681830D01*
X227980228Y-129681830D02*
X227980228Y-129186591D01*
X227446895Y-128996115D02*
X228246895Y-128729448D01*
X228246895Y-128729448D02*
X227446895Y-128462782D01*
X227446895Y-128272306D02*
X227446895Y-127777068D01*
X227446895Y-127777068D02*
X227751657Y-128043734D01*
X227751657Y-128043734D02*
X227751657Y-127929449D01*
X227751657Y-127929449D02*
X227789752Y-127853258D01*
X227789752Y-127853258D02*
X227827847Y-127815163D01*
X227827847Y-127815163D02*
X227904038Y-127777068D01*
X227904038Y-127777068D02*
X228094514Y-127777068D01*
X228094514Y-127777068D02*
X228170704Y-127815163D01*
X228170704Y-127815163D02*
X228208800Y-127853258D01*
X228208800Y-127853258D02*
X228246895Y-127929449D01*
X228246895Y-127929449D02*
X228246895Y-128158020D01*
X228246895Y-128158020D02*
X228208800Y-128234211D01*
X228208800Y-128234211D02*
X228170704Y-128272306D01*
X152718169Y-83668323D02*
X153099122Y-83668323D01*
X152641979Y-83896895D02*
X152908646Y-83096895D01*
X152908646Y-83096895D02*
X153175312Y-83896895D01*
X153441979Y-83896895D02*
X153441979Y-83096895D01*
X153441979Y-83096895D02*
X153632455Y-83096895D01*
X153632455Y-83096895D02*
X153746741Y-83134990D01*
X153746741Y-83134990D02*
X153822931Y-83211180D01*
X153822931Y-83211180D02*
X153861026Y-83287371D01*
X153861026Y-83287371D02*
X153899122Y-83439752D01*
X153899122Y-83439752D02*
X153899122Y-83554038D01*
X153899122Y-83554038D02*
X153861026Y-83706419D01*
X153861026Y-83706419D02*
X153822931Y-83782609D01*
X153822931Y-83782609D02*
X153746741Y-83858800D01*
X153746741Y-83858800D02*
X153632455Y-83896895D01*
X153632455Y-83896895D02*
X153441979Y-83896895D01*
X154203883Y-83858800D02*
X154318169Y-83896895D01*
X154318169Y-83896895D02*
X154508645Y-83896895D01*
X154508645Y-83896895D02*
X154584836Y-83858800D01*
X154584836Y-83858800D02*
X154622931Y-83820704D01*
X154622931Y-83820704D02*
X154661026Y-83744514D01*
X154661026Y-83744514D02*
X154661026Y-83668323D01*
X154661026Y-83668323D02*
X154622931Y-83592133D01*
X154622931Y-83592133D02*
X154584836Y-83554038D01*
X154584836Y-83554038D02*
X154508645Y-83515942D01*
X154508645Y-83515942D02*
X154356264Y-83477847D01*
X154356264Y-83477847D02*
X154280074Y-83439752D01*
X154280074Y-83439752D02*
X154241979Y-83401657D01*
X154241979Y-83401657D02*
X154203883Y-83325466D01*
X154203883Y-83325466D02*
X154203883Y-83249276D01*
X154203883Y-83249276D02*
X154241979Y-83173085D01*
X154241979Y-83173085D02*
X154280074Y-83134990D01*
X154280074Y-83134990D02*
X154356264Y-83096895D01*
X154356264Y-83096895D02*
X154546741Y-83096895D01*
X154546741Y-83096895D02*
X154661026Y-83134990D01*
X155422931Y-83896895D02*
X154965788Y-83896895D01*
X155194360Y-83896895D02*
X155194360Y-83096895D01*
X155194360Y-83096895D02*
X155118169Y-83211180D01*
X155118169Y-83211180D02*
X155041979Y-83287371D01*
X155041979Y-83287371D02*
X154965788Y-83325466D01*
X156184836Y-83896895D02*
X155727693Y-83896895D01*
X155956265Y-83896895D02*
X155956265Y-83096895D01*
X155956265Y-83096895D02*
X155880074Y-83211180D01*
X155880074Y-83211180D02*
X155803884Y-83287371D01*
X155803884Y-83287371D02*
X155727693Y-83325466D01*
X156946741Y-83896895D02*
X156489598Y-83896895D01*
X156718170Y-83896895D02*
X156718170Y-83096895D01*
X156718170Y-83096895D02*
X156641979Y-83211180D01*
X156641979Y-83211180D02*
X156565789Y-83287371D01*
X156565789Y-83287371D02*
X156489598Y-83325466D01*
X157670551Y-83096895D02*
X157289599Y-83096895D01*
X157289599Y-83096895D02*
X157251503Y-83477847D01*
X157251503Y-83477847D02*
X157289599Y-83439752D01*
X157289599Y-83439752D02*
X157365789Y-83401657D01*
X157365789Y-83401657D02*
X157556265Y-83401657D01*
X157556265Y-83401657D02*
X157632456Y-83439752D01*
X157632456Y-83439752D02*
X157670551Y-83477847D01*
X157670551Y-83477847D02*
X157708646Y-83554038D01*
X157708646Y-83554038D02*
X157708646Y-83744514D01*
X157708646Y-83744514D02*
X157670551Y-83820704D01*
X157670551Y-83820704D02*
X157632456Y-83858800D01*
X157632456Y-83858800D02*
X157556265Y-83896895D01*
X157556265Y-83896895D02*
X157365789Y-83896895D01*
X157365789Y-83896895D02*
X157289599Y-83858800D01*
X157289599Y-83858800D02*
X157251503Y-83820704D01*
X212384990Y-129174687D02*
X212346895Y-129250877D01*
X212346895Y-129250877D02*
X212346895Y-129365163D01*
X212346895Y-129365163D02*
X212384990Y-129479449D01*
X212384990Y-129479449D02*
X212461180Y-129555639D01*
X212461180Y-129555639D02*
X212537371Y-129593734D01*
X212537371Y-129593734D02*
X212689752Y-129631830D01*
X212689752Y-129631830D02*
X212804038Y-129631830D01*
X212804038Y-129631830D02*
X212956419Y-129593734D01*
X212956419Y-129593734D02*
X213032609Y-129555639D01*
X213032609Y-129555639D02*
X213108800Y-129479449D01*
X213108800Y-129479449D02*
X213146895Y-129365163D01*
X213146895Y-129365163D02*
X213146895Y-129288972D01*
X213146895Y-129288972D02*
X213108800Y-129174687D01*
X213108800Y-129174687D02*
X213070704Y-129136591D01*
X213070704Y-129136591D02*
X212804038Y-129136591D01*
X212804038Y-129136591D02*
X212804038Y-129288972D01*
X213146895Y-128793734D02*
X212346895Y-128793734D01*
X212346895Y-128793734D02*
X213146895Y-128336591D01*
X213146895Y-128336591D02*
X212346895Y-128336591D01*
X213146895Y-127955639D02*
X212346895Y-127955639D01*
X212346895Y-127955639D02*
X212346895Y-127765163D01*
X212346895Y-127765163D02*
X212384990Y-127650877D01*
X212384990Y-127650877D02*
X212461180Y-127574687D01*
X212461180Y-127574687D02*
X212537371Y-127536592D01*
X212537371Y-127536592D02*
X212689752Y-127498496D01*
X212689752Y-127498496D02*
X212804038Y-127498496D01*
X212804038Y-127498496D02*
X212956419Y-127536592D01*
X212956419Y-127536592D02*
X213032609Y-127574687D01*
X213032609Y-127574687D02*
X213108800Y-127650877D01*
X213108800Y-127650877D02*
X213146895Y-127765163D01*
X213146895Y-127765163D02*
X213146895Y-127955639D01*
X136412419Y-129772306D02*
X136412419Y-130343734D01*
X136412419Y-130058020D02*
X135412419Y-130058020D01*
X135412419Y-130058020D02*
X135555276Y-130153258D01*
X135555276Y-130153258D02*
X135650514Y-130248496D01*
X135650514Y-130248496D02*
X135698133Y-130343734D01*
X135507657Y-129391353D02*
X135460038Y-129343734D01*
X135460038Y-129343734D02*
X135412419Y-129248496D01*
X135412419Y-129248496D02*
X135412419Y-129010401D01*
X135412419Y-129010401D02*
X135460038Y-128915163D01*
X135460038Y-128915163D02*
X135507657Y-128867544D01*
X135507657Y-128867544D02*
X135602895Y-128819925D01*
X135602895Y-128819925D02*
X135698133Y-128819925D01*
X135698133Y-128819925D02*
X135840990Y-128867544D01*
X135840990Y-128867544D02*
X136412419Y-129438972D01*
X136412419Y-129438972D02*
X136412419Y-128819925D01*
X135412419Y-128534210D02*
X136412419Y-128200877D01*
X136412419Y-128200877D02*
X135412419Y-127867544D01*
X219996895Y-131108020D02*
X219996895Y-130650877D01*
X220796895Y-130879449D02*
X219996895Y-130879449D01*
X220377847Y-130384210D02*
X220377847Y-130117544D01*
X220796895Y-130003258D02*
X220796895Y-130384210D01*
X220796895Y-130384210D02*
X219996895Y-130384210D01*
X219996895Y-130384210D02*
X219996895Y-130003258D01*
X220796895Y-129660400D02*
X219996895Y-129660400D01*
X219996895Y-129660400D02*
X220568323Y-129393734D01*
X220568323Y-129393734D02*
X219996895Y-129127067D01*
X219996895Y-129127067D02*
X220796895Y-129127067D01*
X220796895Y-128746114D02*
X219996895Y-128746114D01*
X219996895Y-128746114D02*
X219996895Y-128441352D01*
X219996895Y-128441352D02*
X220034990Y-128365162D01*
X220034990Y-128365162D02*
X220073085Y-128327067D01*
X220073085Y-128327067D02*
X220149276Y-128288971D01*
X220149276Y-128288971D02*
X220263561Y-128288971D01*
X220263561Y-128288971D02*
X220339752Y-128327067D01*
X220339752Y-128327067D02*
X220377847Y-128365162D01*
X220377847Y-128365162D02*
X220415942Y-128441352D01*
X220415942Y-128441352D02*
X220415942Y-128746114D01*
X220796895Y-127527067D02*
X220796895Y-127984210D01*
X220796895Y-127755638D02*
X219996895Y-127755638D01*
X219996895Y-127755638D02*
X220111180Y-127831829D01*
X220111180Y-127831829D02*
X220187371Y-127908019D01*
X220187371Y-127908019D02*
X220225466Y-127984210D01*
X222646895Y-131208020D02*
X222646895Y-130750877D01*
X223446895Y-130979449D02*
X222646895Y-130979449D01*
X223027847Y-130484210D02*
X223027847Y-130217544D01*
X223446895Y-130103258D02*
X223446895Y-130484210D01*
X223446895Y-130484210D02*
X222646895Y-130484210D01*
X222646895Y-130484210D02*
X222646895Y-130103258D01*
X223446895Y-129760400D02*
X222646895Y-129760400D01*
X222646895Y-129760400D02*
X223218323Y-129493734D01*
X223218323Y-129493734D02*
X222646895Y-129227067D01*
X222646895Y-129227067D02*
X223446895Y-129227067D01*
X223446895Y-128846114D02*
X222646895Y-128846114D01*
X222646895Y-128846114D02*
X222646895Y-128541352D01*
X222646895Y-128541352D02*
X222684990Y-128465162D01*
X222684990Y-128465162D02*
X222723085Y-128427067D01*
X222723085Y-128427067D02*
X222799276Y-128388971D01*
X222799276Y-128388971D02*
X222913561Y-128388971D01*
X222913561Y-128388971D02*
X222989752Y-128427067D01*
X222989752Y-128427067D02*
X223027847Y-128465162D01*
X223027847Y-128465162D02*
X223065942Y-128541352D01*
X223065942Y-128541352D02*
X223065942Y-128846114D01*
X222723085Y-128084210D02*
X222684990Y-128046114D01*
X222684990Y-128046114D02*
X222646895Y-127969924D01*
X222646895Y-127969924D02*
X222646895Y-127779448D01*
X222646895Y-127779448D02*
X222684990Y-127703257D01*
X222684990Y-127703257D02*
X222723085Y-127665162D01*
X222723085Y-127665162D02*
X222799276Y-127627067D01*
X222799276Y-127627067D02*
X222875466Y-127627067D01*
X222875466Y-127627067D02*
X222989752Y-127665162D01*
X222989752Y-127665162D02*
X223446895Y-128122305D01*
X223446895Y-128122305D02*
X223446895Y-127627067D01*
D11*
X154157518Y-77271142D02*
X154014661Y-77414000D01*
X154014661Y-77414000D02*
X153586089Y-77556857D01*
X153586089Y-77556857D02*
X153300375Y-77556857D01*
X153300375Y-77556857D02*
X152871804Y-77414000D01*
X152871804Y-77414000D02*
X152586089Y-77128285D01*
X152586089Y-77128285D02*
X152443232Y-76842571D01*
X152443232Y-76842571D02*
X152300375Y-76271142D01*
X152300375Y-76271142D02*
X152300375Y-75842571D01*
X152300375Y-75842571D02*
X152443232Y-75271142D01*
X152443232Y-75271142D02*
X152586089Y-74985428D01*
X152586089Y-74985428D02*
X152871804Y-74699714D01*
X152871804Y-74699714D02*
X153300375Y-74556857D01*
X153300375Y-74556857D02*
X153586089Y-74556857D01*
X153586089Y-74556857D02*
X154014661Y-74699714D01*
X154014661Y-74699714D02*
X154157518Y-74842571D01*
X156586089Y-77414000D02*
X156300375Y-77556857D01*
X156300375Y-77556857D02*
X155728947Y-77556857D01*
X155728947Y-77556857D02*
X155443232Y-77414000D01*
X155443232Y-77414000D02*
X155300375Y-77128285D01*
X155300375Y-77128285D02*
X155300375Y-75985428D01*
X155300375Y-75985428D02*
X155443232Y-75699714D01*
X155443232Y-75699714D02*
X155728947Y-75556857D01*
X155728947Y-75556857D02*
X156300375Y-75556857D01*
X156300375Y-75556857D02*
X156586089Y-75699714D01*
X156586089Y-75699714D02*
X156728947Y-75985428D01*
X156728947Y-75985428D02*
X156728947Y-76271142D01*
X156728947Y-76271142D02*
X155300375Y-76556857D01*
X159014661Y-75985428D02*
X159443233Y-76128285D01*
X159443233Y-76128285D02*
X159586090Y-76271142D01*
X159586090Y-76271142D02*
X159728947Y-76556857D01*
X159728947Y-76556857D02*
X159728947Y-76985428D01*
X159728947Y-76985428D02*
X159586090Y-77271142D01*
X159586090Y-77271142D02*
X159443233Y-77414000D01*
X159443233Y-77414000D02*
X159157518Y-77556857D01*
X159157518Y-77556857D02*
X158014661Y-77556857D01*
X158014661Y-77556857D02*
X158014661Y-74556857D01*
X158014661Y-74556857D02*
X159014661Y-74556857D01*
X159014661Y-74556857D02*
X159300376Y-74699714D01*
X159300376Y-74699714D02*
X159443233Y-74842571D01*
X159443233Y-74842571D02*
X159586090Y-75128285D01*
X159586090Y-75128285D02*
X159586090Y-75414000D01*
X159586090Y-75414000D02*
X159443233Y-75699714D01*
X159443233Y-75699714D02*
X159300376Y-75842571D01*
X159300376Y-75842571D02*
X159014661Y-75985428D01*
X159014661Y-75985428D02*
X158014661Y-75985428D01*
X160300376Y-77842571D02*
X162586090Y-77842571D01*
X163300375Y-77556857D02*
X163300375Y-74556857D01*
X163300375Y-74556857D02*
X164300375Y-76699714D01*
X164300375Y-76699714D02*
X165300375Y-74556857D01*
X165300375Y-74556857D02*
X165300375Y-77556857D01*
X166728946Y-77556857D02*
X166728946Y-74556857D01*
X166728946Y-74556857D02*
X167871803Y-74556857D01*
X167871803Y-74556857D02*
X168157518Y-74699714D01*
X168157518Y-74699714D02*
X168300375Y-74842571D01*
X168300375Y-74842571D02*
X168443232Y-75128285D01*
X168443232Y-75128285D02*
X168443232Y-75556857D01*
X168443232Y-75556857D02*
X168300375Y-75842571D01*
X168300375Y-75842571D02*
X168157518Y-75985428D01*
X168157518Y-75985428D02*
X167871803Y-76128285D01*
X167871803Y-76128285D02*
X166728946Y-76128285D01*
X169728946Y-77271142D02*
X169871803Y-77414000D01*
X169871803Y-77414000D02*
X169728946Y-77556857D01*
X169728946Y-77556857D02*
X169586089Y-77414000D01*
X169586089Y-77414000D02*
X169728946Y-77271142D01*
X169728946Y-77271142D02*
X169728946Y-77556857D01*
X170728946Y-74556857D02*
X171728946Y-77556857D01*
X171728946Y-77556857D02*
X172728946Y-74556857D01*
X175300375Y-77556857D02*
X173586089Y-77556857D01*
X174443232Y-77556857D02*
X174443232Y-74556857D01*
X174443232Y-74556857D02*
X174157518Y-74985428D01*
X174157518Y-74985428D02*
X173871803Y-75271142D01*
X173871803Y-75271142D02*
X173586089Y-75414000D01*
X176586089Y-77271142D02*
X176728946Y-77414000D01*
X176728946Y-77414000D02*
X176586089Y-77556857D01*
X176586089Y-77556857D02*
X176443232Y-77414000D01*
X176443232Y-77414000D02*
X176586089Y-77271142D01*
X176586089Y-77271142D02*
X176586089Y-77556857D01*
X178586089Y-74556857D02*
X178871803Y-74556857D01*
X178871803Y-74556857D02*
X179157517Y-74699714D01*
X179157517Y-74699714D02*
X179300375Y-74842571D01*
X179300375Y-74842571D02*
X179443232Y-75128285D01*
X179443232Y-75128285D02*
X179586089Y-75699714D01*
X179586089Y-75699714D02*
X179586089Y-76414000D01*
X179586089Y-76414000D02*
X179443232Y-76985428D01*
X179443232Y-76985428D02*
X179300375Y-77271142D01*
X179300375Y-77271142D02*
X179157517Y-77414000D01*
X179157517Y-77414000D02*
X178871803Y-77556857D01*
X178871803Y-77556857D02*
X178586089Y-77556857D01*
X178586089Y-77556857D02*
X178300375Y-77414000D01*
X178300375Y-77414000D02*
X178157517Y-77271142D01*
X178157517Y-77271142D02*
X178014660Y-76985428D01*
X178014660Y-76985428D02*
X177871803Y-76414000D01*
X177871803Y-76414000D02*
X177871803Y-75699714D01*
X177871803Y-75699714D02*
X178014660Y-75128285D01*
X178014660Y-75128285D02*
X178157517Y-74842571D01*
X178157517Y-74842571D02*
X178300375Y-74699714D01*
X178300375Y-74699714D02*
X178586089Y-74556857D01*
D10*
X146017847Y-130477068D02*
X146055942Y-130362782D01*
X146055942Y-130362782D02*
X146094038Y-130324687D01*
X146094038Y-130324687D02*
X146170228Y-130286591D01*
X146170228Y-130286591D02*
X146284514Y-130286591D01*
X146284514Y-130286591D02*
X146360704Y-130324687D01*
X146360704Y-130324687D02*
X146398800Y-130362782D01*
X146398800Y-130362782D02*
X146436895Y-130438972D01*
X146436895Y-130438972D02*
X146436895Y-130743734D01*
X146436895Y-130743734D02*
X145636895Y-130743734D01*
X145636895Y-130743734D02*
X145636895Y-130477068D01*
X145636895Y-130477068D02*
X145674990Y-130400877D01*
X145674990Y-130400877D02*
X145713085Y-130362782D01*
X145713085Y-130362782D02*
X145789276Y-130324687D01*
X145789276Y-130324687D02*
X145865466Y-130324687D01*
X145865466Y-130324687D02*
X145941657Y-130362782D01*
X145941657Y-130362782D02*
X145979752Y-130400877D01*
X145979752Y-130400877D02*
X146017847Y-130477068D01*
X146017847Y-130477068D02*
X146017847Y-130743734D01*
X146208323Y-129981830D02*
X146208323Y-129600877D01*
X146436895Y-130058020D02*
X145636895Y-129791353D01*
X145636895Y-129791353D02*
X146436895Y-129524687D01*
X145636895Y-129372306D02*
X145636895Y-128915163D01*
X146436895Y-129143735D02*
X145636895Y-129143735D01*
X146513085Y-128838973D02*
X146513085Y-128229449D01*
X145636895Y-128153258D02*
X146436895Y-127886591D01*
X146436895Y-127886591D02*
X145636895Y-127619925D01*
X191896895Y-131708020D02*
X191896895Y-131250877D01*
X192696895Y-131479449D02*
X191896895Y-131479449D01*
X192696895Y-130984210D02*
X191896895Y-130984210D01*
X192277847Y-130984210D02*
X192277847Y-130527067D01*
X192696895Y-130527067D02*
X191896895Y-130527067D01*
X192696895Y-129688972D02*
X192315942Y-129955639D01*
X192696895Y-130146115D02*
X191896895Y-130146115D01*
X191896895Y-130146115D02*
X191896895Y-129841353D01*
X191896895Y-129841353D02*
X191934990Y-129765163D01*
X191934990Y-129765163D02*
X191973085Y-129727068D01*
X191973085Y-129727068D02*
X192049276Y-129688972D01*
X192049276Y-129688972D02*
X192163561Y-129688972D01*
X192163561Y-129688972D02*
X192239752Y-129727068D01*
X192239752Y-129727068D02*
X192277847Y-129765163D01*
X192277847Y-129765163D02*
X192315942Y-129841353D01*
X192315942Y-129841353D02*
X192315942Y-130146115D01*
X192773085Y-129536592D02*
X192773085Y-128927068D01*
X191896895Y-128584210D02*
X191896895Y-128431829D01*
X191896895Y-128431829D02*
X191934990Y-128355639D01*
X191934990Y-128355639D02*
X192011180Y-128279448D01*
X192011180Y-128279448D02*
X192163561Y-128241353D01*
X192163561Y-128241353D02*
X192430228Y-128241353D01*
X192430228Y-128241353D02*
X192582609Y-128279448D01*
X192582609Y-128279448D02*
X192658800Y-128355639D01*
X192658800Y-128355639D02*
X192696895Y-128431829D01*
X192696895Y-128431829D02*
X192696895Y-128584210D01*
X192696895Y-128584210D02*
X192658800Y-128660401D01*
X192658800Y-128660401D02*
X192582609Y-128736591D01*
X192582609Y-128736591D02*
X192430228Y-128774687D01*
X192430228Y-128774687D02*
X192163561Y-128774687D01*
X192163561Y-128774687D02*
X192011180Y-128736591D01*
X192011180Y-128736591D02*
X191934990Y-128660401D01*
X191934990Y-128660401D02*
X191896895Y-128584210D01*
X191896895Y-127898496D02*
X192544514Y-127898496D01*
X192544514Y-127898496D02*
X192620704Y-127860401D01*
X192620704Y-127860401D02*
X192658800Y-127822306D01*
X192658800Y-127822306D02*
X192696895Y-127746115D01*
X192696895Y-127746115D02*
X192696895Y-127593734D01*
X192696895Y-127593734D02*
X192658800Y-127517544D01*
X192658800Y-127517544D02*
X192620704Y-127479449D01*
X192620704Y-127479449D02*
X192544514Y-127441353D01*
X192544514Y-127441353D02*
X191896895Y-127441353D01*
X191896895Y-127174687D02*
X191896895Y-126717544D01*
X192696895Y-126946116D02*
X191896895Y-126946116D01*
X217767847Y-130827068D02*
X217805942Y-130712782D01*
X217805942Y-130712782D02*
X217844038Y-130674687D01*
X217844038Y-130674687D02*
X217920228Y-130636591D01*
X217920228Y-130636591D02*
X218034514Y-130636591D01*
X218034514Y-130636591D02*
X218110704Y-130674687D01*
X218110704Y-130674687D02*
X218148800Y-130712782D01*
X218148800Y-130712782D02*
X218186895Y-130788972D01*
X218186895Y-130788972D02*
X218186895Y-131093734D01*
X218186895Y-131093734D02*
X217386895Y-131093734D01*
X217386895Y-131093734D02*
X217386895Y-130827068D01*
X217386895Y-130827068D02*
X217424990Y-130750877D01*
X217424990Y-130750877D02*
X217463085Y-130712782D01*
X217463085Y-130712782D02*
X217539276Y-130674687D01*
X217539276Y-130674687D02*
X217615466Y-130674687D01*
X217615466Y-130674687D02*
X217691657Y-130712782D01*
X217691657Y-130712782D02*
X217729752Y-130750877D01*
X217729752Y-130750877D02*
X217767847Y-130827068D01*
X217767847Y-130827068D02*
X217767847Y-131093734D01*
X218186895Y-129836591D02*
X217805942Y-130103258D01*
X218186895Y-130293734D02*
X217386895Y-130293734D01*
X217386895Y-130293734D02*
X217386895Y-129988972D01*
X217386895Y-129988972D02*
X217424990Y-129912782D01*
X217424990Y-129912782D02*
X217463085Y-129874687D01*
X217463085Y-129874687D02*
X217539276Y-129836591D01*
X217539276Y-129836591D02*
X217653561Y-129836591D01*
X217653561Y-129836591D02*
X217729752Y-129874687D01*
X217729752Y-129874687D02*
X217767847Y-129912782D01*
X217767847Y-129912782D02*
X217805942Y-129988972D01*
X217805942Y-129988972D02*
X217805942Y-130293734D01*
X217958323Y-129531830D02*
X217958323Y-129150877D01*
X218186895Y-129608020D02*
X217386895Y-129341353D01*
X217386895Y-129341353D02*
X218186895Y-129074687D01*
X218186895Y-128808020D02*
X217386895Y-128808020D01*
X218186895Y-128350877D02*
X217729752Y-128693735D01*
X217386895Y-128350877D02*
X217844038Y-128808020D01*
X217767847Y-128008020D02*
X217767847Y-127741354D01*
X218186895Y-127627068D02*
X218186895Y-128008020D01*
X218186895Y-128008020D02*
X217386895Y-128008020D01*
X217386895Y-128008020D02*
X217386895Y-127627068D01*
X155963561Y-129300877D02*
X156496895Y-129300877D01*
X155658800Y-129491353D02*
X156230228Y-129681830D01*
X156230228Y-129681830D02*
X156230228Y-129186591D01*
X155696895Y-128996115D02*
X156496895Y-128729448D01*
X156496895Y-128729448D02*
X155696895Y-128462782D01*
X155696895Y-128272306D02*
X155696895Y-127777068D01*
X155696895Y-127777068D02*
X156001657Y-128043734D01*
X156001657Y-128043734D02*
X156001657Y-127929449D01*
X156001657Y-127929449D02*
X156039752Y-127853258D01*
X156039752Y-127853258D02*
X156077847Y-127815163D01*
X156077847Y-127815163D02*
X156154038Y-127777068D01*
X156154038Y-127777068D02*
X156344514Y-127777068D01*
X156344514Y-127777068D02*
X156420704Y-127815163D01*
X156420704Y-127815163D02*
X156458800Y-127853258D01*
X156458800Y-127853258D02*
X156496895Y-127929449D01*
X156496895Y-127929449D02*
X156496895Y-128158020D01*
X156496895Y-128158020D02*
X156458800Y-128234211D01*
X156458800Y-128234211D02*
X156420704Y-128272306D01*
X197063561Y-129200877D02*
X197596895Y-129200877D01*
X196758800Y-129391353D02*
X197330228Y-129581830D01*
X197330228Y-129581830D02*
X197330228Y-129086591D01*
X196796895Y-128896115D02*
X197596895Y-128629448D01*
X197596895Y-128629448D02*
X196796895Y-128362782D01*
X196796895Y-128172306D02*
X196796895Y-127677068D01*
X196796895Y-127677068D02*
X197101657Y-127943734D01*
X197101657Y-127943734D02*
X197101657Y-127829449D01*
X197101657Y-127829449D02*
X197139752Y-127753258D01*
X197139752Y-127753258D02*
X197177847Y-127715163D01*
X197177847Y-127715163D02*
X197254038Y-127677068D01*
X197254038Y-127677068D02*
X197444514Y-127677068D01*
X197444514Y-127677068D02*
X197520704Y-127715163D01*
X197520704Y-127715163D02*
X197558800Y-127753258D01*
X197558800Y-127753258D02*
X197596895Y-127829449D01*
X197596895Y-127829449D02*
X197596895Y-128058020D01*
X197596895Y-128058020D02*
X197558800Y-128134211D01*
X197558800Y-128134211D02*
X197520704Y-128172306D01*
X120636895Y-127853020D02*
X120636895Y-127395877D01*
X121436895Y-127624449D02*
X120636895Y-127624449D01*
X120636895Y-127205401D02*
X121436895Y-126672067D01*
X120636895Y-126672067D02*
X121436895Y-127205401D01*
X124186895Y-127531591D02*
X123805942Y-127798258D01*
X124186895Y-127988734D02*
X123386895Y-127988734D01*
X123386895Y-127988734D02*
X123386895Y-127683972D01*
X123386895Y-127683972D02*
X123424990Y-127607782D01*
X123424990Y-127607782D02*
X123463085Y-127569687D01*
X123463085Y-127569687D02*
X123539276Y-127531591D01*
X123539276Y-127531591D02*
X123653561Y-127531591D01*
X123653561Y-127531591D02*
X123729752Y-127569687D01*
X123729752Y-127569687D02*
X123767847Y-127607782D01*
X123767847Y-127607782D02*
X123805942Y-127683972D01*
X123805942Y-127683972D02*
X123805942Y-127988734D01*
X123386895Y-127264925D02*
X124186895Y-126731591D01*
X123386895Y-126731591D02*
X124186895Y-127264925D01*
X179277847Y-130727068D02*
X179315942Y-130612782D01*
X179315942Y-130612782D02*
X179354038Y-130574687D01*
X179354038Y-130574687D02*
X179430228Y-130536591D01*
X179430228Y-130536591D02*
X179544514Y-130536591D01*
X179544514Y-130536591D02*
X179620704Y-130574687D01*
X179620704Y-130574687D02*
X179658800Y-130612782D01*
X179658800Y-130612782D02*
X179696895Y-130688972D01*
X179696895Y-130688972D02*
X179696895Y-130993734D01*
X179696895Y-130993734D02*
X178896895Y-130993734D01*
X178896895Y-130993734D02*
X178896895Y-130727068D01*
X178896895Y-130727068D02*
X178934990Y-130650877D01*
X178934990Y-130650877D02*
X178973085Y-130612782D01*
X178973085Y-130612782D02*
X179049276Y-130574687D01*
X179049276Y-130574687D02*
X179125466Y-130574687D01*
X179125466Y-130574687D02*
X179201657Y-130612782D01*
X179201657Y-130612782D02*
X179239752Y-130650877D01*
X179239752Y-130650877D02*
X179277847Y-130727068D01*
X179277847Y-130727068D02*
X179277847Y-130993734D01*
X178896895Y-130193734D02*
X179544514Y-130193734D01*
X179544514Y-130193734D02*
X179620704Y-130155639D01*
X179620704Y-130155639D02*
X179658800Y-130117544D01*
X179658800Y-130117544D02*
X179696895Y-130041353D01*
X179696895Y-130041353D02*
X179696895Y-129888972D01*
X179696895Y-129888972D02*
X179658800Y-129812782D01*
X179658800Y-129812782D02*
X179620704Y-129774687D01*
X179620704Y-129774687D02*
X179544514Y-129736591D01*
X179544514Y-129736591D02*
X178896895Y-129736591D01*
X178896895Y-129469925D02*
X178896895Y-129012782D01*
X179696895Y-129241354D02*
X178896895Y-129241354D01*
X178896895Y-128860401D02*
X178896895Y-128403258D01*
X179696895Y-128631830D02*
X178896895Y-128631830D01*
X178973085Y-128174687D02*
X178934990Y-128136591D01*
X178934990Y-128136591D02*
X178896895Y-128060401D01*
X178896895Y-128060401D02*
X178896895Y-127869925D01*
X178896895Y-127869925D02*
X178934990Y-127793734D01*
X178934990Y-127793734D02*
X178973085Y-127755639D01*
X178973085Y-127755639D02*
X179049276Y-127717544D01*
X179049276Y-127717544D02*
X179125466Y-127717544D01*
X179125466Y-127717544D02*
X179239752Y-127755639D01*
X179239752Y-127755639D02*
X179696895Y-128212782D01*
X179696895Y-128212782D02*
X179696895Y-127717544D01*
X207363561Y-129150877D02*
X207896895Y-129150877D01*
X207058800Y-129341353D02*
X207630228Y-129531830D01*
X207630228Y-129531830D02*
X207630228Y-129036591D01*
X207096895Y-128846115D02*
X207896895Y-128579448D01*
X207896895Y-128579448D02*
X207096895Y-128312782D01*
X207096895Y-128122306D02*
X207096895Y-127627068D01*
X207096895Y-127627068D02*
X207401657Y-127893734D01*
X207401657Y-127893734D02*
X207401657Y-127779449D01*
X207401657Y-127779449D02*
X207439752Y-127703258D01*
X207439752Y-127703258D02*
X207477847Y-127665163D01*
X207477847Y-127665163D02*
X207554038Y-127627068D01*
X207554038Y-127627068D02*
X207744514Y-127627068D01*
X207744514Y-127627068D02*
X207820704Y-127665163D01*
X207820704Y-127665163D02*
X207858800Y-127703258D01*
X207858800Y-127703258D02*
X207896895Y-127779449D01*
X207896895Y-127779449D02*
X207896895Y-128008020D01*
X207896895Y-128008020D02*
X207858800Y-128084211D01*
X207858800Y-128084211D02*
X207820704Y-128122306D01*
X150934990Y-129324687D02*
X150896895Y-129400877D01*
X150896895Y-129400877D02*
X150896895Y-129515163D01*
X150896895Y-129515163D02*
X150934990Y-129629449D01*
X150934990Y-129629449D02*
X151011180Y-129705639D01*
X151011180Y-129705639D02*
X151087371Y-129743734D01*
X151087371Y-129743734D02*
X151239752Y-129781830D01*
X151239752Y-129781830D02*
X151354038Y-129781830D01*
X151354038Y-129781830D02*
X151506419Y-129743734D01*
X151506419Y-129743734D02*
X151582609Y-129705639D01*
X151582609Y-129705639D02*
X151658800Y-129629449D01*
X151658800Y-129629449D02*
X151696895Y-129515163D01*
X151696895Y-129515163D02*
X151696895Y-129438972D01*
X151696895Y-129438972D02*
X151658800Y-129324687D01*
X151658800Y-129324687D02*
X151620704Y-129286591D01*
X151620704Y-129286591D02*
X151354038Y-129286591D01*
X151354038Y-129286591D02*
X151354038Y-129438972D01*
X151696895Y-128943734D02*
X150896895Y-128943734D01*
X150896895Y-128943734D02*
X151696895Y-128486591D01*
X151696895Y-128486591D02*
X150896895Y-128486591D01*
X151696895Y-128105639D02*
X150896895Y-128105639D01*
X150896895Y-128105639D02*
X150896895Y-127915163D01*
X150896895Y-127915163D02*
X150934990Y-127800877D01*
X150934990Y-127800877D02*
X151011180Y-127724687D01*
X151011180Y-127724687D02*
X151087371Y-127686592D01*
X151087371Y-127686592D02*
X151239752Y-127648496D01*
X151239752Y-127648496D02*
X151354038Y-127648496D01*
X151354038Y-127648496D02*
X151506419Y-127686592D01*
X151506419Y-127686592D02*
X151582609Y-127724687D01*
X151582609Y-127724687D02*
X151658800Y-127800877D01*
X151658800Y-127800877D02*
X151696895Y-127915163D01*
X151696895Y-127915163D02*
X151696895Y-128105639D01*
X138912419Y-129772306D02*
X138912419Y-130343734D01*
X138912419Y-130058020D02*
X137912419Y-130058020D01*
X137912419Y-130058020D02*
X138055276Y-130153258D01*
X138055276Y-130153258D02*
X138150514Y-130248496D01*
X138150514Y-130248496D02*
X138198133Y-130343734D01*
X138007657Y-129391353D02*
X137960038Y-129343734D01*
X137960038Y-129343734D02*
X137912419Y-129248496D01*
X137912419Y-129248496D02*
X137912419Y-129010401D01*
X137912419Y-129010401D02*
X137960038Y-128915163D01*
X137960038Y-128915163D02*
X138007657Y-128867544D01*
X138007657Y-128867544D02*
X138102895Y-128819925D01*
X138102895Y-128819925D02*
X138198133Y-128819925D01*
X138198133Y-128819925D02*
X138340990Y-128867544D01*
X138340990Y-128867544D02*
X138912419Y-129438972D01*
X138912419Y-129438972D02*
X138912419Y-128819925D01*
X137912419Y-128534210D02*
X138912419Y-128200877D01*
X138912419Y-128200877D02*
X137912419Y-127867544D01*
X176663561Y-129150877D02*
X177196895Y-129150877D01*
X176358800Y-129341353D02*
X176930228Y-129531830D01*
X176930228Y-129531830D02*
X176930228Y-129036591D01*
X176396895Y-128846115D02*
X177196895Y-128579448D01*
X177196895Y-128579448D02*
X176396895Y-128312782D01*
X176396895Y-128122306D02*
X176396895Y-127627068D01*
X176396895Y-127627068D02*
X176701657Y-127893734D01*
X176701657Y-127893734D02*
X176701657Y-127779449D01*
X176701657Y-127779449D02*
X176739752Y-127703258D01*
X176739752Y-127703258D02*
X176777847Y-127665163D01*
X176777847Y-127665163D02*
X176854038Y-127627068D01*
X176854038Y-127627068D02*
X177044514Y-127627068D01*
X177044514Y-127627068D02*
X177120704Y-127665163D01*
X177120704Y-127665163D02*
X177158800Y-127703258D01*
X177158800Y-127703258D02*
X177196895Y-127779449D01*
X177196895Y-127779449D02*
X177196895Y-128008020D01*
X177196895Y-128008020D02*
X177158800Y-128084211D01*
X177158800Y-128084211D02*
X177120704Y-128122306D01*
X113412419Y-128833972D02*
X114412419Y-128500639D01*
X114412419Y-128500639D02*
X113412419Y-128167306D01*
X114412419Y-127833972D02*
X113412419Y-127833972D01*
X114412419Y-127357782D02*
X113412419Y-127357782D01*
X113412419Y-127357782D02*
X114412419Y-126786354D01*
X114412419Y-126786354D02*
X113412419Y-126786354D01*
X115922419Y-130488972D02*
X116922419Y-130155639D01*
X116922419Y-130155639D02*
X115922419Y-129822306D01*
X116922419Y-129488972D02*
X115922419Y-129488972D01*
X116922419Y-129012782D02*
X115922419Y-129012782D01*
X115922419Y-129012782D02*
X116922419Y-128441354D01*
X116922419Y-128441354D02*
X115922419Y-128441354D01*
X117017657Y-128203259D02*
X117017657Y-127441354D01*
X115922419Y-127346115D02*
X116922419Y-127012782D01*
X116922419Y-127012782D02*
X115922419Y-126679449D01*
X199296895Y-131408020D02*
X199296895Y-130950877D01*
X200096895Y-131179449D02*
X199296895Y-131179449D01*
X200096895Y-130684210D02*
X199296895Y-130684210D01*
X199677847Y-130684210D02*
X199677847Y-130227067D01*
X200096895Y-130227067D02*
X199296895Y-130227067D01*
X200096895Y-129388972D02*
X199715942Y-129655639D01*
X200096895Y-129846115D02*
X199296895Y-129846115D01*
X199296895Y-129846115D02*
X199296895Y-129541353D01*
X199296895Y-129541353D02*
X199334990Y-129465163D01*
X199334990Y-129465163D02*
X199373085Y-129427068D01*
X199373085Y-129427068D02*
X199449276Y-129388972D01*
X199449276Y-129388972D02*
X199563561Y-129388972D01*
X199563561Y-129388972D02*
X199639752Y-129427068D01*
X199639752Y-129427068D02*
X199677847Y-129465163D01*
X199677847Y-129465163D02*
X199715942Y-129541353D01*
X199715942Y-129541353D02*
X199715942Y-129846115D01*
X200173085Y-129236592D02*
X200173085Y-128627068D01*
X200096895Y-128436591D02*
X199296895Y-128436591D01*
X200096895Y-128055639D02*
X199296895Y-128055639D01*
X199296895Y-128055639D02*
X200096895Y-127598496D01*
X200096895Y-127598496D02*
X199296895Y-127598496D01*
X187358800Y-131731830D02*
X187396895Y-131617544D01*
X187396895Y-131617544D02*
X187396895Y-131427068D01*
X187396895Y-131427068D02*
X187358800Y-131350877D01*
X187358800Y-131350877D02*
X187320704Y-131312782D01*
X187320704Y-131312782D02*
X187244514Y-131274687D01*
X187244514Y-131274687D02*
X187168323Y-131274687D01*
X187168323Y-131274687D02*
X187092133Y-131312782D01*
X187092133Y-131312782D02*
X187054038Y-131350877D01*
X187054038Y-131350877D02*
X187015942Y-131427068D01*
X187015942Y-131427068D02*
X186977847Y-131579449D01*
X186977847Y-131579449D02*
X186939752Y-131655639D01*
X186939752Y-131655639D02*
X186901657Y-131693734D01*
X186901657Y-131693734D02*
X186825466Y-131731830D01*
X186825466Y-131731830D02*
X186749276Y-131731830D01*
X186749276Y-131731830D02*
X186673085Y-131693734D01*
X186673085Y-131693734D02*
X186634990Y-131655639D01*
X186634990Y-131655639D02*
X186596895Y-131579449D01*
X186596895Y-131579449D02*
X186596895Y-131388972D01*
X186596895Y-131388972D02*
X186634990Y-131274687D01*
X187396895Y-130931829D02*
X186596895Y-130931829D01*
X186596895Y-130931829D02*
X186596895Y-130627067D01*
X186596895Y-130627067D02*
X186634990Y-130550877D01*
X186634990Y-130550877D02*
X186673085Y-130512782D01*
X186673085Y-130512782D02*
X186749276Y-130474686D01*
X186749276Y-130474686D02*
X186863561Y-130474686D01*
X186863561Y-130474686D02*
X186939752Y-130512782D01*
X186939752Y-130512782D02*
X186977847Y-130550877D01*
X186977847Y-130550877D02*
X187015942Y-130627067D01*
X187015942Y-130627067D02*
X187015942Y-130931829D01*
X186977847Y-130131829D02*
X186977847Y-129865163D01*
X187396895Y-129750877D02*
X187396895Y-130131829D01*
X187396895Y-130131829D02*
X186596895Y-130131829D01*
X186596895Y-130131829D02*
X186596895Y-129750877D01*
X186977847Y-129408019D02*
X186977847Y-129141353D01*
X187396895Y-129027067D02*
X187396895Y-129408019D01*
X187396895Y-129408019D02*
X186596895Y-129408019D01*
X186596895Y-129408019D02*
X186596895Y-129027067D01*
X187396895Y-128684209D02*
X186596895Y-128684209D01*
X186596895Y-128684209D02*
X186596895Y-128493733D01*
X186596895Y-128493733D02*
X186634990Y-128379447D01*
X186634990Y-128379447D02*
X186711180Y-128303257D01*
X186711180Y-128303257D02*
X186787371Y-128265162D01*
X186787371Y-128265162D02*
X186939752Y-128227066D01*
X186939752Y-128227066D02*
X187054038Y-128227066D01*
X187054038Y-128227066D02*
X187206419Y-128265162D01*
X187206419Y-128265162D02*
X187282609Y-128303257D01*
X187282609Y-128303257D02*
X187358800Y-128379447D01*
X187358800Y-128379447D02*
X187396895Y-128493733D01*
X187396895Y-128493733D02*
X187396895Y-128684209D01*
X187473085Y-128074686D02*
X187473085Y-127465162D01*
X187358800Y-127312781D02*
X187396895Y-127198495D01*
X187396895Y-127198495D02*
X187396895Y-127008019D01*
X187396895Y-127008019D02*
X187358800Y-126931828D01*
X187358800Y-126931828D02*
X187320704Y-126893733D01*
X187320704Y-126893733D02*
X187244514Y-126855638D01*
X187244514Y-126855638D02*
X187168323Y-126855638D01*
X187168323Y-126855638D02*
X187092133Y-126893733D01*
X187092133Y-126893733D02*
X187054038Y-126931828D01*
X187054038Y-126931828D02*
X187015942Y-127008019D01*
X187015942Y-127008019D02*
X186977847Y-127160400D01*
X186977847Y-127160400D02*
X186939752Y-127236590D01*
X186939752Y-127236590D02*
X186901657Y-127274685D01*
X186901657Y-127274685D02*
X186825466Y-127312781D01*
X186825466Y-127312781D02*
X186749276Y-127312781D01*
X186749276Y-127312781D02*
X186673085Y-127274685D01*
X186673085Y-127274685D02*
X186634990Y-127236590D01*
X186634990Y-127236590D02*
X186596895Y-127160400D01*
X186596895Y-127160400D02*
X186596895Y-126969923D01*
X186596895Y-126969923D02*
X186634990Y-126855638D01*
X130584990Y-128424687D02*
X130546895Y-128500877D01*
X130546895Y-128500877D02*
X130546895Y-128615163D01*
X130546895Y-128615163D02*
X130584990Y-128729449D01*
X130584990Y-128729449D02*
X130661180Y-128805639D01*
X130661180Y-128805639D02*
X130737371Y-128843734D01*
X130737371Y-128843734D02*
X130889752Y-128881830D01*
X130889752Y-128881830D02*
X131004038Y-128881830D01*
X131004038Y-128881830D02*
X131156419Y-128843734D01*
X131156419Y-128843734D02*
X131232609Y-128805639D01*
X131232609Y-128805639D02*
X131308800Y-128729449D01*
X131308800Y-128729449D02*
X131346895Y-128615163D01*
X131346895Y-128615163D02*
X131346895Y-128538972D01*
X131346895Y-128538972D02*
X131308800Y-128424687D01*
X131308800Y-128424687D02*
X131270704Y-128386591D01*
X131270704Y-128386591D02*
X131004038Y-128386591D01*
X131004038Y-128386591D02*
X131004038Y-128538972D01*
X131346895Y-128043734D02*
X130546895Y-128043734D01*
X130546895Y-128043734D02*
X131346895Y-127586591D01*
X131346895Y-127586591D02*
X130546895Y-127586591D01*
X131346895Y-127205639D02*
X130546895Y-127205639D01*
X130546895Y-127205639D02*
X130546895Y-127015163D01*
X130546895Y-127015163D02*
X130584990Y-126900877D01*
X130584990Y-126900877D02*
X130661180Y-126824687D01*
X130661180Y-126824687D02*
X130737371Y-126786592D01*
X130737371Y-126786592D02*
X130889752Y-126748496D01*
X130889752Y-126748496D02*
X131004038Y-126748496D01*
X131004038Y-126748496D02*
X131156419Y-126786592D01*
X131156419Y-126786592D02*
X131232609Y-126824687D01*
X131232609Y-126824687D02*
X131308800Y-126900877D01*
X131308800Y-126900877D02*
X131346895Y-127015163D01*
X131346895Y-127015163D02*
X131346895Y-127205639D01*
X148246895Y-129558020D02*
X149046895Y-129291353D01*
X149046895Y-129291353D02*
X148246895Y-129024687D01*
X149046895Y-128758020D02*
X148246895Y-128758020D01*
X149046895Y-128377068D02*
X148246895Y-128377068D01*
X148246895Y-128377068D02*
X149046895Y-127919925D01*
X149046895Y-127919925D02*
X148246895Y-127919925D01*
X232356265Y-128986704D02*
X232832455Y-128986704D01*
X232261027Y-129272419D02*
X232594360Y-128272419D01*
X232594360Y-128272419D02*
X232927693Y-129272419D01*
X233165789Y-128272419D02*
X233784836Y-128272419D01*
X233784836Y-128272419D02*
X233451503Y-128653371D01*
X233451503Y-128653371D02*
X233594360Y-128653371D01*
X233594360Y-128653371D02*
X233689598Y-128700990D01*
X233689598Y-128700990D02*
X233737217Y-128748609D01*
X233737217Y-128748609D02*
X233784836Y-128843847D01*
X233784836Y-128843847D02*
X233784836Y-129081942D01*
X233784836Y-129081942D02*
X233737217Y-129177180D01*
X233737217Y-129177180D02*
X233689598Y-129224800D01*
X233689598Y-129224800D02*
X233594360Y-129272419D01*
X233594360Y-129272419D02*
X233308646Y-129272419D01*
X233308646Y-129272419D02*
X233213408Y-129224800D01*
X233213408Y-129224800D02*
X233165789Y-129177180D01*
X161284990Y-129424687D02*
X161246895Y-129500877D01*
X161246895Y-129500877D02*
X161246895Y-129615163D01*
X161246895Y-129615163D02*
X161284990Y-129729449D01*
X161284990Y-129729449D02*
X161361180Y-129805639D01*
X161361180Y-129805639D02*
X161437371Y-129843734D01*
X161437371Y-129843734D02*
X161589752Y-129881830D01*
X161589752Y-129881830D02*
X161704038Y-129881830D01*
X161704038Y-129881830D02*
X161856419Y-129843734D01*
X161856419Y-129843734D02*
X161932609Y-129805639D01*
X161932609Y-129805639D02*
X162008800Y-129729449D01*
X162008800Y-129729449D02*
X162046895Y-129615163D01*
X162046895Y-129615163D02*
X162046895Y-129538972D01*
X162046895Y-129538972D02*
X162008800Y-129424687D01*
X162008800Y-129424687D02*
X161970704Y-129386591D01*
X161970704Y-129386591D02*
X161704038Y-129386591D01*
X161704038Y-129386591D02*
X161704038Y-129538972D01*
X162046895Y-129043734D02*
X161246895Y-129043734D01*
X161246895Y-129043734D02*
X162046895Y-128586591D01*
X162046895Y-128586591D02*
X161246895Y-128586591D01*
X162046895Y-128205639D02*
X161246895Y-128205639D01*
X161246895Y-128205639D02*
X161246895Y-128015163D01*
X161246895Y-128015163D02*
X161284990Y-127900877D01*
X161284990Y-127900877D02*
X161361180Y-127824687D01*
X161361180Y-127824687D02*
X161437371Y-127786592D01*
X161437371Y-127786592D02*
X161589752Y-127748496D01*
X161589752Y-127748496D02*
X161704038Y-127748496D01*
X161704038Y-127748496D02*
X161856419Y-127786592D01*
X161856419Y-127786592D02*
X161932609Y-127824687D01*
X161932609Y-127824687D02*
X162008800Y-127900877D01*
X162008800Y-127900877D02*
X162046895Y-128015163D01*
X162046895Y-128015163D02*
X162046895Y-128205639D01*
X172227847Y-130627068D02*
X172265942Y-130512782D01*
X172265942Y-130512782D02*
X172304038Y-130474687D01*
X172304038Y-130474687D02*
X172380228Y-130436591D01*
X172380228Y-130436591D02*
X172494514Y-130436591D01*
X172494514Y-130436591D02*
X172570704Y-130474687D01*
X172570704Y-130474687D02*
X172608800Y-130512782D01*
X172608800Y-130512782D02*
X172646895Y-130588972D01*
X172646895Y-130588972D02*
X172646895Y-130893734D01*
X172646895Y-130893734D02*
X171846895Y-130893734D01*
X171846895Y-130893734D02*
X171846895Y-130627068D01*
X171846895Y-130627068D02*
X171884990Y-130550877D01*
X171884990Y-130550877D02*
X171923085Y-130512782D01*
X171923085Y-130512782D02*
X171999276Y-130474687D01*
X171999276Y-130474687D02*
X172075466Y-130474687D01*
X172075466Y-130474687D02*
X172151657Y-130512782D01*
X172151657Y-130512782D02*
X172189752Y-130550877D01*
X172189752Y-130550877D02*
X172227847Y-130627068D01*
X172227847Y-130627068D02*
X172227847Y-130893734D01*
X171846895Y-130093734D02*
X172494514Y-130093734D01*
X172494514Y-130093734D02*
X172570704Y-130055639D01*
X172570704Y-130055639D02*
X172608800Y-130017544D01*
X172608800Y-130017544D02*
X172646895Y-129941353D01*
X172646895Y-129941353D02*
X172646895Y-129788972D01*
X172646895Y-129788972D02*
X172608800Y-129712782D01*
X172608800Y-129712782D02*
X172570704Y-129674687D01*
X172570704Y-129674687D02*
X172494514Y-129636591D01*
X172494514Y-129636591D02*
X171846895Y-129636591D01*
X171846895Y-129369925D02*
X171846895Y-128912782D01*
X172646895Y-129141354D02*
X171846895Y-129141354D01*
X171846895Y-128760401D02*
X171846895Y-128303258D01*
X172646895Y-128531830D02*
X171846895Y-128531830D01*
X172646895Y-127617544D02*
X172646895Y-128074687D01*
X172646895Y-127846115D02*
X171846895Y-127846115D01*
X171846895Y-127846115D02*
X171961180Y-127922306D01*
X171961180Y-127922306D02*
X172037371Y-127998496D01*
X172037371Y-127998496D02*
X172075466Y-128074687D01*
X210706895Y-131748734D02*
X209906895Y-131748734D01*
X209906895Y-131748734D02*
X209906895Y-131443972D01*
X209906895Y-131443972D02*
X209944990Y-131367782D01*
X209944990Y-131367782D02*
X209983085Y-131329687D01*
X209983085Y-131329687D02*
X210059276Y-131291591D01*
X210059276Y-131291591D02*
X210173561Y-131291591D01*
X210173561Y-131291591D02*
X210249752Y-131329687D01*
X210249752Y-131329687D02*
X210287847Y-131367782D01*
X210287847Y-131367782D02*
X210325942Y-131443972D01*
X210325942Y-131443972D02*
X210325942Y-131748734D01*
X210478323Y-130986830D02*
X210478323Y-130605877D01*
X210706895Y-131063020D02*
X209906895Y-130796353D01*
X209906895Y-130796353D02*
X210706895Y-130529687D01*
X210668800Y-130301116D02*
X210706895Y-130186830D01*
X210706895Y-130186830D02*
X210706895Y-129996354D01*
X210706895Y-129996354D02*
X210668800Y-129920163D01*
X210668800Y-129920163D02*
X210630704Y-129882068D01*
X210630704Y-129882068D02*
X210554514Y-129843973D01*
X210554514Y-129843973D02*
X210478323Y-129843973D01*
X210478323Y-129843973D02*
X210402133Y-129882068D01*
X210402133Y-129882068D02*
X210364038Y-129920163D01*
X210364038Y-129920163D02*
X210325942Y-129996354D01*
X210325942Y-129996354D02*
X210287847Y-130148735D01*
X210287847Y-130148735D02*
X210249752Y-130224925D01*
X210249752Y-130224925D02*
X210211657Y-130263020D01*
X210211657Y-130263020D02*
X210135466Y-130301116D01*
X210135466Y-130301116D02*
X210059276Y-130301116D01*
X210059276Y-130301116D02*
X209983085Y-130263020D01*
X209983085Y-130263020D02*
X209944990Y-130224925D01*
X209944990Y-130224925D02*
X209906895Y-130148735D01*
X209906895Y-130148735D02*
X209906895Y-129958258D01*
X209906895Y-129958258D02*
X209944990Y-129843973D01*
X210783085Y-129691592D02*
X210783085Y-129082068D01*
X210668800Y-128929687D02*
X210706895Y-128815401D01*
X210706895Y-128815401D02*
X210706895Y-128624925D01*
X210706895Y-128624925D02*
X210668800Y-128548734D01*
X210668800Y-128548734D02*
X210630704Y-128510639D01*
X210630704Y-128510639D02*
X210554514Y-128472544D01*
X210554514Y-128472544D02*
X210478323Y-128472544D01*
X210478323Y-128472544D02*
X210402133Y-128510639D01*
X210402133Y-128510639D02*
X210364038Y-128548734D01*
X210364038Y-128548734D02*
X210325942Y-128624925D01*
X210325942Y-128624925D02*
X210287847Y-128777306D01*
X210287847Y-128777306D02*
X210249752Y-128853496D01*
X210249752Y-128853496D02*
X210211657Y-128891591D01*
X210211657Y-128891591D02*
X210135466Y-128929687D01*
X210135466Y-128929687D02*
X210059276Y-128929687D01*
X210059276Y-128929687D02*
X209983085Y-128891591D01*
X209983085Y-128891591D02*
X209944990Y-128853496D01*
X209944990Y-128853496D02*
X209906895Y-128777306D01*
X209906895Y-128777306D02*
X209906895Y-128586829D01*
X209906895Y-128586829D02*
X209944990Y-128472544D01*
X210706895Y-128129686D02*
X209906895Y-128129686D01*
X209944990Y-127329687D02*
X209906895Y-127405877D01*
X209906895Y-127405877D02*
X209906895Y-127520163D01*
X209906895Y-127520163D02*
X209944990Y-127634449D01*
X209944990Y-127634449D02*
X210021180Y-127710639D01*
X210021180Y-127710639D02*
X210097371Y-127748734D01*
X210097371Y-127748734D02*
X210249752Y-127786830D01*
X210249752Y-127786830D02*
X210364038Y-127786830D01*
X210364038Y-127786830D02*
X210516419Y-127748734D01*
X210516419Y-127748734D02*
X210592609Y-127710639D01*
X210592609Y-127710639D02*
X210668800Y-127634449D01*
X210668800Y-127634449D02*
X210706895Y-127520163D01*
X210706895Y-127520163D02*
X210706895Y-127443972D01*
X210706895Y-127443972D02*
X210668800Y-127329687D01*
X210668800Y-127329687D02*
X210630704Y-127291591D01*
X210630704Y-127291591D02*
X210364038Y-127291591D01*
X210364038Y-127291591D02*
X210364038Y-127443972D01*
X140674990Y-129569687D02*
X140636895Y-129645877D01*
X140636895Y-129645877D02*
X140636895Y-129760163D01*
X140636895Y-129760163D02*
X140674990Y-129874449D01*
X140674990Y-129874449D02*
X140751180Y-129950639D01*
X140751180Y-129950639D02*
X140827371Y-129988734D01*
X140827371Y-129988734D02*
X140979752Y-130026830D01*
X140979752Y-130026830D02*
X141094038Y-130026830D01*
X141094038Y-130026830D02*
X141246419Y-129988734D01*
X141246419Y-129988734D02*
X141322609Y-129950639D01*
X141322609Y-129950639D02*
X141398800Y-129874449D01*
X141398800Y-129874449D02*
X141436895Y-129760163D01*
X141436895Y-129760163D02*
X141436895Y-129683972D01*
X141436895Y-129683972D02*
X141398800Y-129569687D01*
X141398800Y-129569687D02*
X141360704Y-129531591D01*
X141360704Y-129531591D02*
X141094038Y-129531591D01*
X141094038Y-129531591D02*
X141094038Y-129683972D01*
X141436895Y-129188734D02*
X140636895Y-129188734D01*
X140636895Y-129188734D02*
X141436895Y-128731591D01*
X141436895Y-128731591D02*
X140636895Y-128731591D01*
X141436895Y-128350639D02*
X140636895Y-128350639D01*
X140636895Y-128350639D02*
X140636895Y-128160163D01*
X140636895Y-128160163D02*
X140674990Y-128045877D01*
X140674990Y-128045877D02*
X140751180Y-127969687D01*
X140751180Y-127969687D02*
X140827371Y-127931592D01*
X140827371Y-127931592D02*
X140979752Y-127893496D01*
X140979752Y-127893496D02*
X141094038Y-127893496D01*
X141094038Y-127893496D02*
X141246419Y-127931592D01*
X141246419Y-127931592D02*
X141322609Y-127969687D01*
X141322609Y-127969687D02*
X141398800Y-128045877D01*
X141398800Y-128045877D02*
X141436895Y-128160163D01*
X141436895Y-128160163D02*
X141436895Y-128350639D01*
X159360704Y-130686591D02*
X159398800Y-130724687D01*
X159398800Y-130724687D02*
X159436895Y-130838972D01*
X159436895Y-130838972D02*
X159436895Y-130915163D01*
X159436895Y-130915163D02*
X159398800Y-131029449D01*
X159398800Y-131029449D02*
X159322609Y-131105639D01*
X159322609Y-131105639D02*
X159246419Y-131143734D01*
X159246419Y-131143734D02*
X159094038Y-131181830D01*
X159094038Y-131181830D02*
X158979752Y-131181830D01*
X158979752Y-131181830D02*
X158827371Y-131143734D01*
X158827371Y-131143734D02*
X158751180Y-131105639D01*
X158751180Y-131105639D02*
X158674990Y-131029449D01*
X158674990Y-131029449D02*
X158636895Y-130915163D01*
X158636895Y-130915163D02*
X158636895Y-130838972D01*
X158636895Y-130838972D02*
X158674990Y-130724687D01*
X158674990Y-130724687D02*
X158713085Y-130686591D01*
X158636895Y-130343734D02*
X159284514Y-130343734D01*
X159284514Y-130343734D02*
X159360704Y-130305639D01*
X159360704Y-130305639D02*
X159398800Y-130267544D01*
X159398800Y-130267544D02*
X159436895Y-130191353D01*
X159436895Y-130191353D02*
X159436895Y-130038972D01*
X159436895Y-130038972D02*
X159398800Y-129962782D01*
X159398800Y-129962782D02*
X159360704Y-129924687D01*
X159360704Y-129924687D02*
X159284514Y-129886591D01*
X159284514Y-129886591D02*
X158636895Y-129886591D01*
X159436895Y-129048496D02*
X159055942Y-129315163D01*
X159436895Y-129505639D02*
X158636895Y-129505639D01*
X158636895Y-129505639D02*
X158636895Y-129200877D01*
X158636895Y-129200877D02*
X158674990Y-129124687D01*
X158674990Y-129124687D02*
X158713085Y-129086592D01*
X158713085Y-129086592D02*
X158789276Y-129048496D01*
X158789276Y-129048496D02*
X158903561Y-129048496D01*
X158903561Y-129048496D02*
X158979752Y-129086592D01*
X158979752Y-129086592D02*
X159017847Y-129124687D01*
X159017847Y-129124687D02*
X159055942Y-129200877D01*
X159055942Y-129200877D02*
X159055942Y-129505639D01*
X159513085Y-128896116D02*
X159513085Y-128286592D01*
X159398800Y-128134211D02*
X159436895Y-128019925D01*
X159436895Y-128019925D02*
X159436895Y-127829449D01*
X159436895Y-127829449D02*
X159398800Y-127753258D01*
X159398800Y-127753258D02*
X159360704Y-127715163D01*
X159360704Y-127715163D02*
X159284514Y-127677068D01*
X159284514Y-127677068D02*
X159208323Y-127677068D01*
X159208323Y-127677068D02*
X159132133Y-127715163D01*
X159132133Y-127715163D02*
X159094038Y-127753258D01*
X159094038Y-127753258D02*
X159055942Y-127829449D01*
X159055942Y-127829449D02*
X159017847Y-127981830D01*
X159017847Y-127981830D02*
X158979752Y-128058020D01*
X158979752Y-128058020D02*
X158941657Y-128096115D01*
X158941657Y-128096115D02*
X158865466Y-128134211D01*
X158865466Y-128134211D02*
X158789276Y-128134211D01*
X158789276Y-128134211D02*
X158713085Y-128096115D01*
X158713085Y-128096115D02*
X158674990Y-128058020D01*
X158674990Y-128058020D02*
X158636895Y-127981830D01*
X158636895Y-127981830D02*
X158636895Y-127791353D01*
X158636895Y-127791353D02*
X158674990Y-127677068D01*
X169408800Y-129581830D02*
X169446895Y-129467544D01*
X169446895Y-129467544D02*
X169446895Y-129277068D01*
X169446895Y-129277068D02*
X169408800Y-129200877D01*
X169408800Y-129200877D02*
X169370704Y-129162782D01*
X169370704Y-129162782D02*
X169294514Y-129124687D01*
X169294514Y-129124687D02*
X169218323Y-129124687D01*
X169218323Y-129124687D02*
X169142133Y-129162782D01*
X169142133Y-129162782D02*
X169104038Y-129200877D01*
X169104038Y-129200877D02*
X169065942Y-129277068D01*
X169065942Y-129277068D02*
X169027847Y-129429449D01*
X169027847Y-129429449D02*
X168989752Y-129505639D01*
X168989752Y-129505639D02*
X168951657Y-129543734D01*
X168951657Y-129543734D02*
X168875466Y-129581830D01*
X168875466Y-129581830D02*
X168799276Y-129581830D01*
X168799276Y-129581830D02*
X168723085Y-129543734D01*
X168723085Y-129543734D02*
X168684990Y-129505639D01*
X168684990Y-129505639D02*
X168646895Y-129429449D01*
X168646895Y-129429449D02*
X168646895Y-129238972D01*
X168646895Y-129238972D02*
X168684990Y-129124687D01*
X169370704Y-128324686D02*
X169408800Y-128362782D01*
X169408800Y-128362782D02*
X169446895Y-128477067D01*
X169446895Y-128477067D02*
X169446895Y-128553258D01*
X169446895Y-128553258D02*
X169408800Y-128667544D01*
X169408800Y-128667544D02*
X169332609Y-128743734D01*
X169332609Y-128743734D02*
X169256419Y-128781829D01*
X169256419Y-128781829D02*
X169104038Y-128819925D01*
X169104038Y-128819925D02*
X168989752Y-128819925D01*
X168989752Y-128819925D02*
X168837371Y-128781829D01*
X168837371Y-128781829D02*
X168761180Y-128743734D01*
X168761180Y-128743734D02*
X168684990Y-128667544D01*
X168684990Y-128667544D02*
X168646895Y-128553258D01*
X168646895Y-128553258D02*
X168646895Y-128477067D01*
X168646895Y-128477067D02*
X168684990Y-128362782D01*
X168684990Y-128362782D02*
X168723085Y-128324686D01*
X169446895Y-127600877D02*
X169446895Y-127981829D01*
X169446895Y-127981829D02*
X168646895Y-127981829D01*
X189184990Y-129324687D02*
X189146895Y-129400877D01*
X189146895Y-129400877D02*
X189146895Y-129515163D01*
X189146895Y-129515163D02*
X189184990Y-129629449D01*
X189184990Y-129629449D02*
X189261180Y-129705639D01*
X189261180Y-129705639D02*
X189337371Y-129743734D01*
X189337371Y-129743734D02*
X189489752Y-129781830D01*
X189489752Y-129781830D02*
X189604038Y-129781830D01*
X189604038Y-129781830D02*
X189756419Y-129743734D01*
X189756419Y-129743734D02*
X189832609Y-129705639D01*
X189832609Y-129705639D02*
X189908800Y-129629449D01*
X189908800Y-129629449D02*
X189946895Y-129515163D01*
X189946895Y-129515163D02*
X189946895Y-129438972D01*
X189946895Y-129438972D02*
X189908800Y-129324687D01*
X189908800Y-129324687D02*
X189870704Y-129286591D01*
X189870704Y-129286591D02*
X189604038Y-129286591D01*
X189604038Y-129286591D02*
X189604038Y-129438972D01*
X189946895Y-128943734D02*
X189146895Y-128943734D01*
X189146895Y-128943734D02*
X189946895Y-128486591D01*
X189946895Y-128486591D02*
X189146895Y-128486591D01*
X189946895Y-128105639D02*
X189146895Y-128105639D01*
X189146895Y-128105639D02*
X189146895Y-127915163D01*
X189146895Y-127915163D02*
X189184990Y-127800877D01*
X189184990Y-127800877D02*
X189261180Y-127724687D01*
X189261180Y-127724687D02*
X189337371Y-127686592D01*
X189337371Y-127686592D02*
X189489752Y-127648496D01*
X189489752Y-127648496D02*
X189604038Y-127648496D01*
X189604038Y-127648496D02*
X189756419Y-127686592D01*
X189756419Y-127686592D02*
X189832609Y-127724687D01*
X189832609Y-127724687D02*
X189908800Y-127800877D01*
X189908800Y-127800877D02*
X189946895Y-127915163D01*
X189946895Y-127915163D02*
X189946895Y-128105639D01*
X128063561Y-128250877D02*
X128596895Y-128250877D01*
X127758800Y-128441353D02*
X128330228Y-128631830D01*
X128330228Y-128631830D02*
X128330228Y-128136591D01*
X127796895Y-127946115D02*
X128596895Y-127679448D01*
X128596895Y-127679448D02*
X127796895Y-127412782D01*
X127796895Y-127222306D02*
X127796895Y-126727068D01*
X127796895Y-126727068D02*
X128101657Y-126993734D01*
X128101657Y-126993734D02*
X128101657Y-126879449D01*
X128101657Y-126879449D02*
X128139752Y-126803258D01*
X128139752Y-126803258D02*
X128177847Y-126765163D01*
X128177847Y-126765163D02*
X128254038Y-126727068D01*
X128254038Y-126727068D02*
X128444514Y-126727068D01*
X128444514Y-126727068D02*
X128520704Y-126765163D01*
X128520704Y-126765163D02*
X128558800Y-126803258D01*
X128558800Y-126803258D02*
X128596895Y-126879449D01*
X128596895Y-126879449D02*
X128596895Y-127108020D01*
X128596895Y-127108020D02*
X128558800Y-127184211D01*
X128558800Y-127184211D02*
X128520704Y-127222306D01*
X181684990Y-129324687D02*
X181646895Y-129400877D01*
X181646895Y-129400877D02*
X181646895Y-129515163D01*
X181646895Y-129515163D02*
X181684990Y-129629449D01*
X181684990Y-129629449D02*
X181761180Y-129705639D01*
X181761180Y-129705639D02*
X181837371Y-129743734D01*
X181837371Y-129743734D02*
X181989752Y-129781830D01*
X181989752Y-129781830D02*
X182104038Y-129781830D01*
X182104038Y-129781830D02*
X182256419Y-129743734D01*
X182256419Y-129743734D02*
X182332609Y-129705639D01*
X182332609Y-129705639D02*
X182408800Y-129629449D01*
X182408800Y-129629449D02*
X182446895Y-129515163D01*
X182446895Y-129515163D02*
X182446895Y-129438972D01*
X182446895Y-129438972D02*
X182408800Y-129324687D01*
X182408800Y-129324687D02*
X182370704Y-129286591D01*
X182370704Y-129286591D02*
X182104038Y-129286591D01*
X182104038Y-129286591D02*
X182104038Y-129438972D01*
X182446895Y-128943734D02*
X181646895Y-128943734D01*
X181646895Y-128943734D02*
X182446895Y-128486591D01*
X182446895Y-128486591D02*
X181646895Y-128486591D01*
X182446895Y-128105639D02*
X181646895Y-128105639D01*
X181646895Y-128105639D02*
X181646895Y-127915163D01*
X181646895Y-127915163D02*
X181684990Y-127800877D01*
X181684990Y-127800877D02*
X181761180Y-127724687D01*
X181761180Y-127724687D02*
X181837371Y-127686592D01*
X181837371Y-127686592D02*
X181989752Y-127648496D01*
X181989752Y-127648496D02*
X182104038Y-127648496D01*
X182104038Y-127648496D02*
X182256419Y-127686592D01*
X182256419Y-127686592D02*
X182332609Y-127724687D01*
X182332609Y-127724687D02*
X182408800Y-127800877D01*
X182408800Y-127800877D02*
X182446895Y-127915163D01*
X182446895Y-127915163D02*
X182446895Y-128105639D01*
X202084990Y-129374687D02*
X202046895Y-129450877D01*
X202046895Y-129450877D02*
X202046895Y-129565163D01*
X202046895Y-129565163D02*
X202084990Y-129679449D01*
X202084990Y-129679449D02*
X202161180Y-129755639D01*
X202161180Y-129755639D02*
X202237371Y-129793734D01*
X202237371Y-129793734D02*
X202389752Y-129831830D01*
X202389752Y-129831830D02*
X202504038Y-129831830D01*
X202504038Y-129831830D02*
X202656419Y-129793734D01*
X202656419Y-129793734D02*
X202732609Y-129755639D01*
X202732609Y-129755639D02*
X202808800Y-129679449D01*
X202808800Y-129679449D02*
X202846895Y-129565163D01*
X202846895Y-129565163D02*
X202846895Y-129488972D01*
X202846895Y-129488972D02*
X202808800Y-129374687D01*
X202808800Y-129374687D02*
X202770704Y-129336591D01*
X202770704Y-129336591D02*
X202504038Y-129336591D01*
X202504038Y-129336591D02*
X202504038Y-129488972D01*
X202846895Y-128993734D02*
X202046895Y-128993734D01*
X202046895Y-128993734D02*
X202846895Y-128536591D01*
X202846895Y-128536591D02*
X202046895Y-128536591D01*
X202846895Y-128155639D02*
X202046895Y-128155639D01*
X202046895Y-128155639D02*
X202046895Y-127965163D01*
X202046895Y-127965163D02*
X202084990Y-127850877D01*
X202084990Y-127850877D02*
X202161180Y-127774687D01*
X202161180Y-127774687D02*
X202237371Y-127736592D01*
X202237371Y-127736592D02*
X202389752Y-127698496D01*
X202389752Y-127698496D02*
X202504038Y-127698496D01*
X202504038Y-127698496D02*
X202656419Y-127736592D01*
X202656419Y-127736592D02*
X202732609Y-127774687D01*
X202732609Y-127774687D02*
X202808800Y-127850877D01*
X202808800Y-127850877D02*
X202846895Y-127965163D01*
X202846895Y-127965163D02*
X202846895Y-128155639D01*
X230234990Y-129474687D02*
X230196895Y-129550877D01*
X230196895Y-129550877D02*
X230196895Y-129665163D01*
X230196895Y-129665163D02*
X230234990Y-129779449D01*
X230234990Y-129779449D02*
X230311180Y-129855639D01*
X230311180Y-129855639D02*
X230387371Y-129893734D01*
X230387371Y-129893734D02*
X230539752Y-129931830D01*
X230539752Y-129931830D02*
X230654038Y-129931830D01*
X230654038Y-129931830D02*
X230806419Y-129893734D01*
X230806419Y-129893734D02*
X230882609Y-129855639D01*
X230882609Y-129855639D02*
X230958800Y-129779449D01*
X230958800Y-129779449D02*
X230996895Y-129665163D01*
X230996895Y-129665163D02*
X230996895Y-129588972D01*
X230996895Y-129588972D02*
X230958800Y-129474687D01*
X230958800Y-129474687D02*
X230920704Y-129436591D01*
X230920704Y-129436591D02*
X230654038Y-129436591D01*
X230654038Y-129436591D02*
X230654038Y-129588972D01*
X230996895Y-129093734D02*
X230196895Y-129093734D01*
X230196895Y-129093734D02*
X230996895Y-128636591D01*
X230996895Y-128636591D02*
X230196895Y-128636591D01*
X230996895Y-128255639D02*
X230196895Y-128255639D01*
X230196895Y-128255639D02*
X230196895Y-128065163D01*
X230196895Y-128065163D02*
X230234990Y-127950877D01*
X230234990Y-127950877D02*
X230311180Y-127874687D01*
X230311180Y-127874687D02*
X230387371Y-127836592D01*
X230387371Y-127836592D02*
X230539752Y-127798496D01*
X230539752Y-127798496D02*
X230654038Y-127798496D01*
X230654038Y-127798496D02*
X230806419Y-127836592D01*
X230806419Y-127836592D02*
X230882609Y-127874687D01*
X230882609Y-127874687D02*
X230958800Y-127950877D01*
X230958800Y-127950877D02*
X230996895Y-128065163D01*
X230996895Y-128065163D02*
X230996895Y-128255639D01*
D12*
X183204819Y-92142857D02*
X182728628Y-92476190D01*
X183204819Y-92714285D02*
X182204819Y-92714285D01*
X182204819Y-92714285D02*
X182204819Y-92333333D01*
X182204819Y-92333333D02*
X182252438Y-92238095D01*
X182252438Y-92238095D02*
X182300057Y-92190476D01*
X182300057Y-92190476D02*
X182395295Y-92142857D01*
X182395295Y-92142857D02*
X182538152Y-92142857D01*
X182538152Y-92142857D02*
X182633390Y-92190476D01*
X182633390Y-92190476D02*
X182681009Y-92238095D01*
X182681009Y-92238095D02*
X182728628Y-92333333D01*
X182728628Y-92333333D02*
X182728628Y-92714285D01*
X182300057Y-91761904D02*
X182252438Y-91714285D01*
X182252438Y-91714285D02*
X182204819Y-91619047D01*
X182204819Y-91619047D02*
X182204819Y-91380952D01*
X182204819Y-91380952D02*
X182252438Y-91285714D01*
X182252438Y-91285714D02*
X182300057Y-91238095D01*
X182300057Y-91238095D02*
X182395295Y-91190476D01*
X182395295Y-91190476D02*
X182490533Y-91190476D01*
X182490533Y-91190476D02*
X182633390Y-91238095D01*
X182633390Y-91238095D02*
X183204819Y-91809523D01*
X183204819Y-91809523D02*
X183204819Y-91190476D01*
X182300057Y-90809523D02*
X182252438Y-90761904D01*
X182252438Y-90761904D02*
X182204819Y-90666666D01*
X182204819Y-90666666D02*
X182204819Y-90428571D01*
X182204819Y-90428571D02*
X182252438Y-90333333D01*
X182252438Y-90333333D02*
X182300057Y-90285714D01*
X182300057Y-90285714D02*
X182395295Y-90238095D01*
X182395295Y-90238095D02*
X182490533Y-90238095D01*
X182490533Y-90238095D02*
X182633390Y-90285714D01*
X182633390Y-90285714D02*
X183204819Y-90857142D01*
X183204819Y-90857142D02*
X183204819Y-90238095D01*
X205454819Y-98892857D02*
X204978628Y-99226190D01*
X205454819Y-99464285D02*
X204454819Y-99464285D01*
X204454819Y-99464285D02*
X204454819Y-99083333D01*
X204454819Y-99083333D02*
X204502438Y-98988095D01*
X204502438Y-98988095D02*
X204550057Y-98940476D01*
X204550057Y-98940476D02*
X204645295Y-98892857D01*
X204645295Y-98892857D02*
X204788152Y-98892857D01*
X204788152Y-98892857D02*
X204883390Y-98940476D01*
X204883390Y-98940476D02*
X204931009Y-98988095D01*
X204931009Y-98988095D02*
X204978628Y-99083333D01*
X204978628Y-99083333D02*
X204978628Y-99464285D01*
X204454819Y-98559523D02*
X204454819Y-97940476D01*
X204454819Y-97940476D02*
X204835771Y-98273809D01*
X204835771Y-98273809D02*
X204835771Y-98130952D01*
X204835771Y-98130952D02*
X204883390Y-98035714D01*
X204883390Y-98035714D02*
X204931009Y-97988095D01*
X204931009Y-97988095D02*
X205026247Y-97940476D01*
X205026247Y-97940476D02*
X205264342Y-97940476D01*
X205264342Y-97940476D02*
X205359580Y-97988095D01*
X205359580Y-97988095D02*
X205407200Y-98035714D01*
X205407200Y-98035714D02*
X205454819Y-98130952D01*
X205454819Y-98130952D02*
X205454819Y-98416666D01*
X205454819Y-98416666D02*
X205407200Y-98511904D01*
X205407200Y-98511904D02*
X205359580Y-98559523D01*
X204454819Y-97035714D02*
X204454819Y-97511904D01*
X204454819Y-97511904D02*
X204931009Y-97559523D01*
X204931009Y-97559523D02*
X204883390Y-97511904D01*
X204883390Y-97511904D02*
X204835771Y-97416666D01*
X204835771Y-97416666D02*
X204835771Y-97178571D01*
X204835771Y-97178571D02*
X204883390Y-97083333D01*
X204883390Y-97083333D02*
X204931009Y-97035714D01*
X204931009Y-97035714D02*
X205026247Y-96988095D01*
X205026247Y-96988095D02*
X205264342Y-96988095D01*
X205264342Y-96988095D02*
X205359580Y-97035714D01*
X205359580Y-97035714D02*
X205407200Y-97083333D01*
X205407200Y-97083333D02*
X205454819Y-97178571D01*
X205454819Y-97178571D02*
X205454819Y-97416666D01*
X205454819Y-97416666D02*
X205407200Y-97511904D01*
X205407200Y-97511904D02*
X205359580Y-97559523D01*
D13*
X113346666Y-119758842D02*
X113528095Y-119819318D01*
X113528095Y-119819318D02*
X113830476Y-119819318D01*
X113830476Y-119819318D02*
X113951428Y-119758842D01*
X113951428Y-119758842D02*
X114011904Y-119698365D01*
X114011904Y-119698365D02*
X114072381Y-119577413D01*
X114072381Y-119577413D02*
X114072381Y-119456461D01*
X114072381Y-119456461D02*
X114011904Y-119335508D01*
X114011904Y-119335508D02*
X113951428Y-119275032D01*
X113951428Y-119275032D02*
X113830476Y-119214556D01*
X113830476Y-119214556D02*
X113588571Y-119154080D01*
X113588571Y-119154080D02*
X113467619Y-119093603D01*
X113467619Y-119093603D02*
X113407142Y-119033127D01*
X113407142Y-119033127D02*
X113346666Y-118912175D01*
X113346666Y-118912175D02*
X113346666Y-118791222D01*
X113346666Y-118791222D02*
X113407142Y-118670270D01*
X113407142Y-118670270D02*
X113467619Y-118609794D01*
X113467619Y-118609794D02*
X113588571Y-118549318D01*
X113588571Y-118549318D02*
X113890952Y-118549318D01*
X113890952Y-118549318D02*
X114072381Y-118609794D01*
X114495714Y-118549318D02*
X114798095Y-119819318D01*
X114798095Y-119819318D02*
X115040000Y-118912175D01*
X115040000Y-118912175D02*
X115281905Y-119819318D01*
X115281905Y-119819318D02*
X115584286Y-118549318D01*
X115947143Y-118549318D02*
X116733334Y-118549318D01*
X116733334Y-118549318D02*
X116310000Y-119033127D01*
X116310000Y-119033127D02*
X116491429Y-119033127D01*
X116491429Y-119033127D02*
X116612381Y-119093603D01*
X116612381Y-119093603D02*
X116672857Y-119154080D01*
X116672857Y-119154080D02*
X116733334Y-119275032D01*
X116733334Y-119275032D02*
X116733334Y-119577413D01*
X116733334Y-119577413D02*
X116672857Y-119698365D01*
X116672857Y-119698365D02*
X116612381Y-119758842D01*
X116612381Y-119758842D02*
X116491429Y-119819318D01*
X116491429Y-119819318D02*
X116128572Y-119819318D01*
X116128572Y-119819318D02*
X116007619Y-119758842D01*
X116007619Y-119758842D02*
X115947143Y-119698365D01*
D12*
X233916666Y-103957328D02*
X233916666Y-104671613D01*
X233916666Y-104671613D02*
X233869047Y-104814470D01*
X233869047Y-104814470D02*
X233773809Y-104909709D01*
X233773809Y-104909709D02*
X233630952Y-104957328D01*
X233630952Y-104957328D02*
X233535714Y-104957328D01*
X234345238Y-104052566D02*
X234392857Y-104004947D01*
X234392857Y-104004947D02*
X234488095Y-103957328D01*
X234488095Y-103957328D02*
X234726190Y-103957328D01*
X234726190Y-103957328D02*
X234821428Y-104004947D01*
X234821428Y-104004947D02*
X234869047Y-104052566D01*
X234869047Y-104052566D02*
X234916666Y-104147804D01*
X234916666Y-104147804D02*
X234916666Y-104243042D01*
X234916666Y-104243042D02*
X234869047Y-104385899D01*
X234869047Y-104385899D02*
X234297619Y-104957328D01*
X234297619Y-104957328D02*
X234916666Y-104957328D01*
X230276191Y-104957200D02*
X230419048Y-105004819D01*
X230419048Y-105004819D02*
X230657143Y-105004819D01*
X230657143Y-105004819D02*
X230752381Y-104957200D01*
X230752381Y-104957200D02*
X230800000Y-104909580D01*
X230800000Y-104909580D02*
X230847619Y-104814342D01*
X230847619Y-104814342D02*
X230847619Y-104719104D01*
X230847619Y-104719104D02*
X230800000Y-104623866D01*
X230800000Y-104623866D02*
X230752381Y-104576247D01*
X230752381Y-104576247D02*
X230657143Y-104528628D01*
X230657143Y-104528628D02*
X230466667Y-104481009D01*
X230466667Y-104481009D02*
X230371429Y-104433390D01*
X230371429Y-104433390D02*
X230323810Y-104385771D01*
X230323810Y-104385771D02*
X230276191Y-104290533D01*
X230276191Y-104290533D02*
X230276191Y-104195295D01*
X230276191Y-104195295D02*
X230323810Y-104100057D01*
X230323810Y-104100057D02*
X230371429Y-104052438D01*
X230371429Y-104052438D02*
X230466667Y-104004819D01*
X230466667Y-104004819D02*
X230704762Y-104004819D01*
X230704762Y-104004819D02*
X230847619Y-104052438D01*
X231276191Y-105004819D02*
X231276191Y-104004819D01*
X231276191Y-104004819D02*
X231657143Y-104004819D01*
X231657143Y-104004819D02*
X231752381Y-104052438D01*
X231752381Y-104052438D02*
X231800000Y-104100057D01*
X231800000Y-104100057D02*
X231847619Y-104195295D01*
X231847619Y-104195295D02*
X231847619Y-104338152D01*
X231847619Y-104338152D02*
X231800000Y-104433390D01*
X231800000Y-104433390D02*
X231752381Y-104481009D01*
X231752381Y-104481009D02*
X231657143Y-104528628D01*
X231657143Y-104528628D02*
X231276191Y-104528628D01*
X232276191Y-105004819D02*
X232276191Y-104004819D01*
X213704819Y-77492857D02*
X213228628Y-77826190D01*
X213704819Y-78064285D02*
X212704819Y-78064285D01*
X212704819Y-78064285D02*
X212704819Y-77683333D01*
X212704819Y-77683333D02*
X212752438Y-77588095D01*
X212752438Y-77588095D02*
X212800057Y-77540476D01*
X212800057Y-77540476D02*
X212895295Y-77492857D01*
X212895295Y-77492857D02*
X213038152Y-77492857D01*
X213038152Y-77492857D02*
X213133390Y-77540476D01*
X213133390Y-77540476D02*
X213181009Y-77588095D01*
X213181009Y-77588095D02*
X213228628Y-77683333D01*
X213228628Y-77683333D02*
X213228628Y-78064285D01*
X212704819Y-77159523D02*
X212704819Y-76540476D01*
X212704819Y-76540476D02*
X213085771Y-76873809D01*
X213085771Y-76873809D02*
X213085771Y-76730952D01*
X213085771Y-76730952D02*
X213133390Y-76635714D01*
X213133390Y-76635714D02*
X213181009Y-76588095D01*
X213181009Y-76588095D02*
X213276247Y-76540476D01*
X213276247Y-76540476D02*
X213514342Y-76540476D01*
X213514342Y-76540476D02*
X213609580Y-76588095D01*
X213609580Y-76588095D02*
X213657200Y-76635714D01*
X213657200Y-76635714D02*
X213704819Y-76730952D01*
X213704819Y-76730952D02*
X213704819Y-77016666D01*
X213704819Y-77016666D02*
X213657200Y-77111904D01*
X213657200Y-77111904D02*
X213609580Y-77159523D01*
X212704819Y-75683333D02*
X212704819Y-75873809D01*
X212704819Y-75873809D02*
X212752438Y-75969047D01*
X212752438Y-75969047D02*
X212800057Y-76016666D01*
X212800057Y-76016666D02*
X212942914Y-76111904D01*
X212942914Y-76111904D02*
X213133390Y-76159523D01*
X213133390Y-76159523D02*
X213514342Y-76159523D01*
X213514342Y-76159523D02*
X213609580Y-76111904D01*
X213609580Y-76111904D02*
X213657200Y-76064285D01*
X213657200Y-76064285D02*
X213704819Y-75969047D01*
X213704819Y-75969047D02*
X213704819Y-75778571D01*
X213704819Y-75778571D02*
X213657200Y-75683333D01*
X213657200Y-75683333D02*
X213609580Y-75635714D01*
X213609580Y-75635714D02*
X213514342Y-75588095D01*
X213514342Y-75588095D02*
X213276247Y-75588095D01*
X213276247Y-75588095D02*
X213181009Y-75635714D01*
X213181009Y-75635714D02*
X213133390Y-75683333D01*
X213133390Y-75683333D02*
X213085771Y-75778571D01*
X213085771Y-75778571D02*
X213085771Y-75969047D01*
X213085771Y-75969047D02*
X213133390Y-76064285D01*
X213133390Y-76064285D02*
X213181009Y-76111904D01*
X213181009Y-76111904D02*
X213276247Y-76159523D01*
X210304819Y-76642857D02*
X209828628Y-76976190D01*
X210304819Y-77214285D02*
X209304819Y-77214285D01*
X209304819Y-77214285D02*
X209304819Y-76833333D01*
X209304819Y-76833333D02*
X209352438Y-76738095D01*
X209352438Y-76738095D02*
X209400057Y-76690476D01*
X209400057Y-76690476D02*
X209495295Y-76642857D01*
X209495295Y-76642857D02*
X209638152Y-76642857D01*
X209638152Y-76642857D02*
X209733390Y-76690476D01*
X209733390Y-76690476D02*
X209781009Y-76738095D01*
X209781009Y-76738095D02*
X209828628Y-76833333D01*
X209828628Y-76833333D02*
X209828628Y-77214285D01*
X209400057Y-76261904D02*
X209352438Y-76214285D01*
X209352438Y-76214285D02*
X209304819Y-76119047D01*
X209304819Y-76119047D02*
X209304819Y-75880952D01*
X209304819Y-75880952D02*
X209352438Y-75785714D01*
X209352438Y-75785714D02*
X209400057Y-75738095D01*
X209400057Y-75738095D02*
X209495295Y-75690476D01*
X209495295Y-75690476D02*
X209590533Y-75690476D01*
X209590533Y-75690476D02*
X209733390Y-75738095D01*
X209733390Y-75738095D02*
X210304819Y-76309523D01*
X210304819Y-76309523D02*
X210304819Y-75690476D01*
X209304819Y-75357142D02*
X209304819Y-74738095D01*
X209304819Y-74738095D02*
X209685771Y-75071428D01*
X209685771Y-75071428D02*
X209685771Y-74928571D01*
X209685771Y-74928571D02*
X209733390Y-74833333D01*
X209733390Y-74833333D02*
X209781009Y-74785714D01*
X209781009Y-74785714D02*
X209876247Y-74738095D01*
X209876247Y-74738095D02*
X210114342Y-74738095D01*
X210114342Y-74738095D02*
X210209580Y-74785714D01*
X210209580Y-74785714D02*
X210257200Y-74833333D01*
X210257200Y-74833333D02*
X210304819Y-74928571D01*
X210304819Y-74928571D02*
X210304819Y-75214285D01*
X210304819Y-75214285D02*
X210257200Y-75309523D01*
X210257200Y-75309523D02*
X210209580Y-75357142D01*
X209607142Y-104954819D02*
X209273809Y-104478628D01*
X209035714Y-104954819D02*
X209035714Y-103954819D01*
X209035714Y-103954819D02*
X209416666Y-103954819D01*
X209416666Y-103954819D02*
X209511904Y-104002438D01*
X209511904Y-104002438D02*
X209559523Y-104050057D01*
X209559523Y-104050057D02*
X209607142Y-104145295D01*
X209607142Y-104145295D02*
X209607142Y-104288152D01*
X209607142Y-104288152D02*
X209559523Y-104383390D01*
X209559523Y-104383390D02*
X209511904Y-104431009D01*
X209511904Y-104431009D02*
X209416666Y-104478628D01*
X209416666Y-104478628D02*
X209035714Y-104478628D01*
X209940476Y-103954819D02*
X210559523Y-103954819D01*
X210559523Y-103954819D02*
X210226190Y-104335771D01*
X210226190Y-104335771D02*
X210369047Y-104335771D01*
X210369047Y-104335771D02*
X210464285Y-104383390D01*
X210464285Y-104383390D02*
X210511904Y-104431009D01*
X210511904Y-104431009D02*
X210559523Y-104526247D01*
X210559523Y-104526247D02*
X210559523Y-104764342D01*
X210559523Y-104764342D02*
X210511904Y-104859580D01*
X210511904Y-104859580D02*
X210464285Y-104907200D01*
X210464285Y-104907200D02*
X210369047Y-104954819D01*
X210369047Y-104954819D02*
X210083333Y-104954819D01*
X210083333Y-104954819D02*
X209988095Y-104907200D01*
X209988095Y-104907200D02*
X209940476Y-104859580D01*
X211178571Y-103954819D02*
X211273809Y-103954819D01*
X211273809Y-103954819D02*
X211369047Y-104002438D01*
X211369047Y-104002438D02*
X211416666Y-104050057D01*
X211416666Y-104050057D02*
X211464285Y-104145295D01*
X211464285Y-104145295D02*
X211511904Y-104335771D01*
X211511904Y-104335771D02*
X211511904Y-104573866D01*
X211511904Y-104573866D02*
X211464285Y-104764342D01*
X211464285Y-104764342D02*
X211416666Y-104859580D01*
X211416666Y-104859580D02*
X211369047Y-104907200D01*
X211369047Y-104907200D02*
X211273809Y-104954819D01*
X211273809Y-104954819D02*
X211178571Y-104954819D01*
X211178571Y-104954819D02*
X211083333Y-104907200D01*
X211083333Y-104907200D02*
X211035714Y-104859580D01*
X211035714Y-104859580D02*
X210988095Y-104764342D01*
X210988095Y-104764342D02*
X210940476Y-104573866D01*
X210940476Y-104573866D02*
X210940476Y-104335771D01*
X210940476Y-104335771D02*
X210988095Y-104145295D01*
X210988095Y-104145295D02*
X211035714Y-104050057D01*
X211035714Y-104050057D02*
X211083333Y-104002438D01*
X211083333Y-104002438D02*
X211178571Y-103954819D01*
D10*
X120988095Y-76707419D02*
X120988095Y-77516942D01*
X120988095Y-77516942D02*
X121035714Y-77612180D01*
X121035714Y-77612180D02*
X121083333Y-77659800D01*
X121083333Y-77659800D02*
X121178571Y-77707419D01*
X121178571Y-77707419D02*
X121369047Y-77707419D01*
X121369047Y-77707419D02*
X121464285Y-77659800D01*
X121464285Y-77659800D02*
X121511904Y-77612180D01*
X121511904Y-77612180D02*
X121559523Y-77516942D01*
X121559523Y-77516942D02*
X121559523Y-76707419D01*
X121940476Y-76707419D02*
X122559523Y-76707419D01*
X122559523Y-76707419D02*
X122226190Y-77088371D01*
X122226190Y-77088371D02*
X122369047Y-77088371D01*
X122369047Y-77088371D02*
X122464285Y-77135990D01*
X122464285Y-77135990D02*
X122511904Y-77183609D01*
X122511904Y-77183609D02*
X122559523Y-77278847D01*
X122559523Y-77278847D02*
X122559523Y-77516942D01*
X122559523Y-77516942D02*
X122511904Y-77612180D01*
X122511904Y-77612180D02*
X122464285Y-77659800D01*
X122464285Y-77659800D02*
X122369047Y-77707419D01*
X122369047Y-77707419D02*
X122083333Y-77707419D01*
X122083333Y-77707419D02*
X121988095Y-77659800D01*
X121988095Y-77659800D02*
X121940476Y-77612180D01*
D12*
X117535714Y-76157200D02*
X117678571Y-76204819D01*
X117678571Y-76204819D02*
X117916666Y-76204819D01*
X117916666Y-76204819D02*
X118011904Y-76157200D01*
X118011904Y-76157200D02*
X118059523Y-76109580D01*
X118059523Y-76109580D02*
X118107142Y-76014342D01*
X118107142Y-76014342D02*
X118107142Y-75919104D01*
X118107142Y-75919104D02*
X118059523Y-75823866D01*
X118059523Y-75823866D02*
X118011904Y-75776247D01*
X118011904Y-75776247D02*
X117916666Y-75728628D01*
X117916666Y-75728628D02*
X117726190Y-75681009D01*
X117726190Y-75681009D02*
X117630952Y-75633390D01*
X117630952Y-75633390D02*
X117583333Y-75585771D01*
X117583333Y-75585771D02*
X117535714Y-75490533D01*
X117535714Y-75490533D02*
X117535714Y-75395295D01*
X117535714Y-75395295D02*
X117583333Y-75300057D01*
X117583333Y-75300057D02*
X117630952Y-75252438D01*
X117630952Y-75252438D02*
X117726190Y-75204819D01*
X117726190Y-75204819D02*
X117964285Y-75204819D01*
X117964285Y-75204819D02*
X118107142Y-75252438D01*
X118392857Y-75538152D02*
X118773809Y-75538152D01*
X118535714Y-75204819D02*
X118535714Y-76061961D01*
X118535714Y-76061961D02*
X118583333Y-76157200D01*
X118583333Y-76157200D02*
X118678571Y-76204819D01*
X118678571Y-76204819D02*
X118773809Y-76204819D01*
X119488095Y-76157200D02*
X119392857Y-76204819D01*
X119392857Y-76204819D02*
X119202381Y-76204819D01*
X119202381Y-76204819D02*
X119107143Y-76157200D01*
X119107143Y-76157200D02*
X119059524Y-76061961D01*
X119059524Y-76061961D02*
X119059524Y-75681009D01*
X119059524Y-75681009D02*
X119107143Y-75585771D01*
X119107143Y-75585771D02*
X119202381Y-75538152D01*
X119202381Y-75538152D02*
X119392857Y-75538152D01*
X119392857Y-75538152D02*
X119488095Y-75585771D01*
X119488095Y-75585771D02*
X119535714Y-75681009D01*
X119535714Y-75681009D02*
X119535714Y-75776247D01*
X119535714Y-75776247D02*
X119059524Y-75871485D01*
X119964286Y-75538152D02*
X119964286Y-76538152D01*
X119964286Y-75585771D02*
X120059524Y-75538152D01*
X120059524Y-75538152D02*
X120250000Y-75538152D01*
X120250000Y-75538152D02*
X120345238Y-75585771D01*
X120345238Y-75585771D02*
X120392857Y-75633390D01*
X120392857Y-75633390D02*
X120440476Y-75728628D01*
X120440476Y-75728628D02*
X120440476Y-76014342D01*
X120440476Y-76014342D02*
X120392857Y-76109580D01*
X120392857Y-76109580D02*
X120345238Y-76157200D01*
X120345238Y-76157200D02*
X120250000Y-76204819D01*
X120250000Y-76204819D02*
X120059524Y-76204819D01*
X120059524Y-76204819D02*
X119964286Y-76157200D01*
X120869048Y-75823866D02*
X121630953Y-75823866D01*
X122535714Y-76204819D02*
X122535714Y-75204819D01*
X122535714Y-76157200D02*
X122440476Y-76204819D01*
X122440476Y-76204819D02*
X122250000Y-76204819D01*
X122250000Y-76204819D02*
X122154762Y-76157200D01*
X122154762Y-76157200D02*
X122107143Y-76109580D01*
X122107143Y-76109580D02*
X122059524Y-76014342D01*
X122059524Y-76014342D02*
X122059524Y-75728628D01*
X122059524Y-75728628D02*
X122107143Y-75633390D01*
X122107143Y-75633390D02*
X122154762Y-75585771D01*
X122154762Y-75585771D02*
X122250000Y-75538152D01*
X122250000Y-75538152D02*
X122440476Y-75538152D01*
X122440476Y-75538152D02*
X122535714Y-75585771D01*
X123154762Y-76204819D02*
X123059524Y-76157200D01*
X123059524Y-76157200D02*
X123011905Y-76109580D01*
X123011905Y-76109580D02*
X122964286Y-76014342D01*
X122964286Y-76014342D02*
X122964286Y-75728628D01*
X122964286Y-75728628D02*
X123011905Y-75633390D01*
X123011905Y-75633390D02*
X123059524Y-75585771D01*
X123059524Y-75585771D02*
X123154762Y-75538152D01*
X123154762Y-75538152D02*
X123297619Y-75538152D01*
X123297619Y-75538152D02*
X123392857Y-75585771D01*
X123392857Y-75585771D02*
X123440476Y-75633390D01*
X123440476Y-75633390D02*
X123488095Y-75728628D01*
X123488095Y-75728628D02*
X123488095Y-76014342D01*
X123488095Y-76014342D02*
X123440476Y-76109580D01*
X123440476Y-76109580D02*
X123392857Y-76157200D01*
X123392857Y-76157200D02*
X123297619Y-76204819D01*
X123297619Y-76204819D02*
X123154762Y-76204819D01*
X123821429Y-75538152D02*
X124011905Y-76204819D01*
X124011905Y-76204819D02*
X124202381Y-75728628D01*
X124202381Y-75728628D02*
X124392857Y-76204819D01*
X124392857Y-76204819D02*
X124583333Y-75538152D01*
X124964286Y-75538152D02*
X124964286Y-76204819D01*
X124964286Y-75633390D02*
X125011905Y-75585771D01*
X125011905Y-75585771D02*
X125107143Y-75538152D01*
X125107143Y-75538152D02*
X125250000Y-75538152D01*
X125250000Y-75538152D02*
X125345238Y-75585771D01*
X125345238Y-75585771D02*
X125392857Y-75681009D01*
X125392857Y-75681009D02*
X125392857Y-76204819D01*
X127154762Y-76204819D02*
X126583334Y-76204819D01*
X126869048Y-76204819D02*
X126869048Y-75204819D01*
X126869048Y-75204819D02*
X126773810Y-75347676D01*
X126773810Y-75347676D02*
X126678572Y-75442914D01*
X126678572Y-75442914D02*
X126583334Y-75490533D01*
X127535715Y-75300057D02*
X127583334Y-75252438D01*
X127583334Y-75252438D02*
X127678572Y-75204819D01*
X127678572Y-75204819D02*
X127916667Y-75204819D01*
X127916667Y-75204819D02*
X128011905Y-75252438D01*
X128011905Y-75252438D02*
X128059524Y-75300057D01*
X128059524Y-75300057D02*
X128107143Y-75395295D01*
X128107143Y-75395295D02*
X128107143Y-75490533D01*
X128107143Y-75490533D02*
X128059524Y-75633390D01*
X128059524Y-75633390D02*
X127488096Y-76204819D01*
X127488096Y-76204819D02*
X128107143Y-76204819D01*
X128392858Y-75204819D02*
X128726191Y-76204819D01*
X128726191Y-76204819D02*
X129059524Y-75204819D01*
D10*
X126203884Y-105172419D02*
X126203884Y-104172419D01*
X126680074Y-105172419D02*
X126680074Y-104172419D01*
X126680074Y-104172419D02*
X127251502Y-105172419D01*
X127251502Y-105172419D02*
X127251502Y-104172419D01*
X127727693Y-104791466D02*
X128489598Y-104791466D01*
X128108645Y-105172419D02*
X128108645Y-104410514D01*
X116503884Y-105172419D02*
X116503884Y-104172419D01*
X116980074Y-105172419D02*
X116980074Y-104172419D01*
X116980074Y-104172419D02*
X117551502Y-105172419D01*
X117551502Y-105172419D02*
X117551502Y-104172419D01*
X118027693Y-104791466D02*
X118789598Y-104791466D01*
X129303884Y-104648609D02*
X129637217Y-104648609D01*
X129780074Y-105172419D02*
X129303884Y-105172419D01*
X129303884Y-105172419D02*
X129303884Y-104172419D01*
X129303884Y-104172419D02*
X129780074Y-104172419D01*
X130208646Y-105172419D02*
X130208646Y-104172419D01*
X130208646Y-104172419D02*
X130780074Y-105172419D01*
X130780074Y-105172419D02*
X130780074Y-104172419D01*
D12*
X210454819Y-98416666D02*
X209978628Y-98749999D01*
X210454819Y-98988094D02*
X209454819Y-98988094D01*
X209454819Y-98988094D02*
X209454819Y-98607142D01*
X209454819Y-98607142D02*
X209502438Y-98511904D01*
X209502438Y-98511904D02*
X209550057Y-98464285D01*
X209550057Y-98464285D02*
X209645295Y-98416666D01*
X209645295Y-98416666D02*
X209788152Y-98416666D01*
X209788152Y-98416666D02*
X209883390Y-98464285D01*
X209883390Y-98464285D02*
X209931009Y-98511904D01*
X209931009Y-98511904D02*
X209978628Y-98607142D01*
X209978628Y-98607142D02*
X209978628Y-98988094D01*
X209454819Y-97511904D02*
X209454819Y-97988094D01*
X209454819Y-97988094D02*
X209931009Y-98035713D01*
X209931009Y-98035713D02*
X209883390Y-97988094D01*
X209883390Y-97988094D02*
X209835771Y-97892856D01*
X209835771Y-97892856D02*
X209835771Y-97654761D01*
X209835771Y-97654761D02*
X209883390Y-97559523D01*
X209883390Y-97559523D02*
X209931009Y-97511904D01*
X209931009Y-97511904D02*
X210026247Y-97464285D01*
X210026247Y-97464285D02*
X210264342Y-97464285D01*
X210264342Y-97464285D02*
X210359580Y-97511904D01*
X210359580Y-97511904D02*
X210407200Y-97559523D01*
X210407200Y-97559523D02*
X210454819Y-97654761D01*
X210454819Y-97654761D02*
X210454819Y-97892856D01*
X210454819Y-97892856D02*
X210407200Y-97988094D01*
X210407200Y-97988094D02*
X210359580Y-98035713D01*
X209607139Y-101704819D02*
X209273806Y-101228628D01*
X209035711Y-101704819D02*
X209035711Y-100704819D01*
X209035711Y-100704819D02*
X209416663Y-100704819D01*
X209416663Y-100704819D02*
X209511901Y-100752438D01*
X209511901Y-100752438D02*
X209559520Y-100800057D01*
X209559520Y-100800057D02*
X209607139Y-100895295D01*
X209607139Y-100895295D02*
X209607139Y-101038152D01*
X209607139Y-101038152D02*
X209559520Y-101133390D01*
X209559520Y-101133390D02*
X209511901Y-101181009D01*
X209511901Y-101181009D02*
X209416663Y-101228628D01*
X209416663Y-101228628D02*
X209035711Y-101228628D01*
X209988092Y-100800057D02*
X210035711Y-100752438D01*
X210035711Y-100752438D02*
X210130949Y-100704819D01*
X210130949Y-100704819D02*
X210369044Y-100704819D01*
X210369044Y-100704819D02*
X210464282Y-100752438D01*
X210464282Y-100752438D02*
X210511901Y-100800057D01*
X210511901Y-100800057D02*
X210559520Y-100895295D01*
X210559520Y-100895295D02*
X210559520Y-100990533D01*
X210559520Y-100990533D02*
X210511901Y-101133390D01*
X210511901Y-101133390D02*
X209940473Y-101704819D01*
X209940473Y-101704819D02*
X210559520Y-101704819D01*
X211035711Y-101704819D02*
X211226187Y-101704819D01*
X211226187Y-101704819D02*
X211321425Y-101657200D01*
X211321425Y-101657200D02*
X211369044Y-101609580D01*
X211369044Y-101609580D02*
X211464282Y-101466723D01*
X211464282Y-101466723D02*
X211511901Y-101276247D01*
X211511901Y-101276247D02*
X211511901Y-100895295D01*
X211511901Y-100895295D02*
X211464282Y-100800057D01*
X211464282Y-100800057D02*
X211416663Y-100752438D01*
X211416663Y-100752438D02*
X211321425Y-100704819D01*
X211321425Y-100704819D02*
X211130949Y-100704819D01*
X211130949Y-100704819D02*
X211035711Y-100752438D01*
X211035711Y-100752438D02*
X210988092Y-100800057D01*
X210988092Y-100800057D02*
X210940473Y-100895295D01*
X210940473Y-100895295D02*
X210940473Y-101133390D01*
X210940473Y-101133390D02*
X210988092Y-101228628D01*
X210988092Y-101228628D02*
X211035711Y-101276247D01*
X211035711Y-101276247D02*
X211130949Y-101323866D01*
X211130949Y-101323866D02*
X211321425Y-101323866D01*
X211321425Y-101323866D02*
X211416663Y-101276247D01*
X211416663Y-101276247D02*
X211464282Y-101228628D01*
X211464282Y-101228628D02*
X211511901Y-101133390D01*
X200054819Y-104392859D02*
X199578628Y-104726192D01*
X200054819Y-104964287D02*
X199054819Y-104964287D01*
X199054819Y-104964287D02*
X199054819Y-104583335D01*
X199054819Y-104583335D02*
X199102438Y-104488097D01*
X199102438Y-104488097D02*
X199150057Y-104440478D01*
X199150057Y-104440478D02*
X199245295Y-104392859D01*
X199245295Y-104392859D02*
X199388152Y-104392859D01*
X199388152Y-104392859D02*
X199483390Y-104440478D01*
X199483390Y-104440478D02*
X199531009Y-104488097D01*
X199531009Y-104488097D02*
X199578628Y-104583335D01*
X199578628Y-104583335D02*
X199578628Y-104964287D01*
X200054819Y-103440478D02*
X200054819Y-104011906D01*
X200054819Y-103726192D02*
X199054819Y-103726192D01*
X199054819Y-103726192D02*
X199197676Y-103821430D01*
X199197676Y-103821430D02*
X199292914Y-103916668D01*
X199292914Y-103916668D02*
X199340533Y-104011906D01*
X199054819Y-102821430D02*
X199054819Y-102726192D01*
X199054819Y-102726192D02*
X199102438Y-102630954D01*
X199102438Y-102630954D02*
X199150057Y-102583335D01*
X199150057Y-102583335D02*
X199245295Y-102535716D01*
X199245295Y-102535716D02*
X199435771Y-102488097D01*
X199435771Y-102488097D02*
X199673866Y-102488097D01*
X199673866Y-102488097D02*
X199864342Y-102535716D01*
X199864342Y-102535716D02*
X199959580Y-102583335D01*
X199959580Y-102583335D02*
X200007200Y-102630954D01*
X200007200Y-102630954D02*
X200054819Y-102726192D01*
X200054819Y-102726192D02*
X200054819Y-102821430D01*
X200054819Y-102821430D02*
X200007200Y-102916668D01*
X200007200Y-102916668D02*
X199959580Y-102964287D01*
X199959580Y-102964287D02*
X199864342Y-103011906D01*
X199864342Y-103011906D02*
X199673866Y-103059525D01*
X199673866Y-103059525D02*
X199435771Y-103059525D01*
X199435771Y-103059525D02*
X199245295Y-103011906D01*
X199245295Y-103011906D02*
X199150057Y-102964287D01*
X199150057Y-102964287D02*
X199102438Y-102916668D01*
X199102438Y-102916668D02*
X199054819Y-102821430D01*
X174054819Y-102142859D02*
X173578628Y-102476192D01*
X174054819Y-102714287D02*
X173054819Y-102714287D01*
X173054819Y-102714287D02*
X173054819Y-102333335D01*
X173054819Y-102333335D02*
X173102438Y-102238097D01*
X173102438Y-102238097D02*
X173150057Y-102190478D01*
X173150057Y-102190478D02*
X173245295Y-102142859D01*
X173245295Y-102142859D02*
X173388152Y-102142859D01*
X173388152Y-102142859D02*
X173483390Y-102190478D01*
X173483390Y-102190478D02*
X173531009Y-102238097D01*
X173531009Y-102238097D02*
X173578628Y-102333335D01*
X173578628Y-102333335D02*
X173578628Y-102714287D01*
X173388152Y-101285716D02*
X174054819Y-101285716D01*
X173007200Y-101523811D02*
X173721485Y-101761906D01*
X173721485Y-101761906D02*
X173721485Y-101142859D01*
X173054819Y-100571430D02*
X173054819Y-100476192D01*
X173054819Y-100476192D02*
X173102438Y-100380954D01*
X173102438Y-100380954D02*
X173150057Y-100333335D01*
X173150057Y-100333335D02*
X173245295Y-100285716D01*
X173245295Y-100285716D02*
X173435771Y-100238097D01*
X173435771Y-100238097D02*
X173673866Y-100238097D01*
X173673866Y-100238097D02*
X173864342Y-100285716D01*
X173864342Y-100285716D02*
X173959580Y-100333335D01*
X173959580Y-100333335D02*
X174007200Y-100380954D01*
X174007200Y-100380954D02*
X174054819Y-100476192D01*
X174054819Y-100476192D02*
X174054819Y-100571430D01*
X174054819Y-100571430D02*
X174007200Y-100666668D01*
X174007200Y-100666668D02*
X173959580Y-100714287D01*
X173959580Y-100714287D02*
X173864342Y-100761906D01*
X173864342Y-100761906D02*
X173673866Y-100809525D01*
X173673866Y-100809525D02*
X173435771Y-100809525D01*
X173435771Y-100809525D02*
X173245295Y-100761906D01*
X173245295Y-100761906D02*
X173150057Y-100714287D01*
X173150057Y-100714287D02*
X173102438Y-100666668D01*
X173102438Y-100666668D02*
X173054819Y-100571430D01*
X216104819Y-98666663D02*
X215628628Y-98999996D01*
X216104819Y-99238091D02*
X215104819Y-99238091D01*
X215104819Y-99238091D02*
X215104819Y-98857139D01*
X215104819Y-98857139D02*
X215152438Y-98761901D01*
X215152438Y-98761901D02*
X215200057Y-98714282D01*
X215200057Y-98714282D02*
X215295295Y-98666663D01*
X215295295Y-98666663D02*
X215438152Y-98666663D01*
X215438152Y-98666663D02*
X215533390Y-98714282D01*
X215533390Y-98714282D02*
X215581009Y-98761901D01*
X215581009Y-98761901D02*
X215628628Y-98857139D01*
X215628628Y-98857139D02*
X215628628Y-99238091D01*
X215104819Y-97809520D02*
X215104819Y-97999996D01*
X215104819Y-97999996D02*
X215152438Y-98095234D01*
X215152438Y-98095234D02*
X215200057Y-98142853D01*
X215200057Y-98142853D02*
X215342914Y-98238091D01*
X215342914Y-98238091D02*
X215533390Y-98285710D01*
X215533390Y-98285710D02*
X215914342Y-98285710D01*
X215914342Y-98285710D02*
X216009580Y-98238091D01*
X216009580Y-98238091D02*
X216057200Y-98190472D01*
X216057200Y-98190472D02*
X216104819Y-98095234D01*
X216104819Y-98095234D02*
X216104819Y-97904758D01*
X216104819Y-97904758D02*
X216057200Y-97809520D01*
X216057200Y-97809520D02*
X216009580Y-97761901D01*
X216009580Y-97761901D02*
X215914342Y-97714282D01*
X215914342Y-97714282D02*
X215676247Y-97714282D01*
X215676247Y-97714282D02*
X215581009Y-97761901D01*
X215581009Y-97761901D02*
X215533390Y-97809520D01*
X215533390Y-97809520D02*
X215485771Y-97904758D01*
X215485771Y-97904758D02*
X215485771Y-98095234D01*
X215485771Y-98095234D02*
X215533390Y-98190472D01*
X215533390Y-98190472D02*
X215581009Y-98238091D01*
X215581009Y-98238091D02*
X215676247Y-98285710D01*
X126166667Y-107907200D02*
X126309524Y-107954819D01*
X126309524Y-107954819D02*
X126547619Y-107954819D01*
X126547619Y-107954819D02*
X126642857Y-107907200D01*
X126642857Y-107907200D02*
X126690476Y-107859580D01*
X126690476Y-107859580D02*
X126738095Y-107764342D01*
X126738095Y-107764342D02*
X126738095Y-107669104D01*
X126738095Y-107669104D02*
X126690476Y-107573866D01*
X126690476Y-107573866D02*
X126642857Y-107526247D01*
X126642857Y-107526247D02*
X126547619Y-107478628D01*
X126547619Y-107478628D02*
X126357143Y-107431009D01*
X126357143Y-107431009D02*
X126261905Y-107383390D01*
X126261905Y-107383390D02*
X126214286Y-107335771D01*
X126214286Y-107335771D02*
X126166667Y-107240533D01*
X126166667Y-107240533D02*
X126166667Y-107145295D01*
X126166667Y-107145295D02*
X126214286Y-107050057D01*
X126214286Y-107050057D02*
X126261905Y-107002438D01*
X126261905Y-107002438D02*
X126357143Y-106954819D01*
X126357143Y-106954819D02*
X126595238Y-106954819D01*
X126595238Y-106954819D02*
X126738095Y-107002438D01*
X127071429Y-106954819D02*
X127309524Y-107954819D01*
X127309524Y-107954819D02*
X127500000Y-107240533D01*
X127500000Y-107240533D02*
X127690476Y-107954819D01*
X127690476Y-107954819D02*
X127928572Y-106954819D01*
X128833333Y-107954819D02*
X128261905Y-107954819D01*
X128547619Y-107954819D02*
X128547619Y-106954819D01*
X128547619Y-106954819D02*
X128452381Y-107097676D01*
X128452381Y-107097676D02*
X128357143Y-107192914D01*
X128357143Y-107192914D02*
X128261905Y-107240533D01*
D13*
X207953571Y-118819318D02*
X207953571Y-117549318D01*
X207953571Y-117549318D02*
X208437381Y-117549318D01*
X208437381Y-117549318D02*
X208558333Y-117609794D01*
X208558333Y-117609794D02*
X208618810Y-117670270D01*
X208618810Y-117670270D02*
X208679286Y-117791222D01*
X208679286Y-117791222D02*
X208679286Y-117972651D01*
X208679286Y-117972651D02*
X208618810Y-118093603D01*
X208618810Y-118093603D02*
X208558333Y-118154080D01*
X208558333Y-118154080D02*
X208437381Y-118214556D01*
X208437381Y-118214556D02*
X207953571Y-118214556D01*
X209163095Y-118456461D02*
X209767857Y-118456461D01*
X209042143Y-118819318D02*
X209465476Y-117549318D01*
X209465476Y-117549318D02*
X209888810Y-118819318D01*
X210251666Y-118758842D02*
X210433095Y-118819318D01*
X210433095Y-118819318D02*
X210735476Y-118819318D01*
X210735476Y-118819318D02*
X210856428Y-118758842D01*
X210856428Y-118758842D02*
X210916904Y-118698365D01*
X210916904Y-118698365D02*
X210977381Y-118577413D01*
X210977381Y-118577413D02*
X210977381Y-118456461D01*
X210977381Y-118456461D02*
X210916904Y-118335508D01*
X210916904Y-118335508D02*
X210856428Y-118275032D01*
X210856428Y-118275032D02*
X210735476Y-118214556D01*
X210735476Y-118214556D02*
X210493571Y-118154080D01*
X210493571Y-118154080D02*
X210372619Y-118093603D01*
X210372619Y-118093603D02*
X210312142Y-118033127D01*
X210312142Y-118033127D02*
X210251666Y-117912175D01*
X210251666Y-117912175D02*
X210251666Y-117791222D01*
X210251666Y-117791222D02*
X210312142Y-117670270D01*
X210312142Y-117670270D02*
X210372619Y-117609794D01*
X210372619Y-117609794D02*
X210493571Y-117549318D01*
X210493571Y-117549318D02*
X210795952Y-117549318D01*
X210795952Y-117549318D02*
X210977381Y-117609794D01*
X212186905Y-118819318D02*
X211461190Y-118819318D01*
X211824047Y-118819318D02*
X211824047Y-117549318D01*
X211824047Y-117549318D02*
X211703095Y-117730746D01*
X211703095Y-117730746D02*
X211582143Y-117851699D01*
X211582143Y-117851699D02*
X211461190Y-117912175D01*
D12*
X229035714Y-77169104D02*
X229511904Y-77169104D01*
X228940476Y-77454819D02*
X229273809Y-76454819D01*
X229273809Y-76454819D02*
X229607142Y-77454819D01*
X230464285Y-77454819D02*
X229892857Y-77454819D01*
X230178571Y-77454819D02*
X230178571Y-76454819D01*
X230178571Y-76454819D02*
X230083333Y-76597676D01*
X230083333Y-76597676D02*
X229988095Y-76692914D01*
X229988095Y-76692914D02*
X229892857Y-76740533D01*
X187392857Y-77169104D02*
X187869047Y-77169104D01*
X187297619Y-77454819D02*
X187630952Y-76454819D01*
X187630952Y-76454819D02*
X187964285Y-77454819D01*
X188297619Y-77454819D02*
X188297619Y-76788152D01*
X188297619Y-76978628D02*
X188345238Y-76883390D01*
X188345238Y-76883390D02*
X188392857Y-76835771D01*
X188392857Y-76835771D02*
X188488095Y-76788152D01*
X188488095Y-76788152D02*
X188583333Y-76788152D01*
X189345238Y-77454819D02*
X189345238Y-76454819D01*
X189345238Y-77407200D02*
X189250000Y-77454819D01*
X189250000Y-77454819D02*
X189059524Y-77454819D01*
X189059524Y-77454819D02*
X188964286Y-77407200D01*
X188964286Y-77407200D02*
X188916667Y-77359580D01*
X188916667Y-77359580D02*
X188869048Y-77264342D01*
X188869048Y-77264342D02*
X188869048Y-76978628D01*
X188869048Y-76978628D02*
X188916667Y-76883390D01*
X188916667Y-76883390D02*
X188964286Y-76835771D01*
X188964286Y-76835771D02*
X189059524Y-76788152D01*
X189059524Y-76788152D02*
X189250000Y-76788152D01*
X189250000Y-76788152D02*
X189345238Y-76835771D01*
X190250000Y-76788152D02*
X190250000Y-77454819D01*
X189821429Y-76788152D02*
X189821429Y-77311961D01*
X189821429Y-77311961D02*
X189869048Y-77407200D01*
X189869048Y-77407200D02*
X189964286Y-77454819D01*
X189964286Y-77454819D02*
X190107143Y-77454819D01*
X190107143Y-77454819D02*
X190202381Y-77407200D01*
X190202381Y-77407200D02*
X190250000Y-77359580D01*
X190726191Y-77454819D02*
X190726191Y-76788152D01*
X190726191Y-76454819D02*
X190678572Y-76502438D01*
X190678572Y-76502438D02*
X190726191Y-76550057D01*
X190726191Y-76550057D02*
X190773810Y-76502438D01*
X190773810Y-76502438D02*
X190726191Y-76454819D01*
X190726191Y-76454819D02*
X190726191Y-76550057D01*
X191202381Y-76788152D02*
X191202381Y-77454819D01*
X191202381Y-76883390D02*
X191250000Y-76835771D01*
X191250000Y-76835771D02*
X191345238Y-76788152D01*
X191345238Y-76788152D02*
X191488095Y-76788152D01*
X191488095Y-76788152D02*
X191583333Y-76835771D01*
X191583333Y-76835771D02*
X191630952Y-76931009D01*
X191630952Y-76931009D02*
X191630952Y-77454819D01*
X192250000Y-77454819D02*
X192154762Y-77407200D01*
X192154762Y-77407200D02*
X192107143Y-77359580D01*
X192107143Y-77359580D02*
X192059524Y-77264342D01*
X192059524Y-77264342D02*
X192059524Y-76978628D01*
X192059524Y-76978628D02*
X192107143Y-76883390D01*
X192107143Y-76883390D02*
X192154762Y-76835771D01*
X192154762Y-76835771D02*
X192250000Y-76788152D01*
X192250000Y-76788152D02*
X192392857Y-76788152D01*
X192392857Y-76788152D02*
X192488095Y-76835771D01*
X192488095Y-76835771D02*
X192535714Y-76883390D01*
X192535714Y-76883390D02*
X192583333Y-76978628D01*
X192583333Y-76978628D02*
X192583333Y-77264342D01*
X192583333Y-77264342D02*
X192535714Y-77359580D01*
X192535714Y-77359580D02*
X192488095Y-77407200D01*
X192488095Y-77407200D02*
X192392857Y-77454819D01*
X192392857Y-77454819D02*
X192250000Y-77454819D01*
X192773810Y-77550057D02*
X193535714Y-77550057D01*
X193773810Y-77454819D02*
X193773810Y-76454819D01*
X193773810Y-76454819D02*
X194345238Y-77454819D01*
X194345238Y-77454819D02*
X194345238Y-76454819D01*
X195250000Y-77454819D02*
X195250000Y-76931009D01*
X195250000Y-76931009D02*
X195202381Y-76835771D01*
X195202381Y-76835771D02*
X195107143Y-76788152D01*
X195107143Y-76788152D02*
X194916667Y-76788152D01*
X194916667Y-76788152D02*
X194821429Y-76835771D01*
X195250000Y-77407200D02*
X195154762Y-77454819D01*
X195154762Y-77454819D02*
X194916667Y-77454819D01*
X194916667Y-77454819D02*
X194821429Y-77407200D01*
X194821429Y-77407200D02*
X194773810Y-77311961D01*
X194773810Y-77311961D02*
X194773810Y-77216723D01*
X194773810Y-77216723D02*
X194821429Y-77121485D01*
X194821429Y-77121485D02*
X194916667Y-77073866D01*
X194916667Y-77073866D02*
X195154762Y-77073866D01*
X195154762Y-77073866D02*
X195250000Y-77026247D01*
X195726191Y-76788152D02*
X195726191Y-77454819D01*
X195726191Y-76883390D02*
X195773810Y-76835771D01*
X195773810Y-76835771D02*
X195869048Y-76788152D01*
X195869048Y-76788152D02*
X196011905Y-76788152D01*
X196011905Y-76788152D02*
X196107143Y-76835771D01*
X196107143Y-76835771D02*
X196154762Y-76931009D01*
X196154762Y-76931009D02*
X196154762Y-77454819D01*
X196773810Y-77454819D02*
X196678572Y-77407200D01*
X196678572Y-77407200D02*
X196630953Y-77359580D01*
X196630953Y-77359580D02*
X196583334Y-77264342D01*
X196583334Y-77264342D02*
X196583334Y-76978628D01*
X196583334Y-76978628D02*
X196630953Y-76883390D01*
X196630953Y-76883390D02*
X196678572Y-76835771D01*
X196678572Y-76835771D02*
X196773810Y-76788152D01*
X196773810Y-76788152D02*
X196916667Y-76788152D01*
X196916667Y-76788152D02*
X197011905Y-76835771D01*
X197011905Y-76835771D02*
X197059524Y-76883390D01*
X197059524Y-76883390D02*
X197107143Y-76978628D01*
X197107143Y-76978628D02*
X197107143Y-77264342D01*
X197107143Y-77264342D02*
X197059524Y-77359580D01*
X197059524Y-77359580D02*
X197011905Y-77407200D01*
X197011905Y-77407200D02*
X196916667Y-77454819D01*
X196916667Y-77454819D02*
X196773810Y-77454819D01*
X226214822Y-88501904D02*
X227024345Y-88501904D01*
X227024345Y-88501904D02*
X227119583Y-88454285D01*
X227119583Y-88454285D02*
X227167203Y-88406666D01*
X227167203Y-88406666D02*
X227214822Y-88311428D01*
X227214822Y-88311428D02*
X227214822Y-88120952D01*
X227214822Y-88120952D02*
X227167203Y-88025714D01*
X227167203Y-88025714D02*
X227119583Y-87978095D01*
X227119583Y-87978095D02*
X227024345Y-87930476D01*
X227024345Y-87930476D02*
X226214822Y-87930476D01*
X227167203Y-87501904D02*
X227214822Y-87359047D01*
X227214822Y-87359047D02*
X227214822Y-87120952D01*
X227214822Y-87120952D02*
X227167203Y-87025714D01*
X227167203Y-87025714D02*
X227119583Y-86978095D01*
X227119583Y-86978095D02*
X227024345Y-86930476D01*
X227024345Y-86930476D02*
X226929107Y-86930476D01*
X226929107Y-86930476D02*
X226833869Y-86978095D01*
X226833869Y-86978095D02*
X226786250Y-87025714D01*
X226786250Y-87025714D02*
X226738631Y-87120952D01*
X226738631Y-87120952D02*
X226691012Y-87311428D01*
X226691012Y-87311428D02*
X226643393Y-87406666D01*
X226643393Y-87406666D02*
X226595774Y-87454285D01*
X226595774Y-87454285D02*
X226500536Y-87501904D01*
X226500536Y-87501904D02*
X226405298Y-87501904D01*
X226405298Y-87501904D02*
X226310060Y-87454285D01*
X226310060Y-87454285D02*
X226262441Y-87406666D01*
X226262441Y-87406666D02*
X226214822Y-87311428D01*
X226214822Y-87311428D02*
X226214822Y-87073333D01*
X226214822Y-87073333D02*
X226262441Y-86930476D01*
X226691012Y-86168571D02*
X226738631Y-86025714D01*
X226738631Y-86025714D02*
X226786250Y-85978095D01*
X226786250Y-85978095D02*
X226881488Y-85930476D01*
X226881488Y-85930476D02*
X227024345Y-85930476D01*
X227024345Y-85930476D02*
X227119583Y-85978095D01*
X227119583Y-85978095D02*
X227167203Y-86025714D01*
X227167203Y-86025714D02*
X227214822Y-86120952D01*
X227214822Y-86120952D02*
X227214822Y-86501904D01*
X227214822Y-86501904D02*
X226214822Y-86501904D01*
X226214822Y-86501904D02*
X226214822Y-86168571D01*
X226214822Y-86168571D02*
X226262441Y-86073333D01*
X226262441Y-86073333D02*
X226310060Y-86025714D01*
X226310060Y-86025714D02*
X226405298Y-85978095D01*
X226405298Y-85978095D02*
X226500536Y-85978095D01*
X226500536Y-85978095D02*
X226595774Y-86025714D01*
X226595774Y-86025714D02*
X226643393Y-86073333D01*
X226643393Y-86073333D02*
X226691012Y-86168571D01*
X226691012Y-86168571D02*
X226691012Y-86501904D01*
X232357145Y-113704819D02*
X232023812Y-113228628D01*
X231785717Y-113704819D02*
X231785717Y-112704819D01*
X231785717Y-112704819D02*
X232166669Y-112704819D01*
X232166669Y-112704819D02*
X232261907Y-112752438D01*
X232261907Y-112752438D02*
X232309526Y-112800057D01*
X232309526Y-112800057D02*
X232357145Y-112895295D01*
X232357145Y-112895295D02*
X232357145Y-113038152D01*
X232357145Y-113038152D02*
X232309526Y-113133390D01*
X232309526Y-113133390D02*
X232261907Y-113181009D01*
X232261907Y-113181009D02*
X232166669Y-113228628D01*
X232166669Y-113228628D02*
X231785717Y-113228628D01*
X233309526Y-113704819D02*
X232738098Y-113704819D01*
X233023812Y-113704819D02*
X233023812Y-112704819D01*
X233023812Y-112704819D02*
X232928574Y-112847676D01*
X232928574Y-112847676D02*
X232833336Y-112942914D01*
X232833336Y-112942914D02*
X232738098Y-112990533D01*
X233642860Y-112704819D02*
X234309526Y-112704819D01*
X234309526Y-112704819D02*
X233880955Y-113704819D01*
D13*
X128943333Y-118549318D02*
X128338571Y-118549318D01*
X128338571Y-118549318D02*
X128278095Y-119154080D01*
X128278095Y-119154080D02*
X128338571Y-119093603D01*
X128338571Y-119093603D02*
X128459524Y-119033127D01*
X128459524Y-119033127D02*
X128761905Y-119033127D01*
X128761905Y-119033127D02*
X128882857Y-119093603D01*
X128882857Y-119093603D02*
X128943333Y-119154080D01*
X128943333Y-119154080D02*
X129003810Y-119275032D01*
X129003810Y-119275032D02*
X129003810Y-119577413D01*
X129003810Y-119577413D02*
X128943333Y-119698365D01*
X128943333Y-119698365D02*
X128882857Y-119758842D01*
X128882857Y-119758842D02*
X128761905Y-119819318D01*
X128761905Y-119819318D02*
X128459524Y-119819318D01*
X128459524Y-119819318D02*
X128338571Y-119758842D01*
X128338571Y-119758842D02*
X128278095Y-119698365D01*
X129366667Y-118549318D02*
X129790000Y-119819318D01*
X129790000Y-119819318D02*
X130213334Y-118549318D01*
X131301905Y-119819318D02*
X130576190Y-119819318D01*
X130939047Y-119819318D02*
X130939047Y-118549318D01*
X130939047Y-118549318D02*
X130818095Y-118730746D01*
X130818095Y-118730746D02*
X130697143Y-118851699D01*
X130697143Y-118851699D02*
X130576190Y-118912175D01*
D12*
X165857142Y-110454819D02*
X165523809Y-109978628D01*
X165285714Y-110454819D02*
X165285714Y-109454819D01*
X165285714Y-109454819D02*
X165666666Y-109454819D01*
X165666666Y-109454819D02*
X165761904Y-109502438D01*
X165761904Y-109502438D02*
X165809523Y-109550057D01*
X165809523Y-109550057D02*
X165857142Y-109645295D01*
X165857142Y-109645295D02*
X165857142Y-109788152D01*
X165857142Y-109788152D02*
X165809523Y-109883390D01*
X165809523Y-109883390D02*
X165761904Y-109931009D01*
X165761904Y-109931009D02*
X165666666Y-109978628D01*
X165666666Y-109978628D02*
X165285714Y-109978628D01*
X166809523Y-110454819D02*
X166238095Y-110454819D01*
X166523809Y-110454819D02*
X166523809Y-109454819D01*
X166523809Y-109454819D02*
X166428571Y-109597676D01*
X166428571Y-109597676D02*
X166333333Y-109692914D01*
X166333333Y-109692914D02*
X166238095Y-109740533D01*
X167142857Y-109454819D02*
X167761904Y-109454819D01*
X167761904Y-109454819D02*
X167428571Y-109835771D01*
X167428571Y-109835771D02*
X167571428Y-109835771D01*
X167571428Y-109835771D02*
X167666666Y-109883390D01*
X167666666Y-109883390D02*
X167714285Y-109931009D01*
X167714285Y-109931009D02*
X167761904Y-110026247D01*
X167761904Y-110026247D02*
X167761904Y-110264342D01*
X167761904Y-110264342D02*
X167714285Y-110359580D01*
X167714285Y-110359580D02*
X167666666Y-110407200D01*
X167666666Y-110407200D02*
X167571428Y-110454819D01*
X167571428Y-110454819D02*
X167285714Y-110454819D01*
X167285714Y-110454819D02*
X167190476Y-110407200D01*
X167190476Y-110407200D02*
X167142857Y-110359580D01*
X192857145Y-98704819D02*
X192523812Y-98228628D01*
X192285717Y-98704819D02*
X192285717Y-97704819D01*
X192285717Y-97704819D02*
X192666669Y-97704819D01*
X192666669Y-97704819D02*
X192761907Y-97752438D01*
X192761907Y-97752438D02*
X192809526Y-97800057D01*
X192809526Y-97800057D02*
X192857145Y-97895295D01*
X192857145Y-97895295D02*
X192857145Y-98038152D01*
X192857145Y-98038152D02*
X192809526Y-98133390D01*
X192809526Y-98133390D02*
X192761907Y-98181009D01*
X192761907Y-98181009D02*
X192666669Y-98228628D01*
X192666669Y-98228628D02*
X192285717Y-98228628D01*
X193238098Y-97800057D02*
X193285717Y-97752438D01*
X193285717Y-97752438D02*
X193380955Y-97704819D01*
X193380955Y-97704819D02*
X193619050Y-97704819D01*
X193619050Y-97704819D02*
X193714288Y-97752438D01*
X193714288Y-97752438D02*
X193761907Y-97800057D01*
X193761907Y-97800057D02*
X193809526Y-97895295D01*
X193809526Y-97895295D02*
X193809526Y-97990533D01*
X193809526Y-97990533D02*
X193761907Y-98133390D01*
X193761907Y-98133390D02*
X193190479Y-98704819D01*
X193190479Y-98704819D02*
X193809526Y-98704819D01*
X194666669Y-98038152D02*
X194666669Y-98704819D01*
X194428574Y-97657200D02*
X194190479Y-98371485D01*
X194190479Y-98371485D02*
X194809526Y-98371485D01*
X155704819Y-111642857D02*
X155228628Y-111976190D01*
X155704819Y-112214285D02*
X154704819Y-112214285D01*
X154704819Y-112214285D02*
X154704819Y-111833333D01*
X154704819Y-111833333D02*
X154752438Y-111738095D01*
X154752438Y-111738095D02*
X154800057Y-111690476D01*
X154800057Y-111690476D02*
X154895295Y-111642857D01*
X154895295Y-111642857D02*
X155038152Y-111642857D01*
X155038152Y-111642857D02*
X155133390Y-111690476D01*
X155133390Y-111690476D02*
X155181009Y-111738095D01*
X155181009Y-111738095D02*
X155228628Y-111833333D01*
X155228628Y-111833333D02*
X155228628Y-112214285D01*
X155704819Y-110690476D02*
X155704819Y-111261904D01*
X155704819Y-110976190D02*
X154704819Y-110976190D01*
X154704819Y-110976190D02*
X154847676Y-111071428D01*
X154847676Y-111071428D02*
X154942914Y-111166666D01*
X154942914Y-111166666D02*
X154990533Y-111261904D01*
X155704819Y-110214285D02*
X155704819Y-110023809D01*
X155704819Y-110023809D02*
X155657200Y-109928571D01*
X155657200Y-109928571D02*
X155609580Y-109880952D01*
X155609580Y-109880952D02*
X155466723Y-109785714D01*
X155466723Y-109785714D02*
X155276247Y-109738095D01*
X155276247Y-109738095D02*
X154895295Y-109738095D01*
X154895295Y-109738095D02*
X154800057Y-109785714D01*
X154800057Y-109785714D02*
X154752438Y-109833333D01*
X154752438Y-109833333D02*
X154704819Y-109928571D01*
X154704819Y-109928571D02*
X154704819Y-110119047D01*
X154704819Y-110119047D02*
X154752438Y-110214285D01*
X154752438Y-110214285D02*
X154800057Y-110261904D01*
X154800057Y-110261904D02*
X154895295Y-110309523D01*
X154895295Y-110309523D02*
X155133390Y-110309523D01*
X155133390Y-110309523D02*
X155228628Y-110261904D01*
X155228628Y-110261904D02*
X155276247Y-110214285D01*
X155276247Y-110214285D02*
X155323866Y-110119047D01*
X155323866Y-110119047D02*
X155323866Y-109928571D01*
X155323866Y-109928571D02*
X155276247Y-109833333D01*
X155276247Y-109833333D02*
X155228628Y-109785714D01*
X155228628Y-109785714D02*
X155133390Y-109738095D01*
X199954819Y-98666666D02*
X199478628Y-98999999D01*
X199954819Y-99238094D02*
X198954819Y-99238094D01*
X198954819Y-99238094D02*
X198954819Y-98857142D01*
X198954819Y-98857142D02*
X199002438Y-98761904D01*
X199002438Y-98761904D02*
X199050057Y-98714285D01*
X199050057Y-98714285D02*
X199145295Y-98666666D01*
X199145295Y-98666666D02*
X199288152Y-98666666D01*
X199288152Y-98666666D02*
X199383390Y-98714285D01*
X199383390Y-98714285D02*
X199431009Y-98761904D01*
X199431009Y-98761904D02*
X199478628Y-98857142D01*
X199478628Y-98857142D02*
X199478628Y-99238094D01*
X199954819Y-98190475D02*
X199954819Y-97999999D01*
X199954819Y-97999999D02*
X199907200Y-97904761D01*
X199907200Y-97904761D02*
X199859580Y-97857142D01*
X199859580Y-97857142D02*
X199716723Y-97761904D01*
X199716723Y-97761904D02*
X199526247Y-97714285D01*
X199526247Y-97714285D02*
X199145295Y-97714285D01*
X199145295Y-97714285D02*
X199050057Y-97761904D01*
X199050057Y-97761904D02*
X199002438Y-97809523D01*
X199002438Y-97809523D02*
X198954819Y-97904761D01*
X198954819Y-97904761D02*
X198954819Y-98095237D01*
X198954819Y-98095237D02*
X199002438Y-98190475D01*
X199002438Y-98190475D02*
X199050057Y-98238094D01*
X199050057Y-98238094D02*
X199145295Y-98285713D01*
X199145295Y-98285713D02*
X199383390Y-98285713D01*
X199383390Y-98285713D02*
X199478628Y-98238094D01*
X199478628Y-98238094D02*
X199526247Y-98190475D01*
X199526247Y-98190475D02*
X199573866Y-98095237D01*
X199573866Y-98095237D02*
X199573866Y-97904761D01*
X199573866Y-97904761D02*
X199526247Y-97809523D01*
X199526247Y-97809523D02*
X199478628Y-97761904D01*
X199478628Y-97761904D02*
X199383390Y-97714285D01*
D13*
X166842380Y-118758842D02*
X167023809Y-118819318D01*
X167023809Y-118819318D02*
X167326190Y-118819318D01*
X167326190Y-118819318D02*
X167447142Y-118758842D01*
X167447142Y-118758842D02*
X167507618Y-118698365D01*
X167507618Y-118698365D02*
X167568095Y-118577413D01*
X167568095Y-118577413D02*
X167568095Y-118456461D01*
X167568095Y-118456461D02*
X167507618Y-118335508D01*
X167507618Y-118335508D02*
X167447142Y-118275032D01*
X167447142Y-118275032D02*
X167326190Y-118214556D01*
X167326190Y-118214556D02*
X167084285Y-118154080D01*
X167084285Y-118154080D02*
X166963333Y-118093603D01*
X166963333Y-118093603D02*
X166902856Y-118033127D01*
X166902856Y-118033127D02*
X166842380Y-117912175D01*
X166842380Y-117912175D02*
X166842380Y-117791222D01*
X166842380Y-117791222D02*
X166902856Y-117670270D01*
X166902856Y-117670270D02*
X166963333Y-117609794D01*
X166963333Y-117609794D02*
X167084285Y-117549318D01*
X167084285Y-117549318D02*
X167386666Y-117549318D01*
X167386666Y-117549318D02*
X167568095Y-117609794D01*
X168838095Y-118698365D02*
X168777619Y-118758842D01*
X168777619Y-118758842D02*
X168596190Y-118819318D01*
X168596190Y-118819318D02*
X168475238Y-118819318D01*
X168475238Y-118819318D02*
X168293809Y-118758842D01*
X168293809Y-118758842D02*
X168172857Y-118637889D01*
X168172857Y-118637889D02*
X168112380Y-118516937D01*
X168112380Y-118516937D02*
X168051904Y-118275032D01*
X168051904Y-118275032D02*
X168051904Y-118093603D01*
X168051904Y-118093603D02*
X168112380Y-117851699D01*
X168112380Y-117851699D02*
X168172857Y-117730746D01*
X168172857Y-117730746D02*
X168293809Y-117609794D01*
X168293809Y-117609794D02*
X168475238Y-117549318D01*
X168475238Y-117549318D02*
X168596190Y-117549318D01*
X168596190Y-117549318D02*
X168777619Y-117609794D01*
X168777619Y-117609794D02*
X168838095Y-117670270D01*
X170108095Y-118819318D02*
X169684761Y-118214556D01*
X169382380Y-118819318D02*
X169382380Y-117549318D01*
X169382380Y-117549318D02*
X169866190Y-117549318D01*
X169866190Y-117549318D02*
X169987142Y-117609794D01*
X169987142Y-117609794D02*
X170047619Y-117670270D01*
X170047619Y-117670270D02*
X170108095Y-117791222D01*
X170108095Y-117791222D02*
X170108095Y-117972651D01*
X170108095Y-117972651D02*
X170047619Y-118093603D01*
X170047619Y-118093603D02*
X169987142Y-118154080D01*
X169987142Y-118154080D02*
X169866190Y-118214556D01*
X169866190Y-118214556D02*
X169382380Y-118214556D01*
X171317619Y-118819318D02*
X170591904Y-118819318D01*
X170954761Y-118819318D02*
X170954761Y-117549318D01*
X170954761Y-117549318D02*
X170833809Y-117730746D01*
X170833809Y-117730746D02*
X170712857Y-117851699D01*
X170712857Y-117851699D02*
X170591904Y-117912175D01*
D12*
X208357143Y-113154819D02*
X208357143Y-112154819D01*
X208357143Y-112154819D02*
X208738095Y-112154819D01*
X208738095Y-112154819D02*
X208833333Y-112202438D01*
X208833333Y-112202438D02*
X208880952Y-112250057D01*
X208880952Y-112250057D02*
X208928571Y-112345295D01*
X208928571Y-112345295D02*
X208928571Y-112488152D01*
X208928571Y-112488152D02*
X208880952Y-112583390D01*
X208880952Y-112583390D02*
X208833333Y-112631009D01*
X208833333Y-112631009D02*
X208738095Y-112678628D01*
X208738095Y-112678628D02*
X208357143Y-112678628D01*
X209309524Y-112869104D02*
X209785714Y-112869104D01*
X209214286Y-113154819D02*
X209547619Y-112154819D01*
X209547619Y-112154819D02*
X209880952Y-113154819D01*
X210166667Y-113107200D02*
X210309524Y-113154819D01*
X210309524Y-113154819D02*
X210547619Y-113154819D01*
X210547619Y-113154819D02*
X210642857Y-113107200D01*
X210642857Y-113107200D02*
X210690476Y-113059580D01*
X210690476Y-113059580D02*
X210738095Y-112964342D01*
X210738095Y-112964342D02*
X210738095Y-112869104D01*
X210738095Y-112869104D02*
X210690476Y-112773866D01*
X210690476Y-112773866D02*
X210642857Y-112726247D01*
X210642857Y-112726247D02*
X210547619Y-112678628D01*
X210547619Y-112678628D02*
X210357143Y-112631009D01*
X210357143Y-112631009D02*
X210261905Y-112583390D01*
X210261905Y-112583390D02*
X210214286Y-112535771D01*
X210214286Y-112535771D02*
X210166667Y-112440533D01*
X210166667Y-112440533D02*
X210166667Y-112345295D01*
X210166667Y-112345295D02*
X210214286Y-112250057D01*
X210214286Y-112250057D02*
X210261905Y-112202438D01*
X210261905Y-112202438D02*
X210357143Y-112154819D01*
X210357143Y-112154819D02*
X210595238Y-112154819D01*
X210595238Y-112154819D02*
X210738095Y-112202438D01*
X211119048Y-112250057D02*
X211166667Y-112202438D01*
X211166667Y-112202438D02*
X211261905Y-112154819D01*
X211261905Y-112154819D02*
X211500000Y-112154819D01*
X211500000Y-112154819D02*
X211595238Y-112202438D01*
X211595238Y-112202438D02*
X211642857Y-112250057D01*
X211642857Y-112250057D02*
X211690476Y-112345295D01*
X211690476Y-112345295D02*
X211690476Y-112440533D01*
X211690476Y-112440533D02*
X211642857Y-112583390D01*
X211642857Y-112583390D02*
X211071429Y-113154819D01*
X211071429Y-113154819D02*
X211690476Y-113154819D01*
X186454819Y-112642857D02*
X185978628Y-112976190D01*
X186454819Y-113214285D02*
X185454819Y-113214285D01*
X185454819Y-113214285D02*
X185454819Y-112833333D01*
X185454819Y-112833333D02*
X185502438Y-112738095D01*
X185502438Y-112738095D02*
X185550057Y-112690476D01*
X185550057Y-112690476D02*
X185645295Y-112642857D01*
X185645295Y-112642857D02*
X185788152Y-112642857D01*
X185788152Y-112642857D02*
X185883390Y-112690476D01*
X185883390Y-112690476D02*
X185931009Y-112738095D01*
X185931009Y-112738095D02*
X185978628Y-112833333D01*
X185978628Y-112833333D02*
X185978628Y-113214285D01*
X186454819Y-111690476D02*
X186454819Y-112261904D01*
X186454819Y-111976190D02*
X185454819Y-111976190D01*
X185454819Y-111976190D02*
X185597676Y-112071428D01*
X185597676Y-112071428D02*
X185692914Y-112166666D01*
X185692914Y-112166666D02*
X185740533Y-112261904D01*
X186454819Y-110738095D02*
X186454819Y-111309523D01*
X186454819Y-111023809D02*
X185454819Y-111023809D01*
X185454819Y-111023809D02*
X185597676Y-111119047D01*
X185597676Y-111119047D02*
X185692914Y-111214285D01*
X185692914Y-111214285D02*
X185740533Y-111309523D01*
X218035714Y-74119104D02*
X218511904Y-74119104D01*
X217940476Y-74404819D02*
X218273809Y-73404819D01*
X218273809Y-73404819D02*
X218607142Y-74404819D01*
X218892857Y-73500057D02*
X218940476Y-73452438D01*
X218940476Y-73452438D02*
X219035714Y-73404819D01*
X219035714Y-73404819D02*
X219273809Y-73404819D01*
X219273809Y-73404819D02*
X219369047Y-73452438D01*
X219369047Y-73452438D02*
X219416666Y-73500057D01*
X219416666Y-73500057D02*
X219464285Y-73595295D01*
X219464285Y-73595295D02*
X219464285Y-73690533D01*
X219464285Y-73690533D02*
X219416666Y-73833390D01*
X219416666Y-73833390D02*
X218845238Y-74404819D01*
X218845238Y-74404819D02*
X219464285Y-74404819D01*
D13*
X177052380Y-118758842D02*
X177233809Y-118819318D01*
X177233809Y-118819318D02*
X177536190Y-118819318D01*
X177536190Y-118819318D02*
X177657142Y-118758842D01*
X177657142Y-118758842D02*
X177717618Y-118698365D01*
X177717618Y-118698365D02*
X177778095Y-118577413D01*
X177778095Y-118577413D02*
X177778095Y-118456461D01*
X177778095Y-118456461D02*
X177717618Y-118335508D01*
X177717618Y-118335508D02*
X177657142Y-118275032D01*
X177657142Y-118275032D02*
X177536190Y-118214556D01*
X177536190Y-118214556D02*
X177294285Y-118154080D01*
X177294285Y-118154080D02*
X177173333Y-118093603D01*
X177173333Y-118093603D02*
X177112856Y-118033127D01*
X177112856Y-118033127D02*
X177052380Y-117912175D01*
X177052380Y-117912175D02*
X177052380Y-117791222D01*
X177052380Y-117791222D02*
X177112856Y-117670270D01*
X177112856Y-117670270D02*
X177173333Y-117609794D01*
X177173333Y-117609794D02*
X177294285Y-117549318D01*
X177294285Y-117549318D02*
X177596666Y-117549318D01*
X177596666Y-117549318D02*
X177778095Y-117609794D01*
X179048095Y-118698365D02*
X178987619Y-118758842D01*
X178987619Y-118758842D02*
X178806190Y-118819318D01*
X178806190Y-118819318D02*
X178685238Y-118819318D01*
X178685238Y-118819318D02*
X178503809Y-118758842D01*
X178503809Y-118758842D02*
X178382857Y-118637889D01*
X178382857Y-118637889D02*
X178322380Y-118516937D01*
X178322380Y-118516937D02*
X178261904Y-118275032D01*
X178261904Y-118275032D02*
X178261904Y-118093603D01*
X178261904Y-118093603D02*
X178322380Y-117851699D01*
X178322380Y-117851699D02*
X178382857Y-117730746D01*
X178382857Y-117730746D02*
X178503809Y-117609794D01*
X178503809Y-117609794D02*
X178685238Y-117549318D01*
X178685238Y-117549318D02*
X178806190Y-117549318D01*
X178806190Y-117549318D02*
X178987619Y-117609794D01*
X178987619Y-117609794D02*
X179048095Y-117670270D01*
X180318095Y-118819318D02*
X179894761Y-118214556D01*
X179592380Y-118819318D02*
X179592380Y-117549318D01*
X179592380Y-117549318D02*
X180076190Y-117549318D01*
X180076190Y-117549318D02*
X180197142Y-117609794D01*
X180197142Y-117609794D02*
X180257619Y-117670270D01*
X180257619Y-117670270D02*
X180318095Y-117791222D01*
X180318095Y-117791222D02*
X180318095Y-117972651D01*
X180318095Y-117972651D02*
X180257619Y-118093603D01*
X180257619Y-118093603D02*
X180197142Y-118154080D01*
X180197142Y-118154080D02*
X180076190Y-118214556D01*
X180076190Y-118214556D02*
X179592380Y-118214556D01*
X180801904Y-117670270D02*
X180862380Y-117609794D01*
X180862380Y-117609794D02*
X180983333Y-117549318D01*
X180983333Y-117549318D02*
X181285714Y-117549318D01*
X181285714Y-117549318D02*
X181406666Y-117609794D01*
X181406666Y-117609794D02*
X181467142Y-117670270D01*
X181467142Y-117670270D02*
X181527619Y-117791222D01*
X181527619Y-117791222D02*
X181527619Y-117912175D01*
X181527619Y-117912175D02*
X181467142Y-118093603D01*
X181467142Y-118093603D02*
X180741428Y-118819318D01*
X180741428Y-118819318D02*
X181527619Y-118819318D01*
D12*
X165204819Y-107642857D02*
X164728628Y-107976190D01*
X165204819Y-108214285D02*
X164204819Y-108214285D01*
X164204819Y-108214285D02*
X164204819Y-107833333D01*
X164204819Y-107833333D02*
X164252438Y-107738095D01*
X164252438Y-107738095D02*
X164300057Y-107690476D01*
X164300057Y-107690476D02*
X164395295Y-107642857D01*
X164395295Y-107642857D02*
X164538152Y-107642857D01*
X164538152Y-107642857D02*
X164633390Y-107690476D01*
X164633390Y-107690476D02*
X164681009Y-107738095D01*
X164681009Y-107738095D02*
X164728628Y-107833333D01*
X164728628Y-107833333D02*
X164728628Y-108214285D01*
X165204819Y-106690476D02*
X165204819Y-107261904D01*
X165204819Y-106976190D02*
X164204819Y-106976190D01*
X164204819Y-106976190D02*
X164347676Y-107071428D01*
X164347676Y-107071428D02*
X164442914Y-107166666D01*
X164442914Y-107166666D02*
X164490533Y-107261904D01*
X164204819Y-105785714D02*
X164204819Y-106261904D01*
X164204819Y-106261904D02*
X164681009Y-106309523D01*
X164681009Y-106309523D02*
X164633390Y-106261904D01*
X164633390Y-106261904D02*
X164585771Y-106166666D01*
X164585771Y-106166666D02*
X164585771Y-105928571D01*
X164585771Y-105928571D02*
X164633390Y-105833333D01*
X164633390Y-105833333D02*
X164681009Y-105785714D01*
X164681009Y-105785714D02*
X164776247Y-105738095D01*
X164776247Y-105738095D02*
X165014342Y-105738095D01*
X165014342Y-105738095D02*
X165109580Y-105785714D01*
X165109580Y-105785714D02*
X165157200Y-105833333D01*
X165157200Y-105833333D02*
X165204819Y-105928571D01*
X165204819Y-105928571D02*
X165204819Y-106166666D01*
X165204819Y-106166666D02*
X165157200Y-106261904D01*
X165157200Y-106261904D02*
X165109580Y-106309523D01*
D10*
X205916666Y-98007419D02*
X205916666Y-98721704D01*
X205916666Y-98721704D02*
X205869047Y-98864561D01*
X205869047Y-98864561D02*
X205773809Y-98959800D01*
X205773809Y-98959800D02*
X205630952Y-99007419D01*
X205630952Y-99007419D02*
X205535714Y-99007419D01*
X206821428Y-98340752D02*
X206821428Y-99007419D01*
X206583333Y-97959800D02*
X206345238Y-98674085D01*
X206345238Y-98674085D02*
X206964285Y-98674085D01*
D12*
X216607142Y-107704819D02*
X216273809Y-107228628D01*
X216035714Y-107704819D02*
X216035714Y-106704819D01*
X216035714Y-106704819D02*
X216416666Y-106704819D01*
X216416666Y-106704819D02*
X216511904Y-106752438D01*
X216511904Y-106752438D02*
X216559523Y-106800057D01*
X216559523Y-106800057D02*
X216607142Y-106895295D01*
X216607142Y-106895295D02*
X216607142Y-107038152D01*
X216607142Y-107038152D02*
X216559523Y-107133390D01*
X216559523Y-107133390D02*
X216511904Y-107181009D01*
X216511904Y-107181009D02*
X216416666Y-107228628D01*
X216416666Y-107228628D02*
X216035714Y-107228628D01*
X217559523Y-107704819D02*
X216988095Y-107704819D01*
X217273809Y-107704819D02*
X217273809Y-106704819D01*
X217273809Y-106704819D02*
X217178571Y-106847676D01*
X217178571Y-106847676D02*
X217083333Y-106942914D01*
X217083333Y-106942914D02*
X216988095Y-106990533D01*
X218416666Y-106704819D02*
X218226190Y-106704819D01*
X218226190Y-106704819D02*
X218130952Y-106752438D01*
X218130952Y-106752438D02*
X218083333Y-106800057D01*
X218083333Y-106800057D02*
X217988095Y-106942914D01*
X217988095Y-106942914D02*
X217940476Y-107133390D01*
X217940476Y-107133390D02*
X217940476Y-107514342D01*
X217940476Y-107514342D02*
X217988095Y-107609580D01*
X217988095Y-107609580D02*
X218035714Y-107657200D01*
X218035714Y-107657200D02*
X218130952Y-107704819D01*
X218130952Y-107704819D02*
X218321428Y-107704819D01*
X218321428Y-107704819D02*
X218416666Y-107657200D01*
X218416666Y-107657200D02*
X218464285Y-107609580D01*
X218464285Y-107609580D02*
X218511904Y-107514342D01*
X218511904Y-107514342D02*
X218511904Y-107276247D01*
X218511904Y-107276247D02*
X218464285Y-107181009D01*
X218464285Y-107181009D02*
X218416666Y-107133390D01*
X218416666Y-107133390D02*
X218321428Y-107085771D01*
X218321428Y-107085771D02*
X218130952Y-107085771D01*
X218130952Y-107085771D02*
X218035714Y-107133390D01*
X218035714Y-107133390D02*
X217988095Y-107181009D01*
X217988095Y-107181009D02*
X217940476Y-107276247D01*
X180554819Y-96892859D02*
X180078628Y-97226192D01*
X180554819Y-97464287D02*
X179554819Y-97464287D01*
X179554819Y-97464287D02*
X179554819Y-97083335D01*
X179554819Y-97083335D02*
X179602438Y-96988097D01*
X179602438Y-96988097D02*
X179650057Y-96940478D01*
X179650057Y-96940478D02*
X179745295Y-96892859D01*
X179745295Y-96892859D02*
X179888152Y-96892859D01*
X179888152Y-96892859D02*
X179983390Y-96940478D01*
X179983390Y-96940478D02*
X180031009Y-96988097D01*
X180031009Y-96988097D02*
X180078628Y-97083335D01*
X180078628Y-97083335D02*
X180078628Y-97464287D01*
X179650057Y-96511906D02*
X179602438Y-96464287D01*
X179602438Y-96464287D02*
X179554819Y-96369049D01*
X179554819Y-96369049D02*
X179554819Y-96130954D01*
X179554819Y-96130954D02*
X179602438Y-96035716D01*
X179602438Y-96035716D02*
X179650057Y-95988097D01*
X179650057Y-95988097D02*
X179745295Y-95940478D01*
X179745295Y-95940478D02*
X179840533Y-95940478D01*
X179840533Y-95940478D02*
X179983390Y-95988097D01*
X179983390Y-95988097D02*
X180554819Y-96559525D01*
X180554819Y-96559525D02*
X180554819Y-95940478D01*
X179554819Y-95607144D02*
X179554819Y-94940478D01*
X179554819Y-94940478D02*
X180554819Y-95369049D01*
X170054819Y-102142859D02*
X169578628Y-102476192D01*
X170054819Y-102714287D02*
X169054819Y-102714287D01*
X169054819Y-102714287D02*
X169054819Y-102333335D01*
X169054819Y-102333335D02*
X169102438Y-102238097D01*
X169102438Y-102238097D02*
X169150057Y-102190478D01*
X169150057Y-102190478D02*
X169245295Y-102142859D01*
X169245295Y-102142859D02*
X169388152Y-102142859D01*
X169388152Y-102142859D02*
X169483390Y-102190478D01*
X169483390Y-102190478D02*
X169531009Y-102238097D01*
X169531009Y-102238097D02*
X169578628Y-102333335D01*
X169578628Y-102333335D02*
X169578628Y-102714287D01*
X169388152Y-101285716D02*
X170054819Y-101285716D01*
X169007200Y-101523811D02*
X169721485Y-101761906D01*
X169721485Y-101761906D02*
X169721485Y-101142859D01*
X170054819Y-100238097D02*
X170054819Y-100809525D01*
X170054819Y-100523811D02*
X169054819Y-100523811D01*
X169054819Y-100523811D02*
X169197676Y-100619049D01*
X169197676Y-100619049D02*
X169292914Y-100714287D01*
X169292914Y-100714287D02*
X169340533Y-100809525D01*
D13*
X215996190Y-117909080D02*
X216177618Y-117969556D01*
X216177618Y-117969556D02*
X216238095Y-118030032D01*
X216238095Y-118030032D02*
X216298571Y-118150984D01*
X216298571Y-118150984D02*
X216298571Y-118332413D01*
X216298571Y-118332413D02*
X216238095Y-118453365D01*
X216238095Y-118453365D02*
X216177618Y-118513842D01*
X216177618Y-118513842D02*
X216056666Y-118574318D01*
X216056666Y-118574318D02*
X215572856Y-118574318D01*
X215572856Y-118574318D02*
X215572856Y-117304318D01*
X215572856Y-117304318D02*
X215996190Y-117304318D01*
X215996190Y-117304318D02*
X216117142Y-117364794D01*
X216117142Y-117364794D02*
X216177618Y-117425270D01*
X216177618Y-117425270D02*
X216238095Y-117546222D01*
X216238095Y-117546222D02*
X216238095Y-117667175D01*
X216238095Y-117667175D02*
X216177618Y-117788127D01*
X216177618Y-117788127D02*
X216117142Y-117848603D01*
X216117142Y-117848603D02*
X215996190Y-117909080D01*
X215996190Y-117909080D02*
X215572856Y-117909080D01*
X217568571Y-118574318D02*
X217145237Y-117969556D01*
X216842856Y-118574318D02*
X216842856Y-117304318D01*
X216842856Y-117304318D02*
X217326666Y-117304318D01*
X217326666Y-117304318D02*
X217447618Y-117364794D01*
X217447618Y-117364794D02*
X217508095Y-117425270D01*
X217508095Y-117425270D02*
X217568571Y-117546222D01*
X217568571Y-117546222D02*
X217568571Y-117727651D01*
X217568571Y-117727651D02*
X217508095Y-117848603D01*
X217508095Y-117848603D02*
X217447618Y-117909080D01*
X217447618Y-117909080D02*
X217326666Y-117969556D01*
X217326666Y-117969556D02*
X216842856Y-117969556D01*
X218112856Y-118574318D02*
X218112856Y-117304318D01*
X218838571Y-118574318D02*
X218294285Y-117848603D01*
X218838571Y-117304318D02*
X218112856Y-118030032D01*
X220289999Y-117243842D02*
X219201428Y-118876699D01*
X220531904Y-117304318D02*
X221257618Y-117304318D01*
X220894761Y-118574318D02*
X220894761Y-117304318D01*
X221680951Y-118574318D02*
X221680951Y-117304318D01*
X221680951Y-117304318D02*
X222104285Y-118211461D01*
X222104285Y-118211461D02*
X222527618Y-117304318D01*
X222527618Y-117304318D02*
X222527618Y-118574318D01*
X223132380Y-118574318D02*
X223132380Y-117304318D01*
X223132380Y-117304318D02*
X223616190Y-117304318D01*
X223616190Y-117304318D02*
X223737142Y-117364794D01*
X223737142Y-117364794D02*
X223797619Y-117425270D01*
X223797619Y-117425270D02*
X223858095Y-117546222D01*
X223858095Y-117546222D02*
X223858095Y-117727651D01*
X223858095Y-117727651D02*
X223797619Y-117848603D01*
X223797619Y-117848603D02*
X223737142Y-117909080D01*
X223737142Y-117909080D02*
X223616190Y-117969556D01*
X223616190Y-117969556D02*
X223132380Y-117969556D01*
X225067619Y-118574318D02*
X224341904Y-118574318D01*
X224704761Y-118574318D02*
X224704761Y-117304318D01*
X224704761Y-117304318D02*
X224583809Y-117485746D01*
X224583809Y-117485746D02*
X224462857Y-117606699D01*
X224462857Y-117606699D02*
X224341904Y-117667175D01*
X146544286Y-117549318D02*
X146967619Y-118819318D01*
X146967619Y-118819318D02*
X147390953Y-117549318D01*
X147814285Y-118819318D02*
X147814285Y-117549318D01*
X148419047Y-118819318D02*
X148419047Y-117549318D01*
X148419047Y-117549318D02*
X149144762Y-118819318D01*
X149144762Y-118819318D02*
X149144762Y-117549318D01*
X150414762Y-118819318D02*
X149689047Y-118819318D01*
X150051904Y-118819318D02*
X150051904Y-117549318D01*
X150051904Y-117549318D02*
X149930952Y-117730746D01*
X149930952Y-117730746D02*
X149810000Y-117851699D01*
X149810000Y-117851699D02*
X149689047Y-117912175D01*
X119659285Y-118549318D02*
X119659285Y-119577413D01*
X119659285Y-119577413D02*
X119719762Y-119698365D01*
X119719762Y-119698365D02*
X119780238Y-119758842D01*
X119780238Y-119758842D02*
X119901190Y-119819318D01*
X119901190Y-119819318D02*
X120143095Y-119819318D01*
X120143095Y-119819318D02*
X120264047Y-119758842D01*
X120264047Y-119758842D02*
X120324524Y-119698365D01*
X120324524Y-119698365D02*
X120385000Y-119577413D01*
X120385000Y-119577413D02*
X120385000Y-118549318D01*
X120929285Y-119456461D02*
X121534047Y-119456461D01*
X120808333Y-119819318D02*
X121231666Y-118549318D01*
X121231666Y-118549318D02*
X121655000Y-119819318D01*
X122804047Y-119819318D02*
X122380713Y-119214556D01*
X122078332Y-119819318D02*
X122078332Y-118549318D01*
X122078332Y-118549318D02*
X122562142Y-118549318D01*
X122562142Y-118549318D02*
X122683094Y-118609794D01*
X122683094Y-118609794D02*
X122743571Y-118670270D01*
X122743571Y-118670270D02*
X122804047Y-118791222D01*
X122804047Y-118791222D02*
X122804047Y-118972651D01*
X122804047Y-118972651D02*
X122743571Y-119093603D01*
X122743571Y-119093603D02*
X122683094Y-119154080D01*
X122683094Y-119154080D02*
X122562142Y-119214556D01*
X122562142Y-119214556D02*
X122078332Y-119214556D01*
X123166904Y-118549318D02*
X123892618Y-118549318D01*
X123529761Y-119819318D02*
X123529761Y-118549318D01*
X124981190Y-119819318D02*
X124255475Y-119819318D01*
X124618332Y-119819318D02*
X124618332Y-118549318D01*
X124618332Y-118549318D02*
X124497380Y-118730746D01*
X124497380Y-118730746D02*
X124376428Y-118851699D01*
X124376428Y-118851699D02*
X124255475Y-118912175D01*
X136899048Y-118824318D02*
X136173333Y-118824318D01*
X136536190Y-118824318D02*
X136536190Y-117554318D01*
X136536190Y-117554318D02*
X136415238Y-117735746D01*
X136415238Y-117735746D02*
X136294286Y-117856699D01*
X136294286Y-117856699D02*
X136173333Y-117917175D01*
X137382857Y-117675270D02*
X137443333Y-117614794D01*
X137443333Y-117614794D02*
X137564286Y-117554318D01*
X137564286Y-117554318D02*
X137866667Y-117554318D01*
X137866667Y-117554318D02*
X137987619Y-117614794D01*
X137987619Y-117614794D02*
X138048095Y-117675270D01*
X138048095Y-117675270D02*
X138108572Y-117796222D01*
X138108572Y-117796222D02*
X138108572Y-117917175D01*
X138108572Y-117917175D02*
X138048095Y-118098603D01*
X138048095Y-118098603D02*
X137322381Y-118824318D01*
X137322381Y-118824318D02*
X138108572Y-118824318D01*
X138471429Y-117554318D02*
X138894762Y-118824318D01*
X138894762Y-118824318D02*
X139318096Y-117554318D01*
X140406667Y-118824318D02*
X139680952Y-118824318D01*
X140043809Y-118824318D02*
X140043809Y-117554318D01*
X140043809Y-117554318D02*
X139922857Y-117735746D01*
X139922857Y-117735746D02*
X139801905Y-117856699D01*
X139801905Y-117856699D02*
X139680952Y-117917175D01*
D12*
X159204819Y-111642857D02*
X158728628Y-111976190D01*
X159204819Y-112214285D02*
X158204819Y-112214285D01*
X158204819Y-112214285D02*
X158204819Y-111833333D01*
X158204819Y-111833333D02*
X158252438Y-111738095D01*
X158252438Y-111738095D02*
X158300057Y-111690476D01*
X158300057Y-111690476D02*
X158395295Y-111642857D01*
X158395295Y-111642857D02*
X158538152Y-111642857D01*
X158538152Y-111642857D02*
X158633390Y-111690476D01*
X158633390Y-111690476D02*
X158681009Y-111738095D01*
X158681009Y-111738095D02*
X158728628Y-111833333D01*
X158728628Y-111833333D02*
X158728628Y-112214285D01*
X158300057Y-111261904D02*
X158252438Y-111214285D01*
X158252438Y-111214285D02*
X158204819Y-111119047D01*
X158204819Y-111119047D02*
X158204819Y-110880952D01*
X158204819Y-110880952D02*
X158252438Y-110785714D01*
X158252438Y-110785714D02*
X158300057Y-110738095D01*
X158300057Y-110738095D02*
X158395295Y-110690476D01*
X158395295Y-110690476D02*
X158490533Y-110690476D01*
X158490533Y-110690476D02*
X158633390Y-110738095D01*
X158633390Y-110738095D02*
X159204819Y-111309523D01*
X159204819Y-111309523D02*
X159204819Y-110690476D01*
X158204819Y-110071428D02*
X158204819Y-109976190D01*
X158204819Y-109976190D02*
X158252438Y-109880952D01*
X158252438Y-109880952D02*
X158300057Y-109833333D01*
X158300057Y-109833333D02*
X158395295Y-109785714D01*
X158395295Y-109785714D02*
X158585771Y-109738095D01*
X158585771Y-109738095D02*
X158823866Y-109738095D01*
X158823866Y-109738095D02*
X159014342Y-109785714D01*
X159014342Y-109785714D02*
X159109580Y-109833333D01*
X159109580Y-109833333D02*
X159157200Y-109880952D01*
X159157200Y-109880952D02*
X159204819Y-109976190D01*
X159204819Y-109976190D02*
X159204819Y-110071428D01*
X159204819Y-110071428D02*
X159157200Y-110166666D01*
X159157200Y-110166666D02*
X159109580Y-110214285D01*
X159109580Y-110214285D02*
X159014342Y-110261904D01*
X159014342Y-110261904D02*
X158823866Y-110309523D01*
X158823866Y-110309523D02*
X158585771Y-110309523D01*
X158585771Y-110309523D02*
X158395295Y-110261904D01*
X158395295Y-110261904D02*
X158300057Y-110214285D01*
X158300057Y-110214285D02*
X158252438Y-110166666D01*
X158252438Y-110166666D02*
X158204819Y-110071428D01*
X217261905Y-100704819D02*
X217261905Y-99704819D01*
X217261905Y-99704819D02*
X217500000Y-99704819D01*
X217500000Y-99704819D02*
X217642857Y-99752438D01*
X217642857Y-99752438D02*
X217738095Y-99847676D01*
X217738095Y-99847676D02*
X217785714Y-99942914D01*
X217785714Y-99942914D02*
X217833333Y-100133390D01*
X217833333Y-100133390D02*
X217833333Y-100276247D01*
X217833333Y-100276247D02*
X217785714Y-100466723D01*
X217785714Y-100466723D02*
X217738095Y-100561961D01*
X217738095Y-100561961D02*
X217642857Y-100657200D01*
X217642857Y-100657200D02*
X217500000Y-100704819D01*
X217500000Y-100704819D02*
X217261905Y-100704819D01*
X218309524Y-100704819D02*
X218500000Y-100704819D01*
X218500000Y-100704819D02*
X218595238Y-100657200D01*
X218595238Y-100657200D02*
X218642857Y-100609580D01*
X218642857Y-100609580D02*
X218738095Y-100466723D01*
X218738095Y-100466723D02*
X218785714Y-100276247D01*
X218785714Y-100276247D02*
X218785714Y-99895295D01*
X218785714Y-99895295D02*
X218738095Y-99800057D01*
X218738095Y-99800057D02*
X218690476Y-99752438D01*
X218690476Y-99752438D02*
X218595238Y-99704819D01*
X218595238Y-99704819D02*
X218404762Y-99704819D01*
X218404762Y-99704819D02*
X218309524Y-99752438D01*
X218309524Y-99752438D02*
X218261905Y-99800057D01*
X218261905Y-99800057D02*
X218214286Y-99895295D01*
X218214286Y-99895295D02*
X218214286Y-100133390D01*
X218214286Y-100133390D02*
X218261905Y-100228628D01*
X218261905Y-100228628D02*
X218309524Y-100276247D01*
X218309524Y-100276247D02*
X218404762Y-100323866D01*
X218404762Y-100323866D02*
X218595238Y-100323866D01*
X218595238Y-100323866D02*
X218690476Y-100276247D01*
X218690476Y-100276247D02*
X218738095Y-100228628D01*
X218738095Y-100228628D02*
X218785714Y-100133390D01*
X169054819Y-109392859D02*
X168578628Y-109726192D01*
X169054819Y-109964287D02*
X168054819Y-109964287D01*
X168054819Y-109964287D02*
X168054819Y-109583335D01*
X168054819Y-109583335D02*
X168102438Y-109488097D01*
X168102438Y-109488097D02*
X168150057Y-109440478D01*
X168150057Y-109440478D02*
X168245295Y-109392859D01*
X168245295Y-109392859D02*
X168388152Y-109392859D01*
X168388152Y-109392859D02*
X168483390Y-109440478D01*
X168483390Y-109440478D02*
X168531009Y-109488097D01*
X168531009Y-109488097D02*
X168578628Y-109583335D01*
X168578628Y-109583335D02*
X168578628Y-109964287D01*
X169054819Y-108440478D02*
X169054819Y-109011906D01*
X169054819Y-108726192D02*
X168054819Y-108726192D01*
X168054819Y-108726192D02*
X168197676Y-108821430D01*
X168197676Y-108821430D02*
X168292914Y-108916668D01*
X168292914Y-108916668D02*
X168340533Y-109011906D01*
X168388152Y-107583335D02*
X169054819Y-107583335D01*
X168007200Y-107821430D02*
X168721485Y-108059525D01*
X168721485Y-108059525D02*
X168721485Y-107440478D01*
D10*
X176738095Y-82957419D02*
X176738095Y-83766942D01*
X176738095Y-83766942D02*
X176785714Y-83862180D01*
X176785714Y-83862180D02*
X176833333Y-83909800D01*
X176833333Y-83909800D02*
X176928571Y-83957419D01*
X176928571Y-83957419D02*
X177119047Y-83957419D01*
X177119047Y-83957419D02*
X177214285Y-83909800D01*
X177214285Y-83909800D02*
X177261904Y-83862180D01*
X177261904Y-83862180D02*
X177309523Y-83766942D01*
X177309523Y-83766942D02*
X177309523Y-82957419D01*
X177738095Y-83052657D02*
X177785714Y-83005038D01*
X177785714Y-83005038D02*
X177880952Y-82957419D01*
X177880952Y-82957419D02*
X178119047Y-82957419D01*
X178119047Y-82957419D02*
X178214285Y-83005038D01*
X178214285Y-83005038D02*
X178261904Y-83052657D01*
X178261904Y-83052657D02*
X178309523Y-83147895D01*
X178309523Y-83147895D02*
X178309523Y-83243133D01*
X178309523Y-83243133D02*
X178261904Y-83385990D01*
X178261904Y-83385990D02*
X177690476Y-83957419D01*
X177690476Y-83957419D02*
X178309523Y-83957419D01*
D12*
X164238095Y-83573866D02*
X164285714Y-83526247D01*
X164285714Y-83526247D02*
X164380952Y-83478628D01*
X164380952Y-83478628D02*
X164571428Y-83573866D01*
X164571428Y-83573866D02*
X164666666Y-83526247D01*
X164666666Y-83526247D02*
X164714285Y-83478628D01*
D10*
X175486704Y-97193734D02*
X175486704Y-96717544D01*
X175772419Y-97288972D02*
X174772419Y-96955639D01*
X174772419Y-96955639D02*
X175772419Y-96622306D01*
X174772419Y-96384210D02*
X174772419Y-95765163D01*
X174772419Y-95765163D02*
X175153371Y-96098496D01*
X175153371Y-96098496D02*
X175153371Y-95955639D01*
X175153371Y-95955639D02*
X175200990Y-95860401D01*
X175200990Y-95860401D02*
X175248609Y-95812782D01*
X175248609Y-95812782D02*
X175343847Y-95765163D01*
X175343847Y-95765163D02*
X175581942Y-95765163D01*
X175581942Y-95765163D02*
X175677180Y-95812782D01*
X175677180Y-95812782D02*
X175724800Y-95860401D01*
X175724800Y-95860401D02*
X175772419Y-95955639D01*
X175772419Y-95955639D02*
X175772419Y-96241353D01*
X175772419Y-96241353D02*
X175724800Y-96336591D01*
X175724800Y-96336591D02*
X175677180Y-96384210D01*
X162786704Y-98993734D02*
X162786704Y-98517544D01*
X163072419Y-99088972D02*
X162072419Y-98755639D01*
X162072419Y-98755639D02*
X163072419Y-98422306D01*
X163072419Y-98088972D02*
X162072419Y-98088972D01*
X162072419Y-98088972D02*
X162072419Y-97850877D01*
X162072419Y-97850877D02*
X162120038Y-97708020D01*
X162120038Y-97708020D02*
X162215276Y-97612782D01*
X162215276Y-97612782D02*
X162310514Y-97565163D01*
X162310514Y-97565163D02*
X162500990Y-97517544D01*
X162500990Y-97517544D02*
X162643847Y-97517544D01*
X162643847Y-97517544D02*
X162834323Y-97565163D01*
X162834323Y-97565163D02*
X162929561Y-97612782D01*
X162929561Y-97612782D02*
X163024800Y-97708020D01*
X163024800Y-97708020D02*
X163072419Y-97850877D01*
X163072419Y-97850877D02*
X163072419Y-98088972D01*
X163072419Y-97088972D02*
X162072419Y-97088972D01*
X162072419Y-97088972D02*
X162072419Y-96850877D01*
X162072419Y-96850877D02*
X162120038Y-96708020D01*
X162120038Y-96708020D02*
X162215276Y-96612782D01*
X162215276Y-96612782D02*
X162310514Y-96565163D01*
X162310514Y-96565163D02*
X162500990Y-96517544D01*
X162500990Y-96517544D02*
X162643847Y-96517544D01*
X162643847Y-96517544D02*
X162834323Y-96565163D01*
X162834323Y-96565163D02*
X162929561Y-96612782D01*
X162929561Y-96612782D02*
X163024800Y-96708020D01*
X163024800Y-96708020D02*
X163072419Y-96850877D01*
X163072419Y-96850877D02*
X163072419Y-97088972D01*
X163072419Y-95517544D02*
X162596228Y-95850877D01*
X163072419Y-96088972D02*
X162072419Y-96088972D01*
X162072419Y-96088972D02*
X162072419Y-95708020D01*
X162072419Y-95708020D02*
X162120038Y-95612782D01*
X162120038Y-95612782D02*
X162167657Y-95565163D01*
X162167657Y-95565163D02*
X162262895Y-95517544D01*
X162262895Y-95517544D02*
X162405752Y-95517544D01*
X162405752Y-95517544D02*
X162500990Y-95565163D01*
X162500990Y-95565163D02*
X162548609Y-95612782D01*
X162548609Y-95612782D02*
X162596228Y-95708020D01*
X162596228Y-95708020D02*
X162596228Y-96088972D01*
X167886704Y-97193734D02*
X167886704Y-96717544D01*
X168172419Y-97288972D02*
X167172419Y-96955639D01*
X167172419Y-96955639D02*
X168172419Y-96622306D01*
X167172419Y-96098496D02*
X167172419Y-96003258D01*
X167172419Y-96003258D02*
X167220038Y-95908020D01*
X167220038Y-95908020D02*
X167267657Y-95860401D01*
X167267657Y-95860401D02*
X167362895Y-95812782D01*
X167362895Y-95812782D02*
X167553371Y-95765163D01*
X167553371Y-95765163D02*
X167791466Y-95765163D01*
X167791466Y-95765163D02*
X167981942Y-95812782D01*
X167981942Y-95812782D02*
X168077180Y-95860401D01*
X168077180Y-95860401D02*
X168124800Y-95908020D01*
X168124800Y-95908020D02*
X168172419Y-96003258D01*
X168172419Y-96003258D02*
X168172419Y-96098496D01*
X168172419Y-96098496D02*
X168124800Y-96193734D01*
X168124800Y-96193734D02*
X168077180Y-96241353D01*
X168077180Y-96241353D02*
X167981942Y-96288972D01*
X167981942Y-96288972D02*
X167791466Y-96336591D01*
X167791466Y-96336591D02*
X167553371Y-96336591D01*
X167553371Y-96336591D02*
X167362895Y-96288972D01*
X167362895Y-96288972D02*
X167267657Y-96241353D01*
X167267657Y-96241353D02*
X167220038Y-96193734D01*
X167220038Y-96193734D02*
X167172419Y-96098496D01*
X160624800Y-98093734D02*
X160672419Y-97950877D01*
X160672419Y-97950877D02*
X160672419Y-97712782D01*
X160672419Y-97712782D02*
X160624800Y-97617544D01*
X160624800Y-97617544D02*
X160577180Y-97569925D01*
X160577180Y-97569925D02*
X160481942Y-97522306D01*
X160481942Y-97522306D02*
X160386704Y-97522306D01*
X160386704Y-97522306D02*
X160291466Y-97569925D01*
X160291466Y-97569925D02*
X160243847Y-97617544D01*
X160243847Y-97617544D02*
X160196228Y-97712782D01*
X160196228Y-97712782D02*
X160148609Y-97903258D01*
X160148609Y-97903258D02*
X160100990Y-97998496D01*
X160100990Y-97998496D02*
X160053371Y-98046115D01*
X160053371Y-98046115D02*
X159958133Y-98093734D01*
X159958133Y-98093734D02*
X159862895Y-98093734D01*
X159862895Y-98093734D02*
X159767657Y-98046115D01*
X159767657Y-98046115D02*
X159720038Y-97998496D01*
X159720038Y-97998496D02*
X159672419Y-97903258D01*
X159672419Y-97903258D02*
X159672419Y-97665163D01*
X159672419Y-97665163D02*
X159720038Y-97522306D01*
X160672419Y-97093734D02*
X159672419Y-97093734D01*
X159672419Y-97093734D02*
X159672419Y-96855639D01*
X159672419Y-96855639D02*
X159720038Y-96712782D01*
X159720038Y-96712782D02*
X159815276Y-96617544D01*
X159815276Y-96617544D02*
X159910514Y-96569925D01*
X159910514Y-96569925D02*
X160100990Y-96522306D01*
X160100990Y-96522306D02*
X160243847Y-96522306D01*
X160243847Y-96522306D02*
X160434323Y-96569925D01*
X160434323Y-96569925D02*
X160529561Y-96617544D01*
X160529561Y-96617544D02*
X160624800Y-96712782D01*
X160624800Y-96712782D02*
X160672419Y-96855639D01*
X160672419Y-96855639D02*
X160672419Y-97093734D01*
X160386704Y-96141353D02*
X160386704Y-95665163D01*
X160672419Y-96236591D02*
X159672419Y-95903258D01*
X159672419Y-95903258D02*
X160672419Y-95569925D01*
X158024800Y-97993734D02*
X158072419Y-97850877D01*
X158072419Y-97850877D02*
X158072419Y-97612782D01*
X158072419Y-97612782D02*
X158024800Y-97517544D01*
X158024800Y-97517544D02*
X157977180Y-97469925D01*
X157977180Y-97469925D02*
X157881942Y-97422306D01*
X157881942Y-97422306D02*
X157786704Y-97422306D01*
X157786704Y-97422306D02*
X157691466Y-97469925D01*
X157691466Y-97469925D02*
X157643847Y-97517544D01*
X157643847Y-97517544D02*
X157596228Y-97612782D01*
X157596228Y-97612782D02*
X157548609Y-97803258D01*
X157548609Y-97803258D02*
X157500990Y-97898496D01*
X157500990Y-97898496D02*
X157453371Y-97946115D01*
X157453371Y-97946115D02*
X157358133Y-97993734D01*
X157358133Y-97993734D02*
X157262895Y-97993734D01*
X157262895Y-97993734D02*
X157167657Y-97946115D01*
X157167657Y-97946115D02*
X157120038Y-97898496D01*
X157120038Y-97898496D02*
X157072419Y-97803258D01*
X157072419Y-97803258D02*
X157072419Y-97565163D01*
X157072419Y-97565163D02*
X157120038Y-97422306D01*
X157977180Y-96422306D02*
X158024800Y-96469925D01*
X158024800Y-96469925D02*
X158072419Y-96612782D01*
X158072419Y-96612782D02*
X158072419Y-96708020D01*
X158072419Y-96708020D02*
X158024800Y-96850877D01*
X158024800Y-96850877D02*
X157929561Y-96946115D01*
X157929561Y-96946115D02*
X157834323Y-96993734D01*
X157834323Y-96993734D02*
X157643847Y-97041353D01*
X157643847Y-97041353D02*
X157500990Y-97041353D01*
X157500990Y-97041353D02*
X157310514Y-96993734D01*
X157310514Y-96993734D02*
X157215276Y-96946115D01*
X157215276Y-96946115D02*
X157120038Y-96850877D01*
X157120038Y-96850877D02*
X157072419Y-96708020D01*
X157072419Y-96708020D02*
X157072419Y-96612782D01*
X157072419Y-96612782D02*
X157120038Y-96469925D01*
X157120038Y-96469925D02*
X157167657Y-96422306D01*
X158072419Y-95517544D02*
X158072419Y-95993734D01*
X158072419Y-95993734D02*
X157072419Y-95993734D01*
X154620038Y-97622306D02*
X154572419Y-97717544D01*
X154572419Y-97717544D02*
X154572419Y-97860401D01*
X154572419Y-97860401D02*
X154620038Y-98003258D01*
X154620038Y-98003258D02*
X154715276Y-98098496D01*
X154715276Y-98098496D02*
X154810514Y-98146115D01*
X154810514Y-98146115D02*
X155000990Y-98193734D01*
X155000990Y-98193734D02*
X155143847Y-98193734D01*
X155143847Y-98193734D02*
X155334323Y-98146115D01*
X155334323Y-98146115D02*
X155429561Y-98098496D01*
X155429561Y-98098496D02*
X155524800Y-98003258D01*
X155524800Y-98003258D02*
X155572419Y-97860401D01*
X155572419Y-97860401D02*
X155572419Y-97765163D01*
X155572419Y-97765163D02*
X155524800Y-97622306D01*
X155524800Y-97622306D02*
X155477180Y-97574687D01*
X155477180Y-97574687D02*
X155143847Y-97574687D01*
X155143847Y-97574687D02*
X155143847Y-97765163D01*
X155572419Y-97146115D02*
X154572419Y-97146115D01*
X154572419Y-97146115D02*
X155572419Y-96574687D01*
X155572419Y-96574687D02*
X154572419Y-96574687D01*
X155572419Y-96098496D02*
X154572419Y-96098496D01*
X154572419Y-96098496D02*
X154572419Y-95860401D01*
X154572419Y-95860401D02*
X154620038Y-95717544D01*
X154620038Y-95717544D02*
X154715276Y-95622306D01*
X154715276Y-95622306D02*
X154810514Y-95574687D01*
X154810514Y-95574687D02*
X155000990Y-95527068D01*
X155000990Y-95527068D02*
X155143847Y-95527068D01*
X155143847Y-95527068D02*
X155334323Y-95574687D01*
X155334323Y-95574687D02*
X155429561Y-95622306D01*
X155429561Y-95622306D02*
X155524800Y-95717544D01*
X155524800Y-95717544D02*
X155572419Y-95860401D01*
X155572419Y-95860401D02*
X155572419Y-96098496D01*
X170486704Y-97193734D02*
X170486704Y-96717544D01*
X170772419Y-97288972D02*
X169772419Y-96955639D01*
X169772419Y-96955639D02*
X170772419Y-96622306D01*
X170772419Y-95765163D02*
X170772419Y-96336591D01*
X170772419Y-96050877D02*
X169772419Y-96050877D01*
X169772419Y-96050877D02*
X169915276Y-96146115D01*
X169915276Y-96146115D02*
X170010514Y-96241353D01*
X170010514Y-96241353D02*
X170058133Y-96336591D01*
X151972419Y-98088972D02*
X152972419Y-97755639D01*
X152972419Y-97755639D02*
X151972419Y-97422306D01*
X152972419Y-97088972D02*
X151972419Y-97088972D01*
X151972419Y-97088972D02*
X151972419Y-96850877D01*
X151972419Y-96850877D02*
X152020038Y-96708020D01*
X152020038Y-96708020D02*
X152115276Y-96612782D01*
X152115276Y-96612782D02*
X152210514Y-96565163D01*
X152210514Y-96565163D02*
X152400990Y-96517544D01*
X152400990Y-96517544D02*
X152543847Y-96517544D01*
X152543847Y-96517544D02*
X152734323Y-96565163D01*
X152734323Y-96565163D02*
X152829561Y-96612782D01*
X152829561Y-96612782D02*
X152924800Y-96708020D01*
X152924800Y-96708020D02*
X152972419Y-96850877D01*
X152972419Y-96850877D02*
X152972419Y-97088972D01*
X152972419Y-96088972D02*
X151972419Y-96088972D01*
X151972419Y-96088972D02*
X151972419Y-95850877D01*
X151972419Y-95850877D02*
X152020038Y-95708020D01*
X152020038Y-95708020D02*
X152115276Y-95612782D01*
X152115276Y-95612782D02*
X152210514Y-95565163D01*
X152210514Y-95565163D02*
X152400990Y-95517544D01*
X152400990Y-95517544D02*
X152543847Y-95517544D01*
X152543847Y-95517544D02*
X152734323Y-95565163D01*
X152734323Y-95565163D02*
X152829561Y-95612782D01*
X152829561Y-95612782D02*
X152924800Y-95708020D01*
X152924800Y-95708020D02*
X152972419Y-95850877D01*
X152972419Y-95850877D02*
X152972419Y-96088972D01*
X165386704Y-98693734D02*
X165386704Y-98217544D01*
X165672419Y-98788972D02*
X164672419Y-98455639D01*
X164672419Y-98455639D02*
X165672419Y-98122306D01*
X165672419Y-97312782D02*
X165672419Y-97788972D01*
X165672419Y-97788972D02*
X164672419Y-97788972D01*
X165672419Y-96408020D02*
X165196228Y-96741353D01*
X165672419Y-96979448D02*
X164672419Y-96979448D01*
X164672419Y-96979448D02*
X164672419Y-96598496D01*
X164672419Y-96598496D02*
X164720038Y-96503258D01*
X164720038Y-96503258D02*
X164767657Y-96455639D01*
X164767657Y-96455639D02*
X164862895Y-96408020D01*
X164862895Y-96408020D02*
X165005752Y-96408020D01*
X165005752Y-96408020D02*
X165100990Y-96455639D01*
X165100990Y-96455639D02*
X165148609Y-96503258D01*
X165148609Y-96503258D02*
X165196228Y-96598496D01*
X165196228Y-96598496D02*
X165196228Y-96979448D01*
X164672419Y-96122305D02*
X164672419Y-95550877D01*
X165672419Y-95836591D02*
X164672419Y-95836591D01*
X172986704Y-97193734D02*
X172986704Y-96717544D01*
X173272419Y-97288972D02*
X172272419Y-96955639D01*
X172272419Y-96955639D02*
X173272419Y-96622306D01*
X172367657Y-96336591D02*
X172320038Y-96288972D01*
X172320038Y-96288972D02*
X172272419Y-96193734D01*
X172272419Y-96193734D02*
X172272419Y-95955639D01*
X172272419Y-95955639D02*
X172320038Y-95860401D01*
X172320038Y-95860401D02*
X172367657Y-95812782D01*
X172367657Y-95812782D02*
X172462895Y-95765163D01*
X172462895Y-95765163D02*
X172558133Y-95765163D01*
X172558133Y-95765163D02*
X172700990Y-95812782D01*
X172700990Y-95812782D02*
X173272419Y-96384210D01*
X173272419Y-96384210D02*
X173272419Y-95765163D01*
D12*
X206804819Y-76392859D02*
X206328628Y-76726192D01*
X206804819Y-76964287D02*
X205804819Y-76964287D01*
X205804819Y-76964287D02*
X205804819Y-76583335D01*
X205804819Y-76583335D02*
X205852438Y-76488097D01*
X205852438Y-76488097D02*
X205900057Y-76440478D01*
X205900057Y-76440478D02*
X205995295Y-76392859D01*
X205995295Y-76392859D02*
X206138152Y-76392859D01*
X206138152Y-76392859D02*
X206233390Y-76440478D01*
X206233390Y-76440478D02*
X206281009Y-76488097D01*
X206281009Y-76488097D02*
X206328628Y-76583335D01*
X206328628Y-76583335D02*
X206328628Y-76964287D01*
X205900057Y-76011906D02*
X205852438Y-75964287D01*
X205852438Y-75964287D02*
X205804819Y-75869049D01*
X205804819Y-75869049D02*
X205804819Y-75630954D01*
X205804819Y-75630954D02*
X205852438Y-75535716D01*
X205852438Y-75535716D02*
X205900057Y-75488097D01*
X205900057Y-75488097D02*
X205995295Y-75440478D01*
X205995295Y-75440478D02*
X206090533Y-75440478D01*
X206090533Y-75440478D02*
X206233390Y-75488097D01*
X206233390Y-75488097D02*
X206804819Y-76059525D01*
X206804819Y-76059525D02*
X206804819Y-75440478D01*
X205804819Y-74535716D02*
X205804819Y-75011906D01*
X205804819Y-75011906D02*
X206281009Y-75059525D01*
X206281009Y-75059525D02*
X206233390Y-75011906D01*
X206233390Y-75011906D02*
X206185771Y-74916668D01*
X206185771Y-74916668D02*
X206185771Y-74678573D01*
X206185771Y-74678573D02*
X206233390Y-74583335D01*
X206233390Y-74583335D02*
X206281009Y-74535716D01*
X206281009Y-74535716D02*
X206376247Y-74488097D01*
X206376247Y-74488097D02*
X206614342Y-74488097D01*
X206614342Y-74488097D02*
X206709580Y-74535716D01*
X206709580Y-74535716D02*
X206757200Y-74583335D01*
X206757200Y-74583335D02*
X206804819Y-74678573D01*
X206804819Y-74678573D02*
X206804819Y-74916668D01*
X206804819Y-74916668D02*
X206757200Y-75011906D01*
X206757200Y-75011906D02*
X206709580Y-75059525D01*
D13*
X157278095Y-118698365D02*
X157217619Y-118758842D01*
X157217619Y-118758842D02*
X157036190Y-118819318D01*
X157036190Y-118819318D02*
X156915238Y-118819318D01*
X156915238Y-118819318D02*
X156733809Y-118758842D01*
X156733809Y-118758842D02*
X156612857Y-118637889D01*
X156612857Y-118637889D02*
X156552380Y-118516937D01*
X156552380Y-118516937D02*
X156491904Y-118275032D01*
X156491904Y-118275032D02*
X156491904Y-118093603D01*
X156491904Y-118093603D02*
X156552380Y-117851699D01*
X156552380Y-117851699D02*
X156612857Y-117730746D01*
X156612857Y-117730746D02*
X156733809Y-117609794D01*
X156733809Y-117609794D02*
X156915238Y-117549318D01*
X156915238Y-117549318D02*
X157036190Y-117549318D01*
X157036190Y-117549318D02*
X157217619Y-117609794D01*
X157217619Y-117609794D02*
X157278095Y-117670270D01*
X157822380Y-117549318D02*
X157822380Y-118577413D01*
X157822380Y-118577413D02*
X157882857Y-118698365D01*
X157882857Y-118698365D02*
X157943333Y-118758842D01*
X157943333Y-118758842D02*
X158064285Y-118819318D01*
X158064285Y-118819318D02*
X158306190Y-118819318D01*
X158306190Y-118819318D02*
X158427142Y-118758842D01*
X158427142Y-118758842D02*
X158487619Y-118698365D01*
X158487619Y-118698365D02*
X158548095Y-118577413D01*
X158548095Y-118577413D02*
X158548095Y-117549318D01*
X159878571Y-118819318D02*
X159455237Y-118214556D01*
X159152856Y-118819318D02*
X159152856Y-117549318D01*
X159152856Y-117549318D02*
X159636666Y-117549318D01*
X159636666Y-117549318D02*
X159757618Y-117609794D01*
X159757618Y-117609794D02*
X159818095Y-117670270D01*
X159818095Y-117670270D02*
X159878571Y-117791222D01*
X159878571Y-117791222D02*
X159878571Y-117972651D01*
X159878571Y-117972651D02*
X159818095Y-118093603D01*
X159818095Y-118093603D02*
X159757618Y-118154080D01*
X159757618Y-118154080D02*
X159636666Y-118214556D01*
X159636666Y-118214556D02*
X159152856Y-118214556D01*
X161088095Y-118819318D02*
X160362380Y-118819318D01*
X160725237Y-118819318D02*
X160725237Y-117549318D01*
X160725237Y-117549318D02*
X160604285Y-117730746D01*
X160604285Y-117730746D02*
X160483333Y-117851699D01*
X160483333Y-117851699D02*
X160362380Y-117912175D01*
D12*
X138954819Y-113583333D02*
X139669104Y-113583333D01*
X139669104Y-113583333D02*
X139811961Y-113630952D01*
X139811961Y-113630952D02*
X139907200Y-113726190D01*
X139907200Y-113726190D02*
X139954819Y-113869047D01*
X139954819Y-113869047D02*
X139954819Y-113964285D01*
X139954819Y-112583333D02*
X139954819Y-113154761D01*
X139954819Y-112869047D02*
X138954819Y-112869047D01*
X138954819Y-112869047D02*
X139097676Y-112964285D01*
X139097676Y-112964285D02*
X139192914Y-113059523D01*
X139192914Y-113059523D02*
X139240533Y-113154761D01*
X138954819Y-111595237D02*
X139764342Y-111595237D01*
X139764342Y-111595237D02*
X139859580Y-111547618D01*
X139859580Y-111547618D02*
X139907200Y-111499999D01*
X139907200Y-111499999D02*
X139954819Y-111404761D01*
X139954819Y-111404761D02*
X139954819Y-111214285D01*
X139954819Y-111214285D02*
X139907200Y-111119047D01*
X139907200Y-111119047D02*
X139859580Y-111071428D01*
X139859580Y-111071428D02*
X139764342Y-111023809D01*
X139764342Y-111023809D02*
X138954819Y-111023809D01*
X139669104Y-110595237D02*
X139669104Y-110119047D01*
X139954819Y-110690475D02*
X138954819Y-110357142D01*
X138954819Y-110357142D02*
X139954819Y-110023809D01*
X139954819Y-109119047D02*
X139478628Y-109452380D01*
X139954819Y-109690475D02*
X138954819Y-109690475D01*
X138954819Y-109690475D02*
X138954819Y-109309523D01*
X138954819Y-109309523D02*
X139002438Y-109214285D01*
X139002438Y-109214285D02*
X139050057Y-109166666D01*
X139050057Y-109166666D02*
X139145295Y-109119047D01*
X139145295Y-109119047D02*
X139288152Y-109119047D01*
X139288152Y-109119047D02*
X139383390Y-109166666D01*
X139383390Y-109166666D02*
X139431009Y-109214285D01*
X139431009Y-109214285D02*
X139478628Y-109309523D01*
X139478628Y-109309523D02*
X139478628Y-109690475D01*
X138954819Y-108833332D02*
X138954819Y-108261904D01*
X139954819Y-108547618D02*
X138954819Y-108547618D01*
X232357142Y-107554819D02*
X232023809Y-107078628D01*
X231785714Y-107554819D02*
X231785714Y-106554819D01*
X231785714Y-106554819D02*
X232166666Y-106554819D01*
X232166666Y-106554819D02*
X232261904Y-106602438D01*
X232261904Y-106602438D02*
X232309523Y-106650057D01*
X232309523Y-106650057D02*
X232357142Y-106745295D01*
X232357142Y-106745295D02*
X232357142Y-106888152D01*
X232357142Y-106888152D02*
X232309523Y-106983390D01*
X232309523Y-106983390D02*
X232261904Y-107031009D01*
X232261904Y-107031009D02*
X232166666Y-107078628D01*
X232166666Y-107078628D02*
X231785714Y-107078628D01*
X233309523Y-107554819D02*
X232738095Y-107554819D01*
X233023809Y-107554819D02*
X233023809Y-106554819D01*
X233023809Y-106554819D02*
X232928571Y-106697676D01*
X232928571Y-106697676D02*
X232833333Y-106792914D01*
X232833333Y-106792914D02*
X232738095Y-106840533D01*
X233880952Y-106983390D02*
X233785714Y-106935771D01*
X233785714Y-106935771D02*
X233738095Y-106888152D01*
X233738095Y-106888152D02*
X233690476Y-106792914D01*
X233690476Y-106792914D02*
X233690476Y-106745295D01*
X233690476Y-106745295D02*
X233738095Y-106650057D01*
X233738095Y-106650057D02*
X233785714Y-106602438D01*
X233785714Y-106602438D02*
X233880952Y-106554819D01*
X233880952Y-106554819D02*
X234071428Y-106554819D01*
X234071428Y-106554819D02*
X234166666Y-106602438D01*
X234166666Y-106602438D02*
X234214285Y-106650057D01*
X234214285Y-106650057D02*
X234261904Y-106745295D01*
X234261904Y-106745295D02*
X234261904Y-106792914D01*
X234261904Y-106792914D02*
X234214285Y-106888152D01*
X234214285Y-106888152D02*
X234166666Y-106935771D01*
X234166666Y-106935771D02*
X234071428Y-106983390D01*
X234071428Y-106983390D02*
X233880952Y-106983390D01*
X233880952Y-106983390D02*
X233785714Y-107031009D01*
X233785714Y-107031009D02*
X233738095Y-107078628D01*
X233738095Y-107078628D02*
X233690476Y-107173866D01*
X233690476Y-107173866D02*
X233690476Y-107364342D01*
X233690476Y-107364342D02*
X233738095Y-107459580D01*
X233738095Y-107459580D02*
X233785714Y-107507200D01*
X233785714Y-107507200D02*
X233880952Y-107554819D01*
X233880952Y-107554819D02*
X234071428Y-107554819D01*
X234071428Y-107554819D02*
X234166666Y-107507200D01*
X234166666Y-107507200D02*
X234214285Y-107459580D01*
X234214285Y-107459580D02*
X234261904Y-107364342D01*
X234261904Y-107364342D02*
X234261904Y-107173866D01*
X234261904Y-107173866D02*
X234214285Y-107078628D01*
X234214285Y-107078628D02*
X234166666Y-107031009D01*
X234166666Y-107031009D02*
X234071428Y-106983390D01*
X192857142Y-102204819D02*
X192523809Y-101728628D01*
X192285714Y-102204819D02*
X192285714Y-101204819D01*
X192285714Y-101204819D02*
X192666666Y-101204819D01*
X192666666Y-101204819D02*
X192761904Y-101252438D01*
X192761904Y-101252438D02*
X192809523Y-101300057D01*
X192809523Y-101300057D02*
X192857142Y-101395295D01*
X192857142Y-101395295D02*
X192857142Y-101538152D01*
X192857142Y-101538152D02*
X192809523Y-101633390D01*
X192809523Y-101633390D02*
X192761904Y-101681009D01*
X192761904Y-101681009D02*
X192666666Y-101728628D01*
X192666666Y-101728628D02*
X192285714Y-101728628D01*
X193238095Y-101300057D02*
X193285714Y-101252438D01*
X193285714Y-101252438D02*
X193380952Y-101204819D01*
X193380952Y-101204819D02*
X193619047Y-101204819D01*
X193619047Y-101204819D02*
X193714285Y-101252438D01*
X193714285Y-101252438D02*
X193761904Y-101300057D01*
X193761904Y-101300057D02*
X193809523Y-101395295D01*
X193809523Y-101395295D02*
X193809523Y-101490533D01*
X193809523Y-101490533D02*
X193761904Y-101633390D01*
X193761904Y-101633390D02*
X193190476Y-102204819D01*
X193190476Y-102204819D02*
X193809523Y-102204819D01*
X194380952Y-101633390D02*
X194285714Y-101585771D01*
X194285714Y-101585771D02*
X194238095Y-101538152D01*
X194238095Y-101538152D02*
X194190476Y-101442914D01*
X194190476Y-101442914D02*
X194190476Y-101395295D01*
X194190476Y-101395295D02*
X194238095Y-101300057D01*
X194238095Y-101300057D02*
X194285714Y-101252438D01*
X194285714Y-101252438D02*
X194380952Y-101204819D01*
X194380952Y-101204819D02*
X194571428Y-101204819D01*
X194571428Y-101204819D02*
X194666666Y-101252438D01*
X194666666Y-101252438D02*
X194714285Y-101300057D01*
X194714285Y-101300057D02*
X194761904Y-101395295D01*
X194761904Y-101395295D02*
X194761904Y-101442914D01*
X194761904Y-101442914D02*
X194714285Y-101538152D01*
X194714285Y-101538152D02*
X194666666Y-101585771D01*
X194666666Y-101585771D02*
X194571428Y-101633390D01*
X194571428Y-101633390D02*
X194380952Y-101633390D01*
X194380952Y-101633390D02*
X194285714Y-101681009D01*
X194285714Y-101681009D02*
X194238095Y-101728628D01*
X194238095Y-101728628D02*
X194190476Y-101823866D01*
X194190476Y-101823866D02*
X194190476Y-102014342D01*
X194190476Y-102014342D02*
X194238095Y-102109580D01*
X194238095Y-102109580D02*
X194285714Y-102157200D01*
X194285714Y-102157200D02*
X194380952Y-102204819D01*
X194380952Y-102204819D02*
X194571428Y-102204819D01*
X194571428Y-102204819D02*
X194666666Y-102157200D01*
X194666666Y-102157200D02*
X194714285Y-102109580D01*
X194714285Y-102109580D02*
X194761904Y-102014342D01*
X194761904Y-102014342D02*
X194761904Y-101823866D01*
X194761904Y-101823866D02*
X194714285Y-101728628D01*
X194714285Y-101728628D02*
X194666666Y-101681009D01*
X194666666Y-101681009D02*
X194571428Y-101633390D01*
X223209167Y-105729700D02*
X223352024Y-105777319D01*
X223352024Y-105777319D02*
X223590119Y-105777319D01*
X223590119Y-105777319D02*
X223685357Y-105729700D01*
X223685357Y-105729700D02*
X223732976Y-105682080D01*
X223732976Y-105682080D02*
X223780595Y-105586842D01*
X223780595Y-105586842D02*
X223780595Y-105491604D01*
X223780595Y-105491604D02*
X223732976Y-105396366D01*
X223732976Y-105396366D02*
X223685357Y-105348747D01*
X223685357Y-105348747D02*
X223590119Y-105301128D01*
X223590119Y-105301128D02*
X223399643Y-105253509D01*
X223399643Y-105253509D02*
X223304405Y-105205890D01*
X223304405Y-105205890D02*
X223256786Y-105158271D01*
X223256786Y-105158271D02*
X223209167Y-105063033D01*
X223209167Y-105063033D02*
X223209167Y-104967795D01*
X223209167Y-104967795D02*
X223256786Y-104872557D01*
X223256786Y-104872557D02*
X223304405Y-104824938D01*
X223304405Y-104824938D02*
X223399643Y-104777319D01*
X223399643Y-104777319D02*
X223637738Y-104777319D01*
X223637738Y-104777319D02*
X223780595Y-104824938D01*
X224113929Y-104777319D02*
X224352024Y-105777319D01*
X224352024Y-105777319D02*
X224542500Y-105063033D01*
X224542500Y-105063033D02*
X224732976Y-105777319D01*
X224732976Y-105777319D02*
X224971072Y-104777319D01*
X225304405Y-104872557D02*
X225352024Y-104824938D01*
X225352024Y-104824938D02*
X225447262Y-104777319D01*
X225447262Y-104777319D02*
X225685357Y-104777319D01*
X225685357Y-104777319D02*
X225780595Y-104824938D01*
X225780595Y-104824938D02*
X225828214Y-104872557D01*
X225828214Y-104872557D02*
X225875833Y-104967795D01*
X225875833Y-104967795D02*
X225875833Y-105063033D01*
X225875833Y-105063033D02*
X225828214Y-105205890D01*
X225828214Y-105205890D02*
X225256786Y-105777319D01*
X225256786Y-105777319D02*
X225875833Y-105777319D01*
D10*
X139988095Y-77457419D02*
X139988095Y-78266942D01*
X139988095Y-78266942D02*
X140035714Y-78362180D01*
X140035714Y-78362180D02*
X140083333Y-78409800D01*
X140083333Y-78409800D02*
X140178571Y-78457419D01*
X140178571Y-78457419D02*
X140369047Y-78457419D01*
X140369047Y-78457419D02*
X140464285Y-78409800D01*
X140464285Y-78409800D02*
X140511904Y-78362180D01*
X140511904Y-78362180D02*
X140559523Y-78266942D01*
X140559523Y-78266942D02*
X140559523Y-77457419D01*
X141464285Y-77790752D02*
X141464285Y-78457419D01*
X141226190Y-77409800D02*
X140988095Y-78124085D01*
X140988095Y-78124085D02*
X141607142Y-78124085D01*
D12*
X135661903Y-76407200D02*
X135804760Y-76454819D01*
X135804760Y-76454819D02*
X136042855Y-76454819D01*
X136042855Y-76454819D02*
X136138093Y-76407200D01*
X136138093Y-76407200D02*
X136185712Y-76359580D01*
X136185712Y-76359580D02*
X136233331Y-76264342D01*
X136233331Y-76264342D02*
X136233331Y-76169104D01*
X136233331Y-76169104D02*
X136185712Y-76073866D01*
X136185712Y-76073866D02*
X136138093Y-76026247D01*
X136138093Y-76026247D02*
X136042855Y-75978628D01*
X136042855Y-75978628D02*
X135852379Y-75931009D01*
X135852379Y-75931009D02*
X135757141Y-75883390D01*
X135757141Y-75883390D02*
X135709522Y-75835771D01*
X135709522Y-75835771D02*
X135661903Y-75740533D01*
X135661903Y-75740533D02*
X135661903Y-75645295D01*
X135661903Y-75645295D02*
X135709522Y-75550057D01*
X135709522Y-75550057D02*
X135757141Y-75502438D01*
X135757141Y-75502438D02*
X135852379Y-75454819D01*
X135852379Y-75454819D02*
X136090474Y-75454819D01*
X136090474Y-75454819D02*
X136233331Y-75502438D01*
X136519046Y-75788152D02*
X136899998Y-75788152D01*
X136661903Y-75454819D02*
X136661903Y-76311961D01*
X136661903Y-76311961D02*
X136709522Y-76407200D01*
X136709522Y-76407200D02*
X136804760Y-76454819D01*
X136804760Y-76454819D02*
X136899998Y-76454819D01*
X137614284Y-76407200D02*
X137519046Y-76454819D01*
X137519046Y-76454819D02*
X137328570Y-76454819D01*
X137328570Y-76454819D02*
X137233332Y-76407200D01*
X137233332Y-76407200D02*
X137185713Y-76311961D01*
X137185713Y-76311961D02*
X137185713Y-75931009D01*
X137185713Y-75931009D02*
X137233332Y-75835771D01*
X137233332Y-75835771D02*
X137328570Y-75788152D01*
X137328570Y-75788152D02*
X137519046Y-75788152D01*
X137519046Y-75788152D02*
X137614284Y-75835771D01*
X137614284Y-75835771D02*
X137661903Y-75931009D01*
X137661903Y-75931009D02*
X137661903Y-76026247D01*
X137661903Y-76026247D02*
X137185713Y-76121485D01*
X138090475Y-75788152D02*
X138090475Y-76788152D01*
X138090475Y-75835771D02*
X138185713Y-75788152D01*
X138185713Y-75788152D02*
X138376189Y-75788152D01*
X138376189Y-75788152D02*
X138471427Y-75835771D01*
X138471427Y-75835771D02*
X138519046Y-75883390D01*
X138519046Y-75883390D02*
X138566665Y-75978628D01*
X138566665Y-75978628D02*
X138566665Y-76264342D01*
X138566665Y-76264342D02*
X138519046Y-76359580D01*
X138519046Y-76359580D02*
X138471427Y-76407200D01*
X138471427Y-76407200D02*
X138376189Y-76454819D01*
X138376189Y-76454819D02*
X138185713Y-76454819D01*
X138185713Y-76454819D02*
X138090475Y-76407200D01*
X138995237Y-76073866D02*
X139757142Y-76073866D01*
X140661903Y-76454819D02*
X140661903Y-75454819D01*
X140661903Y-76407200D02*
X140566665Y-76454819D01*
X140566665Y-76454819D02*
X140376189Y-76454819D01*
X140376189Y-76454819D02*
X140280951Y-76407200D01*
X140280951Y-76407200D02*
X140233332Y-76359580D01*
X140233332Y-76359580D02*
X140185713Y-76264342D01*
X140185713Y-76264342D02*
X140185713Y-75978628D01*
X140185713Y-75978628D02*
X140233332Y-75883390D01*
X140233332Y-75883390D02*
X140280951Y-75835771D01*
X140280951Y-75835771D02*
X140376189Y-75788152D01*
X140376189Y-75788152D02*
X140566665Y-75788152D01*
X140566665Y-75788152D02*
X140661903Y-75835771D01*
X141280951Y-76454819D02*
X141185713Y-76407200D01*
X141185713Y-76407200D02*
X141138094Y-76359580D01*
X141138094Y-76359580D02*
X141090475Y-76264342D01*
X141090475Y-76264342D02*
X141090475Y-75978628D01*
X141090475Y-75978628D02*
X141138094Y-75883390D01*
X141138094Y-75883390D02*
X141185713Y-75835771D01*
X141185713Y-75835771D02*
X141280951Y-75788152D01*
X141280951Y-75788152D02*
X141423808Y-75788152D01*
X141423808Y-75788152D02*
X141519046Y-75835771D01*
X141519046Y-75835771D02*
X141566665Y-75883390D01*
X141566665Y-75883390D02*
X141614284Y-75978628D01*
X141614284Y-75978628D02*
X141614284Y-76264342D01*
X141614284Y-76264342D02*
X141566665Y-76359580D01*
X141566665Y-76359580D02*
X141519046Y-76407200D01*
X141519046Y-76407200D02*
X141423808Y-76454819D01*
X141423808Y-76454819D02*
X141280951Y-76454819D01*
X141947618Y-75788152D02*
X142138094Y-76454819D01*
X142138094Y-76454819D02*
X142328570Y-75978628D01*
X142328570Y-75978628D02*
X142519046Y-76454819D01*
X142519046Y-76454819D02*
X142709522Y-75788152D01*
X143090475Y-75788152D02*
X143090475Y-76454819D01*
X143090475Y-75883390D02*
X143138094Y-75835771D01*
X143138094Y-75835771D02*
X143233332Y-75788152D01*
X143233332Y-75788152D02*
X143376189Y-75788152D01*
X143376189Y-75788152D02*
X143471427Y-75835771D01*
X143471427Y-75835771D02*
X143519046Y-75931009D01*
X143519046Y-75931009D02*
X143519046Y-76454819D01*
X145233332Y-75454819D02*
X144757142Y-75454819D01*
X144757142Y-75454819D02*
X144709523Y-75931009D01*
X144709523Y-75931009D02*
X144757142Y-75883390D01*
X144757142Y-75883390D02*
X144852380Y-75835771D01*
X144852380Y-75835771D02*
X145090475Y-75835771D01*
X145090475Y-75835771D02*
X145185713Y-75883390D01*
X145185713Y-75883390D02*
X145233332Y-75931009D01*
X145233332Y-75931009D02*
X145280951Y-76026247D01*
X145280951Y-76026247D02*
X145280951Y-76264342D01*
X145280951Y-76264342D02*
X145233332Y-76359580D01*
X145233332Y-76359580D02*
X145185713Y-76407200D01*
X145185713Y-76407200D02*
X145090475Y-76454819D01*
X145090475Y-76454819D02*
X144852380Y-76454819D01*
X144852380Y-76454819D02*
X144757142Y-76407200D01*
X144757142Y-76407200D02*
X144709523Y-76359580D01*
X145566666Y-75454819D02*
X145899999Y-76454819D01*
X145899999Y-76454819D02*
X146233332Y-75454819D01*
D10*
X137396114Y-77377579D02*
X137396114Y-78377579D01*
X136919924Y-77377579D02*
X136919924Y-78377579D01*
X136919924Y-78377579D02*
X136348496Y-77377579D01*
X136348496Y-77377579D02*
X136348496Y-78377579D01*
X135872305Y-77758532D02*
X135110401Y-77758532D01*
X135491353Y-77377579D02*
X135491353Y-78139484D01*
X146196115Y-77377580D02*
X146196115Y-78377580D01*
X145719925Y-77377580D02*
X145719925Y-78377580D01*
X145719925Y-78377580D02*
X145148497Y-77377580D01*
X145148497Y-77377580D02*
X145148497Y-78377580D01*
X144672306Y-77758533D02*
X143910402Y-77758533D01*
D12*
X203304819Y-76392859D02*
X202828628Y-76726192D01*
X203304819Y-76964287D02*
X202304819Y-76964287D01*
X202304819Y-76964287D02*
X202304819Y-76583335D01*
X202304819Y-76583335D02*
X202352438Y-76488097D01*
X202352438Y-76488097D02*
X202400057Y-76440478D01*
X202400057Y-76440478D02*
X202495295Y-76392859D01*
X202495295Y-76392859D02*
X202638152Y-76392859D01*
X202638152Y-76392859D02*
X202733390Y-76440478D01*
X202733390Y-76440478D02*
X202781009Y-76488097D01*
X202781009Y-76488097D02*
X202828628Y-76583335D01*
X202828628Y-76583335D02*
X202828628Y-76964287D01*
X202400057Y-76011906D02*
X202352438Y-75964287D01*
X202352438Y-75964287D02*
X202304819Y-75869049D01*
X202304819Y-75869049D02*
X202304819Y-75630954D01*
X202304819Y-75630954D02*
X202352438Y-75535716D01*
X202352438Y-75535716D02*
X202400057Y-75488097D01*
X202400057Y-75488097D02*
X202495295Y-75440478D01*
X202495295Y-75440478D02*
X202590533Y-75440478D01*
X202590533Y-75440478D02*
X202733390Y-75488097D01*
X202733390Y-75488097D02*
X203304819Y-76059525D01*
X203304819Y-76059525D02*
X203304819Y-75440478D01*
X202304819Y-74583335D02*
X202304819Y-74773811D01*
X202304819Y-74773811D02*
X202352438Y-74869049D01*
X202352438Y-74869049D02*
X202400057Y-74916668D01*
X202400057Y-74916668D02*
X202542914Y-75011906D01*
X202542914Y-75011906D02*
X202733390Y-75059525D01*
X202733390Y-75059525D02*
X203114342Y-75059525D01*
X203114342Y-75059525D02*
X203209580Y-75011906D01*
X203209580Y-75011906D02*
X203257200Y-74964287D01*
X203257200Y-74964287D02*
X203304819Y-74869049D01*
X203304819Y-74869049D02*
X203304819Y-74678573D01*
X203304819Y-74678573D02*
X203257200Y-74583335D01*
X203257200Y-74583335D02*
X203209580Y-74535716D01*
X203209580Y-74535716D02*
X203114342Y-74488097D01*
X203114342Y-74488097D02*
X202876247Y-74488097D01*
X202876247Y-74488097D02*
X202781009Y-74535716D01*
X202781009Y-74535716D02*
X202733390Y-74583335D01*
X202733390Y-74583335D02*
X202685771Y-74678573D01*
X202685771Y-74678573D02*
X202685771Y-74869049D01*
X202685771Y-74869049D02*
X202733390Y-74964287D01*
X202733390Y-74964287D02*
X202781009Y-75011906D01*
X202781009Y-75011906D02*
X202876247Y-75059525D01*
X161704819Y-102142857D02*
X161228628Y-102476190D01*
X161704819Y-102714285D02*
X160704819Y-102714285D01*
X160704819Y-102714285D02*
X160704819Y-102333333D01*
X160704819Y-102333333D02*
X160752438Y-102238095D01*
X160752438Y-102238095D02*
X160800057Y-102190476D01*
X160800057Y-102190476D02*
X160895295Y-102142857D01*
X160895295Y-102142857D02*
X161038152Y-102142857D01*
X161038152Y-102142857D02*
X161133390Y-102190476D01*
X161133390Y-102190476D02*
X161181009Y-102238095D01*
X161181009Y-102238095D02*
X161228628Y-102333333D01*
X161228628Y-102333333D02*
X161228628Y-102714285D01*
X160704819Y-101809523D02*
X160704819Y-101190476D01*
X160704819Y-101190476D02*
X161085771Y-101523809D01*
X161085771Y-101523809D02*
X161085771Y-101380952D01*
X161085771Y-101380952D02*
X161133390Y-101285714D01*
X161133390Y-101285714D02*
X161181009Y-101238095D01*
X161181009Y-101238095D02*
X161276247Y-101190476D01*
X161276247Y-101190476D02*
X161514342Y-101190476D01*
X161514342Y-101190476D02*
X161609580Y-101238095D01*
X161609580Y-101238095D02*
X161657200Y-101285714D01*
X161657200Y-101285714D02*
X161704819Y-101380952D01*
X161704819Y-101380952D02*
X161704819Y-101666666D01*
X161704819Y-101666666D02*
X161657200Y-101761904D01*
X161657200Y-101761904D02*
X161609580Y-101809523D01*
X160704819Y-100857142D02*
X160704819Y-100190476D01*
X160704819Y-100190476D02*
X161704819Y-100619047D01*
D13*
X185004285Y-118513842D02*
X185185714Y-118574318D01*
X185185714Y-118574318D02*
X185488095Y-118574318D01*
X185488095Y-118574318D02*
X185609047Y-118513842D01*
X185609047Y-118513842D02*
X185669523Y-118453365D01*
X185669523Y-118453365D02*
X185730000Y-118332413D01*
X185730000Y-118332413D02*
X185730000Y-118211461D01*
X185730000Y-118211461D02*
X185669523Y-118090508D01*
X185669523Y-118090508D02*
X185609047Y-118030032D01*
X185609047Y-118030032D02*
X185488095Y-117969556D01*
X185488095Y-117969556D02*
X185246190Y-117909080D01*
X185246190Y-117909080D02*
X185125238Y-117848603D01*
X185125238Y-117848603D02*
X185064761Y-117788127D01*
X185064761Y-117788127D02*
X185004285Y-117667175D01*
X185004285Y-117667175D02*
X185004285Y-117546222D01*
X185004285Y-117546222D02*
X185064761Y-117425270D01*
X185064761Y-117425270D02*
X185125238Y-117364794D01*
X185125238Y-117364794D02*
X185246190Y-117304318D01*
X185246190Y-117304318D02*
X185548571Y-117304318D01*
X185548571Y-117304318D02*
X185730000Y-117364794D01*
X186274285Y-118574318D02*
X186274285Y-117304318D01*
X186274285Y-117304318D02*
X186758095Y-117304318D01*
X186758095Y-117304318D02*
X186879047Y-117364794D01*
X186879047Y-117364794D02*
X186939524Y-117425270D01*
X186939524Y-117425270D02*
X187000000Y-117546222D01*
X187000000Y-117546222D02*
X187000000Y-117727651D01*
X187000000Y-117727651D02*
X186939524Y-117848603D01*
X186939524Y-117848603D02*
X186879047Y-117909080D01*
X186879047Y-117909080D02*
X186758095Y-117969556D01*
X186758095Y-117969556D02*
X186274285Y-117969556D01*
X187544285Y-118574318D02*
X187544285Y-117304318D01*
X187544285Y-117304318D02*
X187846666Y-117304318D01*
X187846666Y-117304318D02*
X188028095Y-117364794D01*
X188028095Y-117364794D02*
X188149047Y-117485746D01*
X188149047Y-117485746D02*
X188209524Y-117606699D01*
X188209524Y-117606699D02*
X188270000Y-117848603D01*
X188270000Y-117848603D02*
X188270000Y-118030032D01*
X188270000Y-118030032D02*
X188209524Y-118271937D01*
X188209524Y-118271937D02*
X188149047Y-118392889D01*
X188149047Y-118392889D02*
X188028095Y-118513842D01*
X188028095Y-118513842D02*
X187846666Y-118574318D01*
X187846666Y-118574318D02*
X187544285Y-118574318D01*
X189721428Y-117243842D02*
X188632857Y-118876699D01*
X189963333Y-117304318D02*
X190689047Y-117304318D01*
X190326190Y-118574318D02*
X190326190Y-117304318D01*
X191354285Y-117304318D02*
X191596190Y-117304318D01*
X191596190Y-117304318D02*
X191717142Y-117364794D01*
X191717142Y-117364794D02*
X191838095Y-117485746D01*
X191838095Y-117485746D02*
X191898571Y-117727651D01*
X191898571Y-117727651D02*
X191898571Y-118150984D01*
X191898571Y-118150984D02*
X191838095Y-118392889D01*
X191838095Y-118392889D02*
X191717142Y-118513842D01*
X191717142Y-118513842D02*
X191596190Y-118574318D01*
X191596190Y-118574318D02*
X191354285Y-118574318D01*
X191354285Y-118574318D02*
X191233333Y-118513842D01*
X191233333Y-118513842D02*
X191112380Y-118392889D01*
X191112380Y-118392889D02*
X191051904Y-118150984D01*
X191051904Y-118150984D02*
X191051904Y-117727651D01*
X191051904Y-117727651D02*
X191112380Y-117485746D01*
X191112380Y-117485746D02*
X191233333Y-117364794D01*
X191233333Y-117364794D02*
X191354285Y-117304318D01*
X192261428Y-117304318D02*
X192987142Y-117304318D01*
X192624285Y-118574318D02*
X192624285Y-117304318D01*
X194075714Y-118574318D02*
X193349999Y-118574318D01*
X193712856Y-118574318D02*
X193712856Y-117304318D01*
X193712856Y-117304318D02*
X193591904Y-117485746D01*
X193591904Y-117485746D02*
X193470952Y-117606699D01*
X193470952Y-117606699D02*
X193349999Y-117667175D01*
D12*
X191204819Y-112642857D02*
X190728628Y-112976190D01*
X191204819Y-113214285D02*
X190204819Y-113214285D01*
X190204819Y-113214285D02*
X190204819Y-112833333D01*
X190204819Y-112833333D02*
X190252438Y-112738095D01*
X190252438Y-112738095D02*
X190300057Y-112690476D01*
X190300057Y-112690476D02*
X190395295Y-112642857D01*
X190395295Y-112642857D02*
X190538152Y-112642857D01*
X190538152Y-112642857D02*
X190633390Y-112690476D01*
X190633390Y-112690476D02*
X190681009Y-112738095D01*
X190681009Y-112738095D02*
X190728628Y-112833333D01*
X190728628Y-112833333D02*
X190728628Y-113214285D01*
X191204819Y-111690476D02*
X191204819Y-112261904D01*
X191204819Y-111976190D02*
X190204819Y-111976190D01*
X190204819Y-111976190D02*
X190347676Y-112071428D01*
X190347676Y-112071428D02*
X190442914Y-112166666D01*
X190442914Y-112166666D02*
X190490533Y-112261904D01*
X190300057Y-111309523D02*
X190252438Y-111261904D01*
X190252438Y-111261904D02*
X190204819Y-111166666D01*
X190204819Y-111166666D02*
X190204819Y-110928571D01*
X190204819Y-110928571D02*
X190252438Y-110833333D01*
X190252438Y-110833333D02*
X190300057Y-110785714D01*
X190300057Y-110785714D02*
X190395295Y-110738095D01*
X190395295Y-110738095D02*
X190490533Y-110738095D01*
X190490533Y-110738095D02*
X190633390Y-110785714D01*
X190633390Y-110785714D02*
X191204819Y-111357142D01*
X191204819Y-111357142D02*
X191204819Y-110738095D01*
X183204819Y-86642857D02*
X182728628Y-86976190D01*
X183204819Y-87214285D02*
X182204819Y-87214285D01*
X182204819Y-87214285D02*
X182204819Y-86833333D01*
X182204819Y-86833333D02*
X182252438Y-86738095D01*
X182252438Y-86738095D02*
X182300057Y-86690476D01*
X182300057Y-86690476D02*
X182395295Y-86642857D01*
X182395295Y-86642857D02*
X182538152Y-86642857D01*
X182538152Y-86642857D02*
X182633390Y-86690476D01*
X182633390Y-86690476D02*
X182681009Y-86738095D01*
X182681009Y-86738095D02*
X182728628Y-86833333D01*
X182728628Y-86833333D02*
X182728628Y-87214285D01*
X182300057Y-86261904D02*
X182252438Y-86214285D01*
X182252438Y-86214285D02*
X182204819Y-86119047D01*
X182204819Y-86119047D02*
X182204819Y-85880952D01*
X182204819Y-85880952D02*
X182252438Y-85785714D01*
X182252438Y-85785714D02*
X182300057Y-85738095D01*
X182300057Y-85738095D02*
X182395295Y-85690476D01*
X182395295Y-85690476D02*
X182490533Y-85690476D01*
X182490533Y-85690476D02*
X182633390Y-85738095D01*
X182633390Y-85738095D02*
X183204819Y-86309523D01*
X183204819Y-86309523D02*
X183204819Y-85690476D01*
X183204819Y-84738095D02*
X183204819Y-85309523D01*
X183204819Y-85023809D02*
X182204819Y-85023809D01*
X182204819Y-85023809D02*
X182347676Y-85119047D01*
X182347676Y-85119047D02*
X182442914Y-85214285D01*
X182442914Y-85214285D02*
X182490533Y-85309523D01*
X134261905Y-97454819D02*
X134261905Y-96454819D01*
X134261905Y-96454819D02*
X134500000Y-96454819D01*
X134500000Y-96454819D02*
X134642857Y-96502438D01*
X134642857Y-96502438D02*
X134738095Y-96597676D01*
X134738095Y-96597676D02*
X134785714Y-96692914D01*
X134785714Y-96692914D02*
X134833333Y-96883390D01*
X134833333Y-96883390D02*
X134833333Y-97026247D01*
X134833333Y-97026247D02*
X134785714Y-97216723D01*
X134785714Y-97216723D02*
X134738095Y-97311961D01*
X134738095Y-97311961D02*
X134642857Y-97407200D01*
X134642857Y-97407200D02*
X134500000Y-97454819D01*
X134500000Y-97454819D02*
X134261905Y-97454819D01*
X135785714Y-97454819D02*
X135214286Y-97454819D01*
X135500000Y-97454819D02*
X135500000Y-96454819D01*
X135500000Y-96454819D02*
X135404762Y-96597676D01*
X135404762Y-96597676D02*
X135309524Y-96692914D01*
X135309524Y-96692914D02*
X135214286Y-96740533D01*
D13*
X226569047Y-117304318D02*
X227355238Y-117304318D01*
X227355238Y-117304318D02*
X226931904Y-117788127D01*
X226931904Y-117788127D02*
X227113333Y-117788127D01*
X227113333Y-117788127D02*
X227234285Y-117848603D01*
X227234285Y-117848603D02*
X227294761Y-117909080D01*
X227294761Y-117909080D02*
X227355238Y-118030032D01*
X227355238Y-118030032D02*
X227355238Y-118332413D01*
X227355238Y-118332413D02*
X227294761Y-118453365D01*
X227294761Y-118453365D02*
X227234285Y-118513842D01*
X227234285Y-118513842D02*
X227113333Y-118574318D01*
X227113333Y-118574318D02*
X226750476Y-118574318D01*
X226750476Y-118574318D02*
X226629523Y-118513842D01*
X226629523Y-118513842D02*
X226569047Y-118453365D01*
X227718095Y-117304318D02*
X228141428Y-118574318D01*
X228141428Y-118574318D02*
X228564762Y-117304318D01*
X228867142Y-117304318D02*
X229653333Y-117304318D01*
X229653333Y-117304318D02*
X229229999Y-117788127D01*
X229229999Y-117788127D02*
X229411428Y-117788127D01*
X229411428Y-117788127D02*
X229532380Y-117848603D01*
X229532380Y-117848603D02*
X229592856Y-117909080D01*
X229592856Y-117909080D02*
X229653333Y-118030032D01*
X229653333Y-118030032D02*
X229653333Y-118332413D01*
X229653333Y-118332413D02*
X229592856Y-118453365D01*
X229592856Y-118453365D02*
X229532380Y-118513842D01*
X229532380Y-118513842D02*
X229411428Y-118574318D01*
X229411428Y-118574318D02*
X229048571Y-118574318D01*
X229048571Y-118574318D02*
X228927618Y-118513842D01*
X228927618Y-118513842D02*
X228867142Y-118453365D01*
X231104761Y-117243842D02*
X230016190Y-118876699D01*
X231346666Y-117304318D02*
X232072380Y-117304318D01*
X231709523Y-118574318D02*
X231709523Y-117304318D01*
X232435237Y-118513842D02*
X232616666Y-118574318D01*
X232616666Y-118574318D02*
X232919047Y-118574318D01*
X232919047Y-118574318D02*
X233039999Y-118513842D01*
X233039999Y-118513842D02*
X233100475Y-118453365D01*
X233100475Y-118453365D02*
X233160952Y-118332413D01*
X233160952Y-118332413D02*
X233160952Y-118211461D01*
X233160952Y-118211461D02*
X233100475Y-118090508D01*
X233100475Y-118090508D02*
X233039999Y-118030032D01*
X233039999Y-118030032D02*
X232919047Y-117969556D01*
X232919047Y-117969556D02*
X232677142Y-117909080D01*
X232677142Y-117909080D02*
X232556190Y-117848603D01*
X232556190Y-117848603D02*
X232495713Y-117788127D01*
X232495713Y-117788127D02*
X232435237Y-117667175D01*
X232435237Y-117667175D02*
X232435237Y-117546222D01*
X232435237Y-117546222D02*
X232495713Y-117425270D01*
X232495713Y-117425270D02*
X232556190Y-117364794D01*
X232556190Y-117364794D02*
X232677142Y-117304318D01*
X232677142Y-117304318D02*
X232979523Y-117304318D01*
X232979523Y-117304318D02*
X233160952Y-117364794D01*
X234370476Y-118574318D02*
X233644761Y-118574318D01*
X234007618Y-118574318D02*
X234007618Y-117304318D01*
X234007618Y-117304318D02*
X233886666Y-117485746D01*
X233886666Y-117485746D02*
X233765714Y-117606699D01*
X233765714Y-117606699D02*
X233644761Y-117667175D01*
X197854762Y-117549318D02*
X198580476Y-117549318D01*
X198217619Y-118819318D02*
X198217619Y-117549318D01*
X199003809Y-118819318D02*
X199003809Y-117549318D01*
X199608571Y-118819318D02*
X199608571Y-117549318D01*
X199608571Y-117549318D02*
X200334286Y-118819318D01*
X200334286Y-118819318D02*
X200334286Y-117549318D01*
X201604286Y-118819318D02*
X200878571Y-118819318D01*
X201241428Y-118819318D02*
X201241428Y-117549318D01*
X201241428Y-117549318D02*
X201120476Y-117730746D01*
X201120476Y-117730746D02*
X200999524Y-117851699D01*
X200999524Y-117851699D02*
X200878571Y-117912175D01*
D14*
%TO.C,R22*%
X183765001Y-91272936D02*
X183765000Y-91727065D01*
X185235000Y-91272935D02*
X185234999Y-91727064D01*
%TO.C,R35*%
X205765001Y-98272936D02*
X205765000Y-98727065D01*
X207235000Y-98272935D02*
X207234999Y-98727064D01*
D15*
%TO.C,SW3*%
X112260000Y-120110000D02*
X117820000Y-120110000D01*
X112260000Y-126380000D02*
X112260000Y-120110000D01*
X117820000Y-120110000D02*
X117820000Y-126380000D01*
X117820000Y-126380000D02*
X112260000Y-126380000D01*
D14*
%TO.C,J2*%
X219259999Y-103502504D02*
X219260001Y-96762504D01*
X233300000Y-96762503D02*
X219260001Y-96762504D01*
X235239996Y-97682503D02*
X219259998Y-97682502D01*
X235239997Y-98682503D02*
X219259997Y-98682504D01*
X235239997Y-103502505D02*
X219259999Y-103502504D01*
X235239997Y-103502505D02*
X235239999Y-96762504D01*
X235239999Y-96762504D02*
X233899997Y-96762505D01*
X235240001Y-101782507D02*
X219259999Y-101782504D01*
X233599999Y-96762504D02*
X233159999Y-96152504D01*
X234039992Y-96152497D01*
X233599999Y-96762504D01*
G36*
X233599999Y-96762504D02*
G01*
X233159999Y-96152504D01*
X234039992Y-96152497D01*
X233599999Y-96762504D01*
G37*
%TO.C,R36*%
X215015001Y-75772936D02*
X215015000Y-76227065D01*
X216485000Y-75772935D02*
X216484999Y-76227064D01*
%TO.C,R23*%
X210765001Y-75772936D02*
X210765000Y-76227065D01*
X212235000Y-75772935D02*
X212234999Y-76227064D01*
%TO.C,R30*%
X210477065Y-102265001D02*
X210022935Y-102265001D01*
X210477065Y-103734999D02*
X210022935Y-103734999D01*
D10*
%TO.C,U3*%
X114700000Y-78200000D02*
X131200000Y-78200000D01*
X114700000Y-103700000D02*
X114700000Y-78200000D01*
X131200000Y-78200000D02*
X131200000Y-103700000D01*
X131200000Y-103700000D02*
X114700000Y-103700000D01*
X114700000Y-78200000D02*
X131200000Y-78200000D01*
X131200000Y-103700000D01*
X114700000Y-103700000D01*
X114700000Y-78200000D01*
D14*
%TO.C,R5*%
X210765001Y-98272936D02*
X210765000Y-98727065D01*
X212235000Y-98272935D02*
X212234999Y-98727064D01*
%TO.C,R29*%
X210022936Y-105265000D02*
X210477064Y-105265000D01*
X210022936Y-106735000D02*
X210477064Y-106735000D01*
%TO.C,R10*%
X200515001Y-103977064D02*
X200515000Y-103522935D01*
X201985000Y-103977065D02*
X201984999Y-103522936D01*
%TO.C,R40*%
X174515001Y-101727064D02*
X174515000Y-101272935D01*
X175985000Y-101727065D02*
X175984999Y-101272936D01*
%TO.C,R6*%
X213265001Y-98272936D02*
X213265000Y-98727065D01*
X214735000Y-98272935D02*
X214734999Y-98727064D01*
%TO.C,SW1*%
X118297500Y-107092500D02*
X118297500Y-116992500D01*
X121352499Y-111365836D02*
X120082500Y-111365833D01*
X123892500Y-111365833D02*
X122622501Y-111365833D01*
X125677497Y-116992502D02*
X118297500Y-116992500D01*
X125677502Y-107092497D02*
X118297500Y-107092500D01*
X125677502Y-107092497D02*
X125677497Y-116992502D01*
X125917500Y-106852500D02*
X124534502Y-106852501D01*
X125917500Y-106852500D02*
X125917501Y-108235499D01*
X121352499Y-110012504D02*
X121352499Y-111365836D01*
X120082500Y-111365833D01*
X120082503Y-110012501D01*
X121352499Y-110012504D01*
G36*
X121352499Y-110012504D02*
G01*
X121352499Y-111365836D01*
X120082500Y-111365833D01*
X120082503Y-110012501D01*
X121352499Y-110012504D01*
G37*
X121352499Y-110012504D02*
X121352500Y-114072498D01*
X120082503Y-114072498D01*
X120082503Y-110012501D01*
X121352499Y-110012504D01*
X123892500Y-111365833D02*
X122622501Y-111365833D01*
X122622500Y-110012500D01*
X123892500Y-110012500D01*
X123892500Y-111365833D01*
G36*
X123892500Y-111365833D02*
G01*
X122622501Y-111365833D01*
X122622500Y-110012500D01*
X123892500Y-110012500D01*
X123892500Y-111365833D01*
G37*
X123892500Y-114072500D02*
X122622501Y-114072499D01*
X122622500Y-110012500D01*
X123892500Y-110012500D01*
X123892500Y-114072500D01*
D10*
%TO.C,PAS1*%
X205500000Y-123250000D02*
X205500000Y-123250000D01*
X205600000Y-123250000D02*
X205600000Y-123250000D01*
D15*
X205990000Y-120110000D02*
X214090000Y-120110000D01*
X205990000Y-126380000D02*
X205990000Y-120110000D01*
X214090000Y-120110000D02*
X214090000Y-126380000D01*
X214090000Y-126380000D02*
X205990000Y-126380000D01*
D10*
X205500000Y-123250000D02*
G75*
G02*
X205600000Y-123250000I50000J0D01*
G01*
X205600000Y-123250000D02*
G75*
G02*
X205500000Y-123250000I-50000J0D01*
G01*
D14*
%TO.C,A1*%
X187260002Y-78220001D02*
X187260011Y-96260004D01*
X187260011Y-96260004D02*
X189930001Y-96260001D01*
X189930002Y-80890001D02*
X189930001Y-78220001D01*
X189930002Y-80890001D02*
X228030002Y-80890001D01*
X189930002Y-93590001D02*
X189930001Y-96260001D01*
X192470002Y-93590001D02*
X189930002Y-93590001D01*
X192470002Y-93590001D02*
X192470003Y-96260000D01*
X192470002Y-93590001D02*
X228030001Y-93590006D01*
X192470003Y-96260000D02*
X230700003Y-96260003D01*
X222820002Y-83300001D02*
X233240000Y-83300002D01*
X222820004Y-91180003D02*
X222820002Y-83300001D01*
X228030001Y-93590006D02*
X228030002Y-96260001D01*
X228030002Y-80890001D02*
X228030004Y-78219999D01*
X230700003Y-78220000D02*
X187260002Y-78220001D01*
X230700003Y-78220000D02*
X230700007Y-83300001D01*
X230700003Y-96260003D02*
X230700004Y-91180002D01*
X233240000Y-83300002D02*
X233240002Y-91180001D01*
X233240002Y-91180001D02*
X222820004Y-91180003D01*
%TO.C,R17*%
X233227068Y-110964995D02*
X232772938Y-110964995D01*
X233227068Y-112434993D02*
X232772938Y-112434993D01*
D15*
%TO.C,5V1*%
X126760000Y-120110000D02*
X132320000Y-120110000D01*
X126760000Y-126380000D02*
X126760000Y-120110000D01*
X132320000Y-120110000D02*
X132320000Y-126380000D01*
X132320000Y-126380000D02*
X126760000Y-126380000D01*
D14*
%TO.C,R13*%
X166272936Y-110765000D02*
X166727064Y-110765000D01*
X166272936Y-112235000D02*
X166727064Y-112235000D01*
%TO.C,R24*%
X193727065Y-99265001D02*
X193272935Y-99265001D01*
X193727065Y-100734999D02*
X193272935Y-100734999D01*
%TO.C,R19*%
X156015001Y-110772936D02*
X156015000Y-111227065D01*
X157485000Y-110772935D02*
X157484999Y-111227064D01*
%TO.C,R9*%
X200515001Y-99022936D02*
X200515000Y-99477065D01*
X201985000Y-99022935D02*
X201984999Y-99477064D01*
D10*
%TO.C,SCR1*%
X164540000Y-123245000D02*
X164540000Y-123245000D01*
X164640000Y-123245000D02*
X164640000Y-123245000D01*
D15*
X165030000Y-120105000D02*
X173130000Y-120105000D01*
X165030000Y-126375000D02*
X165030000Y-120105000D01*
X173130000Y-120105000D02*
X173130000Y-126375000D01*
X173130000Y-126375000D02*
X165030000Y-126375000D01*
D10*
X164540000Y-123245000D02*
G75*
G02*
X164640000Y-123245000I50000J0D01*
G01*
X164640000Y-123245000D02*
G75*
G02*
X164540000Y-123245000I-50000J0D01*
G01*
%TO.C,J6*%
X211700000Y-115200000D02*
G75*
G02*
X208300000Y-115200000I-1700000J0D01*
G01*
X208300000Y-115200000D02*
G75*
G02*
X211700000Y-115200000I1700000J0D01*
G01*
D14*
%TO.C,R11*%
X186765001Y-111772936D02*
X186765000Y-112227065D01*
X188235000Y-111772935D02*
X188234999Y-112227064D01*
D10*
%TO.C,J5*%
X220450000Y-76450000D02*
G75*
G02*
X217050000Y-76450000I-1700000J0D01*
G01*
X217050000Y-76450000D02*
G75*
G02*
X220450000Y-76450000I1700000J0D01*
G01*
%TO.C,SCR2*%
X174750000Y-123250000D02*
X174750000Y-123250000D01*
X174850000Y-123250000D02*
X174850000Y-123250000D01*
D15*
X175240000Y-120110000D02*
X183340000Y-120110000D01*
X175240000Y-126380000D02*
X175240000Y-120110000D01*
X183340000Y-120110000D02*
X183340000Y-126380000D01*
X183340000Y-126380000D02*
X175240000Y-126380000D01*
D10*
X174750000Y-123250000D02*
G75*
G02*
X174850000Y-123250000I50000J0D01*
G01*
X174850000Y-123250000D02*
G75*
G02*
X174750000Y-123250000I-50000J0D01*
G01*
D14*
%TO.C,R15*%
X165515001Y-106772936D02*
X165515000Y-107227065D01*
X166985000Y-106772935D02*
X166984999Y-107227064D01*
D10*
%TO.C,J4*%
X207950000Y-104450000D02*
G75*
G02*
X204550000Y-104450000I-1700000J0D01*
G01*
X204550000Y-104450000D02*
G75*
G02*
X207950000Y-104450000I1700000J0D01*
G01*
D14*
%TO.C,R16*%
X217477065Y-108015001D02*
X217022935Y-108015001D01*
X217477065Y-109484999D02*
X217022935Y-109484999D01*
%TO.C,R27*%
X181015001Y-96477064D02*
X181015000Y-96022935D01*
X182485000Y-96477065D02*
X182484999Y-96022936D01*
%TO.C,R41*%
X170515001Y-101727064D02*
X170515000Y-101272935D01*
X171985000Y-101727065D02*
X171984999Y-101272936D01*
D10*
%TO.C,BRK/TMP1*%
X215750000Y-123250000D02*
X215750000Y-123250000D01*
X215850000Y-123250000D02*
X215850000Y-123250000D01*
D15*
X216240000Y-120110000D02*
X224340000Y-120110000D01*
X216240000Y-126380000D02*
X216240000Y-120110000D01*
X224340000Y-120110000D02*
X224340000Y-126380000D01*
X224340000Y-126380000D02*
X216240000Y-126380000D01*
D10*
X215750000Y-123250000D02*
G75*
G02*
X215850000Y-123250000I50000J0D01*
G01*
X215850000Y-123250000D02*
G75*
G02*
X215750000Y-123250000I-50000J0D01*
G01*
%TO.C,VIN1*%
X144000000Y-123250000D02*
X144000000Y-123250000D01*
X144100000Y-123250000D02*
X144100000Y-123250000D01*
D15*
X144490000Y-120110000D02*
X152590000Y-120110000D01*
X144490000Y-126380000D02*
X144490000Y-120110000D01*
X152590000Y-120110000D02*
X152590000Y-126380000D01*
X152590000Y-126380000D02*
X144490000Y-126380000D01*
D10*
X144000000Y-123250000D02*
G75*
G02*
X144100000Y-123250000I50000J0D01*
G01*
X144100000Y-123250000D02*
G75*
G02*
X144000000Y-123250000I-50000J0D01*
G01*
D15*
%TO.C,UART1*%
X119510000Y-120110000D02*
X125070000Y-120110000D01*
X119510000Y-126380000D02*
X119510000Y-120110000D01*
X125070000Y-120110000D02*
X125070000Y-126380000D01*
X125070000Y-126380000D02*
X119510000Y-126380000D01*
D10*
%TO.C,12V1*%
X133750000Y-123250000D02*
X133750000Y-123250000D01*
X133850000Y-123250000D02*
X133850000Y-123250000D01*
D15*
X134240000Y-120110000D02*
X142340000Y-120110000D01*
X134240000Y-126380000D02*
X134240000Y-120110000D01*
X142340000Y-120110000D02*
X142340000Y-126380000D01*
X142340000Y-126380000D02*
X134240000Y-126380000D01*
D10*
X133750000Y-123250000D02*
G75*
G02*
X133850000Y-123250000I50000J0D01*
G01*
X133850000Y-123250000D02*
G75*
G02*
X133750000Y-123250000I-50000J0D01*
G01*
D14*
%TO.C,R20*%
X159515001Y-110772936D02*
X159515000Y-111227065D01*
X160985000Y-110772935D02*
X160984999Y-111227064D01*
D10*
%TO.C,J3*%
X219200000Y-102700000D02*
G75*
G02*
X215800000Y-102700000I-1700000J0D01*
G01*
X215800000Y-102700000D02*
G75*
G02*
X219200000Y-102700000I1700000J0D01*
G01*
D14*
%TO.C,R14*%
X169515001Y-108977064D02*
X169515000Y-108522935D01*
X170985000Y-108977065D02*
X170984999Y-108522936D01*
D10*
%TO.C,U2*%
X149800000Y-84350000D02*
X178700000Y-84350000D01*
X149800000Y-97050000D02*
X149800000Y-84350000D01*
X178700000Y-84350000D02*
X178700000Y-97050000D01*
X178700000Y-97050000D02*
X149800000Y-97050000D01*
X149800000Y-84350000D02*
X178700000Y-84350000D01*
X178700000Y-97050000D01*
X149800000Y-97050000D01*
X149800000Y-84350000D01*
X178700000Y-97050000D02*
X149800000Y-97050000D01*
X149800000Y-84350000D01*
X178700000Y-84350000D01*
X178700000Y-97050000D01*
D14*
%TO.C,R25*%
X207265001Y-75977064D02*
X207265000Y-75522935D01*
X208735000Y-75977065D02*
X208734999Y-75522936D01*
D10*
%TO.C,CUR1*%
X154250000Y-123250000D02*
X154250000Y-123250000D01*
X154350000Y-123250000D02*
X154350000Y-123250000D01*
D15*
X154740000Y-120110000D02*
X162840000Y-120110000D01*
X154740000Y-126380000D02*
X154740000Y-120110000D01*
X162840000Y-120110000D02*
X162840000Y-126380000D01*
X162840000Y-126380000D02*
X154740000Y-126380000D01*
D10*
X154250000Y-123250000D02*
G75*
G02*
X154350000Y-123250000I50000J0D01*
G01*
X154350000Y-123250000D02*
G75*
G02*
X154250000Y-123250000I-50000J0D01*
G01*
D14*
%TO.C,J1*%
X140497496Y-113739997D02*
X140497498Y-97759998D01*
X140497496Y-113739997D02*
X147237497Y-113739999D01*
X140497498Y-97759998D02*
X147237496Y-97760001D01*
X142217494Y-113740002D02*
X142217497Y-97759999D01*
X145317499Y-113739997D02*
X145317496Y-97759997D01*
X146317498Y-113739996D02*
X146317499Y-97759998D01*
X147237497Y-113739999D02*
X147237496Y-112399998D01*
X147237498Y-111799999D02*
X147237496Y-97760001D01*
X147847503Y-112539993D02*
X147237497Y-112099999D01*
X147847497Y-111659999D01*
X147847503Y-112539993D01*
G36*
X147847503Y-112539993D02*
G01*
X147237497Y-112099999D01*
X147847497Y-111659999D01*
X147847503Y-112539993D01*
G37*
%TO.C,R18*%
X233227065Y-108015001D02*
X232772935Y-108015001D01*
X233227065Y-109484999D02*
X232772935Y-109484999D01*
%TO.C,R28*%
X193727065Y-102515001D02*
X193272935Y-102515001D01*
X193727065Y-103984999D02*
X193272935Y-103984999D01*
%TO.C,SW2*%
X219352500Y-106082500D02*
X219352500Y-107465500D01*
X219352500Y-106082500D02*
X220735500Y-106082500D01*
X219592500Y-106322500D02*
X219592500Y-113702500D01*
X219592500Y-106322500D02*
X229492500Y-106322500D01*
X219592500Y-113702500D02*
X229492500Y-113702500D01*
X223865833Y-108107500D02*
X223865833Y-109377500D01*
X223865833Y-110647500D02*
X223865833Y-111917500D01*
X229492500Y-106322500D02*
X229492500Y-113702500D01*
X222512500Y-108107500D02*
X223865833Y-108107500D01*
X223865833Y-109377500D01*
X222512500Y-109377500D01*
X222512500Y-108107500D01*
G36*
X222512500Y-108107500D02*
G01*
X223865833Y-108107500D01*
X223865833Y-109377500D01*
X222512500Y-109377500D01*
X222512500Y-108107500D01*
G37*
X222512500Y-108107500D02*
X226572500Y-108107500D01*
X226572500Y-109377500D01*
X222512500Y-109377500D01*
X222512500Y-108107500D01*
X222512500Y-110647500D02*
X223865833Y-110647500D01*
X223865833Y-111917500D01*
X222512500Y-111917500D01*
X222512500Y-110647500D01*
G36*
X222512500Y-110647500D02*
G01*
X223865833Y-110647500D01*
X223865833Y-111917500D01*
X222512500Y-111917500D01*
X222512500Y-110647500D01*
G37*
X222512500Y-110647500D02*
X226572500Y-110647500D01*
X226572500Y-111917500D01*
X222512500Y-111917500D01*
X222512500Y-110647500D01*
D10*
%TO.C,U4*%
X134899998Y-95749999D02*
X134900002Y-78750002D01*
X134900002Y-78750002D02*
X146900000Y-78750000D01*
X146900000Y-78750000D02*
X146900000Y-95750000D01*
X146900000Y-95750000D02*
X134899998Y-95749999D01*
D14*
%TO.C,R26*%
X203765001Y-75977064D02*
X203765000Y-75522935D01*
X205235000Y-75977065D02*
X205234999Y-75522936D01*
%TO.C,R37*%
X162015001Y-101272936D02*
X162015000Y-101727065D01*
X163485000Y-101272935D02*
X163484999Y-101727064D01*
D10*
%TO.C,SPD/TOT1*%
X185040000Y-123245000D02*
X185040000Y-123245000D01*
X185140000Y-123245000D02*
X185140000Y-123245000D01*
D15*
X185530000Y-120105000D02*
X193630000Y-120105000D01*
X185530000Y-126375000D02*
X185530000Y-120105000D01*
X193630000Y-120105000D02*
X193630000Y-126375000D01*
X193630000Y-126375000D02*
X185530000Y-126375000D01*
D10*
X185040000Y-123245000D02*
G75*
G02*
X185140000Y-123245000I50000J0D01*
G01*
X185140000Y-123245000D02*
G75*
G02*
X185040000Y-123245000I-50000J0D01*
G01*
D14*
%TO.C,R12*%
X191515001Y-111772936D02*
X191515000Y-112227065D01*
X192985000Y-111772935D02*
X192984999Y-112227064D01*
%TO.C,R21*%
X183765001Y-85772936D02*
X183765000Y-86227065D01*
X185235000Y-85772935D02*
X185234999Y-86227064D01*
%TO.C,D1*%
X132090000Y-97890000D02*
X132090000Y-101110000D01*
X132090000Y-101110000D02*
X137900000Y-101110000D01*
X137900000Y-97890000D02*
X132090000Y-97890000D01*
D10*
%TO.C,3V3/TS1*%
X226000000Y-123250000D02*
X226000000Y-123250000D01*
X226100000Y-123250000D02*
X226100000Y-123250000D01*
D15*
X226490000Y-120110000D02*
X234590000Y-120110000D01*
X226490000Y-126380000D02*
X226490000Y-120110000D01*
X234590000Y-120110000D02*
X234590000Y-126380000D01*
X234590000Y-126380000D02*
X226490000Y-126380000D01*
D10*
X226000000Y-123250000D02*
G75*
G02*
X226100000Y-123250000I50000J0D01*
G01*
X226100000Y-123250000D02*
G75*
G02*
X226000000Y-123250000I-50000J0D01*
G01*
%TO.C,TIN1*%
X195250000Y-123250000D02*
X195250000Y-123250000D01*
X195350000Y-123250000D02*
X195350000Y-123250000D01*
D15*
X195740000Y-120110000D02*
X203840000Y-120110000D01*
X195740000Y-126380000D02*
X195740000Y-120110000D01*
X203840000Y-120110000D02*
X203840000Y-126380000D01*
X203840000Y-126380000D02*
X195740000Y-126380000D01*
D10*
X195250000Y-123250000D02*
G75*
G02*
X195350000Y-123250000I50000J0D01*
G01*
X195350000Y-123250000D02*
G75*
G02*
X195250000Y-123250000I-50000J0D01*
G01*
%TD*%
M02*
