%TF.GenerationSoftware,KiCad,Pcbnew,9.0.2*%
%TF.CreationDate,2025-10-06T11:52:26+02:00*%
%TF.ProjectId,MPeV6PCB,4d506556-3650-4434-922e-6b696361645f,rev?*%
%TF.SameCoordinates,Original*%
%TF.FileFunction,Drillmap*%
%TF.FilePolarity,Positive*%
%FSLAX45Y45*%
G04 Gerber Fmt 4.5, Leading zero omitted, Abs format (unit mm)*
G04 Created by KiCad (PCBNEW 9.0.2) date 2025-10-06 11:52:26*
%MOMM*%
%LPD*%
G01*
G04 APERTURE LIST*
%ADD10C,0.050000*%
%ADD11C,0.200000*%
%ADD12C,0.100000*%
%ADD13C,0.110000*%
%ADD14C,0.120000*%
%ADD15C,0.150000*%
G04 APERTURE END LIST*
D10*
X11225000Y-12850000D02*
G75*
G02*
X10825000Y-12850000I-200000J0D01*
G01*
X10825000Y-12850000D02*
G75*
G02*
X11225000Y-12850000I200000J0D01*
G01*
X11225000Y-7625000D02*
G75*
G02*
X10825000Y-7625000I-200000J0D01*
G01*
X10825000Y-7625000D02*
G75*
G02*
X11225000Y-7625000I200000J0D01*
G01*
X24000000Y-7625000D02*
G75*
G02*
X23600000Y-7625000I-200000J0D01*
G01*
X23600000Y-7625000D02*
G75*
G02*
X24000000Y-7625000I200000J0D01*
G01*
X10650000Y-7250000D02*
X24175000Y-7250000D01*
X24175000Y-13200000D01*
X10650000Y-13200000D01*
X10650000Y-7250000D01*
X24000000Y-12825000D02*
G75*
G02*
X23600000Y-12825000I-200000J0D01*
G01*
X23600000Y-12825000D02*
G75*
G02*
X24000000Y-12825000I200000J0D01*
G01*
D11*
D12*
X11985000Y-8885000D02*
X12015000Y-8915000D01*
X12015000Y-8885000D02*
X11985000Y-8915000D01*
X11985000Y-8985000D02*
X12015000Y-9015000D01*
X12015000Y-8985000D02*
X11985000Y-9015000D01*
X12085000Y-8885000D02*
X12115000Y-8915000D01*
X12115000Y-8885000D02*
X12085000Y-8915000D01*
X12085000Y-8985000D02*
X12115000Y-9015000D01*
X12115000Y-8985000D02*
X12085000Y-9015000D01*
X12185000Y-8885000D02*
X12215000Y-8915000D01*
X12215000Y-8885000D02*
X12185000Y-8915000D01*
X12185000Y-8985000D02*
X12215000Y-9015000D01*
X12215000Y-8985000D02*
X12185000Y-9015000D01*
X12285000Y-8885000D02*
X12315000Y-8915000D01*
X12315000Y-8885000D02*
X12285000Y-8915000D01*
X12285000Y-8985000D02*
X12315000Y-9015000D01*
X12315000Y-8985000D02*
X12285000Y-9015000D01*
X14985000Y-10685000D02*
X15015000Y-10715000D01*
X15015000Y-10685000D02*
X14985000Y-10715000D01*
X14985000Y-10785000D02*
X15015000Y-10815000D01*
X15015000Y-10785000D02*
X14985000Y-10815000D01*
X15085000Y-10685000D02*
X15115000Y-10715000D01*
X15115000Y-10685000D02*
X15085000Y-10715000D01*
X15085000Y-10785000D02*
X15115000Y-10815000D01*
X15115000Y-10785000D02*
X15085000Y-10815000D01*
X15185000Y-10685000D02*
X15215000Y-10715000D01*
X15215000Y-10685000D02*
X15185000Y-10715000D01*
X15185000Y-10785000D02*
X15215000Y-10815000D01*
X15215000Y-10785000D02*
X15185000Y-10815000D01*
X15285000Y-10685000D02*
X15315000Y-10715000D01*
X15315000Y-10685000D02*
X15285000Y-10715000D01*
X15285000Y-10785000D02*
X15315000Y-10815000D01*
X15315000Y-10785000D02*
X15285000Y-10815000D01*
X15985000Y-8485000D02*
X16015000Y-8515000D01*
X16015000Y-8485000D02*
X15985000Y-8515000D01*
X15985000Y-8585000D02*
X16015000Y-8615000D01*
X16015000Y-8585000D02*
X15985000Y-8615000D01*
X16085000Y-8485000D02*
X16115000Y-8515000D01*
X16115000Y-8485000D02*
X16085000Y-8515000D01*
X16085000Y-8585000D02*
X16115000Y-8615000D01*
X16115000Y-8585000D02*
X16085000Y-8615000D01*
X16185000Y-8485000D02*
X16215000Y-8515000D01*
X16215000Y-8485000D02*
X16185000Y-8515000D01*
X16185000Y-8585000D02*
X16215000Y-8615000D01*
X16215000Y-8585000D02*
X16185000Y-8615000D01*
X16285000Y-8485000D02*
X16315000Y-8515000D01*
X16315000Y-8485000D02*
X16285000Y-8515000D01*
X16285000Y-8585000D02*
X16315000Y-8615000D01*
X16315000Y-8585000D02*
X16285000Y-8615000D01*
X16485000Y-10185000D02*
X16515000Y-10215000D01*
X16515000Y-10185000D02*
X16485000Y-10215000D01*
X16485000Y-10285000D02*
X16515000Y-10315000D01*
X16515000Y-10285000D02*
X16485000Y-10315000D01*
X16585000Y-10185000D02*
X16615000Y-10215000D01*
X16615000Y-10185000D02*
X16585000Y-10215000D01*
X16585000Y-10285000D02*
X16615000Y-10315000D01*
X16615000Y-10285000D02*
X16585000Y-10315000D01*
X16685000Y-10185000D02*
X16715000Y-10215000D01*
X16715000Y-10185000D02*
X16685000Y-10215000D01*
X16685000Y-10285000D02*
X16715000Y-10315000D01*
X16715000Y-10285000D02*
X16685000Y-10315000D01*
X16785000Y-10185000D02*
X16815000Y-10215000D01*
X16815000Y-10185000D02*
X16785000Y-10215000D01*
X16785000Y-10285000D02*
X16815000Y-10315000D01*
X16815000Y-10285000D02*
X16785000Y-10315000D01*
X17285000Y-11485000D02*
X17315000Y-11515000D01*
X17315000Y-11485000D02*
X17285000Y-11515000D01*
X17285000Y-11585000D02*
X17315000Y-11615000D01*
X17315000Y-11585000D02*
X17285000Y-11615000D01*
X17385000Y-11485000D02*
X17415000Y-11515000D01*
X17415000Y-11485000D02*
X17385000Y-11515000D01*
X17385000Y-11585000D02*
X17415000Y-11615000D01*
X17415000Y-11585000D02*
X17385000Y-11615000D01*
X17485000Y-11485000D02*
X17515000Y-11515000D01*
X17515000Y-11485000D02*
X17485000Y-11515000D01*
X17485000Y-11585000D02*
X17515000Y-11615000D01*
X17515000Y-11585000D02*
X17485000Y-11615000D01*
X17585000Y-11485000D02*
X17615000Y-11515000D01*
X17615000Y-11485000D02*
X17585000Y-11515000D01*
X17585000Y-11585000D02*
X17615000Y-11615000D01*
X17615000Y-11585000D02*
X17585000Y-11615000D01*
X18085000Y-10485000D02*
X18115000Y-10515000D01*
X18115000Y-10485000D02*
X18085000Y-10515000D01*
X18085000Y-10585000D02*
X18115000Y-10615000D01*
X18115000Y-10585000D02*
X18085000Y-10615000D01*
X18185000Y-10485000D02*
X18215000Y-10515000D01*
X18215000Y-10485000D02*
X18185000Y-10515000D01*
X18185000Y-10585000D02*
X18215000Y-10615000D01*
X18215000Y-10585000D02*
X18185000Y-10615000D01*
X18285000Y-10485000D02*
X18315000Y-10515000D01*
X18315000Y-10485000D02*
X18285000Y-10515000D01*
X18285000Y-10585000D02*
X18315000Y-10615000D01*
X18315000Y-10585000D02*
X18285000Y-10615000D01*
X18385000Y-10485000D02*
X18415000Y-10515000D01*
X18415000Y-10485000D02*
X18385000Y-10515000D01*
X18385000Y-10585000D02*
X18415000Y-10615000D01*
X18415000Y-10585000D02*
X18385000Y-10615000D01*
X18435000Y-8860000D02*
X18465000Y-8890000D01*
X18465000Y-8860000D02*
X18435000Y-8890000D01*
X18560000Y-9485000D02*
X18590000Y-9515000D01*
X18590000Y-9485000D02*
X18560000Y-9515000D01*
X19985000Y-8585000D02*
X20015000Y-8615000D01*
X20015000Y-8585000D02*
X19985000Y-8615000D01*
X19985000Y-8685000D02*
X20015000Y-8715000D01*
X20015000Y-8685000D02*
X19985000Y-8715000D01*
X20085000Y-8585000D02*
X20115000Y-8615000D01*
X20115000Y-8585000D02*
X20085000Y-8615000D01*
X20085000Y-8685000D02*
X20115000Y-8715000D01*
X20115000Y-8685000D02*
X20085000Y-8715000D01*
X20185000Y-8585000D02*
X20215000Y-8615000D01*
X20215000Y-8585000D02*
X20185000Y-8615000D01*
X20185000Y-8685000D02*
X20215000Y-8715000D01*
X20215000Y-8685000D02*
X20185000Y-8715000D01*
X20185000Y-11385000D02*
X20215000Y-11415000D01*
X20215000Y-11385000D02*
X20185000Y-11415000D01*
X20185000Y-11485000D02*
X20215000Y-11515000D01*
X20215000Y-11485000D02*
X20185000Y-11515000D01*
X20285000Y-8585000D02*
X20315000Y-8615000D01*
X20315000Y-8585000D02*
X20285000Y-8615000D01*
X20285000Y-8685000D02*
X20315000Y-8715000D01*
X20315000Y-8685000D02*
X20285000Y-8715000D01*
X20285000Y-11385000D02*
X20315000Y-11415000D01*
X20315000Y-11385000D02*
X20285000Y-11415000D01*
X20285000Y-11485000D02*
X20315000Y-11515000D01*
X20315000Y-11485000D02*
X20285000Y-11515000D01*
X20385000Y-11385000D02*
X20415000Y-11415000D01*
X20415000Y-11385000D02*
X20385000Y-11415000D01*
X20385000Y-11485000D02*
X20415000Y-11515000D01*
X20415000Y-11485000D02*
X20385000Y-11515000D01*
X20485000Y-11385000D02*
X20515000Y-11415000D01*
X20515000Y-11385000D02*
X20485000Y-11415000D01*
X20485000Y-11485000D02*
X20515000Y-11515000D01*
X20515000Y-11485000D02*
X20485000Y-11515000D01*
X16425000Y-11050000D02*
G75*
G02*
X16375000Y-11050000I-25000J0D01*
G01*
X16375000Y-11050000D02*
G75*
G02*
X16425000Y-11050000I25000J0D01*
G01*
X17150000Y-10400000D02*
G75*
G02*
X17100000Y-10400000I-25000J0D01*
G01*
X17100000Y-10400000D02*
G75*
G02*
X17150000Y-10400000I25000J0D01*
G01*
X18200000Y-9950000D02*
G75*
G02*
X18150000Y-9950000I-25000J0D01*
G01*
X18150000Y-9950000D02*
G75*
G02*
X18200000Y-9950000I25000J0D01*
G01*
X18575000Y-11675000D02*
G75*
G02*
X18525000Y-11675000I-25000J0D01*
G01*
X18525000Y-11675000D02*
G75*
G02*
X18575000Y-11675000I25000J0D01*
G01*
X18650000Y-8500000D02*
G75*
G02*
X18600000Y-8500000I-25000J0D01*
G01*
X18600000Y-8500000D02*
G75*
G02*
X18650000Y-8500000I25000J0D01*
G01*
X19150000Y-8425000D02*
G75*
G02*
X19100000Y-8425000I-25000J0D01*
G01*
X19100000Y-8425000D02*
G75*
G02*
X19150000Y-8425000I25000J0D01*
G01*
X19462500Y-10512500D02*
G75*
G02*
X19412500Y-10512500I-25000J0D01*
G01*
X19412500Y-10512500D02*
G75*
G02*
X19462500Y-10512500I25000J0D01*
G01*
X19600000Y-10000000D02*
G75*
G02*
X19550000Y-10000000I-25000J0D01*
G01*
X19550000Y-10000000D02*
G75*
G02*
X19600000Y-10000000I25000J0D01*
G01*
X20275000Y-10150000D02*
G75*
G02*
X20225000Y-10150000I-25000J0D01*
G01*
X20225000Y-10150000D02*
G75*
G02*
X20275000Y-10150000I25000J0D01*
G01*
X21050000Y-9975000D02*
G75*
G02*
X21000000Y-9975000I-25000J0D01*
G01*
X21000000Y-9975000D02*
G75*
G02*
X21050000Y-9975000I25000J0D01*
G01*
X21125000Y-8800000D02*
G75*
G02*
X21075000Y-8800000I-25000J0D01*
G01*
X21075000Y-8800000D02*
G75*
G02*
X21125000Y-8800000I25000J0D01*
G01*
X21325000Y-7505000D02*
G75*
G02*
X21275000Y-7505000I-25000J0D01*
G01*
X21275000Y-7505000D02*
G75*
G02*
X21325000Y-7505000I25000J0D01*
G01*
X21425000Y-10075000D02*
G75*
G02*
X21375000Y-10075000I-25000J0D01*
G01*
X21375000Y-10075000D02*
G75*
G02*
X21425000Y-10075000I25000J0D01*
G01*
X21700000Y-9725000D02*
G75*
G02*
X21650000Y-9725000I-25000J0D01*
G01*
X21650000Y-9725000D02*
G75*
G02*
X21700000Y-9725000I25000J0D01*
G01*
X22085000Y-11455000D02*
G75*
G02*
X22035000Y-11455000I-25000J0D01*
G01*
X22035000Y-11455000D02*
G75*
G02*
X22085000Y-11455000I25000J0D01*
G01*
X22550000Y-8425000D02*
G75*
G02*
X22500000Y-8425000I-25000J0D01*
G01*
X22500000Y-8425000D02*
G75*
G02*
X22550000Y-8425000I25000J0D01*
G01*
X22660000Y-7560000D02*
G75*
G02*
X22610000Y-7560000I-25000J0D01*
G01*
X22610000Y-7560000D02*
G75*
G02*
X22660000Y-7560000I25000J0D01*
G01*
X12071750Y-10783250D02*
X12071750Y-10863250D01*
X12031750Y-10823250D02*
X12111750Y-10823250D01*
X12071750Y-11545250D02*
X12071750Y-11625250D01*
X12031750Y-11585250D02*
X12111750Y-11585250D01*
X12325750Y-10783250D02*
X12325750Y-10863250D01*
X12285750Y-10823250D02*
X12365750Y-10823250D01*
X12325750Y-11545250D02*
X12325750Y-11625250D01*
X12285750Y-11585250D02*
X12365750Y-11585250D01*
X22073250Y-10834250D02*
X22073250Y-10914250D01*
X22033250Y-10874250D02*
X22113250Y-10874250D01*
X22073250Y-11088250D02*
X22073250Y-11168250D01*
X22033250Y-11128250D02*
X22113250Y-11128250D01*
X22835250Y-10834250D02*
X22835250Y-10914250D01*
X22795250Y-10874250D02*
X22875250Y-10874250D01*
X22835250Y-11088250D02*
X22835250Y-11168250D01*
X22795250Y-11128250D02*
X22875250Y-11128250D01*
X15283356Y-9472356D02*
X15283356Y-9401644D01*
X15212644Y-9401644D01*
X15212644Y-9472356D01*
X15283356Y-9472356D01*
X15537356Y-9472356D02*
X15537356Y-9401644D01*
X15466644Y-9401644D01*
X15466644Y-9472356D01*
X15537356Y-9472356D01*
X15791356Y-9472356D02*
X15791356Y-9401644D01*
X15720644Y-9401644D01*
X15720644Y-9472356D01*
X15791356Y-9472356D01*
X16045356Y-9472356D02*
X16045356Y-9401644D01*
X15974644Y-9401644D01*
X15974644Y-9472356D01*
X16045356Y-9472356D01*
X16299356Y-9472356D02*
X16299356Y-9401644D01*
X16228644Y-9401644D01*
X16228644Y-9472356D01*
X16299356Y-9472356D01*
X16553356Y-9472356D02*
X16553356Y-9401644D01*
X16482644Y-9401644D01*
X16482644Y-9472356D01*
X16553356Y-9472356D01*
X16807356Y-9472356D02*
X16807356Y-9401644D01*
X16736644Y-9401644D01*
X16736644Y-9472356D01*
X16807356Y-9472356D01*
X17061356Y-9472356D02*
X17061356Y-9401644D01*
X16990644Y-9401644D01*
X16990644Y-9472356D01*
X17061356Y-9472356D01*
X17315356Y-9472356D02*
X17315356Y-9401644D01*
X17244644Y-9401644D01*
X17244644Y-9472356D01*
X17315356Y-9472356D01*
X17569356Y-9472356D02*
X17569356Y-9401644D01*
X17498644Y-9401644D01*
X17498644Y-9472356D01*
X17569356Y-9472356D01*
X19155356Y-7997356D02*
X19155356Y-7926644D01*
X19084645Y-7926644D01*
X19084645Y-7997356D01*
X19155356Y-7997356D01*
X19155356Y-9521356D02*
X19155356Y-9450644D01*
X19084645Y-9450644D01*
X19084645Y-9521356D01*
X19155356Y-9521356D01*
X19409356Y-7997356D02*
X19409356Y-7926644D01*
X19338645Y-7926644D01*
X19338645Y-7997356D01*
X19409356Y-7997356D01*
X19409356Y-9521356D02*
X19409356Y-9450644D01*
X19338645Y-9450644D01*
X19338645Y-9521356D01*
X19409356Y-9521356D01*
X19663356Y-9521355D02*
X19663356Y-9450644D01*
X19592644Y-9450644D01*
X19592644Y-9521355D01*
X19663356Y-9521355D01*
X19663356Y-7997356D02*
X19663356Y-7926645D01*
X19592645Y-7926645D01*
X19592645Y-7997356D01*
X19663356Y-7997356D01*
X19917356Y-7997356D02*
X19917356Y-7926645D01*
X19846645Y-7926645D01*
X19846645Y-7997356D01*
X19917356Y-7997356D01*
X19917356Y-9521356D02*
X19917356Y-9450644D01*
X19846645Y-9450644D01*
X19846645Y-9521356D01*
X19917356Y-9521356D01*
X20171356Y-9521356D02*
X20171356Y-9450645D01*
X20100645Y-9450645D01*
X20100645Y-9521356D01*
X20171356Y-9521356D01*
X20171356Y-7997356D02*
X20171356Y-7926644D01*
X20100645Y-7926644D01*
X20100645Y-7997356D01*
X20171356Y-7997356D01*
X20425356Y-7997356D02*
X20425356Y-7926644D01*
X20354644Y-7926644D01*
X20354644Y-7997356D01*
X20425356Y-7997356D01*
X20425356Y-9521355D02*
X20425356Y-9450644D01*
X20354645Y-9450644D01*
X20354645Y-9521355D01*
X20425356Y-9521355D01*
X20679356Y-7997356D02*
X20679356Y-7926645D01*
X20608644Y-7926645D01*
X20608644Y-7997356D01*
X20679356Y-7997356D01*
X20679356Y-9521356D02*
X20679356Y-9450644D01*
X20608645Y-9450644D01*
X20608645Y-9521356D01*
X20679356Y-9521356D01*
X20933356Y-7997356D02*
X20933356Y-7926644D01*
X20862644Y-7926644D01*
X20862644Y-7997356D01*
X20933356Y-7997356D01*
X20933356Y-9521356D02*
X20933356Y-9450644D01*
X20862645Y-9450644D01*
X20862645Y-9521356D01*
X20933356Y-9521356D01*
X21187356Y-7997356D02*
X21187356Y-7926644D01*
X21116645Y-7926644D01*
X21116645Y-7997356D01*
X21187356Y-7997356D01*
X21187356Y-9521356D02*
X21187356Y-9450645D01*
X21116645Y-9450645D01*
X21116645Y-9521356D01*
X21187356Y-9521356D01*
X21441356Y-7997355D02*
X21441356Y-7926644D01*
X21370645Y-7926644D01*
X21370645Y-7997355D01*
X21441356Y-7997355D01*
X21441356Y-9521356D02*
X21441356Y-9450645D01*
X21370645Y-9450645D01*
X21370645Y-9521356D01*
X21441356Y-9521356D01*
X21695356Y-7997356D02*
X21695356Y-7926644D01*
X21624645Y-7926644D01*
X21624645Y-7997356D01*
X21695356Y-7997356D01*
X21695356Y-9521356D02*
X21695356Y-9450644D01*
X21624645Y-9450644D01*
X21624645Y-9521356D01*
X21695356Y-9521356D01*
X21949356Y-9521356D02*
X21949356Y-9450644D01*
X21878645Y-9450644D01*
X21878645Y-9521356D01*
X21949356Y-9521356D01*
X21949356Y-7997356D02*
X21949356Y-7926644D01*
X21878645Y-7926644D01*
X21878645Y-7997356D01*
X21949356Y-7997356D01*
X22203356Y-7997356D02*
X22203356Y-7926644D01*
X22132645Y-7926644D01*
X22132645Y-7997356D01*
X22203356Y-7997356D01*
X22203356Y-9521356D02*
X22203356Y-9450645D01*
X22132645Y-9450645D01*
X22132645Y-9521356D01*
X22203356Y-9521356D01*
X22457355Y-7997355D02*
X22457355Y-7926644D01*
X22386644Y-7926644D01*
X22386644Y-7997355D01*
X22457355Y-7997355D01*
X22457356Y-9521356D02*
X22457356Y-9450644D01*
X22386645Y-9450644D01*
X22386645Y-9521356D01*
X22457356Y-9521356D01*
X22711355Y-7997356D02*
X22711355Y-7926644D01*
X22640644Y-7926644D01*
X22640644Y-7997356D01*
X22711355Y-7997356D01*
X22711356Y-9521356D02*
X22711356Y-9450644D01*
X22640644Y-9450644D01*
X22640644Y-9521356D01*
X22711356Y-9521356D01*
D13*
X11377000Y-12380000D02*
X11432000Y-12325000D01*
X11377000Y-12270000D01*
X11322000Y-12325000D01*
X11377000Y-12380000D01*
X11631000Y-12380000D02*
X11686000Y-12325000D01*
X11631000Y-12270000D01*
X11576000Y-12325000D01*
X11631000Y-12380000D01*
X12102000Y-12380000D02*
X12157000Y-12325000D01*
X12102000Y-12270000D01*
X12047000Y-12325000D01*
X12102000Y-12380000D01*
X12356000Y-12380000D02*
X12411000Y-12325000D01*
X12356000Y-12270000D01*
X12301000Y-12325000D01*
X12356000Y-12380000D01*
X12827000Y-12380000D02*
X12882000Y-12325000D01*
X12827000Y-12270000D01*
X12772000Y-12325000D01*
X12827000Y-12380000D01*
X13081000Y-12380000D02*
X13136000Y-12325000D01*
X13081000Y-12270000D01*
X13026000Y-12325000D01*
X13081000Y-12380000D01*
X13575000Y-12380000D02*
X13630000Y-12325000D01*
X13575000Y-12270000D01*
X13520000Y-12325000D01*
X13575000Y-12380000D01*
X13829000Y-12380000D02*
X13884000Y-12325000D01*
X13829000Y-12270000D01*
X13774000Y-12325000D01*
X13829000Y-12380000D01*
X14083000Y-12380000D02*
X14138000Y-12325000D01*
X14083000Y-12270000D01*
X14028000Y-12325000D01*
X14083000Y-12380000D01*
X14600000Y-12380000D02*
X14655000Y-12325000D01*
X14600000Y-12270000D01*
X14545000Y-12325000D01*
X14600000Y-12380000D01*
X14854000Y-12380000D02*
X14909000Y-12325000D01*
X14854000Y-12270000D01*
X14799000Y-12325000D01*
X14854000Y-12380000D01*
X15108000Y-12380000D02*
X15163000Y-12325000D01*
X15108000Y-12270000D01*
X15053000Y-12325000D01*
X15108000Y-12380000D01*
X15625000Y-12380000D02*
X15680000Y-12325000D01*
X15625000Y-12270000D01*
X15570000Y-12325000D01*
X15625000Y-12380000D01*
X15879000Y-12380000D02*
X15934000Y-12325000D01*
X15879000Y-12270000D01*
X15824000Y-12325000D01*
X15879000Y-12380000D01*
X16133000Y-12380000D02*
X16188000Y-12325000D01*
X16133000Y-12270000D01*
X16078000Y-12325000D01*
X16133000Y-12380000D01*
X16654000Y-12379500D02*
X16709000Y-12324500D01*
X16654000Y-12269500D01*
X16599000Y-12324500D01*
X16654000Y-12379500D01*
X16908000Y-12379500D02*
X16963000Y-12324500D01*
X16908000Y-12269500D01*
X16853000Y-12324500D01*
X16908000Y-12379500D01*
X17162000Y-12379500D02*
X17217000Y-12324500D01*
X17162000Y-12269500D01*
X17107000Y-12324500D01*
X17162000Y-12379500D01*
X17675000Y-12380000D02*
X17730000Y-12325000D01*
X17675000Y-12270000D01*
X17620000Y-12325000D01*
X17675000Y-12380000D01*
X17929000Y-12380000D02*
X17984000Y-12325000D01*
X17929000Y-12270000D01*
X17874000Y-12325000D01*
X17929000Y-12380000D01*
X18183000Y-12380000D02*
X18238000Y-12325000D01*
X18183000Y-12270000D01*
X18128000Y-12325000D01*
X18183000Y-12380000D01*
X18704000Y-12379500D02*
X18759000Y-12324500D01*
X18704000Y-12269500D01*
X18649000Y-12324500D01*
X18704000Y-12379500D01*
X18958000Y-12379500D02*
X19013000Y-12324500D01*
X18958000Y-12269500D01*
X18903000Y-12324500D01*
X18958000Y-12379500D01*
X19212000Y-12379500D02*
X19267000Y-12324500D01*
X19212000Y-12269500D01*
X19157000Y-12324500D01*
X19212000Y-12379500D01*
X19725000Y-12380000D02*
X19780000Y-12325000D01*
X19725000Y-12270000D01*
X19670000Y-12325000D01*
X19725000Y-12380000D01*
X19979000Y-12380000D02*
X20034000Y-12325000D01*
X19979000Y-12270000D01*
X19924000Y-12325000D01*
X19979000Y-12380000D01*
X20233000Y-12380000D02*
X20288000Y-12325000D01*
X20233000Y-12270000D01*
X20178000Y-12325000D01*
X20233000Y-12380000D01*
X20750000Y-12380000D02*
X20805000Y-12325000D01*
X20750000Y-12270000D01*
X20695000Y-12325000D01*
X20750000Y-12380000D01*
X21004000Y-12380000D02*
X21059000Y-12325000D01*
X21004000Y-12270000D01*
X20949000Y-12325000D01*
X21004000Y-12380000D01*
X21258000Y-12380000D02*
X21313000Y-12325000D01*
X21258000Y-12270000D01*
X21203000Y-12325000D01*
X21258000Y-12380000D01*
X21775000Y-12380000D02*
X21830000Y-12325000D01*
X21775000Y-12270000D01*
X21720000Y-12325000D01*
X21775000Y-12380000D01*
X22029000Y-12380000D02*
X22084000Y-12325000D01*
X22029000Y-12270000D01*
X21974000Y-12325000D01*
X22029000Y-12380000D01*
X22283000Y-12380000D02*
X22338000Y-12325000D01*
X22283000Y-12270000D01*
X22228000Y-12325000D01*
X22283000Y-12380000D01*
X22800000Y-12380000D02*
X22855000Y-12325000D01*
X22800000Y-12270000D01*
X22745000Y-12325000D01*
X22800000Y-12380000D01*
X23054000Y-12380000D02*
X23109000Y-12325000D01*
X23054000Y-12270000D01*
X22999000Y-12325000D01*
X23054000Y-12380000D01*
X23308000Y-12380000D02*
X23363000Y-12325000D01*
X23308000Y-12270000D01*
X23253000Y-12325000D01*
X23308000Y-12380000D01*
D14*
X14311749Y-9880000D02*
X14431749Y-10000000D01*
X14431749Y-9880000D02*
X14311749Y-10000000D01*
X14431749Y-9940000D02*
G75*
G02*
X14311749Y-9940000I-60000J0D01*
G01*
X14311749Y-9940000D02*
G75*
G02*
X14431749Y-9940000I60000J0D01*
G01*
X14311749Y-10642000D02*
X14431749Y-10762000D01*
X14431749Y-10642000D02*
X14311749Y-10762000D01*
X14431749Y-10702000D02*
G75*
G02*
X14311749Y-10702000I-60000J0D01*
G01*
X14311749Y-10702000D02*
G75*
G02*
X14431749Y-10702000I60000J0D01*
G01*
X14311750Y-10388000D02*
X14431750Y-10508000D01*
X14431750Y-10388000D02*
X14311750Y-10508000D01*
X14431750Y-10448000D02*
G75*
G02*
X14311750Y-10448000I-60000J0D01*
G01*
X14311750Y-10448000D02*
G75*
G02*
X14431750Y-10448000I60000J0D01*
G01*
X14311750Y-10896000D02*
X14431750Y-11016000D01*
X14431750Y-10896000D02*
X14311750Y-11016000D01*
X14431750Y-10956000D02*
G75*
G02*
X14311750Y-10956000I-60000J0D01*
G01*
X14311750Y-10956000D02*
G75*
G02*
X14431750Y-10956000I60000J0D01*
G01*
X14311750Y-11150000D02*
X14431750Y-11270000D01*
X14431750Y-11150000D02*
X14311750Y-11270000D01*
X14431750Y-11210000D02*
G75*
G02*
X14311750Y-11210000I-60000J0D01*
G01*
X14311750Y-11210000D02*
G75*
G02*
X14431750Y-11210000I60000J0D01*
G01*
X14311750Y-10134000D02*
X14431750Y-10254000D01*
X14431750Y-10134000D02*
X14311750Y-10254000D01*
X14431750Y-10194000D02*
G75*
G02*
X14311750Y-10194000I-60000J0D01*
G01*
X14311750Y-10194000D02*
G75*
G02*
X14431750Y-10194000I60000J0D01*
G01*
X22030000Y-9968251D02*
X22150000Y-10088251D01*
X22150000Y-9968251D02*
X22030000Y-10088251D01*
X22150000Y-10028251D02*
G75*
G02*
X22030000Y-10028251I-60000J0D01*
G01*
X22030000Y-10028251D02*
G75*
G02*
X22150000Y-10028251I60000J0D01*
G01*
X22284000Y-9968250D02*
X22404000Y-10088250D01*
X22404000Y-9968250D02*
X22284000Y-10088250D01*
X22404000Y-10028250D02*
G75*
G02*
X22284000Y-10028250I-60000J0D01*
G01*
X22284000Y-10028250D02*
G75*
G02*
X22404000Y-10028250I60000J0D01*
G01*
X22538000Y-9968250D02*
X22658000Y-10088250D01*
X22658000Y-9968250D02*
X22538000Y-10088250D01*
X22658000Y-10028250D02*
G75*
G02*
X22538000Y-10028250I-60000J0D01*
G01*
X22538000Y-10028250D02*
G75*
G02*
X22658000Y-10028250I60000J0D01*
G01*
X22792000Y-9968251D02*
X22912000Y-10088251D01*
X22912000Y-9968251D02*
X22792000Y-10088251D01*
X22912000Y-10028251D02*
G75*
G02*
X22792000Y-10028251I-60000J0D01*
G01*
X22792000Y-10028251D02*
G75*
G02*
X22912000Y-10028251I60000J0D01*
G01*
X23046000Y-9968250D02*
X23166000Y-10088250D01*
X23166000Y-9968250D02*
X23046000Y-10088250D01*
X23166000Y-10028250D02*
G75*
G02*
X23046000Y-10028250I-60000J0D01*
G01*
X23046000Y-10028250D02*
G75*
G02*
X23166000Y-10028250I60000J0D01*
G01*
X23300000Y-9968250D02*
X23420000Y-10088250D01*
X23420000Y-9968250D02*
X23300000Y-10088250D01*
X23420000Y-10028250D02*
G75*
G02*
X23300000Y-10028250I-60000J0D01*
G01*
X23300000Y-10028250D02*
G75*
G02*
X23420000Y-10028250I60000J0D01*
G01*
D15*
X11535000Y-7885000D02*
X11685000Y-8035000D01*
X11685000Y-7885000D02*
X11535000Y-8035000D01*
X11610000Y-7885000D02*
X11610000Y-8035000D01*
X11535000Y-7960000D02*
X11685000Y-7960000D01*
X11535000Y-10115000D02*
X11685000Y-10265000D01*
X11685000Y-10115000D02*
X11535000Y-10265000D01*
X11610000Y-10115000D02*
X11610000Y-10265000D01*
X11535000Y-10190000D02*
X11685000Y-10190000D01*
X11845000Y-7885000D02*
X11995000Y-8035000D01*
X11995000Y-7885000D02*
X11845000Y-8035000D01*
X11920000Y-7885000D02*
X11920000Y-8035000D01*
X11845000Y-7960000D02*
X11995000Y-7960000D01*
X11845000Y-10115000D02*
X11995000Y-10265000D01*
X11995000Y-10115000D02*
X11845000Y-10265000D01*
X11920000Y-10115000D02*
X11920000Y-10265000D01*
X11845000Y-10190000D02*
X11995000Y-10190000D01*
X12595000Y-7885000D02*
X12745000Y-8035000D01*
X12745000Y-7885000D02*
X12595000Y-8035000D01*
X12670000Y-7885000D02*
X12670000Y-8035000D01*
X12595000Y-7960000D02*
X12745000Y-7960000D01*
X12595000Y-10125000D02*
X12745000Y-10275000D01*
X12745000Y-10125000D02*
X12595000Y-10275000D01*
X12670000Y-10125000D02*
X12670000Y-10275000D01*
X12595000Y-10200000D02*
X12745000Y-10200000D01*
X12895000Y-7885000D02*
X13045000Y-8035000D01*
X13045000Y-7885000D02*
X12895000Y-8035000D01*
X12970000Y-7885000D02*
X12970000Y-8035000D01*
X12895000Y-7960000D02*
X13045000Y-7960000D01*
X12905000Y-10115000D02*
X13055000Y-10265000D01*
X13055000Y-10115000D02*
X12905000Y-10265000D01*
X12980000Y-10115000D02*
X12980000Y-10265000D01*
X12905000Y-10190000D02*
X13055000Y-10190000D01*
X13585000Y-7930000D02*
X13735000Y-8080000D01*
X13735000Y-7930000D02*
X13585000Y-8080000D01*
X13660000Y-7930000D02*
X13660000Y-8080000D01*
X13585000Y-8005000D02*
X13735000Y-8005000D01*
X13595000Y-9370000D02*
X13745000Y-9520000D01*
X13745000Y-9370000D02*
X13595000Y-9520000D01*
X13670000Y-9370000D02*
X13670000Y-9520000D01*
X13595000Y-9445000D02*
X13745000Y-9445000D01*
X14435000Y-9370000D02*
X14585000Y-9520000D01*
X14585000Y-9370000D02*
X14435000Y-9520000D01*
X14510000Y-9370000D02*
X14510000Y-9520000D01*
X14435000Y-9445000D02*
X14585000Y-9445000D01*
X14435000Y-7930000D02*
X14585000Y-8080000D01*
X14585000Y-7930000D02*
X14435000Y-8080000D01*
X14510000Y-7930000D02*
X14510000Y-8080000D01*
X14435000Y-8005000D02*
X14585000Y-8005000D01*
X20550000Y-10370000D02*
X20700000Y-10520000D01*
X20700000Y-10370000D02*
X20550000Y-10520000D01*
X20625000Y-10370000D02*
X20625000Y-10520000D01*
X20550000Y-10445000D02*
X20700000Y-10445000D01*
X20925000Y-11445000D02*
X21075000Y-11595000D01*
X21075000Y-11445000D02*
X20925000Y-11595000D01*
X21000000Y-11445000D02*
X21000000Y-11595000D01*
X20925000Y-11520000D02*
X21075000Y-11520000D01*
X21675000Y-10195000D02*
X21825000Y-10345000D01*
X21825000Y-10195000D02*
X21675000Y-10345000D01*
X21750000Y-10195000D02*
X21750000Y-10345000D01*
X21675000Y-10270000D02*
X21825000Y-10270000D01*
X21800000Y-7570000D02*
X21950000Y-7720000D01*
X21950000Y-7570000D02*
X21800000Y-7720000D01*
X21875000Y-7570000D02*
X21875000Y-7720000D01*
X21800000Y-7645000D02*
X21950000Y-7645000D01*
D11*
X10908277Y-13513984D02*
X10908277Y-13313984D01*
X10908277Y-13313984D02*
X10955896Y-13313984D01*
X10955896Y-13313984D02*
X10984467Y-13323508D01*
X10984467Y-13323508D02*
X11003515Y-13342555D01*
X11003515Y-13342555D02*
X11013039Y-13361603D01*
X11013039Y-13361603D02*
X11022563Y-13399698D01*
X11022563Y-13399698D02*
X11022563Y-13428269D01*
X11022563Y-13428269D02*
X11013039Y-13466365D01*
X11013039Y-13466365D02*
X11003515Y-13485412D01*
X11003515Y-13485412D02*
X10984467Y-13504460D01*
X10984467Y-13504460D02*
X10955896Y-13513984D01*
X10955896Y-13513984D02*
X10908277Y-13513984D01*
X11108277Y-13513984D02*
X11108277Y-13380650D01*
X11108277Y-13418746D02*
X11117801Y-13399698D01*
X11117801Y-13399698D02*
X11127324Y-13390174D01*
X11127324Y-13390174D02*
X11146372Y-13380650D01*
X11146372Y-13380650D02*
X11165420Y-13380650D01*
X11232086Y-13513984D02*
X11232086Y-13380650D01*
X11232086Y-13313984D02*
X11222562Y-13323508D01*
X11222562Y-13323508D02*
X11232086Y-13333031D01*
X11232086Y-13333031D02*
X11241610Y-13323508D01*
X11241610Y-13323508D02*
X11232086Y-13313984D01*
X11232086Y-13313984D02*
X11232086Y-13333031D01*
X11355896Y-13513984D02*
X11336848Y-13504460D01*
X11336848Y-13504460D02*
X11327324Y-13485412D01*
X11327324Y-13485412D02*
X11327324Y-13313984D01*
X11460658Y-13513984D02*
X11441610Y-13504460D01*
X11441610Y-13504460D02*
X11432086Y-13485412D01*
X11432086Y-13485412D02*
X11432086Y-13313984D01*
X11689229Y-13513984D02*
X11689229Y-13313984D01*
X11689229Y-13313984D02*
X11755896Y-13456841D01*
X11755896Y-13456841D02*
X11822562Y-13313984D01*
X11822562Y-13313984D02*
X11822562Y-13513984D01*
X12003515Y-13513984D02*
X12003515Y-13409222D01*
X12003515Y-13409222D02*
X11993991Y-13390174D01*
X11993991Y-13390174D02*
X11974943Y-13380650D01*
X11974943Y-13380650D02*
X11936848Y-13380650D01*
X11936848Y-13380650D02*
X11917801Y-13390174D01*
X12003515Y-13504460D02*
X11984467Y-13513984D01*
X11984467Y-13513984D02*
X11936848Y-13513984D01*
X11936848Y-13513984D02*
X11917801Y-13504460D01*
X11917801Y-13504460D02*
X11908277Y-13485412D01*
X11908277Y-13485412D02*
X11908277Y-13466365D01*
X11908277Y-13466365D02*
X11917801Y-13447317D01*
X11917801Y-13447317D02*
X11936848Y-13437793D01*
X11936848Y-13437793D02*
X11984467Y-13437793D01*
X11984467Y-13437793D02*
X12003515Y-13428269D01*
X12098753Y-13380650D02*
X12098753Y-13580650D01*
X12098753Y-13390174D02*
X12117801Y-13380650D01*
X12117801Y-13380650D02*
X12155896Y-13380650D01*
X12155896Y-13380650D02*
X12174943Y-13390174D01*
X12174943Y-13390174D02*
X12184467Y-13399698D01*
X12184467Y-13399698D02*
X12193991Y-13418746D01*
X12193991Y-13418746D02*
X12193991Y-13475888D01*
X12193991Y-13475888D02*
X12184467Y-13494936D01*
X12184467Y-13494936D02*
X12174943Y-13504460D01*
X12174943Y-13504460D02*
X12155896Y-13513984D01*
X12155896Y-13513984D02*
X12117801Y-13513984D01*
X12117801Y-13513984D02*
X12098753Y-13504460D01*
X12279705Y-13494936D02*
X12289229Y-13504460D01*
X12289229Y-13504460D02*
X12279705Y-13513984D01*
X12279705Y-13513984D02*
X12270182Y-13504460D01*
X12270182Y-13504460D02*
X12279705Y-13494936D01*
X12279705Y-13494936D02*
X12279705Y-13513984D01*
X12279705Y-13390174D02*
X12289229Y-13399698D01*
X12289229Y-13399698D02*
X12279705Y-13409222D01*
X12279705Y-13409222D02*
X12270182Y-13399698D01*
X12270182Y-13399698D02*
X12279705Y-13390174D01*
X12279705Y-13390174D02*
X12279705Y-13409222D01*
D12*
X10617500Y-13827500D02*
X10647500Y-13857500D01*
X10647500Y-13827500D02*
X10617500Y-13857500D01*
D11*
X10946372Y-13733984D02*
X10965420Y-13733984D01*
X10965420Y-13733984D02*
X10984467Y-13743508D01*
X10984467Y-13743508D02*
X10993991Y-13753031D01*
X10993991Y-13753031D02*
X11003515Y-13772079D01*
X11003515Y-13772079D02*
X11013039Y-13810174D01*
X11013039Y-13810174D02*
X11013039Y-13857793D01*
X11013039Y-13857793D02*
X11003515Y-13895888D01*
X11003515Y-13895888D02*
X10993991Y-13914936D01*
X10993991Y-13914936D02*
X10984467Y-13924460D01*
X10984467Y-13924460D02*
X10965420Y-13933984D01*
X10965420Y-13933984D02*
X10946372Y-13933984D01*
X10946372Y-13933984D02*
X10927324Y-13924460D01*
X10927324Y-13924460D02*
X10917801Y-13914936D01*
X10917801Y-13914936D02*
X10908277Y-13895888D01*
X10908277Y-13895888D02*
X10898753Y-13857793D01*
X10898753Y-13857793D02*
X10898753Y-13810174D01*
X10898753Y-13810174D02*
X10908277Y-13772079D01*
X10908277Y-13772079D02*
X10917801Y-13753031D01*
X10917801Y-13753031D02*
X10927324Y-13743508D01*
X10927324Y-13743508D02*
X10946372Y-13733984D01*
X11098753Y-13914936D02*
X11108277Y-13924460D01*
X11108277Y-13924460D02*
X11098753Y-13933984D01*
X11098753Y-13933984D02*
X11089229Y-13924460D01*
X11089229Y-13924460D02*
X11098753Y-13914936D01*
X11098753Y-13914936D02*
X11098753Y-13933984D01*
X11174944Y-13733984D02*
X11298753Y-13733984D01*
X11298753Y-13733984D02*
X11232086Y-13810174D01*
X11232086Y-13810174D02*
X11260658Y-13810174D01*
X11260658Y-13810174D02*
X11279705Y-13819698D01*
X11279705Y-13819698D02*
X11289229Y-13829222D01*
X11289229Y-13829222D02*
X11298753Y-13848269D01*
X11298753Y-13848269D02*
X11298753Y-13895888D01*
X11298753Y-13895888D02*
X11289229Y-13914936D01*
X11289229Y-13914936D02*
X11279705Y-13924460D01*
X11279705Y-13924460D02*
X11260658Y-13933984D01*
X11260658Y-13933984D02*
X11203515Y-13933984D01*
X11203515Y-13933984D02*
X11184467Y-13924460D01*
X11184467Y-13924460D02*
X11174944Y-13914936D01*
X11422562Y-13733984D02*
X11441610Y-13733984D01*
X11441610Y-13733984D02*
X11460658Y-13743508D01*
X11460658Y-13743508D02*
X11470182Y-13753031D01*
X11470182Y-13753031D02*
X11479705Y-13772079D01*
X11479705Y-13772079D02*
X11489229Y-13810174D01*
X11489229Y-13810174D02*
X11489229Y-13857793D01*
X11489229Y-13857793D02*
X11479705Y-13895888D01*
X11479705Y-13895888D02*
X11470182Y-13914936D01*
X11470182Y-13914936D02*
X11460658Y-13924460D01*
X11460658Y-13924460D02*
X11441610Y-13933984D01*
X11441610Y-13933984D02*
X11422562Y-13933984D01*
X11422562Y-13933984D02*
X11403515Y-13924460D01*
X11403515Y-13924460D02*
X11393991Y-13914936D01*
X11393991Y-13914936D02*
X11384467Y-13895888D01*
X11384467Y-13895888D02*
X11374943Y-13857793D01*
X11374943Y-13857793D02*
X11374943Y-13810174D01*
X11374943Y-13810174D02*
X11384467Y-13772079D01*
X11384467Y-13772079D02*
X11393991Y-13753031D01*
X11393991Y-13753031D02*
X11403515Y-13743508D01*
X11403515Y-13743508D02*
X11422562Y-13733984D01*
X11613039Y-13733984D02*
X11632086Y-13733984D01*
X11632086Y-13733984D02*
X11651134Y-13743508D01*
X11651134Y-13743508D02*
X11660658Y-13753031D01*
X11660658Y-13753031D02*
X11670182Y-13772079D01*
X11670182Y-13772079D02*
X11679705Y-13810174D01*
X11679705Y-13810174D02*
X11679705Y-13857793D01*
X11679705Y-13857793D02*
X11670182Y-13895888D01*
X11670182Y-13895888D02*
X11660658Y-13914936D01*
X11660658Y-13914936D02*
X11651134Y-13924460D01*
X11651134Y-13924460D02*
X11632086Y-13933984D01*
X11632086Y-13933984D02*
X11613039Y-13933984D01*
X11613039Y-13933984D02*
X11593991Y-13924460D01*
X11593991Y-13924460D02*
X11584467Y-13914936D01*
X11584467Y-13914936D02*
X11574943Y-13895888D01*
X11574943Y-13895888D02*
X11565420Y-13857793D01*
X11565420Y-13857793D02*
X11565420Y-13810174D01*
X11565420Y-13810174D02*
X11574943Y-13772079D01*
X11574943Y-13772079D02*
X11584467Y-13753031D01*
X11584467Y-13753031D02*
X11593991Y-13743508D01*
X11593991Y-13743508D02*
X11613039Y-13733984D01*
X11765420Y-13933984D02*
X11765420Y-13800650D01*
X11765420Y-13819698D02*
X11774943Y-13810174D01*
X11774943Y-13810174D02*
X11793991Y-13800650D01*
X11793991Y-13800650D02*
X11822563Y-13800650D01*
X11822563Y-13800650D02*
X11841610Y-13810174D01*
X11841610Y-13810174D02*
X11851134Y-13829222D01*
X11851134Y-13829222D02*
X11851134Y-13933984D01*
X11851134Y-13829222D02*
X11860658Y-13810174D01*
X11860658Y-13810174D02*
X11879705Y-13800650D01*
X11879705Y-13800650D02*
X11908277Y-13800650D01*
X11908277Y-13800650D02*
X11927324Y-13810174D01*
X11927324Y-13810174D02*
X11936848Y-13829222D01*
X11936848Y-13829222D02*
X11936848Y-13933984D01*
X12032086Y-13933984D02*
X12032086Y-13800650D01*
X12032086Y-13819698D02*
X12041610Y-13810174D01*
X12041610Y-13810174D02*
X12060658Y-13800650D01*
X12060658Y-13800650D02*
X12089229Y-13800650D01*
X12089229Y-13800650D02*
X12108277Y-13810174D01*
X12108277Y-13810174D02*
X12117801Y-13829222D01*
X12117801Y-13829222D02*
X12117801Y-13933984D01*
X12117801Y-13829222D02*
X12127324Y-13810174D01*
X12127324Y-13810174D02*
X12146372Y-13800650D01*
X12146372Y-13800650D02*
X12174943Y-13800650D01*
X12174943Y-13800650D02*
X12193991Y-13810174D01*
X12193991Y-13810174D02*
X12203515Y-13829222D01*
X12203515Y-13829222D02*
X12203515Y-13933984D01*
X12593991Y-13724460D02*
X12422563Y-13981603D01*
X12851134Y-13733984D02*
X12870182Y-13733984D01*
X12870182Y-13733984D02*
X12889229Y-13743508D01*
X12889229Y-13743508D02*
X12898753Y-13753031D01*
X12898753Y-13753031D02*
X12908277Y-13772079D01*
X12908277Y-13772079D02*
X12917801Y-13810174D01*
X12917801Y-13810174D02*
X12917801Y-13857793D01*
X12917801Y-13857793D02*
X12908277Y-13895888D01*
X12908277Y-13895888D02*
X12898753Y-13914936D01*
X12898753Y-13914936D02*
X12889229Y-13924460D01*
X12889229Y-13924460D02*
X12870182Y-13933984D01*
X12870182Y-13933984D02*
X12851134Y-13933984D01*
X12851134Y-13933984D02*
X12832086Y-13924460D01*
X12832086Y-13924460D02*
X12822563Y-13914936D01*
X12822563Y-13914936D02*
X12813039Y-13895888D01*
X12813039Y-13895888D02*
X12803515Y-13857793D01*
X12803515Y-13857793D02*
X12803515Y-13810174D01*
X12803515Y-13810174D02*
X12813039Y-13772079D01*
X12813039Y-13772079D02*
X12822563Y-13753031D01*
X12822563Y-13753031D02*
X12832086Y-13743508D01*
X12832086Y-13743508D02*
X12851134Y-13733984D01*
X13003515Y-13914936D02*
X13013039Y-13924460D01*
X13013039Y-13924460D02*
X13003515Y-13933984D01*
X13003515Y-13933984D02*
X12993991Y-13924460D01*
X12993991Y-13924460D02*
X13003515Y-13914936D01*
X13003515Y-13914936D02*
X13003515Y-13933984D01*
X13136848Y-13733984D02*
X13155896Y-13733984D01*
X13155896Y-13733984D02*
X13174944Y-13743508D01*
X13174944Y-13743508D02*
X13184467Y-13753031D01*
X13184467Y-13753031D02*
X13193991Y-13772079D01*
X13193991Y-13772079D02*
X13203515Y-13810174D01*
X13203515Y-13810174D02*
X13203515Y-13857793D01*
X13203515Y-13857793D02*
X13193991Y-13895888D01*
X13193991Y-13895888D02*
X13184467Y-13914936D01*
X13184467Y-13914936D02*
X13174944Y-13924460D01*
X13174944Y-13924460D02*
X13155896Y-13933984D01*
X13155896Y-13933984D02*
X13136848Y-13933984D01*
X13136848Y-13933984D02*
X13117801Y-13924460D01*
X13117801Y-13924460D02*
X13108277Y-13914936D01*
X13108277Y-13914936D02*
X13098753Y-13895888D01*
X13098753Y-13895888D02*
X13089229Y-13857793D01*
X13089229Y-13857793D02*
X13089229Y-13810174D01*
X13089229Y-13810174D02*
X13098753Y-13772079D01*
X13098753Y-13772079D02*
X13108277Y-13753031D01*
X13108277Y-13753031D02*
X13117801Y-13743508D01*
X13117801Y-13743508D02*
X13136848Y-13733984D01*
X13393991Y-13933984D02*
X13279706Y-13933984D01*
X13336848Y-13933984D02*
X13336848Y-13733984D01*
X13336848Y-13733984D02*
X13317801Y-13762555D01*
X13317801Y-13762555D02*
X13298753Y-13781603D01*
X13298753Y-13781603D02*
X13279706Y-13791127D01*
X13584467Y-13933984D02*
X13470182Y-13933984D01*
X13527325Y-13933984D02*
X13527325Y-13733984D01*
X13527325Y-13733984D02*
X13508277Y-13762555D01*
X13508277Y-13762555D02*
X13489229Y-13781603D01*
X13489229Y-13781603D02*
X13470182Y-13791127D01*
X13698753Y-13819698D02*
X13679706Y-13810174D01*
X13679706Y-13810174D02*
X13670182Y-13800650D01*
X13670182Y-13800650D02*
X13660658Y-13781603D01*
X13660658Y-13781603D02*
X13660658Y-13772079D01*
X13660658Y-13772079D02*
X13670182Y-13753031D01*
X13670182Y-13753031D02*
X13679706Y-13743508D01*
X13679706Y-13743508D02*
X13698753Y-13733984D01*
X13698753Y-13733984D02*
X13736848Y-13733984D01*
X13736848Y-13733984D02*
X13755896Y-13743508D01*
X13755896Y-13743508D02*
X13765420Y-13753031D01*
X13765420Y-13753031D02*
X13774944Y-13772079D01*
X13774944Y-13772079D02*
X13774944Y-13781603D01*
X13774944Y-13781603D02*
X13765420Y-13800650D01*
X13765420Y-13800650D02*
X13755896Y-13810174D01*
X13755896Y-13810174D02*
X13736848Y-13819698D01*
X13736848Y-13819698D02*
X13698753Y-13819698D01*
X13698753Y-13819698D02*
X13679706Y-13829222D01*
X13679706Y-13829222D02*
X13670182Y-13838746D01*
X13670182Y-13838746D02*
X13660658Y-13857793D01*
X13660658Y-13857793D02*
X13660658Y-13895888D01*
X13660658Y-13895888D02*
X13670182Y-13914936D01*
X13670182Y-13914936D02*
X13679706Y-13924460D01*
X13679706Y-13924460D02*
X13698753Y-13933984D01*
X13698753Y-13933984D02*
X13736848Y-13933984D01*
X13736848Y-13933984D02*
X13755896Y-13924460D01*
X13755896Y-13924460D02*
X13765420Y-13914936D01*
X13765420Y-13914936D02*
X13774944Y-13895888D01*
X13774944Y-13895888D02*
X13774944Y-13857793D01*
X13774944Y-13857793D02*
X13765420Y-13838746D01*
X13765420Y-13838746D02*
X13755896Y-13829222D01*
X13755896Y-13829222D02*
X13736848Y-13819698D01*
X13851134Y-13733984D02*
X13851134Y-13772079D01*
X13927325Y-13733984D02*
X13927325Y-13772079D01*
X14222563Y-14010174D02*
X14213039Y-14000650D01*
X14213039Y-14000650D02*
X14193991Y-13972079D01*
X14193991Y-13972079D02*
X14184468Y-13953031D01*
X14184468Y-13953031D02*
X14174944Y-13924460D01*
X14174944Y-13924460D02*
X14165420Y-13876841D01*
X14165420Y-13876841D02*
X14165420Y-13838746D01*
X14165420Y-13838746D02*
X14174944Y-13791127D01*
X14174944Y-13791127D02*
X14184468Y-13762555D01*
X14184468Y-13762555D02*
X14193991Y-13743508D01*
X14193991Y-13743508D02*
X14213039Y-13714936D01*
X14213039Y-13714936D02*
X14222563Y-13705412D01*
X14384468Y-13733984D02*
X14346372Y-13733984D01*
X14346372Y-13733984D02*
X14327325Y-13743508D01*
X14327325Y-13743508D02*
X14317801Y-13753031D01*
X14317801Y-13753031D02*
X14298753Y-13781603D01*
X14298753Y-13781603D02*
X14289229Y-13819698D01*
X14289229Y-13819698D02*
X14289229Y-13895888D01*
X14289229Y-13895888D02*
X14298753Y-13914936D01*
X14298753Y-13914936D02*
X14308277Y-13924460D01*
X14308277Y-13924460D02*
X14327325Y-13933984D01*
X14327325Y-13933984D02*
X14365420Y-13933984D01*
X14365420Y-13933984D02*
X14384468Y-13924460D01*
X14384468Y-13924460D02*
X14393991Y-13914936D01*
X14393991Y-13914936D02*
X14403515Y-13895888D01*
X14403515Y-13895888D02*
X14403515Y-13848269D01*
X14403515Y-13848269D02*
X14393991Y-13829222D01*
X14393991Y-13829222D02*
X14384468Y-13819698D01*
X14384468Y-13819698D02*
X14365420Y-13810174D01*
X14365420Y-13810174D02*
X14327325Y-13810174D01*
X14327325Y-13810174D02*
X14308277Y-13819698D01*
X14308277Y-13819698D02*
X14298753Y-13829222D01*
X14298753Y-13829222D02*
X14289229Y-13848269D01*
X14574944Y-13733984D02*
X14536848Y-13733984D01*
X14536848Y-13733984D02*
X14517801Y-13743508D01*
X14517801Y-13743508D02*
X14508277Y-13753031D01*
X14508277Y-13753031D02*
X14489229Y-13781603D01*
X14489229Y-13781603D02*
X14479706Y-13819698D01*
X14479706Y-13819698D02*
X14479706Y-13895888D01*
X14479706Y-13895888D02*
X14489229Y-13914936D01*
X14489229Y-13914936D02*
X14498753Y-13924460D01*
X14498753Y-13924460D02*
X14517801Y-13933984D01*
X14517801Y-13933984D02*
X14555896Y-13933984D01*
X14555896Y-13933984D02*
X14574944Y-13924460D01*
X14574944Y-13924460D02*
X14584468Y-13914936D01*
X14584468Y-13914936D02*
X14593991Y-13895888D01*
X14593991Y-13895888D02*
X14593991Y-13848269D01*
X14593991Y-13848269D02*
X14584468Y-13829222D01*
X14584468Y-13829222D02*
X14574944Y-13819698D01*
X14574944Y-13819698D02*
X14555896Y-13810174D01*
X14555896Y-13810174D02*
X14517801Y-13810174D01*
X14517801Y-13810174D02*
X14498753Y-13819698D01*
X14498753Y-13819698D02*
X14489229Y-13829222D01*
X14489229Y-13829222D02*
X14479706Y-13848269D01*
X14832087Y-13933984D02*
X14832087Y-13733984D01*
X14917801Y-13933984D02*
X14917801Y-13829222D01*
X14917801Y-13829222D02*
X14908277Y-13810174D01*
X14908277Y-13810174D02*
X14889230Y-13800650D01*
X14889230Y-13800650D02*
X14860658Y-13800650D01*
X14860658Y-13800650D02*
X14841610Y-13810174D01*
X14841610Y-13810174D02*
X14832087Y-13819698D01*
X15041610Y-13933984D02*
X15022563Y-13924460D01*
X15022563Y-13924460D02*
X15013039Y-13914936D01*
X15013039Y-13914936D02*
X15003515Y-13895888D01*
X15003515Y-13895888D02*
X15003515Y-13838746D01*
X15003515Y-13838746D02*
X15013039Y-13819698D01*
X15013039Y-13819698D02*
X15022563Y-13810174D01*
X15022563Y-13810174D02*
X15041610Y-13800650D01*
X15041610Y-13800650D02*
X15070182Y-13800650D01*
X15070182Y-13800650D02*
X15089230Y-13810174D01*
X15089230Y-13810174D02*
X15098753Y-13819698D01*
X15098753Y-13819698D02*
X15108277Y-13838746D01*
X15108277Y-13838746D02*
X15108277Y-13895888D01*
X15108277Y-13895888D02*
X15098753Y-13914936D01*
X15098753Y-13914936D02*
X15089230Y-13924460D01*
X15089230Y-13924460D02*
X15070182Y-13933984D01*
X15070182Y-13933984D02*
X15041610Y-13933984D01*
X15222563Y-13933984D02*
X15203515Y-13924460D01*
X15203515Y-13924460D02*
X15193991Y-13905412D01*
X15193991Y-13905412D02*
X15193991Y-13733984D01*
X15374944Y-13924460D02*
X15355896Y-13933984D01*
X15355896Y-13933984D02*
X15317801Y-13933984D01*
X15317801Y-13933984D02*
X15298753Y-13924460D01*
X15298753Y-13924460D02*
X15289230Y-13905412D01*
X15289230Y-13905412D02*
X15289230Y-13829222D01*
X15289230Y-13829222D02*
X15298753Y-13810174D01*
X15298753Y-13810174D02*
X15317801Y-13800650D01*
X15317801Y-13800650D02*
X15355896Y-13800650D01*
X15355896Y-13800650D02*
X15374944Y-13810174D01*
X15374944Y-13810174D02*
X15384468Y-13829222D01*
X15384468Y-13829222D02*
X15384468Y-13848269D01*
X15384468Y-13848269D02*
X15289230Y-13867317D01*
X15460658Y-13924460D02*
X15479706Y-13933984D01*
X15479706Y-13933984D02*
X15517801Y-13933984D01*
X15517801Y-13933984D02*
X15536849Y-13924460D01*
X15536849Y-13924460D02*
X15546372Y-13905412D01*
X15546372Y-13905412D02*
X15546372Y-13895888D01*
X15546372Y-13895888D02*
X15536849Y-13876841D01*
X15536849Y-13876841D02*
X15517801Y-13867317D01*
X15517801Y-13867317D02*
X15489230Y-13867317D01*
X15489230Y-13867317D02*
X15470182Y-13857793D01*
X15470182Y-13857793D02*
X15460658Y-13838746D01*
X15460658Y-13838746D02*
X15460658Y-13829222D01*
X15460658Y-13829222D02*
X15470182Y-13810174D01*
X15470182Y-13810174D02*
X15489230Y-13800650D01*
X15489230Y-13800650D02*
X15517801Y-13800650D01*
X15517801Y-13800650D02*
X15536849Y-13810174D01*
X15613039Y-14010174D02*
X15622563Y-14000650D01*
X15622563Y-14000650D02*
X15641611Y-13972079D01*
X15641611Y-13972079D02*
X15651134Y-13953031D01*
X15651134Y-13953031D02*
X15660658Y-13924460D01*
X15660658Y-13924460D02*
X15670182Y-13876841D01*
X15670182Y-13876841D02*
X15670182Y-13838746D01*
X15670182Y-13838746D02*
X15660658Y-13791127D01*
X15660658Y-13791127D02*
X15651134Y-13762555D01*
X15651134Y-13762555D02*
X15641611Y-13743508D01*
X15641611Y-13743508D02*
X15622563Y-13714936D01*
X15622563Y-13714936D02*
X15613039Y-13705412D01*
D12*
X10647500Y-14106500D02*
G75*
G02*
X10597500Y-14106500I-25000J0D01*
G01*
X10597500Y-14106500D02*
G75*
G02*
X10647500Y-14106500I25000J0D01*
G01*
D11*
X10946372Y-13997984D02*
X10965420Y-13997984D01*
X10965420Y-13997984D02*
X10984467Y-14007508D01*
X10984467Y-14007508D02*
X10993991Y-14017031D01*
X10993991Y-14017031D02*
X11003515Y-14036079D01*
X11003515Y-14036079D02*
X11013039Y-14074174D01*
X11013039Y-14074174D02*
X11013039Y-14121793D01*
X11013039Y-14121793D02*
X11003515Y-14159888D01*
X11003515Y-14159888D02*
X10993991Y-14178936D01*
X10993991Y-14178936D02*
X10984467Y-14188460D01*
X10984467Y-14188460D02*
X10965420Y-14197984D01*
X10965420Y-14197984D02*
X10946372Y-14197984D01*
X10946372Y-14197984D02*
X10927324Y-14188460D01*
X10927324Y-14188460D02*
X10917801Y-14178936D01*
X10917801Y-14178936D02*
X10908277Y-14159888D01*
X10908277Y-14159888D02*
X10898753Y-14121793D01*
X10898753Y-14121793D02*
X10898753Y-14074174D01*
X10898753Y-14074174D02*
X10908277Y-14036079D01*
X10908277Y-14036079D02*
X10917801Y-14017031D01*
X10917801Y-14017031D02*
X10927324Y-14007508D01*
X10927324Y-14007508D02*
X10946372Y-13997984D01*
X11098753Y-14178936D02*
X11108277Y-14188460D01*
X11108277Y-14188460D02*
X11098753Y-14197984D01*
X11098753Y-14197984D02*
X11089229Y-14188460D01*
X11089229Y-14188460D02*
X11098753Y-14178936D01*
X11098753Y-14178936D02*
X11098753Y-14197984D01*
X11289229Y-13997984D02*
X11193991Y-13997984D01*
X11193991Y-13997984D02*
X11184467Y-14093222D01*
X11184467Y-14093222D02*
X11193991Y-14083698D01*
X11193991Y-14083698D02*
X11213039Y-14074174D01*
X11213039Y-14074174D02*
X11260658Y-14074174D01*
X11260658Y-14074174D02*
X11279705Y-14083698D01*
X11279705Y-14083698D02*
X11289229Y-14093222D01*
X11289229Y-14093222D02*
X11298753Y-14112269D01*
X11298753Y-14112269D02*
X11298753Y-14159888D01*
X11298753Y-14159888D02*
X11289229Y-14178936D01*
X11289229Y-14178936D02*
X11279705Y-14188460D01*
X11279705Y-14188460D02*
X11260658Y-14197984D01*
X11260658Y-14197984D02*
X11213039Y-14197984D01*
X11213039Y-14197984D02*
X11193991Y-14188460D01*
X11193991Y-14188460D02*
X11184467Y-14178936D01*
X11422562Y-13997984D02*
X11441610Y-13997984D01*
X11441610Y-13997984D02*
X11460658Y-14007508D01*
X11460658Y-14007508D02*
X11470182Y-14017031D01*
X11470182Y-14017031D02*
X11479705Y-14036079D01*
X11479705Y-14036079D02*
X11489229Y-14074174D01*
X11489229Y-14074174D02*
X11489229Y-14121793D01*
X11489229Y-14121793D02*
X11479705Y-14159888D01*
X11479705Y-14159888D02*
X11470182Y-14178936D01*
X11470182Y-14178936D02*
X11460658Y-14188460D01*
X11460658Y-14188460D02*
X11441610Y-14197984D01*
X11441610Y-14197984D02*
X11422562Y-14197984D01*
X11422562Y-14197984D02*
X11403515Y-14188460D01*
X11403515Y-14188460D02*
X11393991Y-14178936D01*
X11393991Y-14178936D02*
X11384467Y-14159888D01*
X11384467Y-14159888D02*
X11374943Y-14121793D01*
X11374943Y-14121793D02*
X11374943Y-14074174D01*
X11374943Y-14074174D02*
X11384467Y-14036079D01*
X11384467Y-14036079D02*
X11393991Y-14017031D01*
X11393991Y-14017031D02*
X11403515Y-14007508D01*
X11403515Y-14007508D02*
X11422562Y-13997984D01*
X11613039Y-13997984D02*
X11632086Y-13997984D01*
X11632086Y-13997984D02*
X11651134Y-14007508D01*
X11651134Y-14007508D02*
X11660658Y-14017031D01*
X11660658Y-14017031D02*
X11670182Y-14036079D01*
X11670182Y-14036079D02*
X11679705Y-14074174D01*
X11679705Y-14074174D02*
X11679705Y-14121793D01*
X11679705Y-14121793D02*
X11670182Y-14159888D01*
X11670182Y-14159888D02*
X11660658Y-14178936D01*
X11660658Y-14178936D02*
X11651134Y-14188460D01*
X11651134Y-14188460D02*
X11632086Y-14197984D01*
X11632086Y-14197984D02*
X11613039Y-14197984D01*
X11613039Y-14197984D02*
X11593991Y-14188460D01*
X11593991Y-14188460D02*
X11584467Y-14178936D01*
X11584467Y-14178936D02*
X11574943Y-14159888D01*
X11574943Y-14159888D02*
X11565420Y-14121793D01*
X11565420Y-14121793D02*
X11565420Y-14074174D01*
X11565420Y-14074174D02*
X11574943Y-14036079D01*
X11574943Y-14036079D02*
X11584467Y-14017031D01*
X11584467Y-14017031D02*
X11593991Y-14007508D01*
X11593991Y-14007508D02*
X11613039Y-13997984D01*
X11765420Y-14197984D02*
X11765420Y-14064650D01*
X11765420Y-14083698D02*
X11774943Y-14074174D01*
X11774943Y-14074174D02*
X11793991Y-14064650D01*
X11793991Y-14064650D02*
X11822563Y-14064650D01*
X11822563Y-14064650D02*
X11841610Y-14074174D01*
X11841610Y-14074174D02*
X11851134Y-14093222D01*
X11851134Y-14093222D02*
X11851134Y-14197984D01*
X11851134Y-14093222D02*
X11860658Y-14074174D01*
X11860658Y-14074174D02*
X11879705Y-14064650D01*
X11879705Y-14064650D02*
X11908277Y-14064650D01*
X11908277Y-14064650D02*
X11927324Y-14074174D01*
X11927324Y-14074174D02*
X11936848Y-14093222D01*
X11936848Y-14093222D02*
X11936848Y-14197984D01*
X12032086Y-14197984D02*
X12032086Y-14064650D01*
X12032086Y-14083698D02*
X12041610Y-14074174D01*
X12041610Y-14074174D02*
X12060658Y-14064650D01*
X12060658Y-14064650D02*
X12089229Y-14064650D01*
X12089229Y-14064650D02*
X12108277Y-14074174D01*
X12108277Y-14074174D02*
X12117801Y-14093222D01*
X12117801Y-14093222D02*
X12117801Y-14197984D01*
X12117801Y-14093222D02*
X12127324Y-14074174D01*
X12127324Y-14074174D02*
X12146372Y-14064650D01*
X12146372Y-14064650D02*
X12174943Y-14064650D01*
X12174943Y-14064650D02*
X12193991Y-14074174D01*
X12193991Y-14074174D02*
X12203515Y-14093222D01*
X12203515Y-14093222D02*
X12203515Y-14197984D01*
X12593991Y-13988460D02*
X12422563Y-14245603D01*
X12851134Y-13997984D02*
X12870182Y-13997984D01*
X12870182Y-13997984D02*
X12889229Y-14007508D01*
X12889229Y-14007508D02*
X12898753Y-14017031D01*
X12898753Y-14017031D02*
X12908277Y-14036079D01*
X12908277Y-14036079D02*
X12917801Y-14074174D01*
X12917801Y-14074174D02*
X12917801Y-14121793D01*
X12917801Y-14121793D02*
X12908277Y-14159888D01*
X12908277Y-14159888D02*
X12898753Y-14178936D01*
X12898753Y-14178936D02*
X12889229Y-14188460D01*
X12889229Y-14188460D02*
X12870182Y-14197984D01*
X12870182Y-14197984D02*
X12851134Y-14197984D01*
X12851134Y-14197984D02*
X12832086Y-14188460D01*
X12832086Y-14188460D02*
X12822563Y-14178936D01*
X12822563Y-14178936D02*
X12813039Y-14159888D01*
X12813039Y-14159888D02*
X12803515Y-14121793D01*
X12803515Y-14121793D02*
X12803515Y-14074174D01*
X12803515Y-14074174D02*
X12813039Y-14036079D01*
X12813039Y-14036079D02*
X12822563Y-14017031D01*
X12822563Y-14017031D02*
X12832086Y-14007508D01*
X12832086Y-14007508D02*
X12851134Y-13997984D01*
X13003515Y-14178936D02*
X13013039Y-14188460D01*
X13013039Y-14188460D02*
X13003515Y-14197984D01*
X13003515Y-14197984D02*
X12993991Y-14188460D01*
X12993991Y-14188460D02*
X13003515Y-14178936D01*
X13003515Y-14178936D02*
X13003515Y-14197984D01*
X13136848Y-13997984D02*
X13155896Y-13997984D01*
X13155896Y-13997984D02*
X13174944Y-14007508D01*
X13174944Y-14007508D02*
X13184467Y-14017031D01*
X13184467Y-14017031D02*
X13193991Y-14036079D01*
X13193991Y-14036079D02*
X13203515Y-14074174D01*
X13203515Y-14074174D02*
X13203515Y-14121793D01*
X13203515Y-14121793D02*
X13193991Y-14159888D01*
X13193991Y-14159888D02*
X13184467Y-14178936D01*
X13184467Y-14178936D02*
X13174944Y-14188460D01*
X13174944Y-14188460D02*
X13155896Y-14197984D01*
X13155896Y-14197984D02*
X13136848Y-14197984D01*
X13136848Y-14197984D02*
X13117801Y-14188460D01*
X13117801Y-14188460D02*
X13108277Y-14178936D01*
X13108277Y-14178936D02*
X13098753Y-14159888D01*
X13098753Y-14159888D02*
X13089229Y-14121793D01*
X13089229Y-14121793D02*
X13089229Y-14074174D01*
X13089229Y-14074174D02*
X13098753Y-14036079D01*
X13098753Y-14036079D02*
X13108277Y-14017031D01*
X13108277Y-14017031D02*
X13117801Y-14007508D01*
X13117801Y-14007508D02*
X13136848Y-13997984D01*
X13393991Y-14197984D02*
X13279706Y-14197984D01*
X13336848Y-14197984D02*
X13336848Y-13997984D01*
X13336848Y-13997984D02*
X13317801Y-14026555D01*
X13317801Y-14026555D02*
X13298753Y-14045603D01*
X13298753Y-14045603D02*
X13279706Y-14055127D01*
X13489229Y-14197984D02*
X13527325Y-14197984D01*
X13527325Y-14197984D02*
X13546372Y-14188460D01*
X13546372Y-14188460D02*
X13555896Y-14178936D01*
X13555896Y-14178936D02*
X13574944Y-14150365D01*
X13574944Y-14150365D02*
X13584467Y-14112269D01*
X13584467Y-14112269D02*
X13584467Y-14036079D01*
X13584467Y-14036079D02*
X13574944Y-14017031D01*
X13574944Y-14017031D02*
X13565420Y-14007508D01*
X13565420Y-14007508D02*
X13546372Y-13997984D01*
X13546372Y-13997984D02*
X13508277Y-13997984D01*
X13508277Y-13997984D02*
X13489229Y-14007508D01*
X13489229Y-14007508D02*
X13479706Y-14017031D01*
X13479706Y-14017031D02*
X13470182Y-14036079D01*
X13470182Y-14036079D02*
X13470182Y-14083698D01*
X13470182Y-14083698D02*
X13479706Y-14102746D01*
X13479706Y-14102746D02*
X13489229Y-14112269D01*
X13489229Y-14112269D02*
X13508277Y-14121793D01*
X13508277Y-14121793D02*
X13546372Y-14121793D01*
X13546372Y-14121793D02*
X13565420Y-14112269D01*
X13565420Y-14112269D02*
X13574944Y-14102746D01*
X13574944Y-14102746D02*
X13584467Y-14083698D01*
X13651134Y-13997984D02*
X13784467Y-13997984D01*
X13784467Y-13997984D02*
X13698753Y-14197984D01*
X13851134Y-13997984D02*
X13851134Y-14036079D01*
X13927325Y-13997984D02*
X13927325Y-14036079D01*
X14222563Y-14274174D02*
X14213039Y-14264650D01*
X14213039Y-14264650D02*
X14193991Y-14236079D01*
X14193991Y-14236079D02*
X14184468Y-14217031D01*
X14184468Y-14217031D02*
X14174944Y-14188460D01*
X14174944Y-14188460D02*
X14165420Y-14140841D01*
X14165420Y-14140841D02*
X14165420Y-14102746D01*
X14165420Y-14102746D02*
X14174944Y-14055127D01*
X14174944Y-14055127D02*
X14184468Y-14026555D01*
X14184468Y-14026555D02*
X14193991Y-14007508D01*
X14193991Y-14007508D02*
X14213039Y-13978936D01*
X14213039Y-13978936D02*
X14222563Y-13969412D01*
X14403515Y-14197984D02*
X14289229Y-14197984D01*
X14346372Y-14197984D02*
X14346372Y-13997984D01*
X14346372Y-13997984D02*
X14327325Y-14026555D01*
X14327325Y-14026555D02*
X14308277Y-14045603D01*
X14308277Y-14045603D02*
X14289229Y-14055127D01*
X14470182Y-13997984D02*
X14603515Y-13997984D01*
X14603515Y-13997984D02*
X14517801Y-14197984D01*
X14832087Y-14197984D02*
X14832087Y-13997984D01*
X14917801Y-14197984D02*
X14917801Y-14093222D01*
X14917801Y-14093222D02*
X14908277Y-14074174D01*
X14908277Y-14074174D02*
X14889230Y-14064650D01*
X14889230Y-14064650D02*
X14860658Y-14064650D01*
X14860658Y-14064650D02*
X14841610Y-14074174D01*
X14841610Y-14074174D02*
X14832087Y-14083698D01*
X15041610Y-14197984D02*
X15022563Y-14188460D01*
X15022563Y-14188460D02*
X15013039Y-14178936D01*
X15013039Y-14178936D02*
X15003515Y-14159888D01*
X15003515Y-14159888D02*
X15003515Y-14102746D01*
X15003515Y-14102746D02*
X15013039Y-14083698D01*
X15013039Y-14083698D02*
X15022563Y-14074174D01*
X15022563Y-14074174D02*
X15041610Y-14064650D01*
X15041610Y-14064650D02*
X15070182Y-14064650D01*
X15070182Y-14064650D02*
X15089230Y-14074174D01*
X15089230Y-14074174D02*
X15098753Y-14083698D01*
X15098753Y-14083698D02*
X15108277Y-14102746D01*
X15108277Y-14102746D02*
X15108277Y-14159888D01*
X15108277Y-14159888D02*
X15098753Y-14178936D01*
X15098753Y-14178936D02*
X15089230Y-14188460D01*
X15089230Y-14188460D02*
X15070182Y-14197984D01*
X15070182Y-14197984D02*
X15041610Y-14197984D01*
X15222563Y-14197984D02*
X15203515Y-14188460D01*
X15203515Y-14188460D02*
X15193991Y-14169412D01*
X15193991Y-14169412D02*
X15193991Y-13997984D01*
X15374944Y-14188460D02*
X15355896Y-14197984D01*
X15355896Y-14197984D02*
X15317801Y-14197984D01*
X15317801Y-14197984D02*
X15298753Y-14188460D01*
X15298753Y-14188460D02*
X15289230Y-14169412D01*
X15289230Y-14169412D02*
X15289230Y-14093222D01*
X15289230Y-14093222D02*
X15298753Y-14074174D01*
X15298753Y-14074174D02*
X15317801Y-14064650D01*
X15317801Y-14064650D02*
X15355896Y-14064650D01*
X15355896Y-14064650D02*
X15374944Y-14074174D01*
X15374944Y-14074174D02*
X15384468Y-14093222D01*
X15384468Y-14093222D02*
X15384468Y-14112269D01*
X15384468Y-14112269D02*
X15289230Y-14131317D01*
X15460658Y-14188460D02*
X15479706Y-14197984D01*
X15479706Y-14197984D02*
X15517801Y-14197984D01*
X15517801Y-14197984D02*
X15536849Y-14188460D01*
X15536849Y-14188460D02*
X15546372Y-14169412D01*
X15546372Y-14169412D02*
X15546372Y-14159888D01*
X15546372Y-14159888D02*
X15536849Y-14140841D01*
X15536849Y-14140841D02*
X15517801Y-14131317D01*
X15517801Y-14131317D02*
X15489230Y-14131317D01*
X15489230Y-14131317D02*
X15470182Y-14121793D01*
X15470182Y-14121793D02*
X15460658Y-14102746D01*
X15460658Y-14102746D02*
X15460658Y-14093222D01*
X15460658Y-14093222D02*
X15470182Y-14074174D01*
X15470182Y-14074174D02*
X15489230Y-14064650D01*
X15489230Y-14064650D02*
X15517801Y-14064650D01*
X15517801Y-14064650D02*
X15536849Y-14074174D01*
X15613039Y-14274174D02*
X15622563Y-14264650D01*
X15622563Y-14264650D02*
X15641611Y-14236079D01*
X15641611Y-14236079D02*
X15651134Y-14217031D01*
X15651134Y-14217031D02*
X15660658Y-14188460D01*
X15660658Y-14188460D02*
X15670182Y-14140841D01*
X15670182Y-14140841D02*
X15670182Y-14102746D01*
X15670182Y-14102746D02*
X15660658Y-14055127D01*
X15660658Y-14055127D02*
X15651134Y-14026555D01*
X15651134Y-14026555D02*
X15641611Y-14007508D01*
X15641611Y-14007508D02*
X15622563Y-13978936D01*
X15622563Y-13978936D02*
X15613039Y-13969412D01*
D12*
X10607500Y-14330500D02*
X10607500Y-14410500D01*
X10567500Y-14370500D02*
X10647500Y-14370500D01*
D11*
X10946372Y-14261984D02*
X10965420Y-14261984D01*
X10965420Y-14261984D02*
X10984467Y-14271508D01*
X10984467Y-14271508D02*
X10993991Y-14281031D01*
X10993991Y-14281031D02*
X11003515Y-14300079D01*
X11003515Y-14300079D02*
X11013039Y-14338174D01*
X11013039Y-14338174D02*
X11013039Y-14385793D01*
X11013039Y-14385793D02*
X11003515Y-14423888D01*
X11003515Y-14423888D02*
X10993991Y-14442936D01*
X10993991Y-14442936D02*
X10984467Y-14452460D01*
X10984467Y-14452460D02*
X10965420Y-14461984D01*
X10965420Y-14461984D02*
X10946372Y-14461984D01*
X10946372Y-14461984D02*
X10927324Y-14452460D01*
X10927324Y-14452460D02*
X10917801Y-14442936D01*
X10917801Y-14442936D02*
X10908277Y-14423888D01*
X10908277Y-14423888D02*
X10898753Y-14385793D01*
X10898753Y-14385793D02*
X10898753Y-14338174D01*
X10898753Y-14338174D02*
X10908277Y-14300079D01*
X10908277Y-14300079D02*
X10917801Y-14281031D01*
X10917801Y-14281031D02*
X10927324Y-14271508D01*
X10927324Y-14271508D02*
X10946372Y-14261984D01*
X11098753Y-14442936D02*
X11108277Y-14452460D01*
X11108277Y-14452460D02*
X11098753Y-14461984D01*
X11098753Y-14461984D02*
X11089229Y-14452460D01*
X11089229Y-14452460D02*
X11098753Y-14442936D01*
X11098753Y-14442936D02*
X11098753Y-14461984D01*
X11222562Y-14347698D02*
X11203515Y-14338174D01*
X11203515Y-14338174D02*
X11193991Y-14328650D01*
X11193991Y-14328650D02*
X11184467Y-14309603D01*
X11184467Y-14309603D02*
X11184467Y-14300079D01*
X11184467Y-14300079D02*
X11193991Y-14281031D01*
X11193991Y-14281031D02*
X11203515Y-14271508D01*
X11203515Y-14271508D02*
X11222562Y-14261984D01*
X11222562Y-14261984D02*
X11260658Y-14261984D01*
X11260658Y-14261984D02*
X11279705Y-14271508D01*
X11279705Y-14271508D02*
X11289229Y-14281031D01*
X11289229Y-14281031D02*
X11298753Y-14300079D01*
X11298753Y-14300079D02*
X11298753Y-14309603D01*
X11298753Y-14309603D02*
X11289229Y-14328650D01*
X11289229Y-14328650D02*
X11279705Y-14338174D01*
X11279705Y-14338174D02*
X11260658Y-14347698D01*
X11260658Y-14347698D02*
X11222562Y-14347698D01*
X11222562Y-14347698D02*
X11203515Y-14357222D01*
X11203515Y-14357222D02*
X11193991Y-14366746D01*
X11193991Y-14366746D02*
X11184467Y-14385793D01*
X11184467Y-14385793D02*
X11184467Y-14423888D01*
X11184467Y-14423888D02*
X11193991Y-14442936D01*
X11193991Y-14442936D02*
X11203515Y-14452460D01*
X11203515Y-14452460D02*
X11222562Y-14461984D01*
X11222562Y-14461984D02*
X11260658Y-14461984D01*
X11260658Y-14461984D02*
X11279705Y-14452460D01*
X11279705Y-14452460D02*
X11289229Y-14442936D01*
X11289229Y-14442936D02*
X11298753Y-14423888D01*
X11298753Y-14423888D02*
X11298753Y-14385793D01*
X11298753Y-14385793D02*
X11289229Y-14366746D01*
X11289229Y-14366746D02*
X11279705Y-14357222D01*
X11279705Y-14357222D02*
X11260658Y-14347698D01*
X11422562Y-14261984D02*
X11441610Y-14261984D01*
X11441610Y-14261984D02*
X11460658Y-14271508D01*
X11460658Y-14271508D02*
X11470182Y-14281031D01*
X11470182Y-14281031D02*
X11479705Y-14300079D01*
X11479705Y-14300079D02*
X11489229Y-14338174D01*
X11489229Y-14338174D02*
X11489229Y-14385793D01*
X11489229Y-14385793D02*
X11479705Y-14423888D01*
X11479705Y-14423888D02*
X11470182Y-14442936D01*
X11470182Y-14442936D02*
X11460658Y-14452460D01*
X11460658Y-14452460D02*
X11441610Y-14461984D01*
X11441610Y-14461984D02*
X11422562Y-14461984D01*
X11422562Y-14461984D02*
X11403515Y-14452460D01*
X11403515Y-14452460D02*
X11393991Y-14442936D01*
X11393991Y-14442936D02*
X11384467Y-14423888D01*
X11384467Y-14423888D02*
X11374943Y-14385793D01*
X11374943Y-14385793D02*
X11374943Y-14338174D01*
X11374943Y-14338174D02*
X11384467Y-14300079D01*
X11384467Y-14300079D02*
X11393991Y-14281031D01*
X11393991Y-14281031D02*
X11403515Y-14271508D01*
X11403515Y-14271508D02*
X11422562Y-14261984D01*
X11613039Y-14261984D02*
X11632086Y-14261984D01*
X11632086Y-14261984D02*
X11651134Y-14271508D01*
X11651134Y-14271508D02*
X11660658Y-14281031D01*
X11660658Y-14281031D02*
X11670182Y-14300079D01*
X11670182Y-14300079D02*
X11679705Y-14338174D01*
X11679705Y-14338174D02*
X11679705Y-14385793D01*
X11679705Y-14385793D02*
X11670182Y-14423888D01*
X11670182Y-14423888D02*
X11660658Y-14442936D01*
X11660658Y-14442936D02*
X11651134Y-14452460D01*
X11651134Y-14452460D02*
X11632086Y-14461984D01*
X11632086Y-14461984D02*
X11613039Y-14461984D01*
X11613039Y-14461984D02*
X11593991Y-14452460D01*
X11593991Y-14452460D02*
X11584467Y-14442936D01*
X11584467Y-14442936D02*
X11574943Y-14423888D01*
X11574943Y-14423888D02*
X11565420Y-14385793D01*
X11565420Y-14385793D02*
X11565420Y-14338174D01*
X11565420Y-14338174D02*
X11574943Y-14300079D01*
X11574943Y-14300079D02*
X11584467Y-14281031D01*
X11584467Y-14281031D02*
X11593991Y-14271508D01*
X11593991Y-14271508D02*
X11613039Y-14261984D01*
X11765420Y-14461984D02*
X11765420Y-14328650D01*
X11765420Y-14347698D02*
X11774943Y-14338174D01*
X11774943Y-14338174D02*
X11793991Y-14328650D01*
X11793991Y-14328650D02*
X11822563Y-14328650D01*
X11822563Y-14328650D02*
X11841610Y-14338174D01*
X11841610Y-14338174D02*
X11851134Y-14357222D01*
X11851134Y-14357222D02*
X11851134Y-14461984D01*
X11851134Y-14357222D02*
X11860658Y-14338174D01*
X11860658Y-14338174D02*
X11879705Y-14328650D01*
X11879705Y-14328650D02*
X11908277Y-14328650D01*
X11908277Y-14328650D02*
X11927324Y-14338174D01*
X11927324Y-14338174D02*
X11936848Y-14357222D01*
X11936848Y-14357222D02*
X11936848Y-14461984D01*
X12032086Y-14461984D02*
X12032086Y-14328650D01*
X12032086Y-14347698D02*
X12041610Y-14338174D01*
X12041610Y-14338174D02*
X12060658Y-14328650D01*
X12060658Y-14328650D02*
X12089229Y-14328650D01*
X12089229Y-14328650D02*
X12108277Y-14338174D01*
X12108277Y-14338174D02*
X12117801Y-14357222D01*
X12117801Y-14357222D02*
X12117801Y-14461984D01*
X12117801Y-14357222D02*
X12127324Y-14338174D01*
X12127324Y-14338174D02*
X12146372Y-14328650D01*
X12146372Y-14328650D02*
X12174943Y-14328650D01*
X12174943Y-14328650D02*
X12193991Y-14338174D01*
X12193991Y-14338174D02*
X12203515Y-14357222D01*
X12203515Y-14357222D02*
X12203515Y-14461984D01*
X12593991Y-14252460D02*
X12422563Y-14509603D01*
X12851134Y-14261984D02*
X12870182Y-14261984D01*
X12870182Y-14261984D02*
X12889229Y-14271508D01*
X12889229Y-14271508D02*
X12898753Y-14281031D01*
X12898753Y-14281031D02*
X12908277Y-14300079D01*
X12908277Y-14300079D02*
X12917801Y-14338174D01*
X12917801Y-14338174D02*
X12917801Y-14385793D01*
X12917801Y-14385793D02*
X12908277Y-14423888D01*
X12908277Y-14423888D02*
X12898753Y-14442936D01*
X12898753Y-14442936D02*
X12889229Y-14452460D01*
X12889229Y-14452460D02*
X12870182Y-14461984D01*
X12870182Y-14461984D02*
X12851134Y-14461984D01*
X12851134Y-14461984D02*
X12832086Y-14452460D01*
X12832086Y-14452460D02*
X12822563Y-14442936D01*
X12822563Y-14442936D02*
X12813039Y-14423888D01*
X12813039Y-14423888D02*
X12803515Y-14385793D01*
X12803515Y-14385793D02*
X12803515Y-14338174D01*
X12803515Y-14338174D02*
X12813039Y-14300079D01*
X12813039Y-14300079D02*
X12822563Y-14281031D01*
X12822563Y-14281031D02*
X12832086Y-14271508D01*
X12832086Y-14271508D02*
X12851134Y-14261984D01*
X13003515Y-14442936D02*
X13013039Y-14452460D01*
X13013039Y-14452460D02*
X13003515Y-14461984D01*
X13003515Y-14461984D02*
X12993991Y-14452460D01*
X12993991Y-14452460D02*
X13003515Y-14442936D01*
X13003515Y-14442936D02*
X13003515Y-14461984D01*
X13136848Y-14261984D02*
X13155896Y-14261984D01*
X13155896Y-14261984D02*
X13174944Y-14271508D01*
X13174944Y-14271508D02*
X13184467Y-14281031D01*
X13184467Y-14281031D02*
X13193991Y-14300079D01*
X13193991Y-14300079D02*
X13203515Y-14338174D01*
X13203515Y-14338174D02*
X13203515Y-14385793D01*
X13203515Y-14385793D02*
X13193991Y-14423888D01*
X13193991Y-14423888D02*
X13184467Y-14442936D01*
X13184467Y-14442936D02*
X13174944Y-14452460D01*
X13174944Y-14452460D02*
X13155896Y-14461984D01*
X13155896Y-14461984D02*
X13136848Y-14461984D01*
X13136848Y-14461984D02*
X13117801Y-14452460D01*
X13117801Y-14452460D02*
X13108277Y-14442936D01*
X13108277Y-14442936D02*
X13098753Y-14423888D01*
X13098753Y-14423888D02*
X13089229Y-14385793D01*
X13089229Y-14385793D02*
X13089229Y-14338174D01*
X13089229Y-14338174D02*
X13098753Y-14300079D01*
X13098753Y-14300079D02*
X13108277Y-14281031D01*
X13108277Y-14281031D02*
X13117801Y-14271508D01*
X13117801Y-14271508D02*
X13136848Y-14261984D01*
X13270182Y-14261984D02*
X13393991Y-14261984D01*
X13393991Y-14261984D02*
X13327325Y-14338174D01*
X13327325Y-14338174D02*
X13355896Y-14338174D01*
X13355896Y-14338174D02*
X13374944Y-14347698D01*
X13374944Y-14347698D02*
X13384467Y-14357222D01*
X13384467Y-14357222D02*
X13393991Y-14376269D01*
X13393991Y-14376269D02*
X13393991Y-14423888D01*
X13393991Y-14423888D02*
X13384467Y-14442936D01*
X13384467Y-14442936D02*
X13374944Y-14452460D01*
X13374944Y-14452460D02*
X13355896Y-14461984D01*
X13355896Y-14461984D02*
X13298753Y-14461984D01*
X13298753Y-14461984D02*
X13279706Y-14452460D01*
X13279706Y-14452460D02*
X13270182Y-14442936D01*
X13584467Y-14461984D02*
X13470182Y-14461984D01*
X13527325Y-14461984D02*
X13527325Y-14261984D01*
X13527325Y-14261984D02*
X13508277Y-14290555D01*
X13508277Y-14290555D02*
X13489229Y-14309603D01*
X13489229Y-14309603D02*
X13470182Y-14319127D01*
X13765420Y-14261984D02*
X13670182Y-14261984D01*
X13670182Y-14261984D02*
X13660658Y-14357222D01*
X13660658Y-14357222D02*
X13670182Y-14347698D01*
X13670182Y-14347698D02*
X13689229Y-14338174D01*
X13689229Y-14338174D02*
X13736848Y-14338174D01*
X13736848Y-14338174D02*
X13755896Y-14347698D01*
X13755896Y-14347698D02*
X13765420Y-14357222D01*
X13765420Y-14357222D02*
X13774944Y-14376269D01*
X13774944Y-14376269D02*
X13774944Y-14423888D01*
X13774944Y-14423888D02*
X13765420Y-14442936D01*
X13765420Y-14442936D02*
X13755896Y-14452460D01*
X13755896Y-14452460D02*
X13736848Y-14461984D01*
X13736848Y-14461984D02*
X13689229Y-14461984D01*
X13689229Y-14461984D02*
X13670182Y-14452460D01*
X13670182Y-14452460D02*
X13660658Y-14442936D01*
X13851134Y-14261984D02*
X13851134Y-14300079D01*
X13927325Y-14261984D02*
X13927325Y-14300079D01*
X14222563Y-14538174D02*
X14213039Y-14528650D01*
X14213039Y-14528650D02*
X14193991Y-14500079D01*
X14193991Y-14500079D02*
X14184468Y-14481031D01*
X14184468Y-14481031D02*
X14174944Y-14452460D01*
X14174944Y-14452460D02*
X14165420Y-14404841D01*
X14165420Y-14404841D02*
X14165420Y-14366746D01*
X14165420Y-14366746D02*
X14174944Y-14319127D01*
X14174944Y-14319127D02*
X14184468Y-14290555D01*
X14184468Y-14290555D02*
X14193991Y-14271508D01*
X14193991Y-14271508D02*
X14213039Y-14242936D01*
X14213039Y-14242936D02*
X14222563Y-14233412D01*
X14327325Y-14347698D02*
X14308277Y-14338174D01*
X14308277Y-14338174D02*
X14298753Y-14328650D01*
X14298753Y-14328650D02*
X14289229Y-14309603D01*
X14289229Y-14309603D02*
X14289229Y-14300079D01*
X14289229Y-14300079D02*
X14298753Y-14281031D01*
X14298753Y-14281031D02*
X14308277Y-14271508D01*
X14308277Y-14271508D02*
X14327325Y-14261984D01*
X14327325Y-14261984D02*
X14365420Y-14261984D01*
X14365420Y-14261984D02*
X14384468Y-14271508D01*
X14384468Y-14271508D02*
X14393991Y-14281031D01*
X14393991Y-14281031D02*
X14403515Y-14300079D01*
X14403515Y-14300079D02*
X14403515Y-14309603D01*
X14403515Y-14309603D02*
X14393991Y-14328650D01*
X14393991Y-14328650D02*
X14384468Y-14338174D01*
X14384468Y-14338174D02*
X14365420Y-14347698D01*
X14365420Y-14347698D02*
X14327325Y-14347698D01*
X14327325Y-14347698D02*
X14308277Y-14357222D01*
X14308277Y-14357222D02*
X14298753Y-14366746D01*
X14298753Y-14366746D02*
X14289229Y-14385793D01*
X14289229Y-14385793D02*
X14289229Y-14423888D01*
X14289229Y-14423888D02*
X14298753Y-14442936D01*
X14298753Y-14442936D02*
X14308277Y-14452460D01*
X14308277Y-14452460D02*
X14327325Y-14461984D01*
X14327325Y-14461984D02*
X14365420Y-14461984D01*
X14365420Y-14461984D02*
X14384468Y-14452460D01*
X14384468Y-14452460D02*
X14393991Y-14442936D01*
X14393991Y-14442936D02*
X14403515Y-14423888D01*
X14403515Y-14423888D02*
X14403515Y-14385793D01*
X14403515Y-14385793D02*
X14393991Y-14366746D01*
X14393991Y-14366746D02*
X14384468Y-14357222D01*
X14384468Y-14357222D02*
X14365420Y-14347698D01*
X14641610Y-14461984D02*
X14641610Y-14261984D01*
X14727325Y-14461984D02*
X14727325Y-14357222D01*
X14727325Y-14357222D02*
X14717801Y-14338174D01*
X14717801Y-14338174D02*
X14698753Y-14328650D01*
X14698753Y-14328650D02*
X14670182Y-14328650D01*
X14670182Y-14328650D02*
X14651134Y-14338174D01*
X14651134Y-14338174D02*
X14641610Y-14347698D01*
X14851134Y-14461984D02*
X14832087Y-14452460D01*
X14832087Y-14452460D02*
X14822563Y-14442936D01*
X14822563Y-14442936D02*
X14813039Y-14423888D01*
X14813039Y-14423888D02*
X14813039Y-14366746D01*
X14813039Y-14366746D02*
X14822563Y-14347698D01*
X14822563Y-14347698D02*
X14832087Y-14338174D01*
X14832087Y-14338174D02*
X14851134Y-14328650D01*
X14851134Y-14328650D02*
X14879706Y-14328650D01*
X14879706Y-14328650D02*
X14898753Y-14338174D01*
X14898753Y-14338174D02*
X14908277Y-14347698D01*
X14908277Y-14347698D02*
X14917801Y-14366746D01*
X14917801Y-14366746D02*
X14917801Y-14423888D01*
X14917801Y-14423888D02*
X14908277Y-14442936D01*
X14908277Y-14442936D02*
X14898753Y-14452460D01*
X14898753Y-14452460D02*
X14879706Y-14461984D01*
X14879706Y-14461984D02*
X14851134Y-14461984D01*
X15032087Y-14461984D02*
X15013039Y-14452460D01*
X15013039Y-14452460D02*
X15003515Y-14433412D01*
X15003515Y-14433412D02*
X15003515Y-14261984D01*
X15184468Y-14452460D02*
X15165420Y-14461984D01*
X15165420Y-14461984D02*
X15127325Y-14461984D01*
X15127325Y-14461984D02*
X15108277Y-14452460D01*
X15108277Y-14452460D02*
X15098753Y-14433412D01*
X15098753Y-14433412D02*
X15098753Y-14357222D01*
X15098753Y-14357222D02*
X15108277Y-14338174D01*
X15108277Y-14338174D02*
X15127325Y-14328650D01*
X15127325Y-14328650D02*
X15165420Y-14328650D01*
X15165420Y-14328650D02*
X15184468Y-14338174D01*
X15184468Y-14338174D02*
X15193991Y-14357222D01*
X15193991Y-14357222D02*
X15193991Y-14376269D01*
X15193991Y-14376269D02*
X15098753Y-14395317D01*
X15270182Y-14452460D02*
X15289230Y-14461984D01*
X15289230Y-14461984D02*
X15327325Y-14461984D01*
X15327325Y-14461984D02*
X15346372Y-14452460D01*
X15346372Y-14452460D02*
X15355896Y-14433412D01*
X15355896Y-14433412D02*
X15355896Y-14423888D01*
X15355896Y-14423888D02*
X15346372Y-14404841D01*
X15346372Y-14404841D02*
X15327325Y-14395317D01*
X15327325Y-14395317D02*
X15298753Y-14395317D01*
X15298753Y-14395317D02*
X15279706Y-14385793D01*
X15279706Y-14385793D02*
X15270182Y-14366746D01*
X15270182Y-14366746D02*
X15270182Y-14357222D01*
X15270182Y-14357222D02*
X15279706Y-14338174D01*
X15279706Y-14338174D02*
X15298753Y-14328650D01*
X15298753Y-14328650D02*
X15327325Y-14328650D01*
X15327325Y-14328650D02*
X15346372Y-14338174D01*
X15422563Y-14538174D02*
X15432087Y-14528650D01*
X15432087Y-14528650D02*
X15451134Y-14500079D01*
X15451134Y-14500079D02*
X15460658Y-14481031D01*
X15460658Y-14481031D02*
X15470182Y-14452460D01*
X15470182Y-14452460D02*
X15479706Y-14404841D01*
X15479706Y-14404841D02*
X15479706Y-14366746D01*
X15479706Y-14366746D02*
X15470182Y-14319127D01*
X15470182Y-14319127D02*
X15460658Y-14290555D01*
X15460658Y-14290555D02*
X15451134Y-14271508D01*
X15451134Y-14271508D02*
X15432087Y-14242936D01*
X15432087Y-14242936D02*
X15422563Y-14233412D01*
D12*
X10632856Y-14669856D02*
X10632856Y-14599144D01*
X10562144Y-14599144D01*
X10562144Y-14669856D01*
X10632856Y-14669856D01*
D11*
X11013039Y-14725984D02*
X10898753Y-14725984D01*
X10955896Y-14725984D02*
X10955896Y-14525984D01*
X10955896Y-14525984D02*
X10936848Y-14554555D01*
X10936848Y-14554555D02*
X10917801Y-14573603D01*
X10917801Y-14573603D02*
X10898753Y-14583127D01*
X11098753Y-14706936D02*
X11108277Y-14716460D01*
X11108277Y-14716460D02*
X11098753Y-14725984D01*
X11098753Y-14725984D02*
X11089229Y-14716460D01*
X11089229Y-14716460D02*
X11098753Y-14706936D01*
X11098753Y-14706936D02*
X11098753Y-14725984D01*
X11232086Y-14525984D02*
X11251134Y-14525984D01*
X11251134Y-14525984D02*
X11270182Y-14535508D01*
X11270182Y-14535508D02*
X11279705Y-14545031D01*
X11279705Y-14545031D02*
X11289229Y-14564079D01*
X11289229Y-14564079D02*
X11298753Y-14602174D01*
X11298753Y-14602174D02*
X11298753Y-14649793D01*
X11298753Y-14649793D02*
X11289229Y-14687888D01*
X11289229Y-14687888D02*
X11279705Y-14706936D01*
X11279705Y-14706936D02*
X11270182Y-14716460D01*
X11270182Y-14716460D02*
X11251134Y-14725984D01*
X11251134Y-14725984D02*
X11232086Y-14725984D01*
X11232086Y-14725984D02*
X11213039Y-14716460D01*
X11213039Y-14716460D02*
X11203515Y-14706936D01*
X11203515Y-14706936D02*
X11193991Y-14687888D01*
X11193991Y-14687888D02*
X11184467Y-14649793D01*
X11184467Y-14649793D02*
X11184467Y-14602174D01*
X11184467Y-14602174D02*
X11193991Y-14564079D01*
X11193991Y-14564079D02*
X11203515Y-14545031D01*
X11203515Y-14545031D02*
X11213039Y-14535508D01*
X11213039Y-14535508D02*
X11232086Y-14525984D01*
X11422562Y-14525984D02*
X11441610Y-14525984D01*
X11441610Y-14525984D02*
X11460658Y-14535508D01*
X11460658Y-14535508D02*
X11470182Y-14545031D01*
X11470182Y-14545031D02*
X11479705Y-14564079D01*
X11479705Y-14564079D02*
X11489229Y-14602174D01*
X11489229Y-14602174D02*
X11489229Y-14649793D01*
X11489229Y-14649793D02*
X11479705Y-14687888D01*
X11479705Y-14687888D02*
X11470182Y-14706936D01*
X11470182Y-14706936D02*
X11460658Y-14716460D01*
X11460658Y-14716460D02*
X11441610Y-14725984D01*
X11441610Y-14725984D02*
X11422562Y-14725984D01*
X11422562Y-14725984D02*
X11403515Y-14716460D01*
X11403515Y-14716460D02*
X11393991Y-14706936D01*
X11393991Y-14706936D02*
X11384467Y-14687888D01*
X11384467Y-14687888D02*
X11374943Y-14649793D01*
X11374943Y-14649793D02*
X11374943Y-14602174D01*
X11374943Y-14602174D02*
X11384467Y-14564079D01*
X11384467Y-14564079D02*
X11393991Y-14545031D01*
X11393991Y-14545031D02*
X11403515Y-14535508D01*
X11403515Y-14535508D02*
X11422562Y-14525984D01*
X11613039Y-14525984D02*
X11632086Y-14525984D01*
X11632086Y-14525984D02*
X11651134Y-14535508D01*
X11651134Y-14535508D02*
X11660658Y-14545031D01*
X11660658Y-14545031D02*
X11670182Y-14564079D01*
X11670182Y-14564079D02*
X11679705Y-14602174D01*
X11679705Y-14602174D02*
X11679705Y-14649793D01*
X11679705Y-14649793D02*
X11670182Y-14687888D01*
X11670182Y-14687888D02*
X11660658Y-14706936D01*
X11660658Y-14706936D02*
X11651134Y-14716460D01*
X11651134Y-14716460D02*
X11632086Y-14725984D01*
X11632086Y-14725984D02*
X11613039Y-14725984D01*
X11613039Y-14725984D02*
X11593991Y-14716460D01*
X11593991Y-14716460D02*
X11584467Y-14706936D01*
X11584467Y-14706936D02*
X11574943Y-14687888D01*
X11574943Y-14687888D02*
X11565420Y-14649793D01*
X11565420Y-14649793D02*
X11565420Y-14602174D01*
X11565420Y-14602174D02*
X11574943Y-14564079D01*
X11574943Y-14564079D02*
X11584467Y-14545031D01*
X11584467Y-14545031D02*
X11593991Y-14535508D01*
X11593991Y-14535508D02*
X11613039Y-14525984D01*
X11765420Y-14725984D02*
X11765420Y-14592650D01*
X11765420Y-14611698D02*
X11774943Y-14602174D01*
X11774943Y-14602174D02*
X11793991Y-14592650D01*
X11793991Y-14592650D02*
X11822563Y-14592650D01*
X11822563Y-14592650D02*
X11841610Y-14602174D01*
X11841610Y-14602174D02*
X11851134Y-14621222D01*
X11851134Y-14621222D02*
X11851134Y-14725984D01*
X11851134Y-14621222D02*
X11860658Y-14602174D01*
X11860658Y-14602174D02*
X11879705Y-14592650D01*
X11879705Y-14592650D02*
X11908277Y-14592650D01*
X11908277Y-14592650D02*
X11927324Y-14602174D01*
X11927324Y-14602174D02*
X11936848Y-14621222D01*
X11936848Y-14621222D02*
X11936848Y-14725984D01*
X12032086Y-14725984D02*
X12032086Y-14592650D01*
X12032086Y-14611698D02*
X12041610Y-14602174D01*
X12041610Y-14602174D02*
X12060658Y-14592650D01*
X12060658Y-14592650D02*
X12089229Y-14592650D01*
X12089229Y-14592650D02*
X12108277Y-14602174D01*
X12108277Y-14602174D02*
X12117801Y-14621222D01*
X12117801Y-14621222D02*
X12117801Y-14725984D01*
X12117801Y-14621222D02*
X12127324Y-14602174D01*
X12127324Y-14602174D02*
X12146372Y-14592650D01*
X12146372Y-14592650D02*
X12174943Y-14592650D01*
X12174943Y-14592650D02*
X12193991Y-14602174D01*
X12193991Y-14602174D02*
X12203515Y-14621222D01*
X12203515Y-14621222D02*
X12203515Y-14725984D01*
X12593991Y-14516460D02*
X12422563Y-14773603D01*
X12851134Y-14525984D02*
X12870182Y-14525984D01*
X12870182Y-14525984D02*
X12889229Y-14535508D01*
X12889229Y-14535508D02*
X12898753Y-14545031D01*
X12898753Y-14545031D02*
X12908277Y-14564079D01*
X12908277Y-14564079D02*
X12917801Y-14602174D01*
X12917801Y-14602174D02*
X12917801Y-14649793D01*
X12917801Y-14649793D02*
X12908277Y-14687888D01*
X12908277Y-14687888D02*
X12898753Y-14706936D01*
X12898753Y-14706936D02*
X12889229Y-14716460D01*
X12889229Y-14716460D02*
X12870182Y-14725984D01*
X12870182Y-14725984D02*
X12851134Y-14725984D01*
X12851134Y-14725984D02*
X12832086Y-14716460D01*
X12832086Y-14716460D02*
X12822563Y-14706936D01*
X12822563Y-14706936D02*
X12813039Y-14687888D01*
X12813039Y-14687888D02*
X12803515Y-14649793D01*
X12803515Y-14649793D02*
X12803515Y-14602174D01*
X12803515Y-14602174D02*
X12813039Y-14564079D01*
X12813039Y-14564079D02*
X12822563Y-14545031D01*
X12822563Y-14545031D02*
X12832086Y-14535508D01*
X12832086Y-14535508D02*
X12851134Y-14525984D01*
X13003515Y-14706936D02*
X13013039Y-14716460D01*
X13013039Y-14716460D02*
X13003515Y-14725984D01*
X13003515Y-14725984D02*
X12993991Y-14716460D01*
X12993991Y-14716460D02*
X13003515Y-14706936D01*
X13003515Y-14706936D02*
X13003515Y-14725984D01*
X13136848Y-14525984D02*
X13155896Y-14525984D01*
X13155896Y-14525984D02*
X13174944Y-14535508D01*
X13174944Y-14535508D02*
X13184467Y-14545031D01*
X13184467Y-14545031D02*
X13193991Y-14564079D01*
X13193991Y-14564079D02*
X13203515Y-14602174D01*
X13203515Y-14602174D02*
X13203515Y-14649793D01*
X13203515Y-14649793D02*
X13193991Y-14687888D01*
X13193991Y-14687888D02*
X13184467Y-14706936D01*
X13184467Y-14706936D02*
X13174944Y-14716460D01*
X13174944Y-14716460D02*
X13155896Y-14725984D01*
X13155896Y-14725984D02*
X13136848Y-14725984D01*
X13136848Y-14725984D02*
X13117801Y-14716460D01*
X13117801Y-14716460D02*
X13108277Y-14706936D01*
X13108277Y-14706936D02*
X13098753Y-14687888D01*
X13098753Y-14687888D02*
X13089229Y-14649793D01*
X13089229Y-14649793D02*
X13089229Y-14602174D01*
X13089229Y-14602174D02*
X13098753Y-14564079D01*
X13098753Y-14564079D02*
X13108277Y-14545031D01*
X13108277Y-14545031D02*
X13117801Y-14535508D01*
X13117801Y-14535508D02*
X13136848Y-14525984D01*
X13270182Y-14525984D02*
X13393991Y-14525984D01*
X13393991Y-14525984D02*
X13327325Y-14602174D01*
X13327325Y-14602174D02*
X13355896Y-14602174D01*
X13355896Y-14602174D02*
X13374944Y-14611698D01*
X13374944Y-14611698D02*
X13384467Y-14621222D01*
X13384467Y-14621222D02*
X13393991Y-14640269D01*
X13393991Y-14640269D02*
X13393991Y-14687888D01*
X13393991Y-14687888D02*
X13384467Y-14706936D01*
X13384467Y-14706936D02*
X13374944Y-14716460D01*
X13374944Y-14716460D02*
X13355896Y-14725984D01*
X13355896Y-14725984D02*
X13298753Y-14725984D01*
X13298753Y-14725984D02*
X13279706Y-14716460D01*
X13279706Y-14716460D02*
X13270182Y-14706936D01*
X13489229Y-14725984D02*
X13527325Y-14725984D01*
X13527325Y-14725984D02*
X13546372Y-14716460D01*
X13546372Y-14716460D02*
X13555896Y-14706936D01*
X13555896Y-14706936D02*
X13574944Y-14678365D01*
X13574944Y-14678365D02*
X13584467Y-14640269D01*
X13584467Y-14640269D02*
X13584467Y-14564079D01*
X13584467Y-14564079D02*
X13574944Y-14545031D01*
X13574944Y-14545031D02*
X13565420Y-14535508D01*
X13565420Y-14535508D02*
X13546372Y-14525984D01*
X13546372Y-14525984D02*
X13508277Y-14525984D01*
X13508277Y-14525984D02*
X13489229Y-14535508D01*
X13489229Y-14535508D02*
X13479706Y-14545031D01*
X13479706Y-14545031D02*
X13470182Y-14564079D01*
X13470182Y-14564079D02*
X13470182Y-14611698D01*
X13470182Y-14611698D02*
X13479706Y-14630746D01*
X13479706Y-14630746D02*
X13489229Y-14640269D01*
X13489229Y-14640269D02*
X13508277Y-14649793D01*
X13508277Y-14649793D02*
X13546372Y-14649793D01*
X13546372Y-14649793D02*
X13565420Y-14640269D01*
X13565420Y-14640269D02*
X13574944Y-14630746D01*
X13574944Y-14630746D02*
X13584467Y-14611698D01*
X13755896Y-14592650D02*
X13755896Y-14725984D01*
X13708277Y-14516460D02*
X13660658Y-14659317D01*
X13660658Y-14659317D02*
X13784467Y-14659317D01*
X13851134Y-14525984D02*
X13851134Y-14564079D01*
X13927325Y-14525984D02*
X13927325Y-14564079D01*
X14222563Y-14802174D02*
X14213039Y-14792650D01*
X14213039Y-14792650D02*
X14193991Y-14764079D01*
X14193991Y-14764079D02*
X14184468Y-14745031D01*
X14184468Y-14745031D02*
X14174944Y-14716460D01*
X14174944Y-14716460D02*
X14165420Y-14668841D01*
X14165420Y-14668841D02*
X14165420Y-14630746D01*
X14165420Y-14630746D02*
X14174944Y-14583127D01*
X14174944Y-14583127D02*
X14184468Y-14554555D01*
X14184468Y-14554555D02*
X14193991Y-14535508D01*
X14193991Y-14535508D02*
X14213039Y-14506936D01*
X14213039Y-14506936D02*
X14222563Y-14497412D01*
X14384468Y-14592650D02*
X14384468Y-14725984D01*
X14336848Y-14516460D02*
X14289229Y-14659317D01*
X14289229Y-14659317D02*
X14413039Y-14659317D01*
X14527325Y-14525984D02*
X14546372Y-14525984D01*
X14546372Y-14525984D02*
X14565420Y-14535508D01*
X14565420Y-14535508D02*
X14574944Y-14545031D01*
X14574944Y-14545031D02*
X14584468Y-14564079D01*
X14584468Y-14564079D02*
X14593991Y-14602174D01*
X14593991Y-14602174D02*
X14593991Y-14649793D01*
X14593991Y-14649793D02*
X14584468Y-14687888D01*
X14584468Y-14687888D02*
X14574944Y-14706936D01*
X14574944Y-14706936D02*
X14565420Y-14716460D01*
X14565420Y-14716460D02*
X14546372Y-14725984D01*
X14546372Y-14725984D02*
X14527325Y-14725984D01*
X14527325Y-14725984D02*
X14508277Y-14716460D01*
X14508277Y-14716460D02*
X14498753Y-14706936D01*
X14498753Y-14706936D02*
X14489229Y-14687888D01*
X14489229Y-14687888D02*
X14479706Y-14649793D01*
X14479706Y-14649793D02*
X14479706Y-14602174D01*
X14479706Y-14602174D02*
X14489229Y-14564079D01*
X14489229Y-14564079D02*
X14498753Y-14545031D01*
X14498753Y-14545031D02*
X14508277Y-14535508D01*
X14508277Y-14535508D02*
X14527325Y-14525984D01*
X14832087Y-14725984D02*
X14832087Y-14525984D01*
X14917801Y-14725984D02*
X14917801Y-14621222D01*
X14917801Y-14621222D02*
X14908277Y-14602174D01*
X14908277Y-14602174D02*
X14889230Y-14592650D01*
X14889230Y-14592650D02*
X14860658Y-14592650D01*
X14860658Y-14592650D02*
X14841610Y-14602174D01*
X14841610Y-14602174D02*
X14832087Y-14611698D01*
X15041610Y-14725984D02*
X15022563Y-14716460D01*
X15022563Y-14716460D02*
X15013039Y-14706936D01*
X15013039Y-14706936D02*
X15003515Y-14687888D01*
X15003515Y-14687888D02*
X15003515Y-14630746D01*
X15003515Y-14630746D02*
X15013039Y-14611698D01*
X15013039Y-14611698D02*
X15022563Y-14602174D01*
X15022563Y-14602174D02*
X15041610Y-14592650D01*
X15041610Y-14592650D02*
X15070182Y-14592650D01*
X15070182Y-14592650D02*
X15089230Y-14602174D01*
X15089230Y-14602174D02*
X15098753Y-14611698D01*
X15098753Y-14611698D02*
X15108277Y-14630746D01*
X15108277Y-14630746D02*
X15108277Y-14687888D01*
X15108277Y-14687888D02*
X15098753Y-14706936D01*
X15098753Y-14706936D02*
X15089230Y-14716460D01*
X15089230Y-14716460D02*
X15070182Y-14725984D01*
X15070182Y-14725984D02*
X15041610Y-14725984D01*
X15222563Y-14725984D02*
X15203515Y-14716460D01*
X15203515Y-14716460D02*
X15193991Y-14697412D01*
X15193991Y-14697412D02*
X15193991Y-14525984D01*
X15374944Y-14716460D02*
X15355896Y-14725984D01*
X15355896Y-14725984D02*
X15317801Y-14725984D01*
X15317801Y-14725984D02*
X15298753Y-14716460D01*
X15298753Y-14716460D02*
X15289230Y-14697412D01*
X15289230Y-14697412D02*
X15289230Y-14621222D01*
X15289230Y-14621222D02*
X15298753Y-14602174D01*
X15298753Y-14602174D02*
X15317801Y-14592650D01*
X15317801Y-14592650D02*
X15355896Y-14592650D01*
X15355896Y-14592650D02*
X15374944Y-14602174D01*
X15374944Y-14602174D02*
X15384468Y-14621222D01*
X15384468Y-14621222D02*
X15384468Y-14640269D01*
X15384468Y-14640269D02*
X15289230Y-14659317D01*
X15460658Y-14716460D02*
X15479706Y-14725984D01*
X15479706Y-14725984D02*
X15517801Y-14725984D01*
X15517801Y-14725984D02*
X15536849Y-14716460D01*
X15536849Y-14716460D02*
X15546372Y-14697412D01*
X15546372Y-14697412D02*
X15546372Y-14687888D01*
X15546372Y-14687888D02*
X15536849Y-14668841D01*
X15536849Y-14668841D02*
X15517801Y-14659317D01*
X15517801Y-14659317D02*
X15489230Y-14659317D01*
X15489230Y-14659317D02*
X15470182Y-14649793D01*
X15470182Y-14649793D02*
X15460658Y-14630746D01*
X15460658Y-14630746D02*
X15460658Y-14621222D01*
X15460658Y-14621222D02*
X15470182Y-14602174D01*
X15470182Y-14602174D02*
X15489230Y-14592650D01*
X15489230Y-14592650D02*
X15517801Y-14592650D01*
X15517801Y-14592650D02*
X15536849Y-14602174D01*
X15613039Y-14802174D02*
X15622563Y-14792650D01*
X15622563Y-14792650D02*
X15641611Y-14764079D01*
X15641611Y-14764079D02*
X15651134Y-14745031D01*
X15651134Y-14745031D02*
X15660658Y-14716460D01*
X15660658Y-14716460D02*
X15670182Y-14668841D01*
X15670182Y-14668841D02*
X15670182Y-14630746D01*
X15670182Y-14630746D02*
X15660658Y-14583127D01*
X15660658Y-14583127D02*
X15651134Y-14554555D01*
X15651134Y-14554555D02*
X15641611Y-14535508D01*
X15641611Y-14535508D02*
X15622563Y-14506936D01*
X15622563Y-14506936D02*
X15613039Y-14497412D01*
D13*
X10592500Y-14953500D02*
X10647500Y-14898500D01*
X10592500Y-14843500D01*
X10537500Y-14898500D01*
X10592500Y-14953500D01*
D11*
X11013039Y-14989984D02*
X10898753Y-14989984D01*
X10955896Y-14989984D02*
X10955896Y-14789984D01*
X10955896Y-14789984D02*
X10936848Y-14818555D01*
X10936848Y-14818555D02*
X10917801Y-14837603D01*
X10917801Y-14837603D02*
X10898753Y-14847127D01*
X11098753Y-14970936D02*
X11108277Y-14980460D01*
X11108277Y-14980460D02*
X11098753Y-14989984D01*
X11098753Y-14989984D02*
X11089229Y-14980460D01*
X11089229Y-14980460D02*
X11098753Y-14970936D01*
X11098753Y-14970936D02*
X11098753Y-14989984D01*
X11298753Y-14989984D02*
X11184467Y-14989984D01*
X11241610Y-14989984D02*
X11241610Y-14789984D01*
X11241610Y-14789984D02*
X11222562Y-14818555D01*
X11222562Y-14818555D02*
X11203515Y-14837603D01*
X11203515Y-14837603D02*
X11184467Y-14847127D01*
X11422562Y-14789984D02*
X11441610Y-14789984D01*
X11441610Y-14789984D02*
X11460658Y-14799508D01*
X11460658Y-14799508D02*
X11470182Y-14809031D01*
X11470182Y-14809031D02*
X11479705Y-14828079D01*
X11479705Y-14828079D02*
X11489229Y-14866174D01*
X11489229Y-14866174D02*
X11489229Y-14913793D01*
X11489229Y-14913793D02*
X11479705Y-14951888D01*
X11479705Y-14951888D02*
X11470182Y-14970936D01*
X11470182Y-14970936D02*
X11460658Y-14980460D01*
X11460658Y-14980460D02*
X11441610Y-14989984D01*
X11441610Y-14989984D02*
X11422562Y-14989984D01*
X11422562Y-14989984D02*
X11403515Y-14980460D01*
X11403515Y-14980460D02*
X11393991Y-14970936D01*
X11393991Y-14970936D02*
X11384467Y-14951888D01*
X11384467Y-14951888D02*
X11374943Y-14913793D01*
X11374943Y-14913793D02*
X11374943Y-14866174D01*
X11374943Y-14866174D02*
X11384467Y-14828079D01*
X11384467Y-14828079D02*
X11393991Y-14809031D01*
X11393991Y-14809031D02*
X11403515Y-14799508D01*
X11403515Y-14799508D02*
X11422562Y-14789984D01*
X11613039Y-14789984D02*
X11632086Y-14789984D01*
X11632086Y-14789984D02*
X11651134Y-14799508D01*
X11651134Y-14799508D02*
X11660658Y-14809031D01*
X11660658Y-14809031D02*
X11670182Y-14828079D01*
X11670182Y-14828079D02*
X11679705Y-14866174D01*
X11679705Y-14866174D02*
X11679705Y-14913793D01*
X11679705Y-14913793D02*
X11670182Y-14951888D01*
X11670182Y-14951888D02*
X11660658Y-14970936D01*
X11660658Y-14970936D02*
X11651134Y-14980460D01*
X11651134Y-14980460D02*
X11632086Y-14989984D01*
X11632086Y-14989984D02*
X11613039Y-14989984D01*
X11613039Y-14989984D02*
X11593991Y-14980460D01*
X11593991Y-14980460D02*
X11584467Y-14970936D01*
X11584467Y-14970936D02*
X11574943Y-14951888D01*
X11574943Y-14951888D02*
X11565420Y-14913793D01*
X11565420Y-14913793D02*
X11565420Y-14866174D01*
X11565420Y-14866174D02*
X11574943Y-14828079D01*
X11574943Y-14828079D02*
X11584467Y-14809031D01*
X11584467Y-14809031D02*
X11593991Y-14799508D01*
X11593991Y-14799508D02*
X11613039Y-14789984D01*
X11765420Y-14989984D02*
X11765420Y-14856650D01*
X11765420Y-14875698D02*
X11774943Y-14866174D01*
X11774943Y-14866174D02*
X11793991Y-14856650D01*
X11793991Y-14856650D02*
X11822563Y-14856650D01*
X11822563Y-14856650D02*
X11841610Y-14866174D01*
X11841610Y-14866174D02*
X11851134Y-14885222D01*
X11851134Y-14885222D02*
X11851134Y-14989984D01*
X11851134Y-14885222D02*
X11860658Y-14866174D01*
X11860658Y-14866174D02*
X11879705Y-14856650D01*
X11879705Y-14856650D02*
X11908277Y-14856650D01*
X11908277Y-14856650D02*
X11927324Y-14866174D01*
X11927324Y-14866174D02*
X11936848Y-14885222D01*
X11936848Y-14885222D02*
X11936848Y-14989984D01*
X12032086Y-14989984D02*
X12032086Y-14856650D01*
X12032086Y-14875698D02*
X12041610Y-14866174D01*
X12041610Y-14866174D02*
X12060658Y-14856650D01*
X12060658Y-14856650D02*
X12089229Y-14856650D01*
X12089229Y-14856650D02*
X12108277Y-14866174D01*
X12108277Y-14866174D02*
X12117801Y-14885222D01*
X12117801Y-14885222D02*
X12117801Y-14989984D01*
X12117801Y-14885222D02*
X12127324Y-14866174D01*
X12127324Y-14866174D02*
X12146372Y-14856650D01*
X12146372Y-14856650D02*
X12174943Y-14856650D01*
X12174943Y-14856650D02*
X12193991Y-14866174D01*
X12193991Y-14866174D02*
X12203515Y-14885222D01*
X12203515Y-14885222D02*
X12203515Y-14989984D01*
X12593991Y-14780460D02*
X12422563Y-15037603D01*
X12851134Y-14789984D02*
X12870182Y-14789984D01*
X12870182Y-14789984D02*
X12889229Y-14799508D01*
X12889229Y-14799508D02*
X12898753Y-14809031D01*
X12898753Y-14809031D02*
X12908277Y-14828079D01*
X12908277Y-14828079D02*
X12917801Y-14866174D01*
X12917801Y-14866174D02*
X12917801Y-14913793D01*
X12917801Y-14913793D02*
X12908277Y-14951888D01*
X12908277Y-14951888D02*
X12898753Y-14970936D01*
X12898753Y-14970936D02*
X12889229Y-14980460D01*
X12889229Y-14980460D02*
X12870182Y-14989984D01*
X12870182Y-14989984D02*
X12851134Y-14989984D01*
X12851134Y-14989984D02*
X12832086Y-14980460D01*
X12832086Y-14980460D02*
X12822563Y-14970936D01*
X12822563Y-14970936D02*
X12813039Y-14951888D01*
X12813039Y-14951888D02*
X12803515Y-14913793D01*
X12803515Y-14913793D02*
X12803515Y-14866174D01*
X12803515Y-14866174D02*
X12813039Y-14828079D01*
X12813039Y-14828079D02*
X12822563Y-14809031D01*
X12822563Y-14809031D02*
X12832086Y-14799508D01*
X12832086Y-14799508D02*
X12851134Y-14789984D01*
X13003515Y-14970936D02*
X13013039Y-14980460D01*
X13013039Y-14980460D02*
X13003515Y-14989984D01*
X13003515Y-14989984D02*
X12993991Y-14980460D01*
X12993991Y-14980460D02*
X13003515Y-14970936D01*
X13003515Y-14970936D02*
X13003515Y-14989984D01*
X13136848Y-14789984D02*
X13155896Y-14789984D01*
X13155896Y-14789984D02*
X13174944Y-14799508D01*
X13174944Y-14799508D02*
X13184467Y-14809031D01*
X13184467Y-14809031D02*
X13193991Y-14828079D01*
X13193991Y-14828079D02*
X13203515Y-14866174D01*
X13203515Y-14866174D02*
X13203515Y-14913793D01*
X13203515Y-14913793D02*
X13193991Y-14951888D01*
X13193991Y-14951888D02*
X13184467Y-14970936D01*
X13184467Y-14970936D02*
X13174944Y-14980460D01*
X13174944Y-14980460D02*
X13155896Y-14989984D01*
X13155896Y-14989984D02*
X13136848Y-14989984D01*
X13136848Y-14989984D02*
X13117801Y-14980460D01*
X13117801Y-14980460D02*
X13108277Y-14970936D01*
X13108277Y-14970936D02*
X13098753Y-14951888D01*
X13098753Y-14951888D02*
X13089229Y-14913793D01*
X13089229Y-14913793D02*
X13089229Y-14866174D01*
X13089229Y-14866174D02*
X13098753Y-14828079D01*
X13098753Y-14828079D02*
X13108277Y-14809031D01*
X13108277Y-14809031D02*
X13117801Y-14799508D01*
X13117801Y-14799508D02*
X13136848Y-14789984D01*
X13374944Y-14856650D02*
X13374944Y-14989984D01*
X13327325Y-14780460D02*
X13279706Y-14923317D01*
X13279706Y-14923317D02*
X13403515Y-14923317D01*
X13460658Y-14789984D02*
X13584467Y-14789984D01*
X13584467Y-14789984D02*
X13517801Y-14866174D01*
X13517801Y-14866174D02*
X13546372Y-14866174D01*
X13546372Y-14866174D02*
X13565420Y-14875698D01*
X13565420Y-14875698D02*
X13574944Y-14885222D01*
X13574944Y-14885222D02*
X13584467Y-14904269D01*
X13584467Y-14904269D02*
X13584467Y-14951888D01*
X13584467Y-14951888D02*
X13574944Y-14970936D01*
X13574944Y-14970936D02*
X13565420Y-14980460D01*
X13565420Y-14980460D02*
X13546372Y-14989984D01*
X13546372Y-14989984D02*
X13489229Y-14989984D01*
X13489229Y-14989984D02*
X13470182Y-14980460D01*
X13470182Y-14980460D02*
X13460658Y-14970936D01*
X13651134Y-14789984D02*
X13774944Y-14789984D01*
X13774944Y-14789984D02*
X13708277Y-14866174D01*
X13708277Y-14866174D02*
X13736848Y-14866174D01*
X13736848Y-14866174D02*
X13755896Y-14875698D01*
X13755896Y-14875698D02*
X13765420Y-14885222D01*
X13765420Y-14885222D02*
X13774944Y-14904269D01*
X13774944Y-14904269D02*
X13774944Y-14951888D01*
X13774944Y-14951888D02*
X13765420Y-14970936D01*
X13765420Y-14970936D02*
X13755896Y-14980460D01*
X13755896Y-14980460D02*
X13736848Y-14989984D01*
X13736848Y-14989984D02*
X13679706Y-14989984D01*
X13679706Y-14989984D02*
X13660658Y-14980460D01*
X13660658Y-14980460D02*
X13651134Y-14970936D01*
X13851134Y-14789984D02*
X13851134Y-14828079D01*
X13927325Y-14789984D02*
X13927325Y-14828079D01*
X14222563Y-15066174D02*
X14213039Y-15056650D01*
X14213039Y-15056650D02*
X14193991Y-15028079D01*
X14193991Y-15028079D02*
X14184468Y-15009031D01*
X14184468Y-15009031D02*
X14174944Y-14980460D01*
X14174944Y-14980460D02*
X14165420Y-14932841D01*
X14165420Y-14932841D02*
X14165420Y-14894746D01*
X14165420Y-14894746D02*
X14174944Y-14847127D01*
X14174944Y-14847127D02*
X14184468Y-14818555D01*
X14184468Y-14818555D02*
X14193991Y-14799508D01*
X14193991Y-14799508D02*
X14213039Y-14770936D01*
X14213039Y-14770936D02*
X14222563Y-14761412D01*
X14279706Y-14789984D02*
X14403515Y-14789984D01*
X14403515Y-14789984D02*
X14336848Y-14866174D01*
X14336848Y-14866174D02*
X14365420Y-14866174D01*
X14365420Y-14866174D02*
X14384468Y-14875698D01*
X14384468Y-14875698D02*
X14393991Y-14885222D01*
X14393991Y-14885222D02*
X14403515Y-14904269D01*
X14403515Y-14904269D02*
X14403515Y-14951888D01*
X14403515Y-14951888D02*
X14393991Y-14970936D01*
X14393991Y-14970936D02*
X14384468Y-14980460D01*
X14384468Y-14980460D02*
X14365420Y-14989984D01*
X14365420Y-14989984D02*
X14308277Y-14989984D01*
X14308277Y-14989984D02*
X14289229Y-14980460D01*
X14289229Y-14980460D02*
X14279706Y-14970936D01*
X14574944Y-14789984D02*
X14536848Y-14789984D01*
X14536848Y-14789984D02*
X14517801Y-14799508D01*
X14517801Y-14799508D02*
X14508277Y-14809031D01*
X14508277Y-14809031D02*
X14489229Y-14837603D01*
X14489229Y-14837603D02*
X14479706Y-14875698D01*
X14479706Y-14875698D02*
X14479706Y-14951888D01*
X14479706Y-14951888D02*
X14489229Y-14970936D01*
X14489229Y-14970936D02*
X14498753Y-14980460D01*
X14498753Y-14980460D02*
X14517801Y-14989984D01*
X14517801Y-14989984D02*
X14555896Y-14989984D01*
X14555896Y-14989984D02*
X14574944Y-14980460D01*
X14574944Y-14980460D02*
X14584468Y-14970936D01*
X14584468Y-14970936D02*
X14593991Y-14951888D01*
X14593991Y-14951888D02*
X14593991Y-14904269D01*
X14593991Y-14904269D02*
X14584468Y-14885222D01*
X14584468Y-14885222D02*
X14574944Y-14875698D01*
X14574944Y-14875698D02*
X14555896Y-14866174D01*
X14555896Y-14866174D02*
X14517801Y-14866174D01*
X14517801Y-14866174D02*
X14498753Y-14875698D01*
X14498753Y-14875698D02*
X14489229Y-14885222D01*
X14489229Y-14885222D02*
X14479706Y-14904269D01*
X14832087Y-14989984D02*
X14832087Y-14789984D01*
X14917801Y-14989984D02*
X14917801Y-14885222D01*
X14917801Y-14885222D02*
X14908277Y-14866174D01*
X14908277Y-14866174D02*
X14889230Y-14856650D01*
X14889230Y-14856650D02*
X14860658Y-14856650D01*
X14860658Y-14856650D02*
X14841610Y-14866174D01*
X14841610Y-14866174D02*
X14832087Y-14875698D01*
X15041610Y-14989984D02*
X15022563Y-14980460D01*
X15022563Y-14980460D02*
X15013039Y-14970936D01*
X15013039Y-14970936D02*
X15003515Y-14951888D01*
X15003515Y-14951888D02*
X15003515Y-14894746D01*
X15003515Y-14894746D02*
X15013039Y-14875698D01*
X15013039Y-14875698D02*
X15022563Y-14866174D01*
X15022563Y-14866174D02*
X15041610Y-14856650D01*
X15041610Y-14856650D02*
X15070182Y-14856650D01*
X15070182Y-14856650D02*
X15089230Y-14866174D01*
X15089230Y-14866174D02*
X15098753Y-14875698D01*
X15098753Y-14875698D02*
X15108277Y-14894746D01*
X15108277Y-14894746D02*
X15108277Y-14951888D01*
X15108277Y-14951888D02*
X15098753Y-14970936D01*
X15098753Y-14970936D02*
X15089230Y-14980460D01*
X15089230Y-14980460D02*
X15070182Y-14989984D01*
X15070182Y-14989984D02*
X15041610Y-14989984D01*
X15222563Y-14989984D02*
X15203515Y-14980460D01*
X15203515Y-14980460D02*
X15193991Y-14961412D01*
X15193991Y-14961412D02*
X15193991Y-14789984D01*
X15374944Y-14980460D02*
X15355896Y-14989984D01*
X15355896Y-14989984D02*
X15317801Y-14989984D01*
X15317801Y-14989984D02*
X15298753Y-14980460D01*
X15298753Y-14980460D02*
X15289230Y-14961412D01*
X15289230Y-14961412D02*
X15289230Y-14885222D01*
X15289230Y-14885222D02*
X15298753Y-14866174D01*
X15298753Y-14866174D02*
X15317801Y-14856650D01*
X15317801Y-14856650D02*
X15355896Y-14856650D01*
X15355896Y-14856650D02*
X15374944Y-14866174D01*
X15374944Y-14866174D02*
X15384468Y-14885222D01*
X15384468Y-14885222D02*
X15384468Y-14904269D01*
X15384468Y-14904269D02*
X15289230Y-14923317D01*
X15460658Y-14980460D02*
X15479706Y-14989984D01*
X15479706Y-14989984D02*
X15517801Y-14989984D01*
X15517801Y-14989984D02*
X15536849Y-14980460D01*
X15536849Y-14980460D02*
X15546372Y-14961412D01*
X15546372Y-14961412D02*
X15546372Y-14951888D01*
X15546372Y-14951888D02*
X15536849Y-14932841D01*
X15536849Y-14932841D02*
X15517801Y-14923317D01*
X15517801Y-14923317D02*
X15489230Y-14923317D01*
X15489230Y-14923317D02*
X15470182Y-14913793D01*
X15470182Y-14913793D02*
X15460658Y-14894746D01*
X15460658Y-14894746D02*
X15460658Y-14885222D01*
X15460658Y-14885222D02*
X15470182Y-14866174D01*
X15470182Y-14866174D02*
X15489230Y-14856650D01*
X15489230Y-14856650D02*
X15517801Y-14856650D01*
X15517801Y-14856650D02*
X15536849Y-14866174D01*
X15613039Y-15066174D02*
X15622563Y-15056650D01*
X15622563Y-15056650D02*
X15641611Y-15028079D01*
X15641611Y-15028079D02*
X15651134Y-15009031D01*
X15651134Y-15009031D02*
X15660658Y-14980460D01*
X15660658Y-14980460D02*
X15670182Y-14932841D01*
X15670182Y-14932841D02*
X15670182Y-14894746D01*
X15670182Y-14894746D02*
X15660658Y-14847127D01*
X15660658Y-14847127D02*
X15651134Y-14818555D01*
X15651134Y-14818555D02*
X15641611Y-14799508D01*
X15641611Y-14799508D02*
X15622563Y-14770936D01*
X15622563Y-14770936D02*
X15613039Y-14761412D01*
D14*
X10527500Y-15102500D02*
X10647500Y-15222500D01*
X10647500Y-15102500D02*
X10527500Y-15222500D01*
X10647500Y-15162500D02*
G75*
G02*
X10527500Y-15162500I-60000J0D01*
G01*
X10527500Y-15162500D02*
G75*
G02*
X10647500Y-15162500I60000J0D01*
G01*
D11*
X11013039Y-15253984D02*
X10898753Y-15253984D01*
X10955896Y-15253984D02*
X10955896Y-15053984D01*
X10955896Y-15053984D02*
X10936848Y-15082555D01*
X10936848Y-15082555D02*
X10917801Y-15101603D01*
X10917801Y-15101603D02*
X10898753Y-15111127D01*
X11098753Y-15234936D02*
X11108277Y-15244460D01*
X11108277Y-15244460D02*
X11098753Y-15253984D01*
X11098753Y-15253984D02*
X11089229Y-15244460D01*
X11089229Y-15244460D02*
X11098753Y-15234936D01*
X11098753Y-15234936D02*
X11098753Y-15253984D01*
X11184467Y-15073031D02*
X11193991Y-15063508D01*
X11193991Y-15063508D02*
X11213039Y-15053984D01*
X11213039Y-15053984D02*
X11260658Y-15053984D01*
X11260658Y-15053984D02*
X11279705Y-15063508D01*
X11279705Y-15063508D02*
X11289229Y-15073031D01*
X11289229Y-15073031D02*
X11298753Y-15092079D01*
X11298753Y-15092079D02*
X11298753Y-15111127D01*
X11298753Y-15111127D02*
X11289229Y-15139698D01*
X11289229Y-15139698D02*
X11174944Y-15253984D01*
X11174944Y-15253984D02*
X11298753Y-15253984D01*
X11422562Y-15053984D02*
X11441610Y-15053984D01*
X11441610Y-15053984D02*
X11460658Y-15063508D01*
X11460658Y-15063508D02*
X11470182Y-15073031D01*
X11470182Y-15073031D02*
X11479705Y-15092079D01*
X11479705Y-15092079D02*
X11489229Y-15130174D01*
X11489229Y-15130174D02*
X11489229Y-15177793D01*
X11489229Y-15177793D02*
X11479705Y-15215888D01*
X11479705Y-15215888D02*
X11470182Y-15234936D01*
X11470182Y-15234936D02*
X11460658Y-15244460D01*
X11460658Y-15244460D02*
X11441610Y-15253984D01*
X11441610Y-15253984D02*
X11422562Y-15253984D01*
X11422562Y-15253984D02*
X11403515Y-15244460D01*
X11403515Y-15244460D02*
X11393991Y-15234936D01*
X11393991Y-15234936D02*
X11384467Y-15215888D01*
X11384467Y-15215888D02*
X11374943Y-15177793D01*
X11374943Y-15177793D02*
X11374943Y-15130174D01*
X11374943Y-15130174D02*
X11384467Y-15092079D01*
X11384467Y-15092079D02*
X11393991Y-15073031D01*
X11393991Y-15073031D02*
X11403515Y-15063508D01*
X11403515Y-15063508D02*
X11422562Y-15053984D01*
X11613039Y-15053984D02*
X11632086Y-15053984D01*
X11632086Y-15053984D02*
X11651134Y-15063508D01*
X11651134Y-15063508D02*
X11660658Y-15073031D01*
X11660658Y-15073031D02*
X11670182Y-15092079D01*
X11670182Y-15092079D02*
X11679705Y-15130174D01*
X11679705Y-15130174D02*
X11679705Y-15177793D01*
X11679705Y-15177793D02*
X11670182Y-15215888D01*
X11670182Y-15215888D02*
X11660658Y-15234936D01*
X11660658Y-15234936D02*
X11651134Y-15244460D01*
X11651134Y-15244460D02*
X11632086Y-15253984D01*
X11632086Y-15253984D02*
X11613039Y-15253984D01*
X11613039Y-15253984D02*
X11593991Y-15244460D01*
X11593991Y-15244460D02*
X11584467Y-15234936D01*
X11584467Y-15234936D02*
X11574943Y-15215888D01*
X11574943Y-15215888D02*
X11565420Y-15177793D01*
X11565420Y-15177793D02*
X11565420Y-15130174D01*
X11565420Y-15130174D02*
X11574943Y-15092079D01*
X11574943Y-15092079D02*
X11584467Y-15073031D01*
X11584467Y-15073031D02*
X11593991Y-15063508D01*
X11593991Y-15063508D02*
X11613039Y-15053984D01*
X11765420Y-15253984D02*
X11765420Y-15120650D01*
X11765420Y-15139698D02*
X11774943Y-15130174D01*
X11774943Y-15130174D02*
X11793991Y-15120650D01*
X11793991Y-15120650D02*
X11822563Y-15120650D01*
X11822563Y-15120650D02*
X11841610Y-15130174D01*
X11841610Y-15130174D02*
X11851134Y-15149222D01*
X11851134Y-15149222D02*
X11851134Y-15253984D01*
X11851134Y-15149222D02*
X11860658Y-15130174D01*
X11860658Y-15130174D02*
X11879705Y-15120650D01*
X11879705Y-15120650D02*
X11908277Y-15120650D01*
X11908277Y-15120650D02*
X11927324Y-15130174D01*
X11927324Y-15130174D02*
X11936848Y-15149222D01*
X11936848Y-15149222D02*
X11936848Y-15253984D01*
X12032086Y-15253984D02*
X12032086Y-15120650D01*
X12032086Y-15139698D02*
X12041610Y-15130174D01*
X12041610Y-15130174D02*
X12060658Y-15120650D01*
X12060658Y-15120650D02*
X12089229Y-15120650D01*
X12089229Y-15120650D02*
X12108277Y-15130174D01*
X12108277Y-15130174D02*
X12117801Y-15149222D01*
X12117801Y-15149222D02*
X12117801Y-15253984D01*
X12117801Y-15149222D02*
X12127324Y-15130174D01*
X12127324Y-15130174D02*
X12146372Y-15120650D01*
X12146372Y-15120650D02*
X12174943Y-15120650D01*
X12174943Y-15120650D02*
X12193991Y-15130174D01*
X12193991Y-15130174D02*
X12203515Y-15149222D01*
X12203515Y-15149222D02*
X12203515Y-15253984D01*
X12593991Y-15044460D02*
X12422563Y-15301603D01*
X12851134Y-15053984D02*
X12870182Y-15053984D01*
X12870182Y-15053984D02*
X12889229Y-15063508D01*
X12889229Y-15063508D02*
X12898753Y-15073031D01*
X12898753Y-15073031D02*
X12908277Y-15092079D01*
X12908277Y-15092079D02*
X12917801Y-15130174D01*
X12917801Y-15130174D02*
X12917801Y-15177793D01*
X12917801Y-15177793D02*
X12908277Y-15215888D01*
X12908277Y-15215888D02*
X12898753Y-15234936D01*
X12898753Y-15234936D02*
X12889229Y-15244460D01*
X12889229Y-15244460D02*
X12870182Y-15253984D01*
X12870182Y-15253984D02*
X12851134Y-15253984D01*
X12851134Y-15253984D02*
X12832086Y-15244460D01*
X12832086Y-15244460D02*
X12822563Y-15234936D01*
X12822563Y-15234936D02*
X12813039Y-15215888D01*
X12813039Y-15215888D02*
X12803515Y-15177793D01*
X12803515Y-15177793D02*
X12803515Y-15130174D01*
X12803515Y-15130174D02*
X12813039Y-15092079D01*
X12813039Y-15092079D02*
X12822563Y-15073031D01*
X12822563Y-15073031D02*
X12832086Y-15063508D01*
X12832086Y-15063508D02*
X12851134Y-15053984D01*
X13003515Y-15234936D02*
X13013039Y-15244460D01*
X13013039Y-15244460D02*
X13003515Y-15253984D01*
X13003515Y-15253984D02*
X12993991Y-15244460D01*
X12993991Y-15244460D02*
X13003515Y-15234936D01*
X13003515Y-15234936D02*
X13003515Y-15253984D01*
X13136848Y-15053984D02*
X13155896Y-15053984D01*
X13155896Y-15053984D02*
X13174944Y-15063508D01*
X13174944Y-15063508D02*
X13184467Y-15073031D01*
X13184467Y-15073031D02*
X13193991Y-15092079D01*
X13193991Y-15092079D02*
X13203515Y-15130174D01*
X13203515Y-15130174D02*
X13203515Y-15177793D01*
X13203515Y-15177793D02*
X13193991Y-15215888D01*
X13193991Y-15215888D02*
X13184467Y-15234936D01*
X13184467Y-15234936D02*
X13174944Y-15244460D01*
X13174944Y-15244460D02*
X13155896Y-15253984D01*
X13155896Y-15253984D02*
X13136848Y-15253984D01*
X13136848Y-15253984D02*
X13117801Y-15244460D01*
X13117801Y-15244460D02*
X13108277Y-15234936D01*
X13108277Y-15234936D02*
X13098753Y-15215888D01*
X13098753Y-15215888D02*
X13089229Y-15177793D01*
X13089229Y-15177793D02*
X13089229Y-15130174D01*
X13089229Y-15130174D02*
X13098753Y-15092079D01*
X13098753Y-15092079D02*
X13108277Y-15073031D01*
X13108277Y-15073031D02*
X13117801Y-15063508D01*
X13117801Y-15063508D02*
X13136848Y-15053984D01*
X13374944Y-15120650D02*
X13374944Y-15253984D01*
X13327325Y-15044460D02*
X13279706Y-15187317D01*
X13279706Y-15187317D02*
X13403515Y-15187317D01*
X13460658Y-15053984D02*
X13593991Y-15053984D01*
X13593991Y-15053984D02*
X13508277Y-15253984D01*
X13660658Y-15073031D02*
X13670182Y-15063508D01*
X13670182Y-15063508D02*
X13689229Y-15053984D01*
X13689229Y-15053984D02*
X13736848Y-15053984D01*
X13736848Y-15053984D02*
X13755896Y-15063508D01*
X13755896Y-15063508D02*
X13765420Y-15073031D01*
X13765420Y-15073031D02*
X13774944Y-15092079D01*
X13774944Y-15092079D02*
X13774944Y-15111127D01*
X13774944Y-15111127D02*
X13765420Y-15139698D01*
X13765420Y-15139698D02*
X13651134Y-15253984D01*
X13651134Y-15253984D02*
X13774944Y-15253984D01*
X13851134Y-15053984D02*
X13851134Y-15092079D01*
X13927325Y-15053984D02*
X13927325Y-15092079D01*
X14222563Y-15330174D02*
X14213039Y-15320650D01*
X14213039Y-15320650D02*
X14193991Y-15292079D01*
X14193991Y-15292079D02*
X14184468Y-15273031D01*
X14184468Y-15273031D02*
X14174944Y-15244460D01*
X14174944Y-15244460D02*
X14165420Y-15196841D01*
X14165420Y-15196841D02*
X14165420Y-15158746D01*
X14165420Y-15158746D02*
X14174944Y-15111127D01*
X14174944Y-15111127D02*
X14184468Y-15082555D01*
X14184468Y-15082555D02*
X14193991Y-15063508D01*
X14193991Y-15063508D02*
X14213039Y-15034936D01*
X14213039Y-15034936D02*
X14222563Y-15025412D01*
X14403515Y-15253984D02*
X14289229Y-15253984D01*
X14346372Y-15253984D02*
X14346372Y-15053984D01*
X14346372Y-15053984D02*
X14327325Y-15082555D01*
X14327325Y-15082555D02*
X14308277Y-15101603D01*
X14308277Y-15101603D02*
X14289229Y-15111127D01*
X14479706Y-15073031D02*
X14489229Y-15063508D01*
X14489229Y-15063508D02*
X14508277Y-15053984D01*
X14508277Y-15053984D02*
X14555896Y-15053984D01*
X14555896Y-15053984D02*
X14574944Y-15063508D01*
X14574944Y-15063508D02*
X14584468Y-15073031D01*
X14584468Y-15073031D02*
X14593991Y-15092079D01*
X14593991Y-15092079D02*
X14593991Y-15111127D01*
X14593991Y-15111127D02*
X14584468Y-15139698D01*
X14584468Y-15139698D02*
X14470182Y-15253984D01*
X14470182Y-15253984D02*
X14593991Y-15253984D01*
X14832087Y-15253984D02*
X14832087Y-15053984D01*
X14917801Y-15253984D02*
X14917801Y-15149222D01*
X14917801Y-15149222D02*
X14908277Y-15130174D01*
X14908277Y-15130174D02*
X14889230Y-15120650D01*
X14889230Y-15120650D02*
X14860658Y-15120650D01*
X14860658Y-15120650D02*
X14841610Y-15130174D01*
X14841610Y-15130174D02*
X14832087Y-15139698D01*
X15041610Y-15253984D02*
X15022563Y-15244460D01*
X15022563Y-15244460D02*
X15013039Y-15234936D01*
X15013039Y-15234936D02*
X15003515Y-15215888D01*
X15003515Y-15215888D02*
X15003515Y-15158746D01*
X15003515Y-15158746D02*
X15013039Y-15139698D01*
X15013039Y-15139698D02*
X15022563Y-15130174D01*
X15022563Y-15130174D02*
X15041610Y-15120650D01*
X15041610Y-15120650D02*
X15070182Y-15120650D01*
X15070182Y-15120650D02*
X15089230Y-15130174D01*
X15089230Y-15130174D02*
X15098753Y-15139698D01*
X15098753Y-15139698D02*
X15108277Y-15158746D01*
X15108277Y-15158746D02*
X15108277Y-15215888D01*
X15108277Y-15215888D02*
X15098753Y-15234936D01*
X15098753Y-15234936D02*
X15089230Y-15244460D01*
X15089230Y-15244460D02*
X15070182Y-15253984D01*
X15070182Y-15253984D02*
X15041610Y-15253984D01*
X15222563Y-15253984D02*
X15203515Y-15244460D01*
X15203515Y-15244460D02*
X15193991Y-15225412D01*
X15193991Y-15225412D02*
X15193991Y-15053984D01*
X15374944Y-15244460D02*
X15355896Y-15253984D01*
X15355896Y-15253984D02*
X15317801Y-15253984D01*
X15317801Y-15253984D02*
X15298753Y-15244460D01*
X15298753Y-15244460D02*
X15289230Y-15225412D01*
X15289230Y-15225412D02*
X15289230Y-15149222D01*
X15289230Y-15149222D02*
X15298753Y-15130174D01*
X15298753Y-15130174D02*
X15317801Y-15120650D01*
X15317801Y-15120650D02*
X15355896Y-15120650D01*
X15355896Y-15120650D02*
X15374944Y-15130174D01*
X15374944Y-15130174D02*
X15384468Y-15149222D01*
X15384468Y-15149222D02*
X15384468Y-15168269D01*
X15384468Y-15168269D02*
X15289230Y-15187317D01*
X15460658Y-15244460D02*
X15479706Y-15253984D01*
X15479706Y-15253984D02*
X15517801Y-15253984D01*
X15517801Y-15253984D02*
X15536849Y-15244460D01*
X15536849Y-15244460D02*
X15546372Y-15225412D01*
X15546372Y-15225412D02*
X15546372Y-15215888D01*
X15546372Y-15215888D02*
X15536849Y-15196841D01*
X15536849Y-15196841D02*
X15517801Y-15187317D01*
X15517801Y-15187317D02*
X15489230Y-15187317D01*
X15489230Y-15187317D02*
X15470182Y-15177793D01*
X15470182Y-15177793D02*
X15460658Y-15158746D01*
X15460658Y-15158746D02*
X15460658Y-15149222D01*
X15460658Y-15149222D02*
X15470182Y-15130174D01*
X15470182Y-15130174D02*
X15489230Y-15120650D01*
X15489230Y-15120650D02*
X15517801Y-15120650D01*
X15517801Y-15120650D02*
X15536849Y-15130174D01*
X15613039Y-15330174D02*
X15622563Y-15320650D01*
X15622563Y-15320650D02*
X15641611Y-15292079D01*
X15641611Y-15292079D02*
X15651134Y-15273031D01*
X15651134Y-15273031D02*
X15660658Y-15244460D01*
X15660658Y-15244460D02*
X15670182Y-15196841D01*
X15670182Y-15196841D02*
X15670182Y-15158746D01*
X15670182Y-15158746D02*
X15660658Y-15111127D01*
X15660658Y-15111127D02*
X15651134Y-15082555D01*
X15651134Y-15082555D02*
X15641611Y-15063508D01*
X15641611Y-15063508D02*
X15622563Y-15034936D01*
X15622563Y-15034936D02*
X15613039Y-15025412D01*
D15*
X10497500Y-15351500D02*
X10647500Y-15501500D01*
X10647500Y-15351500D02*
X10497500Y-15501500D01*
X10572500Y-15351500D02*
X10572500Y-15501500D01*
X10497500Y-15426500D02*
X10647500Y-15426500D01*
D11*
X11013039Y-15517984D02*
X10898753Y-15517984D01*
X10955896Y-15517984D02*
X10955896Y-15317984D01*
X10955896Y-15317984D02*
X10936848Y-15346555D01*
X10936848Y-15346555D02*
X10917801Y-15365603D01*
X10917801Y-15365603D02*
X10898753Y-15375127D01*
X11098753Y-15498936D02*
X11108277Y-15508460D01*
X11108277Y-15508460D02*
X11098753Y-15517984D01*
X11098753Y-15517984D02*
X11089229Y-15508460D01*
X11089229Y-15508460D02*
X11098753Y-15498936D01*
X11098753Y-15498936D02*
X11098753Y-15517984D01*
X11289229Y-15317984D02*
X11193991Y-15317984D01*
X11193991Y-15317984D02*
X11184467Y-15413222D01*
X11184467Y-15413222D02*
X11193991Y-15403698D01*
X11193991Y-15403698D02*
X11213039Y-15394174D01*
X11213039Y-15394174D02*
X11260658Y-15394174D01*
X11260658Y-15394174D02*
X11279705Y-15403698D01*
X11279705Y-15403698D02*
X11289229Y-15413222D01*
X11289229Y-15413222D02*
X11298753Y-15432269D01*
X11298753Y-15432269D02*
X11298753Y-15479888D01*
X11298753Y-15479888D02*
X11289229Y-15498936D01*
X11289229Y-15498936D02*
X11279705Y-15508460D01*
X11279705Y-15508460D02*
X11260658Y-15517984D01*
X11260658Y-15517984D02*
X11213039Y-15517984D01*
X11213039Y-15517984D02*
X11193991Y-15508460D01*
X11193991Y-15508460D02*
X11184467Y-15498936D01*
X11422562Y-15317984D02*
X11441610Y-15317984D01*
X11441610Y-15317984D02*
X11460658Y-15327508D01*
X11460658Y-15327508D02*
X11470182Y-15337031D01*
X11470182Y-15337031D02*
X11479705Y-15356079D01*
X11479705Y-15356079D02*
X11489229Y-15394174D01*
X11489229Y-15394174D02*
X11489229Y-15441793D01*
X11489229Y-15441793D02*
X11479705Y-15479888D01*
X11479705Y-15479888D02*
X11470182Y-15498936D01*
X11470182Y-15498936D02*
X11460658Y-15508460D01*
X11460658Y-15508460D02*
X11441610Y-15517984D01*
X11441610Y-15517984D02*
X11422562Y-15517984D01*
X11422562Y-15517984D02*
X11403515Y-15508460D01*
X11403515Y-15508460D02*
X11393991Y-15498936D01*
X11393991Y-15498936D02*
X11384467Y-15479888D01*
X11384467Y-15479888D02*
X11374943Y-15441793D01*
X11374943Y-15441793D02*
X11374943Y-15394174D01*
X11374943Y-15394174D02*
X11384467Y-15356079D01*
X11384467Y-15356079D02*
X11393991Y-15337031D01*
X11393991Y-15337031D02*
X11403515Y-15327508D01*
X11403515Y-15327508D02*
X11422562Y-15317984D01*
X11613039Y-15317984D02*
X11632086Y-15317984D01*
X11632086Y-15317984D02*
X11651134Y-15327508D01*
X11651134Y-15327508D02*
X11660658Y-15337031D01*
X11660658Y-15337031D02*
X11670182Y-15356079D01*
X11670182Y-15356079D02*
X11679705Y-15394174D01*
X11679705Y-15394174D02*
X11679705Y-15441793D01*
X11679705Y-15441793D02*
X11670182Y-15479888D01*
X11670182Y-15479888D02*
X11660658Y-15498936D01*
X11660658Y-15498936D02*
X11651134Y-15508460D01*
X11651134Y-15508460D02*
X11632086Y-15517984D01*
X11632086Y-15517984D02*
X11613039Y-15517984D01*
X11613039Y-15517984D02*
X11593991Y-15508460D01*
X11593991Y-15508460D02*
X11584467Y-15498936D01*
X11584467Y-15498936D02*
X11574943Y-15479888D01*
X11574943Y-15479888D02*
X11565420Y-15441793D01*
X11565420Y-15441793D02*
X11565420Y-15394174D01*
X11565420Y-15394174D02*
X11574943Y-15356079D01*
X11574943Y-15356079D02*
X11584467Y-15337031D01*
X11584467Y-15337031D02*
X11593991Y-15327508D01*
X11593991Y-15327508D02*
X11613039Y-15317984D01*
X11765420Y-15517984D02*
X11765420Y-15384650D01*
X11765420Y-15403698D02*
X11774943Y-15394174D01*
X11774943Y-15394174D02*
X11793991Y-15384650D01*
X11793991Y-15384650D02*
X11822563Y-15384650D01*
X11822563Y-15384650D02*
X11841610Y-15394174D01*
X11841610Y-15394174D02*
X11851134Y-15413222D01*
X11851134Y-15413222D02*
X11851134Y-15517984D01*
X11851134Y-15413222D02*
X11860658Y-15394174D01*
X11860658Y-15394174D02*
X11879705Y-15384650D01*
X11879705Y-15384650D02*
X11908277Y-15384650D01*
X11908277Y-15384650D02*
X11927324Y-15394174D01*
X11927324Y-15394174D02*
X11936848Y-15413222D01*
X11936848Y-15413222D02*
X11936848Y-15517984D01*
X12032086Y-15517984D02*
X12032086Y-15384650D01*
X12032086Y-15403698D02*
X12041610Y-15394174D01*
X12041610Y-15394174D02*
X12060658Y-15384650D01*
X12060658Y-15384650D02*
X12089229Y-15384650D01*
X12089229Y-15384650D02*
X12108277Y-15394174D01*
X12108277Y-15394174D02*
X12117801Y-15413222D01*
X12117801Y-15413222D02*
X12117801Y-15517984D01*
X12117801Y-15413222D02*
X12127324Y-15394174D01*
X12127324Y-15394174D02*
X12146372Y-15384650D01*
X12146372Y-15384650D02*
X12174943Y-15384650D01*
X12174943Y-15384650D02*
X12193991Y-15394174D01*
X12193991Y-15394174D02*
X12203515Y-15413222D01*
X12203515Y-15413222D02*
X12203515Y-15517984D01*
X12593991Y-15308460D02*
X12422563Y-15565603D01*
X12851134Y-15317984D02*
X12870182Y-15317984D01*
X12870182Y-15317984D02*
X12889229Y-15327508D01*
X12889229Y-15327508D02*
X12898753Y-15337031D01*
X12898753Y-15337031D02*
X12908277Y-15356079D01*
X12908277Y-15356079D02*
X12917801Y-15394174D01*
X12917801Y-15394174D02*
X12917801Y-15441793D01*
X12917801Y-15441793D02*
X12908277Y-15479888D01*
X12908277Y-15479888D02*
X12898753Y-15498936D01*
X12898753Y-15498936D02*
X12889229Y-15508460D01*
X12889229Y-15508460D02*
X12870182Y-15517984D01*
X12870182Y-15517984D02*
X12851134Y-15517984D01*
X12851134Y-15517984D02*
X12832086Y-15508460D01*
X12832086Y-15508460D02*
X12822563Y-15498936D01*
X12822563Y-15498936D02*
X12813039Y-15479888D01*
X12813039Y-15479888D02*
X12803515Y-15441793D01*
X12803515Y-15441793D02*
X12803515Y-15394174D01*
X12803515Y-15394174D02*
X12813039Y-15356079D01*
X12813039Y-15356079D02*
X12822563Y-15337031D01*
X12822563Y-15337031D02*
X12832086Y-15327508D01*
X12832086Y-15327508D02*
X12851134Y-15317984D01*
X13003515Y-15498936D02*
X13013039Y-15508460D01*
X13013039Y-15508460D02*
X13003515Y-15517984D01*
X13003515Y-15517984D02*
X12993991Y-15508460D01*
X12993991Y-15508460D02*
X13003515Y-15498936D01*
X13003515Y-15498936D02*
X13003515Y-15517984D01*
X13136848Y-15317984D02*
X13155896Y-15317984D01*
X13155896Y-15317984D02*
X13174944Y-15327508D01*
X13174944Y-15327508D02*
X13184467Y-15337031D01*
X13184467Y-15337031D02*
X13193991Y-15356079D01*
X13193991Y-15356079D02*
X13203515Y-15394174D01*
X13203515Y-15394174D02*
X13203515Y-15441793D01*
X13203515Y-15441793D02*
X13193991Y-15479888D01*
X13193991Y-15479888D02*
X13184467Y-15498936D01*
X13184467Y-15498936D02*
X13174944Y-15508460D01*
X13174944Y-15508460D02*
X13155896Y-15517984D01*
X13155896Y-15517984D02*
X13136848Y-15517984D01*
X13136848Y-15517984D02*
X13117801Y-15508460D01*
X13117801Y-15508460D02*
X13108277Y-15498936D01*
X13108277Y-15498936D02*
X13098753Y-15479888D01*
X13098753Y-15479888D02*
X13089229Y-15441793D01*
X13089229Y-15441793D02*
X13089229Y-15394174D01*
X13089229Y-15394174D02*
X13098753Y-15356079D01*
X13098753Y-15356079D02*
X13108277Y-15337031D01*
X13108277Y-15337031D02*
X13117801Y-15327508D01*
X13117801Y-15327508D02*
X13136848Y-15317984D01*
X13384467Y-15317984D02*
X13289229Y-15317984D01*
X13289229Y-15317984D02*
X13279706Y-15413222D01*
X13279706Y-15413222D02*
X13289229Y-15403698D01*
X13289229Y-15403698D02*
X13308277Y-15394174D01*
X13308277Y-15394174D02*
X13355896Y-15394174D01*
X13355896Y-15394174D02*
X13374944Y-15403698D01*
X13374944Y-15403698D02*
X13384467Y-15413222D01*
X13384467Y-15413222D02*
X13393991Y-15432269D01*
X13393991Y-15432269D02*
X13393991Y-15479888D01*
X13393991Y-15479888D02*
X13384467Y-15498936D01*
X13384467Y-15498936D02*
X13374944Y-15508460D01*
X13374944Y-15508460D02*
X13355896Y-15517984D01*
X13355896Y-15517984D02*
X13308277Y-15517984D01*
X13308277Y-15517984D02*
X13289229Y-15508460D01*
X13289229Y-15508460D02*
X13279706Y-15498936D01*
X13489229Y-15517984D02*
X13527325Y-15517984D01*
X13527325Y-15517984D02*
X13546372Y-15508460D01*
X13546372Y-15508460D02*
X13555896Y-15498936D01*
X13555896Y-15498936D02*
X13574944Y-15470365D01*
X13574944Y-15470365D02*
X13584467Y-15432269D01*
X13584467Y-15432269D02*
X13584467Y-15356079D01*
X13584467Y-15356079D02*
X13574944Y-15337031D01*
X13574944Y-15337031D02*
X13565420Y-15327508D01*
X13565420Y-15327508D02*
X13546372Y-15317984D01*
X13546372Y-15317984D02*
X13508277Y-15317984D01*
X13508277Y-15317984D02*
X13489229Y-15327508D01*
X13489229Y-15327508D02*
X13479706Y-15337031D01*
X13479706Y-15337031D02*
X13470182Y-15356079D01*
X13470182Y-15356079D02*
X13470182Y-15403698D01*
X13470182Y-15403698D02*
X13479706Y-15422746D01*
X13479706Y-15422746D02*
X13489229Y-15432269D01*
X13489229Y-15432269D02*
X13508277Y-15441793D01*
X13508277Y-15441793D02*
X13546372Y-15441793D01*
X13546372Y-15441793D02*
X13565420Y-15432269D01*
X13565420Y-15432269D02*
X13574944Y-15422746D01*
X13574944Y-15422746D02*
X13584467Y-15403698D01*
X13774944Y-15517984D02*
X13660658Y-15517984D01*
X13717801Y-15517984D02*
X13717801Y-15317984D01*
X13717801Y-15317984D02*
X13698753Y-15346555D01*
X13698753Y-15346555D02*
X13679706Y-15365603D01*
X13679706Y-15365603D02*
X13660658Y-15375127D01*
X13851134Y-15317984D02*
X13851134Y-15356079D01*
X13927325Y-15317984D02*
X13927325Y-15356079D01*
X14222563Y-15594174D02*
X14213039Y-15584650D01*
X14213039Y-15584650D02*
X14193991Y-15556079D01*
X14193991Y-15556079D02*
X14184468Y-15537031D01*
X14184468Y-15537031D02*
X14174944Y-15508460D01*
X14174944Y-15508460D02*
X14165420Y-15460841D01*
X14165420Y-15460841D02*
X14165420Y-15422746D01*
X14165420Y-15422746D02*
X14174944Y-15375127D01*
X14174944Y-15375127D02*
X14184468Y-15346555D01*
X14184468Y-15346555D02*
X14193991Y-15327508D01*
X14193991Y-15327508D02*
X14213039Y-15298936D01*
X14213039Y-15298936D02*
X14222563Y-15289412D01*
X14403515Y-15517984D02*
X14289229Y-15517984D01*
X14346372Y-15517984D02*
X14346372Y-15317984D01*
X14346372Y-15317984D02*
X14327325Y-15346555D01*
X14327325Y-15346555D02*
X14308277Y-15365603D01*
X14308277Y-15365603D02*
X14289229Y-15375127D01*
X14574944Y-15317984D02*
X14536848Y-15317984D01*
X14536848Y-15317984D02*
X14517801Y-15327508D01*
X14517801Y-15327508D02*
X14508277Y-15337031D01*
X14508277Y-15337031D02*
X14489229Y-15365603D01*
X14489229Y-15365603D02*
X14479706Y-15403698D01*
X14479706Y-15403698D02*
X14479706Y-15479888D01*
X14479706Y-15479888D02*
X14489229Y-15498936D01*
X14489229Y-15498936D02*
X14498753Y-15508460D01*
X14498753Y-15508460D02*
X14517801Y-15517984D01*
X14517801Y-15517984D02*
X14555896Y-15517984D01*
X14555896Y-15517984D02*
X14574944Y-15508460D01*
X14574944Y-15508460D02*
X14584468Y-15498936D01*
X14584468Y-15498936D02*
X14593991Y-15479888D01*
X14593991Y-15479888D02*
X14593991Y-15432269D01*
X14593991Y-15432269D02*
X14584468Y-15413222D01*
X14584468Y-15413222D02*
X14574944Y-15403698D01*
X14574944Y-15403698D02*
X14555896Y-15394174D01*
X14555896Y-15394174D02*
X14517801Y-15394174D01*
X14517801Y-15394174D02*
X14498753Y-15403698D01*
X14498753Y-15403698D02*
X14489229Y-15413222D01*
X14489229Y-15413222D02*
X14479706Y-15432269D01*
X14832087Y-15517984D02*
X14832087Y-15317984D01*
X14917801Y-15517984D02*
X14917801Y-15413222D01*
X14917801Y-15413222D02*
X14908277Y-15394174D01*
X14908277Y-15394174D02*
X14889230Y-15384650D01*
X14889230Y-15384650D02*
X14860658Y-15384650D01*
X14860658Y-15384650D02*
X14841610Y-15394174D01*
X14841610Y-15394174D02*
X14832087Y-15403698D01*
X15041610Y-15517984D02*
X15022563Y-15508460D01*
X15022563Y-15508460D02*
X15013039Y-15498936D01*
X15013039Y-15498936D02*
X15003515Y-15479888D01*
X15003515Y-15479888D02*
X15003515Y-15422746D01*
X15003515Y-15422746D02*
X15013039Y-15403698D01*
X15013039Y-15403698D02*
X15022563Y-15394174D01*
X15022563Y-15394174D02*
X15041610Y-15384650D01*
X15041610Y-15384650D02*
X15070182Y-15384650D01*
X15070182Y-15384650D02*
X15089230Y-15394174D01*
X15089230Y-15394174D02*
X15098753Y-15403698D01*
X15098753Y-15403698D02*
X15108277Y-15422746D01*
X15108277Y-15422746D02*
X15108277Y-15479888D01*
X15108277Y-15479888D02*
X15098753Y-15498936D01*
X15098753Y-15498936D02*
X15089230Y-15508460D01*
X15089230Y-15508460D02*
X15070182Y-15517984D01*
X15070182Y-15517984D02*
X15041610Y-15517984D01*
X15222563Y-15517984D02*
X15203515Y-15508460D01*
X15203515Y-15508460D02*
X15193991Y-15489412D01*
X15193991Y-15489412D02*
X15193991Y-15317984D01*
X15374944Y-15508460D02*
X15355896Y-15517984D01*
X15355896Y-15517984D02*
X15317801Y-15517984D01*
X15317801Y-15517984D02*
X15298753Y-15508460D01*
X15298753Y-15508460D02*
X15289230Y-15489412D01*
X15289230Y-15489412D02*
X15289230Y-15413222D01*
X15289230Y-15413222D02*
X15298753Y-15394174D01*
X15298753Y-15394174D02*
X15317801Y-15384650D01*
X15317801Y-15384650D02*
X15355896Y-15384650D01*
X15355896Y-15384650D02*
X15374944Y-15394174D01*
X15374944Y-15394174D02*
X15384468Y-15413222D01*
X15384468Y-15413222D02*
X15384468Y-15432269D01*
X15384468Y-15432269D02*
X15289230Y-15451317D01*
X15460658Y-15508460D02*
X15479706Y-15517984D01*
X15479706Y-15517984D02*
X15517801Y-15517984D01*
X15517801Y-15517984D02*
X15536849Y-15508460D01*
X15536849Y-15508460D02*
X15546372Y-15489412D01*
X15546372Y-15489412D02*
X15546372Y-15479888D01*
X15546372Y-15479888D02*
X15536849Y-15460841D01*
X15536849Y-15460841D02*
X15517801Y-15451317D01*
X15517801Y-15451317D02*
X15489230Y-15451317D01*
X15489230Y-15451317D02*
X15470182Y-15441793D01*
X15470182Y-15441793D02*
X15460658Y-15422746D01*
X15460658Y-15422746D02*
X15460658Y-15413222D01*
X15460658Y-15413222D02*
X15470182Y-15394174D01*
X15470182Y-15394174D02*
X15489230Y-15384650D01*
X15489230Y-15384650D02*
X15517801Y-15384650D01*
X15517801Y-15384650D02*
X15536849Y-15394174D01*
X15613039Y-15594174D02*
X15622563Y-15584650D01*
X15622563Y-15584650D02*
X15641611Y-15556079D01*
X15641611Y-15556079D02*
X15651134Y-15537031D01*
X15651134Y-15537031D02*
X15660658Y-15508460D01*
X15660658Y-15508460D02*
X15670182Y-15460841D01*
X15670182Y-15460841D02*
X15670182Y-15422746D01*
X15670182Y-15422746D02*
X15660658Y-15375127D01*
X15660658Y-15375127D02*
X15651134Y-15346555D01*
X15651134Y-15346555D02*
X15641611Y-15327508D01*
X15641611Y-15327508D02*
X15622563Y-15298936D01*
X15622563Y-15298936D02*
X15613039Y-15289412D01*
M02*
