M48
; DRILL file {KiCad 9.0.2} date 2025-10-06T11:52:26+0200
; FORMAT={-:-/ absolute / metric / decimal}
; #@! TF.CreationDate,2025-10-06T11:52:26+02:00
; #@! TF.GenerationSoftware,Kicad,Pcbnew,9.0.2
; #@! TF.FileFunction,Plated,1,2,PTH
FMAT,2
METRIC
; #@! TA.AperFunction,Plated,PTH,ViaDrill
T1C0.300
; #@! TA.AperFunction,Plated,PTH,ViaDrill
T2C0.500
; #@! TA.AperFunction,Plated,PTH,ComponentDrill
T3C0.800
; #@! TA.AperFunction,Plated,PTH,ComponentDrill
T4C1.000
; #@! TA.AperFunction,Plated,PTH,ComponentDrill
T5C1.100
; #@! TA.AperFunction,Plated,PTH,ComponentDrill
T6C1.200
; #@! TA.AperFunction,Plated,PTH,ComponentDrill
T7C1.500
%
G90
G05
T1
X120.0Y-89.0
X120.0Y-90.0
X121.0Y-89.0
X121.0Y-90.0
X122.0Y-89.0
X122.0Y-90.0
X123.0Y-89.0
X123.0Y-90.0
X150.0Y-107.0
X150.0Y-108.0
X151.0Y-107.0
X151.0Y-108.0
X152.0Y-107.0
X152.0Y-108.0
X153.0Y-107.0
X153.0Y-108.0
X160.0Y-85.0
X160.0Y-86.0
X161.0Y-85.0
X161.0Y-86.0
X162.0Y-85.0
X162.0Y-86.0
X163.0Y-85.0
X163.0Y-86.0
X165.0Y-102.0
X165.0Y-103.0
X166.0Y-102.0
X166.0Y-103.0
X167.0Y-102.0
X167.0Y-103.0
X168.0Y-102.0
X168.0Y-103.0
X173.0Y-115.0
X173.0Y-116.0
X174.0Y-115.0
X174.0Y-116.0
X175.0Y-115.0
X175.0Y-116.0
X176.0Y-115.0
X176.0Y-116.0
X181.0Y-105.0
X181.0Y-106.0
X182.0Y-105.0
X182.0Y-106.0
X183.0Y-105.0
X183.0Y-106.0
X184.0Y-105.0
X184.0Y-106.0
X184.5Y-88.75
X185.75Y-95.0
X200.0Y-86.0
X200.0Y-87.0
X201.0Y-86.0
X201.0Y-87.0
X202.0Y-86.0
X202.0Y-87.0
X202.0Y-114.0
X202.0Y-115.0
X203.0Y-86.0
X203.0Y-87.0
X203.0Y-114.0
X203.0Y-115.0
X204.0Y-114.0
X204.0Y-115.0
X205.0Y-114.0
X205.0Y-115.0
T2
X164.0Y-110.5
X171.25Y-104.0
X181.75Y-99.5
X185.5Y-116.75
X186.25Y-85.0
X191.25Y-84.25
X194.375Y-105.125
X195.75Y-100.0
X202.5Y-101.5
X210.25Y-99.75
X211.0Y-88.0
X213.0Y-75.05
X214.0Y-100.75
X216.75Y-97.25
X220.6Y-114.55
X225.25Y-84.25
X226.35Y-75.6
T3
X120.718Y-108.233
X120.718Y-115.852
X123.257Y-108.233
X123.257Y-115.852
X220.732Y-108.742
X220.732Y-111.282
X228.352Y-108.742
X228.352Y-111.282
T4
X152.48Y-94.37
X155.02Y-94.37
X157.56Y-94.37
X160.1Y-94.37
X162.64Y-94.37
X165.18Y-94.37
X167.72Y-94.37
X170.26Y-94.37
X172.8Y-94.37
X175.34Y-94.37
X191.2Y-79.62
X191.2Y-94.86
X193.74Y-79.62
X193.74Y-94.86
X196.28Y-94.86
X196.28Y-79.62
X198.82Y-79.62
X198.82Y-94.86
X201.36Y-94.86
X201.36Y-79.62
X203.9Y-79.62
X203.9Y-94.86
X206.44Y-79.62
X206.44Y-94.86
X208.98Y-79.62
X208.98Y-94.86
X211.52Y-79.62
X211.52Y-94.86
X214.06Y-79.62
X214.06Y-94.86
X216.6Y-79.62
X216.6Y-94.86
X219.14Y-94.86
X219.14Y-79.62
X221.68Y-79.62
X221.68Y-94.86
X224.22Y-79.62
X224.22Y-94.86
X226.76Y-79.62
X226.76Y-94.86
T5
X113.77Y-123.25
X116.31Y-123.25
X121.02Y-123.25
X123.56Y-123.25
X128.27Y-123.25
X130.81Y-123.25
X135.75Y-123.25
X138.29Y-123.25
X140.83Y-123.25
X146.0Y-123.25
X148.54Y-123.25
X151.08Y-123.25
X156.25Y-123.25
X158.79Y-123.25
X161.33Y-123.25
X166.54Y-123.245
X169.08Y-123.245
X171.62Y-123.245
X176.75Y-123.25
X179.29Y-123.25
X181.83Y-123.25
X187.04Y-123.245
X189.58Y-123.245
X192.12Y-123.245
X197.25Y-123.25
X199.79Y-123.25
X202.33Y-123.25
X207.5Y-123.25
X210.04Y-123.25
X212.58Y-123.25
X217.75Y-123.25
X220.29Y-123.25
X222.83Y-123.25
X228.0Y-123.25
X230.54Y-123.25
X233.08Y-123.25
T6
X143.717Y-99.4
X143.717Y-107.02
X143.717Y-104.48
X143.717Y-109.56
X143.717Y-112.1
X143.717Y-101.94
X220.9Y-100.283
X223.44Y-100.283
X225.98Y-100.283
X228.52Y-100.283
X231.06Y-100.283
X233.6Y-100.283
T7
X116.1Y-79.6
X116.1Y-101.9
X119.2Y-79.6
X119.2Y-101.9
X126.7Y-79.6
X126.7Y-102.0
X129.7Y-79.6
X129.8Y-101.9
X136.6Y-80.05
X136.7Y-94.45
X145.1Y-94.45
X145.1Y-80.05
X206.25Y-104.45
X210.0Y-115.2
X217.5Y-102.7
X218.75Y-76.45
M30
