%TF.GenerationSoftware,KiCad,Pcbnew,9.0.2*%
%TF.CreationDate,2025-10-09T08:45:46+02:00*%
%TF.ProjectId,MPeV6PCB,4d506556-3650-4434-922e-6b696361645f,rev?*%
%TF.SameCoordinates,Original*%
%TF.FileFunction,Paste,Top*%
%TF.FilePolarity,Positive*%
%FSLAX46Y46*%
G04 Gerber Fmt 4.6, Leading zero omitted, Abs format (unit mm)*
G04 Created by KiCad (PCBNEW 9.0.2) date 2025-10-09 08:45:46*
%MOMM*%
%LPD*%
G01*
G04 APERTURE LIST*
G04 Aperture macros list*
%AMRoundRect*
0 Rectangle with rounded corners*
0 $1 Rounding radius*
0 $2 $3 $4 $5 $6 $7 $8 $9 X,Y pos of 4 corners*
0 Add a 4 corners polygon primitive as box body*
4,1,4,$2,$3,$4,$5,$6,$7,$8,$9,$2,$3,0*
0 Add four circle primitives for the rounded corners*
1,1,$1+$1,$2,$3*
1,1,$1+$1,$4,$5*
1,1,$1+$1,$6,$7*
1,1,$1+$1,$8,$9*
0 Add four rect primitives between the rounded corners*
20,1,$1+$1,$2,$3,$4,$5,0*
20,1,$1+$1,$4,$5,$6,$7,0*
20,1,$1+$1,$6,$7,$8,$9,0*
20,1,$1+$1,$8,$9,$2,$3,0*%
G04 Aperture macros list end*
%ADD10RoundRect,0.250000X-0.450000X0.350000X-0.450000X-0.350000X0.450000X-0.350000X0.450000X0.350000X0*%
%ADD11RoundRect,0.250000X0.350000X0.450000X-0.350000X0.450000X-0.350000X-0.450000X0.350000X-0.450000X0*%
%ADD12RoundRect,0.250000X-0.350000X-0.450000X0.350000X-0.450000X0.350000X0.450000X-0.350000X0.450000X0*%
%ADD13RoundRect,0.250000X0.450000X-0.350000X0.450000X0.350000X-0.450000X0.350000X-0.450000X-0.350000X0*%
%ADD14RoundRect,0.250000X-0.500000X-1.100000X0.500000X-1.100000X0.500000X1.100000X-0.500000X1.100000X0*%
G04 APERTURE END LIST*
D10*
%TO.C,R22*%
X184500000Y-90500000D03*
X184500000Y-92500000D03*
%TD*%
%TO.C,R35*%
X206500000Y-97500000D03*
X206500000Y-99500000D03*
%TD*%
%TO.C,R36*%
X215750000Y-75000000D03*
X215750000Y-77000000D03*
%TD*%
%TO.C,R23*%
X211500000Y-75000000D03*
X211500000Y-77000000D03*
%TD*%
D11*
%TO.C,R30*%
X211250000Y-103000000D03*
X209250000Y-103000000D03*
%TD*%
D10*
%TO.C,R5*%
X211500000Y-97500000D03*
X211500000Y-99500000D03*
%TD*%
D12*
%TO.C,R29*%
X209250000Y-106000000D03*
X211250000Y-106000000D03*
%TD*%
D13*
%TO.C,R10*%
X201250000Y-104750000D03*
X201250000Y-102750000D03*
%TD*%
%TO.C,R40*%
X175250000Y-102500000D03*
X175250000Y-100500000D03*
%TD*%
D10*
%TO.C,R6*%
X214000000Y-97500000D03*
X214000000Y-99500000D03*
%TD*%
D11*
%TO.C,R17*%
X234000003Y-111699994D03*
X232000003Y-111699994D03*
%TD*%
D12*
%TO.C,R13*%
X165500000Y-111500000D03*
X167500000Y-111500000D03*
%TD*%
D11*
%TO.C,R24*%
X194500000Y-100000000D03*
X192500000Y-100000000D03*
%TD*%
D10*
%TO.C,R19*%
X156750000Y-110000000D03*
X156750000Y-112000000D03*
%TD*%
%TO.C,R9*%
X201250000Y-98250000D03*
X201250000Y-100250000D03*
%TD*%
%TO.C,R11*%
X187500000Y-111000000D03*
X187500000Y-113000000D03*
%TD*%
%TO.C,R15*%
X166250000Y-106000000D03*
X166250000Y-108000000D03*
%TD*%
D11*
%TO.C,R16*%
X216700000Y-108800000D03*
X214700000Y-108800000D03*
%TD*%
D13*
%TO.C,R27*%
X181750000Y-97250000D03*
X181750000Y-95250000D03*
%TD*%
%TO.C,R41*%
X171250000Y-102500000D03*
X171250000Y-100500000D03*
%TD*%
D10*
%TO.C,R20*%
X160250000Y-110000000D03*
X160250000Y-112000000D03*
%TD*%
D13*
%TO.C,R14*%
X170250000Y-109750000D03*
X170250000Y-107750000D03*
%TD*%
%TO.C,R25*%
X208000000Y-76750000D03*
X208000000Y-74750000D03*
%TD*%
D11*
%TO.C,R18*%
X234000000Y-108750000D03*
X232000000Y-108750000D03*
%TD*%
%TO.C,R28*%
X194500000Y-103250000D03*
X192500000Y-103250000D03*
%TD*%
D13*
%TO.C,R26*%
X204500000Y-76750000D03*
X204500000Y-74750000D03*
%TD*%
D10*
%TO.C,R37*%
X162750000Y-100500000D03*
X162750000Y-102500000D03*
%TD*%
%TO.C,R12*%
X192250000Y-111000000D03*
X192250000Y-113000000D03*
%TD*%
%TO.C,R21*%
X184500000Y-85000000D03*
X184500000Y-87000000D03*
%TD*%
D14*
%TO.C,D1*%
X133100000Y-99500000D03*
X137900000Y-99500000D03*
%TD*%
M02*
