%TF.GenerationSoftware,KiCad,Pcbnew,9.0.2*%
%TF.CreationDate,2026-01-14T12:53:17+01:00*%
%TF.ProjectId,MPeV6PCB,4d506556-3650-4434-922e-6b696361645f,rev?*%
%TF.SameCoordinates,Original*%
%TF.FileFunction,Legend,Bot*%
%TF.FilePolarity,Positive*%
%FSLAX46Y46*%
G04 Gerber Fmt 4.6, Leading zero omitted, Abs format (unit mm)*
G04 Created by KiCad (PCBNEW 9.0.2) date 2026-01-14 12:53:17*
%MOMM*%
%LPD*%
G01*
G04 APERTURE LIST*
%ADD10C,0.150000*%
%ADD11C,0.120000*%
G04 APERTURE END LIST*
D10*
X218559580Y-83083333D02*
X218607200Y-83035714D01*
X218607200Y-83035714D02*
X218654819Y-82892857D01*
X218654819Y-82892857D02*
X218654819Y-82797619D01*
X218654819Y-82797619D02*
X218607200Y-82654762D01*
X218607200Y-82654762D02*
X218511961Y-82559524D01*
X218511961Y-82559524D02*
X218416723Y-82511905D01*
X218416723Y-82511905D02*
X218226247Y-82464286D01*
X218226247Y-82464286D02*
X218083390Y-82464286D01*
X218083390Y-82464286D02*
X217892914Y-82511905D01*
X217892914Y-82511905D02*
X217797676Y-82559524D01*
X217797676Y-82559524D02*
X217702438Y-82654762D01*
X217702438Y-82654762D02*
X217654819Y-82797619D01*
X217654819Y-82797619D02*
X217654819Y-82892857D01*
X217654819Y-82892857D02*
X217702438Y-83035714D01*
X217702438Y-83035714D02*
X217750057Y-83083333D01*
X217750057Y-83464286D02*
X217702438Y-83511905D01*
X217702438Y-83511905D02*
X217654819Y-83607143D01*
X217654819Y-83607143D02*
X217654819Y-83845238D01*
X217654819Y-83845238D02*
X217702438Y-83940476D01*
X217702438Y-83940476D02*
X217750057Y-83988095D01*
X217750057Y-83988095D02*
X217845295Y-84035714D01*
X217845295Y-84035714D02*
X217940533Y-84035714D01*
X217940533Y-84035714D02*
X218083390Y-83988095D01*
X218083390Y-83988095D02*
X218654819Y-83416667D01*
X218654819Y-83416667D02*
X218654819Y-84035714D01*
X153859580Y-90333333D02*
X153907200Y-90285714D01*
X153907200Y-90285714D02*
X153954819Y-90142857D01*
X153954819Y-90142857D02*
X153954819Y-90047619D01*
X153954819Y-90047619D02*
X153907200Y-89904762D01*
X153907200Y-89904762D02*
X153811961Y-89809524D01*
X153811961Y-89809524D02*
X153716723Y-89761905D01*
X153716723Y-89761905D02*
X153526247Y-89714286D01*
X153526247Y-89714286D02*
X153383390Y-89714286D01*
X153383390Y-89714286D02*
X153192914Y-89761905D01*
X153192914Y-89761905D02*
X153097676Y-89809524D01*
X153097676Y-89809524D02*
X153002438Y-89904762D01*
X153002438Y-89904762D02*
X152954819Y-90047619D01*
X152954819Y-90047619D02*
X152954819Y-90142857D01*
X152954819Y-90142857D02*
X153002438Y-90285714D01*
X153002438Y-90285714D02*
X153050057Y-90333333D01*
X153383390Y-90904762D02*
X153335771Y-90809524D01*
X153335771Y-90809524D02*
X153288152Y-90761905D01*
X153288152Y-90761905D02*
X153192914Y-90714286D01*
X153192914Y-90714286D02*
X153145295Y-90714286D01*
X153145295Y-90714286D02*
X153050057Y-90761905D01*
X153050057Y-90761905D02*
X153002438Y-90809524D01*
X153002438Y-90809524D02*
X152954819Y-90904762D01*
X152954819Y-90904762D02*
X152954819Y-91095238D01*
X152954819Y-91095238D02*
X153002438Y-91190476D01*
X153002438Y-91190476D02*
X153050057Y-91238095D01*
X153050057Y-91238095D02*
X153145295Y-91285714D01*
X153145295Y-91285714D02*
X153192914Y-91285714D01*
X153192914Y-91285714D02*
X153288152Y-91238095D01*
X153288152Y-91238095D02*
X153335771Y-91190476D01*
X153335771Y-91190476D02*
X153383390Y-91095238D01*
X153383390Y-91095238D02*
X153383390Y-90904762D01*
X153383390Y-90904762D02*
X153431009Y-90809524D01*
X153431009Y-90809524D02*
X153478628Y-90761905D01*
X153478628Y-90761905D02*
X153573866Y-90714286D01*
X153573866Y-90714286D02*
X153764342Y-90714286D01*
X153764342Y-90714286D02*
X153859580Y-90761905D01*
X153859580Y-90761905D02*
X153907200Y-90809524D01*
X153907200Y-90809524D02*
X153954819Y-90904762D01*
X153954819Y-90904762D02*
X153954819Y-91095238D01*
X153954819Y-91095238D02*
X153907200Y-91190476D01*
X153907200Y-91190476D02*
X153859580Y-91238095D01*
X153859580Y-91238095D02*
X153764342Y-91285714D01*
X153764342Y-91285714D02*
X153573866Y-91285714D01*
X153573866Y-91285714D02*
X153478628Y-91238095D01*
X153478628Y-91238095D02*
X153431009Y-91190476D01*
X153431009Y-91190476D02*
X153383390Y-91095238D01*
X213166666Y-85754819D02*
X213499999Y-85278628D01*
X213738094Y-85754819D02*
X213738094Y-84754819D01*
X213738094Y-84754819D02*
X213357142Y-84754819D01*
X213357142Y-84754819D02*
X213261904Y-84802438D01*
X213261904Y-84802438D02*
X213214285Y-84850057D01*
X213214285Y-84850057D02*
X213166666Y-84945295D01*
X213166666Y-84945295D02*
X213166666Y-85088152D01*
X213166666Y-85088152D02*
X213214285Y-85183390D01*
X213214285Y-85183390D02*
X213261904Y-85231009D01*
X213261904Y-85231009D02*
X213357142Y-85278628D01*
X213357142Y-85278628D02*
X213738094Y-85278628D01*
X212785713Y-84850057D02*
X212738094Y-84802438D01*
X212738094Y-84802438D02*
X212642856Y-84754819D01*
X212642856Y-84754819D02*
X212404761Y-84754819D01*
X212404761Y-84754819D02*
X212309523Y-84802438D01*
X212309523Y-84802438D02*
X212261904Y-84850057D01*
X212261904Y-84850057D02*
X212214285Y-84945295D01*
X212214285Y-84945295D02*
X212214285Y-85040533D01*
X212214285Y-85040533D02*
X212261904Y-85183390D01*
X212261904Y-85183390D02*
X212833332Y-85754819D01*
X212833332Y-85754819D02*
X212214285Y-85754819D01*
X163204819Y-89357142D02*
X162728628Y-89023809D01*
X163204819Y-88785714D02*
X162204819Y-88785714D01*
X162204819Y-88785714D02*
X162204819Y-89166666D01*
X162204819Y-89166666D02*
X162252438Y-89261904D01*
X162252438Y-89261904D02*
X162300057Y-89309523D01*
X162300057Y-89309523D02*
X162395295Y-89357142D01*
X162395295Y-89357142D02*
X162538152Y-89357142D01*
X162538152Y-89357142D02*
X162633390Y-89309523D01*
X162633390Y-89309523D02*
X162681009Y-89261904D01*
X162681009Y-89261904D02*
X162728628Y-89166666D01*
X162728628Y-89166666D02*
X162728628Y-88785714D01*
X162204819Y-89690476D02*
X162204819Y-90309523D01*
X162204819Y-90309523D02*
X162585771Y-89976190D01*
X162585771Y-89976190D02*
X162585771Y-90119047D01*
X162585771Y-90119047D02*
X162633390Y-90214285D01*
X162633390Y-90214285D02*
X162681009Y-90261904D01*
X162681009Y-90261904D02*
X162776247Y-90309523D01*
X162776247Y-90309523D02*
X163014342Y-90309523D01*
X163014342Y-90309523D02*
X163109580Y-90261904D01*
X163109580Y-90261904D02*
X163157200Y-90214285D01*
X163157200Y-90214285D02*
X163204819Y-90119047D01*
X163204819Y-90119047D02*
X163204819Y-89833333D01*
X163204819Y-89833333D02*
X163157200Y-89738095D01*
X163157200Y-89738095D02*
X163109580Y-89690476D01*
X162633390Y-90880952D02*
X162585771Y-90785714D01*
X162585771Y-90785714D02*
X162538152Y-90738095D01*
X162538152Y-90738095D02*
X162442914Y-90690476D01*
X162442914Y-90690476D02*
X162395295Y-90690476D01*
X162395295Y-90690476D02*
X162300057Y-90738095D01*
X162300057Y-90738095D02*
X162252438Y-90785714D01*
X162252438Y-90785714D02*
X162204819Y-90880952D01*
X162204819Y-90880952D02*
X162204819Y-91071428D01*
X162204819Y-91071428D02*
X162252438Y-91166666D01*
X162252438Y-91166666D02*
X162300057Y-91214285D01*
X162300057Y-91214285D02*
X162395295Y-91261904D01*
X162395295Y-91261904D02*
X162442914Y-91261904D01*
X162442914Y-91261904D02*
X162538152Y-91214285D01*
X162538152Y-91214285D02*
X162585771Y-91166666D01*
X162585771Y-91166666D02*
X162633390Y-91071428D01*
X162633390Y-91071428D02*
X162633390Y-90880952D01*
X162633390Y-90880952D02*
X162681009Y-90785714D01*
X162681009Y-90785714D02*
X162728628Y-90738095D01*
X162728628Y-90738095D02*
X162823866Y-90690476D01*
X162823866Y-90690476D02*
X163014342Y-90690476D01*
X163014342Y-90690476D02*
X163109580Y-90738095D01*
X163109580Y-90738095D02*
X163157200Y-90785714D01*
X163157200Y-90785714D02*
X163204819Y-90880952D01*
X163204819Y-90880952D02*
X163204819Y-91071428D01*
X163204819Y-91071428D02*
X163157200Y-91166666D01*
X163157200Y-91166666D02*
X163109580Y-91214285D01*
X163109580Y-91214285D02*
X163014342Y-91261904D01*
X163014342Y-91261904D02*
X162823866Y-91261904D01*
X162823866Y-91261904D02*
X162728628Y-91214285D01*
X162728628Y-91214285D02*
X162681009Y-91166666D01*
X162681009Y-91166666D02*
X162633390Y-91071428D01*
X167954819Y-89357142D02*
X167478628Y-89023809D01*
X167954819Y-88785714D02*
X166954819Y-88785714D01*
X166954819Y-88785714D02*
X166954819Y-89166666D01*
X166954819Y-89166666D02*
X167002438Y-89261904D01*
X167002438Y-89261904D02*
X167050057Y-89309523D01*
X167050057Y-89309523D02*
X167145295Y-89357142D01*
X167145295Y-89357142D02*
X167288152Y-89357142D01*
X167288152Y-89357142D02*
X167383390Y-89309523D01*
X167383390Y-89309523D02*
X167431009Y-89261904D01*
X167431009Y-89261904D02*
X167478628Y-89166666D01*
X167478628Y-89166666D02*
X167478628Y-88785714D01*
X166954819Y-89690476D02*
X166954819Y-90309523D01*
X166954819Y-90309523D02*
X167335771Y-89976190D01*
X167335771Y-89976190D02*
X167335771Y-90119047D01*
X167335771Y-90119047D02*
X167383390Y-90214285D01*
X167383390Y-90214285D02*
X167431009Y-90261904D01*
X167431009Y-90261904D02*
X167526247Y-90309523D01*
X167526247Y-90309523D02*
X167764342Y-90309523D01*
X167764342Y-90309523D02*
X167859580Y-90261904D01*
X167859580Y-90261904D02*
X167907200Y-90214285D01*
X167907200Y-90214285D02*
X167954819Y-90119047D01*
X167954819Y-90119047D02*
X167954819Y-89833333D01*
X167954819Y-89833333D02*
X167907200Y-89738095D01*
X167907200Y-89738095D02*
X167859580Y-89690476D01*
X167954819Y-90785714D02*
X167954819Y-90976190D01*
X167954819Y-90976190D02*
X167907200Y-91071428D01*
X167907200Y-91071428D02*
X167859580Y-91119047D01*
X167859580Y-91119047D02*
X167716723Y-91214285D01*
X167716723Y-91214285D02*
X167526247Y-91261904D01*
X167526247Y-91261904D02*
X167145295Y-91261904D01*
X167145295Y-91261904D02*
X167050057Y-91214285D01*
X167050057Y-91214285D02*
X167002438Y-91166666D01*
X167002438Y-91166666D02*
X166954819Y-91071428D01*
X166954819Y-91071428D02*
X166954819Y-90880952D01*
X166954819Y-90880952D02*
X167002438Y-90785714D01*
X167002438Y-90785714D02*
X167050057Y-90738095D01*
X167050057Y-90738095D02*
X167145295Y-90690476D01*
X167145295Y-90690476D02*
X167383390Y-90690476D01*
X167383390Y-90690476D02*
X167478628Y-90738095D01*
X167478628Y-90738095D02*
X167526247Y-90785714D01*
X167526247Y-90785714D02*
X167573866Y-90880952D01*
X167573866Y-90880952D02*
X167573866Y-91071428D01*
X167573866Y-91071428D02*
X167526247Y-91166666D01*
X167526247Y-91166666D02*
X167478628Y-91214285D01*
X167478628Y-91214285D02*
X167383390Y-91261904D01*
X223666669Y-81954819D02*
X224000002Y-81478628D01*
X224238097Y-81954819D02*
X224238097Y-80954819D01*
X224238097Y-80954819D02*
X223857145Y-80954819D01*
X223857145Y-80954819D02*
X223761907Y-81002438D01*
X223761907Y-81002438D02*
X223714288Y-81050057D01*
X223714288Y-81050057D02*
X223666669Y-81145295D01*
X223666669Y-81145295D02*
X223666669Y-81288152D01*
X223666669Y-81288152D02*
X223714288Y-81383390D01*
X223714288Y-81383390D02*
X223761907Y-81431009D01*
X223761907Y-81431009D02*
X223857145Y-81478628D01*
X223857145Y-81478628D02*
X224238097Y-81478628D01*
X222809526Y-81288152D02*
X222809526Y-81954819D01*
X223047621Y-80907200D02*
X223285716Y-81621485D01*
X223285716Y-81621485D02*
X222666669Y-81621485D01*
X215759580Y-91233333D02*
X215807200Y-91185714D01*
X215807200Y-91185714D02*
X215854819Y-91042857D01*
X215854819Y-91042857D02*
X215854819Y-90947619D01*
X215854819Y-90947619D02*
X215807200Y-90804762D01*
X215807200Y-90804762D02*
X215711961Y-90709524D01*
X215711961Y-90709524D02*
X215616723Y-90661905D01*
X215616723Y-90661905D02*
X215426247Y-90614286D01*
X215426247Y-90614286D02*
X215283390Y-90614286D01*
X215283390Y-90614286D02*
X215092914Y-90661905D01*
X215092914Y-90661905D02*
X214997676Y-90709524D01*
X214997676Y-90709524D02*
X214902438Y-90804762D01*
X214902438Y-90804762D02*
X214854819Y-90947619D01*
X214854819Y-90947619D02*
X214854819Y-91042857D01*
X214854819Y-91042857D02*
X214902438Y-91185714D01*
X214902438Y-91185714D02*
X214950057Y-91233333D01*
X214854819Y-91566667D02*
X214854819Y-92185714D01*
X214854819Y-92185714D02*
X215235771Y-91852381D01*
X215235771Y-91852381D02*
X215235771Y-91995238D01*
X215235771Y-91995238D02*
X215283390Y-92090476D01*
X215283390Y-92090476D02*
X215331009Y-92138095D01*
X215331009Y-92138095D02*
X215426247Y-92185714D01*
X215426247Y-92185714D02*
X215664342Y-92185714D01*
X215664342Y-92185714D02*
X215759580Y-92138095D01*
X215759580Y-92138095D02*
X215807200Y-92090476D01*
X215807200Y-92090476D02*
X215854819Y-91995238D01*
X215854819Y-91995238D02*
X215854819Y-91709524D01*
X215854819Y-91709524D02*
X215807200Y-91614286D01*
X215807200Y-91614286D02*
X215759580Y-91566667D01*
X215759580Y-83083333D02*
X215807200Y-83035714D01*
X215807200Y-83035714D02*
X215854819Y-82892857D01*
X215854819Y-82892857D02*
X215854819Y-82797619D01*
X215854819Y-82797619D02*
X215807200Y-82654762D01*
X215807200Y-82654762D02*
X215711961Y-82559524D01*
X215711961Y-82559524D02*
X215616723Y-82511905D01*
X215616723Y-82511905D02*
X215426247Y-82464286D01*
X215426247Y-82464286D02*
X215283390Y-82464286D01*
X215283390Y-82464286D02*
X215092914Y-82511905D01*
X215092914Y-82511905D02*
X214997676Y-82559524D01*
X214997676Y-82559524D02*
X214902438Y-82654762D01*
X214902438Y-82654762D02*
X214854819Y-82797619D01*
X214854819Y-82797619D02*
X214854819Y-82892857D01*
X214854819Y-82892857D02*
X214902438Y-83035714D01*
X214902438Y-83035714D02*
X214950057Y-83083333D01*
X215854819Y-84035714D02*
X215854819Y-83464286D01*
X215854819Y-83750000D02*
X214854819Y-83750000D01*
X214854819Y-83750000D02*
X214997676Y-83654762D01*
X214997676Y-83654762D02*
X215092914Y-83559524D01*
X215092914Y-83559524D02*
X215140533Y-83464286D01*
X191416666Y-118679580D02*
X191464285Y-118727200D01*
X191464285Y-118727200D02*
X191607142Y-118774819D01*
X191607142Y-118774819D02*
X191702380Y-118774819D01*
X191702380Y-118774819D02*
X191845237Y-118727200D01*
X191845237Y-118727200D02*
X191940475Y-118631961D01*
X191940475Y-118631961D02*
X191988094Y-118536723D01*
X191988094Y-118536723D02*
X192035713Y-118346247D01*
X192035713Y-118346247D02*
X192035713Y-118203390D01*
X192035713Y-118203390D02*
X191988094Y-118012914D01*
X191988094Y-118012914D02*
X191940475Y-117917676D01*
X191940475Y-117917676D02*
X191845237Y-117822438D01*
X191845237Y-117822438D02*
X191702380Y-117774819D01*
X191702380Y-117774819D02*
X191607142Y-117774819D01*
X191607142Y-117774819D02*
X191464285Y-117822438D01*
X191464285Y-117822438D02*
X191416666Y-117870057D01*
X190559523Y-117774819D02*
X190749999Y-117774819D01*
X190749999Y-117774819D02*
X190845237Y-117822438D01*
X190845237Y-117822438D02*
X190892856Y-117870057D01*
X190892856Y-117870057D02*
X190988094Y-118012914D01*
X190988094Y-118012914D02*
X191035713Y-118203390D01*
X191035713Y-118203390D02*
X191035713Y-118584342D01*
X191035713Y-118584342D02*
X190988094Y-118679580D01*
X190988094Y-118679580D02*
X190940475Y-118727200D01*
X190940475Y-118727200D02*
X190845237Y-118774819D01*
X190845237Y-118774819D02*
X190654761Y-118774819D01*
X190654761Y-118774819D02*
X190559523Y-118727200D01*
X190559523Y-118727200D02*
X190511904Y-118679580D01*
X190511904Y-118679580D02*
X190464285Y-118584342D01*
X190464285Y-118584342D02*
X190464285Y-118346247D01*
X190464285Y-118346247D02*
X190511904Y-118251009D01*
X190511904Y-118251009D02*
X190559523Y-118203390D01*
X190559523Y-118203390D02*
X190654761Y-118155771D01*
X190654761Y-118155771D02*
X190845237Y-118155771D01*
X190845237Y-118155771D02*
X190940475Y-118203390D01*
X190940475Y-118203390D02*
X190988094Y-118251009D01*
X190988094Y-118251009D02*
X191035713Y-118346247D01*
X174359580Y-90083333D02*
X174407200Y-90035714D01*
X174407200Y-90035714D02*
X174454819Y-89892857D01*
X174454819Y-89892857D02*
X174454819Y-89797619D01*
X174454819Y-89797619D02*
X174407200Y-89654762D01*
X174407200Y-89654762D02*
X174311961Y-89559524D01*
X174311961Y-89559524D02*
X174216723Y-89511905D01*
X174216723Y-89511905D02*
X174026247Y-89464286D01*
X174026247Y-89464286D02*
X173883390Y-89464286D01*
X173883390Y-89464286D02*
X173692914Y-89511905D01*
X173692914Y-89511905D02*
X173597676Y-89559524D01*
X173597676Y-89559524D02*
X173502438Y-89654762D01*
X173502438Y-89654762D02*
X173454819Y-89797619D01*
X173454819Y-89797619D02*
X173454819Y-89892857D01*
X173454819Y-89892857D02*
X173502438Y-90035714D01*
X173502438Y-90035714D02*
X173550057Y-90083333D01*
X174454819Y-90559524D02*
X174454819Y-90750000D01*
X174454819Y-90750000D02*
X174407200Y-90845238D01*
X174407200Y-90845238D02*
X174359580Y-90892857D01*
X174359580Y-90892857D02*
X174216723Y-90988095D01*
X174216723Y-90988095D02*
X174026247Y-91035714D01*
X174026247Y-91035714D02*
X173645295Y-91035714D01*
X173645295Y-91035714D02*
X173550057Y-90988095D01*
X173550057Y-90988095D02*
X173502438Y-90940476D01*
X173502438Y-90940476D02*
X173454819Y-90845238D01*
X173454819Y-90845238D02*
X173454819Y-90654762D01*
X173454819Y-90654762D02*
X173502438Y-90559524D01*
X173502438Y-90559524D02*
X173550057Y-90511905D01*
X173550057Y-90511905D02*
X173645295Y-90464286D01*
X173645295Y-90464286D02*
X173883390Y-90464286D01*
X173883390Y-90464286D02*
X173978628Y-90511905D01*
X173978628Y-90511905D02*
X174026247Y-90559524D01*
X174026247Y-90559524D02*
X174073866Y-90654762D01*
X174073866Y-90654762D02*
X174073866Y-90845238D01*
X174073866Y-90845238D02*
X174026247Y-90940476D01*
X174026247Y-90940476D02*
X173978628Y-90988095D01*
X173978628Y-90988095D02*
X173883390Y-91035714D01*
X223666666Y-84954819D02*
X223999999Y-84478628D01*
X224238094Y-84954819D02*
X224238094Y-83954819D01*
X224238094Y-83954819D02*
X223857142Y-83954819D01*
X223857142Y-83954819D02*
X223761904Y-84002438D01*
X223761904Y-84002438D02*
X223714285Y-84050057D01*
X223714285Y-84050057D02*
X223666666Y-84145295D01*
X223666666Y-84145295D02*
X223666666Y-84288152D01*
X223666666Y-84288152D02*
X223714285Y-84383390D01*
X223714285Y-84383390D02*
X223761904Y-84431009D01*
X223761904Y-84431009D02*
X223857142Y-84478628D01*
X223857142Y-84478628D02*
X224238094Y-84478628D01*
X223333332Y-83954819D02*
X222714285Y-83954819D01*
X222714285Y-83954819D02*
X223047618Y-84335771D01*
X223047618Y-84335771D02*
X222904761Y-84335771D01*
X222904761Y-84335771D02*
X222809523Y-84383390D01*
X222809523Y-84383390D02*
X222761904Y-84431009D01*
X222761904Y-84431009D02*
X222714285Y-84526247D01*
X222714285Y-84526247D02*
X222714285Y-84764342D01*
X222714285Y-84764342D02*
X222761904Y-84859580D01*
X222761904Y-84859580D02*
X222809523Y-84907200D01*
X222809523Y-84907200D02*
X222904761Y-84954819D01*
X222904761Y-84954819D02*
X223190475Y-84954819D01*
X223190475Y-84954819D02*
X223285713Y-84907200D01*
X223285713Y-84907200D02*
X223333332Y-84859580D01*
X212916666Y-83054819D02*
X213249999Y-82578628D01*
X213488094Y-83054819D02*
X213488094Y-82054819D01*
X213488094Y-82054819D02*
X213107142Y-82054819D01*
X213107142Y-82054819D02*
X213011904Y-82102438D01*
X213011904Y-82102438D02*
X212964285Y-82150057D01*
X212964285Y-82150057D02*
X212916666Y-82245295D01*
X212916666Y-82245295D02*
X212916666Y-82388152D01*
X212916666Y-82388152D02*
X212964285Y-82483390D01*
X212964285Y-82483390D02*
X213011904Y-82531009D01*
X213011904Y-82531009D02*
X213107142Y-82578628D01*
X213107142Y-82578628D02*
X213488094Y-82578628D01*
X211964285Y-83054819D02*
X212535713Y-83054819D01*
X212249999Y-83054819D02*
X212249999Y-82054819D01*
X212249999Y-82054819D02*
X212345237Y-82197676D01*
X212345237Y-82197676D02*
X212440475Y-82292914D01*
X212440475Y-82292914D02*
X212535713Y-82340533D01*
X172738094Y-87254819D02*
X172738094Y-86254819D01*
X172738094Y-86254819D02*
X172499999Y-86254819D01*
X172499999Y-86254819D02*
X172357142Y-86302438D01*
X172357142Y-86302438D02*
X172261904Y-86397676D01*
X172261904Y-86397676D02*
X172214285Y-86492914D01*
X172214285Y-86492914D02*
X172166666Y-86683390D01*
X172166666Y-86683390D02*
X172166666Y-86826247D01*
X172166666Y-86826247D02*
X172214285Y-87016723D01*
X172214285Y-87016723D02*
X172261904Y-87111961D01*
X172261904Y-87111961D02*
X172357142Y-87207200D01*
X172357142Y-87207200D02*
X172499999Y-87254819D01*
X172499999Y-87254819D02*
X172738094Y-87254819D01*
X171785713Y-86350057D02*
X171738094Y-86302438D01*
X171738094Y-86302438D02*
X171642856Y-86254819D01*
X171642856Y-86254819D02*
X171404761Y-86254819D01*
X171404761Y-86254819D02*
X171309523Y-86302438D01*
X171309523Y-86302438D02*
X171261904Y-86350057D01*
X171261904Y-86350057D02*
X171214285Y-86445295D01*
X171214285Y-86445295D02*
X171214285Y-86540533D01*
X171214285Y-86540533D02*
X171261904Y-86683390D01*
X171261904Y-86683390D02*
X171833332Y-87254819D01*
X171833332Y-87254819D02*
X171214285Y-87254819D01*
X200759580Y-91233333D02*
X200807200Y-91185714D01*
X200807200Y-91185714D02*
X200854819Y-91042857D01*
X200854819Y-91042857D02*
X200854819Y-90947619D01*
X200854819Y-90947619D02*
X200807200Y-90804762D01*
X200807200Y-90804762D02*
X200711961Y-90709524D01*
X200711961Y-90709524D02*
X200616723Y-90661905D01*
X200616723Y-90661905D02*
X200426247Y-90614286D01*
X200426247Y-90614286D02*
X200283390Y-90614286D01*
X200283390Y-90614286D02*
X200092914Y-90661905D01*
X200092914Y-90661905D02*
X199997676Y-90709524D01*
X199997676Y-90709524D02*
X199902438Y-90804762D01*
X199902438Y-90804762D02*
X199854819Y-90947619D01*
X199854819Y-90947619D02*
X199854819Y-91042857D01*
X199854819Y-91042857D02*
X199902438Y-91185714D01*
X199902438Y-91185714D02*
X199950057Y-91233333D01*
X199854819Y-92138095D02*
X199854819Y-91661905D01*
X199854819Y-91661905D02*
X200331009Y-91614286D01*
X200331009Y-91614286D02*
X200283390Y-91661905D01*
X200283390Y-91661905D02*
X200235771Y-91757143D01*
X200235771Y-91757143D02*
X200235771Y-91995238D01*
X200235771Y-91995238D02*
X200283390Y-92090476D01*
X200283390Y-92090476D02*
X200331009Y-92138095D01*
X200331009Y-92138095D02*
X200426247Y-92185714D01*
X200426247Y-92185714D02*
X200664342Y-92185714D01*
X200664342Y-92185714D02*
X200759580Y-92138095D01*
X200759580Y-92138095D02*
X200807200Y-92090476D01*
X200807200Y-92090476D02*
X200854819Y-91995238D01*
X200854819Y-91995238D02*
X200854819Y-91757143D01*
X200854819Y-91757143D02*
X200807200Y-91661905D01*
X200807200Y-91661905D02*
X200759580Y-91614286D01*
D11*
%TO.C,C2*%
X218739997Y-83103733D02*
X218740001Y-83396266D01*
X219759999Y-83103734D02*
X219760003Y-83396267D01*
%TO.C,C8*%
X154489997Y-90646269D02*
X154490001Y-90353736D01*
X155509999Y-90646264D02*
X155510003Y-90353731D01*
%TO.C,R2*%
X212649313Y-85869244D02*
X213103443Y-85869244D01*
X212649313Y-87339242D02*
X213103443Y-87339242D01*
%TO.C,R38*%
X163765000Y-90227065D02*
X163765001Y-89772936D01*
X165234999Y-90227064D02*
X165235000Y-89772935D01*
%TO.C,R39*%
X168265000Y-89772935D02*
X168265001Y-90227064D01*
X169734999Y-89772936D02*
X169735000Y-90227065D01*
%TO.C,R4*%
X223727064Y-82065000D02*
X223272936Y-82065000D01*
X223727064Y-83535000D02*
X223272936Y-83535000D01*
%TO.C,C3*%
X215989997Y-91646269D02*
X215990001Y-91353736D01*
X217009999Y-91646264D02*
X217010003Y-91353731D01*
%TO.C,C1*%
X215990003Y-83103737D02*
X215989996Y-83396266D01*
X217010004Y-83103734D02*
X217009997Y-83396263D01*
%TO.C,C6*%
X191396267Y-119240000D02*
X191103733Y-119240000D01*
X191396267Y-120260000D02*
X191103733Y-120260000D01*
%TO.C,C9*%
X174739997Y-90396265D02*
X174740004Y-90103737D01*
X175759996Y-90396263D02*
X175760003Y-90103735D01*
%TO.C,R3*%
X223272933Y-85015002D02*
X223727063Y-85015002D01*
X223272933Y-86485000D02*
X223727063Y-86485000D01*
%TO.C,R1*%
X213103444Y-83169233D02*
X212649316Y-83169233D01*
X213103444Y-84639233D02*
X212649316Y-84639233D01*
%TO.C,D2*%
X168590000Y-82890000D02*
X174399999Y-82890001D01*
X168590000Y-86110000D02*
X168590000Y-82890000D01*
X174399999Y-86110001D02*
X168590000Y-86110000D01*
%TO.C,C5*%
X200989997Y-91646269D02*
X200990001Y-91353736D01*
X202009999Y-91646264D02*
X202010003Y-91353731D01*
%TD*%
M02*
