%TF.GenerationSoftware,KiCad,Pcbnew,9.0.2*%
%TF.CreationDate,2026-04-07T10:48:21+02:00*%
%TF.ProjectId,MPeV6PCB,4d506556-3650-4434-922e-6b696361645f,rev?*%
%TF.SameCoordinates,Original*%
%TF.FileFunction,Profile,NP*%
%FSLAX46Y46*%
G04 Gerber Fmt 4.6, Leading zero omitted, Abs format (unit mm)*
G04 Created by KiCad (PCBNEW 9.0.2) date 2026-04-07 10:48:21*
%MOMM*%
%LPD*%
G01*
G04 APERTURE LIST*
%TA.AperFunction,Profile*%
%ADD10C,0.050000*%
%TD*%
G04 APERTURE END LIST*
D10*
X232348000Y-127117000D02*
X233652000Y-127117000D01*
X233652000Y-130326000D01*
X232348000Y-130326000D01*
X232348000Y-127117000D01*
X125348000Y-127117000D02*
X126652000Y-127117000D01*
X126652000Y-130326000D01*
X125348000Y-130326000D01*
X125348000Y-127117000D01*
X132348000Y-127117000D02*
X133652000Y-127117000D01*
X133652000Y-130326000D01*
X132348000Y-130326000D01*
X132348000Y-127117000D01*
X114056000Y-127117000D02*
X115360000Y-127117000D01*
X115360000Y-130326000D01*
X114056000Y-130326000D01*
X114056000Y-127117000D01*
X173348000Y-127117000D02*
X174652000Y-127117000D01*
X174652000Y-130326000D01*
X173348000Y-130326000D01*
X173348000Y-127117000D01*
X214348000Y-127117000D02*
X215652000Y-127117000D01*
X215652000Y-130326000D01*
X214348000Y-130326000D01*
X214348000Y-127117000D01*
X142348000Y-127117000D02*
X143652000Y-127117000D01*
X143652000Y-130326000D01*
X142348000Y-130326000D01*
X142348000Y-127117000D01*
X153348000Y-127117000D02*
X154652000Y-127117000D01*
X154652000Y-130326000D01*
X153348000Y-130326000D01*
X153348000Y-127117000D01*
X112250000Y-128500000D02*
G75*
G02*
X108250000Y-128500000I-2000000J0D01*
G01*
X108250000Y-128500000D02*
G75*
G02*
X112250000Y-128500000I2000000J0D01*
G01*
X112250000Y-76250000D02*
G75*
G02*
X108250000Y-76250000I-2000000J0D01*
G01*
X108250000Y-76250000D02*
G75*
G02*
X112250000Y-76250000I2000000J0D01*
G01*
X183348000Y-127117000D02*
X184652000Y-127117000D01*
X184652000Y-130326000D01*
X183348000Y-130326000D01*
X183348000Y-127117000D01*
X163348000Y-127117000D02*
X164652000Y-127117000D01*
X164652000Y-130326000D01*
X163348000Y-130326000D01*
X163348000Y-127117000D01*
X240000000Y-76250000D02*
G75*
G02*
X236000000Y-76250000I-2000000J0D01*
G01*
X236000000Y-76250000D02*
G75*
G02*
X240000000Y-76250000I2000000J0D01*
G01*
X106500000Y-72500000D02*
X241750000Y-72500000D01*
X241750000Y-132000000D01*
X106500000Y-132000000D01*
X106500000Y-72500000D01*
X225348000Y-127117000D02*
X226652000Y-127117000D01*
X226652000Y-130326000D01*
X225348000Y-130326000D01*
X225348000Y-127117000D01*
X194348000Y-127117000D02*
X195652000Y-127117000D01*
X195652000Y-130326000D01*
X194348000Y-130326000D01*
X194348000Y-127117000D01*
X240000000Y-128250000D02*
G75*
G02*
X236000000Y-128250000I-2000000J0D01*
G01*
X236000000Y-128250000D02*
G75*
G02*
X240000000Y-128250000I2000000J0D01*
G01*
X118348000Y-127117000D02*
X119652000Y-127117000D01*
X119652000Y-130326000D01*
X118348000Y-130326000D01*
X118348000Y-127117000D01*
X204348000Y-127117000D02*
X205652000Y-127117000D01*
X205652000Y-130326000D01*
X204348000Y-130326000D01*
X204348000Y-127117000D01*
M02*
