%TF.GenerationSoftware,KiCad,Pcbnew,9.0.2*%
%TF.CreationDate,2026-01-14T12:53:17+01:00*%
%TF.ProjectId,MPeV6PCB,4d506556-3650-4434-922e-6b696361645f,rev?*%
%TF.SameCoordinates,Original*%
%TF.FileFunction,Soldermask,Top*%
%TF.FilePolarity,Negative*%
%FSLAX46Y46*%
G04 Gerber Fmt 4.6, Leading zero omitted, Abs format (unit mm)*
G04 Created by KiCad (PCBNEW 9.0.2) date 2026-01-14 12:53:17*
%MOMM*%
%LPD*%
G01*
G04 APERTURE LIST*
G04 Aperture macros list*
%AMRoundRect*
0 Rectangle with rounded corners*
0 $1 Rounding radius*
0 $2 $3 $4 $5 $6 $7 $8 $9 X,Y pos of 4 corners*
0 Add a 4 corners polygon primitive as box body*
4,1,4,$2,$3,$4,$5,$6,$7,$8,$9,$2,$3,0*
0 Add four circle primitives for the rounded corners*
1,1,$1+$1,$2,$3*
1,1,$1+$1,$4,$5*
1,1,$1+$1,$6,$7*
1,1,$1+$1,$8,$9*
0 Add four rect primitives between the rounded corners*
20,1,$1+$1,$2,$3,$4,$5,0*
20,1,$1+$1,$4,$5,$6,$7,0*
20,1,$1+$1,$6,$7,$8,$9,0*
20,1,$1+$1,$8,$9,$2,$3,0*%
%AMOutline5P*
0 Free polygon, 5 corners , with rotation*
0 The origin of the aperture is its center*
0 number of corners: always 5*
0 $1 to $10 corner X, Y*
0 $11 Rotation angle, in degrees counterclockwise*
0 create outline with 5 corners*
4,1,5,$1,$2,$3,$4,$5,$6,$7,$8,$9,$10,$1,$2,$11*%
%AMOutline6P*
0 Free polygon, 6 corners , with rotation*
0 The origin of the aperture is its center*
0 number of corners: always 6*
0 $1 to $12 corner X, Y*
0 $13 Rotation angle, in degrees counterclockwise*
0 create outline with 6 corners*
4,1,6,$1,$2,$3,$4,$5,$6,$7,$8,$9,$10,$11,$12,$1,$2,$13*%
%AMOutline7P*
0 Free polygon, 7 corners , with rotation*
0 The origin of the aperture is its center*
0 number of corners: always 7*
0 $1 to $14 corner X, Y*
0 $15 Rotation angle, in degrees counterclockwise*
0 create outline with 7 corners*
4,1,7,$1,$2,$3,$4,$5,$6,$7,$8,$9,$10,$11,$12,$13,$14,$1,$2,$15*%
%AMOutline8P*
0 Free polygon, 8 corners , with rotation*
0 The origin of the aperture is its center*
0 number of corners: always 8*
0 $1 to $16 corner X, Y*
0 $17 Rotation angle, in degrees counterclockwise*
0 create outline with 8 corners*
4,1,8,$1,$2,$3,$4,$5,$6,$7,$8,$9,$10,$11,$12,$13,$14,$15,$16,$1,$2,$17*%
G04 Aperture macros list end*
%ADD10RoundRect,0.250000X-0.450000X0.350000X-0.450000X-0.350000X0.450000X-0.350000X0.450000X0.350000X0*%
%ADD11R,1.650000X1.650000*%
%ADD12C,1.650000*%
%ADD13RoundRect,0.250000X0.750000X0.750000X-0.750000X0.750000X-0.750000X-0.750000X0.750000X-0.750000X0*%
%ADD14C,2.000000*%
%ADD15RoundRect,0.250000X0.350000X0.450000X-0.350000X0.450000X-0.350000X-0.450000X0.350000X-0.450000X0*%
%ADD16Outline5P,-1.250000X0.750000X-0.750000X1.250000X1.250000X1.250000X1.250000X-1.250000X-1.250000X-1.250000X0.000000*%
%ADD17C,2.500000*%
%ADD18RoundRect,0.250000X-0.350000X-0.450000X0.350000X-0.450000X0.350000X0.450000X-0.350000X0.450000X0*%
%ADD19RoundRect,0.250000X0.450000X-0.350000X0.450000X0.350000X-0.450000X0.350000X-0.450000X-0.350000X0*%
%ADD20C,3.000000*%
%ADD21RoundRect,0.250000X-0.550000X0.550000X-0.550000X-0.550000X0.550000X-0.550000X0.550000X0.550000X0*%
%ADD22C,1.600000*%
%ADD23R,1.600000X1.600000*%
%ADD24O,1.600000X1.600000*%
%ADD25C,1.905000*%
%ADD26RoundRect,0.250000X0.750000X-0.750000X0.750000X0.750000X-0.750000X0.750000X-0.750000X-0.750000X0*%
%ADD27RoundRect,0.250000X-0.550000X-0.550000X0.550000X-0.550000X0.550000X0.550000X-0.550000X0.550000X0*%
%ADD28Outline5P,-1.250000X0.750000X-0.750000X1.250000X1.250000X1.250000X1.250000X-1.250000X-1.250000X-1.250000X180.000000*%
%ADD29RoundRect,0.250000X-0.500000X-1.100000X0.500000X-1.100000X0.500000X1.100000X-0.500000X1.100000X0*%
G04 APERTURE END LIST*
D10*
%TO.C,R22*%
X184500000Y-90500000D03*
X184500000Y-92500000D03*
%TD*%
%TO.C,R35*%
X206500000Y-97500000D03*
X206500000Y-99500000D03*
%TD*%
D11*
%TO.C,SW3*%
X113770000Y-123250000D03*
D12*
X116310000Y-123250000D03*
%TD*%
D13*
%TO.C,J2*%
X233599999Y-100282504D03*
D14*
X231059999Y-100282504D03*
X228520000Y-100282509D03*
X225979999Y-100282504D03*
X223439999Y-100282503D03*
X220899998Y-100282509D03*
%TD*%
D10*
%TO.C,R36*%
X215750000Y-75000000D03*
X215750000Y-77000000D03*
%TD*%
%TO.C,R23*%
X211500000Y-75000000D03*
X211500000Y-77000000D03*
%TD*%
D15*
%TO.C,R30*%
X211250000Y-103000000D03*
X209250000Y-103000000D03*
%TD*%
D16*
%TO.C,U3*%
X116100000Y-101900000D03*
X119200000Y-101900000D03*
D17*
X126700000Y-102000000D03*
X129800000Y-101900000D03*
X116100000Y-79600000D03*
X119200000Y-79600000D03*
X126700000Y-79600000D03*
X129700000Y-79600000D03*
%TD*%
D10*
%TO.C,R5*%
X211500000Y-97500000D03*
X211500000Y-99500000D03*
%TD*%
D18*
%TO.C,R29*%
X209250000Y-106000000D03*
X211250000Y-106000000D03*
%TD*%
D19*
%TO.C,R10*%
X201250000Y-104750000D03*
X201250000Y-102750000D03*
%TD*%
%TO.C,R40*%
X175250000Y-102500000D03*
X175250000Y-100500000D03*
%TD*%
D10*
%TO.C,R6*%
X214000000Y-97500000D03*
X214000000Y-99500000D03*
%TD*%
D20*
%TO.C,J10*%
X207380000Y-108880000D03*
%TD*%
D21*
%TO.C,SW1*%
X123257500Y-108232500D03*
D22*
X120717500Y-108232500D03*
X120717500Y-115852500D03*
X123257500Y-115852500D03*
%TD*%
D11*
%TO.C,PAS1*%
X207500000Y-123250000D03*
D12*
X210040000Y-123250000D03*
X212580000Y-123250000D03*
%TD*%
D23*
%TO.C,A1*%
X191200002Y-94860001D03*
D24*
X193740002Y-94860001D03*
X196280001Y-94859996D03*
X198820002Y-94860001D03*
X201360002Y-94860002D03*
X203900003Y-94859996D03*
X206440002Y-94860001D03*
X208980004Y-94859999D03*
X211520007Y-94860002D03*
X214060002Y-94860007D03*
X216600002Y-94860001D03*
X219140002Y-94860001D03*
X221680003Y-94860003D03*
X224220003Y-94860001D03*
X226760002Y-94860001D03*
X226759996Y-79620001D03*
X224219998Y-79619997D03*
X221680002Y-79620001D03*
X219140005Y-79619999D03*
X216600002Y-79620001D03*
X214060002Y-79619998D03*
X211520002Y-79620001D03*
X208980001Y-79620002D03*
X206439999Y-79620003D03*
X203900001Y-79619999D03*
X201360003Y-79620001D03*
X198820002Y-79620003D03*
X196280003Y-79620003D03*
X193740002Y-79620001D03*
X191200002Y-79620001D03*
%TD*%
D15*
%TO.C,R17*%
X234000003Y-111699994D03*
X232000003Y-111699994D03*
%TD*%
D11*
%TO.C,5V1*%
X128270000Y-123250000D03*
D12*
X130810000Y-123250000D03*
%TD*%
D18*
%TO.C,R13*%
X165500000Y-111500000D03*
X167500000Y-111500000D03*
%TD*%
D15*
%TO.C,R24*%
X194500000Y-100000000D03*
X192500000Y-100000000D03*
%TD*%
D10*
%TO.C,R19*%
X156750000Y-110000000D03*
X156750000Y-112000000D03*
%TD*%
D20*
%TO.C,J8*%
X178350000Y-108950000D03*
%TD*%
D10*
%TO.C,R9*%
X201250000Y-98250000D03*
X201250000Y-100250000D03*
%TD*%
D11*
%TO.C,SCR1*%
X166540000Y-123245000D03*
D12*
X169080000Y-123245000D03*
X171620000Y-123245000D03*
%TD*%
D20*
%TO.C,J6*%
X210000000Y-115200000D03*
%TD*%
D10*
%TO.C,R11*%
X187500000Y-111000000D03*
X187500000Y-113000000D03*
%TD*%
D20*
%TO.C,J5*%
X218750000Y-76450000D03*
%TD*%
D11*
%TO.C,SCR2*%
X176750000Y-123250000D03*
D12*
X179290000Y-123250000D03*
X181830000Y-123250000D03*
%TD*%
D10*
%TO.C,R15*%
X166250000Y-106000000D03*
X166250000Y-108000000D03*
%TD*%
D20*
%TO.C,J9*%
X171150000Y-114320000D03*
%TD*%
%TO.C,J4*%
X206250000Y-104450000D03*
%TD*%
D15*
%TO.C,R16*%
X216700000Y-108800000D03*
X214700000Y-108800000D03*
%TD*%
D19*
%TO.C,R27*%
X181750000Y-97250000D03*
X181750000Y-95250000D03*
%TD*%
%TO.C,R41*%
X171250000Y-102500000D03*
X171250000Y-100500000D03*
%TD*%
D11*
%TO.C,BRK/TMP1*%
X217750000Y-123250000D03*
D12*
X220290000Y-123250000D03*
X222830000Y-123250000D03*
%TD*%
D11*
%TO.C,VIN1*%
X146000000Y-123250000D03*
D12*
X148540000Y-123250000D03*
X151080000Y-123250000D03*
%TD*%
D11*
%TO.C,UART1*%
X121020000Y-123250000D03*
D12*
X123560000Y-123250000D03*
%TD*%
D11*
%TO.C,12V1*%
X135750000Y-123250000D03*
D12*
X138290000Y-123250000D03*
X140830000Y-123250000D03*
%TD*%
D10*
%TO.C,R20*%
X160250000Y-110000000D03*
X160250000Y-112000000D03*
%TD*%
D20*
%TO.C,J3*%
X217250000Y-102700000D03*
%TD*%
D19*
%TO.C,R14*%
X170250000Y-109750000D03*
X170250000Y-107750000D03*
%TD*%
D20*
%TO.C,J7*%
X179560000Y-103260000D03*
%TD*%
D25*
%TO.C,U2*%
X152480000Y-94370000D03*
X155020000Y-94370000D03*
X157560000Y-94370000D03*
X160100000Y-94370000D03*
X162640000Y-94370000D03*
X165180000Y-94370000D03*
X167720000Y-94370000D03*
X170260000Y-94370000D03*
X172800000Y-94370000D03*
X175340000Y-94370000D03*
%TD*%
D19*
%TO.C,R25*%
X208000000Y-76750000D03*
X208000000Y-74750000D03*
%TD*%
D11*
%TO.C,CUR1*%
X156250000Y-123250000D03*
D12*
X158790000Y-123250000D03*
X161330000Y-123250000D03*
%TD*%
D26*
%TO.C,J1*%
X143717497Y-112099999D03*
D14*
X143717497Y-109559999D03*
X143717492Y-107020000D03*
X143717497Y-104479999D03*
X143717498Y-101939999D03*
X143717492Y-99399998D03*
%TD*%
D15*
%TO.C,R18*%
X234000000Y-108750000D03*
X232000000Y-108750000D03*
%TD*%
%TO.C,R28*%
X194500000Y-103250000D03*
X192500000Y-103250000D03*
%TD*%
D27*
%TO.C,SW2*%
X220732500Y-108742500D03*
D22*
X220732500Y-111282500D03*
X228352500Y-111282500D03*
X228352500Y-108742500D03*
%TD*%
D28*
%TO.C,U4*%
X145100002Y-80049998D03*
D17*
X136600000Y-80050000D03*
X145100001Y-94449998D03*
X136700000Y-94450000D03*
%TD*%
D19*
%TO.C,R26*%
X204500000Y-76750000D03*
X204500000Y-74750000D03*
%TD*%
D10*
%TO.C,R37*%
X162750000Y-100500000D03*
X162750000Y-102500000D03*
%TD*%
D11*
%TO.C,SPD/TOT1*%
X187040000Y-123245000D03*
D12*
X189580000Y-123245000D03*
X192120000Y-123245000D03*
%TD*%
D10*
%TO.C,R12*%
X192250000Y-111000000D03*
X192250000Y-113000000D03*
%TD*%
%TO.C,R21*%
X184500000Y-85000000D03*
X184500000Y-87000000D03*
%TD*%
D29*
%TO.C,D1*%
X133100000Y-99500000D03*
X137900000Y-99500000D03*
%TD*%
D11*
%TO.C,3V3/TS1*%
X228000000Y-123250000D03*
D12*
X230540000Y-123250000D03*
X233080000Y-123250000D03*
%TD*%
D11*
%TO.C,TIN1*%
X197250000Y-123250000D03*
D12*
X199790000Y-123250000D03*
X202330000Y-123250000D03*
%TD*%
M02*
