%TF.GenerationSoftware,KiCad,Pcbnew,9.0.2*%
%TF.CreationDate,2025-10-09T08:49:24+02:00*%
%TF.ProjectId,CeB_CURR_PCB,4365425f-4355-4525-925f-5043422e6b69,rev?*%
%TF.SameCoordinates,Original*%
%TF.FileFunction,Copper,L1,Top*%
%TF.FilePolarity,Positive*%
%FSLAX46Y46*%
G04 Gerber Fmt 4.6, Leading zero omitted, Abs format (unit mm)*
G04 Created by KiCad (PCBNEW 9.0.2) date 2025-10-09 08:49:24*
%MOMM*%
%LPD*%
G01*
G04 APERTURE LIST*
G04 Aperture macros list*
%AMRoundRect*
0 Rectangle with rounded corners*
0 $1 Rounding radius*
0 $2 $3 $4 $5 $6 $7 $8 $9 X,Y pos of 4 corners*
0 Add a 4 corners polygon primitive as box body*
4,1,4,$2,$3,$4,$5,$6,$7,$8,$9,$2,$3,0*
0 Add four circle primitives for the rounded corners*
1,1,$1+$1,$2,$3*
1,1,$1+$1,$4,$5*
1,1,$1+$1,$6,$7*
1,1,$1+$1,$8,$9*
0 Add four rect primitives between the rounded corners*
20,1,$1+$1,$2,$3,$4,$5,0*
20,1,$1+$1,$4,$5,$6,$7,0*
20,1,$1+$1,$6,$7,$8,$9,0*
20,1,$1+$1,$8,$9,$2,$3,0*%
%AMHorizOval*
0 Thick line with rounded ends*
0 $1 width*
0 $2 $3 position (X,Y) of the first rounded end (center of the circle)*
0 $4 $5 position (X,Y) of the second rounded end (center of the circle)*
0 Add line between two ends*
20,1,$1,$2,$3,$4,$5,0*
0 Add two circle primitives to create the rounded ends*
1,1,$1,$2,$3*
1,1,$1,$4,$5*%
G04 Aperture macros list end*
%TA.AperFunction,ComponentPad*%
%ADD10R,1.500000X1.500000*%
%TD*%
%TA.AperFunction,ComponentPad*%
%ADD11C,1.500000*%
%TD*%
%TA.AperFunction,ComponentPad*%
%ADD12HorizOval,0.800000X0.000000X0.000000X0.000000X0.000000X0*%
%TD*%
%TA.AperFunction,ComponentPad*%
%ADD13HorizOval,0.800000X0.000000X0.000000X0.000000X0.000000X0*%
%TD*%
%TA.AperFunction,ComponentPad*%
%ADD14C,0.800000*%
%TD*%
%TA.AperFunction,ComponentPad*%
%ADD15O,6.000000X9.000000*%
%TD*%
%TA.AperFunction,SMDPad,CuDef*%
%ADD16RoundRect,0.237500X-0.237500X0.300000X-0.237500X-0.300000X0.237500X-0.300000X0.237500X0.300000X0*%
%TD*%
%TA.AperFunction,ComponentPad*%
%ADD17C,3.000000*%
%TD*%
%TA.AperFunction,SMDPad,CuDef*%
%ADD18RoundRect,0.237500X0.250000X0.237500X-0.250000X0.237500X-0.250000X-0.237500X0.250000X-0.237500X0*%
%TD*%
%TA.AperFunction,ComponentPad*%
%ADD19R,4.050000X4.050000*%
%TD*%
%TA.AperFunction,ComponentPad*%
%ADD20C,4.050000*%
%TD*%
%TA.AperFunction,ComponentPad*%
%ADD21C,2.700000*%
%TD*%
%TA.AperFunction,Conductor*%
%ADD22C,0.600000*%
%TD*%
%TA.AperFunction,Conductor*%
%ADD23C,0.200000*%
%TD*%
%TA.AperFunction,Conductor*%
%ADD24C,5.000000*%
%TD*%
G04 APERTURE END LIST*
D10*
%TO.P,U1,1,VCC*%
%TO.N,Net-(J4-Pin_1)*%
X112425000Y-74099999D03*
D11*
%TO.P,U1,2,GND*%
%TO.N,GND*%
X112425002Y-76010002D03*
%TO.P,U1,3,VIOUT*%
%TO.N,Net-(U1-VIOUT)*%
X112425000Y-77919999D03*
D12*
%TO.P,U1,4,IP+*%
%TO.N,Net-(J1-P+)*%
X133195004Y-77060002D03*
D13*
X134454999Y-77060003D03*
D14*
X135485000Y-77809999D03*
X132165002Y-77810000D03*
X135875001Y-79009996D03*
X131775002Y-79010002D03*
X135874998Y-80339997D03*
X131775002Y-80340001D03*
D15*
X133825000Y-81009997D03*
D14*
X135875000Y-81679999D03*
X131775000Y-81679999D03*
X135875000Y-83009997D03*
X131774998Y-83009998D03*
X135485001Y-84209996D03*
X132165003Y-84209996D03*
X134455000Y-84959997D03*
X133195000Y-84959999D03*
%TO.P,U1,5,IP-*%
%TO.N,Net-(J2-P+)*%
X134455000Y-67060001D03*
X133194997Y-67060001D03*
X135485000Y-67809999D03*
X132165000Y-67810001D03*
X135875000Y-69009998D03*
X131775002Y-69009998D03*
X135875000Y-70339993D03*
X131775000Y-70339999D03*
D15*
X133825000Y-71009999D03*
D14*
X135875000Y-71679999D03*
X131774995Y-71679999D03*
X131775000Y-73009996D03*
X135874998Y-73009997D03*
X132165000Y-74209999D03*
X135484999Y-74210000D03*
D13*
X133195002Y-74959999D03*
D12*
X134455001Y-74960003D03*
%TD*%
D16*
%TO.P,C2,1*%
%TO.N,Net-(J6-Pin_1)*%
X112499998Y-80637498D03*
%TO.P,C2,2*%
%TO.N,GND*%
X112500002Y-82362502D03*
%TD*%
D17*
%TO.P,J8,1,Pin_1*%
%TO.N,Net-(J1-P-)*%
X115250000Y-85000000D03*
%TD*%
%TO.P,J7,1,Pin_1*%
%TO.N,Net-(J1-P-)*%
X111000000Y-95500000D03*
%TD*%
D18*
%TO.P,R2,1*%
%TO.N,Net-(J6-Pin_1)*%
X110662499Y-80500000D03*
%TO.P,R2,2*%
%TO.N,Net-(U1-VIOUT)*%
X108837501Y-80500000D03*
%TD*%
D19*
%TO.P,J1,1,P+*%
%TO.N,Net-(J1-P+)*%
X131149999Y-90299997D03*
D20*
%TO.P,J1,2,P-*%
%TO.N,Net-(J1-P-)*%
X123949999Y-90299997D03*
D21*
%TO.P,J1,3*%
%TO.N,N/C*%
X134300000Y-96300000D03*
%TO.P,J1,4*%
X120799999Y-96299997D03*
%TD*%
D17*
%TO.P,J3,1,Pin_1*%
%TO.N,Net-(J3-Pin_1)*%
X115250000Y-95500000D03*
%TD*%
D16*
%TO.P,C1,1*%
%TO.N,Net-(J4-Pin_1)*%
X107499998Y-74387498D03*
%TO.P,C1,2*%
%TO.N,GND*%
X107500002Y-76112502D03*
%TD*%
D17*
%TO.P,J5,1,Pin_1*%
%TO.N,GND*%
X110750000Y-85000000D03*
%TD*%
D19*
%TO.P,J2,1,P-*%
%TO.N,Net-(J1-P-)*%
X124100000Y-63962500D03*
D20*
%TO.P,J2,2,P+*%
%TO.N,Net-(J2-P+)*%
X131300000Y-63962500D03*
D21*
%TO.P,J2,3*%
%TO.N,N/C*%
X120950000Y-57962500D03*
%TO.P,J2,4*%
X134450000Y-57962500D03*
%TD*%
D17*
%TO.P,J6,1,Pin_1*%
%TO.N,Net-(J6-Pin_1)*%
X115250000Y-90000000D03*
%TD*%
%TO.P,J4,1,Pin_1*%
%TO.N,Net-(J4-Pin_1)*%
X111000000Y-90000000D03*
%TD*%
D22*
%TO.N,GND*%
X107500000Y-82000000D02*
X107500000Y-76500000D01*
X107500000Y-76500000D02*
X107989998Y-76010002D01*
X108000000Y-82250000D02*
X107250000Y-82250000D01*
X107989998Y-76010002D02*
X112425002Y-76010002D01*
X110750000Y-85000000D02*
X108000000Y-82250000D01*
X112500002Y-82362502D02*
X112500002Y-83249998D01*
X107250000Y-82250000D02*
X107500000Y-82000000D01*
X112500002Y-83249998D02*
X110750000Y-85000000D01*
%TO.N,Net-(J4-Pin_1)*%
X117000000Y-92750000D02*
X113750000Y-92750000D01*
X119000000Y-78000000D02*
X119000000Y-90750000D01*
X115099999Y-74099999D02*
X119000000Y-78000000D01*
X119000000Y-90750000D02*
X117000000Y-92750000D01*
X112425000Y-74099999D02*
X107212499Y-74099999D01*
X113750000Y-92750000D02*
X111000000Y-90000000D01*
D23*
X107212499Y-74099999D02*
X106999998Y-73887498D01*
D22*
X112425000Y-74099999D02*
X115099999Y-74099999D01*
D24*
%TO.N,Net-(J1-P+)*%
X131100000Y-90087500D02*
X131100000Y-83734997D01*
D23*
X131100000Y-83734997D02*
X133825000Y-81009997D01*
%TO.N,Net-(J1-P-)*%
X124150000Y-89837500D02*
X123900000Y-90087500D01*
D24*
X124150000Y-64162500D02*
X124150000Y-89837500D01*
%TO.N,Net-(J2-P+)*%
X131350000Y-64162500D02*
X131350000Y-68534999D01*
D23*
X131350000Y-68534999D02*
X133825000Y-71009999D01*
D22*
%TO.N,Net-(J6-Pin_1)*%
X117750000Y-83250000D02*
X115137498Y-80637498D01*
X112499998Y-80637498D02*
X110799997Y-80637498D01*
X115137498Y-80637498D02*
X112499998Y-80637498D01*
X117750000Y-87500000D02*
X117750000Y-83250000D01*
X115250000Y-90000000D02*
X117750000Y-87500000D01*
D23*
X110799997Y-80637498D02*
X110662499Y-80500000D01*
D22*
%TO.N,Net-(U1-VIOUT)*%
X108837501Y-80500000D02*
X108837501Y-79162499D01*
X110080001Y-77919999D02*
X112425000Y-77919999D01*
X108837501Y-79162499D02*
X110080001Y-77919999D01*
%TD*%
%TA.AperFunction,Conductor*%
%TO.N,GND*%
G36*
X111140599Y-74920184D02*
G01*
X111186354Y-74972988D01*
X111189742Y-74981166D01*
X111231202Y-75092327D01*
X111231206Y-75092334D01*
X111317452Y-75207543D01*
X111323725Y-75213816D01*
X111322472Y-75215068D01*
X111357930Y-75262428D01*
X111362918Y-75332120D01*
X111352235Y-75362062D01*
X111266584Y-75530163D01*
X111205780Y-75717296D01*
X111175002Y-75911619D01*
X111175002Y-76108384D01*
X111205780Y-76302707D01*
X111266583Y-76489837D01*
X111355907Y-76665147D01*
X111381321Y-76700127D01*
X111381322Y-76700127D01*
X112025002Y-76056447D01*
X112025002Y-76062663D01*
X112052261Y-76164396D01*
X112104922Y-76255608D01*
X112179396Y-76330082D01*
X112270608Y-76382743D01*
X112372341Y-76410002D01*
X112378555Y-76410002D01*
X112088184Y-76700371D01*
X112038823Y-76730620D01*
X111944974Y-76761114D01*
X111769594Y-76850475D01*
X111610355Y-76966170D01*
X111493344Y-77083181D01*
X111432021Y-77116665D01*
X111405663Y-77119499D01*
X110001155Y-77119499D01*
X109846510Y-77150260D01*
X109846498Y-77150263D01*
X109803833Y-77167935D01*
X109803834Y-77167936D01*
X109700824Y-77210603D01*
X109700815Y-77210608D01*
X109569713Y-77298208D01*
X109569712Y-77298210D01*
X109569711Y-77298211D01*
X108327212Y-78540710D01*
X108292518Y-78575404D01*
X108215710Y-78652211D01*
X108128110Y-78783313D01*
X108128103Y-78783326D01*
X108067765Y-78928997D01*
X108067762Y-78929009D01*
X108037001Y-79083652D01*
X108037001Y-79717948D01*
X108017316Y-79784987D01*
X108008719Y-79795655D01*
X108009139Y-79795987D01*
X108004662Y-79801647D01*
X107914094Y-79948481D01*
X107914093Y-79948484D01*
X107859827Y-80112247D01*
X107859827Y-80112248D01*
X107859826Y-80112248D01*
X107849501Y-80213315D01*
X107849501Y-80786669D01*
X107849502Y-80786687D01*
X107859826Y-80887752D01*
X107896110Y-80997249D01*
X107914093Y-81051516D01*
X108004661Y-81198350D01*
X108126651Y-81320340D01*
X108273485Y-81410908D01*
X108437248Y-81465174D01*
X108538324Y-81475500D01*
X109136677Y-81475499D01*
X109136685Y-81475498D01*
X109136688Y-81475498D01*
X109192031Y-81469844D01*
X109237754Y-81465174D01*
X109401517Y-81410908D01*
X109548351Y-81320340D01*
X109662319Y-81206372D01*
X109723642Y-81172887D01*
X109793334Y-81177871D01*
X109837681Y-81206372D01*
X109951649Y-81320340D01*
X110098483Y-81410908D01*
X110262246Y-81465174D01*
X110363322Y-81475500D01*
X110961675Y-81475499D01*
X110961683Y-81475498D01*
X110961686Y-81475498D01*
X111017029Y-81469844D01*
X111062752Y-81465174D01*
X111125770Y-81444291D01*
X111164773Y-81437998D01*
X111559017Y-81437998D01*
X111626056Y-81457683D01*
X111671811Y-81510487D01*
X111681755Y-81579645D01*
X111664555Y-81627095D01*
X111589553Y-81748690D01*
X111589548Y-81748701D01*
X111535321Y-81912349D01*
X111525002Y-82013347D01*
X111525002Y-82112502D01*
X113475001Y-82112502D01*
X113475001Y-82013362D01*
X113475000Y-82013347D01*
X113464682Y-81912349D01*
X113410455Y-81748701D01*
X113410450Y-81748690D01*
X113335449Y-81627095D01*
X113317008Y-81559703D01*
X113337930Y-81493039D01*
X113391572Y-81448269D01*
X113440987Y-81437998D01*
X114754558Y-81437998D01*
X114821597Y-81457683D01*
X114842239Y-81474317D01*
X116495610Y-83127688D01*
X116529095Y-83189011D01*
X116524111Y-83258703D01*
X116482239Y-83314636D01*
X116416775Y-83339053D01*
X116348502Y-83324201D01*
X116345929Y-83322756D01*
X116136700Y-83201958D01*
X116136690Y-83201953D01*
X115894428Y-83101605D01*
X115894421Y-83101603D01*
X115894419Y-83101602D01*
X115641116Y-83033730D01*
X115583339Y-83026123D01*
X115381127Y-82999500D01*
X115381120Y-82999500D01*
X115118880Y-82999500D01*
X115118872Y-82999500D01*
X114899482Y-83028385D01*
X114858884Y-83033730D01*
X114654755Y-83088426D01*
X114605581Y-83101602D01*
X114605571Y-83101605D01*
X114363309Y-83201953D01*
X114363299Y-83201958D01*
X114136196Y-83333075D01*
X113928148Y-83492718D01*
X113742718Y-83678148D01*
X113583075Y-83886196D01*
X113451958Y-84113299D01*
X113451953Y-84113309D01*
X113351605Y-84355571D01*
X113351602Y-84355581D01*
X113283730Y-84608884D01*
X113283716Y-84608990D01*
X113249500Y-84868872D01*
X113249500Y-85131127D01*
X113261039Y-85218767D01*
X113283730Y-85391116D01*
X113335028Y-85582563D01*
X113351602Y-85644418D01*
X113351605Y-85644428D01*
X113451953Y-85886690D01*
X113451958Y-85886700D01*
X113583075Y-86113803D01*
X113742718Y-86321851D01*
X113742726Y-86321860D01*
X113928140Y-86507274D01*
X113928148Y-86507281D01*
X114136196Y-86666924D01*
X114363299Y-86798041D01*
X114363309Y-86798046D01*
X114605571Y-86898394D01*
X114605581Y-86898398D01*
X114858884Y-86966270D01*
X115107188Y-86998960D01*
X115115074Y-86999999D01*
X115118880Y-87000500D01*
X115118887Y-87000500D01*
X115381113Y-87000500D01*
X115381120Y-87000500D01*
X115641116Y-86966270D01*
X115894419Y-86898398D01*
X116136697Y-86798043D01*
X116363803Y-86666924D01*
X116571851Y-86507282D01*
X116571855Y-86507277D01*
X116571860Y-86507274D01*
X116737819Y-86341315D01*
X116799142Y-86307830D01*
X116868834Y-86312814D01*
X116924767Y-86354686D01*
X116949184Y-86420150D01*
X116949500Y-86428996D01*
X116949500Y-87117059D01*
X116929815Y-87184098D01*
X116913181Y-87204740D01*
X116039201Y-88078719D01*
X115977878Y-88112204D01*
X115908186Y-88107220D01*
X115904086Y-88105606D01*
X115899895Y-88103870D01*
X115894418Y-88101601D01*
X115748172Y-88062415D01*
X115641116Y-88033730D01*
X115583339Y-88026123D01*
X115381127Y-87999500D01*
X115381120Y-87999500D01*
X115118880Y-87999500D01*
X115118872Y-87999500D01*
X114887772Y-88029926D01*
X114858884Y-88033730D01*
X114690982Y-88078719D01*
X114605581Y-88101602D01*
X114605571Y-88101605D01*
X114363309Y-88201953D01*
X114363299Y-88201958D01*
X114136196Y-88333075D01*
X113928148Y-88492718D01*
X113742718Y-88678148D01*
X113583075Y-88886196D01*
X113451958Y-89113299D01*
X113451953Y-89113309D01*
X113351605Y-89355571D01*
X113351602Y-89355581D01*
X113283730Y-89608885D01*
X113249500Y-89868872D01*
X113249500Y-90131127D01*
X113276123Y-90333339D01*
X113283730Y-90391116D01*
X113351602Y-90644418D01*
X113351605Y-90644428D01*
X113451953Y-90886690D01*
X113451958Y-90886700D01*
X113572757Y-91095931D01*
X113589230Y-91163832D01*
X113566377Y-91229859D01*
X113511456Y-91273049D01*
X113441902Y-91279690D01*
X113379800Y-91247674D01*
X113377689Y-91245612D01*
X112921280Y-90789203D01*
X112887795Y-90727880D01*
X112892779Y-90658188D01*
X112894402Y-90654065D01*
X112898398Y-90644419D01*
X112966270Y-90391116D01*
X113000500Y-90131120D01*
X113000500Y-89868880D01*
X112966270Y-89608884D01*
X112898398Y-89355581D01*
X112894401Y-89345931D01*
X112798046Y-89113309D01*
X112798041Y-89113299D01*
X112666924Y-88886196D01*
X112507281Y-88678148D01*
X112507274Y-88678140D01*
X112321860Y-88492726D01*
X112321851Y-88492718D01*
X112113803Y-88333075D01*
X111886700Y-88201958D01*
X111886690Y-88201953D01*
X111644428Y-88101605D01*
X111644421Y-88101603D01*
X111644419Y-88101602D01*
X111391116Y-88033730D01*
X111333339Y-88026123D01*
X111131127Y-87999500D01*
X111131120Y-87999500D01*
X110868880Y-87999500D01*
X110868872Y-87999500D01*
X110637772Y-88029926D01*
X110608884Y-88033730D01*
X110440982Y-88078719D01*
X110355581Y-88101602D01*
X110355571Y-88101605D01*
X110113309Y-88201953D01*
X110113299Y-88201958D01*
X109886196Y-88333075D01*
X109678148Y-88492718D01*
X109492718Y-88678148D01*
X109333075Y-88886196D01*
X109201958Y-89113299D01*
X109201953Y-89113309D01*
X109101605Y-89355571D01*
X109101602Y-89355581D01*
X109033730Y-89608885D01*
X108999500Y-89868872D01*
X108999500Y-90131127D01*
X109026123Y-90333339D01*
X109033730Y-90391116D01*
X109101602Y-90644418D01*
X109101605Y-90644428D01*
X109201953Y-90886690D01*
X109201958Y-90886700D01*
X109333075Y-91113803D01*
X109492718Y-91321851D01*
X109492726Y-91321860D01*
X109678140Y-91507274D01*
X109678148Y-91507281D01*
X109886196Y-91666924D01*
X110113299Y-91798041D01*
X110113309Y-91798046D01*
X110355571Y-91898394D01*
X110355581Y-91898398D01*
X110608884Y-91966270D01*
X110868880Y-92000500D01*
X110868887Y-92000500D01*
X111131113Y-92000500D01*
X111131120Y-92000500D01*
X111391116Y-91966270D01*
X111644419Y-91898398D01*
X111654066Y-91894401D01*
X111723534Y-91886930D01*
X111786015Y-91918203D01*
X111789203Y-91921280D01*
X113123870Y-93255947D01*
X113123891Y-93255970D01*
X113239707Y-93371786D01*
X113239711Y-93371789D01*
X113370814Y-93459390D01*
X113370827Y-93459397D01*
X113467646Y-93499500D01*
X113516503Y-93519737D01*
X113516507Y-93519737D01*
X113516508Y-93519738D01*
X113671154Y-93550500D01*
X113671157Y-93550500D01*
X113671158Y-93550500D01*
X114162859Y-93550500D01*
X114229898Y-93570185D01*
X114275653Y-93622989D01*
X114285597Y-93692147D01*
X114256572Y-93755703D01*
X114224859Y-93781887D01*
X114136196Y-93833075D01*
X113928148Y-93992718D01*
X113742718Y-94178148D01*
X113583075Y-94386196D01*
X113451958Y-94613299D01*
X113451953Y-94613309D01*
X113351605Y-94855571D01*
X113351602Y-94855581D01*
X113292206Y-95077253D01*
X113283730Y-95108885D01*
X113249500Y-95368872D01*
X113249500Y-95631127D01*
X113276123Y-95833339D01*
X113283730Y-95891116D01*
X113296349Y-95938211D01*
X113351602Y-96144418D01*
X113351605Y-96144428D01*
X113451953Y-96386690D01*
X113451958Y-96386700D01*
X113583075Y-96613803D01*
X113742718Y-96821851D01*
X113742726Y-96821860D01*
X113928140Y-97007274D01*
X113928148Y-97007281D01*
X114136196Y-97166924D01*
X114311462Y-97268113D01*
X114359677Y-97318680D01*
X114372901Y-97387287D01*
X114346933Y-97452151D01*
X114290019Y-97492680D01*
X114249462Y-97499500D01*
X112000538Y-97499500D01*
X111933499Y-97479815D01*
X111887744Y-97427011D01*
X111877800Y-97357853D01*
X111906825Y-97294297D01*
X111938538Y-97268113D01*
X112113803Y-97166924D01*
X112321851Y-97007282D01*
X112321855Y-97007277D01*
X112321860Y-97007274D01*
X112507274Y-96821860D01*
X112507277Y-96821855D01*
X112507282Y-96821851D01*
X112666924Y-96613803D01*
X112798043Y-96386697D01*
X112898398Y-96144419D01*
X112966270Y-95891116D01*
X113000500Y-95631120D01*
X113000500Y-95368880D01*
X112966270Y-95108884D01*
X112898398Y-94855581D01*
X112858004Y-94758061D01*
X112798046Y-94613309D01*
X112798041Y-94613299D01*
X112666924Y-94386196D01*
X112507281Y-94178148D01*
X112507274Y-94178140D01*
X112321860Y-93992726D01*
X112321851Y-93992718D01*
X112113803Y-93833075D01*
X111886700Y-93701958D01*
X111886690Y-93701953D01*
X111644428Y-93601605D01*
X111644421Y-93601603D01*
X111644419Y-93601602D01*
X111391116Y-93533730D01*
X111333339Y-93526123D01*
X111131127Y-93499500D01*
X111131120Y-93499500D01*
X110868880Y-93499500D01*
X110868872Y-93499500D01*
X110637772Y-93529926D01*
X110608884Y-93533730D01*
X110355581Y-93601602D01*
X110355571Y-93601605D01*
X110113309Y-93701953D01*
X110113299Y-93701958D01*
X109886196Y-93833075D01*
X109678148Y-93992718D01*
X109492718Y-94178148D01*
X109333075Y-94386196D01*
X109201958Y-94613299D01*
X109201953Y-94613309D01*
X109101605Y-94855571D01*
X109101602Y-94855581D01*
X109042206Y-95077253D01*
X109033730Y-95108885D01*
X108999500Y-95368872D01*
X108999500Y-95631127D01*
X109026123Y-95833339D01*
X109033730Y-95891116D01*
X109046349Y-95938211D01*
X109101602Y-96144418D01*
X109101605Y-96144428D01*
X109201953Y-96386690D01*
X109201958Y-96386700D01*
X109333075Y-96613803D01*
X109492718Y-96821851D01*
X109492726Y-96821860D01*
X109678140Y-97007274D01*
X109678148Y-97007281D01*
X109886196Y-97166924D01*
X110061462Y-97268113D01*
X110109677Y-97318680D01*
X110122901Y-97387287D01*
X110096933Y-97452151D01*
X110040019Y-97492680D01*
X109999462Y-97499500D01*
X106624500Y-97499500D01*
X106557461Y-97479815D01*
X106511706Y-97427011D01*
X106500500Y-97375500D01*
X106500500Y-84868905D01*
X108750000Y-84868905D01*
X108750000Y-85131094D01*
X108784220Y-85391009D01*
X108784222Y-85391020D01*
X108852075Y-85644255D01*
X108952404Y-85886471D01*
X108952409Y-85886482D01*
X109083488Y-86113516D01*
X109083494Y-86113524D01*
X109170080Y-86226365D01*
X110072421Y-85324024D01*
X110085359Y-85355258D01*
X110167437Y-85478097D01*
X110271903Y-85582563D01*
X110394742Y-85664641D01*
X110425974Y-85677577D01*
X109523633Y-86579917D01*
X109523633Y-86579918D01*
X109636475Y-86666505D01*
X109636483Y-86666511D01*
X109863517Y-86797590D01*
X109863528Y-86797595D01*
X110105744Y-86897924D01*
X110358979Y-86965777D01*
X110358990Y-86965779D01*
X110618905Y-86999999D01*
X110618920Y-87000000D01*
X110881080Y-87000000D01*
X110881094Y-86999999D01*
X111141009Y-86965779D01*
X111141020Y-86965777D01*
X111394255Y-86897924D01*
X111636471Y-86797595D01*
X111636482Y-86797590D01*
X111863516Y-86666511D01*
X111863534Y-86666499D01*
X111976365Y-86579919D01*
X111976365Y-86579917D01*
X111074025Y-85677578D01*
X111105258Y-85664641D01*
X111228097Y-85582563D01*
X111332563Y-85478097D01*
X111414641Y-85355258D01*
X111427578Y-85324025D01*
X112329917Y-86226365D01*
X112329919Y-86226365D01*
X112416499Y-86113534D01*
X112416511Y-86113516D01*
X112547590Y-85886482D01*
X112547595Y-85886471D01*
X112647924Y-85644255D01*
X112715777Y-85391020D01*
X112715779Y-85391009D01*
X112749999Y-85131094D01*
X112750000Y-85131080D01*
X112750000Y-84868919D01*
X112749999Y-84868905D01*
X112715779Y-84608990D01*
X112715777Y-84608979D01*
X112647924Y-84355744D01*
X112547595Y-84113528D01*
X112547590Y-84113517D01*
X112416511Y-83886483D01*
X112416505Y-83886475D01*
X112329918Y-83773633D01*
X112329917Y-83773633D01*
X111427577Y-84675973D01*
X111414641Y-84644742D01*
X111332563Y-84521903D01*
X111228097Y-84417437D01*
X111105258Y-84335359D01*
X111074023Y-84322421D01*
X111991679Y-83404766D01*
X112053002Y-83371281D01*
X112122694Y-83376265D01*
X112136935Y-83385418D01*
X112137133Y-83385003D01*
X112156462Y-83394188D01*
X112213356Y-83400001D01*
X112250002Y-83400001D01*
X112750002Y-83400001D01*
X112786642Y-83400001D01*
X112786656Y-83400000D01*
X112887654Y-83389682D01*
X113051302Y-83335455D01*
X113051313Y-83335450D01*
X113198036Y-83244949D01*
X113198040Y-83244946D01*
X113319946Y-83123040D01*
X113319949Y-83123036D01*
X113410450Y-82976313D01*
X113410455Y-82976302D01*
X113464682Y-82812654D01*
X113475001Y-82711656D01*
X113475002Y-82711643D01*
X113475002Y-82612502D01*
X112750002Y-82612502D01*
X112750002Y-83400001D01*
X112250002Y-83400001D01*
X112250002Y-82612502D01*
X111525003Y-82612502D01*
X111525003Y-82711656D01*
X111535321Y-82812654D01*
X111583668Y-82958556D01*
X111586070Y-83028385D01*
X111550338Y-83088426D01*
X111487817Y-83119619D01*
X111418512Y-83112122D01*
X111394257Y-83102076D01*
X111394258Y-83102076D01*
X111141020Y-83034222D01*
X111141009Y-83034220D01*
X110881094Y-83000000D01*
X110618905Y-83000000D01*
X110358990Y-83034220D01*
X110358979Y-83034222D01*
X110105744Y-83102075D01*
X109863528Y-83202404D01*
X109863517Y-83202409D01*
X109636471Y-83333496D01*
X109523633Y-83420079D01*
X109523633Y-83420080D01*
X110425975Y-84322421D01*
X110394742Y-84335359D01*
X110271903Y-84417437D01*
X110167437Y-84521903D01*
X110085359Y-84644742D01*
X110072421Y-84675974D01*
X109170080Y-83773633D01*
X109170079Y-83773633D01*
X109083496Y-83886471D01*
X108952409Y-84113517D01*
X108952404Y-84113528D01*
X108852075Y-84355744D01*
X108784222Y-84608979D01*
X108784220Y-84608990D01*
X108750000Y-84868905D01*
X106500500Y-84868905D01*
X106500500Y-76992845D01*
X106520185Y-76925806D01*
X106572989Y-76880051D01*
X106642147Y-76870107D01*
X106705703Y-76899132D01*
X106712181Y-76905164D01*
X106801963Y-76994946D01*
X106801967Y-76994949D01*
X106948690Y-77085450D01*
X106948701Y-77085455D01*
X107112349Y-77139682D01*
X107213354Y-77150001D01*
X107250002Y-77150001D01*
X107750002Y-77150001D01*
X107786642Y-77150001D01*
X107786656Y-77150000D01*
X107887654Y-77139682D01*
X108051302Y-77085455D01*
X108051313Y-77085450D01*
X108198036Y-76994949D01*
X108198040Y-76994946D01*
X108319946Y-76873040D01*
X108319949Y-76873036D01*
X108410450Y-76726313D01*
X108410455Y-76726302D01*
X108464682Y-76562654D01*
X108475001Y-76461656D01*
X108475002Y-76461643D01*
X108475002Y-76362502D01*
X107750002Y-76362502D01*
X107750002Y-77150001D01*
X107250002Y-77150001D01*
X107250002Y-76236502D01*
X107269687Y-76169463D01*
X107322491Y-76123708D01*
X107374002Y-76112502D01*
X107500002Y-76112502D01*
X107500002Y-75986502D01*
X107519687Y-75919463D01*
X107572491Y-75873708D01*
X107624002Y-75862502D01*
X108475001Y-75862502D01*
X108475001Y-75763362D01*
X108475000Y-75763347D01*
X108464682Y-75662349D01*
X108410455Y-75498701D01*
X108410450Y-75498690D01*
X108319949Y-75351967D01*
X108319946Y-75351963D01*
X108306015Y-75338032D01*
X108272530Y-75276709D01*
X108277514Y-75207017D01*
X108306015Y-75162670D01*
X108320338Y-75148348D01*
X108410906Y-75001514D01*
X108416214Y-74985492D01*
X108455988Y-74928049D01*
X108520504Y-74901227D01*
X108533920Y-74900499D01*
X111073560Y-74900499D01*
X111140599Y-74920184D01*
G37*
%TD.AperFunction*%
%TA.AperFunction,Conductor*%
G36*
X114784098Y-74920184D02*
G01*
X114804740Y-74936818D01*
X118163181Y-78295258D01*
X118196666Y-78356581D01*
X118199500Y-78382939D01*
X118199500Y-82268059D01*
X118179815Y-82335098D01*
X118127011Y-82380853D01*
X118057853Y-82390797D01*
X117994297Y-82361772D01*
X117987819Y-82355740D01*
X115647790Y-80015711D01*
X115647786Y-80015708D01*
X115516683Y-79928107D01*
X115516670Y-79928100D01*
X115370999Y-79867762D01*
X115370987Y-79867759D01*
X115216343Y-79836998D01*
X115216340Y-79836998D01*
X113332050Y-79836998D01*
X113265011Y-79817313D01*
X113244369Y-79800679D01*
X113198349Y-79754659D01*
X113198348Y-79754658D01*
X113051514Y-79664090D01*
X112887751Y-79609824D01*
X112887749Y-79609823D01*
X112786676Y-79599498D01*
X112213328Y-79599498D01*
X112213310Y-79599499D01*
X112112245Y-79609823D01*
X111948482Y-79664090D01*
X111948479Y-79664091D01*
X111801646Y-79754659D01*
X111755627Y-79800679D01*
X111728699Y-79815382D01*
X111702881Y-79831975D01*
X111696680Y-79832866D01*
X111694304Y-79834164D01*
X111667946Y-79836998D01*
X111582049Y-79836998D01*
X111515010Y-79817313D01*
X111494368Y-79800679D01*
X111373350Y-79679661D01*
X111373349Y-79679660D01*
X111260125Y-79609823D01*
X111226517Y-79589093D01*
X111226512Y-79589091D01*
X111225068Y-79588612D01*
X111062752Y-79534826D01*
X111062750Y-79534825D01*
X110961677Y-79524500D01*
X110363329Y-79524500D01*
X110363311Y-79524501D01*
X110262246Y-79534825D01*
X110098483Y-79589092D01*
X110098480Y-79589093D01*
X109951647Y-79679661D01*
X109849682Y-79781627D01*
X109830245Y-79792239D01*
X109813512Y-79806740D01*
X109800180Y-79808656D01*
X109788359Y-79815112D01*
X109766272Y-79813532D01*
X109744354Y-79816684D01*
X109732102Y-79811088D01*
X109718667Y-79810128D01*
X109700940Y-79796857D01*
X109680798Y-79787659D01*
X109673515Y-79776327D01*
X109662734Y-79768256D01*
X109654996Y-79747510D01*
X109643024Y-79728881D01*
X109639872Y-79706962D01*
X109638317Y-79702792D01*
X109638001Y-79693946D01*
X109638001Y-79545439D01*
X109657686Y-79478400D01*
X109674320Y-79457758D01*
X110375260Y-78756818D01*
X110436583Y-78723333D01*
X110462941Y-78720499D01*
X111405663Y-78720499D01*
X111472702Y-78740184D01*
X111493344Y-78756817D01*
X111610354Y-78873827D01*
X111769595Y-78989523D01*
X111852455Y-79031742D01*
X111944970Y-79078881D01*
X111944972Y-79078881D01*
X111944975Y-79078883D01*
X112045317Y-79111486D01*
X112132173Y-79139708D01*
X112326578Y-79170499D01*
X112326583Y-79170499D01*
X112523422Y-79170499D01*
X112717826Y-79139708D01*
X112905025Y-79078883D01*
X113080405Y-78989523D01*
X113239646Y-78873827D01*
X113378828Y-78734645D01*
X113494524Y-78575404D01*
X113583884Y-78400024D01*
X113644709Y-78212825D01*
X113675500Y-78018421D01*
X113675500Y-77821576D01*
X113644709Y-77627172D01*
X113616487Y-77540316D01*
X113583884Y-77439974D01*
X113583882Y-77439971D01*
X113583882Y-77439969D01*
X113536743Y-77347454D01*
X113494524Y-77264594D01*
X113378828Y-77105353D01*
X113239646Y-76966171D01*
X113080405Y-76850475D01*
X112905029Y-76761116D01*
X112811182Y-76730623D01*
X112761820Y-76700373D01*
X112471450Y-76410002D01*
X112477663Y-76410002D01*
X112579396Y-76382743D01*
X112670608Y-76330082D01*
X112745082Y-76255608D01*
X112797743Y-76164396D01*
X112825002Y-76062663D01*
X112825002Y-76056449D01*
X113468680Y-76700128D01*
X113468680Y-76700127D01*
X113494097Y-76665145D01*
X113583420Y-76489837D01*
X113644223Y-76302707D01*
X113675002Y-76108384D01*
X113675002Y-75911619D01*
X113644223Y-75717296D01*
X113583420Y-75530166D01*
X113497767Y-75362061D01*
X113484871Y-75293392D01*
X113511147Y-75228651D01*
X113526346Y-75213880D01*
X113526278Y-75213812D01*
X113532538Y-75207550D01*
X113532546Y-75207545D01*
X113618796Y-75092330D01*
X113626149Y-75072614D01*
X113660258Y-74981166D01*
X113702129Y-74925232D01*
X113767593Y-74900815D01*
X113776440Y-74900499D01*
X114717059Y-74900499D01*
X114784098Y-74920184D01*
G37*
%TD.AperFunction*%
%TD*%
M02*
