M48
; DRILL file {KiCad 9.0.2} date 2025-10-09T08:49:23+0200
; FORMAT={-:-/ absolute / metric / decimal}
; #@! TF.CreationDate,2025-10-09T08:49:23+02:00
; #@! TF.GenerationSoftware,Kicad,Pcbnew,9.0.2
; #@! TF.FileFunction,Plated,1,2,PTH
FMAT,2
METRIC
; #@! TA.AperFunction,Plated,PTH,ComponentDrill
T1C0.500
; #@! TA.AperFunction,Plated,PTH,ComponentDrill
T2C0.800
; #@! TA.AperFunction,Plated,PTH,ComponentDrill
T3C1.500
; #@! TA.AperFunction,Plated,PTH,ComponentDrill
T4C1.800
; #@! TA.AperFunction,Plated,PTH,ComponentDrill
T5C2.000
; #@! TA.AperFunction,Plated,PTH,ComponentDrill
T6C2.700
%
G90
G05
T1
X131.775Y-71.68
X131.775Y-83.01
X131.775Y-70.34
X131.775Y-73.01
X131.775Y-81.68
X131.775Y-69.01
X131.775Y-79.01
X131.775Y-80.34
X132.165Y-67.81
X132.165Y-74.21
X132.165Y-77.81
X132.165Y-84.21
X133.195Y-67.06
X133.195Y-84.96
X133.195Y-74.96
X133.195Y-77.06
X134.455Y-77.06
X134.455Y-67.06
X134.455Y-84.96
X134.455Y-74.96
X135.485Y-74.21
X135.485Y-67.81
X135.485Y-77.81
X135.485Y-84.21
X135.875Y-73.01
X135.875Y-80.34
X135.875Y-69.01
X135.875Y-70.34
X135.875Y-71.68
X135.875Y-81.68
X135.875Y-83.01
X135.875Y-79.01
T2
X112.425Y-74.1
X112.425Y-77.92
X112.425Y-76.01
T3
X110.75Y-85.0
X111.0Y-90.0
X111.0Y-95.5
X115.25Y-85.0
X115.25Y-90.0
X115.25Y-95.5
T4
X120.8Y-96.3
X120.95Y-57.962
X134.3Y-96.3
X134.45Y-57.962
T6
X123.95Y-90.3
X124.1Y-63.962
X131.15Y-90.3
X131.3Y-63.962
T5
G00X133.825Y-69.01
M15
G01X133.825Y-73.01
M16
G05
G00X133.825Y-79.01
M15
G01X133.825Y-83.01
M16
G05
M30
