  0
SECTION
  2
HEADER
  9
$ANGBASE
  50
0.0
  9
$ANGDIR
  70
1
  9
$MEASUREMENT
  70
1
  0
ENDSEC
  0
SECTION
  2
TABLES
  0
TABLE
  2
LTYPE
  70
4
  0
LTYPE
  5
40F
  2
CONTINUOUS
  70
0
  3
Solid line
  72
65
  73
0
  40
0.0
  0
LTYPE
  5
410
  2
DASHDOT
 70
0
  3
Dash Dot ____ _ ____ _
 72
65
 73
4
 40
2.0
 49
1.25
 49
-0.25
 49
0.25
 49
-0.25
  0
LTYPE
  5
411
  2
DASHED
 70
0
  3
Dashed __ __ __ __ __
 72
65
 73
2
 40
0.75
 49
0.5
 49
-0.25
  0
LTYPE
  5
43B
  2
DOTTED
 70
0
  3
Dotted .  .  .  .
 72
65
 73
2
 40
0.2
 49
0.0
 49
-0.2
  0
ENDTAB
  0
TABLE
  2
STYLE
  70
4
  0
STYLE
  2
KICAD
  70
0
  40
0
  41
1
  42
1
  50
0
  71
0
  3
isocp.shx
  0
STYLE
  2
KICADB
  70
0
  40
0
  41
1
  42
1
  50
0
  71
0
  3
isocp.shx
  0
STYLE
  2
KICADI
  70
0
  40
0
  41
1
  42
1
  50
15
  71
0
  3
isocp.shx
  0
STYLE
  2
KICADBI
  70
0
  40
0
  41
1
  42
1
  50
15
  71
0
  3
isocp.shx
  0
ENDTAB
  0
TABLE
  2
LAYER
  70
35
  0
LAYER
  2
BLACK
  70
0
  62
7
  6
CONTINUOUS
  0
LAYER
  2
GRAY1
  70
0
  62
251
  6
CONTINUOUS
  0
LAYER
  2
GRAY2
  70
0
  62
8
  6
CONTINUOUS
  0
LAYER
  2
GRAY3
  70
0
  62
9
  6
CONTINUOUS
  0
LAYER
  2
WHITE
  70
0
  62
7
  6
CONTINUOUS
  0
LAYER
  2
LYELLOW
  70
0
  62
51
  6
CONTINUOUS
  0
LAYER
  2
LORANGE
  70
0
  62
41
  6
CONTINUOUS
  0
LAYER
  2
BLUE1
  70
0
  62
178
  6
CONTINUOUS
  0
LAYER
  2
GREEN1
  70
0
  62
98
  6
CONTINUOUS
  0
LAYER
  2
CYAN1
  70
0
  62
138
  6
CONTINUOUS
  0
LAYER
  2
RED1
  70
0
  62
18
  6
CONTINUOUS
  0
LAYER
  2
MAGENTA1
  70
0
  62
228
  6
CONTINUOUS
  0
LAYER
  2
BROWN1
  70
0
  62
58
  6
CONTINUOUS
  0
LAYER
  2
ORANGE1
  70
0
  62
34
  6
CONTINUOUS
  0
LAYER
  2
BLUE2
  70
0
  62
5
  6
CONTINUOUS
  0
LAYER
  2
GREEN2
  70
0
  62
3
  6
CONTINUOUS
  0
LAYER
  2
CYAN2
  70
0
  62
4
  6
CONTINUOUS
  0
LAYER
  2
RED2
  70
0
  62
1
  6
CONTINUOUS
  0
LAYER
  2
MAGENTA2
  70
0
  62
6
  6
CONTINUOUS
  0
LAYER
  2
BROWN2
  70
0
  62
54
  6
CONTINUOUS
  0
LAYER
  2
ORANGE2
  70
0
  62
42
  6
CONTINUOUS
  0
LAYER
  2
BLUE3
  70
0
  62
171
  6
CONTINUOUS
  0
LAYER
  2
GREEN3
  70
0
  62
91
  6
CONTINUOUS
  0
LAYER
  2
CYAN3
  70
0
  62
131
  6
CONTINUOUS
  0
LAYER
  2
RED3
  70
0
  62
11
  6
CONTINUOUS
  0
LAYER
  2
MAGENTA3
  70
0
  62
221
  6
CONTINUOUS
  0
LAYER
  2
YELLOW3
  70
0
  62
2
  6
CONTINUOUS
  0
LAYER
  2
ORANGE3
  70
0
  62
32
  6
CONTINUOUS
  0
LAYER
  2
BLUE4
  70
0
  62
5
  6
CONTINUOUS
  0
LAYER
  2
GREEN4
  70
0
  62
3
  6
CONTINUOUS
  0
LAYER
  2
CYAN4
  70
0
  62
4
  6
CONTINUOUS
  0
LAYER
  2
RED4
  70
0
  62
1
  6
CONTINUOUS
  0
LAYER
  2
MAGENTA4
  70
0
  62
6
  6
CONTINUOUS
  0
LAYER
  2
YELLOW4
  70
0
  62
2
  6
CONTINUOUS
  0
LAYER
  2
ORANGE4
  70
0
  62
40
  6
CONTINUOUS
  0
ENDTAB
  0
ENDSEC
  0
SECTION
  2
ENTITIES
0
LINE
8
BLACK
6
CONTINUOUS
10
126.6783870000000007
20
-93.2930789999999917
11
126.7554379999999981
21
-93.3445619999999963
0
LINE
8
BLACK
6
CONTINUOUS
10
126.7554379999999981
20
-93.3445619999999963
11
126.8069209999999885
21
-93.4216129999999936
0
LINE
8
BLACK
6
CONTINUOUS
10
126.8069209999999885
20
-93.4216129999999936
11
126.8249999999999886
21
-93.5125000000000028
0
LINE
8
BLACK
6
CONTINUOUS
10
126.8249999999999886
20
-93.5125000000000028
11
126.8249999999999886
21
-93.9874999999999972
0
LINE
8
BLACK
6
CONTINUOUS
10
126.8249999999999886
20
-93.9874999999999972
11
126.8069209999999885
21
-94.0783869999999922
0
LINE
8
BLACK
6
CONTINUOUS
10
126.8069209999999885
20
-94.0783869999999922
11
126.7554379999999981
21
-94.1554379999999895
0
LINE
8
BLACK
6
CONTINUOUS
10
126.7554379999999981
20
-94.1554379999999895
11
126.6783870000000007
21
-94.2069209999999941
0
LINE
8
BLACK
6
CONTINUOUS
10
126.6783870000000007
20
-94.2069209999999941
11
126.5874999999999915
21
-94.2249999999999943
0
LINE
8
BLACK
6
CONTINUOUS
10
126.5874999999999915
20
-94.2249999999999943
11
126.0874999999999915
21
-94.2249999999999943
0
LINE
8
BLACK
6
CONTINUOUS
10
126.0874999999999915
20
-94.2249999999999943
11
125.9966129999999964
21
-94.2069209999999941
0
LINE
8
BLACK
6
CONTINUOUS
10
125.9966129999999964
20
-94.2069209999999941
11
125.9195619999999991
21
-94.1554379999999895
0
LINE
8
BLACK
6
CONTINUOUS
10
125.9195619999999991
20
-94.1554379999999895
11
125.8680789999999945
21
-94.0783869999999922
0
LINE
8
BLACK
6
CONTINUOUS
10
125.8680789999999945
20
-94.0783869999999922
11
125.8499999999999943
21
-93.9874999999999972
0
LINE
8
BLACK
6
CONTINUOUS
10
125.8499999999999943
20
-93.9874999999999972
11
125.8499999999999943
21
-93.5125000000000028
0
LINE
8
BLACK
6
CONTINUOUS
10
125.8499999999999943
20
-93.5125000000000028
11
125.8680789999999945
21
-93.4216129999999936
0
LINE
8
BLACK
6
CONTINUOUS
10
125.8680789999999945
20
-93.4216129999999936
11
125.9195619999999991
21
-93.3445619999999963
0
LINE
8
BLACK
6
CONTINUOUS
10
125.9195619999999991
20
-93.3445619999999963
11
125.9966129999999964
21
-93.2930789999999917
0
LINE
8
BLACK
6
CONTINUOUS
10
125.9966129999999964
20
-93.2930789999999917
11
126.0874999999999915
21
-93.2749999999999915
0
LINE
8
BLACK
6
CONTINUOUS
10
126.0874999999999915
20
-93.2749999999999915
11
126.5874999999999915
21
-93.2749999999999915
0
LINE
8
BLACK
6
CONTINUOUS
10
126.5874999999999915
20
-93.2749999999999915
11
126.6783870000000007
21
-93.2930789999999917
0
LINE
8
BLACK
6
CONTINUOUS
10
128.5033870000000036
20
-93.2930789999999917
11
128.5804379999999867
21
-93.3445619999999963
0
LINE
8
BLACK
6
CONTINUOUS
10
128.5804379999999867
20
-93.3445619999999963
11
128.6319210000000055
21
-93.4216129999999936
0
LINE
8
BLACK
6
CONTINUOUS
10
128.6319210000000055
20
-93.4216129999999936
11
128.6500000000000057
21
-93.5125000000000028
0
LINE
8
BLACK
6
CONTINUOUS
10
128.6500000000000057
20
-93.5125000000000028
11
128.6500000000000057
21
-93.9874999999999972
0
LINE
8
BLACK
6
CONTINUOUS
10
128.6500000000000057
20
-93.9874999999999972
11
128.6319210000000055
21
-94.0783869999999922
0
LINE
8
BLACK
6
CONTINUOUS
10
128.6319210000000055
20
-94.0783869999999922
11
128.5804379999999867
21
-94.1554379999999895
0
LINE
8
BLACK
6
CONTINUOUS
10
128.5804379999999867
20
-94.1554379999999895
11
128.5033870000000036
21
-94.2069209999999941
0
LINE
8
BLACK
6
CONTINUOUS
10
128.5033870000000036
20
-94.2069209999999941
11
128.4124999999999943
21
-94.2249999999999943
0
LINE
8
BLACK
6
CONTINUOUS
10
128.4124999999999943
20
-94.2249999999999943
11
127.9124999999999943
21
-94.2249999999999943
0
LINE
8
BLACK
6
CONTINUOUS
10
127.9124999999999943
20
-94.2249999999999943
11
127.8216129999999993
21
-94.2069209999999941
0
LINE
8
BLACK
6
CONTINUOUS
10
127.8216129999999993
20
-94.2069209999999941
11
127.7445619999999877
21
-94.1554379999999895
0
LINE
8
BLACK
6
CONTINUOUS
10
127.7445619999999877
20
-94.1554379999999895
11
127.6930789999999973
21
-94.0783869999999922
0
LINE
8
BLACK
6
CONTINUOUS
10
127.6930789999999973
20
-94.0783869999999922
11
127.6749999999999972
21
-93.9874999999999972
0
LINE
8
BLACK
6
CONTINUOUS
10
127.6749999999999972
20
-93.9874999999999972
11
127.6749999999999972
21
-93.5125000000000028
0
LINE
8
BLACK
6
CONTINUOUS
10
127.6749999999999972
20
-93.5125000000000028
11
127.6930789999999973
21
-93.4216129999999936
0
LINE
8
BLACK
6
CONTINUOUS
10
127.6930789999999973
20
-93.4216129999999936
11
127.7445619999999877
21
-93.3445619999999963
0
LINE
8
BLACK
6
CONTINUOUS
10
127.7445619999999877
20
-93.3445619999999963
11
127.8216129999999993
21
-93.2930789999999917
0
LINE
8
BLACK
6
CONTINUOUS
10
127.8216129999999993
20
-93.2930789999999917
11
127.9124999999999943
21
-93.2749999999999915
0
LINE
8
BLACK
6
CONTINUOUS
10
127.9124999999999943
20
-93.2749999999999915
11
128.4124999999999943
21
-93.2749999999999915
0
LINE
8
BLACK
6
CONTINUOUS
10
128.4124999999999943
20
-93.2749999999999915
11
128.5033870000000036
21
-93.2930789999999917
  0
ENDSEC
  0
EOF
