  0
SECTION
  2
HEADER
  9
$ANGBASE
  50
0.0
  9
$ANGDIR
  70
1
  9
$MEASUREMENT
  70
1
  0
ENDSEC
  0
SECTION
  2
TABLES
  0
TABLE
  2
LTYPE
  70
4
  0
LTYPE
  5
40F
  2
CONTINUOUS
  70
0
  3
Solid line
  72
65
  73
0
  40
0.0
  0
LTYPE
  5
410
  2
DASHDOT
 70
0
  3
Dash Dot ____ _ ____ _
 72
65
 73
4
 40
2.0
 49
1.25
 49
-0.25
 49
0.25
 49
-0.25
  0
LTYPE
  5
411
  2
DASHED
 70
0
  3
Dashed __ __ __ __ __
 72
65
 73
2
 40
0.75
 49
0.5
 49
-0.25
  0
LTYPE
  5
43B
  2
DOTTED
 70
0
  3
Dotted .  .  .  .
 72
65
 73
2
 40
0.2
 49
0.0
 49
-0.2
  0
ENDTAB
  0
TABLE
  2
STYLE
  70
4
  0
STYLE
  2
KICAD
  70
0
  40
0
  41
1
  42
1
  50
0
  71
0
  3
isocp.shx
  0
STYLE
  2
KICADB
  70
0
  40
0
  41
1
  42
1
  50
0
  71
0
  3
isocp.shx
  0
STYLE
  2
KICADI
  70
0
  40
0
  41
1
  42
1
  50
15
  71
0
  3
isocp.shx
  0
STYLE
  2
KICADBI
  70
0
  40
0
  41
1
  42
1
  50
15
  71
0
  3
isocp.shx
  0
ENDTAB
  0
TABLE
  2
LAYER
  70
35
  0
LAYER
  2
BLACK
  70
0
  62
7
  6
CONTINUOUS
  0
LAYER
  2
GRAY1
  70
0
  62
251
  6
CONTINUOUS
  0
LAYER
  2
GRAY2
  70
0
  62
8
  6
CONTINUOUS
  0
LAYER
  2
GRAY3
  70
0
  62
9
  6
CONTINUOUS
  0
LAYER
  2
WHITE
  70
0
  62
7
  6
CONTINUOUS
  0
LAYER
  2
LYELLOW
  70
0
  62
51
  6
CONTINUOUS
  0
LAYER
  2
LORANGE
  70
0
  62
41
  6
CONTINUOUS
  0
LAYER
  2
BLUE1
  70
0
  62
178
  6
CONTINUOUS
  0
LAYER
  2
GREEN1
  70
0
  62
98
  6
CONTINUOUS
  0
LAYER
  2
CYAN1
  70
0
  62
138
  6
CONTINUOUS
  0
LAYER
  2
RED1
  70
0
  62
18
  6
CONTINUOUS
  0
LAYER
  2
MAGENTA1
  70
0
  62
228
  6
CONTINUOUS
  0
LAYER
  2
BROWN1
  70
0
  62
58
  6
CONTINUOUS
  0
LAYER
  2
ORANGE1
  70
0
  62
34
  6
CONTINUOUS
  0
LAYER
  2
BLUE2
  70
0
  62
5
  6
CONTINUOUS
  0
LAYER
  2
GREEN2
  70
0
  62
3
  6
CONTINUOUS
  0
LAYER
  2
CYAN2
  70
0
  62
4
  6
CONTINUOUS
  0
LAYER
  2
RED2
  70
0
  62
1
  6
CONTINUOUS
  0
LAYER
  2
MAGENTA2
  70
0
  62
6
  6
CONTINUOUS
  0
LAYER
  2
BROWN2
  70
0
  62
54
  6
CONTINUOUS
  0
LAYER
  2
ORANGE2
  70
0
  62
42
  6
CONTINUOUS
  0
LAYER
  2
BLUE3
  70
0
  62
171
  6
CONTINUOUS
  0
LAYER
  2
GREEN3
  70
0
  62
91
  6
CONTINUOUS
  0
LAYER
  2
CYAN3
  70
0
  62
131
  6
CONTINUOUS
  0
LAYER
  2
RED3
  70
0
  62
11
  6
CONTINUOUS
  0
LAYER
  2
MAGENTA3
  70
0
  62
221
  6
CONTINUOUS
  0
LAYER
  2
YELLOW3
  70
0
  62
2
  6
CONTINUOUS
  0
LAYER
  2
ORANGE3
  70
0
  62
32
  6
CONTINUOUS
  0
LAYER
  2
BLUE4
  70
0
  62
5
  6
CONTINUOUS
  0
LAYER
  2
GREEN4
  70
0
  62
3
  6
CONTINUOUS
  0
LAYER
  2
CYAN4
  70
0
  62
4
  6
CONTINUOUS
  0
LAYER
  2
RED4
  70
0
  62
1
  6
CONTINUOUS
  0
LAYER
  2
MAGENTA4
  70
0
  62
6
  6
CONTINUOUS
  0
LAYER
  2
YELLOW4
  70
0
  62
2
  6
CONTINUOUS
  0
LAYER
  2
ORANGE4
  70
0
  62
40
  6
CONTINUOUS
  0
ENDTAB
  0
ENDSEC
  0
SECTION
  2
ENTITIES
0
LINE
8
BLACK
6
CONTINUOUS
10
112.8283890000000014
20
-81.843080999999998
11
112.9054399999999987
21
-81.8945640000000026
0
LINE
8
BLACK
6
CONTINUOUS
10
112.9054399999999987
20
-81.8945640000000026
11
112.9569229999999891
21
-81.9716149999999999
0
LINE
8
BLACK
6
CONTINUOUS
10
112.9569229999999891
20
-81.9716149999999999
11
112.9750019999999893
21
-82.062501999999995
0
LINE
8
BLACK
6
CONTINUOUS
10
112.9750019999999893
20
-82.062501999999995
11
112.9750019999999893
21
-82.6625019999999893
0
LINE
8
BLACK
6
CONTINUOUS
10
112.9750019999999893
20
-82.6625019999999893
11
112.9569229999999891
21
-82.7533889999999985
0
LINE
8
BLACK
6
CONTINUOUS
10
112.9569229999999891
20
-82.7533889999999985
11
112.9054399999999987
21
-82.8304399999999958
0
LINE
8
BLACK
6
CONTINUOUS
10
112.9054399999999987
20
-82.8304399999999958
11
112.8283890000000014
21
-82.8819230000000005
0
LINE
8
BLACK
6
CONTINUOUS
10
112.8283890000000014
20
-82.8819230000000005
11
112.7375019999999921
21
-82.9000020000000006
0
LINE
8
BLACK
6
CONTINUOUS
10
112.7375019999999921
20
-82.9000020000000006
11
112.2625019999999978
21
-82.9000020000000006
0
LINE
8
BLACK
6
CONTINUOUS
10
112.2625019999999978
20
-82.9000020000000006
11
112.1716149999999885
21
-82.8819230000000005
0
LINE
8
BLACK
6
CONTINUOUS
10
112.1716149999999885
20
-82.8819230000000005
11
112.0945639999999912
21
-82.8304399999999958
0
LINE
8
BLACK
6
CONTINUOUS
10
112.0945639999999912
20
-82.8304399999999958
11
112.0430810000000008
21
-82.7533889999999985
0
LINE
8
BLACK
6
CONTINUOUS
10
112.0430810000000008
20
-82.7533889999999985
11
112.0250020000000006
21
-82.6625019999999893
0
LINE
8
BLACK
6
CONTINUOUS
10
112.0250020000000006
20
-82.6625019999999893
11
112.0250020000000006
21
-82.062501999999995
0
LINE
8
BLACK
6
CONTINUOUS
10
112.0250020000000006
20
-82.062501999999995
11
112.0430810000000008
21
-81.9716149999999999
0
LINE
8
BLACK
6
CONTINUOUS
10
112.0430810000000008
20
-81.9716149999999999
11
112.0945639999999912
21
-81.8945640000000026
0
LINE
8
BLACK
6
CONTINUOUS
10
112.0945639999999912
20
-81.8945640000000026
11
112.1716149999999885
21
-81.843080999999998
0
LINE
8
BLACK
6
CONTINUOUS
10
112.1716149999999885
20
-81.843080999999998
11
112.2625019999999978
21
-81.8250019999999978
0
LINE
8
BLACK
6
CONTINUOUS
10
112.2625019999999978
20
-81.8250019999999978
11
112.7375019999999921
21
-81.8250019999999978
0
LINE
8
BLACK
6
CONTINUOUS
10
112.7375019999999921
20
-81.8250019999999978
11
112.8283890000000014
21
-81.843080999999998
0
LINE
8
BLACK
6
CONTINUOUS
10
112.8283849999999973
20
-80.1180769999999995
11
112.9054359999999946
21
-80.1695599999999899
0
LINE
8
BLACK
6
CONTINUOUS
10
112.9054359999999946
20
-80.1695599999999899
11
112.9569189999999992
21
-80.2466110000000015
0
LINE
8
BLACK
6
CONTINUOUS
10
112.9569189999999992
20
-80.2466110000000015
11
112.9749979999999994
21
-80.3374979999999965
0
LINE
8
BLACK
6
CONTINUOUS
10
112.9749979999999994
20
-80.3374979999999965
11
112.9749979999999994
21
-80.9374979999999908
0
LINE
8
BLACK
6
CONTINUOUS
10
112.9749979999999994
20
-80.9374979999999908
11
112.9569189999999992
21
-81.0283850000000001
0
LINE
8
BLACK
6
CONTINUOUS
10
112.9569189999999992
20
-81.0283850000000001
11
112.9054359999999946
21
-81.1054359999999974
0
LINE
8
BLACK
6
CONTINUOUS
10
112.9054359999999946
20
-81.1054359999999974
11
112.8283849999999973
21
-81.156919000000002
0
LINE
8
BLACK
6
CONTINUOUS
10
112.8283849999999973
20
-81.156919000000002
11
112.737497999999988
21
-81.1749980000000022
0
LINE
8
BLACK
6
CONTINUOUS
10
112.737497999999988
20
-81.1749980000000022
11
112.2624979999999937
21
-81.1749980000000022
0
LINE
8
BLACK
6
CONTINUOUS
10
112.2624979999999937
20
-81.1749980000000022
11
112.1716109999999986
21
-81.156919000000002
0
LINE
8
BLACK
6
CONTINUOUS
10
112.1716109999999986
20
-81.156919000000002
11
112.0945600000000013
21
-81.1054359999999974
0
LINE
8
BLACK
6
CONTINUOUS
10
112.0945600000000013
20
-81.1054359999999974
11
112.0430769999999967
21
-81.0283850000000001
0
LINE
8
BLACK
6
CONTINUOUS
10
112.0430769999999967
20
-81.0283850000000001
11
112.0249979999999965
21
-80.9374979999999908
0
LINE
8
BLACK
6
CONTINUOUS
10
112.0249979999999965
20
-80.9374979999999908
11
112.0249979999999965
21
-80.3374979999999965
0
LINE
8
BLACK
6
CONTINUOUS
10
112.0249979999999965
20
-80.3374979999999965
11
112.0430769999999967
21
-80.2466110000000015
0
LINE
8
BLACK
6
CONTINUOUS
10
112.0430769999999967
20
-80.2466110000000015
11
112.0945600000000013
21
-80.1695599999999899
0
LINE
8
BLACK
6
CONTINUOUS
10
112.0945600000000013
20
-80.1695599999999899
11
112.1716109999999986
21
-80.1180769999999995
0
LINE
8
BLACK
6
CONTINUOUS
10
112.1716109999999986
20
-80.1180769999999995
11
112.2624979999999937
21
-80.0999979999999994
0
LINE
8
BLACK
6
CONTINUOUS
10
112.2624979999999937
20
-80.0999979999999994
11
112.737497999999988
21
-80.0999979999999994
0
LINE
8
BLACK
6
CONTINUOUS
10
112.737497999999988
20
-80.0999979999999994
11
112.8283849999999973
21
-80.1180769999999995
0
LINE
8
BLACK
6
CONTINUOUS
10
109.1783879999999982
20
-80.0430789999999917
11
109.2554389999999955
21
-80.0945619999999963
0
LINE
8
BLACK
6
CONTINUOUS
10
109.2554389999999955
20
-80.0945619999999963
11
109.3069220000000001
21
-80.1716129999999936
0
LINE
8
BLACK
6
CONTINUOUS
10
109.3069220000000001
20
-80.1716129999999936
11
109.3250010000000003
21
-80.2625000000000028
0
LINE
8
BLACK
6
CONTINUOUS
10
109.3250010000000003
20
-80.2625000000000028
11
109.3250010000000003
21
-80.7374999999999972
0
LINE
8
BLACK
6
CONTINUOUS
10
109.3250010000000003
20
-80.7374999999999972
11
109.3069220000000001
21
-80.8283869999999922
0
LINE
8
BLACK
6
CONTINUOUS
10
109.3069220000000001
20
-80.8283869999999922
11
109.2554389999999955
21
-80.9054379999999895
0
LINE
8
BLACK
6
CONTINUOUS
10
109.2554389999999955
20
-80.9054379999999895
11
109.1783879999999982
21
-80.9569209999999941
0
LINE
8
BLACK
6
CONTINUOUS
10
109.1783879999999982
20
-80.9569209999999941
11
109.0875009999999889
21
-80.9749999999999943
0
LINE
8
BLACK
6
CONTINUOUS
10
109.0875009999999889
20
-80.9749999999999943
11
108.5875009999999889
21
-80.9749999999999943
0
LINE
8
BLACK
6
CONTINUOUS
10
108.5875009999999889
20
-80.9749999999999943
11
108.4966139999999939
21
-80.9569209999999941
0
LINE
8
BLACK
6
CONTINUOUS
10
108.4966139999999939
20
-80.9569209999999941
11
108.4195629999999966
21
-80.9054379999999895
0
LINE
8
BLACK
6
CONTINUOUS
10
108.4195629999999966
20
-80.9054379999999895
11
108.368079999999992
21
-80.8283869999999922
0
LINE
8
BLACK
6
CONTINUOUS
10
108.368079999999992
20
-80.8283869999999922
11
108.3500009999999918
21
-80.7374999999999972
0
LINE
8
BLACK
6
CONTINUOUS
10
108.3500009999999918
20
-80.7374999999999972
11
108.3500009999999918
21
-80.2625000000000028
0
LINE
8
BLACK
6
CONTINUOUS
10
108.3500009999999918
20
-80.2625000000000028
11
108.368079999999992
21
-80.1716129999999936
0
LINE
8
BLACK
6
CONTINUOUS
10
108.368079999999992
20
-80.1716129999999936
11
108.4195629999999966
21
-80.0945619999999963
0
LINE
8
BLACK
6
CONTINUOUS
10
108.4195629999999966
20
-80.0945619999999963
11
108.4966139999999939
21
-80.0430789999999917
0
LINE
8
BLACK
6
CONTINUOUS
10
108.4966139999999939
20
-80.0430789999999917
11
108.5875009999999889
21
-80.0249999999999915
0
LINE
8
BLACK
6
CONTINUOUS
10
108.5875009999999889
20
-80.0249999999999915
11
109.0875009999999889
21
-80.0249999999999915
0
LINE
8
BLACK
6
CONTINUOUS
10
109.0875009999999889
20
-80.0249999999999915
11
109.1783879999999982
21
-80.0430789999999917
0
LINE
8
BLACK
6
CONTINUOUS
10
111.0033859999999919
20
-80.0430789999999917
11
111.0804369999999892
21
-80.0945619999999963
0
LINE
8
BLACK
6
CONTINUOUS
10
111.0804369999999892
20
-80.0945619999999963
11
111.1319199999999938
21
-80.1716129999999936
0
LINE
8
BLACK
6
CONTINUOUS
10
111.1319199999999938
20
-80.1716129999999936
11
111.149998999999994
21
-80.2625000000000028
0
LINE
8
BLACK
6
CONTINUOUS
10
111.149998999999994
20
-80.2625000000000028
11
111.149998999999994
21
-80.7374999999999972
0
LINE
8
BLACK
6
CONTINUOUS
10
111.149998999999994
20
-80.7374999999999972
11
111.1319199999999938
21
-80.8283869999999922
0
LINE
8
BLACK
6
CONTINUOUS
10
111.1319199999999938
20
-80.8283869999999922
11
111.0804369999999892
21
-80.9054379999999895
0
LINE
8
BLACK
6
CONTINUOUS
10
111.0804369999999892
20
-80.9054379999999895
11
111.0033859999999919
21
-80.9569209999999941
0
LINE
8
BLACK
6
CONTINUOUS
10
111.0033859999999919
20
-80.9569209999999941
11
110.9124989999999968
21
-80.9749999999999943
0
LINE
8
BLACK
6
CONTINUOUS
10
110.9124989999999968
20
-80.9749999999999943
11
110.4124989999999968
21
-80.9749999999999943
0
LINE
8
BLACK
6
CONTINUOUS
10
110.4124989999999968
20
-80.9749999999999943
11
110.3216120000000018
21
-80.9569209999999941
0
LINE
8
BLACK
6
CONTINUOUS
10
110.3216120000000018
20
-80.9569209999999941
11
110.2445609999999903
21
-80.9054379999999895
0
LINE
8
BLACK
6
CONTINUOUS
10
110.2445609999999903
20
-80.9054379999999895
11
110.1930779999999999
21
-80.8283869999999922
0
LINE
8
BLACK
6
CONTINUOUS
10
110.1930779999999999
20
-80.8283869999999922
11
110.1749989999999997
21
-80.7374999999999972
0
LINE
8
BLACK
6
CONTINUOUS
10
110.1749989999999997
20
-80.7374999999999972
11
110.1749989999999997
21
-80.2625000000000028
0
LINE
8
BLACK
6
CONTINUOUS
10
110.1749989999999997
20
-80.2625000000000028
11
110.1930779999999999
21
-80.1716129999999936
0
LINE
8
BLACK
6
CONTINUOUS
10
110.1930779999999999
20
-80.1716129999999936
11
110.2445609999999903
21
-80.0945619999999963
0
LINE
8
BLACK
6
CONTINUOUS
10
110.2445609999999903
20
-80.0945619999999963
11
110.3216120000000018
21
-80.0430789999999917
0
LINE
8
BLACK
6
CONTINUOUS
10
110.3216120000000018
20
-80.0430789999999917
11
110.4124989999999968
21
-80.0249999999999915
0
LINE
8
BLACK
6
CONTINUOUS
10
110.4124989999999968
20
-80.0249999999999915
11
110.9124989999999968
21
-80.0249999999999915
0
LINE
8
BLACK
6
CONTINUOUS
10
110.9124989999999968
20
-80.0249999999999915
11
111.0033859999999919
21
-80.0430789999999917
0
LINE
8
BLACK
6
CONTINUOUS
10
107.8283890000000014
20
-75.593080999999998
11
107.9054399999999987
21
-75.6445640000000026
0
LINE
8
BLACK
6
CONTINUOUS
10
107.9054399999999987
20
-75.6445640000000026
11
107.9569229999999891
21
-75.7216149999999999
0
LINE
8
BLACK
6
CONTINUOUS
10
107.9569229999999891
20
-75.7216149999999999
11
107.9750019999999893
21
-75.812501999999995
0
LINE
8
BLACK
6
CONTINUOUS
10
107.9750019999999893
20
-75.812501999999995
11
107.9750019999999893
21
-76.4125020000000035
0
LINE
8
BLACK
6
CONTINUOUS
10
107.9750019999999893
20
-76.4125020000000035
11
107.9569229999999891
21
-76.5033889999999985
0
LINE
8
BLACK
6
CONTINUOUS
10
107.9569229999999891
20
-76.5033889999999985
11
107.9054399999999987
21
-76.5804399999999958
0
LINE
8
BLACK
6
CONTINUOUS
10
107.9054399999999987
20
-76.5804399999999958
11
107.8283890000000014
21
-76.6319230000000005
0
LINE
8
BLACK
6
CONTINUOUS
10
107.8283890000000014
20
-76.6319230000000005
11
107.7375019999999921
21
-76.6500020000000006
0
LINE
8
BLACK
6
CONTINUOUS
10
107.7375019999999921
20
-76.6500020000000006
11
107.2625019999999978
21
-76.6500020000000006
0
LINE
8
BLACK
6
CONTINUOUS
10
107.2625019999999978
20
-76.6500020000000006
11
107.1716149999999885
21
-76.6319230000000005
0
LINE
8
BLACK
6
CONTINUOUS
10
107.1716149999999885
20
-76.6319230000000005
11
107.0945639999999912
21
-76.5804399999999958
0
LINE
8
BLACK
6
CONTINUOUS
10
107.0945639999999912
20
-76.5804399999999958
11
107.0430810000000008
21
-76.5033889999999985
0
LINE
8
BLACK
6
CONTINUOUS
10
107.0430810000000008
20
-76.5033889999999985
11
107.0250020000000006
21
-76.4125020000000035
0
LINE
8
BLACK
6
CONTINUOUS
10
107.0250020000000006
20
-76.4125020000000035
11
107.0250020000000006
21
-75.812501999999995
0
LINE
8
BLACK
6
CONTINUOUS
10
107.0250020000000006
20
-75.812501999999995
11
107.0430810000000008
21
-75.7216149999999999
0
LINE
8
BLACK
6
CONTINUOUS
10
107.0430810000000008
20
-75.7216149999999999
11
107.0945639999999912
21
-75.6445640000000026
0
LINE
8
BLACK
6
CONTINUOUS
10
107.0945639999999912
20
-75.6445640000000026
11
107.1716149999999885
21
-75.593080999999998
0
LINE
8
BLACK
6
CONTINUOUS
10
107.1716149999999885
20
-75.593080999999998
11
107.2625019999999978
21
-75.5750019999999978
0
LINE
8
BLACK
6
CONTINUOUS
10
107.2625019999999978
20
-75.5750019999999978
11
107.7375019999999921
21
-75.5750019999999978
0
LINE
8
BLACK
6
CONTINUOUS
10
107.7375019999999921
20
-75.5750019999999978
11
107.8283890000000014
21
-75.593080999999998
0
LINE
8
BLACK
6
CONTINUOUS
10
107.8283849999999973
20
-73.8680769999999995
11
107.9054359999999946
21
-73.9195599999999899
0
LINE
8
BLACK
6
CONTINUOUS
10
107.9054359999999946
20
-73.9195599999999899
11
107.9569189999999992
21
-73.9966110000000015
0
LINE
8
BLACK
6
CONTINUOUS
10
107.9569189999999992
20
-73.9966110000000015
11
107.9749979999999994
21
-74.0874979999999965
0
LINE
8
BLACK
6
CONTINUOUS
10
107.9749979999999994
20
-74.0874979999999965
11
107.9749979999999994
21
-74.6874979999999908
0
LINE
8
BLACK
6
CONTINUOUS
10
107.9749979999999994
20
-74.6874979999999908
11
107.9569189999999992
21
-74.7783850000000001
0
LINE
8
BLACK
6
CONTINUOUS
10
107.9569189999999992
20
-74.7783850000000001
11
107.9054359999999946
21
-74.8554359999999974
0
LINE
8
BLACK
6
CONTINUOUS
10
107.9054359999999946
20
-74.8554359999999974
11
107.8283849999999973
21
-74.906919000000002
0
LINE
8
BLACK
6
CONTINUOUS
10
107.8283849999999973
20
-74.906919000000002
11
107.7374980000000022
21
-74.9249980000000022
0
LINE
8
BLACK
6
CONTINUOUS
10
107.7374980000000022
20
-74.9249980000000022
11
107.2624979999999937
21
-74.9249980000000022
0
LINE
8
BLACK
6
CONTINUOUS
10
107.2624979999999937
20
-74.9249980000000022
11
107.1716109999999986
21
-74.906919000000002
0
LINE
8
BLACK
6
CONTINUOUS
10
107.1716109999999986
20
-74.906919000000002
11
107.0945600000000013
21
-74.8554359999999974
0
LINE
8
BLACK
6
CONTINUOUS
10
107.0945600000000013
20
-74.8554359999999974
11
107.0430769999999967
21
-74.7783850000000001
0
LINE
8
BLACK
6
CONTINUOUS
10
107.0430769999999967
20
-74.7783850000000001
11
107.0249979999999965
21
-74.6874979999999908
0
LINE
8
BLACK
6
CONTINUOUS
10
107.0249979999999965
20
-74.6874979999999908
11
107.0249979999999965
21
-74.0874979999999965
0
LINE
8
BLACK
6
CONTINUOUS
10
107.0249979999999965
20
-74.0874979999999965
11
107.0430769999999967
21
-73.9966110000000015
0
LINE
8
BLACK
6
CONTINUOUS
10
107.0430769999999967
20
-73.9966110000000015
11
107.0945600000000013
21
-73.9195599999999899
0
LINE
8
BLACK
6
CONTINUOUS
10
107.0945600000000013
20
-73.9195599999999899
11
107.1716109999999986
21
-73.8680769999999995
0
LINE
8
BLACK
6
CONTINUOUS
10
107.1716109999999986
20
-73.8680769999999995
11
107.2624979999999937
21
-73.8499979999999994
0
LINE
8
BLACK
6
CONTINUOUS
10
107.2624979999999937
20
-73.8499979999999994
11
107.7374980000000022
21
-73.8499979999999994
0
LINE
8
BLACK
6
CONTINUOUS
10
107.7374980000000022
20
-73.8499979999999994
11
107.8283849999999973
21
-73.8680769999999995
  0
ENDSEC
  0
EOF
