  0
SECTION
  2
HEADER
  9
$ANGBASE
  50
0.0
  9
$ANGDIR
  70
1
  9
$MEASUREMENT
  70
1
  0
ENDSEC
  0
SECTION
  2
TABLES
  0
TABLE
  2
LTYPE
  70
4
  0
LTYPE
  5
40F
  2
CONTINUOUS
  70
0
  3
Solid line
  72
65
  73
0
  40
0.0
  0
LTYPE
  5
410
  2
DASHDOT
 70
0
  3
Dash Dot ____ _ ____ _
 72
65
 73
4
 40
2.0
 49
1.25
 49
-0.25
 49
0.25
 49
-0.25
  0
LTYPE
  5
411
  2
DASHED
 70
0
  3
Dashed __ __ __ __ __
 72
65
 73
2
 40
0.75
 49
0.5
 49
-0.25
  0
LTYPE
  5
43B
  2
DOTTED
 70
0
  3
Dotted .  .  .  .
 72
65
 73
2
 40
0.2
 49
0.0
 49
-0.2
  0
ENDTAB
  0
TABLE
  2
STYLE
  70
4
  0
STYLE
  2
KICAD
  70
0
  40
0
  41
1
  42
1
  50
0
  71
0
  3
isocp.shx
  0
STYLE
  2
KICADB
  70
0
  40
0
  41
1
  42
1
  50
0
  71
0
  3
isocp.shx
  0
STYLE
  2
KICADI
  70
0
  40
0
  41
1
  42
1
  50
15
  71
0
  3
isocp.shx
  0
STYLE
  2
KICADBI
  70
0
  40
0
  41
1
  42
1
  50
15
  71
0
  3
isocp.shx
  0
ENDTAB
  0
TABLE
  2
LAYER
  70
35
  0
LAYER
  2
BLACK
  70
0
  62
7
  6
CONTINUOUS
  0
LAYER
  2
GRAY1
  70
0
  62
251
  6
CONTINUOUS
  0
LAYER
  2
GRAY2
  70
0
  62
8
  6
CONTINUOUS
  0
LAYER
  2
GRAY3
  70
0
  62
9
  6
CONTINUOUS
  0
LAYER
  2
WHITE
  70
0
  62
7
  6
CONTINUOUS
  0
LAYER
  2
LYELLOW
  70
0
  62
51
  6
CONTINUOUS
  0
LAYER
  2
LORANGE
  70
0
  62
41
  6
CONTINUOUS
  0
LAYER
  2
BLUE1
  70
0
  62
178
  6
CONTINUOUS
  0
LAYER
  2
GREEN1
  70
0
  62
98
  6
CONTINUOUS
  0
LAYER
  2
CYAN1
  70
0
  62
138
  6
CONTINUOUS
  0
LAYER
  2
RED1
  70
0
  62
18
  6
CONTINUOUS
  0
LAYER
  2
MAGENTA1
  70
0
  62
228
  6
CONTINUOUS
  0
LAYER
  2
BROWN1
  70
0
  62
58
  6
CONTINUOUS
  0
LAYER
  2
ORANGE1
  70
0
  62
34
  6
CONTINUOUS
  0
LAYER
  2
BLUE2
  70
0
  62
5
  6
CONTINUOUS
  0
LAYER
  2
GREEN2
  70
0
  62
3
  6
CONTINUOUS
  0
LAYER
  2
CYAN2
  70
0
  62
4
  6
CONTINUOUS
  0
LAYER
  2
RED2
  70
0
  62
1
  6
CONTINUOUS
  0
LAYER
  2
MAGENTA2
  70
0
  62
6
  6
CONTINUOUS
  0
LAYER
  2
BROWN2
  70
0
  62
54
  6
CONTINUOUS
  0
LAYER
  2
ORANGE2
  70
0
  62
42
  6
CONTINUOUS
  0
LAYER
  2
BLUE3
  70
0
  62
171
  6
CONTINUOUS
  0
LAYER
  2
GREEN3
  70
0
  62
91
  6
CONTINUOUS
  0
LAYER
  2
CYAN3
  70
0
  62
131
  6
CONTINUOUS
  0
LAYER
  2
RED3
  70
0
  62
11
  6
CONTINUOUS
  0
LAYER
  2
MAGENTA3
  70
0
  62
221
  6
CONTINUOUS
  0
LAYER
  2
YELLOW3
  70
0
  62
2
  6
CONTINUOUS
  0
LAYER
  2
ORANGE3
  70
0
  62
32
  6
CONTINUOUS
  0
LAYER
  2
BLUE4
  70
0
  62
5
  6
CONTINUOUS
  0
LAYER
  2
GREEN4
  70
0
  62
3
  6
CONTINUOUS
  0
LAYER
  2
CYAN4
  70
0
  62
4
  6
CONTINUOUS
  0
LAYER
  2
RED4
  70
0
  62
1
  6
CONTINUOUS
  0
LAYER
  2
MAGENTA4
  70
0
  62
6
  6
CONTINUOUS
  0
LAYER
  2
YELLOW4
  70
0
  62
2
  6
CONTINUOUS
  0
LAYER
  2
ORANGE4
  70
0
  62
40
  6
CONTINUOUS
  0
ENDTAB
  0
ENDSEC
  0
SECTION
  2
ENTITIES
0
LINE
8
LORANGE
6
CONTINUOUS
10
127.4166659999999922
20
-92.7748189999999937
11
127.7499989999999883
21
-92.2986279999999937
0
LINE
8
LORANGE
6
CONTINUOUS
10
127.9880939999999896
20
-92.7748189999999937
11
127.9880939999999896
21
-91.7748189999999937
0
LINE
8
LORANGE
6
CONTINUOUS
10
127.9880939999999896
20
-91.7748189999999937
11
127.6071419999999961
21
-91.7748189999999937
0
LINE
8
LORANGE
6
CONTINUOUS
10
127.6071419999999961
20
-91.7748189999999937
11
127.5119040000000012
21
-91.8224379999999911
0
LINE
8
LORANGE
6
CONTINUOUS
10
127.5119040000000012
20
-91.8224379999999911
11
127.4642849999999896
21
-91.8700570000000027
0
LINE
8
LORANGE
6
CONTINUOUS
10
127.4642849999999896
20
-91.8700570000000027
11
127.4166659999999922
21
-91.9652949999999976
0
LINE
8
LORANGE
6
CONTINUOUS
10
127.4166659999999922
20
-91.9652949999999976
11
127.4166659999999922
21
-92.1081519999999898
0
LINE
8
LORANGE
6
CONTINUOUS
10
127.4166659999999922
20
-92.1081519999999898
11
127.4642849999999896
21
-92.2033899999999988
0
LINE
8
LORANGE
6
CONTINUOUS
10
127.4642849999999896
20
-92.2033899999999988
11
127.5119040000000012
21
-92.2510089999999963
0
LINE
8
LORANGE
6
CONTINUOUS
10
127.5119040000000012
20
-92.2510089999999963
11
127.6071419999999961
21
-92.2986279999999937
0
LINE
8
LORANGE
6
CONTINUOUS
10
127.6071419999999961
20
-92.2986279999999937
11
127.9880939999999896
21
-92.2986279999999937
0
LINE
8
LORANGE
6
CONTINUOUS
10
126.4642849999999896
20
-92.7748189999999937
11
127.0357130000000012
21
-92.7748189999999937
0
LINE
8
LORANGE
6
CONTINUOUS
10
126.7499989999999883
20
-92.7748189999999937
11
126.7499989999999883
21
-91.7748189999999937
0
LINE
8
LORANGE
6
CONTINUOUS
10
126.7499989999999883
20
-91.7748189999999937
11
126.8452369999999974
21
-91.9176760000000002
0
LINE
8
LORANGE
6
CONTINUOUS
10
126.8452369999999974
20
-91.9176760000000002
11
126.9404749999999922
21
-92.012913999999995
0
LINE
8
LORANGE
6
CONTINUOUS
10
126.9404749999999922
20
-92.012913999999995
11
127.0357130000000012
21
-92.0605329999999924
0
LINE
8
LORANGE
6
CONTINUOUS
10
127.504723999999996
20
-93.227499999999992
11
126.9952759999999898
21
-93.227499999999992
0
LINE
8
LORANGE
6
CONTINUOUS
10
127.504723999999996
20
-94.2724999999999937
11
126.9952759999999898
21
-94.2724999999999937
0
CIRCLE
8
LORANGE
10
112.4249999999999972
20
-74.0999989999999968
40
0.4
0
CIRCLE
8
LORANGE
10
112.4250019999999921
20
-76.0100020000000001
40
0.4
0
CIRCLE
8
LORANGE
10
112.4249999999999972
20
-77.91999899999999
40
0.4
0
CIRCLE
8
LORANGE
10
133.1950039999999831
20
-77.0600019999999972
40
0.25
0
CIRCLE
8
LORANGE
10
134.4549989999999866
20
-77.0600029999999947
40
0.25
0
CIRCLE
8
LORANGE
10
135.4849999999999852
20
-77.8099989999999906
40
0.25
0
CIRCLE
8
LORANGE
10
132.165001999999987
20
-77.8100000000000023
40
0.25
0
CIRCLE
8
LORANGE
10
135.8750009999999975
20
-79.009996000000001
40
0.25
0
CIRCLE
8
LORANGE
10
131.7750020000000006
20
-79.0100020000000001
40
0.25
0
CIRCLE
8
LORANGE
10
135.874998000000005
20
-80.3399969999999968
40
0.25
0
CIRCLE
8
LORANGE
10
131.7750020000000006
20
-80.3400010000000009
40
0.25
0
LINE
8
LORANGE
6
CONTINUOUS
10
132.8249999999999886
20
-79.0099969999999985
11
132.8249999999999886
21
-83.0099969999999985
0
ARC
8
LORANGE
10
133.8249999999999886
20
-83.0099969999999985
40
1.
50
180.00000000
51
360.00000000
0
LINE
8
LORANGE
6
CONTINUOUS
10
134.8249999999999886
20
-83.0099969999999985
11
134.8249999999999886
21
-79.0099969999999985
0
ARC
8
LORANGE
10
133.8249999999999886
20
-79.0099969999999985
40
1.
50
360.00000000
51
540.00000000
0
CIRCLE
8
LORANGE
10
135.875
20
-81.6799989999999951
40
0.25
0
CIRCLE
8
LORANGE
10
131.7750000000000057
20
-81.6799989999999951
40
0.25
0
CIRCLE
8
LORANGE
10
135.875
20
-83.0099969999999985
40
0.25
0
CIRCLE
8
LORANGE
10
131.7749979999999823
20
-83.009997999999996
40
0.25
0
CIRCLE
8
LORANGE
10
135.4850009999999827
20
-84.2099959999999896
40
0.25
0
CIRCLE
8
LORANGE
10
132.1650029999999845
20
-84.2099959999999896
40
0.25
0
CIRCLE
8
LORANGE
10
134.4549999999999841
20
-84.9599970000000013
40
0.25
0
CIRCLE
8
LORANGE
10
133.1949999999999932
20
-84.9599989999999963
40
0.25
0
CIRCLE
8
LORANGE
10
134.4549999999999841
20
-67.0600009999999997
40
0.25
0
CIRCLE
8
LORANGE
10
133.1949970000000008
20
-67.0600009999999997
40
0.25
0
CIRCLE
8
LORANGE
10
135.4849999999999852
20
-67.8099989999999906
40
0.25
0
CIRCLE
8
LORANGE
10
132.164999999999992
20
-67.8100009999999997
40
0.25
0
CIRCLE
8
LORANGE
10
135.875
20
-69.009997999999996
40
0.25
0
CIRCLE
8
LORANGE
10
131.7750020000000006
20
-69.009997999999996
40
0.25
0
CIRCLE
8
LORANGE
10
135.875
20
-70.3399929999999927
40
0.25
0
CIRCLE
8
LORANGE
10
131.7750000000000057
20
-70.3399989999999917
40
0.25
0
LINE
8
LORANGE
6
CONTINUOUS
10
132.8249999999999886
20
-69.0099989999999934
11
132.8249999999999886
21
-73.0099989999999934
0
ARC
8
LORANGE
10
133.8249999999999886
20
-73.0099989999999934
40
1.
50
180.00000000
51
360.00000000
0
LINE
8
LORANGE
6
CONTINUOUS
10
134.8249999999999886
20
-73.0099989999999934
11
134.8249999999999886
21
-69.0099989999999934
0
ARC
8
LORANGE
10
133.8249999999999886
20
-69.0099989999999934
40
1.
50
360.00000000
51
540.00000000
0
CIRCLE
8
LORANGE
10
135.875
20
-71.6799989999999951
40
0.25
0
CIRCLE
8
LORANGE
10
131.7749949999999899
20
-71.6799989999999951
40
0.25
0
CIRCLE
8
LORANGE
10
131.7750000000000057
20
-73.009996000000001
40
0.25
0
CIRCLE
8
LORANGE
10
135.874998000000005
20
-73.0099969999999985
40
0.25
0
CIRCLE
8
LORANGE
10
132.164999999999992
20
-74.2099989999999963
40
0.25
0
CIRCLE
8
LORANGE
10
135.4849989999999877
20
-74.2099999999999937
40
0.25
0
CIRCLE
8
LORANGE
10
133.1950019999999881
20
-74.9599989999999963
40
0.25
0
CIRCLE
8
LORANGE
10
134.4550009999999816
20
-74.9600030000000004
40
0.25
0
CIRCLE
8
LORANGE
10
115.25
20
-85.
40
0.75
0
CIRCLE
8
LORANGE
10
111.
20
-95.5
40
0.75
0
CIRCLE
8
LORANGE
10
131.1499990000000082
20
-90.2999969999999905
40
1.3499999999999999
0
CIRCLE
8
LORANGE
10
123.9499989999999912
20
-90.2999969999999905
40
1.3499999999999999
0
CIRCLE
8
LORANGE
10
134.2999999999999829
20
-96.2999999999999972
40
0.8999999999999999
0
CIRCLE
8
LORANGE
10
120.7999989999999997
20
-96.2999969999999905
40
0.8999999999999999
0
CIRCLE
8
LORANGE
10
115.25
20
-95.5
40
0.75
0
CIRCLE
8
LORANGE
10
110.75
20
-85.
40
0.75
0
CIRCLE
8
LORANGE
10
124.0999999999999943
20
-63.9624999999999986
40
1.3499999999999999
0
CIRCLE
8
LORANGE
10
131.2999999999999829
20
-63.9624999999999986
40
1.3499999999999999
0
CIRCLE
8
LORANGE
10
120.9499999999999886
20
-57.9624999999999986
40
0.8999999999999999
0
CIRCLE
8
LORANGE
10
134.4499999999999886
20
-57.9624999999999986
40
0.8999999999999999
0
CIRCLE
8
LORANGE
10
115.25
20
-90.
40
0.75
0
CIRCLE
8
LORANGE
10
111.
20
-90.
40
0.75
  0
ENDSEC
  0
EOF
