  0
SECTION
  2
HEADER
  9
$ANGBASE
  50
0.0
  9
$ANGDIR
  70
1
  9
$MEASUREMENT
  70
1
  0
ENDSEC
  0
SECTION
  2
TABLES
  0
TABLE
  2
LTYPE
  70
4
  0
LTYPE
  5
40F
  2
CONTINUOUS
  70
0
  3
Solid line
  72
65
  73
0
  40
0.0
  0
LTYPE
  5
410
  2
DASHDOT
 70
0
  3
Dash Dot ____ _ ____ _
 72
65
 73
4
 40
2.0
 49
1.25
 49
-0.25
 49
0.25
 49
-0.25
  0
LTYPE
  5
411
  2
DASHED
 70
0
  3
Dashed __ __ __ __ __
 72
65
 73
2
 40
0.75
 49
0.5
 49
-0.25
  0
LTYPE
  5
43B
  2
DOTTED
 70
0
  3
Dotted .  .  .  .
 72
65
 73
2
 40
0.2
 49
0.0
 49
-0.2
  0
ENDTAB
  0
TABLE
  2
STYLE
  70
4
  0
STYLE
  2
KICAD
  70
0
  40
0
  41
1
  42
1
  50
0
  71
0
  3
isocp.shx
  0
STYLE
  2
KICADB
  70
0
  40
0
  41
1
  42
1
  50
0
  71
0
  3
isocp.shx
  0
STYLE
  2
KICADI
  70
0
  40
0
  41
1
  42
1
  50
15
  71
0
  3
isocp.shx
  0
STYLE
  2
KICADBI
  70
0
  40
0
  41
1
  42
1
  50
15
  71
0
  3
isocp.shx
  0
ENDTAB
  0
TABLE
  2
LAYER
  70
35
  0
LAYER
  2
BLACK
  70
0
  62
7
  6
CONTINUOUS
  0
LAYER
  2
GRAY1
  70
0
  62
251
  6
CONTINUOUS
  0
LAYER
  2
GRAY2
  70
0
  62
8
  6
CONTINUOUS
  0
LAYER
  2
GRAY3
  70
0
  62
9
  6
CONTINUOUS
  0
LAYER
  2
WHITE
  70
0
  62
7
  6
CONTINUOUS
  0
LAYER
  2
LYELLOW
  70
0
  62
51
  6
CONTINUOUS
  0
LAYER
  2
LORANGE
  70
0
  62
41
  6
CONTINUOUS
  0
LAYER
  2
BLUE1
  70
0
  62
178
  6
CONTINUOUS
  0
LAYER
  2
GREEN1
  70
0
  62
98
  6
CONTINUOUS
  0
LAYER
  2
CYAN1
  70
0
  62
138
  6
CONTINUOUS
  0
LAYER
  2
RED1
  70
0
  62
18
  6
CONTINUOUS
  0
LAYER
  2
MAGENTA1
  70
0
  62
228
  6
CONTINUOUS
  0
LAYER
  2
BROWN1
  70
0
  62
58
  6
CONTINUOUS
  0
LAYER
  2
ORANGE1
  70
0
  62
34
  6
CONTINUOUS
  0
LAYER
  2
BLUE2
  70
0
  62
5
  6
CONTINUOUS
  0
LAYER
  2
GREEN2
  70
0
  62
3
  6
CONTINUOUS
  0
LAYER
  2
CYAN2
  70
0
  62
4
  6
CONTINUOUS
  0
LAYER
  2
RED2
  70
0
  62
1
  6
CONTINUOUS
  0
LAYER
  2
MAGENTA2
  70
0
  62
6
  6
CONTINUOUS
  0
LAYER
  2
BROWN2
  70
0
  62
54
  6
CONTINUOUS
  0
LAYER
  2
ORANGE2
  70
0
  62
42
  6
CONTINUOUS
  0
LAYER
  2
BLUE3
  70
0
  62
171
  6
CONTINUOUS
  0
LAYER
  2
GREEN3
  70
0
  62
91
  6
CONTINUOUS
  0
LAYER
  2
CYAN3
  70
0
  62
131
  6
CONTINUOUS
  0
LAYER
  2
RED3
  70
0
  62
11
  6
CONTINUOUS
  0
LAYER
  2
MAGENTA3
  70
0
  62
221
  6
CONTINUOUS
  0
LAYER
  2
YELLOW3
  70
0
  62
2
  6
CONTINUOUS
  0
LAYER
  2
ORANGE3
  70
0
  62
32
  6
CONTINUOUS
  0
LAYER
  2
BLUE4
  70
0
  62
5
  6
CONTINUOUS
  0
LAYER
  2
GREEN4
  70
0
  62
3
  6
CONTINUOUS
  0
LAYER
  2
CYAN4
  70
0
  62
4
  6
CONTINUOUS
  0
LAYER
  2
RED4
  70
0
  62
1
  6
CONTINUOUS
  0
LAYER
  2
MAGENTA4
  70
0
  62
6
  6
CONTINUOUS
  0
LAYER
  2
YELLOW4
  70
0
  62
2
  6
CONTINUOUS
  0
LAYER
  2
ORANGE4
  70
0
  62
40
  6
CONTINUOUS
  0
ENDTAB
  0
ENDSEC
  0
SECTION
  2
ENTITIES
0
LINE
8
BLACK
6
CONTINUOUS
10
134.6151509999999973
20
-94.9873010000000022
11
134.8166229999999928
21
-95.0527629999999988
0
LINE
8
BLACK
6
CONTINUOUS
10
134.8166229999999928
20
-95.0527629999999988
11
135.0053729999999916
21
-95.148935999999992
0
LINE
8
BLACK
6
CONTINUOUS
10
135.0053729999999916
20
-95.148935999999992
11
135.1767549999999858
21
-95.2734519999999918
0
LINE
8
BLACK
6
CONTINUOUS
10
135.1767549999999858
20
-95.2734519999999918
11
135.3265480000000025
21
-95.4232449999999943
0
LINE
8
BLACK
6
CONTINUOUS
10
135.3265480000000025
20
-95.4232449999999943
11
135.4510640000000024
21
-95.5946270000000027
0
LINE
8
BLACK
6
CONTINUOUS
10
135.4510640000000024
20
-95.5946270000000027
11
135.5472369999999955
21
-95.7833770000000015
0
LINE
8
BLACK
6
CONTINUOUS
10
135.5472369999999955
20
-95.7833770000000015
11
135.6126989999999921
21
-95.984848999999997
0
LINE
8
BLACK
6
CONTINUOUS
10
135.6126989999999921
20
-95.984848999999997
11
135.6458379999999977
21
-96.1940799999999996
0
LINE
8
BLACK
6
CONTINUOUS
10
135.6458379999999977
20
-96.1940799999999996
11
135.6458379999999977
21
-96.4059199999999947
0
LINE
8
BLACK
6
CONTINUOUS
10
135.6458379999999977
20
-96.4059199999999947
11
135.6126989999999921
21
-96.6151509999999973
0
LINE
8
BLACK
6
CONTINUOUS
10
135.6126989999999921
20
-96.6151509999999973
11
135.5472369999999955
21
-96.8166229999999928
0
LINE
8
BLACK
6
CONTINUOUS
10
135.5472369999999955
20
-96.8166229999999928
11
135.4510640000000024
21
-97.0053729999999916
0
LINE
8
BLACK
6
CONTINUOUS
10
135.4510640000000024
20
-97.0053729999999916
11
135.3265480000000025
21
-97.176755
0
LINE
8
BLACK
6
CONTINUOUS
10
135.3265480000000025
20
-97.176755
11
135.1767549999999858
21
-97.3265480000000025
0
LINE
8
BLACK
6
CONTINUOUS
10
135.1767549999999858
20
-97.3265480000000025
11
135.0053729999999916
21
-97.4510640000000024
0
LINE
8
BLACK
6
CONTINUOUS
10
135.0053729999999916
20
-97.4510640000000024
11
134.8166229999999928
21
-97.5472369999999955
0
LINE
8
BLACK
6
CONTINUOUS
10
134.8166229999999928
20
-97.5472369999999955
11
134.6151509999999973
21
-97.6126989999999921
0
LINE
8
BLACK
6
CONTINUOUS
10
134.6151509999999973
20
-97.6126989999999921
11
134.4059199999999805
21
-97.6458379999999977
0
LINE
8
BLACK
6
CONTINUOUS
10
134.4059199999999805
20
-97.6458379999999977
11
134.1940799999999854
21
-97.6458379999999977
0
LINE
8
BLACK
6
CONTINUOUS
10
134.1940799999999854
20
-97.6458379999999977
11
133.984848999999997
21
-97.6126989999999921
0
LINE
8
BLACK
6
CONTINUOUS
10
133.984848999999997
20
-97.6126989999999921
11
133.7833770000000015
21
-97.5472369999999955
0
LINE
8
BLACK
6
CONTINUOUS
10
133.7833770000000015
20
-97.5472369999999955
11
133.5946270000000027
21
-97.4510640000000024
0
LINE
8
BLACK
6
CONTINUOUS
10
133.5946270000000027
20
-97.4510640000000024
11
133.4232449999999801
21
-97.3265480000000025
0
LINE
8
BLACK
6
CONTINUOUS
10
133.4232449999999801
20
-97.3265480000000025
11
133.2734519999999918
21
-97.176755
0
LINE
8
BLACK
6
CONTINUOUS
10
133.2734519999999918
20
-97.176755
11
133.148935999999992
21
-97.0053729999999916
0
LINE
8
BLACK
6
CONTINUOUS
10
133.148935999999992
20
-97.0053729999999916
11
133.0527629999999988
21
-96.8166229999999928
0
LINE
8
BLACK
6
CONTINUOUS
10
133.0527629999999988
20
-96.8166229999999928
11
132.9873010000000022
21
-96.6151509999999973
0
LINE
8
BLACK
6
CONTINUOUS
10
132.9873010000000022
20
-96.6151509999999973
11
132.9541619999999966
21
-96.4059199999999947
0
LINE
8
BLACK
6
CONTINUOUS
10
132.9541619999999966
20
-96.4059199999999947
11
132.9541619999999966
21
-96.1940799999999996
0
LINE
8
BLACK
6
CONTINUOUS
10
132.9541619999999966
20
-96.1940799999999996
11
132.9873010000000022
21
-95.984848999999997
0
LINE
8
BLACK
6
CONTINUOUS
10
132.9873010000000022
20
-95.984848999999997
11
133.0527629999999988
21
-95.7833770000000015
0
LINE
8
BLACK
6
CONTINUOUS
10
133.0527629999999988
20
-95.7833770000000015
11
133.148935999999992
21
-95.5946270000000027
0
LINE
8
BLACK
6
CONTINUOUS
10
133.148935999999992
20
-95.5946270000000027
11
133.2734519999999918
21
-95.4232449999999943
0
LINE
8
BLACK
6
CONTINUOUS
10
133.2734519999999918
20
-95.4232449999999943
11
133.4232449999999801
21
-95.2734519999999918
0
LINE
8
BLACK
6
CONTINUOUS
10
133.4232449999999801
20
-95.2734519999999918
11
133.5946270000000027
21
-95.148935999999992
0
LINE
8
BLACK
6
CONTINUOUS
10
133.5946270000000027
20
-95.148935999999992
11
133.7833770000000015
21
-95.0527629999999988
0
LINE
8
BLACK
6
CONTINUOUS
10
133.7833770000000015
20
-95.0527629999999988
11
133.984848999999997
21
-94.9873010000000022
0
LINE
8
BLACK
6
CONTINUOUS
10
133.984848999999997
20
-94.9873010000000022
11
134.1940799999999854
21
-94.9541619999999966
0
LINE
8
BLACK
6
CONTINUOUS
10
134.1940799999999854
20
-94.9541619999999966
11
134.4059199999999805
21
-94.9541619999999966
0
LINE
8
BLACK
6
CONTINUOUS
10
134.4059199999999805
20
-94.9541619999999966
11
134.6151509999999973
21
-94.9873010000000022
0
LINE
8
BLACK
6
CONTINUOUS
10
121.1151499999999999
20
-94.9872979999999956
11
121.3166219999999953
21
-95.0527599999999921
0
LINE
8
BLACK
6
CONTINUOUS
10
121.3166219999999953
20
-95.0527599999999921
11
121.5053719999999942
21
-95.1489329999999995
0
LINE
8
BLACK
6
CONTINUOUS
10
121.5053719999999942
20
-95.1489329999999995
11
121.6767539999999883
21
-95.2734489999999994
0
LINE
8
BLACK
6
CONTINUOUS
10
121.6767539999999883
20
-95.2734489999999994
11
121.8265469999999908
21
-95.4232420000000019
0
LINE
8
BLACK
6
CONTINUOUS
10
121.8265469999999908
20
-95.4232420000000019
11
121.9510629999999907
21
-95.594623999999996
0
LINE
8
BLACK
6
CONTINUOUS
10
121.9510629999999907
20
-95.594623999999996
11
122.0472359999999981
21
-95.7833739999999949
0
LINE
8
BLACK
6
CONTINUOUS
10
122.0472359999999981
20
-95.7833739999999949
11
122.1126979999999946
21
-95.9848459999999903
0
LINE
8
BLACK
6
CONTINUOUS
10
122.1126979999999946
20
-95.9848459999999903
11
122.1458370000000002
21
-96.1940769999999929
0
LINE
8
BLACK
6
CONTINUOUS
10
122.1458370000000002
20
-96.1940769999999929
11
122.1458370000000002
21
-96.4059170000000023
0
LINE
8
BLACK
6
CONTINUOUS
10
122.1458370000000002
20
-96.4059170000000023
11
122.1126979999999946
21
-96.6151479999999907
0
LINE
8
BLACK
6
CONTINUOUS
10
122.1126979999999946
20
-96.6151479999999907
11
122.0472359999999981
21
-96.8166200000000003
0
LINE
8
BLACK
6
CONTINUOUS
10
122.0472359999999981
20
-96.8166200000000003
11
121.9510629999999907
21
-97.0053699999999992
0
LINE
8
BLACK
6
CONTINUOUS
10
121.9510629999999907
20
-97.0053699999999992
11
121.8265469999999908
21
-97.1767519999999934
0
LINE
8
BLACK
6
CONTINUOUS
10
121.8265469999999908
20
-97.1767519999999934
11
121.6767539999999883
21
-97.3265449999999959
0
LINE
8
BLACK
6
CONTINUOUS
10
121.6767539999999883
20
-97.3265449999999959
11
121.5053719999999942
21
-97.4510609999999957
0
LINE
8
BLACK
6
CONTINUOUS
10
121.5053719999999942
20
-97.4510609999999957
11
121.3166219999999953
21
-97.5472339999999889
0
LINE
8
BLACK
6
CONTINUOUS
10
121.3166219999999953
20
-97.5472339999999889
11
121.1151499999999999
21
-97.6126959999999997
0
LINE
8
BLACK
6
CONTINUOUS
10
121.1151499999999999
20
-97.6126959999999997
11
120.9059189999999973
21
-97.6458349999999911
0
LINE
8
BLACK
6
CONTINUOUS
10
120.9059189999999973
20
-97.6458349999999911
11
120.6940789999999879
21
-97.6458349999999911
0
LINE
8
BLACK
6
CONTINUOUS
10
120.6940789999999879
20
-97.6458349999999911
11
120.4848479999999995
21
-97.6126959999999997
0
LINE
8
BLACK
6
CONTINUOUS
10
120.4848479999999995
20
-97.6126959999999997
11
120.2833759999999899
21
-97.5472339999999889
0
LINE
8
BLACK
6
CONTINUOUS
10
120.2833759999999899
20
-97.5472339999999889
11
120.094625999999991
21
-97.4510609999999957
0
LINE
8
BLACK
6
CONTINUOUS
10
120.094625999999991
20
-97.4510609999999957
11
119.9232439999999968
21
-97.3265449999999959
0
LINE
8
BLACK
6
CONTINUOUS
10
119.9232439999999968
20
-97.3265449999999959
11
119.7734509999999943
21
-97.1767519999999934
0
LINE
8
BLACK
6
CONTINUOUS
10
119.7734509999999943
20
-97.1767519999999934
11
119.6489349999999945
21
-97.0053699999999992
0
LINE
8
BLACK
6
CONTINUOUS
10
119.6489349999999945
20
-97.0053699999999992
11
119.5527620000000013
21
-96.8166200000000003
0
LINE
8
BLACK
6
CONTINUOUS
10
119.5527620000000013
20
-96.8166200000000003
11
119.4872999999999905
21
-96.6151479999999907
0
LINE
8
BLACK
6
CONTINUOUS
10
119.4872999999999905
20
-96.6151479999999907
11
119.4541609999999991
21
-96.4059170000000023
0
LINE
8
BLACK
6
CONTINUOUS
10
119.4541609999999991
20
-96.4059170000000023
11
119.4541609999999991
21
-96.1940769999999929
0
LINE
8
BLACK
6
CONTINUOUS
10
119.4541609999999991
20
-96.1940769999999929
11
119.4872999999999905
21
-95.9848459999999903
0
LINE
8
BLACK
6
CONTINUOUS
10
119.4872999999999905
20
-95.9848459999999903
11
119.5527620000000013
21
-95.7833739999999949
0
LINE
8
BLACK
6
CONTINUOUS
10
119.5527620000000013
20
-95.7833739999999949
11
119.6489349999999945
21
-95.594623999999996
0
LINE
8
BLACK
6
CONTINUOUS
10
119.6489349999999945
20
-95.594623999999996
11
119.7734509999999943
21
-95.4232420000000019
0
LINE
8
BLACK
6
CONTINUOUS
10
119.7734509999999943
20
-95.4232420000000019
11
119.9232439999999968
21
-95.2734489999999994
0
LINE
8
BLACK
6
CONTINUOUS
10
119.9232439999999968
20
-95.2734489999999994
11
120.094625999999991
21
-95.1489329999999995
0
LINE
8
BLACK
6
CONTINUOUS
10
120.094625999999991
20
-95.1489329999999995
11
120.2833759999999899
21
-95.0527599999999921
0
LINE
8
BLACK
6
CONTINUOUS
10
120.2833759999999899
20
-95.0527599999999921
11
120.4848479999999995
21
-94.9872979999999956
0
LINE
8
BLACK
6
CONTINUOUS
10
120.4848479999999995
20
-94.9872979999999956
11
120.6940789999999879
21
-94.95415899999999
0
LINE
8
BLACK
6
CONTINUOUS
10
120.6940789999999879
20
-94.95415899999999
11
120.9059189999999973
21
-94.95415899999999
0
LINE
8
BLACK
6
CONTINUOUS
10
120.9059189999999973
20
-94.95415899999999
11
121.1151499999999999
21
-94.9872979999999956
0
LINE
8
BLACK
6
CONTINUOUS
10
111.3501679999999965
20
-94.041444999999996
11
111.5740249999999918
21
-94.1141810000000021
0
LINE
8
BLACK
6
CONTINUOUS
10
111.5740249999999918
20
-94.1141810000000021
11
111.7837479999999886
21
-94.2210400000000021
0
LINE
8
BLACK
6
CONTINUOUS
10
111.7837479999999886
20
-94.2210400000000021
11
111.9741719999999958
21
-94.3593910000000022
0
LINE
8
BLACK
6
CONTINUOUS
10
111.9741719999999958
20
-94.3593910000000022
11
112.1406089999999978
21
-94.52582799999999
0
LINE
8
BLACK
6
CONTINUOUS
10
112.1406089999999978
20
-94.52582799999999
11
112.2789599999999979
21
-94.7162519999999972
0
LINE
8
BLACK
6
CONTINUOUS
10
112.2789599999999979
20
-94.7162519999999972
11
112.3858189999999979
21
-94.925974999999994
0
LINE
8
BLACK
6
CONTINUOUS
10
112.3858189999999979
20
-94.925974999999994
11
112.4585549999999898
21
-95.1498319999999893
0
LINE
8
BLACK
6
CONTINUOUS
10
112.4585549999999898
20
-95.1498319999999893
11
112.4953759999999932
21
-95.3823110000000014
0
LINE
8
BLACK
6
CONTINUOUS
10
112.4953759999999932
20
-95.3823110000000014
11
112.4953759999999932
21
-95.6176889999999986
0
LINE
8
BLACK
6
CONTINUOUS
10
112.4953759999999932
20
-95.6176889999999986
11
112.4585549999999898
21
-95.8501679999999965
0
LINE
8
BLACK
6
CONTINUOUS
10
112.4585549999999898
20
-95.8501679999999965
11
112.3858189999999979
21
-96.0740249999999918
0
LINE
8
BLACK
6
CONTINUOUS
10
112.3858189999999979
20
-96.0740249999999918
11
112.2789599999999979
21
-96.2837479999999886
0
LINE
8
BLACK
6
CONTINUOUS
10
112.2789599999999979
20
-96.2837479999999886
11
112.1406089999999978
21
-96.4741719999999958
0
LINE
8
BLACK
6
CONTINUOUS
10
112.1406089999999978
20
-96.4741719999999958
11
111.9741719999999958
21
-96.6406089999999978
0
LINE
8
BLACK
6
CONTINUOUS
10
111.9741719999999958
20
-96.6406089999999978
11
111.7837479999999886
21
-96.7789599999999979
0
LINE
8
BLACK
6
CONTINUOUS
10
111.7837479999999886
20
-96.7789599999999979
11
111.5740249999999918
21
-96.8858189999999979
0
LINE
8
BLACK
6
CONTINUOUS
10
111.5740249999999918
20
-96.8858189999999979
11
111.3501679999999965
21
-96.9585549999999898
0
LINE
8
BLACK
6
CONTINUOUS
10
111.3501679999999965
20
-96.9585549999999898
11
111.1176889999999986
21
-96.9953759999999932
0
LINE
8
BLACK
6
CONTINUOUS
10
111.1176889999999986
20
-96.9953759999999932
11
110.8823110000000014
21
-96.9953759999999932
0
LINE
8
BLACK
6
CONTINUOUS
10
110.8823110000000014
20
-96.9953759999999932
11
110.6498319999999893
21
-96.9585549999999898
0
LINE
8
BLACK
6
CONTINUOUS
10
110.6498319999999893
20
-96.9585549999999898
11
110.425974999999994
21
-96.8858189999999979
0
LINE
8
BLACK
6
CONTINUOUS
10
110.425974999999994
20
-96.8858189999999979
11
110.2162519999999972
21
-96.7789599999999979
0
LINE
8
BLACK
6
CONTINUOUS
10
110.2162519999999972
20
-96.7789599999999979
11
110.02582799999999
21
-96.6406089999999978
0
LINE
8
BLACK
6
CONTINUOUS
10
110.02582799999999
20
-96.6406089999999978
11
109.859390999999988
21
-96.4741719999999958
0
LINE
8
BLACK
6
CONTINUOUS
10
109.859390999999988
20
-96.4741719999999958
11
109.7210400000000021
21
-96.2837479999999886
0
LINE
8
BLACK
6
CONTINUOUS
10
109.7210400000000021
20
-96.2837479999999886
11
109.6141810000000021
21
-96.0740249999999918
0
LINE
8
BLACK
6
CONTINUOUS
10
109.6141810000000021
20
-96.0740249999999918
11
109.541444999999996
21
-95.8501679999999965
0
LINE
8
BLACK
6
CONTINUOUS
10
109.541444999999996
20
-95.8501679999999965
11
109.5046239999999926
21
-95.6176889999999986
0
LINE
8
BLACK
6
CONTINUOUS
10
109.5046239999999926
20
-95.6176889999999986
11
109.5046239999999926
21
-95.3823110000000014
0
LINE
8
BLACK
6
CONTINUOUS
10
109.5046239999999926
20
-95.3823110000000014
11
109.541444999999996
21
-95.1498319999999893
0
LINE
8
BLACK
6
CONTINUOUS
10
109.541444999999996
20
-95.1498319999999893
11
109.6141810000000021
21
-94.925974999999994
0
LINE
8
BLACK
6
CONTINUOUS
10
109.6141810000000021
20
-94.925974999999994
11
109.7210400000000021
21
-94.7162519999999972
0
LINE
8
BLACK
6
CONTINUOUS
10
109.7210400000000021
20
-94.7162519999999972
11
109.859390999999988
21
-94.52582799999999
0
LINE
8
BLACK
6
CONTINUOUS
10
109.859390999999988
20
-94.52582799999999
11
110.02582799999999
21
-94.3593910000000022
0
LINE
8
BLACK
6
CONTINUOUS
10
110.02582799999999
20
-94.3593910000000022
11
110.2162519999999972
21
-94.2210400000000021
0
LINE
8
BLACK
6
CONTINUOUS
10
110.2162519999999972
20
-94.2210400000000021
11
110.425974999999994
21
-94.1141810000000021
0
LINE
8
BLACK
6
CONTINUOUS
10
110.425974999999994
20
-94.1141810000000021
11
110.6498319999999893
21
-94.041444999999996
0
LINE
8
BLACK
6
CONTINUOUS
10
110.6498319999999893
20
-94.041444999999996
11
110.8823110000000014
21
-94.0046239999999926
0
LINE
8
BLACK
6
CONTINUOUS
10
110.8823110000000014
20
-94.0046239999999926
11
111.1176889999999986
21
-94.0046239999999926
0
LINE
8
BLACK
6
CONTINUOUS
10
111.1176889999999986
20
-94.0046239999999926
11
111.3501679999999965
21
-94.041444999999996
0
LINE
8
BLACK
6
CONTINUOUS
10
115.6001679999999965
20
-94.041444999999996
11
115.8240249999999918
21
-94.1141810000000021
0
LINE
8
BLACK
6
CONTINUOUS
10
115.8240249999999918
20
-94.1141810000000021
11
116.0337479999999886
21
-94.2210400000000021
0
LINE
8
BLACK
6
CONTINUOUS
10
116.0337479999999886
20
-94.2210400000000021
11
116.2241719999999958
21
-94.3593910000000022
0
LINE
8
BLACK
6
CONTINUOUS
10
116.2241719999999958
20
-94.3593910000000022
11
116.3906089999999978
21
-94.52582799999999
0
LINE
8
BLACK
6
CONTINUOUS
10
116.3906089999999978
20
-94.52582799999999
11
116.5289599999999979
21
-94.7162519999999972
0
LINE
8
BLACK
6
CONTINUOUS
10
116.5289599999999979
20
-94.7162519999999972
11
116.6358189999999979
21
-94.925974999999994
0
LINE
8
BLACK
6
CONTINUOUS
10
116.6358189999999979
20
-94.925974999999994
11
116.7085549999999898
21
-95.1498319999999893
0
LINE
8
BLACK
6
CONTINUOUS
10
116.7085549999999898
20
-95.1498319999999893
11
116.7453759999999932
21
-95.3823110000000014
0
LINE
8
BLACK
6
CONTINUOUS
10
116.7453759999999932
20
-95.3823110000000014
11
116.7453759999999932
21
-95.6176889999999986
0
LINE
8
BLACK
6
CONTINUOUS
10
116.7453759999999932
20
-95.6176889999999986
11
116.7085549999999898
21
-95.8501679999999965
0
LINE
8
BLACK
6
CONTINUOUS
10
116.7085549999999898
20
-95.8501679999999965
11
116.6358189999999979
21
-96.0740249999999918
0
LINE
8
BLACK
6
CONTINUOUS
10
116.6358189999999979
20
-96.0740249999999918
11
116.5289599999999979
21
-96.2837479999999886
0
LINE
8
BLACK
6
CONTINUOUS
10
116.5289599999999979
20
-96.2837479999999886
11
116.3906089999999978
21
-96.4741719999999958
0
LINE
8
BLACK
6
CONTINUOUS
10
116.3906089999999978
20
-96.4741719999999958
11
116.2241719999999958
21
-96.6406089999999978
0
LINE
8
BLACK
6
CONTINUOUS
10
116.2241719999999958
20
-96.6406089999999978
11
116.0337479999999886
21
-96.7789599999999979
0
LINE
8
BLACK
6
CONTINUOUS
10
116.0337479999999886
20
-96.7789599999999979
11
115.8240249999999918
21
-96.8858189999999979
0
LINE
8
BLACK
6
CONTINUOUS
10
115.8240249999999918
20
-96.8858189999999979
11
115.6001679999999965
21
-96.9585549999999898
0
LINE
8
BLACK
6
CONTINUOUS
10
115.6001679999999965
20
-96.9585549999999898
11
115.3676889999999986
21
-96.9953759999999932
0
LINE
8
BLACK
6
CONTINUOUS
10
115.3676889999999986
20
-96.9953759999999932
11
115.1323110000000014
21
-96.9953759999999932
0
LINE
8
BLACK
6
CONTINUOUS
10
115.1323110000000014
20
-96.9953759999999932
11
114.8998319999999893
21
-96.9585549999999898
0
LINE
8
BLACK
6
CONTINUOUS
10
114.8998319999999893
20
-96.9585549999999898
11
114.675974999999994
21
-96.8858189999999979
0
LINE
8
BLACK
6
CONTINUOUS
10
114.675974999999994
20
-96.8858189999999979
11
114.4662519999999972
21
-96.7789599999999979
0
LINE
8
BLACK
6
CONTINUOUS
10
114.4662519999999972
20
-96.7789599999999979
11
114.27582799999999
21
-96.6406089999999978
0
LINE
8
BLACK
6
CONTINUOUS
10
114.27582799999999
20
-96.6406089999999978
11
114.109390999999988
21
-96.4741719999999958
0
LINE
8
BLACK
6
CONTINUOUS
10
114.109390999999988
20
-96.4741719999999958
11
113.9710399999999879
21
-96.2837479999999886
0
LINE
8
BLACK
6
CONTINUOUS
10
113.9710399999999879
20
-96.2837479999999886
11
113.8641809999999879
21
-96.0740249999999918
0
LINE
8
BLACK
6
CONTINUOUS
10
113.8641809999999879
20
-96.0740249999999918
11
113.791444999999996
21
-95.8501679999999965
0
LINE
8
BLACK
6
CONTINUOUS
10
113.791444999999996
20
-95.8501679999999965
11
113.7546239999999926
21
-95.6176889999999986
0
LINE
8
BLACK
6
CONTINUOUS
10
113.7546239999999926
20
-95.6176889999999986
11
113.7546239999999926
21
-95.3823110000000014
0
LINE
8
BLACK
6
CONTINUOUS
10
113.7546239999999926
20
-95.3823110000000014
11
113.791444999999996
21
-95.1498319999999893
0
LINE
8
BLACK
6
CONTINUOUS
10
113.791444999999996
20
-95.1498319999999893
11
113.8641809999999879
21
-94.925974999999994
0
LINE
8
BLACK
6
CONTINUOUS
10
113.8641809999999879
20
-94.925974999999994
11
113.9710399999999879
21
-94.7162519999999972
0
LINE
8
BLACK
6
CONTINUOUS
10
113.9710399999999879
20
-94.7162519999999972
11
114.109390999999988
21
-94.52582799999999
0
LINE
8
BLACK
6
CONTINUOUS
10
114.109390999999988
20
-94.52582799999999
11
114.27582799999999
21
-94.3593910000000022
0
LINE
8
BLACK
6
CONTINUOUS
10
114.27582799999999
20
-94.3593910000000022
11
114.4662519999999972
21
-94.2210400000000021
0
LINE
8
BLACK
6
CONTINUOUS
10
114.4662519999999972
20
-94.2210400000000021
11
114.675974999999994
21
-94.1141810000000021
0
LINE
8
BLACK
6
CONTINUOUS
10
114.675974999999994
20
-94.1141810000000021
11
114.8998319999999893
21
-94.041444999999996
0
LINE
8
BLACK
6
CONTINUOUS
10
114.8998319999999893
20
-94.041444999999996
11
115.1323110000000014
21
-94.0046239999999926
0
LINE
8
BLACK
6
CONTINUOUS
10
115.1323110000000014
20
-94.0046239999999926
11
115.3676889999999986
21
-94.0046239999999926
0
LINE
8
BLACK
6
CONTINUOUS
10
115.3676889999999986
20
-94.0046239999999926
11
115.6001679999999965
21
-94.041444999999996
0
LINE
8
BLACK
6
CONTINUOUS
10
126.6783870000000007
20
-93.2930789999999917
11
126.7554379999999981
21
-93.3445619999999963
0
LINE
8
BLACK
6
CONTINUOUS
10
126.7554379999999981
20
-93.3445619999999963
11
126.8069209999999885
21
-93.4216129999999936
0
LINE
8
BLACK
6
CONTINUOUS
10
126.8069209999999885
20
-93.4216129999999936
11
126.8249999999999886
21
-93.5125000000000028
0
LINE
8
BLACK
6
CONTINUOUS
10
126.8249999999999886
20
-93.5125000000000028
11
126.8249999999999886
21
-93.9874999999999972
0
LINE
8
BLACK
6
CONTINUOUS
10
126.8249999999999886
20
-93.9874999999999972
11
126.8069209999999885
21
-94.0783869999999922
0
LINE
8
BLACK
6
CONTINUOUS
10
126.8069209999999885
20
-94.0783869999999922
11
126.7554379999999981
21
-94.1554379999999895
0
LINE
8
BLACK
6
CONTINUOUS
10
126.7554379999999981
20
-94.1554379999999895
11
126.6783870000000007
21
-94.2069209999999941
0
LINE
8
BLACK
6
CONTINUOUS
10
126.6783870000000007
20
-94.2069209999999941
11
126.5874999999999915
21
-94.2249999999999943
0
LINE
8
BLACK
6
CONTINUOUS
10
126.5874999999999915
20
-94.2249999999999943
11
126.0874999999999915
21
-94.2249999999999943
0
LINE
8
BLACK
6
CONTINUOUS
10
126.0874999999999915
20
-94.2249999999999943
11
125.9966129999999964
21
-94.2069209999999941
0
LINE
8
BLACK
6
CONTINUOUS
10
125.9966129999999964
20
-94.2069209999999941
11
125.9195619999999991
21
-94.1554379999999895
0
LINE
8
BLACK
6
CONTINUOUS
10
125.9195619999999991
20
-94.1554379999999895
11
125.8680789999999945
21
-94.0783869999999922
0
LINE
8
BLACK
6
CONTINUOUS
10
125.8680789999999945
20
-94.0783869999999922
11
125.8499999999999943
21
-93.9874999999999972
0
LINE
8
BLACK
6
CONTINUOUS
10
125.8499999999999943
20
-93.9874999999999972
11
125.8499999999999943
21
-93.5125000000000028
0
LINE
8
BLACK
6
CONTINUOUS
10
125.8499999999999943
20
-93.5125000000000028
11
125.8680789999999945
21
-93.4216129999999936
0
LINE
8
BLACK
6
CONTINUOUS
10
125.8680789999999945
20
-93.4216129999999936
11
125.9195619999999991
21
-93.3445619999999963
0
LINE
8
BLACK
6
CONTINUOUS
10
125.9195619999999991
20
-93.3445619999999963
11
125.9966129999999964
21
-93.2930789999999917
0
LINE
8
BLACK
6
CONTINUOUS
10
125.9966129999999964
20
-93.2930789999999917
11
126.0874999999999915
21
-93.2749999999999915
0
LINE
8
BLACK
6
CONTINUOUS
10
126.0874999999999915
20
-93.2749999999999915
11
126.5874999999999915
21
-93.2749999999999915
0
LINE
8
BLACK
6
CONTINUOUS
10
126.5874999999999915
20
-93.2749999999999915
11
126.6783870000000007
21
-93.2930789999999917
0
LINE
8
BLACK
6
CONTINUOUS
10
128.5033870000000036
20
-93.2930789999999917
11
128.5804379999999867
21
-93.3445619999999963
0
LINE
8
BLACK
6
CONTINUOUS
10
128.5804379999999867
20
-93.3445619999999963
11
128.6319210000000055
21
-93.4216129999999936
0
LINE
8
BLACK
6
CONTINUOUS
10
128.6319210000000055
20
-93.4216129999999936
11
128.6500000000000057
21
-93.5125000000000028
0
LINE
8
BLACK
6
CONTINUOUS
10
128.6500000000000057
20
-93.5125000000000028
11
128.6500000000000057
21
-93.9874999999999972
0
LINE
8
BLACK
6
CONTINUOUS
10
128.6500000000000057
20
-93.9874999999999972
11
128.6319210000000055
21
-94.0783869999999922
0
LINE
8
BLACK
6
CONTINUOUS
10
128.6319210000000055
20
-94.0783869999999922
11
128.5804379999999867
21
-94.1554379999999895
0
LINE
8
BLACK
6
CONTINUOUS
10
128.5804379999999867
20
-94.1554379999999895
11
128.5033870000000036
21
-94.2069209999999941
0
LINE
8
BLACK
6
CONTINUOUS
10
128.5033870000000036
20
-94.2069209999999941
11
128.4124999999999943
21
-94.2249999999999943
0
LINE
8
BLACK
6
CONTINUOUS
10
128.4124999999999943
20
-94.2249999999999943
11
127.9124999999999943
21
-94.2249999999999943
0
LINE
8
BLACK
6
CONTINUOUS
10
127.9124999999999943
20
-94.2249999999999943
11
127.8216129999999993
21
-94.2069209999999941
0
LINE
8
BLACK
6
CONTINUOUS
10
127.8216129999999993
20
-94.2069209999999941
11
127.7445619999999877
21
-94.1554379999999895
0
LINE
8
BLACK
6
CONTINUOUS
10
127.7445619999999877
20
-94.1554379999999895
11
127.6930789999999973
21
-94.0783869999999922
0
LINE
8
BLACK
6
CONTINUOUS
10
127.6930789999999973
20
-94.0783869999999922
11
127.6749999999999972
21
-93.9874999999999972
0
LINE
8
BLACK
6
CONTINUOUS
10
127.6749999999999972
20
-93.9874999999999972
11
127.6749999999999972
21
-93.5125000000000028
0
LINE
8
BLACK
6
CONTINUOUS
10
127.6749999999999972
20
-93.5125000000000028
11
127.6930789999999973
21
-93.4216129999999936
0
LINE
8
BLACK
6
CONTINUOUS
10
127.6930789999999973
20
-93.4216129999999936
11
127.7445619999999877
21
-93.3445619999999963
0
LINE
8
BLACK
6
CONTINUOUS
10
127.7445619999999877
20
-93.3445619999999963
11
127.8216129999999993
21
-93.2930789999999917
0
LINE
8
BLACK
6
CONTINUOUS
10
127.8216129999999993
20
-93.2930789999999917
11
127.9124999999999943
21
-93.2749999999999915
0
LINE
8
BLACK
6
CONTINUOUS
10
127.9124999999999943
20
-93.2749999999999915
11
128.4124999999999943
21
-93.2749999999999915
0
LINE
8
BLACK
6
CONTINUOUS
10
128.4124999999999943
20
-93.2749999999999915
11
128.5033870000000036
21
-93.2930789999999917
0
LINE
8
BLACK
6
CONTINUOUS
10
133.1749989999999855
20
-92.3249969999999962
11
129.1249990000000025
21
-92.3249969999999962
0
LINE
8
BLACK
6
CONTINUOUS
10
129.1249990000000025
20
-92.3249969999999962
11
129.1249990000000025
21
-88.274996999999999
0
LINE
8
BLACK
6
CONTINUOUS
10
129.1249990000000025
20
-88.274996999999999
11
133.1749989999999855
21
-88.274996999999999
0
LINE
8
BLACK
6
CONTINUOUS
10
133.1749989999999855
20
-88.274996999999999
11
133.1749989999999855
21
-92.3249969999999962
0
LINE
8
BLACK
6
CONTINUOUS
10
124.3450569999999971
20
-88.3139070000000004
11
124.6009139999999888
21
-88.3824630000000013
0
LINE
8
BLACK
6
CONTINUOUS
10
124.6009139999999888
20
-88.3824630000000013
11
124.8456339999999898
21
-88.4838299999999975
0
LINE
8
BLACK
6
CONTINUOUS
10
124.8456339999999898
20
-88.4838299999999975
11
125.0750290000000007
21
-88.6162709999999976
0
LINE
8
BLACK
6
CONTINUOUS
10
125.0750290000000007
20
-88.6162709999999976
11
125.2851739999999978
21
-88.777520999999993
0
LINE
8
BLACK
6
CONTINUOUS
10
125.2851739999999978
20
-88.777520999999993
11
125.4724749999999887
21
-88.9648219999999981
0
LINE
8
BLACK
6
CONTINUOUS
10
125.4724749999999887
20
-88.9648219999999981
11
125.6337249999999983
21
-89.1749669999999952
0
LINE
8
BLACK
6
CONTINUOUS
10
125.6337249999999983
20
-89.1749669999999952
11
125.7661659999999983
21
-89.4043619999999919
0
LINE
8
BLACK
6
CONTINUOUS
10
125.7661659999999983
20
-89.4043619999999919
11
125.8675329999999946
21
-89.6490819999999928
0
LINE
8
BLACK
6
CONTINUOUS
10
125.8675329999999946
20
-89.6490819999999928
11
125.9360889999999955
21
-89.9049389999999988
0
LINE
8
BLACK
6
CONTINUOUS
10
125.9360889999999955
20
-89.9049389999999988
11
125.9706629999999876
21
-90.1675559999999905
0
LINE
8
BLACK
6
CONTINUOUS
10
125.9706629999999876
20
-90.1675559999999905
11
125.9706629999999876
21
-90.4324379999999906
0
LINE
8
BLACK
6
CONTINUOUS
10
125.9706629999999876
20
-90.4324379999999906
11
125.9360889999999955
21
-90.6950549999999964
0
LINE
8
BLACK
6
CONTINUOUS
10
125.9360889999999955
20
-90.6950549999999964
11
125.8675329999999946
21
-90.9509120000000024
0
LINE
8
BLACK
6
CONTINUOUS
10
125.8675329999999946
20
-90.9509120000000024
11
125.7661659999999983
21
-91.1956319999999891
0
LINE
8
BLACK
6
CONTINUOUS
10
125.7661659999999983
20
-91.1956319999999891
11
125.6337249999999983
21
-91.425027
0
LINE
8
BLACK
6
CONTINUOUS
10
125.6337249999999983
20
-91.425027
11
125.4724749999999887
21
-91.6351719999999972
0
LINE
8
BLACK
6
CONTINUOUS
10
125.4724749999999887
20
-91.6351719999999972
11
125.2851739999999978
21
-91.8224730000000022
0
LINE
8
BLACK
6
CONTINUOUS
10
125.2851739999999978
20
-91.8224730000000022
11
125.0750290000000007
21
-91.9837229999999977
0
LINE
8
BLACK
6
CONTINUOUS
10
125.0750290000000007
20
-91.9837229999999977
11
124.8456339999999898
21
-92.1161639999999977
0
LINE
8
BLACK
6
CONTINUOUS
10
124.8456339999999898
20
-92.1161639999999977
11
124.6009139999999888
21
-92.2175309999999939
0
LINE
8
BLACK
6
CONTINUOUS
10
124.6009139999999888
20
-92.2175309999999939
11
124.3450569999999971
21
-92.2860869999999949
0
LINE
8
BLACK
6
CONTINUOUS
10
124.3450569999999971
20
-92.2860869999999949
11
124.0824399999999912
21
-92.3206610000000012
0
LINE
8
BLACK
6
CONTINUOUS
10
124.0824399999999912
20
-92.3206610000000012
11
123.8175579999999911
21
-92.3206610000000012
0
LINE
8
BLACK
6
CONTINUOUS
10
123.8175579999999911
20
-92.3206610000000012
11
123.5549409999999995
21
-92.2860869999999949
0
LINE
8
BLACK
6
CONTINUOUS
10
123.5549409999999995
20
-92.2860869999999949
11
123.2990839999999935
21
-92.2175309999999939
0
LINE
8
BLACK
6
CONTINUOUS
10
123.2990839999999935
20
-92.2175309999999939
11
123.0543639999999925
21
-92.1161639999999977
0
LINE
8
BLACK
6
CONTINUOUS
10
123.0543639999999925
20
-92.1161639999999977
11
122.8249689999999958
21
-91.9837229999999977
0
LINE
8
BLACK
6
CONTINUOUS
10
122.8249689999999958
20
-91.9837229999999977
11
122.6148239999999987
21
-91.8224730000000022
0
LINE
8
BLACK
6
CONTINUOUS
10
122.6148239999999987
20
-91.8224730000000022
11
122.4275229999999937
21
-91.6351719999999972
0
LINE
8
BLACK
6
CONTINUOUS
10
122.4275229999999937
20
-91.6351719999999972
11
122.2662729999999982
21
-91.425027
0
LINE
8
BLACK
6
CONTINUOUS
10
122.2662729999999982
20
-91.425027
11
122.1338319999999982
21
-91.1956319999999891
0
LINE
8
BLACK
6
CONTINUOUS
10
122.1338319999999982
20
-91.1956319999999891
11
122.0324649999999878
21
-90.9509120000000024
0
LINE
8
BLACK
6
CONTINUOUS
10
122.0324649999999878
20
-90.9509120000000024
11
121.963909000000001
21
-90.6950549999999964
0
LINE
8
BLACK
6
CONTINUOUS
10
121.963909000000001
20
-90.6950549999999964
11
121.9293349999999947
21
-90.4324379999999906
0
LINE
8
BLACK
6
CONTINUOUS
10
121.9293349999999947
20
-90.4324379999999906
11
121.9293349999999947
21
-90.1675559999999905
0
LINE
8
BLACK
6
CONTINUOUS
10
121.9293349999999947
20
-90.1675559999999905
11
121.963909000000001
21
-89.9049389999999988
0
LINE
8
BLACK
6
CONTINUOUS
10
121.963909000000001
20
-89.9049389999999988
11
122.0324649999999878
21
-89.6490819999999928
0
LINE
8
BLACK
6
CONTINUOUS
10
122.0324649999999878
20
-89.6490819999999928
11
122.1338319999999982
21
-89.4043619999999919
0
LINE
8
BLACK
6
CONTINUOUS
10
122.1338319999999982
20
-89.4043619999999919
11
122.2662729999999982
21
-89.1749669999999952
0
LINE
8
BLACK
6
CONTINUOUS
10
122.2662729999999982
20
-89.1749669999999952
11
122.4275229999999937
21
-88.9648219999999981
0
LINE
8
BLACK
6
CONTINUOUS
10
122.4275229999999937
20
-88.9648219999999981
11
122.6148239999999987
21
-88.777520999999993
0
LINE
8
BLACK
6
CONTINUOUS
10
122.6148239999999987
20
-88.777520999999993
11
122.8249689999999958
21
-88.6162709999999976
0
LINE
8
BLACK
6
CONTINUOUS
10
122.8249689999999958
20
-88.6162709999999976
11
123.0543639999999925
21
-88.4838299999999975
0
LINE
8
BLACK
6
CONTINUOUS
10
123.0543639999999925
20
-88.4838299999999975
11
123.2990839999999935
21
-88.3824630000000013
0
LINE
8
BLACK
6
CONTINUOUS
10
123.2990839999999935
20
-88.3824630000000013
11
123.5549409999999995
21
-88.3139070000000004
0
LINE
8
BLACK
6
CONTINUOUS
10
123.5549409999999995
20
-88.3139070000000004
11
123.8175579999999911
21
-88.2793329999999941
0
LINE
8
BLACK
6
CONTINUOUS
10
123.8175579999999911
20
-88.2793329999999941
11
124.0824399999999912
21
-88.2793329999999941
0
LINE
8
BLACK
6
CONTINUOUS
10
124.0824399999999912
20
-88.2793329999999941
11
124.3450569999999971
21
-88.3139070000000004
0
LINE
8
BLACK
6
CONTINUOUS
10
111.3501679999999965
20
-88.541444999999996
11
111.5740249999999918
21
-88.6141810000000021
0
LINE
8
BLACK
6
CONTINUOUS
10
111.5740249999999918
20
-88.6141810000000021
11
111.7837479999999886
21
-88.7210400000000021
0
LINE
8
BLACK
6
CONTINUOUS
10
111.7837479999999886
20
-88.7210400000000021
11
111.9741719999999958
21
-88.8593910000000022
0
LINE
8
BLACK
6
CONTINUOUS
10
111.9741719999999958
20
-88.8593910000000022
11
112.1406089999999978
21
-89.02582799999999
0
LINE
8
BLACK
6
CONTINUOUS
10
112.1406089999999978
20
-89.02582799999999
11
112.2789599999999979
21
-89.2162519999999972
0
LINE
8
BLACK
6
CONTINUOUS
10
112.2789599999999979
20
-89.2162519999999972
11
112.3858189999999979
21
-89.425974999999994
0
LINE
8
BLACK
6
CONTINUOUS
10
112.3858189999999979
20
-89.425974999999994
11
112.4585549999999898
21
-89.6498319999999893
0
LINE
8
BLACK
6
CONTINUOUS
10
112.4585549999999898
20
-89.6498319999999893
11
112.4953759999999932
21
-89.8823110000000014
0
LINE
8
BLACK
6
CONTINUOUS
10
112.4953759999999932
20
-89.8823110000000014
11
112.4953759999999932
21
-90.1176889999999986
0
LINE
8
BLACK
6
CONTINUOUS
10
112.4953759999999932
20
-90.1176889999999986
11
112.4585549999999898
21
-90.3501679999999965
0
LINE
8
BLACK
6
CONTINUOUS
10
112.4585549999999898
20
-90.3501679999999965
11
112.3858189999999979
21
-90.5740249999999918
0
LINE
8
BLACK
6
CONTINUOUS
10
112.3858189999999979
20
-90.5740249999999918
11
112.2789599999999979
21
-90.7837480000000028
0
LINE
8
BLACK
6
CONTINUOUS
10
112.2789599999999979
20
-90.7837480000000028
11
112.1406089999999978
21
-90.9741719999999958
0
LINE
8
BLACK
6
CONTINUOUS
10
112.1406089999999978
20
-90.9741719999999958
11
111.9741719999999958
21
-91.1406089999999978
0
LINE
8
BLACK
6
CONTINUOUS
10
111.9741719999999958
20
-91.1406089999999978
11
111.7837479999999886
21
-91.2789599999999979
0
LINE
8
BLACK
6
CONTINUOUS
10
111.7837479999999886
20
-91.2789599999999979
11
111.5740249999999918
21
-91.3858189999999979
0
LINE
8
BLACK
6
CONTINUOUS
10
111.5740249999999918
20
-91.3858189999999979
11
111.3501679999999965
21
-91.4585549999999898
0
LINE
8
BLACK
6
CONTINUOUS
10
111.3501679999999965
20
-91.4585549999999898
11
111.1176889999999986
21
-91.4953759999999932
0
LINE
8
BLACK
6
CONTINUOUS
10
111.1176889999999986
20
-91.4953759999999932
11
110.8823110000000014
21
-91.4953759999999932
0
LINE
8
BLACK
6
CONTINUOUS
10
110.8823110000000014
20
-91.4953759999999932
11
110.6498319999999893
21
-91.4585549999999898
0
LINE
8
BLACK
6
CONTINUOUS
10
110.6498319999999893
20
-91.4585549999999898
11
110.425974999999994
21
-91.3858189999999979
0
LINE
8
BLACK
6
CONTINUOUS
10
110.425974999999994
20
-91.3858189999999979
11
110.2162519999999972
21
-91.2789599999999979
0
LINE
8
BLACK
6
CONTINUOUS
10
110.2162519999999972
20
-91.2789599999999979
11
110.02582799999999
21
-91.1406089999999978
0
LINE
8
BLACK
6
CONTINUOUS
10
110.02582799999999
20
-91.1406089999999978
11
109.859390999999988
21
-90.9741719999999958
0
LINE
8
BLACK
6
CONTINUOUS
10
109.859390999999988
20
-90.9741719999999958
11
109.7210400000000021
21
-90.7837480000000028
0
LINE
8
BLACK
6
CONTINUOUS
10
109.7210400000000021
20
-90.7837480000000028
11
109.6141810000000021
21
-90.5740249999999918
0
LINE
8
BLACK
6
CONTINUOUS
10
109.6141810000000021
20
-90.5740249999999918
11
109.541444999999996
21
-90.3501679999999965
0
LINE
8
BLACK
6
CONTINUOUS
10
109.541444999999996
20
-90.3501679999999965
11
109.5046239999999926
21
-90.1176889999999986
0
LINE
8
BLACK
6
CONTINUOUS
10
109.5046239999999926
20
-90.1176889999999986
11
109.5046239999999926
21
-89.8823110000000014
0
LINE
8
BLACK
6
CONTINUOUS
10
109.5046239999999926
20
-89.8823110000000014
11
109.541444999999996
21
-89.6498319999999893
0
LINE
8
BLACK
6
CONTINUOUS
10
109.541444999999996
20
-89.6498319999999893
11
109.6141810000000021
21
-89.425974999999994
0
LINE
8
BLACK
6
CONTINUOUS
10
109.6141810000000021
20
-89.425974999999994
11
109.7210400000000021
21
-89.2162519999999972
0
LINE
8
BLACK
6
CONTINUOUS
10
109.7210400000000021
20
-89.2162519999999972
11
109.859390999999988
21
-89.02582799999999
0
LINE
8
BLACK
6
CONTINUOUS
10
109.859390999999988
20
-89.02582799999999
11
110.02582799999999
21
-88.8593910000000022
0
LINE
8
BLACK
6
CONTINUOUS
10
110.02582799999999
20
-88.8593910000000022
11
110.2162519999999972
21
-88.7210400000000021
0
LINE
8
BLACK
6
CONTINUOUS
10
110.2162519999999972
20
-88.7210400000000021
11
110.425974999999994
21
-88.6141810000000021
0
LINE
8
BLACK
6
CONTINUOUS
10
110.425974999999994
20
-88.6141810000000021
11
110.6498319999999893
21
-88.541444999999996
0
LINE
8
BLACK
6
CONTINUOUS
10
110.6498319999999893
20
-88.541444999999996
11
110.8823110000000014
21
-88.5046239999999926
0
LINE
8
BLACK
6
CONTINUOUS
10
110.8823110000000014
20
-88.5046239999999926
11
111.1176889999999986
21
-88.5046239999999926
0
LINE
8
BLACK
6
CONTINUOUS
10
111.1176889999999986
20
-88.5046239999999926
11
111.3501679999999965
21
-88.541444999999996
0
LINE
8
BLACK
6
CONTINUOUS
10
115.6001679999999965
20
-88.541444999999996
11
115.8240249999999918
21
-88.6141810000000021
0
LINE
8
BLACK
6
CONTINUOUS
10
115.8240249999999918
20
-88.6141810000000021
11
116.0337479999999886
21
-88.7210400000000021
0
LINE
8
BLACK
6
CONTINUOUS
10
116.0337479999999886
20
-88.7210400000000021
11
116.2241719999999958
21
-88.8593910000000022
0
LINE
8
BLACK
6
CONTINUOUS
10
116.2241719999999958
20
-88.8593910000000022
11
116.3906089999999978
21
-89.02582799999999
0
LINE
8
BLACK
6
CONTINUOUS
10
116.3906089999999978
20
-89.02582799999999
11
116.5289599999999979
21
-89.2162519999999972
0
LINE
8
BLACK
6
CONTINUOUS
10
116.5289599999999979
20
-89.2162519999999972
11
116.6358189999999979
21
-89.425974999999994
0
LINE
8
BLACK
6
CONTINUOUS
10
116.6358189999999979
20
-89.425974999999994
11
116.7085549999999898
21
-89.6498319999999893
0
LINE
8
BLACK
6
CONTINUOUS
10
116.7085549999999898
20
-89.6498319999999893
11
116.7453759999999932
21
-89.8823110000000014
0
LINE
8
BLACK
6
CONTINUOUS
10
116.7453759999999932
20
-89.8823110000000014
11
116.7453759999999932
21
-90.1176889999999986
0
LINE
8
BLACK
6
CONTINUOUS
10
116.7453759999999932
20
-90.1176889999999986
11
116.7085549999999898
21
-90.3501679999999965
0
LINE
8
BLACK
6
CONTINUOUS
10
116.7085549999999898
20
-90.3501679999999965
11
116.6358189999999979
21
-90.5740249999999918
0
LINE
8
BLACK
6
CONTINUOUS
10
116.6358189999999979
20
-90.5740249999999918
11
116.5289599999999979
21
-90.7837480000000028
0
LINE
8
BLACK
6
CONTINUOUS
10
116.5289599999999979
20
-90.7837480000000028
11
116.3906089999999978
21
-90.9741719999999958
0
LINE
8
BLACK
6
CONTINUOUS
10
116.3906089999999978
20
-90.9741719999999958
11
116.2241719999999958
21
-91.1406089999999978
0
LINE
8
BLACK
6
CONTINUOUS
10
116.2241719999999958
20
-91.1406089999999978
11
116.0337479999999886
21
-91.2789599999999979
0
LINE
8
BLACK
6
CONTINUOUS
10
116.0337479999999886
20
-91.2789599999999979
11
115.8240249999999918
21
-91.3858189999999979
0
LINE
8
BLACK
6
CONTINUOUS
10
115.8240249999999918
20
-91.3858189999999979
11
115.6001679999999965
21
-91.4585549999999898
0
LINE
8
BLACK
6
CONTINUOUS
10
115.6001679999999965
20
-91.4585549999999898
11
115.3676889999999986
21
-91.4953759999999932
0
LINE
8
BLACK
6
CONTINUOUS
10
115.3676889999999986
20
-91.4953759999999932
11
115.1323110000000014
21
-91.4953759999999932
0
LINE
8
BLACK
6
CONTINUOUS
10
115.1323110000000014
20
-91.4953759999999932
11
114.8998319999999893
21
-91.4585549999999898
0
LINE
8
BLACK
6
CONTINUOUS
10
114.8998319999999893
20
-91.4585549999999898
11
114.675974999999994
21
-91.3858189999999979
0
LINE
8
BLACK
6
CONTINUOUS
10
114.675974999999994
20
-91.3858189999999979
11
114.4662519999999972
21
-91.2789599999999979
0
LINE
8
BLACK
6
CONTINUOUS
10
114.4662519999999972
20
-91.2789599999999979
11
114.27582799999999
21
-91.1406089999999978
0
LINE
8
BLACK
6
CONTINUOUS
10
114.27582799999999
20
-91.1406089999999978
11
114.109390999999988
21
-90.9741719999999958
0
LINE
8
BLACK
6
CONTINUOUS
10
114.109390999999988
20
-90.9741719999999958
11
113.9710399999999879
21
-90.7837480000000028
0
LINE
8
BLACK
6
CONTINUOUS
10
113.9710399999999879
20
-90.7837480000000028
11
113.8641809999999879
21
-90.5740249999999918
0
LINE
8
BLACK
6
CONTINUOUS
10
113.8641809999999879
20
-90.5740249999999918
11
113.791444999999996
21
-90.3501679999999965
0
LINE
8
BLACK
6
CONTINUOUS
10
113.791444999999996
20
-90.3501679999999965
11
113.7546239999999926
21
-90.1176889999999986
0
LINE
8
BLACK
6
CONTINUOUS
10
113.7546239999999926
20
-90.1176889999999986
11
113.7546239999999926
21
-89.8823110000000014
0
LINE
8
BLACK
6
CONTINUOUS
10
113.7546239999999926
20
-89.8823110000000014
11
113.791444999999996
21
-89.6498319999999893
0
LINE
8
BLACK
6
CONTINUOUS
10
113.791444999999996
20
-89.6498319999999893
11
113.8641809999999879
21
-89.425974999999994
0
LINE
8
BLACK
6
CONTINUOUS
10
113.8641809999999879
20
-89.425974999999994
11
113.9710399999999879
21
-89.2162519999999972
0
LINE
8
BLACK
6
CONTINUOUS
10
113.9710399999999879
20
-89.2162519999999972
11
114.109390999999988
21
-89.02582799999999
0
LINE
8
BLACK
6
CONTINUOUS
10
114.109390999999988
20
-89.02582799999999
11
114.27582799999999
21
-88.8593910000000022
0
LINE
8
BLACK
6
CONTINUOUS
10
114.27582799999999
20
-88.8593910000000022
11
114.4662519999999972
21
-88.7210400000000021
0
LINE
8
BLACK
6
CONTINUOUS
10
114.4662519999999972
20
-88.7210400000000021
11
114.675974999999994
21
-88.6141810000000021
0
LINE
8
BLACK
6
CONTINUOUS
10
114.675974999999994
20
-88.6141810000000021
11
114.8998319999999893
21
-88.541444999999996
0
LINE
8
BLACK
6
CONTINUOUS
10
114.8998319999999893
20
-88.541444999999996
11
115.1323110000000014
21
-88.5046239999999926
0
LINE
8
BLACK
6
CONTINUOUS
10
115.1323110000000014
20
-88.5046239999999926
11
115.3676889999999986
21
-88.5046239999999926
0
LINE
8
BLACK
6
CONTINUOUS
10
115.3676889999999986
20
-88.5046239999999926
11
115.6001679999999965
21
-88.541444999999996
0
LINE
8
BLACK
6
CONTINUOUS
10
111.1001679999999965
20
-83.541444999999996
11
111.3240249999999918
21
-83.6141810000000021
0
LINE
8
BLACK
6
CONTINUOUS
10
111.3240249999999918
20
-83.6141810000000021
11
111.5337479999999886
21
-83.7210400000000021
0
LINE
8
BLACK
6
CONTINUOUS
10
111.5337479999999886
20
-83.7210400000000021
11
111.7241719999999958
21
-83.8593910000000022
0
LINE
8
BLACK
6
CONTINUOUS
10
111.7241719999999958
20
-83.8593910000000022
11
111.8906089999999978
21
-84.02582799999999
0
LINE
8
BLACK
6
CONTINUOUS
10
111.8906089999999978
20
-84.02582799999999
11
112.0289599999999979
21
-84.2162519999999972
0
LINE
8
BLACK
6
CONTINUOUS
10
112.0289599999999979
20
-84.2162519999999972
11
112.1358189999999979
21
-84.425974999999994
0
LINE
8
BLACK
6
CONTINUOUS
10
112.1358189999999979
20
-84.425974999999994
11
112.2085549999999898
21
-84.6498319999999893
0
LINE
8
BLACK
6
CONTINUOUS
10
112.2085549999999898
20
-84.6498319999999893
11
112.2453759999999932
21
-84.8823110000000014
0
LINE
8
BLACK
6
CONTINUOUS
10
112.2453759999999932
20
-84.8823110000000014
11
112.2453759999999932
21
-85.1176889999999986
0
LINE
8
BLACK
6
CONTINUOUS
10
112.2453759999999932
20
-85.1176889999999986
11
112.2085549999999898
21
-85.3501679999999965
0
LINE
8
BLACK
6
CONTINUOUS
10
112.2085549999999898
20
-85.3501679999999965
11
112.1358189999999979
21
-85.5740249999999918
0
LINE
8
BLACK
6
CONTINUOUS
10
112.1358189999999979
20
-85.5740249999999918
11
112.0289599999999979
21
-85.7837480000000028
0
LINE
8
BLACK
6
CONTINUOUS
10
112.0289599999999979
20
-85.7837480000000028
11
111.8906089999999978
21
-85.9741719999999958
0
LINE
8
BLACK
6
CONTINUOUS
10
111.8906089999999978
20
-85.9741719999999958
11
111.7241719999999958
21
-86.1406089999999978
0
LINE
8
BLACK
6
CONTINUOUS
10
111.7241719999999958
20
-86.1406089999999978
11
111.5337479999999886
21
-86.2789599999999979
0
LINE
8
BLACK
6
CONTINUOUS
10
111.5337479999999886
20
-86.2789599999999979
11
111.3240249999999918
21
-86.3858189999999979
0
LINE
8
BLACK
6
CONTINUOUS
10
111.3240249999999918
20
-86.3858189999999979
11
111.1001679999999965
21
-86.4585549999999898
0
LINE
8
BLACK
6
CONTINUOUS
10
111.1001679999999965
20
-86.4585549999999898
11
110.8676889999999986
21
-86.4953759999999932
0
LINE
8
BLACK
6
CONTINUOUS
10
110.8676889999999986
20
-86.4953759999999932
11
110.6323110000000014
21
-86.4953759999999932
0
LINE
8
BLACK
6
CONTINUOUS
10
110.6323110000000014
20
-86.4953759999999932
11
110.3998319999999893
21
-86.4585549999999898
0
LINE
8
BLACK
6
CONTINUOUS
10
110.3998319999999893
20
-86.4585549999999898
11
110.175974999999994
21
-86.3858189999999979
0
LINE
8
BLACK
6
CONTINUOUS
10
110.175974999999994
20
-86.3858189999999979
11
109.9662519999999972
21
-86.2789599999999979
0
LINE
8
BLACK
6
CONTINUOUS
10
109.9662519999999972
20
-86.2789599999999979
11
109.77582799999999
21
-86.1406089999999978
0
LINE
8
BLACK
6
CONTINUOUS
10
109.77582799999999
20
-86.1406089999999978
11
109.609390999999988
21
-85.9741719999999958
0
LINE
8
BLACK
6
CONTINUOUS
10
109.609390999999988
20
-85.9741719999999958
11
109.4710400000000021
21
-85.7837480000000028
0
LINE
8
BLACK
6
CONTINUOUS
10
109.4710400000000021
20
-85.7837480000000028
11
109.3641810000000021
21
-85.5740249999999918
0
LINE
8
BLACK
6
CONTINUOUS
10
109.3641810000000021
20
-85.5740249999999918
11
109.291444999999996
21
-85.3501679999999965
0
LINE
8
BLACK
6
CONTINUOUS
10
109.291444999999996
20
-85.3501679999999965
11
109.2546239999999926
21
-85.1176889999999986
0
LINE
8
BLACK
6
CONTINUOUS
10
109.2546239999999926
20
-85.1176889999999986
11
109.2546239999999926
21
-84.8823110000000014
0
LINE
8
BLACK
6
CONTINUOUS
10
109.2546239999999926
20
-84.8823110000000014
11
109.291444999999996
21
-84.6498319999999893
0
LINE
8
BLACK
6
CONTINUOUS
10
109.291444999999996
20
-84.6498319999999893
11
109.3641810000000021
21
-84.425974999999994
0
LINE
8
BLACK
6
CONTINUOUS
10
109.3641810000000021
20
-84.425974999999994
11
109.4710400000000021
21
-84.2162519999999972
0
LINE
8
BLACK
6
CONTINUOUS
10
109.4710400000000021
20
-84.2162519999999972
11
109.609390999999988
21
-84.02582799999999
0
LINE
8
BLACK
6
CONTINUOUS
10
109.609390999999988
20
-84.02582799999999
11
109.77582799999999
21
-83.8593910000000022
0
LINE
8
BLACK
6
CONTINUOUS
10
109.77582799999999
20
-83.8593910000000022
11
109.9662519999999972
21
-83.7210400000000021
0
LINE
8
BLACK
6
CONTINUOUS
10
109.9662519999999972
20
-83.7210400000000021
11
110.175974999999994
21
-83.6141810000000021
0
LINE
8
BLACK
6
CONTINUOUS
10
110.175974999999994
20
-83.6141810000000021
11
110.3998319999999893
21
-83.541444999999996
0
LINE
8
BLACK
6
CONTINUOUS
10
110.3998319999999893
20
-83.541444999999996
11
110.6323110000000014
21
-83.5046239999999926
0
LINE
8
BLACK
6
CONTINUOUS
10
110.6323110000000014
20
-83.5046239999999926
11
110.8676889999999986
21
-83.5046239999999926
0
LINE
8
BLACK
6
CONTINUOUS
10
110.8676889999999986
20
-83.5046239999999926
11
111.1001679999999965
21
-83.541444999999996
0
LINE
8
BLACK
6
CONTINUOUS
10
115.6001679999999965
20
-83.541444999999996
11
115.8240249999999918
21
-83.6141810000000021
0
LINE
8
BLACK
6
CONTINUOUS
10
115.8240249999999918
20
-83.6141810000000021
11
116.0337479999999886
21
-83.7210400000000021
0
LINE
8
BLACK
6
CONTINUOUS
10
116.0337479999999886
20
-83.7210400000000021
11
116.2241719999999958
21
-83.8593910000000022
0
LINE
8
BLACK
6
CONTINUOUS
10
116.2241719999999958
20
-83.8593910000000022
11
116.3906089999999978
21
-84.02582799999999
0
LINE
8
BLACK
6
CONTINUOUS
10
116.3906089999999978
20
-84.02582799999999
11
116.5289599999999979
21
-84.2162519999999972
0
LINE
8
BLACK
6
CONTINUOUS
10
116.5289599999999979
20
-84.2162519999999972
11
116.6358189999999979
21
-84.425974999999994
0
LINE
8
BLACK
6
CONTINUOUS
10
116.6358189999999979
20
-84.425974999999994
11
116.7085549999999898
21
-84.6498319999999893
0
LINE
8
BLACK
6
CONTINUOUS
10
116.7085549999999898
20
-84.6498319999999893
11
116.7453759999999932
21
-84.8823110000000014
0
LINE
8
BLACK
6
CONTINUOUS
10
116.7453759999999932
20
-84.8823110000000014
11
116.7453759999999932
21
-85.1176889999999986
0
LINE
8
BLACK
6
CONTINUOUS
10
116.7453759999999932
20
-85.1176889999999986
11
116.7085549999999898
21
-85.3501679999999965
0
LINE
8
BLACK
6
CONTINUOUS
10
116.7085549999999898
20
-85.3501679999999965
11
116.6358189999999979
21
-85.5740249999999918
0
LINE
8
BLACK
6
CONTINUOUS
10
116.6358189999999979
20
-85.5740249999999918
11
116.5289599999999979
21
-85.7837480000000028
0
LINE
8
BLACK
6
CONTINUOUS
10
116.5289599999999979
20
-85.7837480000000028
11
116.3906089999999978
21
-85.9741719999999958
0
LINE
8
BLACK
6
CONTINUOUS
10
116.3906089999999978
20
-85.9741719999999958
11
116.2241719999999958
21
-86.1406089999999978
0
LINE
8
BLACK
6
CONTINUOUS
10
116.2241719999999958
20
-86.1406089999999978
11
116.0337479999999886
21
-86.2789599999999979
0
LINE
8
BLACK
6
CONTINUOUS
10
116.0337479999999886
20
-86.2789599999999979
11
115.8240249999999918
21
-86.3858189999999979
0
LINE
8
BLACK
6
CONTINUOUS
10
115.8240249999999918
20
-86.3858189999999979
11
115.6001679999999965
21
-86.4585549999999898
0
LINE
8
BLACK
6
CONTINUOUS
10
115.6001679999999965
20
-86.4585549999999898
11
115.3676889999999986
21
-86.4953759999999932
0
LINE
8
BLACK
6
CONTINUOUS
10
115.3676889999999986
20
-86.4953759999999932
11
115.1323110000000014
21
-86.4953759999999932
0
LINE
8
BLACK
6
CONTINUOUS
10
115.1323110000000014
20
-86.4953759999999932
11
114.8998319999999893
21
-86.4585549999999898
0
LINE
8
BLACK
6
CONTINUOUS
10
114.8998319999999893
20
-86.4585549999999898
11
114.675974999999994
21
-86.3858189999999979
0
LINE
8
BLACK
6
CONTINUOUS
10
114.675974999999994
20
-86.3858189999999979
11
114.4662519999999972
21
-86.2789599999999979
0
LINE
8
BLACK
6
CONTINUOUS
10
114.4662519999999972
20
-86.2789599999999979
11
114.27582799999999
21
-86.1406089999999978
0
LINE
8
BLACK
6
CONTINUOUS
10
114.27582799999999
20
-86.1406089999999978
11
114.109390999999988
21
-85.9741719999999958
0
LINE
8
BLACK
6
CONTINUOUS
10
114.109390999999988
20
-85.9741719999999958
11
113.9710399999999879
21
-85.7837480000000028
0
LINE
8
BLACK
6
CONTINUOUS
10
113.9710399999999879
20
-85.7837480000000028
11
113.8641809999999879
21
-85.5740249999999918
0
LINE
8
BLACK
6
CONTINUOUS
10
113.8641809999999879
20
-85.5740249999999918
11
113.791444999999996
21
-85.3501679999999965
0
LINE
8
BLACK
6
CONTINUOUS
10
113.791444999999996
20
-85.3501679999999965
11
113.7546239999999926
21
-85.1176889999999986
0
LINE
8
BLACK
6
CONTINUOUS
10
113.7546239999999926
20
-85.1176889999999986
11
113.7546239999999926
21
-84.8823110000000014
0
LINE
8
BLACK
6
CONTINUOUS
10
113.7546239999999926
20
-84.8823110000000014
11
113.791444999999996
21
-84.6498319999999893
0
LINE
8
BLACK
6
CONTINUOUS
10
113.791444999999996
20
-84.6498319999999893
11
113.8641809999999879
21
-84.425974999999994
0
LINE
8
BLACK
6
CONTINUOUS
10
113.8641809999999879
20
-84.425974999999994
11
113.9710399999999879
21
-84.2162519999999972
0
LINE
8
BLACK
6
CONTINUOUS
10
113.9710399999999879
20
-84.2162519999999972
11
114.109390999999988
21
-84.02582799999999
0
LINE
8
BLACK
6
CONTINUOUS
10
114.109390999999988
20
-84.02582799999999
11
114.27582799999999
21
-83.8593910000000022
0
LINE
8
BLACK
6
CONTINUOUS
10
114.27582799999999
20
-83.8593910000000022
11
114.4662519999999972
21
-83.7210400000000021
0
LINE
8
BLACK
6
CONTINUOUS
10
114.4662519999999972
20
-83.7210400000000021
11
114.675974999999994
21
-83.6141810000000021
0
LINE
8
BLACK
6
CONTINUOUS
10
114.675974999999994
20
-83.6141810000000021
11
114.8998319999999893
21
-83.541444999999996
0
LINE
8
BLACK
6
CONTINUOUS
10
114.8998319999999893
20
-83.541444999999996
11
115.1323110000000014
21
-83.5046239999999926
0
LINE
8
BLACK
6
CONTINUOUS
10
115.1323110000000014
20
-83.5046239999999926
11
115.3676889999999986
21
-83.5046239999999926
0
LINE
8
BLACK
6
CONTINUOUS
10
115.3676889999999986
20
-83.5046239999999926
11
115.6001679999999965
21
-83.541444999999996
0
LINE
8
BLACK
6
CONTINUOUS
10
134.3275189999999952
20
-76.5523840000000035
11
134.6555070000000001
21
-76.6272450000000021
0
LINE
8
BLACK
6
CONTINUOUS
10
134.6555070000000001
20
-76.6272450000000021
11
134.9730500000000006
21
-76.738357999999991
0
LINE
8
BLACK
6
CONTINUOUS
10
134.9730500000000006
20
-76.738357999999991
11
135.2761569999999836
21
-76.884326999999999
0
LINE
8
BLACK
6
CONTINUOUS
10
135.2761569999999836
20
-76.884326999999999
11
135.5610140000000001
21
-77.0633139999999912
0
LINE
8
BLACK
6
CONTINUOUS
10
135.5610140000000001
20
-77.0633139999999912
11
135.8240399999999966
21
-77.2730710000000016
0
LINE
8
BLACK
6
CONTINUOUS
10
135.8240399999999966
20
-77.2730710000000016
11
136.0619259999999997
21
-77.5109569999999906
0
LINE
8
BLACK
6
CONTINUOUS
10
136.0619259999999997
20
-77.5109569999999906
11
136.2716829999999959
21
-77.7739830000000012
0
LINE
8
BLACK
6
CONTINUOUS
10
136.2716829999999959
20
-77.7739830000000012
11
136.4506700000000023
21
-78.0588400000000036
0
LINE
8
BLACK
6
CONTINUOUS
10
136.4506700000000023
20
-78.0588400000000036
11
136.5966389999999819
21
-78.3619470000000007
0
LINE
8
BLACK
6
CONTINUOUS
10
136.5966389999999819
20
-78.3619470000000007
11
136.7077519999999993
21
-78.6794900000000013
0
LINE
8
BLACK
6
CONTINUOUS
10
136.7077519999999993
20
-78.6794900000000013
11
136.7826129999999978
21
-79.0074779999999919
0
LINE
8
BLACK
6
CONTINUOUS
10
136.7826129999999978
20
-79.0074779999999919
11
136.8202799999999968
21
-79.341785999999999
0
LINE
8
BLACK
6
CONTINUOUS
10
136.8202799999999968
20
-79.341785999999999
11
136.8249999999999886
21
-79.5099969999999985
0
LINE
8
BLACK
6
CONTINUOUS
10
136.8249999999999886
20
-79.5099969999999985
11
136.8249999999999886
21
-82.5099969999999985
0
LINE
8
BLACK
6
CONTINUOUS
10
136.8249999999999886
20
-82.5099969999999985
11
136.8202799999999968
21
-82.6782079999999979
0
LINE
8
BLACK
6
CONTINUOUS
10
136.8202799999999968
20
-82.6782079999999979
11
136.7826129999999978
21
-83.0125159999999909
0
LINE
8
BLACK
6
CONTINUOUS
10
136.7826129999999978
20
-83.0125159999999909
11
136.7077519999999993
21
-83.3405039999999957
0
LINE
8
BLACK
6
CONTINUOUS
10
136.7077519999999993
20
-83.3405039999999957
11
136.5966389999999819
21
-83.6580469999999963
0
LINE
8
BLACK
6
CONTINUOUS
10
136.5966389999999819
20
-83.6580469999999963
11
136.4506700000000023
21
-83.9611539999999934
0
LINE
8
BLACK
6
CONTINUOUS
10
136.4506700000000023
20
-83.9611539999999934
11
136.2716829999999959
21
-84.2460109999999958
0
LINE
8
BLACK
6
CONTINUOUS
10
136.2716829999999959
20
-84.2460109999999958
11
136.0619259999999997
21
-84.5090369999999922
0
LINE
8
BLACK
6
CONTINUOUS
10
136.0619259999999997
20
-84.5090369999999922
11
135.8240399999999966
21
-84.7469229999999953
0
LINE
8
BLACK
6
CONTINUOUS
10
135.8240399999999966
20
-84.7469229999999953
11
135.5610140000000001
21
-84.9566799999999915
0
LINE
8
BLACK
6
CONTINUOUS
10
135.5610140000000001
20
-84.9566799999999915
11
135.2761569999999836
21
-85.135666999999998
0
LINE
8
BLACK
6
CONTINUOUS
10
135.2761569999999836
20
-85.135666999999998
11
134.9730500000000006
21
-85.2816359999999918
0
LINE
8
BLACK
6
CONTINUOUS
10
134.9730500000000006
20
-85.2816359999999918
11
134.6555070000000001
21
-85.3927489999999949
0
LINE
8
BLACK
6
CONTINUOUS
10
134.6555070000000001
20
-85.3927489999999949
11
134.3275189999999952
21
-85.4676099999999934
0
LINE
8
BLACK
6
CONTINUOUS
10
134.3275189999999952
20
-85.4676099999999934
11
133.9932110000000023
21
-85.5052769999999924
0
LINE
8
BLACK
6
CONTINUOUS
10
133.9932110000000023
20
-85.5052769999999924
11
133.6567890000000034
21
-85.5052769999999924
0
LINE
8
BLACK
6
CONTINUOUS
10
133.6567890000000034
20
-85.5052769999999924
11
133.322480999999982
21
-85.4676099999999934
0
LINE
8
BLACK
6
CONTINUOUS
10
133.322480999999982
20
-85.4676099999999934
11
132.9944930000000056
21
-85.3927489999999949
0
LINE
8
BLACK
6
CONTINUOUS
10
132.9944930000000056
20
-85.3927489999999949
11
132.676950000000005
21
-85.2816359999999918
0
LINE
8
BLACK
6
CONTINUOUS
10
132.676950000000005
20
-85.2816359999999918
11
132.3738429999999937
21
-85.135666999999998
0
LINE
8
BLACK
6
CONTINUOUS
10
132.3738429999999937
20
-85.135666999999998
11
132.0889860000000056
21
-84.9566799999999915
0
LINE
8
BLACK
6
CONTINUOUS
10
132.0889860000000056
20
-84.9566799999999915
11
131.8259599999999807
21
-84.7469229999999953
0
LINE
8
BLACK
6
CONTINUOUS
10
131.8259599999999807
20
-84.7469229999999953
11
131.588074000000006
21
-84.5090369999999922
0
LINE
8
BLACK
6
CONTINUOUS
10
131.588074000000006
20
-84.5090369999999922
11
131.3783169999999814
21
-84.2460109999999958
0
LINE
8
BLACK
6
CONTINUOUS
10
131.3783169999999814
20
-84.2460109999999958
11
131.1993300000000033
21
-83.9611539999999934
0
LINE
8
BLACK
6
CONTINUOUS
10
131.1993300000000033
20
-83.9611539999999934
11
131.0533609999999953
21
-83.6580469999999963
0
LINE
8
BLACK
6
CONTINUOUS
10
131.0533609999999953
20
-83.6580469999999963
11
130.9422480000000064
21
-83.3405039999999957
0
LINE
8
BLACK
6
CONTINUOUS
10
130.9422480000000064
20
-83.3405039999999957
11
130.8673870000000079
21
-83.0125159999999909
0
LINE
8
BLACK
6
CONTINUOUS
10
130.8673870000000079
20
-83.0125159999999909
11
130.8297199999999805
21
-82.6782079999999979
0
LINE
8
BLACK
6
CONTINUOUS
10
130.8297199999999805
20
-82.6782079999999979
11
130.8249999999999886
21
-82.5099969999999985
0
LINE
8
BLACK
6
CONTINUOUS
10
130.8249999999999886
20
-82.5099969999999985
11
130.8249999999999886
21
-79.5099969999999985
0
LINE
8
BLACK
6
CONTINUOUS
10
130.8249999999999886
20
-79.5099969999999985
11
130.8297199999999805
21
-79.341785999999999
0
LINE
8
BLACK
6
CONTINUOUS
10
130.8297199999999805
20
-79.341785999999999
11
130.8673870000000079
21
-79.0074779999999919
0
LINE
8
BLACK
6
CONTINUOUS
10
130.8673870000000079
20
-79.0074779999999919
11
130.9422480000000064
21
-78.6794900000000013
0
LINE
8
BLACK
6
CONTINUOUS
10
130.9422480000000064
20
-78.6794900000000013
11
131.0533609999999953
21
-78.3619470000000007
0
LINE
8
BLACK
6
CONTINUOUS
10
131.0533609999999953
20
-78.3619470000000007
11
131.1993300000000033
21
-78.0588400000000036
0
LINE
8
BLACK
6
CONTINUOUS
10
131.1993300000000033
20
-78.0588400000000036
11
131.3783169999999814
21
-77.7739830000000012
0
LINE
8
BLACK
6
CONTINUOUS
10
131.3783169999999814
20
-77.7739830000000012
11
131.588074000000006
21
-77.5109569999999906
0
LINE
8
BLACK
6
CONTINUOUS
10
131.588074000000006
20
-77.5109569999999906
11
131.8259599999999807
21
-77.2730710000000016
0
LINE
8
BLACK
6
CONTINUOUS
10
131.8259599999999807
20
-77.2730710000000016
11
132.0889860000000056
21
-77.0633139999999912
0
LINE
8
BLACK
6
CONTINUOUS
10
132.0889860000000056
20
-77.0633139999999912
11
132.3738429999999937
21
-76.884326999999999
0
LINE
8
BLACK
6
CONTINUOUS
10
132.3738429999999937
20
-76.884326999999999
11
132.676950000000005
21
-76.738357999999991
0
LINE
8
BLACK
6
CONTINUOUS
10
132.676950000000005
20
-76.738357999999991
11
132.9944930000000056
21
-76.6272450000000021
0
LINE
8
BLACK
6
CONTINUOUS
10
132.9944930000000056
20
-76.6272450000000021
11
133.322480999999982
21
-76.5523840000000035
0
LINE
8
BLACK
6
CONTINUOUS
10
133.322480999999982
20
-76.5523840000000035
11
133.6567890000000034
21
-76.5147169999999903
0
LINE
8
BLACK
6
CONTINUOUS
10
133.6567890000000034
20
-76.5147169999999903
11
133.9932110000000023
21
-76.5147169999999903
0
LINE
8
BLACK
6
CONTINUOUS
10
133.9932110000000023
20
-76.5147169999999903
11
134.3275189999999952
21
-76.5523840000000035
0
LINE
8
BLACK
6
CONTINUOUS
10
112.642713999999998
20
-77.2022939999999949
11
112.7785480000000007
21
-77.2585579999999936
0
LINE
8
BLACK
6
CONTINUOUS
10
112.7785480000000007
20
-77.2585579999999936
11
112.900794999999988
21
-77.3402409999999918
0
LINE
8
BLACK
6
CONTINUOUS
10
112.900794999999988
20
-77.3402409999999918
11
113.0047579999999954
21
-77.4442039999999992
0
LINE
8
BLACK
6
CONTINUOUS
10
113.0047579999999954
20
-77.4442039999999992
11
113.0864409999999936
21
-77.5664510000000007
0
LINE
8
BLACK
6
CONTINUOUS
10
113.0864409999999936
20
-77.5664510000000007
11
113.1427049999999923
21
-77.7022850000000034
0
LINE
8
BLACK
6
CONTINUOUS
10
113.1427049999999923
20
-77.7022850000000034
11
113.1713889999999907
21
-77.8464859999999987
0
LINE
8
BLACK
6
CONTINUOUS
10
113.1713889999999907
20
-77.8464859999999987
11
113.1713889999999907
21
-77.9935119999999955
0
LINE
8
BLACK
6
CONTINUOUS
10
113.1713889999999907
20
-77.9935119999999955
11
113.1427049999999923
21
-78.1377129999999909
0
LINE
8
BLACK
6
CONTINUOUS
10
113.1427049999999923
20
-78.1377129999999909
11
113.0864409999999936
21
-78.2735469999999935
0
LINE
8
BLACK
6
CONTINUOUS
10
113.0864409999999936
20
-78.2735469999999935
11
113.0047579999999954
21
-78.3957939999999951
0
LINE
8
BLACK
6
CONTINUOUS
10
113.0047579999999954
20
-78.3957939999999951
11
112.900794999999988
21
-78.4997570000000024
0
LINE
8
BLACK
6
CONTINUOUS
10
112.900794999999988
20
-78.4997570000000024
11
112.7785480000000007
21
-78.5814400000000006
0
LINE
8
BLACK
6
CONTINUOUS
10
112.7785480000000007
20
-78.5814400000000006
11
112.642713999999998
21
-78.6377039999999994
0
LINE
8
BLACK
6
CONTINUOUS
10
112.642713999999998
20
-78.6377039999999994
11
112.4985129999999884
21
-78.6663879999999978
0
LINE
8
BLACK
6
CONTINUOUS
10
112.4985129999999884
20
-78.6663879999999978
11
112.3514869999999917
21
-78.6663879999999978
0
LINE
8
BLACK
6
CONTINUOUS
10
112.3514869999999917
20
-78.6663879999999978
11
112.2072859999999963
21
-78.6377039999999994
0
LINE
8
BLACK
6
CONTINUOUS
10
112.2072859999999963
20
-78.6377039999999994
11
112.0714519999999936
21
-78.5814400000000006
0
LINE
8
BLACK
6
CONTINUOUS
10
112.0714519999999936
20
-78.5814400000000006
11
111.9492049999999921
21
-78.4997570000000024
0
LINE
8
BLACK
6
CONTINUOUS
10
111.9492049999999921
20
-78.4997570000000024
11
111.8452419999999989
21
-78.3957939999999951
0
LINE
8
BLACK
6
CONTINUOUS
10
111.8452419999999989
20
-78.3957939999999951
11
111.7635590000000008
21
-78.2735469999999935
0
LINE
8
BLACK
6
CONTINUOUS
10
111.7635590000000008
20
-78.2735469999999935
11
111.707295000000002
21
-78.1377129999999909
0
LINE
8
BLACK
6
CONTINUOUS
10
111.707295000000002
20
-78.1377129999999909
11
111.6786109999999894
21
-77.9935119999999955
0
LINE
8
BLACK
6
CONTINUOUS
10
111.6786109999999894
20
-77.9935119999999955
11
111.6786109999999894
21
-77.8464859999999987
0
LINE
8
BLACK
6
CONTINUOUS
10
111.6786109999999894
20
-77.8464859999999987
11
111.707295000000002
21
-77.7022850000000034
0
LINE
8
BLACK
6
CONTINUOUS
10
111.707295000000002
20
-77.7022850000000034
11
111.7635590000000008
21
-77.5664510000000007
0
LINE
8
BLACK
6
CONTINUOUS
10
111.7635590000000008
20
-77.5664510000000007
11
111.8452419999999989
21
-77.4442039999999992
0
LINE
8
BLACK
6
CONTINUOUS
10
111.8452419999999989
20
-77.4442039999999992
11
111.9492049999999921
21
-77.3402409999999918
0
LINE
8
BLACK
6
CONTINUOUS
10
111.9492049999999921
20
-77.3402409999999918
11
112.0714519999999936
21
-77.2585579999999936
0
LINE
8
BLACK
6
CONTINUOUS
10
112.0714519999999936
20
-77.2585579999999936
11
112.2072859999999963
21
-77.2022939999999949
0
LINE
8
BLACK
6
CONTINUOUS
10
112.2072859999999963
20
-77.2022939999999949
11
112.3514869999999917
21
-77.1736099999999965
0
LINE
8
BLACK
6
CONTINUOUS
10
112.3514869999999917
20
-77.1736099999999965
11
112.4985129999999884
21
-77.1736099999999965
0
LINE
8
BLACK
6
CONTINUOUS
10
112.4985129999999884
20
-77.1736099999999965
11
112.642713999999998
21
-77.2022939999999949
0
LINE
8
BLACK
6
CONTINUOUS
10
112.642715999999993
20
-75.2922969999999907
11
112.7785499999999956
21
-75.3485610000000037
0
LINE
8
BLACK
6
CONTINUOUS
10
112.7785499999999956
20
-75.3485610000000037
11
112.9007969999999972
21
-75.4302440000000018
0
LINE
8
BLACK
6
CONTINUOUS
10
112.9007969999999972
20
-75.4302440000000018
11
113.0047599999999903
21
-75.534206999999995
0
LINE
8
BLACK
6
CONTINUOUS
10
113.0047599999999903
20
-75.534206999999995
11
113.0864429999999885
21
-75.6564539999999965
0
LINE
8
BLACK
6
CONTINUOUS
10
113.0864429999999885
20
-75.6564539999999965
11
113.1427070000000015
21
-75.7922879999999992
0
LINE
8
BLACK
6
CONTINUOUS
10
113.1427070000000015
20
-75.7922879999999992
11
113.1713909999999998
21
-75.9364889999999946
0
LINE
8
BLACK
6
CONTINUOUS
10
113.1713909999999998
20
-75.9364889999999946
11
113.1713909999999998
21
-76.0835149999999913
0
LINE
8
BLACK
6
CONTINUOUS
10
113.1713909999999998
20
-76.0835149999999913
11
113.1427070000000015
21
-76.2277160000000009
0
LINE
8
BLACK
6
CONTINUOUS
10
113.1427070000000015
20
-76.2277160000000009
11
113.0864429999999885
21
-76.3635500000000036
0
LINE
8
BLACK
6
CONTINUOUS
10
113.0864429999999885
20
-76.3635500000000036
11
113.0047599999999903
21
-76.4857969999999909
0
LINE
8
BLACK
6
CONTINUOUS
10
113.0047599999999903
20
-76.4857969999999909
11
112.9007969999999972
21
-76.5897599999999983
0
LINE
8
BLACK
6
CONTINUOUS
10
112.9007969999999972
20
-76.5897599999999983
11
112.7785499999999956
21
-76.6714429999999965
0
LINE
8
BLACK
6
CONTINUOUS
10
112.7785499999999956
20
-76.6714429999999965
11
112.642715999999993
21
-76.7277069999999952
0
LINE
8
BLACK
6
CONTINUOUS
10
112.642715999999993
20
-76.7277069999999952
11
112.4985149999999976
21
-76.7563909999999936
0
LINE
8
BLACK
6
CONTINUOUS
10
112.4985149999999976
20
-76.7563909999999936
11
112.3514890000000008
21
-76.7563909999999936
0
LINE
8
BLACK
6
CONTINUOUS
10
112.3514890000000008
20
-76.7563909999999936
11
112.2072879999999913
21
-76.7277069999999952
0
LINE
8
BLACK
6
CONTINUOUS
10
112.2072879999999913
20
-76.7277069999999952
11
112.0714539999999886
21
-76.6714429999999965
0
LINE
8
BLACK
6
CONTINUOUS
10
112.0714539999999886
20
-76.6714429999999965
11
111.9492070000000012
21
-76.5897599999999983
0
LINE
8
BLACK
6
CONTINUOUS
10
111.9492070000000012
20
-76.5897599999999983
11
111.8452439999999939
21
-76.4857969999999909
0
LINE
8
BLACK
6
CONTINUOUS
10
111.8452439999999939
20
-76.4857969999999909
11
111.7635609999999957
21
-76.3635500000000036
0
LINE
8
BLACK
6
CONTINUOUS
10
111.7635609999999957
20
-76.3635500000000036
11
111.707296999999997
21
-76.2277160000000009
0
LINE
8
BLACK
6
CONTINUOUS
10
111.707296999999997
20
-76.2277160000000009
11
111.6786129999999986
21
-76.0835149999999913
0
LINE
8
BLACK
6
CONTINUOUS
10
111.6786129999999986
20
-76.0835149999999913
11
111.6786129999999986
21
-75.9364889999999946
0
LINE
8
BLACK
6
CONTINUOUS
10
111.6786129999999986
20
-75.9364889999999946
11
111.707296999999997
21
-75.7922879999999992
0
LINE
8
BLACK
6
CONTINUOUS
10
111.707296999999997
20
-75.7922879999999992
11
111.7635609999999957
21
-75.6564539999999965
0
LINE
8
BLACK
6
CONTINUOUS
10
111.7635609999999957
20
-75.6564539999999965
11
111.8452439999999939
21
-75.534206999999995
0
LINE
8
BLACK
6
CONTINUOUS
10
111.8452439999999939
20
-75.534206999999995
11
111.9492070000000012
21
-75.4302440000000018
0
LINE
8
BLACK
6
CONTINUOUS
10
111.9492070000000012
20
-75.4302440000000018
11
112.0714539999999886
21
-75.3485610000000037
0
LINE
8
BLACK
6
CONTINUOUS
10
112.0714539999999886
20
-75.3485610000000037
11
112.2072879999999913
21
-75.2922969999999907
0
LINE
8
BLACK
6
CONTINUOUS
10
112.2072879999999913
20
-75.2922969999999907
11
112.3514890000000008
21
-75.2636129999999923
0
LINE
8
BLACK
6
CONTINUOUS
10
112.3514890000000008
20
-75.2636129999999923
11
112.4985149999999976
21
-75.2636129999999923
0
LINE
8
BLACK
6
CONTINUOUS
10
112.4985149999999976
20
-75.2636129999999923
11
112.642715999999993
21
-75.2922969999999907
0
LINE
8
BLACK
6
CONTINUOUS
10
134.3275189999999952
20
-66.5523859999999985
11
134.6555070000000001
21
-66.627246999999997
0
LINE
8
BLACK
6
CONTINUOUS
10
134.6555070000000001
20
-66.627246999999997
11
134.9730500000000006
21
-66.7383600000000001
0
LINE
8
BLACK
6
CONTINUOUS
10
134.9730500000000006
20
-66.7383600000000001
11
135.2761569999999836
21
-66.8843289999999939
0
LINE
8
BLACK
6
CONTINUOUS
10
135.2761569999999836
20
-66.8843289999999939
11
135.5610140000000001
21
-67.0633160000000004
0
LINE
8
BLACK
6
CONTINUOUS
10
135.5610140000000001
20
-67.0633160000000004
11
135.8240399999999966
21
-67.2730729999999966
0
LINE
8
BLACK
6
CONTINUOUS
10
135.8240399999999966
20
-67.2730729999999966
11
136.0619259999999997
21
-67.5109589999999997
0
LINE
8
BLACK
6
CONTINUOUS
10
136.0619259999999997
20
-67.5109589999999997
11
136.2716829999999959
21
-67.7739849999999961
0
LINE
8
BLACK
6
CONTINUOUS
10
136.2716829999999959
20
-67.7739849999999961
11
136.4506700000000023
21
-68.0588419999999985
0
LINE
8
BLACK
6
CONTINUOUS
10
136.4506700000000023
20
-68.0588419999999985
11
136.5966389999999819
21
-68.3619489999999956
0
LINE
8
BLACK
6
CONTINUOUS
10
136.5966389999999819
20
-68.3619489999999956
11
136.7077519999999993
21
-68.6794919999999962
0
LINE
8
BLACK
6
CONTINUOUS
10
136.7077519999999993
20
-68.6794919999999962
11
136.7826129999999978
21
-69.007480000000001
0
LINE
8
BLACK
6
CONTINUOUS
10
136.7826129999999978
20
-69.007480000000001
11
136.8202799999999968
21
-69.341787999999994
0
LINE
8
BLACK
6
CONTINUOUS
10
136.8202799999999968
20
-69.341787999999994
11
136.8249999999999886
21
-69.5099989999999934
0
LINE
8
BLACK
6
CONTINUOUS
10
136.8249999999999886
20
-69.5099989999999934
11
136.8249999999999886
21
-72.5099989999999934
0
LINE
8
BLACK
6
CONTINUOUS
10
136.8249999999999886
20
-72.5099989999999934
11
136.8202799999999968
21
-72.6782099999999929
0
LINE
8
BLACK
6
CONTINUOUS
10
136.8202799999999968
20
-72.6782099999999929
11
136.7826129999999978
21
-73.012518
0
LINE
8
BLACK
6
CONTINUOUS
10
136.7826129999999978
20
-73.012518
11
136.7077519999999993
21
-73.3405059999999906
0
LINE
8
BLACK
6
CONTINUOUS
10
136.7077519999999993
20
-73.3405059999999906
11
136.5966389999999819
21
-73.6580489999999912
0
LINE
8
BLACK
6
CONTINUOUS
10
136.5966389999999819
20
-73.6580489999999912
11
136.4506700000000023
21
-73.9611560000000026
0
LINE
8
BLACK
6
CONTINUOUS
10
136.4506700000000023
20
-73.9611560000000026
11
136.2716829999999959
21
-74.2460129999999907
0
LINE
8
BLACK
6
CONTINUOUS
10
136.2716829999999959
20
-74.2460129999999907
11
136.0619259999999997
21
-74.5090390000000014
0
LINE
8
BLACK
6
CONTINUOUS
10
136.0619259999999997
20
-74.5090390000000014
11
135.8240399999999966
21
-74.7469249999999903
0
LINE
8
BLACK
6
CONTINUOUS
10
135.8240399999999966
20
-74.7469249999999903
11
135.5610140000000001
21
-74.9566820000000007
0
LINE
8
BLACK
6
CONTINUOUS
10
135.5610140000000001
20
-74.9566820000000007
11
135.2761569999999836
21
-75.1356689999999929
0
LINE
8
BLACK
6
CONTINUOUS
10
135.2761569999999836
20
-75.1356689999999929
11
134.9730500000000006
21
-75.2816380000000009
0
LINE
8
BLACK
6
CONTINUOUS
10
134.9730500000000006
20
-75.2816380000000009
11
134.6555070000000001
21
-75.3927509999999899
0
LINE
8
BLACK
6
CONTINUOUS
10
134.6555070000000001
20
-75.3927509999999899
11
134.3275189999999952
21
-75.4676120000000026
0
LINE
8
BLACK
6
CONTINUOUS
10
134.3275189999999952
20
-75.4676120000000026
11
133.9932110000000023
21
-75.5052790000000016
0
LINE
8
BLACK
6
CONTINUOUS
10
133.9932110000000023
20
-75.5052790000000016
11
133.6567890000000034
21
-75.5052790000000016
0
LINE
8
BLACK
6
CONTINUOUS
10
133.6567890000000034
20
-75.5052790000000016
11
133.322480999999982
21
-75.4676120000000026
0
LINE
8
BLACK
6
CONTINUOUS
10
133.322480999999982
20
-75.4676120000000026
11
132.9944930000000056
21
-75.3927509999999899
0
LINE
8
BLACK
6
CONTINUOUS
10
132.9944930000000056
20
-75.3927509999999899
11
132.676950000000005
21
-75.2816380000000009
0
LINE
8
BLACK
6
CONTINUOUS
10
132.676950000000005
20
-75.2816380000000009
11
132.3738429999999937
21
-75.1356689999999929
0
LINE
8
BLACK
6
CONTINUOUS
10
132.3738429999999937
20
-75.1356689999999929
11
132.0889860000000056
21
-74.9566820000000007
0
LINE
8
BLACK
6
CONTINUOUS
10
132.0889860000000056
20
-74.9566820000000007
11
131.8259599999999807
21
-74.7469249999999903
0
LINE
8
BLACK
6
CONTINUOUS
10
131.8259599999999807
20
-74.7469249999999903
11
131.588074000000006
21
-74.5090390000000014
0
LINE
8
BLACK
6
CONTINUOUS
10
131.588074000000006
20
-74.5090390000000014
11
131.3783169999999814
21
-74.2460129999999907
0
LINE
8
BLACK
6
CONTINUOUS
10
131.3783169999999814
20
-74.2460129999999907
11
131.1993300000000033
21
-73.9611560000000026
0
LINE
8
BLACK
6
CONTINUOUS
10
131.1993300000000033
20
-73.9611560000000026
11
131.0533609999999953
21
-73.6580489999999912
0
LINE
8
BLACK
6
CONTINUOUS
10
131.0533609999999953
20
-73.6580489999999912
11
130.9422480000000064
21
-73.3405059999999906
0
LINE
8
BLACK
6
CONTINUOUS
10
130.9422480000000064
20
-73.3405059999999906
11
130.8673870000000079
21
-73.012518
0
LINE
8
BLACK
6
CONTINUOUS
10
130.8673870000000079
20
-73.012518
11
130.8297199999999805
21
-72.6782099999999929
0
LINE
8
BLACK
6
CONTINUOUS
10
130.8297199999999805
20
-72.6782099999999929
11
130.8249999999999886
21
-72.5099989999999934
0
LINE
8
BLACK
6
CONTINUOUS
10
130.8249999999999886
20
-72.5099989999999934
11
130.8249999999999886
21
-69.5099989999999934
0
LINE
8
BLACK
6
CONTINUOUS
10
130.8249999999999886
20
-69.5099989999999934
11
130.8297199999999805
21
-69.341787999999994
0
LINE
8
BLACK
6
CONTINUOUS
10
130.8297199999999805
20
-69.341787999999994
11
130.8673870000000079
21
-69.007480000000001
0
LINE
8
BLACK
6
CONTINUOUS
10
130.8673870000000079
20
-69.007480000000001
11
130.9422480000000064
21
-68.6794919999999962
0
LINE
8
BLACK
6
CONTINUOUS
10
130.9422480000000064
20
-68.6794919999999962
11
131.0533609999999953
21
-68.3619489999999956
0
LINE
8
BLACK
6
CONTINUOUS
10
131.0533609999999953
20
-68.3619489999999956
11
131.1993300000000033
21
-68.0588419999999985
0
LINE
8
BLACK
6
CONTINUOUS
10
131.1993300000000033
20
-68.0588419999999985
11
131.3783169999999814
21
-67.7739849999999961
0
LINE
8
BLACK
6
CONTINUOUS
10
131.3783169999999814
20
-67.7739849999999961
11
131.588074000000006
21
-67.5109589999999997
0
LINE
8
BLACK
6
CONTINUOUS
10
131.588074000000006
20
-67.5109589999999997
11
131.8259599999999807
21
-67.2730729999999966
0
LINE
8
BLACK
6
CONTINUOUS
10
131.8259599999999807
20
-67.2730729999999966
11
132.0889860000000056
21
-67.0633160000000004
0
LINE
8
BLACK
6
CONTINUOUS
10
132.0889860000000056
20
-67.0633160000000004
11
132.3738429999999937
21
-66.8843289999999939
0
LINE
8
BLACK
6
CONTINUOUS
10
132.3738429999999937
20
-66.8843289999999939
11
132.676950000000005
21
-66.7383600000000001
0
LINE
8
BLACK
6
CONTINUOUS
10
132.676950000000005
20
-66.7383600000000001
11
132.9944930000000056
21
-66.627246999999997
0
LINE
8
BLACK
6
CONTINUOUS
10
132.9944930000000056
20
-66.627246999999997
11
133.322480999999982
21
-66.5523859999999985
0
LINE
8
BLACK
6
CONTINUOUS
10
133.322480999999982
20
-66.5523859999999985
11
133.6567890000000034
21
-66.5147189999999995
0
LINE
8
BLACK
6
CONTINUOUS
10
133.6567890000000034
20
-66.5147189999999995
11
133.9932110000000023
21
-66.5147189999999995
0
LINE
8
BLACK
6
CONTINUOUS
10
133.9932110000000023
20
-66.5147189999999995
11
134.3275189999999952
21
-66.5523859999999985
0
LINE
8
BLACK
6
CONTINUOUS
10
113.1749999999999972
20
-74.8499989999999968
11
111.6749999999999972
21
-74.8499989999999968
0
LINE
8
BLACK
6
CONTINUOUS
10
111.6749999999999972
20
-74.8499989999999968
11
111.6749999999999972
21
-73.3499989999999968
0
LINE
8
BLACK
6
CONTINUOUS
10
111.6749999999999972
20
-73.3499989999999968
11
113.1749999999999972
21
-73.3499989999999968
0
LINE
8
BLACK
6
CONTINUOUS
10
113.1749999999999972
20
-73.3499989999999968
11
113.1749999999999972
21
-74.8499989999999968
0
LINE
8
BLACK
6
CONTINUOUS
10
126.125
20
-65.9874999999999972
11
122.0749999999999886
21
-65.9874999999999972
0
LINE
8
BLACK
6
CONTINUOUS
10
122.0749999999999886
20
-65.9874999999999972
11
122.0749999999999886
21
-61.9375
0
LINE
8
BLACK
6
CONTINUOUS
10
122.0749999999999886
20
-61.9375
11
126.125
21
-61.9375
0
LINE
8
BLACK
6
CONTINUOUS
10
126.125
20
-61.9375
11
126.125
21
-65.9874999999999972
0
LINE
8
BLACK
6
CONTINUOUS
10
131.6950579999999889
20
-61.9764099999999942
11
131.9509149999999806
21
-62.0449659999999952
0
LINE
8
BLACK
6
CONTINUOUS
10
131.9509149999999806
20
-62.0449659999999952
11
132.1956349999999816
21
-62.1463329999999985
0
LINE
8
BLACK
6
CONTINUOUS
10
132.1956349999999816
20
-62.1463329999999985
11
132.4250299999999925
21
-62.2787739999999985
0
LINE
8
BLACK
6
CONTINUOUS
10
132.4250299999999925
20
-62.2787739999999985
11
132.6351750000000038
21
-62.440023999999994
0
LINE
8
BLACK
6
CONTINUOUS
10
132.6351750000000038
20
-62.440023999999994
11
132.8224759999999947
21
-62.627324999999999
0
LINE
8
BLACK
6
CONTINUOUS
10
132.8224759999999947
20
-62.627324999999999
11
132.9837259999999901
21
-62.8374699999999962
0
LINE
8
BLACK
6
CONTINUOUS
10
132.9837259999999901
20
-62.8374699999999962
11
133.1161669999999901
21
-63.066865
0
LINE
8
BLACK
6
CONTINUOUS
10
133.1161669999999901
20
-63.066865
11
133.2175340000000006
21
-63.3115849999999938
0
LINE
8
BLACK
6
CONTINUOUS
10
133.2175340000000006
20
-63.3115849999999938
11
133.2860900000000015
21
-63.5674419999999998
0
LINE
8
BLACK
6
CONTINUOUS
10
133.2860900000000015
20
-63.5674419999999998
11
133.3206639999999936
21
-63.8300589999999985
0
LINE
8
BLACK
6
CONTINUOUS
10
133.3206639999999936
20
-63.8300589999999985
11
133.3206639999999936
21
-64.0949409999999915
0
LINE
8
BLACK
6
CONTINUOUS
10
133.3206639999999936
20
-64.0949409999999915
11
133.2860900000000015
21
-64.3575579999999974
0
LINE
8
BLACK
6
CONTINUOUS
10
133.2860900000000015
20
-64.3575579999999974
11
133.2175340000000006
21
-64.6134150000000034
0
LINE
8
BLACK
6
CONTINUOUS
10
133.2175340000000006
20
-64.6134150000000034
11
133.1161669999999901
21
-64.8581349999999901
0
LINE
8
BLACK
6
CONTINUOUS
10
133.1161669999999901
20
-64.8581349999999901
11
132.9837259999999901
21
-65.087530000000001
0
LINE
8
BLACK
6
CONTINUOUS
10
132.9837259999999901
20
-65.087530000000001
11
132.8224759999999947
21
-65.2976749999999981
0
LINE
8
BLACK
6
CONTINUOUS
10
132.8224759999999947
20
-65.2976749999999981
11
132.6351750000000038
21
-65.4849760000000032
0
LINE
8
BLACK
6
CONTINUOUS
10
132.6351750000000038
20
-65.4849760000000032
11
132.4250299999999925
21
-65.6462259999999986
0
LINE
8
BLACK
6
CONTINUOUS
10
132.4250299999999925
20
-65.6462259999999986
11
132.1956349999999816
21
-65.7786669999999987
0
LINE
8
BLACK
6
CONTINUOUS
10
132.1956349999999816
20
-65.7786669999999987
11
131.9509149999999806
21
-65.8800339999999949
0
LINE
8
BLACK
6
CONTINUOUS
10
131.9509149999999806
20
-65.8800339999999949
11
131.6950579999999889
21
-65.9485899999999958
0
LINE
8
BLACK
6
CONTINUOUS
10
131.6950579999999889
20
-65.9485899999999958
11
131.432440999999983
21
-65.9831640000000021
0
LINE
8
BLACK
6
CONTINUOUS
10
131.432440999999983
20
-65.9831640000000021
11
131.1675589999999829
21
-65.9831640000000021
0
LINE
8
BLACK
6
CONTINUOUS
10
131.1675589999999829
20
-65.9831640000000021
11
130.9049420000000055
21
-65.9485899999999958
0
LINE
8
BLACK
6
CONTINUOUS
10
130.9049420000000055
20
-65.9485899999999958
11
130.6490849999999853
21
-65.8800339999999949
0
LINE
8
BLACK
6
CONTINUOUS
10
130.6490849999999853
20
-65.8800339999999949
11
130.4043649999999843
21
-65.7786669999999987
0
LINE
8
BLACK
6
CONTINUOUS
10
130.4043649999999843
20
-65.7786669999999987
11
130.1749700000000018
21
-65.6462259999999986
0
LINE
8
BLACK
6
CONTINUOUS
10
130.1749700000000018
20
-65.6462259999999986
11
129.9648249999999905
21
-65.4849760000000032
0
LINE
8
BLACK
6
CONTINUOUS
10
129.9648249999999905
20
-65.4849760000000032
11
129.7775239999999997
21
-65.2976749999999981
0
LINE
8
BLACK
6
CONTINUOUS
10
129.7775239999999997
20
-65.2976749999999981
11
129.6162740000000042
21
-65.087530000000001
0
LINE
8
BLACK
6
CONTINUOUS
10
129.6162740000000042
20
-65.087530000000001
11
129.4838330000000042
21
-64.8581349999999901
0
LINE
8
BLACK
6
CONTINUOUS
10
129.4838330000000042
20
-64.8581349999999901
11
129.3824659999999938
21
-64.6134150000000034
0
LINE
8
BLACK
6
CONTINUOUS
10
129.3824659999999938
20
-64.6134150000000034
11
129.3139099999999928
21
-64.3575579999999974
0
LINE
8
BLACK
6
CONTINUOUS
10
129.3139099999999928
20
-64.3575579999999974
11
129.2793360000000007
21
-64.0949409999999915
0
LINE
8
BLACK
6
CONTINUOUS
10
129.2793360000000007
20
-64.0949409999999915
11
129.2793360000000007
21
-63.8300589999999985
0
LINE
8
BLACK
6
CONTINUOUS
10
129.2793360000000007
20
-63.8300589999999985
11
129.3139099999999928
21
-63.5674419999999998
0
LINE
8
BLACK
6
CONTINUOUS
10
129.3139099999999928
20
-63.5674419999999998
11
129.3824659999999938
21
-63.3115849999999938
0
LINE
8
BLACK
6
CONTINUOUS
10
129.3824659999999938
20
-63.3115849999999938
11
129.4838330000000042
21
-63.066865
0
LINE
8
BLACK
6
CONTINUOUS
10
129.4838330000000042
20
-63.066865
11
129.6162740000000042
21
-62.8374699999999962
0
LINE
8
BLACK
6
CONTINUOUS
10
129.6162740000000042
20
-62.8374699999999962
11
129.7775239999999997
21
-62.627324999999999
0
LINE
8
BLACK
6
CONTINUOUS
10
129.7775239999999997
20
-62.627324999999999
11
129.9648249999999905
21
-62.440023999999994
0
LINE
8
BLACK
6
CONTINUOUS
10
129.9648249999999905
20
-62.440023999999994
11
130.1749700000000018
21
-62.2787739999999985
0
LINE
8
BLACK
6
CONTINUOUS
10
130.1749700000000018
20
-62.2787739999999985
11
130.4043649999999843
21
-62.1463329999999985
0
LINE
8
BLACK
6
CONTINUOUS
10
130.4043649999999843
20
-62.1463329999999985
11
130.6490849999999853
21
-62.0449659999999952
0
LINE
8
BLACK
6
CONTINUOUS
10
130.6490849999999853
20
-62.0449659999999952
11
130.9049420000000055
21
-61.9764099999999942
0
LINE
8
BLACK
6
CONTINUOUS
10
130.9049420000000055
20
-61.9764099999999942
11
131.1675589999999829
21
-61.941835999999995
0
LINE
8
BLACK
6
CONTINUOUS
10
131.1675589999999829
20
-61.941835999999995
11
131.432440999999983
21
-61.941835999999995
0
LINE
8
BLACK
6
CONTINUOUS
10
131.432440999999983
20
-61.941835999999995
11
131.6950579999999889
21
-61.9764099999999942
0
LINE
8
BLACK
6
CONTINUOUS
10
121.2651509999999888
20
-56.6498009999999965
11
121.4666229999999985
21
-56.7152630000000002
0
LINE
8
BLACK
6
CONTINUOUS
10
121.4666229999999985
20
-56.7152630000000002
11
121.6553729999999973
21
-56.8114360000000005
0
LINE
8
BLACK
6
CONTINUOUS
10
121.6553729999999973
20
-56.8114360000000005
11
121.8267549999999915
21
-56.9359520000000003
0
LINE
8
BLACK
6
CONTINUOUS
10
121.8267549999999915
20
-56.9359520000000003
11
121.976547999999994
21
-57.0857449999999957
0
LINE
8
BLACK
6
CONTINUOUS
10
121.976547999999994
20
-57.0857449999999957
11
122.1010639999999938
21
-57.257126999999997
0
LINE
8
BLACK
6
CONTINUOUS
10
122.1010639999999938
20
-57.257126999999997
11
122.1972370000000012
21
-57.4458769999999959
0
LINE
8
BLACK
6
CONTINUOUS
10
122.1972370000000012
20
-57.4458769999999959
11
122.2626989999999978
21
-57.6473489999999984
0
LINE
8
BLACK
6
CONTINUOUS
10
122.2626989999999978
20
-57.6473489999999984
11
122.2958379999999892
21
-57.8565799999999939
0
LINE
8
BLACK
6
CONTINUOUS
10
122.2958379999999892
20
-57.8565799999999939
11
122.2958379999999892
21
-58.0684199999999962
0
LINE
8
BLACK
6
CONTINUOUS
10
122.2958379999999892
20
-58.0684199999999962
11
122.2626989999999978
21
-58.2776509999999988
0
LINE
8
BLACK
6
CONTINUOUS
10
122.2626989999999978
20
-58.2776509999999988
11
122.1972370000000012
21
-58.4791229999999942
0
LINE
8
BLACK
6
CONTINUOUS
10
122.1972370000000012
20
-58.4791229999999942
11
122.1010639999999938
21
-58.6678730000000002
0
LINE
8
BLACK
6
CONTINUOUS
10
122.1010639999999938
20
-58.6678730000000002
11
121.976547999999994
21
-58.8392549999999943
0
LINE
8
BLACK
6
CONTINUOUS
10
121.976547999999994
20
-58.8392549999999943
11
121.8267549999999915
21
-58.9890479999999968
0
LINE
8
BLACK
6
CONTINUOUS
10
121.8267549999999915
20
-58.9890479999999968
11
121.6553729999999973
21
-59.1135639999999967
0
LINE
8
BLACK
6
CONTINUOUS
10
121.6553729999999973
20
-59.1135639999999967
11
121.4666229999999985
21
-59.209736999999997
0
LINE
8
BLACK
6
CONTINUOUS
10
121.4666229999999985
20
-59.209736999999997
11
121.2651509999999888
21
-59.2751990000000006
0
LINE
8
BLACK
6
CONTINUOUS
10
121.2651509999999888
20
-59.2751990000000006
11
121.0559200000000004
21
-59.3083379999999991
0
LINE
8
BLACK
6
CONTINUOUS
10
121.0559200000000004
20
-59.3083379999999991
11
120.8440799999999911
21
-59.3083379999999991
0
LINE
8
BLACK
6
CONTINUOUS
10
120.8440799999999911
20
-59.3083379999999991
11
120.6348489999999885
21
-59.2751990000000006
0
LINE
8
BLACK
6
CONTINUOUS
10
120.6348489999999885
20
-59.2751990000000006
11
120.433376999999993
21
-59.209736999999997
0
LINE
8
BLACK
6
CONTINUOUS
10
120.433376999999993
20
-59.209736999999997
11
120.2446269999999942
21
-59.1135639999999967
0
LINE
8
BLACK
6
CONTINUOUS
10
120.2446269999999942
20
-59.1135639999999967
11
120.073245
21
-58.9890479999999968
0
LINE
8
BLACK
6
CONTINUOUS
10
120.073245
20
-58.9890479999999968
11
119.9234519999999975
21
-58.8392549999999943
0
LINE
8
BLACK
6
CONTINUOUS
10
119.9234519999999975
20
-58.8392549999999943
11
119.7989359999999976
21
-58.6678730000000002
0
LINE
8
BLACK
6
CONTINUOUS
10
119.7989359999999976
20
-58.6678730000000002
11
119.7027629999999903
21
-58.4791229999999942
0
LINE
8
BLACK
6
CONTINUOUS
10
119.7027629999999903
20
-58.4791229999999942
11
119.6373009999999937
21
-58.2776509999999988
0
LINE
8
BLACK
6
CONTINUOUS
10
119.6373009999999937
20
-58.2776509999999988
11
119.6041619999999881
21
-58.0684199999999962
0
LINE
8
BLACK
6
CONTINUOUS
10
119.6041619999999881
20
-58.0684199999999962
11
119.6041619999999881
21
-57.8565799999999939
0
LINE
8
BLACK
6
CONTINUOUS
10
119.6041619999999881
20
-57.8565799999999939
11
119.6373009999999937
21
-57.6473489999999984
0
LINE
8
BLACK
6
CONTINUOUS
10
119.6373009999999937
20
-57.6473489999999984
11
119.7027629999999903
21
-57.4458769999999959
0
LINE
8
BLACK
6
CONTINUOUS
10
119.7027629999999903
20
-57.4458769999999959
11
119.7989359999999976
21
-57.257126999999997
0
LINE
8
BLACK
6
CONTINUOUS
10
119.7989359999999976
20
-57.257126999999997
11
119.9234519999999975
21
-57.0857449999999957
0
LINE
8
BLACK
6
CONTINUOUS
10
119.9234519999999975
20
-57.0857449999999957
11
120.073245
21
-56.9359520000000003
0
LINE
8
BLACK
6
CONTINUOUS
10
120.073245
20
-56.9359520000000003
11
120.2446269999999942
21
-56.8114360000000005
0
LINE
8
BLACK
6
CONTINUOUS
10
120.2446269999999942
20
-56.8114360000000005
11
120.433376999999993
21
-56.7152630000000002
0
LINE
8
BLACK
6
CONTINUOUS
10
120.433376999999993
20
-56.7152630000000002
11
120.6348489999999885
21
-56.6498009999999965
0
LINE
8
BLACK
6
CONTINUOUS
10
120.6348489999999885
20
-56.6498009999999965
11
120.8440799999999911
21
-56.616661999999998
0
LINE
8
BLACK
6
CONTINUOUS
10
120.8440799999999911
20
-56.616661999999998
11
121.0559200000000004
21
-56.616661999999998
0
LINE
8
BLACK
6
CONTINUOUS
10
121.0559200000000004
20
-56.616661999999998
11
121.2651509999999888
21
-56.6498009999999965
0
LINE
8
BLACK
6
CONTINUOUS
10
134.765151000000003
20
-56.6498009999999965
11
134.9666229999999985
21
-56.7152630000000002
0
LINE
8
BLACK
6
CONTINUOUS
10
134.9666229999999985
20
-56.7152630000000002
11
135.1553729999999973
21
-56.8114360000000005
0
LINE
8
BLACK
6
CONTINUOUS
10
135.1553729999999973
20
-56.8114360000000005
11
135.3267549999999915
21
-56.9359520000000003
0
LINE
8
BLACK
6
CONTINUOUS
10
135.3267549999999915
20
-56.9359520000000003
11
135.4765479999999798
21
-57.0857449999999957
0
LINE
8
BLACK
6
CONTINUOUS
10
135.4765479999999798
20
-57.0857449999999957
11
135.601064000000008
21
-57.257126999999997
0
LINE
8
BLACK
6
CONTINUOUS
10
135.601064000000008
20
-57.257126999999997
11
135.6972370000000012
21
-57.4458769999999959
0
LINE
8
BLACK
6
CONTINUOUS
10
135.6972370000000012
20
-57.4458769999999959
11
135.7626989999999978
21
-57.6473489999999984
0
LINE
8
BLACK
6
CONTINUOUS
10
135.7626989999999978
20
-57.6473489999999984
11
135.7958380000000034
21
-57.8565799999999939
0
LINE
8
BLACK
6
CONTINUOUS
10
135.7958380000000034
20
-57.8565799999999939
11
135.7958380000000034
21
-58.0684199999999962
0
LINE
8
BLACK
6
CONTINUOUS
10
135.7958380000000034
20
-58.0684199999999962
11
135.7626989999999978
21
-58.2776509999999988
0
LINE
8
BLACK
6
CONTINUOUS
10
135.7626989999999978
20
-58.2776509999999988
11
135.6972370000000012
21
-58.4791229999999942
0
LINE
8
BLACK
6
CONTINUOUS
10
135.6972370000000012
20
-58.4791229999999942
11
135.601064000000008
21
-58.6678730000000002
0
LINE
8
BLACK
6
CONTINUOUS
10
135.601064000000008
20
-58.6678730000000002
11
135.4765479999999798
21
-58.8392549999999943
0
LINE
8
BLACK
6
CONTINUOUS
10
135.4765479999999798
20
-58.8392549999999943
11
135.3267549999999915
21
-58.9890479999999968
0
LINE
8
BLACK
6
CONTINUOUS
10
135.3267549999999915
20
-58.9890479999999968
11
135.1553729999999973
21
-59.1135639999999967
0
LINE
8
BLACK
6
CONTINUOUS
10
135.1553729999999973
20
-59.1135639999999967
11
134.9666229999999985
21
-59.209736999999997
0
LINE
8
BLACK
6
CONTINUOUS
10
134.9666229999999985
20
-59.209736999999997
11
134.765151000000003
21
-59.2751990000000006
0
LINE
8
BLACK
6
CONTINUOUS
10
134.765151000000003
20
-59.2751990000000006
11
134.5559199999999862
21
-59.3083379999999991
0
LINE
8
BLACK
6
CONTINUOUS
10
134.5559199999999862
20
-59.3083379999999991
11
134.3440799999999911
21
-59.3083379999999991
0
LINE
8
BLACK
6
CONTINUOUS
10
134.3440799999999911
20
-59.3083379999999991
11
134.1348490000000027
21
-59.2751990000000006
0
LINE
8
BLACK
6
CONTINUOUS
10
134.1348490000000027
20
-59.2751990000000006
11
133.9333770000000072
21
-59.209736999999997
0
LINE
8
BLACK
6
CONTINUOUS
10
133.9333770000000072
20
-59.209736999999997
11
133.7446269999999799
21
-59.1135639999999967
0
LINE
8
BLACK
6
CONTINUOUS
10
133.7446269999999799
20
-59.1135639999999967
11
133.5732449999999858
21
-58.9890479999999968
0
LINE
8
BLACK
6
CONTINUOUS
10
133.5732449999999858
20
-58.9890479999999968
11
133.4234519999999975
21
-58.8392549999999943
0
LINE
8
BLACK
6
CONTINUOUS
10
133.4234519999999975
20
-58.8392549999999943
11
133.2989359999999976
21
-58.6678730000000002
0
LINE
8
BLACK
6
CONTINUOUS
10
133.2989359999999976
20
-58.6678730000000002
11
133.2027630000000045
21
-58.4791229999999942
0
LINE
8
BLACK
6
CONTINUOUS
10
133.2027630000000045
20
-58.4791229999999942
11
133.1373010000000079
21
-58.2776509999999988
0
LINE
8
BLACK
6
CONTINUOUS
10
133.1373010000000079
20
-58.2776509999999988
11
133.1041620000000023
21
-58.0684199999999962
0
LINE
8
BLACK
6
CONTINUOUS
10
133.1041620000000023
20
-58.0684199999999962
11
133.1041620000000023
21
-57.8565799999999939
0
LINE
8
BLACK
6
CONTINUOUS
10
133.1041620000000023
20
-57.8565799999999939
11
133.1373010000000079
21
-57.6473489999999984
0
LINE
8
BLACK
6
CONTINUOUS
10
133.1373010000000079
20
-57.6473489999999984
11
133.2027630000000045
21
-57.4458769999999959
0
LINE
8
BLACK
6
CONTINUOUS
10
133.2027630000000045
20
-57.4458769999999959
11
133.2989359999999976
21
-57.257126999999997
0
LINE
8
BLACK
6
CONTINUOUS
10
133.2989359999999976
20
-57.257126999999997
11
133.4234519999999975
21
-57.0857449999999957
0
LINE
8
BLACK
6
CONTINUOUS
10
133.4234519999999975
20
-57.0857449999999957
11
133.5732449999999858
21
-56.9359520000000003
0
LINE
8
BLACK
6
CONTINUOUS
10
133.5732449999999858
20
-56.9359520000000003
11
133.7446269999999799
21
-56.8114360000000005
0
LINE
8
BLACK
6
CONTINUOUS
10
133.7446269999999799
20
-56.8114360000000005
11
133.9333770000000072
21
-56.7152630000000002
0
LINE
8
BLACK
6
CONTINUOUS
10
133.9333770000000072
20
-56.7152630000000002
11
134.1348490000000027
21
-56.6498009999999965
0
LINE
8
BLACK
6
CONTINUOUS
10
134.1348490000000027
20
-56.6498009999999965
11
134.3440799999999911
21
-56.616661999999998
0
LINE
8
BLACK
6
CONTINUOUS
10
134.3440799999999911
20
-56.616661999999998
11
134.5559199999999862
21
-56.616661999999998
0
LINE
8
BLACK
6
CONTINUOUS
10
134.5559199999999862
20
-56.616661999999998
11
134.765151000000003
21
-56.6498009999999965
  0
ENDSEC
  0
EOF
