  0
SECTION
  2
HEADER
  9
$ANGBASE
  50
0.0
  9
$ANGDIR
  70
1
  9
$MEASUREMENT
  70
1
  0
ENDSEC
  0
SECTION
  2
TABLES
  0
TABLE
  2
LTYPE
  70
4
  0
LTYPE
  5
40F
  2
CONTINUOUS
  70
0
  3
Solid line
  72
65
  73
0
  40
0.0
  0
LTYPE
  5
410
  2
DASHDOT
 70
0
  3
Dash Dot ____ _ ____ _
 72
65
 73
4
 40
2.0
 49
1.25
 49
-0.25
 49
0.25
 49
-0.25
  0
LTYPE
  5
411
  2
DASHED
 70
0
  3
Dashed __ __ __ __ __
 72
65
 73
2
 40
0.75
 49
0.5
 49
-0.25
  0
LTYPE
  5
43B
  2
DOTTED
 70
0
  3
Dotted .  .  .  .
 72
65
 73
2
 40
0.2
 49
0.0
 49
-0.2
  0
ENDTAB
  0
TABLE
  2
STYLE
  70
4
  0
STYLE
  2
KICAD
  70
0
  40
0
  41
1
  42
1
  50
0
  71
0
  3
isocp.shx
  0
STYLE
  2
KICADB
  70
0
  40
0
  41
1
  42
1
  50
0
  71
0
  3
isocp.shx
  0
STYLE
  2
KICADI
  70
0
  40
0
  41
1
  42
1
  50
15
  71
0
  3
isocp.shx
  0
STYLE
  2
KICADBI
  70
0
  40
0
  41
1
  42
1
  50
15
  71
0
  3
isocp.shx
  0
ENDTAB
  0
TABLE
  2
LAYER
  70
35
  0
LAYER
  2
BLACK
  70
0
  62
7
  6
CONTINUOUS
  0
LAYER
  2
GRAY1
  70
0
  62
251
  6
CONTINUOUS
  0
LAYER
  2
GRAY2
  70
0
  62
8
  6
CONTINUOUS
  0
LAYER
  2
GRAY3
  70
0
  62
9
  6
CONTINUOUS
  0
LAYER
  2
WHITE
  70
0
  62
7
  6
CONTINUOUS
  0
LAYER
  2
LYELLOW
  70
0
  62
51
  6
CONTINUOUS
  0
LAYER
  2
LORANGE
  70
0
  62
41
  6
CONTINUOUS
  0
LAYER
  2
BLUE1
  70
0
  62
178
  6
CONTINUOUS
  0
LAYER
  2
GREEN1
  70
0
  62
98
  6
CONTINUOUS
  0
LAYER
  2
CYAN1
  70
0
  62
138
  6
CONTINUOUS
  0
LAYER
  2
RED1
  70
0
  62
18
  6
CONTINUOUS
  0
LAYER
  2
MAGENTA1
  70
0
  62
228
  6
CONTINUOUS
  0
LAYER
  2
BROWN1
  70
0
  62
58
  6
CONTINUOUS
  0
LAYER
  2
ORANGE1
  70
0
  62
34
  6
CONTINUOUS
  0
LAYER
  2
BLUE2
  70
0
  62
5
  6
CONTINUOUS
  0
LAYER
  2
GREEN2
  70
0
  62
3
  6
CONTINUOUS
  0
LAYER
  2
CYAN2
  70
0
  62
4
  6
CONTINUOUS
  0
LAYER
  2
RED2
  70
0
  62
1
  6
CONTINUOUS
  0
LAYER
  2
MAGENTA2
  70
0
  62
6
  6
CONTINUOUS
  0
LAYER
  2
BROWN2
  70
0
  62
54
  6
CONTINUOUS
  0
LAYER
  2
ORANGE2
  70
0
  62
42
  6
CONTINUOUS
  0
LAYER
  2
BLUE3
  70
0
  62
171
  6
CONTINUOUS
  0
LAYER
  2
GREEN3
  70
0
  62
91
  6
CONTINUOUS
  0
LAYER
  2
CYAN3
  70
0
  62
131
  6
CONTINUOUS
  0
LAYER
  2
RED3
  70
0
  62
11
  6
CONTINUOUS
  0
LAYER
  2
MAGENTA3
  70
0
  62
221
  6
CONTINUOUS
  0
LAYER
  2
YELLOW3
  70
0
  62
2
  6
CONTINUOUS
  0
LAYER
  2
ORANGE3
  70
0
  62
32
  6
CONTINUOUS
  0
LAYER
  2
BLUE4
  70
0
  62
5
  6
CONTINUOUS
  0
LAYER
  2
GREEN4
  70
0
  62
3
  6
CONTINUOUS
  0
LAYER
  2
CYAN4
  70
0
  62
4
  6
CONTINUOUS
  0
LAYER
  2
RED4
  70
0
  62
1
  6
CONTINUOUS
  0
LAYER
  2
MAGENTA4
  70
0
  62
6
  6
CONTINUOUS
  0
LAYER
  2
YELLOW4
  70
0
  62
2
  6
CONTINUOUS
  0
LAYER
  2
ORANGE4
  70
0
  62
40
  6
CONTINUOUS
  0
ENDTAB
  0
ENDSEC
  0
SECTION
  2
ENTITIES
0
LINE
8
LYELLOW
6
CONTINUOUS
10
108.9948359999999923
20
-67.9795610000000039
11
108.8995979999999975
21
-68.0747999999999962
0
LINE
8
LYELLOW
6
CONTINUOUS
10
108.8995979999999975
20
-68.0747999999999962
11
108.6138839999999988
21
-68.170037999999991
0
LINE
8
LYELLOW
6
CONTINUOUS
10
108.6138839999999988
20
-68.170037999999991
11
108.4234079999999949
21
-68.170037999999991
0
LINE
8
LYELLOW
6
CONTINUOUS
10
108.4234079999999949
20
-68.170037999999991
11
108.1376929999999987
21
-68.0747999999999962
0
LINE
8
LYELLOW
6
CONTINUOUS
10
108.1376929999999987
20
-68.0747999999999962
11
107.9472169999999949
21
-67.8843229999999949
0
LINE
8
LYELLOW
6
CONTINUOUS
10
107.9472169999999949
20
-67.8843229999999949
11
107.851979
21
-67.693846999999991
0
LINE
8
LYELLOW
6
CONTINUOUS
10
107.851979
20
-67.693846999999991
11
107.756740999999991
21
-67.3128949999999975
0
LINE
8
LYELLOW
6
CONTINUOUS
10
107.756740999999991
20
-67.3128949999999975
11
107.756740999999991
21
-67.0271800000000013
0
LINE
8
LYELLOW
6
CONTINUOUS
10
107.756740999999991
20
-67.0271800000000013
11
107.851979
21
-66.6462279999999936
0
LINE
8
LYELLOW
6
CONTINUOUS
10
107.851979
20
-66.6462279999999936
11
107.9472169999999949
21
-66.4557520000000039
0
LINE
8
LYELLOW
6
CONTINUOUS
10
107.9472169999999949
20
-66.4557520000000039
11
108.1376929999999987
21
-66.2652760000000001
0
LINE
8
LYELLOW
6
CONTINUOUS
10
108.1376929999999987
20
-66.2652760000000001
11
108.4234079999999949
21
-66.170037999999991
0
LINE
8
LYELLOW
6
CONTINUOUS
10
108.4234079999999949
20
-66.170037999999991
11
108.6138839999999988
21
-66.170037999999991
0
LINE
8
LYELLOW
6
CONTINUOUS
10
108.6138839999999988
20
-66.170037999999991
11
108.8995979999999975
21
-66.2652760000000001
0
LINE
8
LYELLOW
6
CONTINUOUS
10
108.8995979999999975
20
-66.2652760000000001
11
108.9948359999999923
21
-66.3605139999999949
0
LINE
8
LYELLOW
6
CONTINUOUS
10
110.6138839999999988
20
-68.0747999999999962
11
110.4234079999999949
21
-68.170037999999991
0
LINE
8
LYELLOW
6
CONTINUOUS
10
110.4234079999999949
20
-68.170037999999991
11
110.0424549999999897
21
-68.170037999999991
0
LINE
8
LYELLOW
6
CONTINUOUS
10
110.0424549999999897
20
-68.170037999999991
11
109.851979
21
-68.0747999999999962
0
LINE
8
LYELLOW
6
CONTINUOUS
10
109.851979
20
-68.0747999999999962
11
109.756740999999991
21
-67.8843229999999949
0
LINE
8
LYELLOW
6
CONTINUOUS
10
109.756740999999991
20
-67.8843229999999949
11
109.756740999999991
21
-67.1224189999999936
0
LINE
8
LYELLOW
6
CONTINUOUS
10
109.756740999999991
20
-67.1224189999999936
11
109.851979
21
-66.9319419999999923
0
LINE
8
LYELLOW
6
CONTINUOUS
10
109.851979
20
-66.9319419999999923
11
110.0424549999999897
21
-66.8367039999999974
0
LINE
8
LYELLOW
6
CONTINUOUS
10
110.0424549999999897
20
-66.8367039999999974
11
110.4234079999999949
21
-66.8367039999999974
0
LINE
8
LYELLOW
6
CONTINUOUS
10
110.4234079999999949
20
-66.8367039999999974
11
110.6138839999999988
21
-66.9319419999999923
0
LINE
8
LYELLOW
6
CONTINUOUS
10
110.6138839999999988
20
-66.9319419999999923
11
110.7091219999999936
21
-67.1224189999999936
0
LINE
8
LYELLOW
6
CONTINUOUS
10
110.7091219999999936
20
-67.1224189999999936
11
110.7091219999999936
21
-67.3128949999999975
0
LINE
8
LYELLOW
6
CONTINUOUS
10
110.7091219999999936
20
-67.3128949999999975
11
109.756740999999991
21
-67.5033710000000013
0
LINE
8
LYELLOW
6
CONTINUOUS
10
112.232931999999991
20
-67.1224189999999936
11
112.5186459999999897
21
-67.2176570000000027
0
LINE
8
LYELLOW
6
CONTINUOUS
10
112.5186459999999897
20
-67.2176570000000027
11
112.6138839999999988
21
-67.3128949999999975
0
LINE
8
LYELLOW
6
CONTINUOUS
10
112.6138839999999988
20
-67.3128949999999975
11
112.7091219999999936
21
-67.5033710000000013
0
LINE
8
LYELLOW
6
CONTINUOUS
10
112.7091219999999936
20
-67.5033710000000013
11
112.7091219999999936
21
-67.789085
0
LINE
8
LYELLOW
6
CONTINUOUS
10
112.7091219999999936
20
-67.789085
11
112.6138839999999988
21
-67.9795610000000039
0
LINE
8
LYELLOW
6
CONTINUOUS
10
112.6138839999999988
20
-67.9795610000000039
11
112.5186459999999897
21
-68.0747999999999962
0
LINE
8
LYELLOW
6
CONTINUOUS
10
112.5186459999999897
20
-68.0747999999999962
11
112.3281700000000001
21
-68.170037999999991
0
LINE
8
LYELLOW
6
CONTINUOUS
10
112.3281700000000001
20
-68.170037999999991
11
111.5662650000000014
21
-68.170037999999991
0
LINE
8
LYELLOW
6
CONTINUOUS
10
111.5662650000000014
20
-68.170037999999991
11
111.5662650000000014
21
-66.170037999999991
0
LINE
8
LYELLOW
6
CONTINUOUS
10
111.5662650000000014
20
-66.170037999999991
11
112.232931999999991
21
-66.170037999999991
0
LINE
8
LYELLOW
6
CONTINUOUS
10
112.232931999999991
20
-66.170037999999991
11
112.4234079999999949
21
-66.2652760000000001
0
LINE
8
LYELLOW
6
CONTINUOUS
10
112.4234079999999949
20
-66.2652760000000001
11
112.5186459999999897
21
-66.3605139999999949
0
LINE
8
LYELLOW
6
CONTINUOUS
10
112.5186459999999897
20
-66.3605139999999949
11
112.6138839999999988
21
-66.5509899999999988
0
LINE
8
LYELLOW
6
CONTINUOUS
10
112.6138839999999988
20
-66.5509899999999988
11
112.6138839999999988
21
-66.7414660000000026
0
LINE
8
LYELLOW
6
CONTINUOUS
10
112.6138839999999988
20
-66.7414660000000026
11
112.5186459999999897
21
-66.9319419999999923
0
LINE
8
LYELLOW
6
CONTINUOUS
10
112.5186459999999897
20
-66.9319419999999923
11
112.4234079999999949
21
-67.0271800000000013
0
LINE
8
LYELLOW
6
CONTINUOUS
10
112.4234079999999949
20
-67.0271800000000013
11
112.232931999999991
21
-67.1224189999999936
0
LINE
8
LYELLOW
6
CONTINUOUS
10
112.232931999999991
20
-67.1224189999999936
11
111.5662650000000014
21
-67.1224189999999936
0
LINE
8
LYELLOW
6
CONTINUOUS
10
114.8995989999999949
20
-66.8367039999999974
11
115.3757889999999975
21
-68.170037999999991
0
LINE
8
LYELLOW
6
CONTINUOUS
10
115.3757889999999975
20
-68.170037999999991
11
115.8519799999999975
21
-66.8367039999999974
0
LINE
8
LYELLOW
6
CONTINUOUS
10
117.6615039999999937
20
-68.170037999999991
11
116.5186470000000014
21
-68.170037999999991
0
LINE
8
LYELLOW
6
CONTINUOUS
10
117.0900749999999988
20
-68.170037999999991
11
117.0900749999999988
21
-66.170037999999991
0
LINE
8
LYELLOW
6
CONTINUOUS
10
117.0900749999999988
20
-66.170037999999991
11
116.8995989999999949
21
-66.4557520000000039
0
LINE
8
LYELLOW
6
CONTINUOUS
10
116.8995989999999949
20
-66.4557520000000039
11
116.7091229999999911
21
-66.6462279999999936
0
LINE
8
LYELLOW
6
CONTINUOUS
10
116.7091229999999911
20
-66.6462279999999936
11
116.5186470000000014
21
-66.7414660000000026
0
LINE
8
LYELLOW
6
CONTINUOUS
10
118.5186470000000014
20
-67.9795610000000039
11
118.6138849999999962
21
-68.0747999999999962
0
LINE
8
LYELLOW
6
CONTINUOUS
10
118.6138849999999962
20
-68.0747999999999962
11
118.5186470000000014
21
-68.170037999999991
0
LINE
8
LYELLOW
6
CONTINUOUS
10
118.5186470000000014
20
-68.170037999999991
11
118.4234089999999924
21
-68.0747999999999962
0
LINE
8
LYELLOW
6
CONTINUOUS
10
118.4234089999999924
20
-68.0747999999999962
11
118.5186470000000014
21
-67.9795610000000039
0
LINE
8
LYELLOW
6
CONTINUOUS
10
118.5186470000000014
20
-67.9795610000000039
11
118.5186470000000014
21
-68.170037999999991
0
LINE
8
LYELLOW
6
CONTINUOUS
10
119.8519799999999975
20
-66.170037999999991
11
120.0424569999999989
21
-66.170037999999991
0
LINE
8
LYELLOW
6
CONTINUOUS
10
120.0424569999999989
20
-66.170037999999991
11
120.2329329999999885
21
-66.2652760000000001
0
LINE
8
LYELLOW
6
CONTINUOUS
10
120.2329329999999885
20
-66.2652760000000001
11
120.3281709999999975
21
-66.3605139999999949
0
LINE
8
LYELLOW
6
CONTINUOUS
10
120.3281709999999975
20
-66.3605139999999949
11
120.4234089999999924
21
-66.5509899999999988
0
LINE
8
LYELLOW
6
CONTINUOUS
10
120.4234089999999924
20
-66.5509899999999988
11
120.5186470000000014
21
-66.9319419999999923
0
LINE
8
LYELLOW
6
CONTINUOUS
10
120.5186470000000014
20
-66.9319419999999923
11
120.5186470000000014
21
-67.4081329999999923
0
LINE
8
LYELLOW
6
CONTINUOUS
10
120.5186470000000014
20
-67.4081329999999923
11
120.4234089999999924
21
-67.789085
0
LINE
8
LYELLOW
6
CONTINUOUS
10
120.4234089999999924
20
-67.789085
11
120.3281709999999975
21
-67.9795610000000039
0
LINE
8
LYELLOW
6
CONTINUOUS
10
120.3281709999999975
20
-67.9795610000000039
11
120.2329329999999885
21
-68.0747999999999962
0
LINE
8
LYELLOW
6
CONTINUOUS
10
120.2329329999999885
20
-68.0747999999999962
11
120.0424569999999989
21
-68.170037999999991
0
LINE
8
LYELLOW
6
CONTINUOUS
10
120.0424569999999989
20
-68.170037999999991
11
119.8519799999999975
21
-68.170037999999991
0
LINE
8
LYELLOW
6
CONTINUOUS
10
119.8519799999999975
20
-68.170037999999991
11
119.6615039999999937
21
-68.0747999999999962
0
LINE
8
LYELLOW
6
CONTINUOUS
10
119.6615039999999937
20
-68.0747999999999962
11
119.5662659999999988
21
-67.9795610000000039
0
LINE
8
LYELLOW
6
CONTINUOUS
10
119.5662659999999988
20
-67.9795610000000039
11
119.4710279999999898
21
-67.789085
0
LINE
8
LYELLOW
6
CONTINUOUS
10
119.4710279999999898
20
-67.789085
11
119.375789999999995
21
-67.4081329999999923
0
LINE
8
LYELLOW
6
CONTINUOUS
10
119.375789999999995
20
-67.4081329999999923
11
119.375789999999995
21
-66.9319419999999923
0
LINE
8
LYELLOW
6
CONTINUOUS
10
119.375789999999995
20
-66.9319419999999923
11
119.4710279999999898
21
-66.5509899999999988
0
LINE
8
LYELLOW
6
CONTINUOUS
10
119.4710279999999898
20
-66.5509899999999988
11
119.5662659999999988
21
-66.3605139999999949
0
LINE
8
LYELLOW
6
CONTINUOUS
10
119.5662659999999988
20
-66.3605139999999949
11
119.6615039999999937
21
-66.2652760000000001
0
LINE
8
LYELLOW
6
CONTINUOUS
10
119.6615039999999937
20
-66.2652760000000001
11
119.8519799999999975
21
-66.170037999999991
0
LINE
8
LYELLOW
6
CONTINUOUS
10
127.8872169999999926
20
-93.0986089999999962
11
127.5538839999999965
21
-93.0986089999999962
0
LINE
8
LYELLOW
6
CONTINUOUS
10
127.5538839999999965
20
-93.6224189999999936
11
127.5538839999999965
21
-92.6224189999999936
0
LINE
8
LYELLOW
6
CONTINUOUS
10
127.5538839999999965
20
-92.6224189999999936
11
128.0300739999999848
21
-92.6224189999999936
0
LINE
8
LYELLOW
6
CONTINUOUS
10
127.5538839999999965
20
-60.3724190000000007
11
127.5538839999999965
21
-59.3724190000000007
0
LINE
8
LYELLOW
6
CONTINUOUS
10
127.5538839999999965
20
-59.3724190000000007
11
127.8872169999999926
21
-60.0867039999999974
0
LINE
8
LYELLOW
6
CONTINUOUS
10
127.8872169999999926
20
-60.0867039999999974
11
128.2205500000000029
21
-59.3724190000000007
0
LINE
8
LYELLOW
6
CONTINUOUS
10
128.2205500000000029
20
-59.3724190000000007
11
128.2205500000000029
21
-60.3724190000000007
0
LINE
8
LYELLOW
6
CONTINUOUS
10
128.5798199999999838
20
-76.7719000000000023
11
129.3893429999999967
21
-76.7719000000000023
0
LINE
8
LYELLOW
6
CONTINUOUS
10
129.3893429999999967
20
-76.7719000000000023
11
129.4845809999999915
21
-76.7242809999999906
0
LINE
8
LYELLOW
6
CONTINUOUS
10
129.4845809999999915
20
-76.7242809999999906
11
129.5322009999999864
21
-76.6766619999999932
0
LINE
8
LYELLOW
6
CONTINUOUS
10
129.5322009999999864
20
-76.6766619999999932
11
129.5798199999999838
21
-76.5814239999999984
0
LINE
8
LYELLOW
6
CONTINUOUS
10
129.5798199999999838
20
-76.5814239999999984
11
129.5798199999999838
21
-76.3909479999999945
0
LINE
8
LYELLOW
6
CONTINUOUS
10
129.5798199999999838
20
-76.3909479999999945
11
129.5322009999999864
21
-76.2957099999999997
0
LINE
8
LYELLOW
6
CONTINUOUS
10
129.5322009999999864
20
-76.2957099999999997
11
129.4845809999999915
21
-76.2480910000000023
0
LINE
8
LYELLOW
6
CONTINUOUS
10
129.4845809999999915
20
-76.2480910000000023
11
129.3893429999999967
21
-76.2004719999999907
0
LINE
8
LYELLOW
6
CONTINUOUS
10
129.3893429999999967
20
-76.2004719999999907
11
128.5798199999999838
21
-76.2004719999999907
0
LINE
8
LYELLOW
6
CONTINUOUS
10
129.5798199999999838
20
-75.2004719999999907
11
129.5798199999999838
21
-75.7719000000000023
0
LINE
8
LYELLOW
6
CONTINUOUS
10
129.5798199999999838
20
-75.4861860000000036
11
128.5798199999999838
21
-75.4861860000000036
0
LINE
8
LYELLOW
6
CONTINUOUS
10
128.5798199999999838
20
-75.4861860000000036
11
128.7226770000000045
21
-75.5814239999999984
0
LINE
8
LYELLOW
6
CONTINUOUS
10
128.7226770000000045
20
-75.5814239999999984
11
128.8179149999999993
21
-75.6766619999999932
0
LINE
8
LYELLOW
6
CONTINUOUS
10
128.8179149999999993
20
-75.6766619999999932
11
128.8655339999999967
21
-75.7719000000000023
0
LINE
8
LYELLOW
6
CONTINUOUS
10
114.2895800000000008
20
-81.6666659999999922
11
114.3371999999999957
21
-81.7142849999999896
0
LINE
8
LYELLOW
6
CONTINUOUS
10
114.3371999999999957
20
-81.7142849999999896
11
114.3848189999999931
21
-81.8571419999999961
0
LINE
8
LYELLOW
6
CONTINUOUS
10
114.3848189999999931
20
-81.8571419999999961
11
114.3848189999999931
21
-81.9523799999999909
0
LINE
8
LYELLOW
6
CONTINUOUS
10
114.3848189999999931
20
-81.9523799999999909
11
114.3371999999999957
21
-82.0952369999999974
0
LINE
8
LYELLOW
6
CONTINUOUS
10
114.3371999999999957
20
-82.0952369999999974
11
114.2419609999999892
21
-82.1904749999999922
0
LINE
8
LYELLOW
6
CONTINUOUS
10
114.2419609999999892
20
-82.1904749999999922
11
114.1467229999999944
21
-82.2380939999999896
0
LINE
8
LYELLOW
6
CONTINUOUS
10
114.1467229999999944
20
-82.2380939999999896
11
113.9562469999999905
21
-82.2857130000000012
0
LINE
8
LYELLOW
6
CONTINUOUS
10
113.9562469999999905
20
-82.2857130000000012
11
113.8133899999999983
21
-82.2857130000000012
0
LINE
8
LYELLOW
6
CONTINUOUS
10
113.8133899999999983
20
-82.2857130000000012
11
113.6229139999999944
21
-82.2380939999999896
0
LINE
8
LYELLOW
6
CONTINUOUS
10
113.6229139999999944
20
-82.2380939999999896
11
113.5276759999999996
21
-82.1904749999999922
0
LINE
8
LYELLOW
6
CONTINUOUS
10
113.5276759999999996
20
-82.1904749999999922
11
113.4324379999999906
21
-82.0952369999999974
0
LINE
8
LYELLOW
6
CONTINUOUS
10
113.4324379999999906
20
-82.0952369999999974
11
113.3848189999999931
21
-81.9523799999999909
0
LINE
8
LYELLOW
6
CONTINUOUS
10
113.3848189999999931
20
-81.9523799999999909
11
113.3848189999999931
21
-81.8571419999999961
0
LINE
8
LYELLOW
6
CONTINUOUS
10
113.3848189999999931
20
-81.8571419999999961
11
113.4324379999999906
21
-81.7142849999999896
0
LINE
8
LYELLOW
6
CONTINUOUS
10
113.4324379999999906
20
-81.7142849999999896
11
113.480056999999988
21
-81.6666659999999922
0
LINE
8
LYELLOW
6
CONTINUOUS
10
113.480056999999988
20
-81.2857130000000012
11
113.4324379999999906
21
-81.2380939999999896
0
LINE
8
LYELLOW
6
CONTINUOUS
10
113.4324379999999906
20
-81.2380939999999896
11
113.3848189999999931
21
-81.1428559999999948
0
LINE
8
LYELLOW
6
CONTINUOUS
10
113.3848189999999931
20
-81.1428559999999948
11
113.3848189999999931
21
-80.9047609999999935
0
LINE
8
LYELLOW
6
CONTINUOUS
10
113.3848189999999931
20
-80.9047609999999935
11
113.4324379999999906
21
-80.8095229999999987
0
LINE
8
LYELLOW
6
CONTINUOUS
10
113.4324379999999906
20
-80.8095229999999987
11
113.480056999999988
21
-80.7619040000000012
0
LINE
8
LYELLOW
6
CONTINUOUS
10
113.480056999999988
20
-80.7619040000000012
11
113.575294999999997
21
-80.7142849999999896
0
LINE
8
LYELLOW
6
CONTINUOUS
10
113.575294999999997
20
-80.7142849999999896
11
113.6705329999999918
21
-80.7142849999999896
0
LINE
8
LYELLOW
6
CONTINUOUS
10
113.6705329999999918
20
-80.7142849999999896
11
113.8133899999999983
21
-80.7619040000000012
0
LINE
8
LYELLOW
6
CONTINUOUS
10
113.8133899999999983
20
-80.7619040000000012
11
114.3848189999999931
21
-81.3333319999999986
0
LINE
8
LYELLOW
6
CONTINUOUS
10
114.3848189999999931
20
-81.3333319999999986
11
114.3848189999999931
21
-80.7142849999999896
0
LINE
8
LYELLOW
6
CONTINUOUS
10
114.9166659999999922
20
-81.7074190000000016
11
114.9166659999999922
21
-82.4217039999999912
0
LINE
8
LYELLOW
6
CONTINUOUS
10
114.9166659999999922
20
-82.4217039999999912
11
114.8690469999999948
21
-82.5645609999999976
0
LINE
8
LYELLOW
6
CONTINUOUS
10
114.8690469999999948
20
-82.5645609999999976
11
114.773809
21
-82.65979999999999
0
LINE
8
LYELLOW
6
CONTINUOUS
10
114.773809
20
-82.65979999999999
11
114.6309519999999935
21
-82.7074190000000016
0
LINE
8
LYELLOW
6
CONTINUOUS
10
114.6309519999999935
20
-82.7074190000000016
11
114.5357139999999987
21
-82.7074190000000016
0
LINE
8
LYELLOW
6
CONTINUOUS
10
115.5357139999999987
20
-82.1359899999999925
11
115.4404759999999897
21
-82.0883709999999951
0
LINE
8
LYELLOW
6
CONTINUOUS
10
115.4404759999999897
20
-82.0883709999999951
11
115.3928569999999922
21
-82.0407519999999977
0
LINE
8
LYELLOW
6
CONTINUOUS
10
115.3928569999999922
20
-82.0407519999999977
11
115.3452379999999948
21
-81.9455140000000029
0
LINE
8
LYELLOW
6
CONTINUOUS
10
115.3452379999999948
20
-81.9455140000000029
11
115.3452379999999948
21
-81.8978949999999912
0
LINE
8
LYELLOW
6
CONTINUOUS
10
115.3452379999999948
20
-81.8978949999999912
11
115.3928569999999922
21
-81.8026569999999964
0
LINE
8
LYELLOW
6
CONTINUOUS
10
115.3928569999999922
20
-81.8026569999999964
11
115.4404759999999897
21
-81.755037999999999
0
LINE
8
LYELLOW
6
CONTINUOUS
10
115.4404759999999897
20
-81.755037999999999
11
115.5357139999999987
21
-81.7074190000000016
0
LINE
8
LYELLOW
6
CONTINUOUS
10
115.5357139999999987
20
-81.7074190000000016
11
115.7261899999999883
21
-81.7074190000000016
0
LINE
8
LYELLOW
6
CONTINUOUS
10
115.7261899999999883
20
-81.7074190000000016
11
115.8214279999999974
21
-81.755037999999999
0
LINE
8
LYELLOW
6
CONTINUOUS
10
115.8214279999999974
20
-81.755037999999999
11
115.8690469999999948
21
-81.8026569999999964
0
LINE
8
LYELLOW
6
CONTINUOUS
10
115.8690469999999948
20
-81.8026569999999964
11
115.9166659999999922
21
-81.8978949999999912
0
LINE
8
LYELLOW
6
CONTINUOUS
10
115.9166659999999922
20
-81.8978949999999912
11
115.9166659999999922
21
-81.9455140000000029
0
LINE
8
LYELLOW
6
CONTINUOUS
10
115.9166659999999922
20
-81.9455140000000029
11
115.8690469999999948
21
-82.0407519999999977
0
LINE
8
LYELLOW
6
CONTINUOUS
10
115.8690469999999948
20
-82.0407519999999977
11
115.8214279999999974
21
-82.0883709999999951
0
LINE
8
LYELLOW
6
CONTINUOUS
10
115.8214279999999974
20
-82.0883709999999951
11
115.7261899999999883
21
-82.1359899999999925
0
LINE
8
LYELLOW
6
CONTINUOUS
10
115.7261899999999883
20
-82.1359899999999925
11
115.5357139999999987
21
-82.1359899999999925
0
LINE
8
LYELLOW
6
CONTINUOUS
10
115.5357139999999987
20
-82.1359899999999925
11
115.4404759999999897
21
-82.1836089999999899
0
LINE
8
LYELLOW
6
CONTINUOUS
10
115.4404759999999897
20
-82.1836089999999899
11
115.3928569999999922
21
-82.2312280000000015
0
LINE
8
LYELLOW
6
CONTINUOUS
10
115.3928569999999922
20
-82.2312280000000015
11
115.3452379999999948
21
-82.3264659999999964
0
LINE
8
LYELLOW
6
CONTINUOUS
10
115.3452379999999948
20
-82.3264659999999964
11
115.3452379999999948
21
-82.5169420000000002
0
LINE
8
LYELLOW
6
CONTINUOUS
10
115.3452379999999948
20
-82.5169420000000002
11
115.3928569999999922
21
-82.6121799999999951
0
LINE
8
LYELLOW
6
CONTINUOUS
10
115.3928569999999922
20
-82.6121799999999951
11
115.4404759999999897
21
-82.65979999999999
0
LINE
8
LYELLOW
6
CONTINUOUS
10
115.4404759999999897
20
-82.65979999999999
11
115.5357139999999987
21
-82.7074190000000016
0
LINE
8
LYELLOW
6
CONTINUOUS
10
115.5357139999999987
20
-82.7074190000000016
11
115.7261899999999883
21
-82.7074190000000016
0
LINE
8
LYELLOW
6
CONTINUOUS
10
115.7261899999999883
20
-82.7074190000000016
11
115.8214279999999974
21
-82.65979999999999
0
LINE
8
LYELLOW
6
CONTINUOUS
10
115.8214279999999974
20
-82.65979999999999
11
115.8690469999999948
21
-82.6121799999999951
0
LINE
8
LYELLOW
6
CONTINUOUS
10
115.8690469999999948
20
-82.6121799999999951
11
115.9166659999999922
21
-82.5169420000000002
0
LINE
8
LYELLOW
6
CONTINUOUS
10
115.9166659999999922
20
-82.5169420000000002
11
115.9166659999999922
21
-82.3264659999999964
0
LINE
8
LYELLOW
6
CONTINUOUS
10
115.9166659999999922
20
-82.3264659999999964
11
115.8690469999999948
21
-82.2312280000000015
0
LINE
8
LYELLOW
6
CONTINUOUS
10
115.8690469999999948
20
-82.2312280000000015
11
115.8214279999999974
21
-82.1836089999999899
0
LINE
8
LYELLOW
6
CONTINUOUS
10
115.8214279999999974
20
-82.1836089999999899
11
115.7261899999999883
21
-82.1359899999999925
0
LINE
8
LYELLOW
6
CONTINUOUS
10
110.6666659999999922
20
-92.0074189999999987
11
110.6666659999999922
21
-92.7217040000000026
0
LINE
8
LYELLOW
6
CONTINUOUS
10
110.6666659999999922
20
-92.7217040000000026
11
110.6190469999999948
21
-92.8645609999999948
0
LINE
8
LYELLOW
6
CONTINUOUS
10
110.6190469999999948
20
-92.8645609999999948
11
110.523809
21
-92.9598000000000013
0
LINE
8
LYELLOW
6
CONTINUOUS
10
110.523809
20
-92.9598000000000013
11
110.3809519999999935
21
-93.0074189999999987
0
LINE
8
LYELLOW
6
CONTINUOUS
10
110.3809519999999935
20
-93.0074189999999987
11
110.2857139999999987
21
-93.0074189999999987
0
LINE
8
LYELLOW
6
CONTINUOUS
10
111.0476189999999974
20
-92.0074189999999987
11
111.7142849999999896
21
-92.0074189999999987
0
LINE
8
LYELLOW
6
CONTINUOUS
10
111.7142849999999896
20
-92.0074189999999987
11
111.2857139999999987
21
-93.0074189999999987
0
LINE
8
LYELLOW
6
CONTINUOUS
10
109.5833329999999961
20
-82.3848189999999931
11
109.25
21
-81.9086279999999931
0
LINE
8
LYELLOW
6
CONTINUOUS
10
109.0119049999999987
20
-82.3848189999999931
11
109.0119049999999987
21
-81.3848189999999931
0
LINE
8
LYELLOW
6
CONTINUOUS
10
109.0119049999999987
20
-81.3848189999999931
11
109.3928569999999922
21
-81.3848189999999931
0
LINE
8
LYELLOW
6
CONTINUOUS
10
109.3928569999999922
20
-81.3848189999999931
11
109.4880950000000013
21
-81.4324379999999906
0
LINE
8
LYELLOW
6
CONTINUOUS
10
109.4880950000000013
20
-81.4324379999999906
11
109.5357139999999987
21
-81.4800570000000022
0
LINE
8
LYELLOW
6
CONTINUOUS
10
109.5357139999999987
20
-81.4800570000000022
11
109.5833329999999961
21
-81.575294999999997
0
LINE
8
LYELLOW
6
CONTINUOUS
10
109.5833329999999961
20
-81.575294999999997
11
109.5833329999999961
21
-81.7181519999999892
0
LINE
8
LYELLOW
6
CONTINUOUS
10
109.5833329999999961
20
-81.7181519999999892
11
109.5357139999999987
21
-81.8133899999999983
0
LINE
8
LYELLOW
6
CONTINUOUS
10
109.5357139999999987
20
-81.8133899999999983
11
109.4880950000000013
21
-81.8610089999999957
0
LINE
8
LYELLOW
6
CONTINUOUS
10
109.4880950000000013
20
-81.8610089999999957
11
109.3928569999999922
21
-81.9086279999999931
0
LINE
8
LYELLOW
6
CONTINUOUS
10
109.3928569999999922
20
-81.9086279999999931
11
109.0119049999999987
21
-81.9086279999999931
0
LINE
8
LYELLOW
6
CONTINUOUS
10
109.9642860000000013
20
-81.4800570000000022
11
110.0119049999999987
21
-81.4324379999999906
0
LINE
8
LYELLOW
6
CONTINUOUS
10
110.0119049999999987
20
-81.4324379999999906
11
110.1071429999999935
21
-81.3848189999999931
0
LINE
8
LYELLOW
6
CONTINUOUS
10
110.1071429999999935
20
-81.3848189999999931
11
110.3452379999999948
21
-81.3848189999999931
0
LINE
8
LYELLOW
6
CONTINUOUS
10
110.3452379999999948
20
-81.3848189999999931
11
110.4404759999999897
21
-81.4324379999999906
0
LINE
8
LYELLOW
6
CONTINUOUS
10
110.4404759999999897
20
-81.4324379999999906
11
110.4880950000000013
21
-81.4800570000000022
0
LINE
8
LYELLOW
6
CONTINUOUS
10
110.4880950000000013
20
-81.4800570000000022
11
110.5357139999999987
21
-81.575294999999997
0
LINE
8
LYELLOW
6
CONTINUOUS
10
110.5357139999999987
20
-81.575294999999997
11
110.5357139999999987
21
-81.6705329999999918
0
LINE
8
LYELLOW
6
CONTINUOUS
10
110.5357139999999987
20
-81.6705329999999918
11
110.4880950000000013
21
-81.8133899999999983
0
LINE
8
LYELLOW
6
CONTINUOUS
10
110.4880950000000013
20
-81.8133899999999983
11
109.9166669999999897
21
-82.3848189999999931
0
LINE
8
LYELLOW
6
CONTINUOUS
10
109.9166669999999897
20
-82.3848189999999931
11
110.5357139999999987
21
-82.3848189999999931
0
LINE
8
LYELLOW
6
CONTINUOUS
10
127.1266679999999951
20
-96.2673139999999989
11
127.1266679999999951
21
-97.1744569999999896
0
LINE
8
LYELLOW
6
CONTINUOUS
10
127.1266679999999951
20
-97.1744569999999896
11
127.0661909999999892
21
-97.3558850000000007
0
LINE
8
LYELLOW
6
CONTINUOUS
10
127.0661909999999892
20
-97.3558850000000007
11
126.9452390000000008
21
-97.4768380000000008
0
LINE
8
LYELLOW
6
CONTINUOUS
10
126.9452390000000008
20
-97.4768380000000008
11
126.7638099999999923
21
-97.537313999999995
0
LINE
8
LYELLOW
6
CONTINUOUS
10
126.7638099999999923
20
-97.537313999999995
11
126.6428579999999897
21
-97.537313999999995
0
LINE
8
LYELLOW
6
CONTINUOUS
10
128.3966680000000053
20
-97.537313999999995
11
127.6709529999999972
21
-97.537313999999995
0
LINE
8
LYELLOW
6
CONTINUOUS
10
128.0338099999999883
20
-97.537313999999995
11
128.0338099999999883
21
-96.2673139999999989
0
LINE
8
LYELLOW
6
CONTINUOUS
10
128.0338099999999883
20
-96.2673139999999989
11
127.9128579999999999
21
-96.4487419999999958
0
LINE
8
LYELLOW
6
CONTINUOUS
10
127.9128579999999999
20
-96.4487419999999958
11
127.7919059999999973
21
-96.5696949999999958
0
LINE
8
LYELLOW
6
CONTINUOUS
10
127.7919059999999973
20
-96.5696949999999958
11
127.6709529999999972
21
-96.63017099999999
0
LINE
8
LYELLOW
6
CONTINUOUS
10
114.9166659999999922
20
-92.0074189999999987
11
114.9166659999999922
21
-92.7217040000000026
0
LINE
8
LYELLOW
6
CONTINUOUS
10
114.9166659999999922
20
-92.7217040000000026
11
114.8690469999999948
21
-92.8645609999999948
0
LINE
8
LYELLOW
6
CONTINUOUS
10
114.8690469999999948
20
-92.8645609999999948
11
114.773809
21
-92.9598000000000013
0
LINE
8
LYELLOW
6
CONTINUOUS
10
114.773809
20
-92.9598000000000013
11
114.6309519999999935
21
-93.0074189999999987
0
LINE
8
LYELLOW
6
CONTINUOUS
10
114.6309519999999935
20
-93.0074189999999987
11
114.5357139999999987
21
-93.0074189999999987
0
LINE
8
LYELLOW
6
CONTINUOUS
10
115.2976189999999974
20
-92.0074189999999987
11
115.9166659999999922
21
-92.0074189999999987
0
LINE
8
LYELLOW
6
CONTINUOUS
10
115.9166659999999922
20
-92.0074189999999987
11
115.5833329999999961
21
-92.3883709999999923
0
LINE
8
LYELLOW
6
CONTINUOUS
10
115.5833329999999961
20
-92.3883709999999923
11
115.7261899999999883
21
-92.3883709999999923
0
LINE
8
LYELLOW
6
CONTINUOUS
10
115.7261899999999883
20
-92.3883709999999923
11
115.8214279999999974
21
-92.4359899999999897
0
LINE
8
LYELLOW
6
CONTINUOUS
10
115.8214279999999974
20
-92.4359899999999897
11
115.8690469999999948
21
-92.4836090000000013
0
LINE
8
LYELLOW
6
CONTINUOUS
10
115.8690469999999948
20
-92.4836090000000013
11
115.9166659999999922
21
-92.5788469999999961
0
LINE
8
LYELLOW
6
CONTINUOUS
10
115.9166659999999922
20
-92.5788469999999961
11
115.9166659999999922
21
-92.8169419999999974
0
LINE
8
LYELLOW
6
CONTINUOUS
10
115.9166659999999922
20
-92.8169419999999974
11
115.8690469999999948
21
-92.9121799999999922
0
LINE
8
LYELLOW
6
CONTINUOUS
10
115.8690469999999948
20
-92.9121799999999922
11
115.8214279999999974
21
-92.9598000000000013
0
LINE
8
LYELLOW
6
CONTINUOUS
10
115.8214279999999974
20
-92.9598000000000013
11
115.7261899999999883
21
-93.0074189999999987
0
LINE
8
LYELLOW
6
CONTINUOUS
10
115.7261899999999883
20
-93.0074189999999987
11
115.4404759999999897
21
-93.0074189999999987
0
LINE
8
LYELLOW
6
CONTINUOUS
10
115.4404759999999897
20
-93.0074189999999987
11
115.3452379999999948
21
-92.9598000000000013
0
LINE
8
LYELLOW
6
CONTINUOUS
10
115.3452379999999948
20
-92.9598000000000013
11
115.2976189999999974
21
-92.9121799999999922
0
LINE
8
LYELLOW
6
CONTINUOUS
10
109.2895800000000008
20
-75.4166659999999922
11
109.3371999999999957
21
-75.4642849999999896
0
LINE
8
LYELLOW
6
CONTINUOUS
10
109.3371999999999957
20
-75.4642849999999896
11
109.3848189999999931
21
-75.6071419999999961
0
LINE
8
LYELLOW
6
CONTINUOUS
10
109.3848189999999931
20
-75.6071419999999961
11
109.3848189999999931
21
-75.7023799999999909
0
LINE
8
LYELLOW
6
CONTINUOUS
10
109.3848189999999931
20
-75.7023799999999909
11
109.3371999999999957
21
-75.8452369999999974
0
LINE
8
LYELLOW
6
CONTINUOUS
10
109.3371999999999957
20
-75.8452369999999974
11
109.2419609999999892
21
-75.9404749999999922
0
LINE
8
LYELLOW
6
CONTINUOUS
10
109.2419609999999892
20
-75.9404749999999922
11
109.1467229999999944
21
-75.9880939999999896
0
LINE
8
LYELLOW
6
CONTINUOUS
10
109.1467229999999944
20
-75.9880939999999896
11
108.9562469999999905
21
-76.0357130000000012
0
LINE
8
LYELLOW
6
CONTINUOUS
10
108.9562469999999905
20
-76.0357130000000012
11
108.8133899999999983
21
-76.0357130000000012
0
LINE
8
LYELLOW
6
CONTINUOUS
10
108.8133899999999983
20
-76.0357130000000012
11
108.6229139999999944
21
-75.9880939999999896
0
LINE
8
LYELLOW
6
CONTINUOUS
10
108.6229139999999944
20
-75.9880939999999896
11
108.5276759999999996
21
-75.9404749999999922
0
LINE
8
LYELLOW
6
CONTINUOUS
10
108.5276759999999996
20
-75.9404749999999922
11
108.4324379999999906
21
-75.8452369999999974
0
LINE
8
LYELLOW
6
CONTINUOUS
10
108.4324379999999906
20
-75.8452369999999974
11
108.3848189999999931
21
-75.7023799999999909
0
LINE
8
LYELLOW
6
CONTINUOUS
10
108.3848189999999931
20
-75.7023799999999909
11
108.3848189999999931
21
-75.6071419999999961
0
LINE
8
LYELLOW
6
CONTINUOUS
10
108.3848189999999931
20
-75.6071419999999961
11
108.4324379999999906
21
-75.4642849999999896
0
LINE
8
LYELLOW
6
CONTINUOUS
10
108.4324379999999906
20
-75.4642849999999896
11
108.4800570000000022
21
-75.4166659999999922
0
LINE
8
LYELLOW
6
CONTINUOUS
10
109.3848189999999931
20
-74.4642849999999896
11
109.3848189999999931
21
-75.0357130000000012
0
LINE
8
LYELLOW
6
CONTINUOUS
10
109.3848189999999931
20
-74.7499990000000025
11
108.3848189999999931
21
-74.7499990000000025
0
LINE
8
LYELLOW
6
CONTINUOUS
10
108.3848189999999931
20
-74.7499990000000025
11
108.5276759999999996
21
-74.8452369999999974
0
LINE
8
LYELLOW
6
CONTINUOUS
10
108.5276759999999996
20
-74.8452369999999974
11
108.6229139999999944
21
-74.9404749999999922
0
LINE
8
LYELLOW
6
CONTINUOUS
10
108.6229139999999944
20
-74.9404749999999922
11
108.6705329999999918
21
-75.0357130000000012
0
LINE
8
LYELLOW
6
CONTINUOUS
10
110.4166659999999922
20
-81.7074190000000016
11
110.4166659999999922
21
-82.4217039999999912
0
LINE
8
LYELLOW
6
CONTINUOUS
10
110.4166659999999922
20
-82.4217039999999912
11
110.3690469999999948
21
-82.5645609999999976
0
LINE
8
LYELLOW
6
CONTINUOUS
10
110.3690469999999948
20
-82.5645609999999976
11
110.273809
21
-82.65979999999999
0
LINE
8
LYELLOW
6
CONTINUOUS
10
110.273809
20
-82.65979999999999
11
110.1309519999999935
21
-82.7074190000000016
0
LINE
8
LYELLOW
6
CONTINUOUS
10
110.1309519999999935
20
-82.7074190000000016
11
110.0357139999999987
21
-82.7074190000000016
0
LINE
8
LYELLOW
6
CONTINUOUS
10
111.3690469999999948
20
-81.7074190000000016
11
110.8928569999999922
21
-81.7074190000000016
0
LINE
8
LYELLOW
6
CONTINUOUS
10
110.8928569999999922
20
-81.7074190000000016
11
110.8452379999999948
21
-82.1836089999999899
0
LINE
8
LYELLOW
6
CONTINUOUS
10
110.8452379999999948
20
-82.1836089999999899
11
110.8928569999999922
21
-82.1359899999999925
0
LINE
8
LYELLOW
6
CONTINUOUS
10
110.8928569999999922
20
-82.1359899999999925
11
110.9880950000000013
21
-82.0883709999999951
0
LINE
8
LYELLOW
6
CONTINUOUS
10
110.9880950000000013
20
-82.0883709999999951
11
111.2261899999999883
21
-82.0883709999999951
0
LINE
8
LYELLOW
6
CONTINUOUS
10
111.2261899999999883
20
-82.0883709999999951
11
111.3214279999999974
21
-82.1359899999999925
0
LINE
8
LYELLOW
6
CONTINUOUS
10
111.3214279999999974
20
-82.1359899999999925
11
111.3690469999999948
21
-82.1836089999999899
0
LINE
8
LYELLOW
6
CONTINUOUS
10
111.3690469999999948
20
-82.1836089999999899
11
111.4166659999999922
21
-82.278846999999999
0
LINE
8
LYELLOW
6
CONTINUOUS
10
111.4166659999999922
20
-82.278846999999999
11
111.4166659999999922
21
-82.5169420000000002
0
LINE
8
LYELLOW
6
CONTINUOUS
10
111.4166659999999922
20
-82.5169420000000002
11
111.3690469999999948
21
-82.6121799999999951
0
LINE
8
LYELLOW
6
CONTINUOUS
10
111.3690469999999948
20
-82.6121799999999951
11
111.3214279999999974
21
-82.65979999999999
0
LINE
8
LYELLOW
6
CONTINUOUS
10
111.3214279999999974
20
-82.65979999999999
11
111.2261899999999883
21
-82.7074190000000016
0
LINE
8
LYELLOW
6
CONTINUOUS
10
111.2261899999999883
20
-82.7074190000000016
11
110.9880950000000013
21
-82.7074190000000016
0
LINE
8
LYELLOW
6
CONTINUOUS
10
110.9880950000000013
20
-82.7074190000000016
11
110.8928569999999922
21
-82.65979999999999
0
LINE
8
LYELLOW
6
CONTINUOUS
10
110.8928569999999922
20
-82.65979999999999
11
110.8452379999999948
21
-82.6121799999999951
0
LINE
8
LYELLOW
6
CONTINUOUS
10
127.2766669999999891
20
-56.1048179999999945
11
127.2766669999999891
21
-57.0119609999999994
0
LINE
8
LYELLOW
6
CONTINUOUS
10
127.2766669999999891
20
-57.0119609999999994
11
127.2161899999999974
21
-57.1933889999999963
0
LINE
8
LYELLOW
6
CONTINUOUS
10
127.2161899999999974
20
-57.1933889999999963
11
127.0952379999999948
21
-57.3143419999999963
0
LINE
8
LYELLOW
6
CONTINUOUS
10
127.0952379999999948
20
-57.3143419999999963
11
126.9138090000000005
21
-57.3748179999999977
0
LINE
8
LYELLOW
6
CONTINUOUS
10
126.9138090000000005
20
-57.3748179999999977
11
126.7928569999999979
21
-57.3748179999999977
0
LINE
8
LYELLOW
6
CONTINUOUS
10
127.8209519999999912
20
-56.2257699999999971
11
127.8814279999999997
21
-56.1652939999999958
0
LINE
8
LYELLOW
6
CONTINUOUS
10
127.8814279999999997
20
-56.1652939999999958
11
128.0023809999999855
21
-56.1048179999999945
0
LINE
8
LYELLOW
6
CONTINUOUS
10
128.0023809999999855
20
-56.1048179999999945
11
128.3047619999999824
21
-56.1048179999999945
0
LINE
8
LYELLOW
6
CONTINUOUS
10
128.3047619999999824
20
-56.1048179999999945
11
128.4257139999999993
21
-56.1652939999999958
0
LINE
8
LYELLOW
6
CONTINUOUS
10
128.4257139999999993
20
-56.1652939999999958
11
128.4861899999999935
21
-56.2257699999999971
0
LINE
8
LYELLOW
6
CONTINUOUS
10
128.4861899999999935
20
-56.2257699999999971
11
128.5466669999999851
21
-56.3467219999999998
0
LINE
8
LYELLOW
6
CONTINUOUS
10
128.5466669999999851
20
-56.3467219999999998
11
128.5466669999999851
21
-56.4676749999999998
0
LINE
8
LYELLOW
6
CONTINUOUS
10
128.5466669999999851
20
-56.4676749999999998
11
128.4861899999999935
21
-56.6491029999999967
0
LINE
8
LYELLOW
6
CONTINUOUS
10
128.4861899999999935
20
-56.6491029999999967
11
127.760475999999997
21
-57.3748179999999977
0
LINE
8
LYELLOW
6
CONTINUOUS
10
127.760475999999997
20
-57.3748179999999977
11
128.5466669999999851
21
-57.3748179999999977
0
LINE
8
LYELLOW
6
CONTINUOUS
10
114.8216659999999933
20
-86.4574190000000016
11
114.8216659999999933
21
-87.1717039999999912
0
LINE
8
LYELLOW
6
CONTINUOUS
10
114.8216659999999933
20
-87.1717039999999912
11
114.7740469999999959
21
-87.3145609999999976
0
LINE
8
LYELLOW
6
CONTINUOUS
10
114.7740469999999959
20
-87.3145609999999976
11
114.6788090000000011
21
-87.40979999999999
0
LINE
8
LYELLOW
6
CONTINUOUS
10
114.6788090000000011
20
-87.40979999999999
11
114.5359519999999947
21
-87.4574190000000016
0
LINE
8
LYELLOW
6
CONTINUOUS
10
114.5359519999999947
20
-87.4574190000000016
11
114.4407139999999998
21
-87.4574190000000016
0
LINE
8
LYELLOW
6
CONTINUOUS
10
115.7264279999999985
20
-86.4574190000000016
11
115.5359519999999947
21
-86.4574190000000016
0
LINE
8
LYELLOW
6
CONTINUOUS
10
115.5359519999999947
20
-86.4574190000000016
11
115.4407139999999998
21
-86.505037999999999
0
LINE
8
LYELLOW
6
CONTINUOUS
10
115.4407139999999998
20
-86.505037999999999
11
115.3930949999999882
21
-86.5526569999999964
0
LINE
8
LYELLOW
6
CONTINUOUS
10
115.3930949999999882
20
-86.5526569999999964
11
115.2978569999999934
21
-86.6955140000000029
0
LINE
8
LYELLOW
6
CONTINUOUS
10
115.2978569999999934
20
-86.6955140000000029
11
115.250237999999996
21
-86.8859899999999925
0
LINE
8
LYELLOW
6
CONTINUOUS
10
115.250237999999996
20
-86.8859899999999925
11
115.250237999999996
21
-87.2669420000000002
0
LINE
8
LYELLOW
6
CONTINUOUS
10
115.250237999999996
20
-87.2669420000000002
11
115.2978569999999934
21
-87.3621799999999951
0
LINE
8
LYELLOW
6
CONTINUOUS
10
115.2978569999999934
20
-87.3621799999999951
11
115.3454759999999908
21
-87.40979999999999
0
LINE
8
LYELLOW
6
CONTINUOUS
10
115.3454759999999908
20
-87.40979999999999
11
115.4407139999999998
21
-87.4574190000000016
0
LINE
8
LYELLOW
6
CONTINUOUS
10
115.4407139999999998
20
-87.4574190000000016
11
115.6311899999999895
21
-87.4574190000000016
0
LINE
8
LYELLOW
6
CONTINUOUS
10
115.6311899999999895
20
-87.4574190000000016
11
115.7264279999999985
21
-87.40979999999999
0
LINE
8
LYELLOW
6
CONTINUOUS
10
115.7264279999999985
20
-87.40979999999999
11
115.7740469999999959
21
-87.3621799999999951
0
LINE
8
LYELLOW
6
CONTINUOUS
10
115.7740469999999959
20
-87.3621799999999951
11
115.8216659999999933
21
-87.2669420000000002
0
LINE
8
LYELLOW
6
CONTINUOUS
10
115.8216659999999933
20
-87.2669420000000002
11
115.8216659999999933
21
-87.028846999999999
0
LINE
8
LYELLOW
6
CONTINUOUS
10
115.8216659999999933
20
-87.028846999999999
11
115.7740469999999959
21
-86.9336089999999899
0
LINE
8
LYELLOW
6
CONTINUOUS
10
115.7740469999999959
20
-86.9336089999999899
11
115.7264279999999985
21
-86.8859899999999925
0
LINE
8
LYELLOW
6
CONTINUOUS
10
115.7264279999999985
20
-86.8859899999999925
11
115.6311899999999895
21
-86.8383709999999951
0
LINE
8
LYELLOW
6
CONTINUOUS
10
115.6311899999999895
20
-86.8383709999999951
11
115.4407139999999998
21
-86.8383709999999951
0
LINE
8
LYELLOW
6
CONTINUOUS
10
115.4407139999999998
20
-86.8383709999999951
11
115.3454759999999908
21
-86.8859899999999925
0
LINE
8
LYELLOW
6
CONTINUOUS
10
115.3454759999999908
20
-86.8859899999999925
11
115.2978569999999934
21
-86.9336089999999899
0
LINE
8
LYELLOW
6
CONTINUOUS
10
115.2978569999999934
20
-86.9336089999999899
11
115.250237999999996
21
-87.028846999999999
0
LINE
8
LYELLOW
6
CONTINUOUS
10
110.6666659999999922
20
-86.7074190000000016
11
110.6666659999999922
21
-87.4217039999999912
0
LINE
8
LYELLOW
6
CONTINUOUS
10
110.6666659999999922
20
-87.4217039999999912
11
110.6190469999999948
21
-87.5645609999999976
0
LINE
8
LYELLOW
6
CONTINUOUS
10
110.6190469999999948
20
-87.5645609999999976
11
110.523809
21
-87.65979999999999
0
LINE
8
LYELLOW
6
CONTINUOUS
10
110.523809
20
-87.65979999999999
11
110.3809519999999935
21
-87.7074190000000016
0
LINE
8
LYELLOW
6
CONTINUOUS
10
110.3809519999999935
20
-87.7074190000000016
11
110.2857139999999987
21
-87.7074190000000016
0
LINE
8
LYELLOW
6
CONTINUOUS
10
111.5714279999999974
20
-87.0407519999999977
11
111.5714279999999974
21
-87.7074190000000016
0
LINE
8
LYELLOW
6
CONTINUOUS
10
111.3333329999999961
20
-86.65979999999999
11
111.0952379999999948
21
-87.3740849999999938
0
LINE
8
LYELLOW
6
CONTINUOUS
10
111.0952379999999948
20
-87.3740849999999938
11
111.7142849999999896
21
-87.3740849999999938
0
LINE
8
LYELLOW
6
CONTINUOUS
10
115.2049969999999917
20
-73.8449990000000014
11
113.3250019999999978
21
-73.8449949999999973
0
LINE
8
LYELLOW
6
CONTINUOUS
10
115.2049969999999917
20
-76.2650000000000006
11
113.3249999999999886
21
-76.2649990000000031
0
LINE
8
LYELLOW
6
CONTINUOUS
10
115.2049999999999983
20
-70.8899969999999939
11
119.6049969999999973
21
-70.8899959999999965
0
LINE
8
LYELLOW
6
CONTINUOUS
10
115.2049999999999983
20
-74.3550010000000015
11
113.3249979999999937
21
-74.3549959999999999
0
LINE
8
LYELLOW
6
CONTINUOUS
10
115.2049999999999983
20
-77.6649989999999946
11
113.3249999999999886
21
-77.6650020000000012
0
LINE
8
LYELLOW
6
CONTINUOUS
10
115.2049999999999983
20
-78.1750009999999946
11
113.3249999999999886
21
-78.1749949999999956
0
LINE
8
LYELLOW
6
CONTINUOUS
10
115.2050009999999958
20
-75.7549980000000005
11
113.3249979999999937
21
-75.7550009999999929
0
LINE
8
LYELLOW
6
CONTINUOUS
10
115.2050009999999958
20
-81.1300009999999929
11
115.2049999999999983
21
-70.8899969999999939
0
LINE
8
LYELLOW
6
CONTINUOUS
10
115.2050009999999958
20
-81.1300009999999929
11
119.6049989999999923
21
-81.1300019999999904
0
LINE
8
LYELLOW
6
CONTINUOUS
10
119.6049969999999973
20
-70.8899959999999965
11
119.6049999999999898
21
-68.890002999999993
0
LINE
8
LYELLOW
6
CONTINUOUS
10
119.6049989999999923
20
-81.1300019999999904
11
119.6050039999999939
21
-83.129998999999998
0
LINE
8
LYELLOW
6
CONTINUOUS
10
119.6049999999999898
20
-68.890002999999993
11
130.5250000000000057
21
-68.8900000000000006
0
LINE
8
LYELLOW
6
CONTINUOUS
10
119.6050039999999939
20
-83.129998999999998
11
130.5250020000000006
21
-83.1299980000000005
0
LINE
8
LYELLOW
6
CONTINUOUS
10
128.4449979999999982
20
-73.1300009999999929
11
128.4450009999999907
21
-78.8900019999999955
0
LINE
8
LYELLOW
6
CONTINUOUS
10
128.4449979999999982
20
-73.1300009999999929
11
130.5249990000000082
21
-73.1300019999999904
0
LINE
8
LYELLOW
6
CONTINUOUS
10
128.4450009999999907
20
-78.8900019999999955
11
130.5250000000000057
21
-78.890000999999998
0
LINE
8
LYELLOW
6
CONTINUOUS
10
111.9900009999999924
20
-81.3537359999999978
11
111.9899969999999882
21
-81.6462689999999895
0
LINE
8
LYELLOW
6
CONTINUOUS
10
113.0100029999999975
20
-81.3537309999999962
11
113.0099989999999934
21
-81.6462640000000022
0
CIRCLE
8
LYELLOW
10
115.25
20
-85.
40
1.7
0
CIRCLE
8
LYELLOW
10
111.
20
-95.5
40
1.7
0
LINE
8
LYELLOW
6
CONTINUOUS
10
110.0047179999999969
20
-81.0225030000000004
11
109.4952709999999882
21
-81.0224979999999988
0
LINE
8
LYELLOW
6
CONTINUOUS
10
110.0047289999999975
20
-79.9775020000000012
11
109.4952819999999889
21
-79.9774969999999996
0
LINE
8
LYELLOW
6
CONTINUOUS
10
119.7999969999999905
20
-91.7999969999999905
11
120.0499999999999972
21
-91.799995999999993
0
LINE
8
LYELLOW
6
CONTINUOUS
10
119.799997999999988
20
-94.299995999999993
11
119.7999969999999905
21
-91.7999969999999905
0
LINE
8
LYELLOW
6
CONTINUOUS
10
120.0499999999999972
20
-91.799995999999993
11
121.5499969999999905
21
-88.4499939999999896
0
LINE
8
LYELLOW
6
CONTINUOUS
10
120.5499969999999905
20
-98.7999980000000022
11
120.5499969999999905
21
-105.649996999999999
0
LINE
8
LYELLOW
6
CONTINUOUS
10
120.5499969999999905
20
-105.649996999999999
11
134.5499989999999855
21
-105.649996999999999
0
LINE
8
LYELLOW
6
CONTINUOUS
10
121.549997999999988
20
-97.9499950000000013
11
133.5499969999999905
21
-97.9499969999999962
0
LINE
8
LYELLOW
6
CONTINUOUS
10
134.5499989999999855
20
-105.649996999999999
11
134.5499989999999855
21
-98.7999949999999956
0
LINE
8
LYELLOW
6
CONTINUOUS
10
135.0499969999999905
20
-91.8000009999999946
11
133.9500019999999836
21
-89.2999969999999905
0
LINE
8
LYELLOW
6
CONTINUOUS
10
135.2999989999999855
20
-91.7999969999999905
11
135.0499969999999905
21
-91.8000009999999946
0
LINE
8
LYELLOW
6
CONTINUOUS
10
135.2999999999999829
20
-94.2999989999999997
11
135.2999989999999855
21
-91.7999969999999905
0
ARC
8
LYELLOW
10
131.1499979999999823
20
-87.6999979999999937
40
0.0500010000099998
50
-89.99770817
51
90.00114589
0
ARC
8
LYELLOW
10
131.1499979999999823
20
-87.6999979999999937
40
0.05000000004
50
-269.99885411
51
-89.99770817
0
CIRCLE
8
LYELLOW
10
115.25
20
-95.5
40
1.7
0
LINE
8
LYELLOW
6
CONTINUOUS
10
106.9900009999999924
20
-75.1037359999999978
11
106.9899969999999882
21
-75.3962689999999895
0
LINE
8
LYELLOW
6
CONTINUOUS
10
108.0100029999999975
20
-75.1037309999999962
11
108.0099989999999934
21
-75.3962640000000022
0
CIRCLE
8
LYELLOW
10
110.75
20
-85.
40
1.7
0
LINE
8
LYELLOW
6
CONTINUOUS
10
119.9499999999999886
20
-47.6124999999999972
11
135.4499999999999886
21
-47.6124999999999972
0
LINE
8
LYELLOW
6
CONTINUOUS
10
119.9499999999999886
20
-56.4624999999999986
11
119.9499999999999886
21
-47.6124999999999972
0
LINE
8
LYELLOW
6
CONTINUOUS
10
119.9499999999999886
20
-59.4624999999999986
11
119.9499999999999886
21
-65.8125
0
LINE
8
LYELLOW
6
CONTINUOUS
10
119.9499999999999886
20
-65.8125
11
121.1999999999999886
21
-65.8125
0
LINE
8
LYELLOW
6
CONTINUOUS
10
129.1999999999999886
20
-65.8125
11
126.6999999999999886
21
-65.8125
0
LINE
8
LYELLOW
6
CONTINUOUS
10
135.4499999999999886
20
-47.6124999999999972
11
135.4499999999999886
21
-56.4624999999999986
0
LINE
8
LYELLOW
6
CONTINUOUS
10
135.4499999999999886
20
-59.4624999999999986
11
135.4499999999999886
21
-65.8125
0
LINE
8
LYELLOW
6
CONTINUOUS
10
135.4499999999999886
20
-65.8125
11
133.1999999999999886
21
-65.8125
0
ARC
8
LYELLOW
10
124.0999999999999943
20
-66.4124999999999943
40
0.05
50
-90.00000000
51
90.00000000
0
ARC
8
LYELLOW
10
124.0999999999999943
20
-66.4124999999999943
40
0.05
50
-270.00000000
51
-90.00000000
0
CIRCLE
8
LYELLOW
10
115.25
20
-90.
40
1.7
0
CIRCLE
8
LYELLOW
10
111.
20
-90.
40
1.7
0
CIRCLE
8
LYELLOW
10
112.4249999999999972
20
-74.0999989999999968
40
0.4
0
CIRCLE
8
LYELLOW
10
112.4250019999999921
20
-76.0100020000000001
40
0.4
0
CIRCLE
8
LYELLOW
10
112.4249999999999972
20
-77.91999899999999
40
0.4
0
CIRCLE
8
LYELLOW
10
133.1950039999999831
20
-77.0600019999999972
40
0.25
0
CIRCLE
8
LYELLOW
10
134.4549989999999866
20
-77.0600029999999947
40
0.25
0
CIRCLE
8
LYELLOW
10
135.4849999999999852
20
-77.8099989999999906
40
0.25
0
CIRCLE
8
LYELLOW
10
132.165001999999987
20
-77.8100000000000023
40
0.25
0
CIRCLE
8
LYELLOW
10
135.8750009999999975
20
-79.009996000000001
40
0.25
0
CIRCLE
8
LYELLOW
10
131.7750020000000006
20
-79.0100020000000001
40
0.25
0
CIRCLE
8
LYELLOW
10
135.874998000000005
20
-80.3399969999999968
40
0.25
0
CIRCLE
8
LYELLOW
10
131.7750020000000006
20
-80.3400010000000009
40
0.25
0
LINE
8
LYELLOW
6
CONTINUOUS
10
132.8249999999999886
20
-79.0099969999999985
11
132.8249999999999886
21
-83.0099969999999985
0
ARC
8
LYELLOW
10
133.8249999999999886
20
-83.0099969999999985
40
1.
50
180.00000000
51
360.00000000
0
LINE
8
LYELLOW
6
CONTINUOUS
10
134.8249999999999886
20
-83.0099969999999985
11
134.8249999999999886
21
-79.0099969999999985
0
ARC
8
LYELLOW
10
133.8249999999999886
20
-79.0099969999999985
40
1.
50
360.00000000
51
540.00000000
0
CIRCLE
8
LYELLOW
10
135.875
20
-81.6799989999999951
40
0.25
0
CIRCLE
8
LYELLOW
10
131.7750000000000057
20
-81.6799989999999951
40
0.25
0
CIRCLE
8
LYELLOW
10
135.875
20
-83.0099969999999985
40
0.25
0
CIRCLE
8
LYELLOW
10
131.7749979999999823
20
-83.009997999999996
40
0.25
0
CIRCLE
8
LYELLOW
10
135.4850009999999827
20
-84.2099959999999896
40
0.25
0
CIRCLE
8
LYELLOW
10
132.1650029999999845
20
-84.2099959999999896
40
0.25
0
CIRCLE
8
LYELLOW
10
134.4549999999999841
20
-84.9599970000000013
40
0.25
0
CIRCLE
8
LYELLOW
10
133.1949999999999932
20
-84.9599989999999963
40
0.25
0
CIRCLE
8
LYELLOW
10
134.4549999999999841
20
-67.0600009999999997
40
0.25
0
CIRCLE
8
LYELLOW
10
133.1949970000000008
20
-67.0600009999999997
40
0.25
0
CIRCLE
8
LYELLOW
10
135.4849999999999852
20
-67.8099989999999906
40
0.25
0
CIRCLE
8
LYELLOW
10
132.164999999999992
20
-67.8100009999999997
40
0.25
0
CIRCLE
8
LYELLOW
10
135.875
20
-69.009997999999996
40
0.25
0
CIRCLE
8
LYELLOW
10
131.7750020000000006
20
-69.009997999999996
40
0.25
0
CIRCLE
8
LYELLOW
10
135.875
20
-70.3399929999999927
40
0.25
0
CIRCLE
8
LYELLOW
10
131.7750000000000057
20
-70.3399989999999917
40
0.25
0
LINE
8
LYELLOW
6
CONTINUOUS
10
132.8249999999999886
20
-69.0099989999999934
11
132.8249999999999886
21
-73.0099989999999934
0
ARC
8
LYELLOW
10
133.8249999999999886
20
-73.0099989999999934
40
1.
50
180.00000000
51
360.00000000
0
LINE
8
LYELLOW
6
CONTINUOUS
10
134.8249999999999886
20
-73.0099989999999934
11
134.8249999999999886
21
-69.0099989999999934
0
ARC
8
LYELLOW
10
133.8249999999999886
20
-69.0099989999999934
40
1.
50
360.00000000
51
540.00000000
0
CIRCLE
8
LYELLOW
10
135.875
20
-71.6799989999999951
40
0.25
0
CIRCLE
8
LYELLOW
10
131.7749949999999899
20
-71.6799989999999951
40
0.25
0
CIRCLE
8
LYELLOW
10
131.7750000000000057
20
-73.009996000000001
40
0.25
0
CIRCLE
8
LYELLOW
10
135.874998000000005
20
-73.0099969999999985
40
0.25
0
CIRCLE
8
LYELLOW
10
132.164999999999992
20
-74.2099989999999963
40
0.25
0
CIRCLE
8
LYELLOW
10
135.4849989999999877
20
-74.2099999999999937
40
0.25
0
CIRCLE
8
LYELLOW
10
133.1950019999999881
20
-74.9599989999999963
40
0.25
0
CIRCLE
8
LYELLOW
10
134.4550009999999816
20
-74.9600030000000004
40
0.25
0
CIRCLE
8
LYELLOW
10
115.25
20
-85.
40
0.75
0
CIRCLE
8
LYELLOW
10
111.
20
-95.5
40
0.75
0
CIRCLE
8
LYELLOW
10
131.1499990000000082
20
-90.2999969999999905
40
1.3499999999999999
0
CIRCLE
8
LYELLOW
10
123.9499989999999912
20
-90.2999969999999905
40
1.3499999999999999
0
CIRCLE
8
LYELLOW
10
134.2999999999999829
20
-96.2999999999999972
40
0.8999999999999999
0
CIRCLE
8
LYELLOW
10
120.7999989999999997
20
-96.2999969999999905
40
0.8999999999999999
0
CIRCLE
8
LYELLOW
10
115.25
20
-95.5
40
0.75
0
CIRCLE
8
LYELLOW
10
110.75
20
-85.
40
0.75
0
CIRCLE
8
LYELLOW
10
124.0999999999999943
20
-63.9624999999999986
40
1.3499999999999999
0
CIRCLE
8
LYELLOW
10
131.2999999999999829
20
-63.9624999999999986
40
1.3499999999999999
0
CIRCLE
8
LYELLOW
10
120.9499999999999886
20
-57.9624999999999986
40
0.8999999999999999
0
CIRCLE
8
LYELLOW
10
134.4499999999999886
20
-57.9624999999999986
40
0.8999999999999999
0
CIRCLE
8
LYELLOW
10
115.25
20
-90.
40
0.75
0
CIRCLE
8
LYELLOW
10
111.
20
-90.
40
0.75
  0
ENDSEC
  0
EOF
