  0
SECTION
  2
HEADER
  9
$ANGBASE
  50
0.0
  9
$ANGDIR
  70
1
  9
$MEASUREMENT
  70
1
  0
ENDSEC
  0
SECTION
  2
TABLES
  0
TABLE
  2
LTYPE
  70
4
  0
LTYPE
  5
40F
  2
CONTINUOUS
  70
0
  3
Solid line
  72
65
  73
0
  40
0.0
  0
LTYPE
  5
410
  2
DASHDOT
 70
0
  3
Dash Dot ____ _ ____ _
 72
65
 73
4
 40
2.0
 49
1.25
 49
-0.25
 49
0.25
 49
-0.25
  0
LTYPE
  5
411
  2
DASHED
 70
0
  3
Dashed __ __ __ __ __
 72
65
 73
2
 40
0.75
 49
0.5
 49
-0.25
  0
LTYPE
  5
43B
  2
DOTTED
 70
0
  3
Dotted .  .  .  .
 72
65
 73
2
 40
0.2
 49
0.0
 49
-0.2
  0
ENDTAB
  0
TABLE
  2
STYLE
  70
4
  0
STYLE
  2
KICAD
  70
0
  40
0
  41
1
  42
1
  50
0
  71
0
  3
isocp.shx
  0
STYLE
  2
KICADB
  70
0
  40
0
  41
1
  42
1
  50
0
  71
0
  3
isocp.shx
  0
STYLE
  2
KICADI
  70
0
  40
0
  41
1
  42
1
  50
15
  71
0
  3
isocp.shx
  0
STYLE
  2
KICADBI
  70
0
  40
0
  41
1
  42
1
  50
15
  71
0
  3
isocp.shx
  0
ENDTAB
  0
TABLE
  2
LAYER
  70
35
  0
LAYER
  2
BLACK
  70
0
  62
7
  6
CONTINUOUS
  0
LAYER
  2
GRAY1
  70
0
  62
251
  6
CONTINUOUS
  0
LAYER
  2
GRAY2
  70
0
  62
8
  6
CONTINUOUS
  0
LAYER
  2
GRAY3
  70
0
  62
9
  6
CONTINUOUS
  0
LAYER
  2
WHITE
  70
0
  62
7
  6
CONTINUOUS
  0
LAYER
  2
LYELLOW
  70
0
  62
51
  6
CONTINUOUS
  0
LAYER
  2
LORANGE
  70
0
  62
41
  6
CONTINUOUS
  0
LAYER
  2
BLUE1
  70
0
  62
178
  6
CONTINUOUS
  0
LAYER
  2
GREEN1
  70
0
  62
98
  6
CONTINUOUS
  0
LAYER
  2
CYAN1
  70
0
  62
138
  6
CONTINUOUS
  0
LAYER
  2
RED1
  70
0
  62
18
  6
CONTINUOUS
  0
LAYER
  2
MAGENTA1
  70
0
  62
228
  6
CONTINUOUS
  0
LAYER
  2
BROWN1
  70
0
  62
58
  6
CONTINUOUS
  0
LAYER
  2
ORANGE1
  70
0
  62
34
  6
CONTINUOUS
  0
LAYER
  2
BLUE2
  70
0
  62
5
  6
CONTINUOUS
  0
LAYER
  2
GREEN2
  70
0
  62
3
  6
CONTINUOUS
  0
LAYER
  2
CYAN2
  70
0
  62
4
  6
CONTINUOUS
  0
LAYER
  2
RED2
  70
0
  62
1
  6
CONTINUOUS
  0
LAYER
  2
MAGENTA2
  70
0
  62
6
  6
CONTINUOUS
  0
LAYER
  2
BROWN2
  70
0
  62
54
  6
CONTINUOUS
  0
LAYER
  2
ORANGE2
  70
0
  62
42
  6
CONTINUOUS
  0
LAYER
  2
BLUE3
  70
0
  62
171
  6
CONTINUOUS
  0
LAYER
  2
GREEN3
  70
0
  62
91
  6
CONTINUOUS
  0
LAYER
  2
CYAN3
  70
0
  62
131
  6
CONTINUOUS
  0
LAYER
  2
RED3
  70
0
  62
11
  6
CONTINUOUS
  0
LAYER
  2
MAGENTA3
  70
0
  62
221
  6
CONTINUOUS
  0
LAYER
  2
YELLOW3
  70
0
  62
2
  6
CONTINUOUS
  0
LAYER
  2
ORANGE3
  70
0
  62
32
  6
CONTINUOUS
  0
LAYER
  2
BLUE4
  70
0
  62
5
  6
CONTINUOUS
  0
LAYER
  2
GREEN4
  70
0
  62
3
  6
CONTINUOUS
  0
LAYER
  2
CYAN4
  70
0
  62
4
  6
CONTINUOUS
  0
LAYER
  2
RED4
  70
0
  62
1
  6
CONTINUOUS
  0
LAYER
  2
MAGENTA4
  70
0
  62
6
  6
CONTINUOUS
  0
LAYER
  2
YELLOW4
  70
0
  62
2
  6
CONTINUOUS
  0
LAYER
  2
ORANGE4
  70
0
  62
40
  6
CONTINUOUS
  0
ENDTAB
  0
ENDSEC
  0
SECTION
  2
ENTITIES
0
LINE
8
BLACK
6
CONTINUOUS
10
134.6151509999999973
20
-94.9873010000000022
11
134.8166229999999928
21
-95.0527629999999988
0
LINE
8
BLACK
6
CONTINUOUS
10
134.8166229999999928
20
-95.0527629999999988
11
135.0053729999999916
21
-95.148935999999992
0
LINE
8
BLACK
6
CONTINUOUS
10
135.0053729999999916
20
-95.148935999999992
11
135.1767549999999858
21
-95.2734519999999918
0
LINE
8
BLACK
6
CONTINUOUS
10
135.1767549999999858
20
-95.2734519999999918
11
135.3265480000000025
21
-95.4232449999999943
0
LINE
8
BLACK
6
CONTINUOUS
10
135.3265480000000025
20
-95.4232449999999943
11
135.4510640000000024
21
-95.5946270000000027
0
LINE
8
BLACK
6
CONTINUOUS
10
135.4510640000000024
20
-95.5946270000000027
11
135.5472369999999955
21
-95.7833770000000015
0
LINE
8
BLACK
6
CONTINUOUS
10
135.5472369999999955
20
-95.7833770000000015
11
135.6126989999999921
21
-95.984848999999997
0
LINE
8
BLACK
6
CONTINUOUS
10
135.6126989999999921
20
-95.984848999999997
11
135.6458379999999977
21
-96.1940799999999996
0
LINE
8
BLACK
6
CONTINUOUS
10
135.6458379999999977
20
-96.1940799999999996
11
135.6458379999999977
21
-96.4059199999999947
0
LINE
8
BLACK
6
CONTINUOUS
10
135.6458379999999977
20
-96.4059199999999947
11
135.6126989999999921
21
-96.6151509999999973
0
LINE
8
BLACK
6
CONTINUOUS
10
135.6126989999999921
20
-96.6151509999999973
11
135.5472369999999955
21
-96.8166229999999928
0
LINE
8
BLACK
6
CONTINUOUS
10
135.5472369999999955
20
-96.8166229999999928
11
135.4510640000000024
21
-97.0053729999999916
0
LINE
8
BLACK
6
CONTINUOUS
10
135.4510640000000024
20
-97.0053729999999916
11
135.3265480000000025
21
-97.176755
0
LINE
8
BLACK
6
CONTINUOUS
10
135.3265480000000025
20
-97.176755
11
135.1767549999999858
21
-97.3265480000000025
0
LINE
8
BLACK
6
CONTINUOUS
10
135.1767549999999858
20
-97.3265480000000025
11
135.0053729999999916
21
-97.4510640000000024
0
LINE
8
BLACK
6
CONTINUOUS
10
135.0053729999999916
20
-97.4510640000000024
11
134.8166229999999928
21
-97.5472369999999955
0
LINE
8
BLACK
6
CONTINUOUS
10
134.8166229999999928
20
-97.5472369999999955
11
134.6151509999999973
21
-97.6126989999999921
0
LINE
8
BLACK
6
CONTINUOUS
10
134.6151509999999973
20
-97.6126989999999921
11
134.4059199999999805
21
-97.6458379999999977
0
LINE
8
BLACK
6
CONTINUOUS
10
134.4059199999999805
20
-97.6458379999999977
11
134.1940799999999854
21
-97.6458379999999977
0
LINE
8
BLACK
6
CONTINUOUS
10
134.1940799999999854
20
-97.6458379999999977
11
133.984848999999997
21
-97.6126989999999921
0
LINE
8
BLACK
6
CONTINUOUS
10
133.984848999999997
20
-97.6126989999999921
11
133.7833770000000015
21
-97.5472369999999955
0
LINE
8
BLACK
6
CONTINUOUS
10
133.7833770000000015
20
-97.5472369999999955
11
133.5946270000000027
21
-97.4510640000000024
0
LINE
8
BLACK
6
CONTINUOUS
10
133.5946270000000027
20
-97.4510640000000024
11
133.4232449999999801
21
-97.3265480000000025
0
LINE
8
BLACK
6
CONTINUOUS
10
133.4232449999999801
20
-97.3265480000000025
11
133.2734519999999918
21
-97.176755
0
LINE
8
BLACK
6
CONTINUOUS
10
133.2734519999999918
20
-97.176755
11
133.148935999999992
21
-97.0053729999999916
0
LINE
8
BLACK
6
CONTINUOUS
10
133.148935999999992
20
-97.0053729999999916
11
133.0527629999999988
21
-96.8166229999999928
0
LINE
8
BLACK
6
CONTINUOUS
10
133.0527629999999988
20
-96.8166229999999928
11
132.9873010000000022
21
-96.6151509999999973
0
LINE
8
BLACK
6
CONTINUOUS
10
132.9873010000000022
20
-96.6151509999999973
11
132.9541619999999966
21
-96.4059199999999947
0
LINE
8
BLACK
6
CONTINUOUS
10
132.9541619999999966
20
-96.4059199999999947
11
132.9541619999999966
21
-96.1940799999999996
0
LINE
8
BLACK
6
CONTINUOUS
10
132.9541619999999966
20
-96.1940799999999996
11
132.9873010000000022
21
-95.984848999999997
0
LINE
8
BLACK
6
CONTINUOUS
10
132.9873010000000022
20
-95.984848999999997
11
133.0527629999999988
21
-95.7833770000000015
0
LINE
8
BLACK
6
CONTINUOUS
10
133.0527629999999988
20
-95.7833770000000015
11
133.148935999999992
21
-95.5946270000000027
0
LINE
8
BLACK
6
CONTINUOUS
10
133.148935999999992
20
-95.5946270000000027
11
133.2734519999999918
21
-95.4232449999999943
0
LINE
8
BLACK
6
CONTINUOUS
10
133.2734519999999918
20
-95.4232449999999943
11
133.4232449999999801
21
-95.2734519999999918
0
LINE
8
BLACK
6
CONTINUOUS
10
133.4232449999999801
20
-95.2734519999999918
11
133.5946270000000027
21
-95.148935999999992
0
LINE
8
BLACK
6
CONTINUOUS
10
133.5946270000000027
20
-95.148935999999992
11
133.7833770000000015
21
-95.0527629999999988
0
LINE
8
BLACK
6
CONTINUOUS
10
133.7833770000000015
20
-95.0527629999999988
11
133.984848999999997
21
-94.9873010000000022
0
LINE
8
BLACK
6
CONTINUOUS
10
133.984848999999997
20
-94.9873010000000022
11
134.1940799999999854
21
-94.9541619999999966
0
LINE
8
BLACK
6
CONTINUOUS
10
134.1940799999999854
20
-94.9541619999999966
11
134.4059199999999805
21
-94.9541619999999966
0
LINE
8
BLACK
6
CONTINUOUS
10
134.4059199999999805
20
-94.9541619999999966
11
134.6151509999999973
21
-94.9873010000000022
0
LINE
8
BLACK
6
CONTINUOUS
10
121.1151499999999999
20
-94.9872979999999956
11
121.3166219999999953
21
-95.0527599999999921
0
LINE
8
BLACK
6
CONTINUOUS
10
121.3166219999999953
20
-95.0527599999999921
11
121.5053719999999942
21
-95.1489329999999995
0
LINE
8
BLACK
6
CONTINUOUS
10
121.5053719999999942
20
-95.1489329999999995
11
121.6767539999999883
21
-95.2734489999999994
0
LINE
8
BLACK
6
CONTINUOUS
10
121.6767539999999883
20
-95.2734489999999994
11
121.8265469999999908
21
-95.4232420000000019
0
LINE
8
BLACK
6
CONTINUOUS
10
121.8265469999999908
20
-95.4232420000000019
11
121.9510629999999907
21
-95.594623999999996
0
LINE
8
BLACK
6
CONTINUOUS
10
121.9510629999999907
20
-95.594623999999996
11
122.0472359999999981
21
-95.7833739999999949
0
LINE
8
BLACK
6
CONTINUOUS
10
122.0472359999999981
20
-95.7833739999999949
11
122.1126979999999946
21
-95.9848459999999903
0
LINE
8
BLACK
6
CONTINUOUS
10
122.1126979999999946
20
-95.9848459999999903
11
122.1458370000000002
21
-96.1940769999999929
0
LINE
8
BLACK
6
CONTINUOUS
10
122.1458370000000002
20
-96.1940769999999929
11
122.1458370000000002
21
-96.4059170000000023
0
LINE
8
BLACK
6
CONTINUOUS
10
122.1458370000000002
20
-96.4059170000000023
11
122.1126979999999946
21
-96.6151479999999907
0
LINE
8
BLACK
6
CONTINUOUS
10
122.1126979999999946
20
-96.6151479999999907
11
122.0472359999999981
21
-96.8166200000000003
0
LINE
8
BLACK
6
CONTINUOUS
10
122.0472359999999981
20
-96.8166200000000003
11
121.9510629999999907
21
-97.0053699999999992
0
LINE
8
BLACK
6
CONTINUOUS
10
121.9510629999999907
20
-97.0053699999999992
11
121.8265469999999908
21
-97.1767519999999934
0
LINE
8
BLACK
6
CONTINUOUS
10
121.8265469999999908
20
-97.1767519999999934
11
121.6767539999999883
21
-97.3265449999999959
0
LINE
8
BLACK
6
CONTINUOUS
10
121.6767539999999883
20
-97.3265449999999959
11
121.5053719999999942
21
-97.4510609999999957
0
LINE
8
BLACK
6
CONTINUOUS
10
121.5053719999999942
20
-97.4510609999999957
11
121.3166219999999953
21
-97.5472339999999889
0
LINE
8
BLACK
6
CONTINUOUS
10
121.3166219999999953
20
-97.5472339999999889
11
121.1151499999999999
21
-97.6126959999999997
0
LINE
8
BLACK
6
CONTINUOUS
10
121.1151499999999999
20
-97.6126959999999997
11
120.9059189999999973
21
-97.6458349999999911
0
LINE
8
BLACK
6
CONTINUOUS
10
120.9059189999999973
20
-97.6458349999999911
11
120.6940789999999879
21
-97.6458349999999911
0
LINE
8
BLACK
6
CONTINUOUS
10
120.6940789999999879
20
-97.6458349999999911
11
120.4848479999999995
21
-97.6126959999999997
0
LINE
8
BLACK
6
CONTINUOUS
10
120.4848479999999995
20
-97.6126959999999997
11
120.2833759999999899
21
-97.5472339999999889
0
LINE
8
BLACK
6
CONTINUOUS
10
120.2833759999999899
20
-97.5472339999999889
11
120.094625999999991
21
-97.4510609999999957
0
LINE
8
BLACK
6
CONTINUOUS
10
120.094625999999991
20
-97.4510609999999957
11
119.9232439999999968
21
-97.3265449999999959
0
LINE
8
BLACK
6
CONTINUOUS
10
119.9232439999999968
20
-97.3265449999999959
11
119.7734509999999943
21
-97.1767519999999934
0
LINE
8
BLACK
6
CONTINUOUS
10
119.7734509999999943
20
-97.1767519999999934
11
119.6489349999999945
21
-97.0053699999999992
0
LINE
8
BLACK
6
CONTINUOUS
10
119.6489349999999945
20
-97.0053699999999992
11
119.5527620000000013
21
-96.8166200000000003
0
LINE
8
BLACK
6
CONTINUOUS
10
119.5527620000000013
20
-96.8166200000000003
11
119.4872999999999905
21
-96.6151479999999907
0
LINE
8
BLACK
6
CONTINUOUS
10
119.4872999999999905
20
-96.6151479999999907
11
119.4541609999999991
21
-96.4059170000000023
0
LINE
8
BLACK
6
CONTINUOUS
10
119.4541609999999991
20
-96.4059170000000023
11
119.4541609999999991
21
-96.1940769999999929
0
LINE
8
BLACK
6
CONTINUOUS
10
119.4541609999999991
20
-96.1940769999999929
11
119.4872999999999905
21
-95.9848459999999903
0
LINE
8
BLACK
6
CONTINUOUS
10
119.4872999999999905
20
-95.9848459999999903
11
119.5527620000000013
21
-95.7833739999999949
0
LINE
8
BLACK
6
CONTINUOUS
10
119.5527620000000013
20
-95.7833739999999949
11
119.6489349999999945
21
-95.594623999999996
0
LINE
8
BLACK
6
CONTINUOUS
10
119.6489349999999945
20
-95.594623999999996
11
119.7734509999999943
21
-95.4232420000000019
0
LINE
8
BLACK
6
CONTINUOUS
10
119.7734509999999943
20
-95.4232420000000019
11
119.9232439999999968
21
-95.2734489999999994
0
LINE
8
BLACK
6
CONTINUOUS
10
119.9232439999999968
20
-95.2734489999999994
11
120.094625999999991
21
-95.1489329999999995
0
LINE
8
BLACK
6
CONTINUOUS
10
120.094625999999991
20
-95.1489329999999995
11
120.2833759999999899
21
-95.0527599999999921
0
LINE
8
BLACK
6
CONTINUOUS
10
120.2833759999999899
20
-95.0527599999999921
11
120.4848479999999995
21
-94.9872979999999956
0
LINE
8
BLACK
6
CONTINUOUS
10
120.4848479999999995
20
-94.9872979999999956
11
120.6940789999999879
21
-94.95415899999999
0
LINE
8
BLACK
6
CONTINUOUS
10
120.6940789999999879
20
-94.95415899999999
11
120.9059189999999973
21
-94.95415899999999
0
LINE
8
BLACK
6
CONTINUOUS
10
120.9059189999999973
20
-94.95415899999999
11
121.1151499999999999
21
-94.9872979999999956
0
LINE
8
BLACK
6
CONTINUOUS
10
111.3501679999999965
20
-88.541444999999996
11
111.5740249999999918
21
-88.6141810000000021
0
LINE
8
BLACK
6
CONTINUOUS
10
111.5740249999999918
20
-88.6141810000000021
11
111.7837479999999886
21
-88.7210400000000021
0
LINE
8
BLACK
6
CONTINUOUS
10
111.7837479999999886
20
-88.7210400000000021
11
111.9741719999999958
21
-88.8593910000000022
0
LINE
8
BLACK
6
CONTINUOUS
10
111.9741719999999958
20
-88.8593910000000022
11
112.1406089999999978
21
-89.02582799999999
0
LINE
8
BLACK
6
CONTINUOUS
10
112.1406089999999978
20
-89.02582799999999
11
112.2789599999999979
21
-89.2162519999999972
0
LINE
8
BLACK
6
CONTINUOUS
10
112.2789599999999979
20
-89.2162519999999972
11
112.3858189999999979
21
-89.425974999999994
0
LINE
8
BLACK
6
CONTINUOUS
10
112.3858189999999979
20
-89.425974999999994
11
112.4585549999999898
21
-89.6498319999999893
0
LINE
8
BLACK
6
CONTINUOUS
10
112.4585549999999898
20
-89.6498319999999893
11
112.4953759999999932
21
-89.8823110000000014
0
LINE
8
BLACK
6
CONTINUOUS
10
112.4953759999999932
20
-89.8823110000000014
11
112.4953759999999932
21
-90.1176889999999986
0
LINE
8
BLACK
6
CONTINUOUS
10
112.4953759999999932
20
-90.1176889999999986
11
112.4585549999999898
21
-90.3501679999999965
0
LINE
8
BLACK
6
CONTINUOUS
10
112.4585549999999898
20
-90.3501679999999965
11
112.3858189999999979
21
-90.5740249999999918
0
LINE
8
BLACK
6
CONTINUOUS
10
112.3858189999999979
20
-90.5740249999999918
11
112.2789599999999979
21
-90.7837480000000028
0
LINE
8
BLACK
6
CONTINUOUS
10
112.2789599999999979
20
-90.7837480000000028
11
112.1406089999999978
21
-90.9741719999999958
0
LINE
8
BLACK
6
CONTINUOUS
10
112.1406089999999978
20
-90.9741719999999958
11
111.9741719999999958
21
-91.1406089999999978
0
LINE
8
BLACK
6
CONTINUOUS
10
111.9741719999999958
20
-91.1406089999999978
11
111.7837479999999886
21
-91.2789599999999979
0
LINE
8
BLACK
6
CONTINUOUS
10
111.7837479999999886
20
-91.2789599999999979
11
111.5740249999999918
21
-91.3858189999999979
0
LINE
8
BLACK
6
CONTINUOUS
10
111.5740249999999918
20
-91.3858189999999979
11
111.3501679999999965
21
-91.4585549999999898
0
LINE
8
BLACK
6
CONTINUOUS
10
111.3501679999999965
20
-91.4585549999999898
11
111.1176889999999986
21
-91.4953759999999932
0
LINE
8
BLACK
6
CONTINUOUS
10
111.1176889999999986
20
-91.4953759999999932
11
110.8823110000000014
21
-91.4953759999999932
0
LINE
8
BLACK
6
CONTINUOUS
10
110.8823110000000014
20
-91.4953759999999932
11
110.6498319999999893
21
-91.4585549999999898
0
LINE
8
BLACK
6
CONTINUOUS
10
110.6498319999999893
20
-91.4585549999999898
11
110.425974999999994
21
-91.3858189999999979
0
LINE
8
BLACK
6
CONTINUOUS
10
110.425974999999994
20
-91.3858189999999979
11
110.2162519999999972
21
-91.2789599999999979
0
LINE
8
BLACK
6
CONTINUOUS
10
110.2162519999999972
20
-91.2789599999999979
11
110.02582799999999
21
-91.1406089999999978
0
LINE
8
BLACK
6
CONTINUOUS
10
110.02582799999999
20
-91.1406089999999978
11
109.859390999999988
21
-90.9741719999999958
0
LINE
8
BLACK
6
CONTINUOUS
10
109.859390999999988
20
-90.9741719999999958
11
109.7210400000000021
21
-90.7837480000000028
0
LINE
8
BLACK
6
CONTINUOUS
10
109.7210400000000021
20
-90.7837480000000028
11
109.6141810000000021
21
-90.5740249999999918
0
LINE
8
BLACK
6
CONTINUOUS
10
109.6141810000000021
20
-90.5740249999999918
11
109.541444999999996
21
-90.3501679999999965
0
LINE
8
BLACK
6
CONTINUOUS
10
109.541444999999996
20
-90.3501679999999965
11
109.5046239999999926
21
-90.1176889999999986
0
LINE
8
BLACK
6
CONTINUOUS
10
109.5046239999999926
20
-90.1176889999999986
11
109.5046239999999926
21
-89.8823110000000014
0
LINE
8
BLACK
6
CONTINUOUS
10
109.5046239999999926
20
-89.8823110000000014
11
109.541444999999996
21
-89.6498319999999893
0
LINE
8
BLACK
6
CONTINUOUS
10
109.541444999999996
20
-89.6498319999999893
11
109.6141810000000021
21
-89.425974999999994
0
LINE
8
BLACK
6
CONTINUOUS
10
109.6141810000000021
20
-89.425974999999994
11
109.7210400000000021
21
-89.2162519999999972
0
LINE
8
BLACK
6
CONTINUOUS
10
109.7210400000000021
20
-89.2162519999999972
11
109.859390999999988
21
-89.02582799999999
0
LINE
8
BLACK
6
CONTINUOUS
10
109.859390999999988
20
-89.02582799999999
11
110.02582799999999
21
-88.8593910000000022
0
LINE
8
BLACK
6
CONTINUOUS
10
110.02582799999999
20
-88.8593910000000022
11
110.2162519999999972
21
-88.7210400000000021
0
LINE
8
BLACK
6
CONTINUOUS
10
110.2162519999999972
20
-88.7210400000000021
11
110.425974999999994
21
-88.6141810000000021
0
LINE
8
BLACK
6
CONTINUOUS
10
110.425974999999994
20
-88.6141810000000021
11
110.6498319999999893
21
-88.541444999999996
0
LINE
8
BLACK
6
CONTINUOUS
10
110.6498319999999893
20
-88.541444999999996
11
110.8823110000000014
21
-88.5046239999999926
0
LINE
8
BLACK
6
CONTINUOUS
10
110.8823110000000014
20
-88.5046239999999926
11
111.1176889999999986
21
-88.5046239999999926
0
LINE
8
BLACK
6
CONTINUOUS
10
111.1176889999999986
20
-88.5046239999999926
11
111.3501679999999965
21
-88.541444999999996
0
LINE
8
BLACK
6
CONTINUOUS
10
112.642713999999998
20
-77.2022939999999949
11
112.7785480000000007
21
-77.2585579999999936
0
LINE
8
BLACK
6
CONTINUOUS
10
112.7785480000000007
20
-77.2585579999999936
11
112.900794999999988
21
-77.3402409999999918
0
LINE
8
BLACK
6
CONTINUOUS
10
112.900794999999988
20
-77.3402409999999918
11
113.0047579999999954
21
-77.4442039999999992
0
LINE
8
BLACK
6
CONTINUOUS
10
113.0047579999999954
20
-77.4442039999999992
11
113.0864409999999936
21
-77.5664510000000007
0
LINE
8
BLACK
6
CONTINUOUS
10
113.0864409999999936
20
-77.5664510000000007
11
113.1427049999999923
21
-77.7022850000000034
0
LINE
8
BLACK
6
CONTINUOUS
10
113.1427049999999923
20
-77.7022850000000034
11
113.1713889999999907
21
-77.8464859999999987
0
LINE
8
BLACK
6
CONTINUOUS
10
113.1713889999999907
20
-77.8464859999999987
11
113.1713889999999907
21
-77.9935119999999955
0
LINE
8
BLACK
6
CONTINUOUS
10
113.1713889999999907
20
-77.9935119999999955
11
113.1427049999999923
21
-78.1377129999999909
0
LINE
8
BLACK
6
CONTINUOUS
10
113.1427049999999923
20
-78.1377129999999909
11
113.0864409999999936
21
-78.2735469999999935
0
LINE
8
BLACK
6
CONTINUOUS
10
113.0864409999999936
20
-78.2735469999999935
11
113.0047579999999954
21
-78.3957939999999951
0
LINE
8
BLACK
6
CONTINUOUS
10
113.0047579999999954
20
-78.3957939999999951
11
112.900794999999988
21
-78.4997570000000024
0
LINE
8
BLACK
6
CONTINUOUS
10
112.900794999999988
20
-78.4997570000000024
11
112.7785480000000007
21
-78.5814400000000006
0
LINE
8
BLACK
6
CONTINUOUS
10
112.7785480000000007
20
-78.5814400000000006
11
112.642713999999998
21
-78.6377039999999994
0
LINE
8
BLACK
6
CONTINUOUS
10
112.642713999999998
20
-78.6377039999999994
11
112.4985129999999884
21
-78.6663879999999978
0
LINE
8
BLACK
6
CONTINUOUS
10
112.4985129999999884
20
-78.6663879999999978
11
112.3514869999999917
21
-78.6663879999999978
0
LINE
8
BLACK
6
CONTINUOUS
10
112.3514869999999917
20
-78.6663879999999978
11
112.2072859999999963
21
-78.6377039999999994
0
LINE
8
BLACK
6
CONTINUOUS
10
112.2072859999999963
20
-78.6377039999999994
11
112.0714519999999936
21
-78.5814400000000006
0
LINE
8
BLACK
6
CONTINUOUS
10
112.0714519999999936
20
-78.5814400000000006
11
111.9492049999999921
21
-78.4997570000000024
0
LINE
8
BLACK
6
CONTINUOUS
10
111.9492049999999921
20
-78.4997570000000024
11
111.8452419999999989
21
-78.3957939999999951
0
LINE
8
BLACK
6
CONTINUOUS
10
111.8452419999999989
20
-78.3957939999999951
11
111.7635590000000008
21
-78.2735469999999935
0
LINE
8
BLACK
6
CONTINUOUS
10
111.7635590000000008
20
-78.2735469999999935
11
111.707295000000002
21
-78.1377129999999909
0
LINE
8
BLACK
6
CONTINUOUS
10
111.707295000000002
20
-78.1377129999999909
11
111.6786109999999894
21
-77.9935119999999955
0
LINE
8
BLACK
6
CONTINUOUS
10
111.6786109999999894
20
-77.9935119999999955
11
111.6786109999999894
21
-77.8464859999999987
0
LINE
8
BLACK
6
CONTINUOUS
10
111.6786109999999894
20
-77.8464859999999987
11
111.707295000000002
21
-77.7022850000000034
0
LINE
8
BLACK
6
CONTINUOUS
10
111.707295000000002
20
-77.7022850000000034
11
111.7635590000000008
21
-77.5664510000000007
0
LINE
8
BLACK
6
CONTINUOUS
10
111.7635590000000008
20
-77.5664510000000007
11
111.8452419999999989
21
-77.4442039999999992
0
LINE
8
BLACK
6
CONTINUOUS
10
111.8452419999999989
20
-77.4442039999999992
11
111.9492049999999921
21
-77.3402409999999918
0
LINE
8
BLACK
6
CONTINUOUS
10
111.9492049999999921
20
-77.3402409999999918
11
112.0714519999999936
21
-77.2585579999999936
0
LINE
8
BLACK
6
CONTINUOUS
10
112.0714519999999936
20
-77.2585579999999936
11
112.2072859999999963
21
-77.2022939999999949
0
LINE
8
BLACK
6
CONTINUOUS
10
112.2072859999999963
20
-77.2022939999999949
11
112.3514869999999917
21
-77.1736099999999965
0
LINE
8
BLACK
6
CONTINUOUS
10
112.3514869999999917
20
-77.1736099999999965
11
112.4985129999999884
21
-77.1736099999999965
0
LINE
8
BLACK
6
CONTINUOUS
10
112.4985129999999884
20
-77.1736099999999965
11
112.642713999999998
21
-77.2022939999999949
0
LINE
8
BLACK
6
CONTINUOUS
10
113.1749999999999972
20
-74.8499989999999968
11
111.6749999999999972
21
-74.8499989999999968
0
LINE
8
BLACK
6
CONTINUOUS
10
111.6749999999999972
20
-74.8499989999999968
11
111.6749999999999972
21
-73.3499989999999968
0
LINE
8
BLACK
6
CONTINUOUS
10
111.6749999999999972
20
-73.3499989999999968
11
113.1749999999999972
21
-73.3499989999999968
0
LINE
8
BLACK
6
CONTINUOUS
10
113.1749999999999972
20
-73.3499989999999968
11
113.1749999999999972
21
-74.8499989999999968
0
LINE
8
BLACK
6
CONTINUOUS
10
119.5156769999999966
20
-69.7696849999999955
11
119.5363189999999918
21
-69.7863189999999918
0
LINE
8
BLACK
6
CONTINUOUS
10
119.5363189999999918
20
-69.7863189999999918
11
120.463680999999994
21
-70.713680999999994
0
LINE
8
BLACK
6
CONTINUOUS
10
120.463680999999994
20
-70.713680999999994
11
120.4971659999999929
21
-70.7750039999999956
0
LINE
8
BLACK
6
CONTINUOUS
10
120.4971659999999929
20
-70.7750039999999956
11
120.5
21
-70.8013619999999975
0
LINE
8
BLACK
6
CONTINUOUS
10
120.5
20
-70.8013619999999975
11
120.5
21
-84.9732180000000028
0
LINE
8
BLACK
6
CONTINUOUS
10
120.5
20
-84.9732180000000028
11
120.4803149999999903
21
-85.0402569999999969
0
LINE
8
BLACK
6
CONTINUOUS
10
120.4803149999999903
20
-85.0402569999999969
11
120.4275109999999955
21
-85.0860119999999966
0
LINE
8
BLACK
6
CONTINUOUS
10
120.4275109999999955
20
-85.0860119999999966
11
120.3583529999999939
21
-85.095956000000001
0
LINE
8
BLACK
6
CONTINUOUS
10
120.3583529999999939
20
-85.095956000000001
11
120.2947969999999884
21
-85.0669309999999967
0
LINE
8
BLACK
6
CONTINUOUS
10
120.2947969999999884
20
-85.0669309999999967
11
120.2883190000000013
21
-85.060898999999992
0
LINE
8
BLACK
6
CONTINUOUS
10
120.2883190000000013
20
-85.060898999999992
11
119.3439789999999903
21
-84.1165589999999952
0
LINE
8
BLACK
6
CONTINUOUS
10
119.3439789999999903
20
-84.1165589999999952
11
119.3439589999999981
21
-84.1165369999999939
0
LINE
8
BLACK
6
CONTINUOUS
10
119.3439589999999981
20
-84.1165369999999939
11
119.2002849999999938
21
-83.9728629999999896
0
LINE
8
BLACK
6
CONTINUOUS
10
119.2002849999999938
20
-83.9728629999999896
11
119.2002809999999897
21
-83.9728599999999972
0
LINE
8
BLACK
6
CONTINUOUS
10
119.2002809999999897
20
-83.9728599999999972
11
119.0364199999999926
21
-83.8633710000000008
0
LINE
8
BLACK
6
CONTINUOUS
10
119.0364199999999926
20
-83.8633710000000008
11
119.0364110000000011
21
-83.8633659999999992
0
LINE
8
BLACK
6
CONTINUOUS
10
119.0364110000000011
20
-83.8633659999999992
11
118.9638149999999968
21
-83.83329599999999
0
LINE
8
BLACK
6
CONTINUOUS
10
118.9638149999999968
20
-83.83329599999999
11
118.9076649999999944
21
-83.8100379999999916
0
LINE
8
BLACK
6
CONTINUOUS
10
118.9076649999999944
20
-83.8100379999999916
11
118.8543359999999893
21
-83.7879489999999976
0
LINE
8
BLACK
6
CONTINUOUS
10
118.8543359999999893
20
-83.7879489999999976
11
118.8543319999999994
21
-83.7879480000000001
0
LINE
8
BLACK
6
CONTINUOUS
10
118.8543319999999994
20
-83.7879480000000001
11
118.8543279999999953
21
-83.7879459999999909
0
LINE
8
BLACK
6
CONTINUOUS
10
118.8543279999999953
20
-83.7879459999999909
11
118.7576880000000017
21
-83.7687239999999917
0
LINE
8
BLACK
6
CONTINUOUS
10
118.7576880000000017
20
-83.7687239999999917
11
118.6610439999999898
21
-83.7494999999999976
0
LINE
8
BLACK
6
CONTINUOUS
10
118.6610439999999898
20
-83.7494999999999976
11
118.6610409999999973
21
-83.7494999999999976
0
LINE
8
BLACK
6
CONTINUOUS
10
118.6610409999999973
20
-83.7494999999999976
11
116.8731819999999999
21
-83.7494999999999976
0
LINE
8
BLACK
6
CONTINUOUS
10
116.8731819999999999
20
-83.7494999999999976
11
116.8061429999999916
21
-83.7298150000000021
0
LINE
8
BLACK
6
CONTINUOUS
10
116.8061429999999916
20
-83.7298150000000021
11
116.7748079999999931
21
-83.7009889999999928
0
LINE
8
BLACK
6
CONTINUOUS
10
116.7748079999999931
20
-83.7009889999999928
11
116.7733319999999964
21
-83.699066000000002
0
LINE
8
BLACK
6
CONTINUOUS
10
116.7733319999999964
20
-83.699066000000002
11
116.7572819999999894
21
-83.6781489999999906
0
LINE
8
BLACK
6
CONTINUOUS
10
116.7572819999999894
20
-83.6781489999999906
11
116.7572769999999878
21
-83.6781440000000032
0
LINE
8
BLACK
6
CONTINUOUS
10
116.7572769999999878
20
-83.6781440000000032
11
116.7572739999999953
21
-83.6781399999999991
0
LINE
8
BLACK
6
CONTINUOUS
10
116.7572739999999953
20
-83.6781399999999991
11
116.5718600000000009
21
-83.4927259999999904
0
LINE
8
BLACK
6
CONTINUOUS
10
116.5718600000000009
20
-83.4927259999999904
11
116.5718509999999952
21
-83.4927179999999964
0
LINE
8
BLACK
6
CONTINUOUS
10
116.5718509999999952
20
-83.4927179999999964
11
116.3638029999999901
21
-83.3330749999999938
0
LINE
8
BLACK
6
CONTINUOUS
10
116.3638029999999901
20
-83.3330749999999938
11
116.1366999999999905
21
-83.2019579999999905
0
LINE
8
BLACK
6
CONTINUOUS
10
116.1366999999999905
20
-83.2019579999999905
11
116.1366900000000015
21
-83.2019530000000032
0
LINE
8
BLACK
6
CONTINUOUS
10
116.1366900000000015
20
-83.2019530000000032
11
115.8944279999999907
21
-83.1016049999999922
0
LINE
8
BLACK
6
CONTINUOUS
10
115.8944279999999907
20
-83.1016049999999922
11
115.8944209999999941
21
-83.1016029999999972
0
LINE
8
BLACK
6
CONTINUOUS
10
115.8944209999999941
20
-83.1016029999999972
11
115.8944189999999992
21
-83.1016019999999997
0
LINE
8
BLACK
6
CONTINUOUS
10
115.8944189999999992
20
-83.1016019999999997
11
115.6411159999999967
21
-83.0337299999999914
0
LINE
8
BLACK
6
CONTINUOUS
10
115.6411159999999967
20
-83.0337299999999914
11
115.5833389999999952
21
-83.0261229999999983
0
LINE
8
BLACK
6
CONTINUOUS
10
115.5833389999999952
20
-83.0261229999999983
11
115.3811269999999922
21
-82.9994999999999976
0
LINE
8
BLACK
6
CONTINUOUS
10
115.3811269999999922
20
-82.9994999999999976
11
115.3811199999999957
21
-82.9994999999999976
0
LINE
8
BLACK
6
CONTINUOUS
10
115.3811199999999957
20
-82.9994999999999976
11
115.1188799999999901
21
-82.9994999999999976
0
LINE
8
BLACK
6
CONTINUOUS
10
115.1188799999999901
20
-82.9994999999999976
11
115.1188719999999961
21
-82.9994999999999976
0
LINE
8
BLACK
6
CONTINUOUS
10
115.1188719999999961
20
-82.9994999999999976
11
114.8877719999999982
21
-83.0299260000000032
0
LINE
8
BLACK
6
CONTINUOUS
10
114.8877719999999982
20
-83.0299260000000032
11
114.8588839999999891
21
-83.0337299999999914
0
LINE
8
BLACK
6
CONTINUOUS
10
114.8588839999999891
20
-83.0337299999999914
11
114.6055810000000008
21
-83.1016019999999997
0
LINE
8
BLACK
6
CONTINUOUS
10
114.6055810000000008
20
-83.1016019999999997
11
114.6055709999999976
21
-83.1016049999999922
0
LINE
8
BLACK
6
CONTINUOUS
10
114.6055709999999976
20
-83.1016049999999922
11
114.363309000000001
21
-83.2019530000000032
0
LINE
8
BLACK
6
CONTINUOUS
10
114.363309000000001
20
-83.2019530000000032
11
114.3632989999999978
21
-83.2019579999999905
0
LINE
8
BLACK
6
CONTINUOUS
10
114.3632989999999978
20
-83.2019579999999905
11
114.1361959999999982
21
-83.3330749999999938
0
LINE
8
BLACK
6
CONTINUOUS
10
114.1361959999999982
20
-83.3330749999999938
11
113.9281479999999931
21
-83.4927179999999964
0
LINE
8
BLACK
6
CONTINUOUS
10
113.9281479999999931
20
-83.4927179999999964
11
113.7427179999999964
21
-83.6781479999999931
0
LINE
8
BLACK
6
CONTINUOUS
10
113.7427179999999964
20
-83.6781479999999931
11
113.5830749999999938
21
-83.8861959999999982
0
LINE
8
BLACK
6
CONTINUOUS
10
113.5830749999999938
20
-83.8861959999999982
11
113.4519579999999905
21
-84.1132989999999978
0
LINE
8
BLACK
6
CONTINUOUS
10
113.4519579999999905
20
-84.1132989999999978
11
113.4519529999999889
21
-84.113309000000001
0
LINE
8
BLACK
6
CONTINUOUS
10
113.4519529999999889
20
-84.113309000000001
11
113.3516049999999922
21
-84.3555709999999976
0
LINE
8
BLACK
6
CONTINUOUS
10
113.3516049999999922
20
-84.3555709999999976
11
113.3516019999999997
21
-84.3555810000000008
0
LINE
8
BLACK
6
CONTINUOUS
10
113.3516019999999997
20
-84.3555810000000008
11
113.2837299999999914
21
-84.6088839999999891
0
LINE
8
BLACK
6
CONTINUOUS
10
113.2837299999999914
20
-84.6088839999999891
11
113.2837159999999983
21
-84.6089899999999915
0
LINE
8
BLACK
6
CONTINUOUS
10
113.2837159999999983
20
-84.6089899999999915
11
113.2494999999999976
21
-84.8688719999999961
0
LINE
8
BLACK
6
CONTINUOUS
10
113.2494999999999976
20
-84.8688719999999961
11
113.2494999999999976
21
-85.1311269999999922
0
LINE
8
BLACK
6
CONTINUOUS
10
113.2494999999999976
20
-85.1311269999999922
11
113.2610389999999967
21
-85.2187669999999997
0
LINE
8
BLACK
6
CONTINUOUS
10
113.2610389999999967
20
-85.2187669999999997
11
113.2837299999999914
21
-85.3911159999999967
0
LINE
8
BLACK
6
CONTINUOUS
10
113.2837299999999914
20
-85.3911159999999967
11
113.3350279999999941
21
-85.5825629999999933
0
LINE
8
BLACK
6
CONTINUOUS
10
113.3350279999999941
20
-85.5825629999999933
11
113.3516019999999997
21
-85.6444180000000017
0
LINE
8
BLACK
6
CONTINUOUS
10
113.3516019999999997
20
-85.6444180000000017
11
113.3516049999999922
21
-85.6444279999999907
0
LINE
8
BLACK
6
CONTINUOUS
10
113.3516049999999922
20
-85.6444279999999907
11
113.4519529999999889
21
-85.8866900000000015
0
LINE
8
BLACK
6
CONTINUOUS
10
113.4519529999999889
20
-85.8866900000000015
11
113.4519579999999905
21
-85.8866999999999905
0
LINE
8
BLACK
6
CONTINUOUS
10
113.4519579999999905
20
-85.8866999999999905
11
113.5830749999999938
21
-86.1138029999999901
0
LINE
8
BLACK
6
CONTINUOUS
10
113.5830749999999938
20
-86.1138029999999901
11
113.7427179999999964
21
-86.3218509999999952
0
LINE
8
BLACK
6
CONTINUOUS
10
113.7427179999999964
20
-86.3218509999999952
11
113.7427259999999904
21
-86.3218600000000009
0
LINE
8
BLACK
6
CONTINUOUS
10
113.7427259999999904
20
-86.3218600000000009
11
113.9281399999999991
21
-86.5072739999999953
0
LINE
8
BLACK
6
CONTINUOUS
10
113.9281399999999991
20
-86.5072739999999953
11
113.9281479999999931
21
-86.5072809999999919
0
LINE
8
BLACK
6
CONTINUOUS
10
113.9281479999999931
20
-86.5072809999999919
11
114.1361959999999982
21
-86.6669239999999945
0
LINE
8
BLACK
6
CONTINUOUS
10
114.1361959999999982
20
-86.6669239999999945
11
114.3632989999999978
21
-86.7980409999999978
0
LINE
8
BLACK
6
CONTINUOUS
10
114.3632989999999978
20
-86.7980409999999978
11
114.363309000000001
21
-86.7980459999999994
0
LINE
8
BLACK
6
CONTINUOUS
10
114.363309000000001
20
-86.7980459999999994
11
114.6055709999999976
21
-86.8983939999999961
0
LINE
8
BLACK
6
CONTINUOUS
10
114.6055709999999976
20
-86.8983939999999961
11
114.6055810000000008
21
-86.8983980000000003
0
LINE
8
BLACK
6
CONTINUOUS
10
114.6055810000000008
20
-86.8983980000000003
11
114.8588839999999891
21
-86.9662699999999944
0
LINE
8
BLACK
6
CONTINUOUS
10
114.8588839999999891
20
-86.9662699999999944
11
115.1071879999999936
21
-86.9989599999999967
0
LINE
8
BLACK
6
CONTINUOUS
10
115.1071879999999936
20
-86.9989599999999967
11
115.1150739999999928
21
-86.9999990000000025
0
LINE
8
BLACK
6
CONTINUOUS
10
115.1150739999999928
20
-86.9999990000000025
11
115.1188799999999901
21
-87.0005000000000024
0
LINE
8
BLACK
6
CONTINUOUS
10
115.1188799999999901
20
-87.0005000000000024
11
115.1188870000000009
21
-87.0005000000000024
0
LINE
8
BLACK
6
CONTINUOUS
10
115.1188870000000009
20
-87.0005000000000024
11
115.3811129999999991
21
-87.0005000000000024
0
LINE
8
BLACK
6
CONTINUOUS
10
115.3811129999999991
20
-87.0005000000000024
11
115.3811199999999957
21
-87.0005000000000024
0
LINE
8
BLACK
6
CONTINUOUS
10
115.3811199999999957
20
-87.0005000000000024
11
115.6411159999999967
21
-86.9662699999999944
0
LINE
8
BLACK
6
CONTINUOUS
10
115.6411159999999967
20
-86.9662699999999944
11
115.8944189999999992
21
-86.8983980000000003
0
LINE
8
BLACK
6
CONTINUOUS
10
115.8944189999999992
20
-86.8983980000000003
11
116.1366969999999981
21
-86.7980429999999927
0
LINE
8
BLACK
6
CONTINUOUS
10
116.1366969999999981
20
-86.7980429999999927
11
116.3638029999999901
21
-86.6669239999999945
0
LINE
8
BLACK
6
CONTINUOUS
10
116.3638029999999901
20
-86.6669239999999945
11
116.5718509999999952
21
-86.5072819999999894
0
LINE
8
BLACK
6
CONTINUOUS
10
116.5718509999999952
20
-86.5072819999999894
11
116.5718549999999993
21
-86.507277000000002
0
LINE
8
BLACK
6
CONTINUOUS
10
116.5718549999999993
20
-86.507277000000002
11
116.5718600000000009
21
-86.5072739999999953
0
LINE
8
BLACK
6
CONTINUOUS
10
116.5718600000000009
20
-86.5072739999999953
11
116.7572739999999953
21
-86.3218600000000009
0
LINE
8
BLACK
6
CONTINUOUS
10
116.7572739999999953
20
-86.3218600000000009
11
116.7572769999999878
21
-86.3218549999999993
0
LINE
8
BLACK
6
CONTINUOUS
10
116.7572769999999878
20
-86.3218549999999993
11
116.7572819999999894
21
-86.3218509999999952
0
LINE
8
BLACK
6
CONTINUOUS
10
116.7572819999999894
20
-86.3218509999999952
11
116.9169239999999945
21
-86.1138029999999901
0
LINE
8
BLACK
6
CONTINUOUS
10
116.9169239999999945
20
-86.1138029999999901
11
117.0480429999999927
21
-85.8866969999999981
0
LINE
8
BLACK
6
CONTINUOUS
10
117.0480429999999927
20
-85.8866969999999981
11
117.0727509999999967
21
-85.8270469999999932
0
LINE
8
BLACK
6
CONTINUOUS
10
117.0727509999999967
20
-85.8270469999999932
11
117.1165919999999971
21
-85.7726439999999997
0
LINE
8
BLACK
6
CONTINUOUS
10
117.1165919999999971
20
-85.7726439999999997
11
117.1828859999999963
21
-85.7505790000000019
0
LINE
8
BLACK
6
CONTINUOUS
10
117.1828859999999963
20
-85.7505790000000019
11
117.1873119999999915
21
-85.7505000000000024
0
LINE
8
BLACK
6
CONTINUOUS
10
117.1873119999999915
20
-85.7505000000000024
11
118.0967179999999956
21
-85.7505000000000024
0
LINE
8
BLACK
6
CONTINUOUS
10
118.0967179999999956
20
-85.7505000000000024
11
118.1637569999999897
21
-85.7701849999999979
0
LINE
8
BLACK
6
CONTINUOUS
10
118.1637569999999897
20
-85.7701849999999979
11
118.1843989999999991
21
-85.7868189999999942
0
LINE
8
BLACK
6
CONTINUOUS
10
118.1843989999999991
20
-85.7868189999999942
11
120.463680999999994
21
-88.0661009999999891
0
LINE
8
BLACK
6
CONTINUOUS
10
120.463680999999994
20
-88.0661009999999891
11
120.4971659999999929
21
-88.1274239999999907
0
LINE
8
BLACK
6
CONTINUOUS
10
120.4971659999999929
20
-88.1274239999999907
11
120.5
21
-88.1537819999999925
0
LINE
8
BLACK
6
CONTINUOUS
10
120.5
20
-88.1537819999999925
11
120.5
21
-88.9629999999999939
0
LINE
8
BLACK
6
CONTINUOUS
10
120.5
20
-88.9629999999999939
11
120.4974489999999889
21
-88.9716849999999937
0
LINE
8
BLACK
6
CONTINUOUS
10
120.4974489999999889
20
-88.9716849999999937
11
120.4987379999999888
21
-88.9806469999999905
0
LINE
8
BLACK
6
CONTINUOUS
10
120.4987379999999888
20
-88.9806469999999905
11
120.4877589999999969
21
-89.0046869999999899
0
LINE
8
BLACK
6
CONTINUOUS
10
120.4877589999999969
20
-89.0046869999999899
11
120.4803149999999903
21
-89.0300390000000021
0
LINE
8
BLACK
6
CONTINUOUS
10
120.4803149999999903
20
-89.0300390000000021
11
120.473473999999996
21
-89.0359660000000019
0
LINE
8
BLACK
6
CONTINUOUS
10
120.473473999999996
20
-89.0359660000000019
11
120.4697129999999987
21
-89.044202999999996
0
LINE
8
BLACK
6
CONTINUOUS
10
120.4697129999999987
20
-89.044202999999996
11
120.4474779999999896
21
-89.0584920000000011
0
LINE
8
BLACK
6
CONTINUOUS
10
120.4474779999999896
20
-89.0584920000000011
11
120.4275109999999955
21
-89.0757940000000019
0
LINE
8
BLACK
6
CONTINUOUS
10
120.4275109999999955
20
-89.0757940000000019
11
120.4169959999999975
21
-89.0780809999999974
0
LINE
8
BLACK
6
CONTINUOUS
10
120.4169959999999975
20
-89.0780809999999974
11
120.4109349999999949
21
-89.0819769999999949
0
LINE
8
BLACK
6
CONTINUOUS
10
120.4109349999999949
20
-89.0819769999999949
11
120.3759999999999906
21
-89.0869999999999891
0
LINE
8
BLACK
6
CONTINUOUS
10
120.3759999999999906
20
-89.0869999999999891
11
120.2671749999999946
21
-89.0869999999999891
0
LINE
8
BLACK
6
CONTINUOUS
10
120.2671749999999946
20
-89.0869999999999891
11
120.2671549999999883
21
-89.0869989999999916
0
LINE
8
BLACK
6
CONTINUOUS
10
120.2671549999999883
20
-89.0869989999999916
11
120.2610409999999916
21
-89.0869989999999916
0
LINE
8
BLACK
6
CONTINUOUS
10
120.2610409999999916
20
-89.0869989999999916
11
120.0639599999999945
21
-89.0869989999999916
0
LINE
8
BLACK
6
CONTINUOUS
10
120.0639599999999945
20
-89.0869989999999916
11
120.0639569999999878
21
-89.0869989999999916
0
LINE
8
BLACK
6
CONTINUOUS
10
120.0639569999999878
20
-89.0869989999999916
11
119.870671999999999
21
-89.1254459999999966
0
LINE
8
BLACK
6
CONTINUOUS
10
119.870671999999999
20
-89.1254459999999966
11
119.8706639999999908
21
-89.1254479999999916
0
LINE
8
BLACK
6
CONTINUOUS
10
119.8706639999999908
20
-89.1254479999999916
11
119.6885879999999958
21
-89.2008659999999907
0
LINE
8
BLACK
6
CONTINUOUS
10
119.6885879999999958
20
-89.2008659999999907
11
119.6885789999999901
21
-89.2008709999999923
0
LINE
8
BLACK
6
CONTINUOUS
10
119.6885789999999901
20
-89.2008709999999923
11
119.5247189999999904
21
-89.3103589999999912
0
LINE
8
BLACK
6
CONTINUOUS
10
119.5247189999999904
20
-89.3103589999999912
11
119.5247150000000005
21
-89.3103619999999978
0
LINE
8
BLACK
6
CONTINUOUS
10
119.5247150000000005
20
-89.3103619999999978
11
117.1218989999999991
21
-91.7131809999999916
0
LINE
8
BLACK
6
CONTINUOUS
10
117.1218989999999991
20
-91.7131809999999916
11
117.0605759999999975
21
-91.7466659999999905
0
LINE
8
BLACK
6
CONTINUOUS
10
117.0605759999999975
20
-91.7466659999999905
11
117.0342179999999956
21
-91.7494999999999976
0
LINE
8
BLACK
6
CONTINUOUS
10
117.0342179999999956
20
-91.7494999999999976
11
116.6214779999999962
21
-91.7494999999999976
0
LINE
8
BLACK
6
CONTINUOUS
10
116.6214779999999962
20
-91.7494999999999976
11
116.5544389999999879
21
-91.7298150000000021
0
LINE
8
BLACK
6
CONTINUOUS
10
116.5544389999999879
20
-91.7298150000000021
11
116.5086839999999881
21
-91.6770109999999931
0
LINE
8
BLACK
6
CONTINUOUS
10
116.5086839999999881
20
-91.6770109999999931
11
116.498739999999998
21
-91.6078529999999915
0
LINE
8
BLACK
6
CONTINUOUS
10
116.498739999999998
20
-91.6078529999999915
11
116.527764999999988
21
-91.5442970000000003
0
LINE
8
BLACK
6
CONTINUOUS
10
116.527764999999988
20
-91.5442970000000003
11
116.54598399999999
21
-91.5271299999999997
0
LINE
8
BLACK
6
CONTINUOUS
10
116.54598399999999
20
-91.5271299999999997
11
116.5718509999999952
21
-91.5072819999999894
0
LINE
8
BLACK
6
CONTINUOUS
10
116.5718509999999952
20
-91.5072819999999894
11
116.6236979999999903
21
-91.4554349999999943
0
LINE
8
BLACK
6
CONTINUOUS
10
116.6236979999999903
20
-91.4554349999999943
11
116.7572739999999953
21
-91.3218600000000009
0
LINE
8
BLACK
6
CONTINUOUS
10
116.7572739999999953
20
-91.3218600000000009
11
116.7572769999999878
21
-91.3218549999999993
0
LINE
8
BLACK
6
CONTINUOUS
10
116.7572769999999878
20
-91.3218549999999993
11
116.7572819999999894
21
-91.3218509999999952
0
LINE
8
BLACK
6
CONTINUOUS
10
116.7572819999999894
20
-91.3218509999999952
11
116.9169239999999945
21
-91.1138029999999901
0
LINE
8
BLACK
6
CONTINUOUS
10
116.9169239999999945
20
-91.1138029999999901
11
117.0480429999999927
21
-90.8866969999999981
0
LINE
8
BLACK
6
CONTINUOUS
10
117.0480429999999927
20
-90.8866969999999981
11
117.1483980000000003
21
-90.6444189999999992
0
LINE
8
BLACK
6
CONTINUOUS
10
117.1483980000000003
20
-90.6444189999999992
11
117.2162699999999944
21
-90.3911159999999967
0
LINE
8
BLACK
6
CONTINUOUS
10
117.2162699999999944
20
-90.3911159999999967
11
117.2504999999999882
21
-90.1311199999999957
0
LINE
8
BLACK
6
CONTINUOUS
10
117.2504999999999882
20
-90.1311199999999957
11
117.2504999999999882
21
-89.8688799999999901
0
LINE
8
BLACK
6
CONTINUOUS
10
117.2504999999999882
20
-89.8688799999999901
11
117.2162699999999944
21
-89.6088839999999891
0
LINE
8
BLACK
6
CONTINUOUS
10
117.2162699999999944
20
-89.6088839999999891
11
117.1483980000000003
21
-89.3555810000000008
0
LINE
8
BLACK
6
CONTINUOUS
10
117.1483980000000003
20
-89.3555810000000008
11
117.1296669999999978
21
-89.3103600000000029
0
LINE
8
BLACK
6
CONTINUOUS
10
117.1296669999999978
20
-89.3103600000000029
11
117.0480459999999994
21
-89.113309000000001
0
LINE
8
BLACK
6
CONTINUOUS
10
117.0480459999999994
20
-89.113309000000001
11
117.0480409999999978
21
-89.1132989999999978
0
LINE
8
BLACK
6
CONTINUOUS
10
117.0480409999999978
20
-89.1132989999999978
11
116.9169239999999945
21
-88.8861959999999982
0
LINE
8
BLACK
6
CONTINUOUS
10
116.9169239999999945
20
-88.8861959999999982
11
116.7572809999999919
21
-88.6781479999999931
0
LINE
8
BLACK
6
CONTINUOUS
10
116.7572809999999919
20
-88.6781479999999931
11
116.7572739999999953
21
-88.6781399999999991
0
LINE
8
BLACK
6
CONTINUOUS
10
116.7572739999999953
20
-88.6781399999999991
11
116.5718600000000009
21
-88.4927259999999904
0
LINE
8
BLACK
6
CONTINUOUS
10
116.5718600000000009
20
-88.4927259999999904
11
116.5718509999999952
21
-88.4927179999999964
0
LINE
8
BLACK
6
CONTINUOUS
10
116.5718509999999952
20
-88.4927179999999964
11
116.3638029999999901
21
-88.3330749999999938
0
LINE
8
BLACK
6
CONTINUOUS
10
116.3638029999999901
20
-88.3330749999999938
11
116.1366999999999905
21
-88.2019579999999905
0
LINE
8
BLACK
6
CONTINUOUS
10
116.1366999999999905
20
-88.2019579999999905
11
116.1366900000000015
21
-88.2019529999999889
0
LINE
8
BLACK
6
CONTINUOUS
10
116.1366900000000015
20
-88.2019529999999889
11
115.8944279999999907
21
-88.1016049999999922
0
LINE
8
BLACK
6
CONTINUOUS
10
115.8944279999999907
20
-88.1016049999999922
11
115.8944209999999941
21
-88.1016029999999972
0
LINE
8
BLACK
6
CONTINUOUS
10
115.8944209999999941
20
-88.1016029999999972
11
115.8944189999999992
21
-88.1016019999999997
0
LINE
8
BLACK
6
CONTINUOUS
10
115.8944189999999992
20
-88.1016019999999997
11
115.6411159999999967
21
-88.0337299999999914
0
LINE
8
BLACK
6
CONTINUOUS
10
115.6411159999999967
20
-88.0337299999999914
11
115.5833389999999952
21
-88.0261229999999983
0
LINE
8
BLACK
6
CONTINUOUS
10
115.5833389999999952
20
-88.0261229999999983
11
115.3811269999999922
21
-87.9994999999999976
0
LINE
8
BLACK
6
CONTINUOUS
10
115.3811269999999922
20
-87.9994999999999976
11
115.3811199999999957
21
-87.9994999999999976
0
LINE
8
BLACK
6
CONTINUOUS
10
115.3811199999999957
20
-87.9994999999999976
11
115.1188799999999901
21
-87.9994999999999976
0
LINE
8
BLACK
6
CONTINUOUS
10
115.1188799999999901
20
-87.9994999999999976
11
115.1188719999999961
21
-87.9994999999999976
0
LINE
8
BLACK
6
CONTINUOUS
10
115.1188719999999961
20
-87.9994999999999976
11
114.8877719999999982
21
-88.029925999999989
0
LINE
8
BLACK
6
CONTINUOUS
10
114.8877719999999982
20
-88.029925999999989
11
114.8588839999999891
21
-88.0337299999999914
0
LINE
8
BLACK
6
CONTINUOUS
10
114.8588839999999891
20
-88.0337299999999914
11
114.6055810000000008
21
-88.1016019999999997
0
LINE
8
BLACK
6
CONTINUOUS
10
114.6055810000000008
20
-88.1016019999999997
11
114.6055709999999976
21
-88.1016049999999922
0
LINE
8
BLACK
6
CONTINUOUS
10
114.6055709999999976
20
-88.1016049999999922
11
114.363309000000001
21
-88.2019529999999889
0
LINE
8
BLACK
6
CONTINUOUS
10
114.363309000000001
20
-88.2019529999999889
11
114.3632989999999978
21
-88.2019579999999905
0
LINE
8
BLACK
6
CONTINUOUS
10
114.3632989999999978
20
-88.2019579999999905
11
114.1361959999999982
21
-88.3330749999999938
0
LINE
8
BLACK
6
CONTINUOUS
10
114.1361959999999982
20
-88.3330749999999938
11
113.9281479999999931
21
-88.4927179999999964
0
LINE
8
BLACK
6
CONTINUOUS
10
113.9281479999999931
20
-88.4927179999999964
11
113.7427179999999964
21
-88.6781479999999931
0
LINE
8
BLACK
6
CONTINUOUS
10
113.7427179999999964
20
-88.6781479999999931
11
113.5830749999999938
21
-88.8861959999999982
0
LINE
8
BLACK
6
CONTINUOUS
10
113.5830749999999938
20
-88.8861959999999982
11
113.4519579999999905
21
-89.1132989999999978
0
LINE
8
BLACK
6
CONTINUOUS
10
113.4519579999999905
20
-89.1132989999999978
11
113.4519529999999889
21
-89.113309000000001
0
LINE
8
BLACK
6
CONTINUOUS
10
113.4519529999999889
20
-89.113309000000001
11
113.3516049999999922
21
-89.3555709999999976
0
LINE
8
BLACK
6
CONTINUOUS
10
113.3516049999999922
20
-89.3555709999999976
11
113.3516019999999997
21
-89.3555810000000008
0
LINE
8
BLACK
6
CONTINUOUS
10
113.3516019999999997
20
-89.3555810000000008
11
113.2837299999999914
21
-89.6088850000000008
0
LINE
8
BLACK
6
CONTINUOUS
10
113.2837299999999914
20
-89.6088850000000008
11
113.2494999999999976
21
-89.8688719999999961
0
LINE
8
BLACK
6
CONTINUOUS
10
113.2494999999999976
20
-89.8688719999999961
11
113.2494999999999976
21
-90.1311269999999922
0
LINE
8
BLACK
6
CONTINUOUS
10
113.2494999999999976
20
-90.1311269999999922
11
113.2761229999999983
21
-90.3333389999999952
0
LINE
8
BLACK
6
CONTINUOUS
10
113.2761229999999983
20
-90.3333389999999952
11
113.2837299999999914
21
-90.3911159999999967
0
LINE
8
BLACK
6
CONTINUOUS
10
113.2837299999999914
20
-90.3911159999999967
11
113.2948629999999923
21
-90.4326650000000001
0
LINE
8
BLACK
6
CONTINUOUS
10
113.2948629999999923
20
-90.4326650000000001
11
113.3516019999999997
21
-90.6444180000000017
0
LINE
8
BLACK
6
CONTINUOUS
10
113.3516019999999997
20
-90.6444180000000017
11
113.3516049999999922
21
-90.6444279999999907
0
LINE
8
BLACK
6
CONTINUOUS
10
113.3516049999999922
20
-90.6444279999999907
11
113.4519529999999889
21
-90.8866900000000015
0
LINE
8
BLACK
6
CONTINUOUS
10
113.4519529999999889
20
-90.8866900000000015
11
113.4519579999999905
21
-90.8866999999999905
0
LINE
8
BLACK
6
CONTINUOUS
10
113.4519579999999905
20
-90.8866999999999905
11
113.5830749999999938
21
-91.1138029999999901
0
LINE
8
BLACK
6
CONTINUOUS
10
113.5830749999999938
20
-91.1138029999999901
11
113.7427179999999964
21
-91.3218509999999952
0
LINE
8
BLACK
6
CONTINUOUS
10
113.7427179999999964
20
-91.3218509999999952
11
113.7427259999999904
21
-91.3218600000000009
0
LINE
8
BLACK
6
CONTINUOUS
10
113.7427259999999904
20
-91.3218600000000009
11
113.9281390000000016
21
-91.5072729999999979
0
LINE
8
BLACK
6
CONTINUOUS
10
113.9281390000000016
20
-91.5072729999999979
11
113.9281429999999915
21
-91.5072759999999903
0
LINE
8
BLACK
6
CONTINUOUS
10
113.9281429999999915
20
-91.5072759999999903
11
113.9281489999999906
21
-91.5072819999999894
0
LINE
8
BLACK
6
CONTINUOUS
10
113.9281489999999906
20
-91.5072819999999894
11
113.9540109999999942
21
-91.5271259999999955
0
LINE
8
BLACK
6
CONTINUOUS
10
113.9540109999999942
20
-91.5271259999999955
11
113.9952109999999976
21
-91.5835519999999974
0
LINE
8
BLACK
6
CONTINUOUS
10
113.9952109999999976
20
-91.5835519999999974
11
113.9993659999999949
21
-91.6532979999999924
0
LINE
8
BLACK
6
CONTINUOUS
10
113.9993659999999949
20
-91.6532979999999924
11
113.9651530000000008
21
-91.7142189999999999
0
LINE
8
BLACK
6
CONTINUOUS
10
113.9651530000000008
20
-91.7142189999999999
11
113.9034359999999992
21
-91.7469710000000021
0
LINE
8
BLACK
6
CONTINUOUS
10
113.9034359999999992
20
-91.7469710000000021
11
113.8785219999999896
21
-91.7494999999999976
0
LINE
8
BLACK
6
CONTINUOUS
10
113.8785219999999896
20
-91.7494999999999976
11
113.6514549999999986
21
-91.7494999999999976
0
LINE
8
BLACK
6
CONTINUOUS
10
113.6514549999999986
20
-91.7494999999999976
11
113.5548119999999983
21
-91.7687239999999917
0
LINE
8
BLACK
6
CONTINUOUS
10
113.5548119999999983
20
-91.7687239999999917
11
113.4581669999999889
21
-91.7879470000000026
0
LINE
8
BLACK
6
CONTINUOUS
10
113.4581669999999889
20
-91.7879470000000026
11
113.4581609999999898
21
-91.7879489999999976
0
LINE
8
BLACK
6
CONTINUOUS
10
113.4581609999999898
20
-91.7879489999999976
11
113.4048339999999939
21
-91.8100369999999941
0
LINE
8
BLACK
6
CONTINUOUS
10
113.4048339999999939
20
-91.8100369999999941
11
113.4048339999999939
21
-91.8100379999999916
0
LINE
8
BLACK
6
CONTINUOUS
10
113.4048339999999939
20
-91.8100379999999916
11
113.3593149999999952
21
-91.8288919999999962
0
LINE
8
BLACK
6
CONTINUOUS
10
113.3593149999999952
20
-91.8288919999999962
11
113.2760889999999989
21
-91.8633659999999992
0
LINE
8
BLACK
6
CONTINUOUS
10
113.2760889999999989
20
-91.8633659999999992
11
113.2760789999999957
21
-91.8633710000000008
0
LINE
8
BLACK
6
CONTINUOUS
10
113.2760789999999957
20
-91.8633710000000008
11
113.1220819999999918
21
-91.9662699999999944
0
LINE
8
BLACK
6
CONTINUOUS
10
113.1220819999999918
20
-91.9662699999999944
11
113.1220809999999943
21
-91.9662709999999919
0
LINE
8
BLACK
6
CONTINUOUS
10
113.1220809999999943
20
-91.9662709999999919
11
113.112214999999992
21
-91.9728619999999921
0
LINE
8
BLACK
6
CONTINUOUS
10
113.112214999999992
20
-91.9728619999999921
11
113.1122139999999945
21
-91.9728629999999896
0
LINE
8
BLACK
6
CONTINUOUS
10
113.1122139999999945
20
-91.9728629999999896
11
111.5681099999999901
21
-93.5169679999999914
0
LINE
8
BLACK
6
CONTINUOUS
10
111.5681099999999901
20
-93.5169679999999914
11
111.5067869999999886
21
-93.5504529999999903
0
LINE
8
BLACK
6
CONTINUOUS
10
111.5067869999999886
20
-93.5504529999999903
11
111.4483369999999951
21
-93.5490619999999922
0
LINE
8
BLACK
6
CONTINUOUS
10
111.4483369999999951
20
-93.5490619999999922
11
111.429271
21
-93.5439530000000019
0
LINE
8
BLACK
6
CONTINUOUS
10
111.429271
20
-93.5439530000000019
11
111.3911159999999967
21
-93.5337299999999914
0
LINE
8
BLACK
6
CONTINUOUS
10
111.3911159999999967
20
-93.5337299999999914
11
111.3476619999999997
21
-93.5280089999999973
0
LINE
8
BLACK
6
CONTINUOUS
10
111.3476619999999997
20
-93.5280089999999973
11
111.1311269999999922
21
-93.4994999999999976
0
LINE
8
BLACK
6
CONTINUOUS
10
111.1311269999999922
20
-93.4994999999999976
11
111.1311199999999957
21
-93.4994999999999976
0
LINE
8
BLACK
6
CONTINUOUS
10
111.1311199999999957
20
-93.4994999999999976
11
110.8688799999999901
21
-93.4994999999999976
0
LINE
8
BLACK
6
CONTINUOUS
10
110.8688799999999901
20
-93.4994999999999976
11
110.8688719999999961
21
-93.4994999999999976
0
LINE
8
BLACK
6
CONTINUOUS
10
110.8688719999999961
20
-93.4994999999999976
11
110.6377719999999982
21
-93.529925999999989
0
LINE
8
BLACK
6
CONTINUOUS
10
110.6377719999999982
20
-93.529925999999989
11
110.6088839999999891
21
-93.5337299999999914
0
LINE
8
BLACK
6
CONTINUOUS
10
110.6088839999999891
20
-93.5337299999999914
11
110.3670049999999918
21
-93.5985409999999973
0
LINE
8
BLACK
6
CONTINUOUS
10
110.3670049999999918
20
-93.5985409999999973
11
110.3555810000000008
21
-93.6016019999999997
0
LINE
8
BLACK
6
CONTINUOUS
10
110.3555810000000008
20
-93.6016019999999997
11
110.3555709999999976
21
-93.6016049999999922
0
LINE
8
BLACK
6
CONTINUOUS
10
110.3555709999999976
20
-93.6016049999999922
11
110.113309000000001
21
-93.7019529999999889
0
LINE
8
BLACK
6
CONTINUOUS
10
110.113309000000001
20
-93.7019529999999889
11
110.1132989999999978
21
-93.7019579999999905
0
LINE
8
BLACK
6
CONTINUOUS
10
110.1132989999999978
20
-93.7019579999999905
11
109.8861959999999982
21
-93.8330749999999938
0
LINE
8
BLACK
6
CONTINUOUS
10
109.8861959999999982
20
-93.8330749999999938
11
109.6781479999999931
21
-93.9927179999999964
0
LINE
8
BLACK
6
CONTINUOUS
10
109.6781479999999931
20
-93.9927179999999964
11
109.4927179999999964
21
-94.1781479999999931
0
LINE
8
BLACK
6
CONTINUOUS
10
109.4927179999999964
20
-94.1781479999999931
11
109.3330749999999938
21
-94.3861959999999982
0
LINE
8
BLACK
6
CONTINUOUS
10
109.3330749999999938
20
-94.3861959999999982
11
109.2019579999999905
21
-94.6132989999999978
0
LINE
8
BLACK
6
CONTINUOUS
10
109.2019579999999905
20
-94.6132989999999978
11
109.2019529999999889
21
-94.613309000000001
0
LINE
8
BLACK
6
CONTINUOUS
10
109.2019529999999889
20
-94.613309000000001
11
109.1016049999999922
21
-94.8555709999999976
0
LINE
8
BLACK
6
CONTINUOUS
10
109.1016049999999922
20
-94.8555709999999976
11
109.1016019999999997
21
-94.8555810000000008
0
LINE
8
BLACK
6
CONTINUOUS
10
109.1016019999999997
20
-94.8555810000000008
11
109.0522789999999986
21
-95.0396599999999978
0
LINE
8
BLACK
6
CONTINUOUS
10
109.0522789999999986
20
-95.0396599999999978
11
109.0337299999999914
21
-95.1088850000000008
0
LINE
8
BLACK
6
CONTINUOUS
10
109.0337299999999914
20
-95.1088850000000008
11
108.9994999999999976
21
-95.3688719999999961
0
LINE
8
BLACK
6
CONTINUOUS
10
108.9994999999999976
20
-95.3688719999999961
11
108.9994999999999976
21
-95.6311269999999922
0
LINE
8
BLACK
6
CONTINUOUS
10
108.9994999999999976
20
-95.6311269999999922
11
109.0261229999999983
21
-95.8333389999999952
0
LINE
8
BLACK
6
CONTINUOUS
10
109.0261229999999983
20
-95.8333389999999952
11
109.0337299999999914
21
-95.8911159999999967
0
LINE
8
BLACK
6
CONTINUOUS
10
109.0337299999999914
20
-95.8911159999999967
11
109.0463489999999922
21
-95.9382109999999955
0
LINE
8
BLACK
6
CONTINUOUS
10
109.0463489999999922
20
-95.9382109999999955
11
109.1016019999999997
21
-96.1444180000000017
0
LINE
8
BLACK
6
CONTINUOUS
10
109.1016019999999997
20
-96.1444180000000017
11
109.1016049999999922
21
-96.1444279999999907
0
LINE
8
BLACK
6
CONTINUOUS
10
109.1016049999999922
20
-96.1444279999999907
11
109.2019529999999889
21
-96.3866900000000015
0
LINE
8
BLACK
6
CONTINUOUS
10
109.2019529999999889
20
-96.3866900000000015
11
109.2019579999999905
21
-96.3866999999999905
0
LINE
8
BLACK
6
CONTINUOUS
10
109.2019579999999905
20
-96.3866999999999905
11
109.3330749999999938
21
-96.6138029999999901
0
LINE
8
BLACK
6
CONTINUOUS
10
109.3330749999999938
20
-96.6138029999999901
11
109.4927179999999964
21
-96.8218509999999952
0
LINE
8
BLACK
6
CONTINUOUS
10
109.4927179999999964
20
-96.8218509999999952
11
109.4927259999999904
21
-96.8218600000000009
0
LINE
8
BLACK
6
CONTINUOUS
10
109.4927259999999904
20
-96.8218600000000009
11
109.6781399999999991
21
-97.0072739999999953
0
LINE
8
BLACK
6
CONTINUOUS
10
109.6781399999999991
20
-97.0072739999999953
11
109.6781479999999931
21
-97.0072809999999919
0
LINE
8
BLACK
6
CONTINUOUS
10
109.6781479999999931
20
-97.0072809999999919
11
109.8861959999999982
21
-97.1669239999999945
0
LINE
8
BLACK
6
CONTINUOUS
10
109.8861959999999982
20
-97.1669239999999945
11
110.0614619999999917
21
-97.2681129999999996
0
LINE
8
BLACK
6
CONTINUOUS
10
110.0614619999999917
20
-97.2681129999999996
11
110.1096769999999907
21
-97.3186800000000005
0
LINE
8
BLACK
6
CONTINUOUS
10
110.1096769999999907
20
-97.3186800000000005
11
110.1229009999999988
21
-97.3872870000000006
0
LINE
8
BLACK
6
CONTINUOUS
10
110.1229009999999988
20
-97.3872870000000006
11
110.0969329999999928
21
-97.4521510000000006
0
LINE
8
BLACK
6
CONTINUOUS
10
110.0969329999999928
20
-97.4521510000000006
11
110.0400190000000009
21
-97.4926799999999929
0
LINE
8
BLACK
6
CONTINUOUS
10
110.0400190000000009
20
-97.4926799999999929
11
109.9994619999999941
21
-97.4994999999999976
0
LINE
8
BLACK
6
CONTINUOUS
10
109.9994619999999941
20
-97.4994999999999976
11
106.6244999999999976
21
-97.4994999999999976
0
LINE
8
BLACK
6
CONTINUOUS
10
106.6244999999999976
20
-97.4994999999999976
11
106.5574609999999893
21
-97.4798150000000021
0
LINE
8
BLACK
6
CONTINUOUS
10
106.5574609999999893
20
-97.4798150000000021
11
106.5117059999999896
21
-97.4270109999999931
0
LINE
8
BLACK
6
CONTINUOUS
10
106.5117059999999896
20
-97.4270109999999931
11
106.5004999999999882
21
-97.3755000000000024
0
LINE
8
BLACK
6
CONTINUOUS
10
106.5004999999999882
20
-97.3755000000000024
11
106.5004999999999882
21
-89.8688719999999961
0
LINE
8
BLACK
6
CONTINUOUS
10
106.5004999999999882
20
-89.8688719999999961
11
106.5004999999999882
21
-84.868904999999998
0
LINE
8
BLACK
6
CONTINUOUS
10
106.5004999999999882
20
-84.868904999999998
11
106.5004999999999882
21
-73.3021339999999952
0
LINE
8
BLACK
6
CONTINUOUS
10
106.5004999999999882
20
-73.3021339999999952
11
106.5004999999999882
21
-69.8739999999999952
0
LINE
8
BLACK
6
CONTINUOUS
10
106.5004999999999882
20
-69.8739999999999952
11
106.5201849999999979
21
-69.8069610000000011
0
LINE
8
BLACK
6
CONTINUOUS
10
106.5201849999999979
20
-69.8069610000000011
11
106.5729889999999926
21
-69.7612060000000014
0
LINE
8
BLACK
6
CONTINUOUS
10
106.5729889999999926
20
-69.7612060000000014
11
106.6244999999999976
21
-69.75
0
LINE
8
BLACK
6
CONTINUOUS
10
106.6244999999999976
20
-69.75
11
119.4486379999999883
21
-69.75
0
LINE
8
BLACK
6
CONTINUOUS
10
119.4486379999999883
20
-69.75
11
119.5156769999999966
21
-69.7696849999999955
0
LINE
8
BLACK
6
CONTINUOUS
10
108.9994999999999976
20
-90.1311269999999922
11
109.0261229999999983
21
-90.3333389999999952
0
LINE
8
BLACK
6
CONTINUOUS
10
109.0261229999999983
20
-90.3333389999999952
11
109.0337299999999914
21
-90.3911159999999967
0
LINE
8
BLACK
6
CONTINUOUS
10
109.0337299999999914
20
-90.3911159999999967
11
109.0448629999999923
21
-90.4326650000000001
0
LINE
8
BLACK
6
CONTINUOUS
10
109.0448629999999923
20
-90.4326650000000001
11
109.1016019999999997
21
-90.6444180000000017
0
LINE
8
BLACK
6
CONTINUOUS
10
109.1016019999999997
20
-90.6444180000000017
11
109.1016049999999922
21
-90.6444279999999907
0
LINE
8
BLACK
6
CONTINUOUS
10
109.1016049999999922
20
-90.6444279999999907
11
109.2019529999999889
21
-90.8866900000000015
0
LINE
8
BLACK
6
CONTINUOUS
10
109.2019529999999889
20
-90.8866900000000015
11
109.2019579999999905
21
-90.8866999999999905
0
LINE
8
BLACK
6
CONTINUOUS
10
109.2019579999999905
20
-90.8866999999999905
11
109.3330749999999938
21
-91.1138029999999901
0
LINE
8
BLACK
6
CONTINUOUS
10
109.3330749999999938
20
-91.1138029999999901
11
109.4927179999999964
21
-91.3218509999999952
0
LINE
8
BLACK
6
CONTINUOUS
10
109.4927179999999964
20
-91.3218509999999952
11
109.4927259999999904
21
-91.3218600000000009
0
LINE
8
BLACK
6
CONTINUOUS
10
109.4927259999999904
20
-91.3218600000000009
11
109.6781399999999991
21
-91.5072739999999953
0
LINE
8
BLACK
6
CONTINUOUS
10
109.6781399999999991
20
-91.5072739999999953
11
109.6781479999999931
21
-91.5072809999999919
0
LINE
8
BLACK
6
CONTINUOUS
10
109.6781479999999931
20
-91.5072809999999919
11
109.6781489999999906
21
-91.5072819999999894
0
LINE
8
BLACK
6
CONTINUOUS
10
109.6781489999999906
20
-91.5072819999999894
11
109.726388
21
-91.5442970000000003
0
LINE
8
BLACK
6
CONTINUOUS
10
109.726388
20
-91.5442970000000003
11
109.8861959999999982
21
-91.6669239999999945
0
LINE
8
BLACK
6
CONTINUOUS
10
109.8861959999999982
20
-91.6669239999999945
11
110.1132989999999978
21
-91.7980409999999978
0
LINE
8
BLACK
6
CONTINUOUS
10
110.1132989999999978
20
-91.7980409999999978
11
110.113309000000001
21
-91.7980459999999994
0
LINE
8
BLACK
6
CONTINUOUS
10
110.113309000000001
20
-91.7980459999999994
11
110.2710059999999999
21
-91.8633659999999992
0
LINE
8
BLACK
6
CONTINUOUS
10
110.2710059999999999
20
-91.8633659999999992
11
110.3555810000000008
21
-91.8983980000000003
0
LINE
8
BLACK
6
CONTINUOUS
10
110.3555810000000008
20
-91.8983980000000003
11
110.6088839999999891
21
-91.9662699999999944
0
LINE
8
BLACK
6
CONTINUOUS
10
110.6088839999999891
20
-91.9662699999999944
11
110.8688799999999901
21
-92.0005000000000024
0
LINE
8
BLACK
6
CONTINUOUS
10
110.8688799999999901
20
-92.0005000000000024
11
110.8688870000000009
21
-92.0005000000000024
0
LINE
8
BLACK
6
CONTINUOUS
10
110.8688870000000009
20
-92.0005000000000024
11
111.1311129999999991
21
-92.0005000000000024
0
LINE
8
BLACK
6
CONTINUOUS
10
111.1311129999999991
20
-92.0005000000000024
11
111.1311199999999957
21
-92.0005000000000024
0
LINE
8
BLACK
6
CONTINUOUS
10
111.1311199999999957
20
-92.0005000000000024
11
111.3911159999999967
21
-91.9662699999999944
0
LINE
8
BLACK
6
CONTINUOUS
10
111.3911159999999967
20
-91.9662699999999944
11
111.6444189999999992
21
-91.8983980000000003
0
LINE
8
BLACK
6
CONTINUOUS
10
111.6444189999999992
20
-91.8983980000000003
11
111.8866969999999981
21
-91.7980429999999927
0
LINE
8
BLACK
6
CONTINUOUS
10
111.8866969999999981
20
-91.7980429999999927
11
112.1138029999999901
21
-91.6669239999999945
0
LINE
8
BLACK
6
CONTINUOUS
10
112.1138029999999901
20
-91.6669239999999945
11
112.3218509999999952
21
-91.5072819999999894
0
LINE
8
BLACK
6
CONTINUOUS
10
112.3218509999999952
20
-91.5072819999999894
11
112.3218549999999993
21
-91.507277000000002
0
LINE
8
BLACK
6
CONTINUOUS
10
112.3218549999999993
20
-91.507277000000002
11
112.3218600000000009
21
-91.5072739999999953
0
LINE
8
BLACK
6
CONTINUOUS
10
112.3218600000000009
20
-91.5072739999999953
11
112.5072739999999953
21
-91.3218600000000009
0
LINE
8
BLACK
6
CONTINUOUS
10
112.5072739999999953
20
-91.3218600000000009
11
112.507277000000002
21
-91.3218549999999993
0
LINE
8
BLACK
6
CONTINUOUS
10
112.507277000000002
20
-91.3218549999999993
11
112.5072819999999894
21
-91.3218509999999952
0
LINE
8
BLACK
6
CONTINUOUS
10
112.5072819999999894
20
-91.3218509999999952
11
112.6669239999999945
21
-91.1138029999999901
0
LINE
8
BLACK
6
CONTINUOUS
10
112.6669239999999945
20
-91.1138029999999901
11
112.7980429999999927
21
-90.8866969999999981
0
LINE
8
BLACK
6
CONTINUOUS
10
112.7980429999999927
20
-90.8866969999999981
11
112.8983980000000003
21
-90.6444189999999992
0
LINE
8
BLACK
6
CONTINUOUS
10
112.8983980000000003
20
-90.6444189999999992
11
112.9662699999999944
21
-90.3911159999999967
0
LINE
8
BLACK
6
CONTINUOUS
10
112.9662699999999944
20
-90.3911159999999967
11
113.0004999999999882
21
-90.1311199999999957
0
LINE
8
BLACK
6
CONTINUOUS
10
113.0004999999999882
20
-90.1311199999999957
11
113.0004999999999882
21
-89.8688799999999901
0
LINE
8
BLACK
6
CONTINUOUS
10
113.0004999999999882
20
-89.8688799999999901
11
112.9662699999999944
21
-89.6088839999999891
0
LINE
8
BLACK
6
CONTINUOUS
10
112.9662699999999944
20
-89.6088839999999891
11
112.8983980000000003
21
-89.3555810000000008
0
LINE
8
BLACK
6
CONTINUOUS
10
112.8983980000000003
20
-89.3555810000000008
11
112.8796669999999978
21
-89.3103600000000029
0
LINE
8
BLACK
6
CONTINUOUS
10
112.8796669999999978
20
-89.3103600000000029
11
112.7980459999999994
21
-89.113309000000001
0
LINE
8
BLACK
6
CONTINUOUS
10
112.7980459999999994
20
-89.113309000000001
11
112.7980409999999978
21
-89.1132989999999978
0
LINE
8
BLACK
6
CONTINUOUS
10
112.7980409999999978
20
-89.1132989999999978
11
112.6669239999999945
21
-88.8861959999999982
0
LINE
8
BLACK
6
CONTINUOUS
10
112.6669239999999945
20
-88.8861959999999982
11
112.5072809999999919
21
-88.6781479999999931
0
LINE
8
BLACK
6
CONTINUOUS
10
112.5072809999999919
20
-88.6781479999999931
11
112.5072739999999953
21
-88.6781399999999991
0
LINE
8
BLACK
6
CONTINUOUS
10
112.5072739999999953
20
-88.6781399999999991
11
112.3218600000000009
21
-88.4927259999999904
0
LINE
8
BLACK
6
CONTINUOUS
10
112.3218600000000009
20
-88.4927259999999904
11
112.3218509999999952
21
-88.4927179999999964
0
LINE
8
BLACK
6
CONTINUOUS
10
112.3218509999999952
20
-88.4927179999999964
11
112.1138029999999901
21
-88.3330749999999938
0
LINE
8
BLACK
6
CONTINUOUS
10
112.1138029999999901
20
-88.3330749999999938
11
111.8866999999999905
21
-88.2019579999999905
0
LINE
8
BLACK
6
CONTINUOUS
10
111.8866999999999905
20
-88.2019579999999905
11
111.8866900000000015
21
-88.2019529999999889
0
LINE
8
BLACK
6
CONTINUOUS
10
111.8866900000000015
20
-88.2019529999999889
11
111.6444279999999907
21
-88.1016049999999922
0
LINE
8
BLACK
6
CONTINUOUS
10
111.6444279999999907
20
-88.1016049999999922
11
111.6444209999999941
21
-88.1016029999999972
0
LINE
8
BLACK
6
CONTINUOUS
10
111.6444209999999941
20
-88.1016029999999972
11
111.6444189999999992
21
-88.1016019999999997
0
LINE
8
BLACK
6
CONTINUOUS
10
111.6444189999999992
20
-88.1016019999999997
11
111.3911159999999967
21
-88.0337299999999914
0
LINE
8
BLACK
6
CONTINUOUS
10
111.3911159999999967
20
-88.0337299999999914
11
111.3333389999999952
21
-88.0261229999999983
0
LINE
8
BLACK
6
CONTINUOUS
10
111.3333389999999952
20
-88.0261229999999983
11
111.1311269999999922
21
-87.9994999999999976
0
LINE
8
BLACK
6
CONTINUOUS
10
111.1311269999999922
20
-87.9994999999999976
11
111.1311199999999957
21
-87.9994999999999976
0
LINE
8
BLACK
6
CONTINUOUS
10
111.1311199999999957
20
-87.9994999999999976
11
110.8688799999999901
21
-87.9994999999999976
0
LINE
8
BLACK
6
CONTINUOUS
10
110.8688799999999901
20
-87.9994999999999976
11
110.8688719999999961
21
-87.9994999999999976
0
LINE
8
BLACK
6
CONTINUOUS
10
110.8688719999999961
20
-87.9994999999999976
11
110.6377719999999982
21
-88.029925999999989
0
LINE
8
BLACK
6
CONTINUOUS
10
110.6377719999999982
20
-88.029925999999989
11
110.6088839999999891
21
-88.0337299999999914
0
LINE
8
BLACK
6
CONTINUOUS
10
110.6088839999999891
20
-88.0337299999999914
11
110.3555810000000008
21
-88.1016019999999997
0
LINE
8
BLACK
6
CONTINUOUS
10
110.3555810000000008
20
-88.1016019999999997
11
110.3555709999999976
21
-88.1016049999999922
0
LINE
8
BLACK
6
CONTINUOUS
10
110.3555709999999976
20
-88.1016049999999922
11
110.113309000000001
21
-88.2019529999999889
0
LINE
8
BLACK
6
CONTINUOUS
10
110.113309000000001
20
-88.2019529999999889
11
110.1132989999999978
21
-88.2019579999999905
0
LINE
8
BLACK
6
CONTINUOUS
10
110.1132989999999978
20
-88.2019579999999905
11
109.8861959999999982
21
-88.3330749999999938
0
LINE
8
BLACK
6
CONTINUOUS
10
109.8861959999999982
20
-88.3330749999999938
11
109.6781479999999931
21
-88.4927179999999964
0
LINE
8
BLACK
6
CONTINUOUS
10
109.6781479999999931
20
-88.4927179999999964
11
109.4927179999999964
21
-88.6781479999999931
0
LINE
8
BLACK
6
CONTINUOUS
10
109.4927179999999964
20
-88.6781479999999931
11
109.3330749999999938
21
-88.8861959999999982
0
LINE
8
BLACK
6
CONTINUOUS
10
109.3330749999999938
20
-88.8861959999999982
11
109.2019579999999905
21
-89.1132989999999978
0
LINE
8
BLACK
6
CONTINUOUS
10
109.2019579999999905
20
-89.1132989999999978
11
109.2019529999999889
21
-89.113309000000001
0
LINE
8
BLACK
6
CONTINUOUS
10
109.2019529999999889
20
-89.113309000000001
11
109.1016049999999922
21
-89.3555709999999976
0
LINE
8
BLACK
6
CONTINUOUS
10
109.1016049999999922
20
-89.3555709999999976
11
109.1016019999999997
21
-89.3555810000000008
0
LINE
8
BLACK
6
CONTINUOUS
10
109.1016019999999997
20
-89.3555810000000008
11
109.0337299999999914
21
-89.6088850000000008
0
LINE
8
BLACK
6
CONTINUOUS
10
109.0337299999999914
20
-89.6088850000000008
11
108.9994999999999976
21
-89.8688719999999961
0
LINE
8
BLACK
6
CONTINUOUS
10
108.9994999999999976
20
-89.8688719999999961
11
108.9994999999999976
21
-90.1311269999999922
0
LINE
8
BLACK
6
CONTINUOUS
10
109.5236329999999896
20
-86.5799169999999947
11
109.5236329999999896
21
-86.5799179999999922
0
LINE
8
BLACK
6
CONTINUOUS
10
109.5236329999999896
20
-86.5799179999999922
11
109.6364749999999901
21
-86.6665050000000008
0
LINE
8
BLACK
6
CONTINUOUS
10
109.6364749999999901
20
-86.6665050000000008
11
109.6364829999999984
21
-86.6665109999999999
0
LINE
8
BLACK
6
CONTINUOUS
10
109.6364829999999984
20
-86.6665109999999999
11
109.8635170000000016
21
-86.7975899999999996
0
LINE
8
BLACK
6
CONTINUOUS
10
109.8635170000000016
20
-86.7975899999999996
11
109.8635279999999881
21
-86.7975950000000012
0
LINE
8
BLACK
6
CONTINUOUS
10
109.8635279999999881
20
-86.7975950000000012
11
110.1057440000000014
21
-86.8979239999999891
0
LINE
8
BLACK
6
CONTINUOUS
10
110.1057440000000014
20
-86.8979239999999891
11
110.3589789999999908
21
-86.9657770000000028
0
LINE
8
BLACK
6
CONTINUOUS
10
110.3589789999999908
20
-86.9657770000000028
11
110.3589899999999915
21
-86.9657789999999977
0
LINE
8
BLACK
6
CONTINUOUS
10
110.3589899999999915
20
-86.9657789999999977
11
110.618904999999998
21
-86.9999990000000025
0
LINE
8
BLACK
6
CONTINUOUS
10
110.618904999999998
20
-86.9999990000000025
11
110.6189199999999886
21
-87.
0
LINE
8
BLACK
6
CONTINUOUS
10
110.6189199999999886
20
-87.
11
110.8810799999999972
21
-87.
0
LINE
8
BLACK
6
CONTINUOUS
10
110.8810799999999972
20
-87.
11
110.8810939999999903
21
-86.9999990000000025
0
LINE
8
BLACK
6
CONTINUOUS
10
110.8810939999999903
20
-86.9999990000000025
11
111.1410089999999968
21
-86.9657789999999977
0
LINE
8
BLACK
6
CONTINUOUS
10
111.1410089999999968
20
-86.9657789999999977
11
111.1410199999999975
21
-86.9657770000000028
0
LINE
8
BLACK
6
CONTINUOUS
10
111.1410199999999975
20
-86.9657770000000028
11
111.3942550000000011
21
-86.8979239999999891
0
LINE
8
BLACK
6
CONTINUOUS
10
111.3942550000000011
20
-86.8979239999999891
11
111.6364710000000002
21
-86.7975950000000012
0
LINE
8
BLACK
6
CONTINUOUS
10
111.6364710000000002
20
-86.7975950000000012
11
111.6364820000000009
21
-86.7975899999999996
0
LINE
8
BLACK
6
CONTINUOUS
10
111.6364820000000009
20
-86.7975899999999996
11
111.86351599999999
21
-86.6665109999999999
0
LINE
8
BLACK
6
CONTINUOUS
10
111.86351599999999
20
-86.6665109999999999
11
111.8635340000000014
21
-86.6664990000000017
0
LINE
8
BLACK
6
CONTINUOUS
10
111.8635340000000014
20
-86.6664990000000017
11
111.9763650000000013
21
-86.5799189999999896
0
LINE
8
BLACK
6
CONTINUOUS
10
111.9763650000000013
20
-86.5799189999999896
11
111.9763650000000013
21
-86.5799169999999947
0
LINE
8
BLACK
6
CONTINUOUS
10
111.9763650000000013
20
-86.5799169999999947
11
111.6157959999999889
21
-86.2193479999999965
0
LINE
8
BLACK
6
CONTINUOUS
10
111.6157959999999889
20
-86.2193479999999965
11
111.5337479999999886
21
-86.2789599999999979
0
LINE
8
BLACK
6
CONTINUOUS
10
111.5337479999999886
20
-86.2789599999999979
11
111.3240249999999918
21
-86.3858189999999979
0
LINE
8
BLACK
6
CONTINUOUS
10
111.3240249999999918
20
-86.3858189999999979
11
111.1001679999999965
21
-86.4585549999999898
0
LINE
8
BLACK
6
CONTINUOUS
10
111.1001679999999965
20
-86.4585549999999898
11
110.8676889999999986
21
-86.4953759999999932
0
LINE
8
BLACK
6
CONTINUOUS
10
110.8676889999999986
20
-86.4953759999999932
11
110.6323110000000014
21
-86.4953759999999932
0
LINE
8
BLACK
6
CONTINUOUS
10
110.6323110000000014
20
-86.4953759999999932
11
110.3998319999999893
21
-86.4585549999999898
0
LINE
8
BLACK
6
CONTINUOUS
10
110.3998319999999893
20
-86.4585549999999898
11
110.175974999999994
21
-86.3858189999999979
0
LINE
8
BLACK
6
CONTINUOUS
10
110.175974999999994
20
-86.3858189999999979
11
109.9662519999999972
21
-86.2789599999999979
0
LINE
8
BLACK
6
CONTINUOUS
10
109.9662519999999972
20
-86.2789599999999979
11
109.8842020000000019
21
-86.2193469999999991
0
LINE
8
BLACK
6
CONTINUOUS
10
109.8842020000000019
20
-86.2193469999999991
11
109.5236329999999896
21
-86.5799169999999947
0
LINE
8
BLACK
6
CONTINUOUS
10
111.9693469999999991
20
-84.1342020000000019
11
112.0289599999999979
21
-84.2162519999999972
0
LINE
8
BLACK
6
CONTINUOUS
10
112.0289599999999979
20
-84.2162519999999972
11
112.1358189999999979
21
-84.425974999999994
0
LINE
8
BLACK
6
CONTINUOUS
10
112.1358189999999979
20
-84.425974999999994
11
112.2085549999999898
21
-84.6498319999999893
0
LINE
8
BLACK
6
CONTINUOUS
10
112.2085549999999898
20
-84.6498319999999893
11
112.2453759999999932
21
-84.8823110000000014
0
LINE
8
BLACK
6
CONTINUOUS
10
112.2453759999999932
20
-84.8823110000000014
11
112.2453759999999932
21
-85.1176889999999986
0
LINE
8
BLACK
6
CONTINUOUS
10
112.2453759999999932
20
-85.1176889999999986
11
112.2085549999999898
21
-85.3501679999999965
0
LINE
8
BLACK
6
CONTINUOUS
10
112.2085549999999898
20
-85.3501679999999965
11
112.1358189999999979
21
-85.5740249999999918
0
LINE
8
BLACK
6
CONTINUOUS
10
112.1358189999999979
20
-85.5740249999999918
11
112.0289599999999979
21
-85.7837480000000028
0
LINE
8
BLACK
6
CONTINUOUS
10
112.0289599999999979
20
-85.7837480000000028
11
111.9693479999999965
21
-85.8657960000000031
0
LINE
8
BLACK
6
CONTINUOUS
10
111.9693479999999965
20
-85.8657960000000031
11
112.3299169999999947
21
-86.2263650000000013
0
LINE
8
BLACK
6
CONTINUOUS
10
112.3299169999999947
20
-86.2263650000000013
11
112.3299189999999896
21
-86.2263650000000013
0
LINE
8
BLACK
6
CONTINUOUS
10
112.3299189999999896
20
-86.2263650000000013
11
112.4164990000000017
21
-86.1135340000000014
0
LINE
8
BLACK
6
CONTINUOUS
10
112.4164990000000017
20
-86.1135340000000014
11
112.4165109999999999
21
-86.11351599999999
0
LINE
8
BLACK
6
CONTINUOUS
10
112.4165109999999999
20
-86.11351599999999
11
112.5475899999999996
21
-85.8864820000000009
0
LINE
8
BLACK
6
CONTINUOUS
10
112.5475899999999996
20
-85.8864820000000009
11
112.5475950000000012
21
-85.8864710000000002
0
LINE
8
BLACK
6
CONTINUOUS
10
112.5475950000000012
20
-85.8864710000000002
11
112.6479239999999891
21
-85.6442550000000011
0
LINE
8
BLACK
6
CONTINUOUS
10
112.6479239999999891
20
-85.6442550000000011
11
112.7157769999999886
21
-85.3910199999999975
0
LINE
8
BLACK
6
CONTINUOUS
10
112.7157769999999886
20
-85.3910199999999975
11
112.7157789999999977
21
-85.3910089999999968
0
LINE
8
BLACK
6
CONTINUOUS
10
112.7157789999999977
20
-85.3910089999999968
11
112.7499989999999883
21
-85.1310939999999903
0
LINE
8
BLACK
6
CONTINUOUS
10
112.7499989999999883
20
-85.1310939999999903
11
112.75
21
-85.1310799999999972
0
LINE
8
BLACK
6
CONTINUOUS
10
112.75
20
-85.1310799999999972
11
112.75
21
-84.8689189999999911
0
LINE
8
BLACK
6
CONTINUOUS
10
112.75
20
-84.8689189999999911
11
112.7499989999999883
21
-84.868904999999998
0
LINE
8
BLACK
6
CONTINUOUS
10
112.7499989999999883
20
-84.868904999999998
11
112.7157789999999977
21
-84.6089899999999915
0
LINE
8
BLACK
6
CONTINUOUS
10
112.7157789999999977
20
-84.6089899999999915
11
112.7157769999999886
21
-84.6089789999999908
0
LINE
8
BLACK
6
CONTINUOUS
10
112.7157769999999886
20
-84.6089789999999908
11
112.6479239999999891
21
-84.3557440000000014
0
LINE
8
BLACK
6
CONTINUOUS
10
112.6479239999999891
20
-84.3557440000000014
11
112.5475950000000012
21
-84.1135280000000023
0
LINE
8
BLACK
6
CONTINUOUS
10
112.5475950000000012
20
-84.1135280000000023
11
112.5475899999999996
21
-84.1135170000000016
0
LINE
8
BLACK
6
CONTINUOUS
10
112.5475899999999996
20
-84.1135170000000016
11
112.4165109999999999
21
-83.8864829999999984
0
LINE
8
BLACK
6
CONTINUOUS
10
112.4165109999999999
20
-83.8864829999999984
11
112.4165050000000008
21
-83.8864749999999901
0
LINE
8
BLACK
6
CONTINUOUS
10
112.4165050000000008
20
-83.8864749999999901
11
112.3299179999999922
21
-83.7736329999999896
0
LINE
8
BLACK
6
CONTINUOUS
10
112.3299179999999922
20
-83.7736329999999896
11
112.3299169999999947
21
-83.7736329999999896
0
LINE
8
BLACK
6
CONTINUOUS
10
112.3299169999999947
20
-83.7736329999999896
11
111.9693469999999991
21
-84.1342020000000019
0
LINE
8
BLACK
6
CONTINUOUS
10
110.3589899999999915
20
-83.0342199999999906
11
110.3589789999999908
21
-83.0342219999999998
0
LINE
8
BLACK
6
CONTINUOUS
10
110.3589789999999908
20
-83.0342219999999998
11
110.1057440000000014
21
-83.1020749999999992
0
LINE
8
BLACK
6
CONTINUOUS
10
110.1057440000000014
20
-83.1020749999999992
11
109.8635279999999881
21
-83.2024040000000014
0
LINE
8
BLACK
6
CONTINUOUS
10
109.8635279999999881
20
-83.2024040000000014
11
109.8635170000000016
21
-83.2024090000000029
0
LINE
8
BLACK
6
CONTINUOUS
10
109.8635170000000016
20
-83.2024090000000029
11
109.6364710000000002
21
-83.3334959999999967
0
LINE
8
BLACK
6
CONTINUOUS
10
109.6364710000000002
20
-83.3334959999999967
11
109.5236329999999896
21
-83.4200790000000012
0
LINE
8
BLACK
6
CONTINUOUS
10
109.5236329999999896
20
-83.4200790000000012
11
109.5236329999999896
21
-83.4200799999999987
0
LINE
8
BLACK
6
CONTINUOUS
10
109.5236329999999896
20
-83.4200799999999987
11
109.8842039999999969
21
-83.7806509999999918
0
LINE
8
BLACK
6
CONTINUOUS
10
109.8842039999999969
20
-83.7806509999999918
11
109.9662519999999972
21
-83.7210400000000021
0
LINE
8
BLACK
6
CONTINUOUS
10
109.9662519999999972
20
-83.7210400000000021
11
110.175974999999994
21
-83.6141810000000021
0
LINE
8
BLACK
6
CONTINUOUS
10
110.175974999999994
20
-83.6141810000000021
11
110.3998319999999893
21
-83.541444999999996
0
LINE
8
BLACK
6
CONTINUOUS
10
110.3998319999999893
20
-83.541444999999996
11
110.6323110000000014
21
-83.5046239999999926
0
LINE
8
BLACK
6
CONTINUOUS
10
110.6323110000000014
20
-83.5046239999999926
11
110.8676889999999986
21
-83.5046239999999926
0
LINE
8
BLACK
6
CONTINUOUS
10
110.8676889999999986
20
-83.5046239999999926
11
111.1001679999999965
21
-83.541444999999996
0
LINE
8
BLACK
6
CONTINUOUS
10
111.1001679999999965
20
-83.541444999999996
11
111.3240249999999918
21
-83.6141810000000021
0
LINE
8
BLACK
6
CONTINUOUS
10
111.3240249999999918
20
-83.6141810000000021
11
111.5337479999999886
21
-83.7210400000000021
0
LINE
8
BLACK
6
CONTINUOUS
10
111.5337479999999886
20
-83.7210400000000021
11
111.615793999999994
21
-83.7806499999999943
0
LINE
8
BLACK
6
CONTINUOUS
10
111.615793999999994
20
-83.7806499999999943
11
111.9763650000000013
21
-83.4200799999999987
0
LINE
8
BLACK
6
CONTINUOUS
10
111.9763650000000013
20
-83.4200799999999987
11
111.8635239999999982
21
-83.3334940000000017
0
LINE
8
BLACK
6
CONTINUOUS
10
111.8635239999999982
20
-83.3334940000000017
11
111.86351599999999
21
-83.3334880000000027
0
LINE
8
BLACK
6
CONTINUOUS
10
111.86351599999999
20
-83.3334880000000027
11
111.6364820000000009
21
-83.2024090000000029
0
LINE
8
BLACK
6
CONTINUOUS
10
111.6364820000000009
20
-83.2024090000000029
11
111.6364710000000002
21
-83.2024040000000014
0
LINE
8
BLACK
6
CONTINUOUS
10
111.6364710000000002
20
-83.2024040000000014
11
111.3942550000000011
21
-83.1020749999999992
0
LINE
8
BLACK
6
CONTINUOUS
10
111.3942550000000011
20
-83.1020749999999992
11
111.1410199999999975
21
-83.0342219999999998
0
LINE
8
BLACK
6
CONTINUOUS
10
111.1410199999999975
20
-83.0342219999999998
11
111.1410089999999968
21
-83.0342199999999906
0
LINE
8
BLACK
6
CONTINUOUS
10
111.1410089999999968
20
-83.0342199999999906
11
110.8810939999999903
21
-83.
0
LINE
8
BLACK
6
CONTINUOUS
10
110.8810939999999903
20
-83.
11
110.618904999999998
21
-83.
0
LINE
8
BLACK
6
CONTINUOUS
10
110.618904999999998
20
-83.
11
110.3589899999999915
21
-83.0342199999999906
0
LINE
8
BLACK
6
CONTINUOUS
10
112.0881839999999983
20
-76.7003709999999899
11
112.0388229999999936
21
-76.7306200000000018
0
LINE
8
BLACK
6
CONTINUOUS
10
112.0388229999999936
20
-76.7306200000000018
11
111.944974000000002
21
-76.7611139999999921
0
LINE
8
BLACK
6
CONTINUOUS
10
111.944974000000002
20
-76.7611139999999921
11
111.7695939999999979
21
-76.850475000000003
0
LINE
8
BLACK
6
CONTINUOUS
10
111.7695939999999979
20
-76.850475000000003
11
111.678740999999988
21
-76.916483999999997
0
LINE
8
BLACK
6
CONTINUOUS
10
111.678740999999988
20
-76.916483999999997
11
111.610354000000001
21
-76.9661710000000028
0
LINE
8
BLACK
6
CONTINUOUS
10
111.610354000000001
20
-76.9661710000000028
11
111.6103519999999918
21
-76.9661729999999977
0
LINE
8
BLACK
6
CONTINUOUS
10
111.6103519999999918
20
-76.9661729999999977
11
111.6103509999999943
21
-76.9661729999999977
0
LINE
8
BLACK
6
CONTINUOUS
10
111.6103509999999943
20
-76.9661729999999977
11
111.4711739999999907
21
-77.1053500000000014
0
LINE
8
BLACK
6
CONTINUOUS
10
111.4711739999999907
20
-77.1053500000000014
11
111.4711739999999907
21
-77.1053509999999989
0
LINE
8
BLACK
6
CONTINUOUS
10
111.4711739999999907
20
-77.1053509999999989
11
111.4711719999999957
21
-77.1053529999999938
0
LINE
8
BLACK
6
CONTINUOUS
10
111.4711719999999957
20
-77.1053529999999938
11
111.4214849999999899
21
-77.1737399999999951
0
LINE
8
BLACK
6
CONTINUOUS
10
111.4214849999999899
20
-77.1737399999999951
11
111.3554759999999959
21
-77.2645929999999908
0
LINE
8
BLACK
6
CONTINUOUS
10
111.3554759999999959
20
-77.2645929999999908
11
111.2661169999999942
21
-77.4399689999999907
0
LINE
8
BLACK
6
CONTINUOUS
10
111.2661169999999942
20
-77.4399689999999907
11
111.2052899999999909
21
-77.6271720000000016
0
LINE
8
BLACK
6
CONTINUOUS
10
111.2052899999999909
20
-77.6271720000000016
11
111.1744999999999948
21
-77.8215759999999932
0
LINE
8
BLACK
6
CONTINUOUS
10
111.1744999999999948
20
-77.8215759999999932
11
111.1744999999999948
21
-78.0184210000000036
0
LINE
8
BLACK
6
CONTINUOUS
10
111.1744999999999948
20
-78.0184210000000036
11
111.2052899999999909
21
-78.2128249999999952
0
LINE
8
BLACK
6
CONTINUOUS
10
111.2052899999999909
20
-78.2128249999999952
11
111.2661169999999942
21
-78.4000279999999918
0
LINE
8
BLACK
6
CONTINUOUS
10
111.2661169999999942
20
-78.4000279999999918
11
111.3554759999999959
21
-78.5754039999999918
0
LINE
8
BLACK
6
CONTINUOUS
10
111.3554759999999959
20
-78.5754039999999918
11
111.4711719999999957
21
-78.7346450000000004
0
LINE
8
BLACK
6
CONTINUOUS
10
111.4711719999999957
20
-78.7346450000000004
11
111.610354000000001
21
-78.8738269999999915
0
LINE
8
BLACK
6
CONTINUOUS
10
111.610354000000001
20
-78.8738269999999915
11
111.7695949999999954
21
-78.9895229999999913
0
LINE
8
BLACK
6
CONTINUOUS
10
111.7695949999999954
20
-78.9895229999999913
11
111.852454999999992
21
-79.0317419999999942
0
LINE
8
BLACK
6
CONTINUOUS
10
111.852454999999992
20
-79.0317419999999942
11
111.9449699999999979
21
-79.0788809999999955
0
LINE
8
BLACK
6
CONTINUOUS
10
111.9449699999999979
20
-79.0788809999999955
11
111.9449719999999928
21
-79.0788809999999955
0
LINE
8
BLACK
6
CONTINUOUS
10
111.9449719999999928
20
-79.0788809999999955
11
111.9449749999999995
21
-79.0788829999999905
0
LINE
8
BLACK
6
CONTINUOUS
10
111.9449749999999995
20
-79.0788829999999905
11
112.0453169999999972
21
-79.1114859999999993
0
LINE
8
BLACK
6
CONTINUOUS
10
112.0453169999999972
20
-79.1114859999999993
11
112.1321729999999945
21
-79.1397079999999988
0
LINE
8
BLACK
6
CONTINUOUS
10
112.1321729999999945
20
-79.1397079999999988
11
112.3265779999999978
21
-79.1704989999999924
0
LINE
8
BLACK
6
CONTINUOUS
10
112.3265779999999978
20
-79.1704989999999924
11
112.3265829999999994
21
-79.1704989999999924
0
LINE
8
BLACK
6
CONTINUOUS
10
112.3265829999999994
20
-79.1704989999999924
11
112.5234219999999965
21
-79.1704989999999924
0
LINE
8
BLACK
6
CONTINUOUS
10
112.5234219999999965
20
-79.1704989999999924
11
112.7178259999999881
21
-79.1397079999999988
0
LINE
8
BLACK
6
CONTINUOUS
10
112.7178259999999881
20
-79.1397079999999988
11
112.9050249999999949
21
-79.0788829999999905
0
LINE
8
BLACK
6
CONTINUOUS
10
112.9050249999999949
20
-79.0788829999999905
11
113.0804049999999989
21
-78.9895229999999913
0
LINE
8
BLACK
6
CONTINUOUS
10
113.0804049999999989
20
-78.9895229999999913
11
113.2396459999999934
21
-78.8738269999999915
0
LINE
8
BLACK
6
CONTINUOUS
10
113.2396459999999934
20
-78.8738269999999915
11
113.3788279999999986
21
-78.7346450000000004
0
LINE
8
BLACK
6
CONTINUOUS
10
113.3788279999999986
20
-78.7346450000000004
11
113.4945239999999984
21
-78.5754039999999918
0
LINE
8
BLACK
6
CONTINUOUS
10
113.4945239999999984
20
-78.5754039999999918
11
113.5838839999999976
21
-78.4000240000000019
0
LINE
8
BLACK
6
CONTINUOUS
10
113.5838839999999976
20
-78.4000240000000019
11
113.6447089999999918
21
-78.2128249999999952
0
LINE
8
BLACK
6
CONTINUOUS
10
113.6447089999999918
20
-78.2128249999999952
11
113.6754999999999995
21
-78.0184210000000036
0
LINE
8
BLACK
6
CONTINUOUS
10
113.6754999999999995
20
-78.0184210000000036
11
113.6754999999999995
21
-77.8215759999999932
0
LINE
8
BLACK
6
CONTINUOUS
10
113.6754999999999995
20
-77.8215759999999932
11
113.6447089999999918
21
-77.6271720000000016
0
LINE
8
BLACK
6
CONTINUOUS
10
113.6447089999999918
20
-77.6271720000000016
11
113.5838819999999885
21
-77.4399689999999907
0
LINE
8
BLACK
6
CONTINUOUS
10
113.5838819999999885
20
-77.4399689999999907
11
113.4945230000000009
21
-77.2645929999999908
0
LINE
8
BLACK
6
CONTINUOUS
10
113.4945230000000009
20
-77.2645929999999908
11
113.3788279999999986
21
-77.1053529999999938
0
LINE
8
BLACK
6
CONTINUOUS
10
113.3788279999999986
20
-77.1053529999999938
11
113.2396459999999934
21
-76.9661710000000028
0
LINE
8
BLACK
6
CONTINUOUS
10
113.2396459999999934
20
-76.9661710000000028
11
113.0804049999999989
21
-76.850475000000003
0
LINE
8
BLACK
6
CONTINUOUS
10
113.0804049999999989
20
-76.850475000000003
11
112.905028999999999
21
-76.7611160000000012
0
LINE
8
BLACK
6
CONTINUOUS
10
112.905028999999999
20
-76.7611160000000012
11
112.8111819999999881
21
-76.7306229999999942
0
LINE
8
BLACK
6
CONTINUOUS
10
112.8111819999999881
20
-76.7306229999999942
11
112.7618200000000002
21
-76.700372999999999
0
LINE
8
BLACK
6
CONTINUOUS
10
112.7618200000000002
20
-76.700372999999999
11
112.746262999999999
21
-76.6848159999999979
0
LINE
8
BLACK
6
CONTINUOUS
10
112.746262999999999
20
-76.6848159999999979
11
112.642715999999993
21
-76.7277069999999952
0
LINE
8
BLACK
6
CONTINUOUS
10
112.642715999999993
20
-76.7277069999999952
11
112.4985149999999976
21
-76.7563909999999936
0
LINE
8
BLACK
6
CONTINUOUS
10
112.4985149999999976
20
-76.7563909999999936
11
112.3514890000000008
21
-76.7563909999999936
0
LINE
8
BLACK
6
CONTINUOUS
10
112.3514890000000008
20
-76.7563909999999936
11
112.2072879999999913
21
-76.7277069999999952
0
LINE
8
BLACK
6
CONTINUOUS
10
112.2072879999999913
20
-76.7277069999999952
11
112.1037389999999903
21
-76.6848150000000004
0
LINE
8
BLACK
6
CONTINUOUS
10
112.1037389999999903
20
-76.6848150000000004
11
112.0881839999999983
21
-76.7003709999999899
0
LINE
8
BLACK
6
CONTINUOUS
10
111.1744999999999948
20
-74.897869
11
111.1745009999999922
21
-74.8978749999999991
0
LINE
8
BLACK
6
CONTINUOUS
10
111.1745009999999922
20
-74.8978749999999991
11
111.1809079999999881
21
-74.9574819999999988
0
LINE
8
BLACK
6
CONTINUOUS
10
111.1809079999999881
20
-74.9574819999999988
11
111.2312019999999961
21
-75.0923269999999974
0
LINE
8
BLACK
6
CONTINUOUS
10
111.2312019999999961
20
-75.0923269999999974
11
111.2312060000000002
21
-75.0923339999999939
0
LINE
8
BLACK
6
CONTINUOUS
10
111.2312060000000002
20
-75.0923339999999939
11
111.3174519999999887
21
-75.2075430000000011
0
LINE
8
BLACK
6
CONTINUOUS
10
111.3174519999999887
20
-75.2075430000000011
11
111.323724999999996
21
-75.2138159999999942
0
LINE
8
BLACK
6
CONTINUOUS
10
111.323724999999996
20
-75.2138159999999942
11
111.3224719999999905
21
-75.2150680000000023
0
LINE
8
BLACK
6
CONTINUOUS
10
111.3224719999999905
20
-75.2150680000000023
11
111.3579299999999961
21
-75.2624279999999999
0
LINE
8
BLACK
6
CONTINUOUS
10
111.3579299999999961
20
-75.2624279999999999
11
111.3629179999999934
21
-75.3321200000000033
0
LINE
8
BLACK
6
CONTINUOUS
10
111.3629179999999934
20
-75.3321200000000033
11
111.3522349999999932
21
-75.3620619999999946
0
LINE
8
BLACK
6
CONTINUOUS
10
111.3522349999999932
20
-75.3620619999999946
11
111.2665839999999946
21
-75.5301630000000017
0
LINE
8
BLACK
6
CONTINUOUS
10
111.2665839999999946
20
-75.5301630000000017
11
111.2057799999999901
21
-75.7172959999999904
0
LINE
8
BLACK
6
CONTINUOUS
10
111.2057799999999901
20
-75.7172959999999904
11
111.1750019999999921
21
-75.9116190000000017
0
LINE
8
BLACK
6
CONTINUOUS
10
111.1750019999999921
20
-75.9116190000000017
11
111.1750019999999921
21
-76.1083840000000009
0
LINE
8
BLACK
6
CONTINUOUS
10
111.1750019999999921
20
-76.1083840000000009
11
111.2057799999999901
21
-76.3027069999999981
0
LINE
8
BLACK
6
CONTINUOUS
10
111.2057799999999901
20
-76.3027069999999981
11
111.2665829999999971
21
-76.4898369999999943
0
LINE
8
BLACK
6
CONTINUOUS
10
111.2665829999999971
20
-76.4898369999999943
11
111.355907000000002
21
-76.6651469999999904
0
LINE
8
BLACK
6
CONTINUOUS
10
111.355907000000002
20
-76.6651469999999904
11
111.3813209999999998
21
-76.7001269999999948
0
LINE
8
BLACK
6
CONTINUOUS
10
111.3813209999999998
20
-76.7001269999999948
11
111.3813219999999973
21
-76.7001269999999948
0
LINE
8
BLACK
6
CONTINUOUS
10
111.3813219999999973
20
-76.7001269999999948
11
111.7501859999999994
21
-76.3312619999999953
0
LINE
8
BLACK
6
CONTINUOUS
10
111.7501859999999994
20
-76.3312619999999953
11
111.707296999999997
21
-76.2277160000000009
0
LINE
8
BLACK
6
CONTINUOUS
10
111.707296999999997
20
-76.2277160000000009
11
111.6786129999999986
21
-76.0835149999999913
0
LINE
8
BLACK
6
CONTINUOUS
10
111.6786129999999986
20
-76.0835149999999913
11
111.6786129999999986
21
-75.9364889999999946
0
LINE
8
BLACK
6
CONTINUOUS
10
111.6786129999999986
20
-75.9364889999999946
11
111.707296999999997
21
-75.7922879999999992
0
LINE
8
BLACK
6
CONTINUOUS
10
111.707296999999997
20
-75.7922879999999992
11
111.7635609999999957
21
-75.6564539999999965
0
LINE
8
BLACK
6
CONTINUOUS
10
111.7635609999999957
20
-75.6564539999999965
11
111.8452439999999939
21
-75.534206999999995
0
LINE
8
BLACK
6
CONTINUOUS
10
111.8452439999999939
20
-75.534206999999995
11
111.9492070000000012
21
-75.4302440000000018
0
LINE
8
BLACK
6
CONTINUOUS
10
111.9492070000000012
20
-75.4302440000000018
11
112.0714539999999886
21
-75.3485610000000037
0
LINE
8
BLACK
6
CONTINUOUS
10
112.0714539999999886
20
-75.3485610000000037
11
112.2072879999999913
21
-75.2922969999999907
0
LINE
8
BLACK
6
CONTINUOUS
10
112.2072879999999913
20
-75.2922969999999907
11
112.3514890000000008
21
-75.2636129999999923
0
LINE
8
BLACK
6
CONTINUOUS
10
112.3514890000000008
20
-75.2636129999999923
11
112.4985149999999976
21
-75.2636129999999923
0
LINE
8
BLACK
6
CONTINUOUS
10
112.4985149999999976
20
-75.2636129999999923
11
112.642715999999993
21
-75.2922969999999907
0
LINE
8
BLACK
6
CONTINUOUS
10
112.642715999999993
20
-75.2922969999999907
11
112.7785499999999956
21
-75.3485610000000037
0
LINE
8
BLACK
6
CONTINUOUS
10
112.7785499999999956
20
-75.3485610000000037
11
112.9007969999999972
21
-75.4302440000000018
0
LINE
8
BLACK
6
CONTINUOUS
10
112.9007969999999972
20
-75.4302440000000018
11
113.0047599999999903
21
-75.534206999999995
0
LINE
8
BLACK
6
CONTINUOUS
10
113.0047599999999903
20
-75.534206999999995
11
113.0864429999999885
21
-75.6564539999999965
0
LINE
8
BLACK
6
CONTINUOUS
10
113.0864429999999885
20
-75.6564539999999965
11
113.1427070000000015
21
-75.7922879999999992
0
LINE
8
BLACK
6
CONTINUOUS
10
113.1427070000000015
20
-75.7922879999999992
11
113.1713909999999998
21
-75.9364889999999946
0
LINE
8
BLACK
6
CONTINUOUS
10
113.1713909999999998
20
-75.9364889999999946
11
113.1713909999999998
21
-76.0835149999999913
0
LINE
8
BLACK
6
CONTINUOUS
10
113.1713909999999998
20
-76.0835149999999913
11
113.1427070000000015
21
-76.2277160000000009
0
LINE
8
BLACK
6
CONTINUOUS
10
113.1427070000000015
20
-76.2277160000000009
11
113.0998159999999899
21
-76.3312629999999928
0
LINE
8
BLACK
6
CONTINUOUS
10
113.0998159999999899
20
-76.3312629999999928
11
113.468679999999992
21
-76.7001279999999923
0
LINE
8
BLACK
6
CONTINUOUS
10
113.468679999999992
20
-76.7001279999999923
11
113.468679999999992
21
-76.7001269999999948
0
LINE
8
BLACK
6
CONTINUOUS
10
113.468679999999992
20
-76.7001269999999948
11
113.4940969999999965
21
-76.6651449999999954
0
LINE
8
BLACK
6
CONTINUOUS
10
113.4940969999999965
20
-76.6651449999999954
11
113.5834199999999896
21
-76.4898369999999943
0
LINE
8
BLACK
6
CONTINUOUS
10
113.5834199999999896
20
-76.4898369999999943
11
113.6442229999999967
21
-76.3027069999999981
0
LINE
8
BLACK
6
CONTINUOUS
10
113.6442229999999967
20
-76.3027069999999981
11
113.6750019999999921
21
-76.1083840000000009
0
LINE
8
BLACK
6
CONTINUOUS
10
113.6750019999999921
20
-76.1083840000000009
11
113.6750019999999921
21
-75.9116190000000017
0
LINE
8
BLACK
6
CONTINUOUS
10
113.6750019999999921
20
-75.9116190000000017
11
113.6442229999999967
21
-75.7172959999999904
0
LINE
8
BLACK
6
CONTINUOUS
10
113.6442229999999967
20
-75.7172959999999904
11
113.5834199999999896
21
-75.5301659999999941
0
LINE
8
BLACK
6
CONTINUOUS
10
113.5834199999999896
20
-75.5301659999999941
11
113.4977669999999961
21
-75.3620609999999971
0
LINE
8
BLACK
6
CONTINUOUS
10
113.4977669999999961
20
-75.3620609999999971
11
113.4848709999999983
21
-75.2933919999999972
0
LINE
8
BLACK
6
CONTINUOUS
10
113.4848709999999983
20
-75.2933919999999972
11
113.511146999999994
21
-75.2286509999999993
0
LINE
8
BLACK
6
CONTINUOUS
10
113.511146999999994
20
-75.2286509999999993
11
113.5263459999999895
21
-75.2138800000000032
0
LINE
8
BLACK
6
CONTINUOUS
10
113.5263459999999895
20
-75.2138800000000032
11
113.5262779999999907
21
-75.2138119999999901
0
LINE
8
BLACK
6
CONTINUOUS
10
113.5262779999999907
20
-75.2138119999999901
11
113.5325379999999882
21
-75.2075499999999977
0
LINE
8
BLACK
6
CONTINUOUS
10
113.5325379999999882
20
-75.2075499999999977
11
113.5325459999999964
21
-75.2075449999999961
0
LINE
8
BLACK
6
CONTINUOUS
10
113.5325459999999964
20
-75.2075449999999961
11
113.618795999999989
21
-75.0923299999999898
0
LINE
8
BLACK
6
CONTINUOUS
10
113.618795999999989
20
-75.0923299999999898
11
113.6690909999999946
21
-74.9574819999999988
0
LINE
8
BLACK
6
CONTINUOUS
10
113.6690909999999946
20
-74.9574819999999988
11
113.6754999999999995
21
-74.8978719999999925
0
LINE
8
BLACK
6
CONTINUOUS
10
113.6754999999999995
20
-74.8978719999999925
11
113.6754989999999879
21
-73.3021269999999987
0
LINE
8
BLACK
6
CONTINUOUS
10
113.6754989999999879
20
-73.3021269999999987
11
113.6690909999999946
21
-73.2425159999999948
0
LINE
8
BLACK
6
CONTINUOUS
10
113.6690909999999946
20
-73.2425159999999948
11
113.618795999999989
21
-73.1076679999999897
0
LINE
8
BLACK
6
CONTINUOUS
10
113.618795999999989
20
-73.1076679999999897
11
113.6187949999999915
21
-73.1076669999999922
0
LINE
8
BLACK
6
CONTINUOUS
10
113.6187949999999915
20
-73.1076669999999922
11
113.6187929999999966
21
-73.1076630000000023
0
LINE
8
BLACK
6
CONTINUOUS
10
113.6187929999999966
20
-73.1076630000000023
11
113.5325469999999939
21
-72.9924539999999951
0
LINE
8
BLACK
6
CONTINUOUS
10
113.5325469999999939
20
-72.9924539999999951
11
113.5325440000000015
21
-72.9924510000000026
0
LINE
8
BLACK
6
CONTINUOUS
10
113.5325440000000015
20
-72.9924510000000026
11
113.4173349999999942
21
-72.9062049999999999
0
LINE
8
BLACK
6
CONTINUOUS
10
113.4173349999999942
20
-72.9062049999999999
11
113.4173279999999977
21
-72.9062009999999958
0
LINE
8
BLACK
6
CONTINUOUS
10
113.4173279999999977
20
-72.9062009999999958
11
113.2824820000000017
21
-72.855907000000002
0
LINE
8
BLACK
6
CONTINUOUS
10
113.2824820000000017
20
-72.855907000000002
11
113.2824829999999992
21
-72.855907000000002
0
LINE
8
BLACK
6
CONTINUOUS
10
113.2824829999999992
20
-72.855907000000002
11
113.2228829999999959
21
-72.8494999999999919
0
LINE
8
BLACK
6
CONTINUOUS
10
113.2228829999999959
20
-72.8494999999999919
11
113.222881000000001
21
-72.8494989999999945
0
LINE
8
BLACK
6
CONTINUOUS
10
113.222881000000001
20
-72.8494989999999945
11
113.2228729999999928
21
-72.8494989999999945
0
LINE
8
BLACK
6
CONTINUOUS
10
113.2228729999999928
20
-72.8494989999999945
11
113.2228640000000013
21
-72.8494989999999945
0
LINE
8
BLACK
6
CONTINUOUS
10
113.2228640000000013
20
-72.8494989999999945
11
111.6271289999999965
21
-72.8494989999999945
0
LINE
8
BLACK
6
CONTINUOUS
10
111.6271289999999965
20
-72.8494989999999945
11
111.6271229999999974
21
-72.8494999999999919
0
LINE
8
BLACK
6
CONTINUOUS
10
111.6271229999999974
20
-72.8494999999999919
11
111.5675159999999977
21
-72.855907000000002
0
LINE
8
BLACK
6
CONTINUOUS
10
111.5675159999999977
20
-72.855907000000002
11
111.4326709999999991
21
-72.9062009999999958
0
LINE
8
BLACK
6
CONTINUOUS
10
111.4326709999999991
20
-72.9062009999999958
11
111.4326639999999884
21
-72.9062049999999999
0
LINE
8
BLACK
6
CONTINUOUS
10
111.4326639999999884
20
-72.9062049999999999
11
111.3174549999999954
21
-72.9924510000000026
0
LINE
8
BLACK
6
CONTINUOUS
10
111.3174549999999954
20
-72.9924510000000026
11
111.3174519999999887
21
-72.9924539999999951
0
LINE
8
BLACK
6
CONTINUOUS
10
111.3174519999999887
20
-72.9924539999999951
11
111.2312060000000002
21
-73.1076630000000023
0
LINE
8
BLACK
6
CONTINUOUS
10
111.2312060000000002
20
-73.1076630000000023
11
111.2312019999999961
21
-73.1076699999999988
0
LINE
8
BLACK
6
CONTINUOUS
10
111.2312019999999961
20
-73.1076699999999988
11
111.1809079999999881
21
-73.2425159999999948
0
LINE
8
BLACK
6
CONTINUOUS
10
111.1809079999999881
20
-73.2425159999999948
11
111.1745009999999922
21
-73.3021150000000006
0
LINE
8
BLACK
6
CONTINUOUS
10
111.1745009999999922
20
-73.3021150000000006
11
111.1745009999999922
21
-73.3021219999999971
0
LINE
8
BLACK
6
CONTINUOUS
10
111.1745009999999922
20
-73.3021219999999971
11
111.1744999999999948
21
-73.3021339999999952
0
LINE
8
BLACK
6
CONTINUOUS
10
111.1744999999999948
20
-73.3021339999999952
11
111.1744999999999948
21
-74.897869
0
LINE
8
BLACK
6
CONTINUOUS
10
108.75
20
-85.1310939999999903
11
108.7842199999999906
21
-85.3910089999999968
0
LINE
8
BLACK
6
CONTINUOUS
10
108.7842199999999906
20
-85.3910089999999968
11
108.7842219999999998
21
-85.3910199999999975
0
LINE
8
BLACK
6
CONTINUOUS
10
108.7842219999999998
20
-85.3910199999999975
11
108.8520749999999992
21
-85.6442550000000011
0
LINE
8
BLACK
6
CONTINUOUS
10
108.8520749999999992
20
-85.6442550000000011
11
108.9524040000000014
21
-85.8864710000000002
0
LINE
8
BLACK
6
CONTINUOUS
10
108.9524040000000014
20
-85.8864710000000002
11
108.9524089999999887
21
-85.8864820000000009
0
LINE
8
BLACK
6
CONTINUOUS
10
108.9524089999999887
20
-85.8864820000000009
11
109.0834879999999885
21
-86.11351599999999
0
LINE
8
BLACK
6
CONTINUOUS
10
109.0834879999999885
20
-86.11351599999999
11
109.0834940000000017
21
-86.1135239999999982
0
LINE
8
BLACK
6
CONTINUOUS
10
109.0834940000000017
20
-86.1135239999999982
11
109.1700799999999987
21
-86.2263650000000013
0
LINE
8
BLACK
6
CONTINUOUS
10
109.1700799999999987
20
-86.2263650000000013
11
109.5306499999999943
21
-85.865793999999994
0
LINE
8
BLACK
6
CONTINUOUS
10
109.5306499999999943
20
-85.865793999999994
11
109.4710400000000021
21
-85.7837480000000028
0
LINE
8
BLACK
6
CONTINUOUS
10
109.4710400000000021
20
-85.7837480000000028
11
109.3641810000000021
21
-85.5740249999999918
0
LINE
8
BLACK
6
CONTINUOUS
10
109.3641810000000021
20
-85.5740249999999918
11
109.291444999999996
21
-85.3501679999999965
0
LINE
8
BLACK
6
CONTINUOUS
10
109.291444999999996
20
-85.3501679999999965
11
109.2546239999999926
21
-85.1176889999999986
0
LINE
8
BLACK
6
CONTINUOUS
10
109.2546239999999926
20
-85.1176889999999986
11
109.2546239999999926
21
-84.8823110000000014
0
LINE
8
BLACK
6
CONTINUOUS
10
109.2546239999999926
20
-84.8823110000000014
11
109.291444999999996
21
-84.6498319999999893
0
LINE
8
BLACK
6
CONTINUOUS
10
109.291444999999996
20
-84.6498319999999893
11
109.3641810000000021
21
-84.425974999999994
0
LINE
8
BLACK
6
CONTINUOUS
10
109.3641810000000021
20
-84.425974999999994
11
109.4710400000000021
21
-84.2162519999999972
0
LINE
8
BLACK
6
CONTINUOUS
10
109.4710400000000021
20
-84.2162519999999972
11
109.5306509999999918
21
-84.1342039999999969
0
LINE
8
BLACK
6
CONTINUOUS
10
109.5306509999999918
20
-84.1342039999999969
11
109.1700799999999987
21
-83.7736329999999896
0
LINE
8
BLACK
6
CONTINUOUS
10
109.1700799999999987
20
-83.7736329999999896
11
109.1700790000000012
21
-83.7736329999999896
0
LINE
8
BLACK
6
CONTINUOUS
10
109.1700790000000012
20
-83.7736329999999896
11
109.0834959999999967
21
-83.8864710000000002
0
LINE
8
BLACK
6
CONTINUOUS
10
109.0834959999999967
20
-83.8864710000000002
11
108.9524089999999887
21
-84.1135170000000016
0
LINE
8
BLACK
6
CONTINUOUS
10
108.9524089999999887
20
-84.1135170000000016
11
108.9524040000000014
21
-84.1135280000000023
0
LINE
8
BLACK
6
CONTINUOUS
10
108.9524040000000014
20
-84.1135280000000023
11
108.8520749999999992
21
-84.3557440000000014
0
LINE
8
BLACK
6
CONTINUOUS
10
108.8520749999999992
20
-84.3557440000000014
11
108.7842219999999998
21
-84.6089789999999908
0
LINE
8
BLACK
6
CONTINUOUS
10
108.7842219999999998
20
-84.6089789999999908
11
108.7842199999999906
21
-84.6089899999999915
0
LINE
8
BLACK
6
CONTINUOUS
10
108.7842199999999906
20
-84.6089899999999915
11
108.75
21
-84.868904999999998
0
LINE
8
BLACK
6
CONTINUOUS
10
108.75
20
-84.868904999999998
11
108.75
21
-85.1310939999999903
0
LINE
8
BLACK
6
CONTINUOUS
10
124.5687659999999966
20
-61.6978219999999951
11
124.8420890000000014
21
-61.7602069999999941
0
LINE
8
BLACK
6
CONTINUOUS
10
124.8420890000000014
20
-61.7602069999999941
11
125.1067089999999951
21
-61.8528009999999995
0
LINE
8
BLACK
6
CONTINUOUS
10
125.1067089999999951
20
-61.8528009999999995
11
125.2825879999999898
21
-61.9375
0
LINE
8
BLACK
6
CONTINUOUS
10
125.2825879999999898
20
-61.9375
11
126.125
21
-61.9375
0
LINE
8
BLACK
6
CONTINUOUS
10
126.125
20
-61.9375
11
126.125
21
-62.6356909999999942
0
LINE
8
BLACK
6
CONTINUOUS
10
126.125
20
-62.6356909999999942
11
126.1889019999999988
21
-62.7158219999999957
0
LINE
8
BLACK
6
CONTINUOUS
10
126.1889019999999988
20
-62.7158219999999957
11
126.3380590000000012
21
-62.9532029999999949
0
LINE
8
BLACK
6
CONTINUOUS
10
126.3380590000000012
20
-62.9532029999999949
11
126.4596990000000005
21
-63.2057909999999978
0
LINE
8
BLACK
6
CONTINUOUS
10
126.4596990000000005
20
-63.2057909999999978
11
126.5522929999999917
21
-63.4704109999999986
0
LINE
8
BLACK
6
CONTINUOUS
10
126.5522929999999917
20
-63.4704109999999986
11
126.6146779999999978
21
-63.7437339999999963
0
LINE
8
BLACK
6
CONTINUOUS
10
126.6146779999999978
20
-63.7437339999999963
11
126.646066999999988
21
-64.0223239999999976
0
LINE
8
BLACK
6
CONTINUOUS
10
126.646066999999988
20
-64.0223239999999976
11
126.6499999999999915
21
-64.1624999999999943
0
LINE
8
BLACK
6
CONTINUOUS
10
126.6499999999999915
20
-64.1624999999999943
11
126.6499999999999915
21
-89.8374999999999915
0
LINE
8
BLACK
6
CONTINUOUS
10
126.6499999999999915
20
-89.8374999999999915
11
126.646066999999988
21
-89.9776760000000024
0
LINE
8
BLACK
6
CONTINUOUS
10
126.646066999999988
20
-89.9776760000000024
11
126.6146779999999978
21
-90.2562659999999966
0
LINE
8
BLACK
6
CONTINUOUS
10
126.6146779999999978
20
-90.2562659999999966
11
126.5725009999999884
21
-90.4410529999999966
0
LINE
8
BLACK
6
CONTINUOUS
10
126.5725009999999884
20
-90.4410529999999966
11
126.5522929999999917
21
-90.5295899999999989
0
LINE
8
BLACK
6
CONTINUOUS
10
126.5522929999999917
20
-90.5295899999999989
11
126.4943939999999998
21
-90.6950549999999964
0
LINE
8
BLACK
6
CONTINUOUS
10
126.4943939999999998
20
-90.6950549999999964
11
126.4596990000000005
21
-90.7942089999999951
0
LINE
8
BLACK
6
CONTINUOUS
10
126.4596990000000005
20
-90.7942089999999951
11
126.3380590000000012
21
-91.046796999999998
0
LINE
8
BLACK
6
CONTINUOUS
10
126.3380590000000012
20
-91.046796999999998
11
126.2959559999999897
21
-91.1138029999999901
0
LINE
8
BLACK
6
CONTINUOUS
10
126.2959559999999897
20
-91.1138029999999901
11
126.1889029999999963
21
-91.2841789999999946
0
LINE
8
BLACK
6
CONTINUOUS
10
126.1889029999999963
20
-91.2841789999999946
11
126.0141050000000007
21
-91.5033669999999972
0
LINE
8
BLACK
6
CONTINUOUS
10
126.0141050000000007
20
-91.5033669999999972
11
125.9177669999999978
21
-91.6052669999999978
0
LINE
8
BLACK
6
CONTINUOUS
10
125.9177669999999978
20
-91.6052669999999978
11
125.6677669999999978
21
-91.8552669999999978
0
LINE
8
BLACK
6
CONTINUOUS
10
125.6677669999999978
20
-91.8552669999999978
11
125.5658669999999972
21
-91.9516050000000007
0
LINE
8
BLACK
6
CONTINUOUS
10
125.5658669999999972
20
-91.9516050000000007
11
125.3466779999999972
21
-92.1264029999999963
0
LINE
8
BLACK
6
CONTINUOUS
10
125.3466779999999972
20
-92.1264029999999963
11
125.109296999999998
21
-92.2755579999999895
0
LINE
8
BLACK
6
CONTINUOUS
10
125.109296999999998
20
-92.2755579999999895
11
124.8567079999999976
21
-92.3971990000000005
0
LINE
8
BLACK
6
CONTINUOUS
10
124.8567079999999976
20
-92.3971990000000005
11
124.5920890000000014
21
-92.4897929999999917
0
LINE
8
BLACK
6
CONTINUOUS
10
124.5920890000000014
20
-92.4897929999999917
11
124.3187659999999966
21
-92.5521770000000004
0
LINE
8
BLACK
6
CONTINUOUS
10
124.3187659999999966
20
-92.5521770000000004
11
124.0401759999999882
21
-92.5835659999999905
0
LINE
8
BLACK
6
CONTINUOUS
10
124.0401759999999882
20
-92.5835659999999905
11
123.7598239999999947
21
-92.5835659999999905
0
LINE
8
BLACK
6
CONTINUOUS
10
123.7598239999999947
20
-92.5835659999999905
11
123.4812340000000006
21
-92.5521770000000004
0
LINE
8
BLACK
6
CONTINUOUS
10
123.4812340000000006
20
-92.5521770000000004
11
123.2079109999999957
21
-92.4897929999999917
0
LINE
8
BLACK
6
CONTINUOUS
10
123.2079109999999957
20
-92.4897929999999917
11
122.9432919999999996
21
-92.3971990000000005
0
LINE
8
BLACK
6
CONTINUOUS
10
122.9432919999999996
20
-92.3971990000000005
11
122.6907029999999992
21
-92.2755579999999895
0
LINE
8
BLACK
6
CONTINUOUS
10
122.6907029999999992
20
-92.2755579999999895
11
122.453322
21
-92.1264029999999963
0
LINE
8
BLACK
6
CONTINUOUS
10
122.453322
20
-92.1264029999999963
11
122.2341329999999999
21
-91.9516050000000007
0
LINE
8
BLACK
6
CONTINUOUS
10
122.2341329999999999
20
-91.9516050000000007
11
122.0358949999999965
21
-91.7533669999999972
0
LINE
8
BLACK
6
CONTINUOUS
10
122.0358949999999965
20
-91.7533669999999972
11
121.8610970000000009
21
-91.5341779999999972
0
LINE
8
BLACK
6
CONTINUOUS
10
121.8610970000000009
20
-91.5341779999999972
11
121.7119419999999934
21
-91.296796999999998
0
LINE
8
BLACK
6
CONTINUOUS
10
121.7119419999999934
20
-91.296796999999998
11
121.5903009999999966
21
-91.0442079999999976
0
LINE
8
BLACK
6
CONTINUOUS
10
121.5903009999999966
20
-91.0442079999999976
11
121.4977069999999912
21
-90.7795890000000014
0
LINE
8
BLACK
6
CONTINUOUS
10
121.4977069999999912
20
-90.7795890000000014
11
121.4538639999999958
21
-90.5874999999999915
0
LINE
8
BLACK
6
CONTINUOUS
10
121.4538639999999958
20
-90.5874999999999915
11
120.3696069999999878
21
-90.5874999999999915
0
LINE
8
BLACK
6
CONTINUOUS
10
120.3696069999999878
20
-90.5874999999999915
11
117.8535529999999909
21
-93.1035529999999909
0
LINE
8
BLACK
6
CONTINUOUS
10
117.8535529999999909
20
-93.1035529999999909
11
117.804395999999997
21
-93.1466609999999946
0
LINE
8
BLACK
6
CONTINUOUS
10
117.804395999999997
20
-93.1466609999999946
11
117.8043809999999922
21
-93.1466769999999968
0
LINE
8
BLACK
6
CONTINUOUS
10
117.8043809999999922
20
-93.1466769999999968
11
117.6913419999999917
21
-93.2119399999999985
0
LINE
8
BLACK
6
CONTINUOUS
10
117.6913419999999917
20
-93.2119399999999985
11
117.5652630000000016
21
-93.2457229999999981
0
LINE
8
BLACK
6
CONTINUOUS
10
117.5652630000000016
20
-93.2457229999999981
11
117.5652479999999969
21
-93.2457229999999981
0
LINE
8
BLACK
6
CONTINUOUS
10
117.5652479999999969
20
-93.2457229999999981
11
117.5
21
-93.25
0
LINE
8
BLACK
6
CONTINUOUS
10
117.5
20
-93.25
11
113.9571069999999935
21
-93.25
0
LINE
8
BLACK
6
CONTINUOUS
10
113.9571069999999935
20
-93.25
11
112.3504819999999995
21
-94.856622999999999
0
LINE
8
BLACK
6
CONTINUOUS
10
112.3504819999999995
20
-94.856622999999999
11
112.3858189999999979
21
-94.925974999999994
0
LINE
8
BLACK
6
CONTINUOUS
10
112.3858189999999979
20
-94.925974999999994
11
112.4585549999999898
21
-95.1498319999999893
0
LINE
8
BLACK
6
CONTINUOUS
10
112.4585549999999898
20
-95.1498319999999893
11
112.4953759999999932
21
-95.3823110000000014
0
LINE
8
BLACK
6
CONTINUOUS
10
112.4953759999999932
20
-95.3823110000000014
11
112.4953759999999932
21
-95.6176889999999986
0
LINE
8
BLACK
6
CONTINUOUS
10
112.4953759999999932
20
-95.6176889999999986
11
112.4585549999999898
21
-95.8501679999999965
0
LINE
8
BLACK
6
CONTINUOUS
10
112.4585549999999898
20
-95.8501679999999965
11
112.3858189999999979
21
-96.0740249999999918
0
LINE
8
BLACK
6
CONTINUOUS
10
112.3858189999999979
20
-96.0740249999999918
11
112.2789599999999979
21
-96.2837479999999886
0
LINE
8
BLACK
6
CONTINUOUS
10
112.2789599999999979
20
-96.2837479999999886
11
112.1406089999999978
21
-96.4741719999999958
0
LINE
8
BLACK
6
CONTINUOUS
10
112.1406089999999978
20
-96.4741719999999958
11
111.9741719999999958
21
-96.6406089999999978
0
LINE
8
BLACK
6
CONTINUOUS
10
111.9741719999999958
20
-96.6406089999999978
11
111.7837479999999886
21
-96.7789599999999979
0
LINE
8
BLACK
6
CONTINUOUS
10
111.7837479999999886
20
-96.7789599999999979
11
111.5740249999999918
21
-96.8858189999999979
0
LINE
8
BLACK
6
CONTINUOUS
10
111.5740249999999918
20
-96.8858189999999979
11
111.3501679999999965
21
-96.9585549999999898
0
LINE
8
BLACK
6
CONTINUOUS
10
111.3501679999999965
20
-96.9585549999999898
11
111.1176889999999986
21
-96.9953759999999932
0
LINE
8
BLACK
6
CONTINUOUS
10
111.1176889999999986
20
-96.9953759999999932
11
110.8823110000000014
21
-96.9953759999999932
0
LINE
8
BLACK
6
CONTINUOUS
10
110.8823110000000014
20
-96.9953759999999932
11
110.6498319999999893
21
-96.9585549999999898
0
LINE
8
BLACK
6
CONTINUOUS
10
110.6498319999999893
20
-96.9585549999999898
11
110.425974999999994
21
-96.8858189999999979
0
LINE
8
BLACK
6
CONTINUOUS
10
110.425974999999994
20
-96.8858189999999979
11
110.2162519999999972
21
-96.7789599999999979
0
LINE
8
BLACK
6
CONTINUOUS
10
110.2162519999999972
20
-96.7789599999999979
11
110.02582799999999
21
-96.6406089999999978
0
LINE
8
BLACK
6
CONTINUOUS
10
110.02582799999999
20
-96.6406089999999978
11
109.859390999999988
21
-96.4741719999999958
0
LINE
8
BLACK
6
CONTINUOUS
10
109.859390999999988
20
-96.4741719999999958
11
109.7210400000000021
21
-96.2837479999999886
0
LINE
8
BLACK
6
CONTINUOUS
10
109.7210400000000021
20
-96.2837479999999886
11
109.6141810000000021
21
-96.0740249999999918
0
LINE
8
BLACK
6
CONTINUOUS
10
109.6141810000000021
20
-96.0740249999999918
11
109.541444999999996
21
-95.8501679999999965
0
LINE
8
BLACK
6
CONTINUOUS
10
109.541444999999996
20
-95.8501679999999965
11
109.5046239999999926
21
-95.6176889999999986
0
LINE
8
BLACK
6
CONTINUOUS
10
109.5046239999999926
20
-95.6176889999999986
11
109.5046239999999926
21
-95.3823110000000014
0
LINE
8
BLACK
6
CONTINUOUS
10
109.5046239999999926
20
-95.3823110000000014
11
109.541444999999996
21
-95.1498319999999893
0
LINE
8
BLACK
6
CONTINUOUS
10
109.541444999999996
20
-95.1498319999999893
11
109.6141810000000021
21
-94.925974999999994
0
LINE
8
BLACK
6
CONTINUOUS
10
109.6141810000000021
20
-94.925974999999994
11
109.7210400000000021
21
-94.7162519999999972
0
LINE
8
BLACK
6
CONTINUOUS
10
109.7210400000000021
20
-94.7162519999999972
11
109.859390999999988
21
-94.52582799999999
0
LINE
8
BLACK
6
CONTINUOUS
10
109.859390999999988
20
-94.52582799999999
11
110.02582799999999
21
-94.3593910000000022
0
LINE
8
BLACK
6
CONTINUOUS
10
110.02582799999999
20
-94.3593910000000022
11
110.2162519999999972
21
-94.2210400000000021
0
LINE
8
BLACK
6
CONTINUOUS
10
110.2162519999999972
20
-94.2210400000000021
11
110.425974999999994
21
-94.1141810000000021
0
LINE
8
BLACK
6
CONTINUOUS
10
110.425974999999994
20
-94.1141810000000021
11
110.6498319999999893
21
-94.041444999999996
0
LINE
8
BLACK
6
CONTINUOUS
10
110.6498319999999893
20
-94.041444999999996
11
110.8823110000000014
21
-94.0046239999999926
0
LINE
8
BLACK
6
CONTINUOUS
10
110.8823110000000014
20
-94.0046239999999926
11
111.1176889999999986
21
-94.0046239999999926
0
LINE
8
BLACK
6
CONTINUOUS
10
111.1176889999999986
20
-94.0046239999999926
11
111.3501679999999965
21
-94.041444999999996
0
LINE
8
BLACK
6
CONTINUOUS
10
111.3501679999999965
20
-94.041444999999996
11
111.5740249999999918
21
-94.1141810000000021
0
LINE
8
BLACK
6
CONTINUOUS
10
111.5740249999999918
20
-94.1141810000000021
11
111.6433759999999893
21
-94.1495169999999888
0
LINE
8
BLACK
6
CONTINUOUS
10
111.6433759999999893
20
-94.1495169999999888
11
113.3964459999999974
21
-92.3964469999999949
0
LINE
8
BLACK
6
CONTINUOUS
10
113.3964459999999974
20
-92.3964469999999949
11
113.4456099999999878
21
-92.3533309999999972
0
LINE
8
BLACK
6
CONTINUOUS
10
113.4456099999999878
20
-92.3533309999999972
11
113.4456189999999935
21
-92.353322999999989
0
LINE
8
BLACK
6
CONTINUOUS
10
113.4456189999999935
20
-92.353322999999989
11
113.5586579999999941
21
-92.2880600000000015
0
LINE
8
BLACK
6
CONTINUOUS
10
113.5586579999999941
20
-92.2880600000000015
11
113.6847369999999984
21
-92.2542770000000019
0
LINE
8
BLACK
6
CONTINUOUS
10
113.6847369999999984
20
-92.2542770000000019
11
113.6847519999999889
21
-92.2542770000000019
0
LINE
8
BLACK
6
CONTINUOUS
10
113.6847519999999889
20
-92.2542770000000019
11
113.75
21
-92.25
0
LINE
8
BLACK
6
CONTINUOUS
10
113.75
20
-92.25
11
117.2928939999999898
21
-92.25
0
LINE
8
BLACK
6
CONTINUOUS
10
117.2928939999999898
20
-92.25
11
119.8089469999999892
21
-89.7339459999999889
0
LINE
8
BLACK
6
CONTINUOUS
10
119.8089469999999892
20
-89.7339459999999889
11
119.8581109999999939
21
-89.6908299999999912
0
LINE
8
BLACK
6
CONTINUOUS
10
119.8581109999999939
20
-89.6908299999999912
11
119.8581189999999879
21
-89.6908229999999946
0
LINE
8
BLACK
6
CONTINUOUS
10
119.8581189999999879
20
-89.6908229999999946
11
119.9711579999999884
21
-89.625559999999993
0
LINE
8
BLACK
6
CONTINUOUS
10
119.9711579999999884
20
-89.625559999999993
11
119.9978009999999955
21
-89.6184200000000004
0
LINE
8
BLACK
6
CONTINUOUS
10
119.9978009999999955
20
-89.6184200000000004
11
120.0972369999999927
21
-89.5917769999999933
0
LINE
8
BLACK
6
CONTINUOUS
10
120.0972369999999927
20
-89.5917769999999933
11
120.0972519999999975
21
-89.5917769999999933
0
LINE
8
BLACK
6
CONTINUOUS
10
120.0972519999999975
20
-89.5917769999999933
11
120.1624999999999943
21
-89.5874999999999915
0
LINE
8
BLACK
6
CONTINUOUS
10
120.1624999999999943
20
-89.5874999999999915
11
121.4538639999999958
21
-89.5874999999999915
0
LINE
8
BLACK
6
CONTINUOUS
10
121.4538639999999958
20
-89.5874999999999915
11
121.4977069999999912
21
-89.3954109999999957
0
LINE
8
BLACK
6
CONTINUOUS
10
121.4977069999999912
20
-89.3954109999999957
11
121.5903009999999966
21
-89.1307919999999996
0
LINE
8
BLACK
6
CONTINUOUS
10
121.5903009999999966
20
-89.1307919999999996
11
121.6499999999999915
21
-89.0068259999999896
0
LINE
8
BLACK
6
CONTINUOUS
10
121.6499999999999915
20
-89.0068259999999896
11
121.6499999999999915
21
-88.5446060000000017
0
LINE
8
BLACK
6
CONTINUOUS
10
121.6499999999999915
20
-88.5446060000000017
11
118.3553939999999898
21
-85.25
0
LINE
8
BLACK
6
CONTINUOUS
10
118.3553939999999898
20
-85.25
11
116.724419999999995
21
-85.25
0
LINE
8
BLACK
6
CONTINUOUS
10
116.724419999999995
20
-85.25
11
116.7085549999999898
21
-85.3501679999999965
0
LINE
8
BLACK
6
CONTINUOUS
10
116.7085549999999898
20
-85.3501679999999965
11
116.6358189999999979
21
-85.5740249999999918
0
LINE
8
BLACK
6
CONTINUOUS
10
116.6358189999999979
20
-85.5740249999999918
11
116.5289599999999979
21
-85.7837480000000028
0
LINE
8
BLACK
6
CONTINUOUS
10
116.5289599999999979
20
-85.7837480000000028
11
116.3906089999999978
21
-85.9741719999999958
0
LINE
8
BLACK
6
CONTINUOUS
10
116.3906089999999978
20
-85.9741719999999958
11
116.2241719999999958
21
-86.1406089999999978
0
LINE
8
BLACK
6
CONTINUOUS
10
116.2241719999999958
20
-86.1406089999999978
11
116.0337479999999886
21
-86.2789599999999979
0
LINE
8
BLACK
6
CONTINUOUS
10
116.0337479999999886
20
-86.2789599999999979
11
115.8240249999999918
21
-86.3858189999999979
0
LINE
8
BLACK
6
CONTINUOUS
10
115.8240249999999918
20
-86.3858189999999979
11
115.6001679999999965
21
-86.4585549999999898
0
LINE
8
BLACK
6
CONTINUOUS
10
115.6001679999999965
20
-86.4585549999999898
11
115.3676889999999986
21
-86.4953759999999932
0
LINE
8
BLACK
6
CONTINUOUS
10
115.3676889999999986
20
-86.4953759999999932
11
115.1323110000000014
21
-86.4953759999999932
0
LINE
8
BLACK
6
CONTINUOUS
10
115.1323110000000014
20
-86.4953759999999932
11
114.8998319999999893
21
-86.4585549999999898
0
LINE
8
BLACK
6
CONTINUOUS
10
114.8998319999999893
20
-86.4585549999999898
11
114.675974999999994
21
-86.3858189999999979
0
LINE
8
BLACK
6
CONTINUOUS
10
114.675974999999994
20
-86.3858189999999979
11
114.4662519999999972
21
-86.2789599999999979
0
LINE
8
BLACK
6
CONTINUOUS
10
114.4662519999999972
20
-86.2789599999999979
11
114.27582799999999
21
-86.1406089999999978
0
LINE
8
BLACK
6
CONTINUOUS
10
114.27582799999999
20
-86.1406089999999978
11
114.109390999999988
21
-85.9741719999999958
0
LINE
8
BLACK
6
CONTINUOUS
10
114.109390999999988
20
-85.9741719999999958
11
113.9710399999999879
21
-85.7837480000000028
0
LINE
8
BLACK
6
CONTINUOUS
10
113.9710399999999879
20
-85.7837480000000028
11
113.8641809999999879
21
-85.5740249999999918
0
LINE
8
BLACK
6
CONTINUOUS
10
113.8641809999999879
20
-85.5740249999999918
11
113.791444999999996
21
-85.3501679999999965
0
LINE
8
BLACK
6
CONTINUOUS
10
113.791444999999996
20
-85.3501679999999965
11
113.7546239999999926
21
-85.1176889999999986
0
LINE
8
BLACK
6
CONTINUOUS
10
113.7546239999999926
20
-85.1176889999999986
11
113.7546239999999926
21
-84.8823110000000014
0
LINE
8
BLACK
6
CONTINUOUS
10
113.7546239999999926
20
-84.8823110000000014
11
113.791444999999996
21
-84.6498319999999893
0
LINE
8
BLACK
6
CONTINUOUS
10
113.791444999999996
20
-84.6498319999999893
11
113.8641809999999879
21
-84.425974999999994
0
LINE
8
BLACK
6
CONTINUOUS
10
113.8641809999999879
20
-84.425974999999994
11
113.9710399999999879
21
-84.2162519999999972
0
LINE
8
BLACK
6
CONTINUOUS
10
113.9710399999999879
20
-84.2162519999999972
11
114.109390999999988
21
-84.02582799999999
0
LINE
8
BLACK
6
CONTINUOUS
10
114.109390999999988
20
-84.02582799999999
11
114.27582799999999
21
-83.8593910000000022
0
LINE
8
BLACK
6
CONTINUOUS
10
114.27582799999999
20
-83.8593910000000022
11
114.4662519999999972
21
-83.7210400000000021
0
LINE
8
BLACK
6
CONTINUOUS
10
114.4662519999999972
20
-83.7210400000000021
11
114.675974999999994
21
-83.6141810000000021
0
LINE
8
BLACK
6
CONTINUOUS
10
114.675974999999994
20
-83.6141810000000021
11
114.8998319999999893
21
-83.541444999999996
0
LINE
8
BLACK
6
CONTINUOUS
10
114.8998319999999893
20
-83.541444999999996
11
115.1323110000000014
21
-83.5046239999999926
0
LINE
8
BLACK
6
CONTINUOUS
10
115.1323110000000014
20
-83.5046239999999926
11
115.3676889999999986
21
-83.5046239999999926
0
LINE
8
BLACK
6
CONTINUOUS
10
115.3676889999999986
20
-83.5046239999999926
11
115.6001679999999965
21
-83.541444999999996
0
LINE
8
BLACK
6
CONTINUOUS
10
115.6001679999999965
20
-83.541444999999996
11
115.8240249999999918
21
-83.6141810000000021
0
LINE
8
BLACK
6
CONTINUOUS
10
115.8240249999999918
20
-83.6141810000000021
11
116.0337479999999886
21
-83.7210400000000021
0
LINE
8
BLACK
6
CONTINUOUS
10
116.0337479999999886
20
-83.7210400000000021
11
116.2241719999999958
21
-83.8593910000000022
0
LINE
8
BLACK
6
CONTINUOUS
10
116.2241719999999958
20
-83.8593910000000022
11
116.3906089999999978
21
-84.02582799999999
0
LINE
8
BLACK
6
CONTINUOUS
10
116.3906089999999978
20
-84.02582799999999
11
116.5289599999999979
21
-84.2162519999999972
0
LINE
8
BLACK
6
CONTINUOUS
10
116.5289599999999979
20
-84.2162519999999972
11
116.5461549999999988
21
-84.25
0
LINE
8
BLACK
6
CONTINUOUS
10
116.5461549999999988
20
-84.25
11
118.5625
21
-84.25
0
LINE
8
BLACK
6
CONTINUOUS
10
118.5625
20
-84.25
11
118.6277479999999969
21
-84.2542770000000019
0
LINE
8
BLACK
6
CONTINUOUS
10
118.6277479999999969
20
-84.2542770000000019
11
118.6277630000000016
21
-84.2542770000000019
0
LINE
8
BLACK
6
CONTINUOUS
10
118.6277630000000016
20
-84.2542770000000019
11
118.7538419999999917
21
-84.2880600000000015
0
LINE
8
BLACK
6
CONTINUOUS
10
118.7538419999999917
20
-84.2880600000000015
11
118.8668809999999922
21
-84.3533230000000032
0
LINE
8
BLACK
6
CONTINUOUS
10
118.8668809999999922
20
-84.3533230000000032
11
118.866895999999997
21
-84.3533379999999937
0
LINE
8
BLACK
6
CONTINUOUS
10
118.866895999999997
20
-84.3533379999999937
11
118.9160529999999909
21
-84.3964469999999949
0
LINE
8
BLACK
6
CONTINUOUS
10
118.9160529999999909
20
-84.3964469999999949
11
121.6499999999999915
21
-87.1303939999999955
0
LINE
8
BLACK
6
CONTINUOUS
10
121.6499999999999915
20
-87.1303939999999955
11
121.6499999999999915
21
-64.1624999999999943
0
LINE
8
BLACK
6
CONTINUOUS
10
121.6499999999999915
20
-64.1624999999999943
11
121.653932999999995
21
-64.0223239999999976
0
LINE
8
BLACK
6
CONTINUOUS
10
121.653932999999995
20
-64.0223239999999976
11
121.6853219999999993
21
-63.7437339999999963
0
LINE
8
BLACK
6
CONTINUOUS
10
121.6853219999999993
20
-63.7437339999999963
11
121.7477069999999912
21
-63.4704109999999986
0
LINE
8
BLACK
6
CONTINUOUS
10
121.7477069999999912
20
-63.4704109999999986
11
121.8403009999999966
21
-63.2057909999999978
0
LINE
8
BLACK
6
CONTINUOUS
10
121.8403009999999966
20
-63.2057909999999978
11
121.9619409999999959
21
-62.9532029999999949
0
LINE
8
BLACK
6
CONTINUOUS
10
121.9619409999999959
20
-62.9532029999999949
11
122.0749999999999886
21
-62.773270999999994
0
LINE
8
BLACK
6
CONTINUOUS
10
122.0749999999999886
20
-62.773270999999994
11
122.0749999999999886
21
-61.9375
0
LINE
8
BLACK
6
CONTINUOUS
10
122.0749999999999886
20
-61.9375
11
123.0174119999999931
21
-61.9375
0
LINE
8
BLACK
6
CONTINUOUS
10
123.0174119999999931
20
-61.9375
11
123.1932909999999879
21
-61.8528009999999995
0
LINE
8
BLACK
6
CONTINUOUS
10
123.1932909999999879
20
-61.8528009999999995
11
123.4579109999999957
21
-61.7602069999999941
0
LINE
8
BLACK
6
CONTINUOUS
10
123.4579109999999957
20
-61.7602069999999941
11
123.7312340000000006
21
-61.6978219999999951
0
LINE
8
BLACK
6
CONTINUOUS
10
123.7312340000000006
20
-61.6978219999999951
11
124.0098239999999947
21
-61.6664329999999978
0
LINE
8
BLACK
6
CONTINUOUS
10
124.0098239999999947
20
-61.6664329999999978
11
124.2901759999999882
21
-61.6664329999999978
0
LINE
8
BLACK
6
CONTINUOUS
10
124.2901759999999882
20
-61.6664329999999978
11
124.5687659999999966
21
-61.6978219999999951
0
LINE
8
BLACK
6
CONTINUOUS
10
126.3052129999999948
20
-92.7822939999999932
11
126.4410469999999975
21
-92.8385589999999894
0
LINE
8
BLACK
6
CONTINUOUS
10
126.4410469999999975
20
-92.8385589999999894
11
126.5632949999999965
21
-92.9202420000000018
0
LINE
8
BLACK
6
CONTINUOUS
10
126.5632949999999965
20
-92.9202420000000018
11
126.6178299999999979
21
-92.9696699999999936
0
LINE
8
BLACK
6
CONTINUOUS
10
126.6178299999999979
20
-92.9696699999999936
11
126.8678299999999979
21
-93.2196699999999936
0
LINE
8
BLACK
6
CONTINUOUS
10
126.8678299999999979
20
-93.2196699999999936
11
126.9172579999999897
21
-93.2742049999999949
0
LINE
8
BLACK
6
CONTINUOUS
10
126.9172579999999897
20
-93.2742049999999949
11
126.9989409999999879
21
-93.3964529999999939
0
LINE
8
BLACK
6
CONTINUOUS
10
126.9989409999999879
20
-93.3964529999999939
11
127.0552050000000008
21
-93.5322859999999991
0
LINE
8
BLACK
6
CONTINUOUS
10
127.0552050000000008
20
-93.5322859999999991
11
127.0838879999999875
21
-93.6764869999999945
0
LINE
8
BLACK
6
CONTINUOUS
10
127.0838879999999875
20
-93.6764869999999945
11
127.0838879999999875
21
-93.8235129999999913
0
LINE
8
BLACK
6
CONTINUOUS
10
127.0838879999999875
20
-93.8235129999999913
11
127.0552050000000008
21
-93.9677129999999892
0
LINE
8
BLACK
6
CONTINUOUS
10
127.0552050000000008
20
-93.9677129999999892
11
126.9989409999999879
21
-94.1035469999999918
0
LINE
8
BLACK
6
CONTINUOUS
10
126.9989409999999879
20
-94.1035469999999918
11
126.9172579999999897
21
-94.2257949999999909
0
LINE
8
BLACK
6
CONTINUOUS
10
126.9172579999999897
20
-94.2257949999999909
11
126.8132949999999965
21
-94.3297579999999982
0
LINE
8
BLACK
6
CONTINUOUS
10
126.8132949999999965
20
-94.3297579999999982
11
126.6910469999999975
21
-94.4114409999999964
0
LINE
8
BLACK
6
CONTINUOUS
10
126.6910469999999975
20
-94.4114409999999964
11
126.5552129999999948
21
-94.4677049999999952
0
LINE
8
BLACK
6
CONTINUOUS
10
126.5552129999999948
20
-94.4677049999999952
11
126.411012999999997
21
-94.4963879999999961
0
LINE
8
BLACK
6
CONTINUOUS
10
126.411012999999997
20
-94.4963879999999961
11
126.2639870000000002
21
-94.4963879999999961
0
LINE
8
BLACK
6
CONTINUOUS
10
126.2639870000000002
20
-94.4963879999999961
11
126.1197859999999906
21
-94.4677049999999952
0
LINE
8
BLACK
6
CONTINUOUS
10
126.1197859999999906
20
-94.4677049999999952
11
125.9839529999999996
21
-94.4114409999999964
0
LINE
8
BLACK
6
CONTINUOUS
10
125.9839529999999996
20
-94.4114409999999964
11
125.8617050000000006
21
-94.3297579999999982
0
LINE
8
BLACK
6
CONTINUOUS
10
125.8617050000000006
20
-94.3297579999999982
11
125.8071699999999993
21
-94.2803299999999922
0
LINE
8
BLACK
6
CONTINUOUS
10
125.8071699999999993
20
-94.2803299999999922
11
125.5571699999999993
21
-94.0303299999999922
0
LINE
8
BLACK
6
CONTINUOUS
10
125.5571699999999993
20
-94.0303299999999922
11
125.529679999999999
21
-94.
0
LINE
8
BLACK
6
CONTINUOUS
10
125.529679999999999
20
-94.
11
119.707105999999996
21
-94.
0
LINE
8
BLACK
6
CONTINUOUS
10
119.707105999999996
20
-94.
11
117.8535529999999909
21
-95.8535529999999909
0
LINE
8
BLACK
6
CONTINUOUS
10
117.8535529999999909
20
-95.8535529999999909
11
117.804395999999997
21
-95.8966609999999946
0
LINE
8
BLACK
6
CONTINUOUS
10
117.804395999999997
20
-95.8966609999999946
11
117.8043809999999922
21
-95.8966769999999968
0
LINE
8
BLACK
6
CONTINUOUS
10
117.8043809999999922
20
-95.8966769999999968
11
117.6913419999999917
21
-95.9619399999999985
0
LINE
8
BLACK
6
CONTINUOUS
10
117.6913419999999917
20
-95.9619399999999985
11
117.5652630000000016
21
-95.9957229999999981
0
LINE
8
BLACK
6
CONTINUOUS
10
117.5652630000000016
20
-95.9957229999999981
11
117.5652479999999969
21
-95.9957229999999981
0
LINE
8
BLACK
6
CONTINUOUS
10
117.5652479999999969
20
-95.9957229999999981
11
117.5
21
-96.
0
LINE
8
BLACK
6
CONTINUOUS
10
117.5
20
-96.
11
116.6598709999999954
21
-96.
0
LINE
8
BLACK
6
CONTINUOUS
10
116.6598709999999954
20
-96.
11
116.6358189999999979
21
-96.0740249999999918
0
LINE
8
BLACK
6
CONTINUOUS
10
116.6358189999999979
20
-96.0740249999999918
11
116.5289599999999979
21
-96.2837479999999886
0
LINE
8
BLACK
6
CONTINUOUS
10
116.5289599999999979
20
-96.2837479999999886
11
116.3906089999999978
21
-96.4741719999999958
0
LINE
8
BLACK
6
CONTINUOUS
10
116.3906089999999978
20
-96.4741719999999958
11
116.2241719999999958
21
-96.6406089999999978
0
LINE
8
BLACK
6
CONTINUOUS
10
116.2241719999999958
20
-96.6406089999999978
11
116.0337479999999886
21
-96.7789599999999979
0
LINE
8
BLACK
6
CONTINUOUS
10
116.0337479999999886
20
-96.7789599999999979
11
115.8240249999999918
21
-96.8858189999999979
0
LINE
8
BLACK
6
CONTINUOUS
10
115.8240249999999918
20
-96.8858189999999979
11
115.6001679999999965
21
-96.9585549999999898
0
LINE
8
BLACK
6
CONTINUOUS
10
115.6001679999999965
20
-96.9585549999999898
11
115.3676889999999986
21
-96.9953759999999932
0
LINE
8
BLACK
6
CONTINUOUS
10
115.3676889999999986
20
-96.9953759999999932
11
115.1323110000000014
21
-96.9953759999999932
0
LINE
8
BLACK
6
CONTINUOUS
10
115.1323110000000014
20
-96.9953759999999932
11
114.8998319999999893
21
-96.9585549999999898
0
LINE
8
BLACK
6
CONTINUOUS
10
114.8998319999999893
20
-96.9585549999999898
11
114.675974999999994
21
-96.8858189999999979
0
LINE
8
BLACK
6
CONTINUOUS
10
114.675974999999994
20
-96.8858189999999979
11
114.4662519999999972
21
-96.7789599999999979
0
LINE
8
BLACK
6
CONTINUOUS
10
114.4662519999999972
20
-96.7789599999999979
11
114.27582799999999
21
-96.6406089999999978
0
LINE
8
BLACK
6
CONTINUOUS
10
114.27582799999999
20
-96.6406089999999978
11
114.109390999999988
21
-96.4741719999999958
0
LINE
8
BLACK
6
CONTINUOUS
10
114.109390999999988
20
-96.4741719999999958
11
113.9710399999999879
21
-96.2837479999999886
0
LINE
8
BLACK
6
CONTINUOUS
10
113.9710399999999879
20
-96.2837479999999886
11
113.8641809999999879
21
-96.0740249999999918
0
LINE
8
BLACK
6
CONTINUOUS
10
113.8641809999999879
20
-96.0740249999999918
11
113.791444999999996
21
-95.8501679999999965
0
LINE
8
BLACK
6
CONTINUOUS
10
113.791444999999996
20
-95.8501679999999965
11
113.7546239999999926
21
-95.6176889999999986
0
LINE
8
BLACK
6
CONTINUOUS
10
113.7546239999999926
20
-95.6176889999999986
11
113.7546239999999926
21
-95.3823110000000014
0
LINE
8
BLACK
6
CONTINUOUS
10
113.7546239999999926
20
-95.3823110000000014
11
113.791444999999996
21
-95.1498319999999893
0
LINE
8
BLACK
6
CONTINUOUS
10
113.791444999999996
20
-95.1498319999999893
11
113.8641809999999879
21
-94.925974999999994
0
LINE
8
BLACK
6
CONTINUOUS
10
113.8641809999999879
20
-94.925974999999994
11
113.9710399999999879
21
-94.7162519999999972
0
LINE
8
BLACK
6
CONTINUOUS
10
113.9710399999999879
20
-94.7162519999999972
11
114.109390999999988
21
-94.52582799999999
0
LINE
8
BLACK
6
CONTINUOUS
10
114.109390999999988
20
-94.52582799999999
11
114.27582799999999
21
-94.3593910000000022
0
LINE
8
BLACK
6
CONTINUOUS
10
114.27582799999999
20
-94.3593910000000022
11
114.4662519999999972
21
-94.2210400000000021
0
LINE
8
BLACK
6
CONTINUOUS
10
114.4662519999999972
20
-94.2210400000000021
11
114.675974999999994
21
-94.1141810000000021
0
LINE
8
BLACK
6
CONTINUOUS
10
114.675974999999994
20
-94.1141810000000021
11
114.8998319999999893
21
-94.041444999999996
0
LINE
8
BLACK
6
CONTINUOUS
10
114.8998319999999893
20
-94.041444999999996
11
115.1323110000000014
21
-94.0046239999999926
0
LINE
8
BLACK
6
CONTINUOUS
10
115.1323110000000014
20
-94.0046239999999926
11
115.3676889999999986
21
-94.0046239999999926
0
LINE
8
BLACK
6
CONTINUOUS
10
115.3676889999999986
20
-94.0046239999999926
11
115.6001679999999965
21
-94.041444999999996
0
LINE
8
BLACK
6
CONTINUOUS
10
115.6001679999999965
20
-94.041444999999996
11
115.8240249999999918
21
-94.1141810000000021
0
LINE
8
BLACK
6
CONTINUOUS
10
115.8240249999999918
20
-94.1141810000000021
11
116.0337479999999886
21
-94.2210400000000021
0
LINE
8
BLACK
6
CONTINUOUS
10
116.0337479999999886
20
-94.2210400000000021
11
116.2241719999999958
21
-94.3593910000000022
0
LINE
8
BLACK
6
CONTINUOUS
10
116.2241719999999958
20
-94.3593910000000022
11
116.3906089999999978
21
-94.52582799999999
0
LINE
8
BLACK
6
CONTINUOUS
10
116.3906089999999978
20
-94.52582799999999
11
116.5289599999999979
21
-94.7162519999999972
0
LINE
8
BLACK
6
CONTINUOUS
10
116.5289599999999979
20
-94.7162519999999972
11
116.6358189999999979
21
-94.925974999999994
0
LINE
8
BLACK
6
CONTINUOUS
10
116.6358189999999979
20
-94.925974999999994
11
116.6598709999999954
21
-95.
0
LINE
8
BLACK
6
CONTINUOUS
10
116.6598709999999954
20
-95.
11
117.2928939999999898
21
-95.
0
LINE
8
BLACK
6
CONTINUOUS
10
117.2928939999999898
20
-95.
11
119.1464469999999949
21
-93.1464469999999949
0
LINE
8
BLACK
6
CONTINUOUS
10
119.1464469999999949
20
-93.1464469999999949
11
119.1956099999999878
21
-93.1033309999999972
0
LINE
8
BLACK
6
CONTINUOUS
10
119.1956099999999878
20
-93.1033309999999972
11
119.1956189999999935
21
-93.103322999999989
0
LINE
8
BLACK
6
CONTINUOUS
10
119.1956189999999935
20
-93.103322999999989
11
119.3086579999999941
21
-93.0380600000000015
0
LINE
8
BLACK
6
CONTINUOUS
10
119.3086579999999941
20
-93.0380600000000015
11
119.4347369999999984
21
-93.0042770000000019
0
LINE
8
BLACK
6
CONTINUOUS
10
119.4347369999999984
20
-93.0042770000000019
11
119.4347519999999889
21
-93.0042770000000019
0
LINE
8
BLACK
6
CONTINUOUS
10
119.4347519999999889
20
-93.0042770000000019
11
119.5
21
-93.
0
LINE
8
BLACK
6
CONTINUOUS
10
119.5
20
-93.
11
125.5319469999999882
21
-93.
0
LINE
8
BLACK
6
CONTINUOUS
10
125.5319469999999882
20
-93.
11
125.6117050000000006
21
-92.9202420000000018
0
LINE
8
BLACK
6
CONTINUOUS
10
125.6117050000000006
20
-92.9202420000000018
11
125.7339529999999996
21
-92.8385589999999894
0
LINE
8
BLACK
6
CONTINUOUS
10
125.7339529999999996
20
-92.8385589999999894
11
125.8697869999999881
21
-92.7822939999999932
0
LINE
8
BLACK
6
CONTINUOUS
10
125.8697869999999881
20
-92.7822939999999932
11
126.0139870000000002
21
-92.7536109999999923
0
LINE
8
BLACK
6
CONTINUOUS
10
126.0139870000000002
20
-92.7536109999999923
11
126.161012999999997
21
-92.7536109999999923
0
LINE
8
BLACK
6
CONTINUOUS
10
126.161012999999997
20
-92.7536109999999923
11
126.3052129999999948
21
-92.7822939999999932
0
LINE
8
BLACK
6
CONTINUOUS
10
134.3275189999999952
20
-76.5523840000000035
11
134.6555070000000001
21
-76.6272450000000021
0
LINE
8
BLACK
6
CONTINUOUS
10
134.6555070000000001
20
-76.6272450000000021
11
134.9730500000000006
21
-76.738357999999991
0
LINE
8
BLACK
6
CONTINUOUS
10
134.9730500000000006
20
-76.738357999999991
11
135.2761569999999836
21
-76.884326999999999
0
LINE
8
BLACK
6
CONTINUOUS
10
135.2761569999999836
20
-76.884326999999999
11
135.5610140000000001
21
-77.0633139999999912
0
LINE
8
BLACK
6
CONTINUOUS
10
135.5610140000000001
20
-77.0633139999999912
11
135.8240399999999966
21
-77.2730710000000016
0
LINE
8
BLACK
6
CONTINUOUS
10
135.8240399999999966
20
-77.2730710000000016
11
136.0619259999999997
21
-77.5109569999999906
0
LINE
8
BLACK
6
CONTINUOUS
10
136.0619259999999997
20
-77.5109569999999906
11
136.2716829999999959
21
-77.7739830000000012
0
LINE
8
BLACK
6
CONTINUOUS
10
136.2716829999999959
20
-77.7739830000000012
11
136.4506700000000023
21
-78.0588400000000036
0
LINE
8
BLACK
6
CONTINUOUS
10
136.4506700000000023
20
-78.0588400000000036
11
136.5966389999999819
21
-78.3619470000000007
0
LINE
8
BLACK
6
CONTINUOUS
10
136.5966389999999819
20
-78.3619470000000007
11
136.7077519999999993
21
-78.6794900000000013
0
LINE
8
BLACK
6
CONTINUOUS
10
136.7077519999999993
20
-78.6794900000000013
11
136.7826129999999978
21
-79.0074779999999919
0
LINE
8
BLACK
6
CONTINUOUS
10
136.7826129999999978
20
-79.0074779999999919
11
136.8202799999999968
21
-79.341785999999999
0
LINE
8
BLACK
6
CONTINUOUS
10
136.8202799999999968
20
-79.341785999999999
11
136.8249999999999886
21
-79.5099969999999985
0
LINE
8
BLACK
6
CONTINUOUS
10
136.8249999999999886
20
-79.5099969999999985
11
136.8249999999999886
21
-82.5099969999999985
0
LINE
8
BLACK
6
CONTINUOUS
10
136.8249999999999886
20
-82.5099969999999985
11
136.8202799999999968
21
-82.6782079999999979
0
LINE
8
BLACK
6
CONTINUOUS
10
136.8202799999999968
20
-82.6782079999999979
11
136.7826129999999978
21
-83.0125159999999909
0
LINE
8
BLACK
6
CONTINUOUS
10
136.7826129999999978
20
-83.0125159999999909
11
136.7077519999999993
21
-83.3405039999999957
0
LINE
8
BLACK
6
CONTINUOUS
10
136.7077519999999993
20
-83.3405039999999957
11
136.5966389999999819
21
-83.6580469999999963
0
LINE
8
BLACK
6
CONTINUOUS
10
136.5966389999999819
20
-83.6580469999999963
11
136.4506700000000023
21
-83.9611539999999934
0
LINE
8
BLACK
6
CONTINUOUS
10
136.4506700000000023
20
-83.9611539999999934
11
136.2716829999999959
21
-84.2460109999999958
0
LINE
8
BLACK
6
CONTINUOUS
10
136.2716829999999959
20
-84.2460109999999958
11
136.0619259999999997
21
-84.5090369999999922
0
LINE
8
BLACK
6
CONTINUOUS
10
136.0619259999999997
20
-84.5090369999999922
11
135.8240399999999966
21
-84.7469229999999953
0
LINE
8
BLACK
6
CONTINUOUS
10
135.8240399999999966
20
-84.7469229999999953
11
135.5610140000000001
21
-84.9566799999999915
0
LINE
8
BLACK
6
CONTINUOUS
10
135.5610140000000001
20
-84.9566799999999915
11
135.2761569999999836
21
-85.135666999999998
0
LINE
8
BLACK
6
CONTINUOUS
10
135.2761569999999836
20
-85.135666999999998
11
134.9730500000000006
21
-85.2816359999999918
0
LINE
8
BLACK
6
CONTINUOUS
10
134.9730500000000006
20
-85.2816359999999918
11
134.6555070000000001
21
-85.3927489999999949
0
LINE
8
BLACK
6
CONTINUOUS
10
134.6555070000000001
20
-85.3927489999999949
11
134.3275189999999952
21
-85.4676099999999934
0
LINE
8
BLACK
6
CONTINUOUS
10
134.3275189999999952
20
-85.4676099999999934
11
133.9932110000000023
21
-85.5052769999999924
0
LINE
8
BLACK
6
CONTINUOUS
10
133.9932110000000023
20
-85.5052769999999924
11
133.6567890000000034
21
-85.5052769999999924
0
LINE
8
BLACK
6
CONTINUOUS
10
133.6567890000000034
20
-85.5052769999999924
11
133.5999999999999943
21
-85.4988779999999906
0
LINE
8
BLACK
6
CONTINUOUS
10
133.5999999999999943
20
-85.4988779999999906
11
133.5999999999999943
21
-90.0874999999999915
0
LINE
8
BLACK
6
CONTINUOUS
10
133.5999999999999943
20
-90.0874999999999915
11
133.596067000000005
21
-90.2276760000000024
0
LINE
8
BLACK
6
CONTINUOUS
10
133.596067000000005
20
-90.2276760000000024
11
133.5646779999999865
21
-90.5062659999999966
0
LINE
8
BLACK
6
CONTINUOUS
10
133.5646779999999865
20
-90.5062659999999966
11
133.5022929999999803
21
-90.7795890000000014
0
LINE
8
BLACK
6
CONTINUOUS
10
133.5022929999999803
20
-90.7795890000000014
11
133.4096989999999892
21
-91.0442089999999951
0
LINE
8
BLACK
6
CONTINUOUS
10
133.4096989999999892
20
-91.0442089999999951
11
133.2880590000000041
21
-91.296796999999998
0
LINE
8
BLACK
6
CONTINUOUS
10
133.2880590000000041
20
-91.296796999999998
11
133.1749989999999855
21
-91.4767299999999892
0
LINE
8
BLACK
6
CONTINUOUS
10
133.1749989999999855
20
-91.4767299999999892
11
133.1749989999999855
21
-92.3249969999999962
0
LINE
8
BLACK
6
CONTINUOUS
10
133.1749989999999855
20
-92.3249969999999962
11
132.2066379999999981
21
-92.3249969999999962
0
LINE
8
BLACK
6
CONTINUOUS
10
132.2066379999999981
20
-92.3249969999999962
11
132.0567089999999837
21
-92.3971990000000005
0
LINE
8
BLACK
6
CONTINUOUS
10
132.0567089999999837
20
-92.3971990000000005
11
131.7920890000000043
21
-92.4897929999999917
0
LINE
8
BLACK
6
CONTINUOUS
10
131.7920890000000043
20
-92.4897929999999917
11
131.5999999999999943
21
-92.5336360000000013
0
LINE
8
BLACK
6
CONTINUOUS
10
131.5999999999999943
20
-92.5336360000000013
11
131.5999999999999943
21
-93.1499999999999915
0
LINE
8
BLACK
6
CONTINUOUS
10
131.5999999999999943
20
-93.1499999999999915
11
131.5957229999999925
21
-93.2152469999999909
0
LINE
8
BLACK
6
CONTINUOUS
10
131.5957229999999925
20
-93.2152469999999909
11
131.5957229999999925
21
-93.2152629999999931
0
LINE
8
BLACK
6
CONTINUOUS
10
131.5957229999999925
20
-93.2152629999999931
11
131.5619399999999928
21
-93.3413419999999974
0
LINE
8
BLACK
6
CONTINUOUS
10
131.5619399999999928
20
-93.3413419999999974
11
131.4966770000000054
21
-93.4543809999999979
0
LINE
8
BLACK
6
CONTINUOUS
10
131.4966770000000054
20
-93.4543809999999979
11
131.4966679999999997
21
-93.4543889999999919
0
LINE
8
BLACK
6
CONTINUOUS
10
131.4966679999999997
20
-93.4543889999999919
11
131.4535529999999994
21
-93.5035529999999966
0
LINE
8
BLACK
6
CONTINUOUS
10
131.4535529999999994
20
-93.5035529999999966
11
130.8535530000000051
21
-94.1035529999999909
0
LINE
8
BLACK
6
CONTINUOUS
10
130.8535530000000051
20
-94.1035529999999909
11
130.804395999999997
21
-94.1466609999999946
0
LINE
8
BLACK
6
CONTINUOUS
10
130.804395999999997
20
-94.1466609999999946
11
130.8043810000000065
21
-94.1466769999999968
0
LINE
8
BLACK
6
CONTINUOUS
10
130.8043810000000065
20
-94.1466769999999968
11
130.7000349999999855
21
-94.2069209999999941
0
LINE
8
BLACK
6
CONTINUOUS
10
130.7000349999999855
20
-94.2069209999999941
11
130.6913419999999917
21
-94.2119399999999985
0
LINE
8
BLACK
6
CONTINUOUS
10
130.6913419999999917
20
-94.2119399999999985
11
130.5652629999999874
21
-94.2457229999999981
0
LINE
8
BLACK
6
CONTINUOUS
10
130.5652629999999874
20
-94.2457229999999981
11
130.5652479999999969
21
-94.2457229999999981
0
LINE
8
BLACK
6
CONTINUOUS
10
130.5652479999999969
20
-94.2457229999999981
11
130.5
21
-94.25
0
LINE
8
BLACK
6
CONTINUOUS
10
130.5
20
-94.25
11
128.1624999999999943
21
-94.25
0
LINE
8
BLACK
6
CONTINUOUS
10
128.1624999999999943
20
-94.25
11
128.0972370000000069
21
-94.2457220000000007
0
LINE
8
BLACK
6
CONTINUOUS
10
128.0972370000000069
20
-94.2457220000000007
11
128.0199000000000069
21
-94.2249999999999943
0
LINE
8
BLACK
6
CONTINUOUS
10
128.0199000000000069
20
-94.2249999999999943
11
127.9124999999999943
21
-94.2249999999999943
0
LINE
8
BLACK
6
CONTINUOUS
10
127.9124999999999943
20
-94.2249999999999943
11
127.8216129999999993
21
-94.2069209999999941
0
LINE
8
BLACK
6
CONTINUOUS
10
127.8216129999999993
20
-94.2069209999999941
11
127.7445619999999877
21
-94.1554379999999895
0
LINE
8
BLACK
6
CONTINUOUS
10
127.7445619999999877
20
-94.1554379999999895
11
127.6930789999999973
21
-94.0783869999999922
0
LINE
8
BLACK
6
CONTINUOUS
10
127.6930789999999973
20
-94.0783869999999922
11
127.6749999999999972
21
-93.9874999999999972
0
LINE
8
BLACK
6
CONTINUOUS
10
127.6749999999999972
20
-93.9874999999999972
11
127.6749999999999972
21
-93.8459479999999928
0
LINE
8
BLACK
6
CONTINUOUS
10
127.6749999999999972
20
-93.8459479999999928
11
127.6667779999999937
21
-93.8152630000000016
0
LINE
8
BLACK
6
CONTINUOUS
10
127.6667779999999937
20
-93.8152630000000016
11
127.6667779999999937
21
-93.6847369999999984
0
LINE
8
BLACK
6
CONTINUOUS
10
127.6667779999999937
20
-93.6847369999999984
11
127.6749999999999972
21
-93.6540509999999955
0
LINE
8
BLACK
6
CONTINUOUS
10
127.6749999999999972
20
-93.6540509999999955
11
127.6749999999999972
21
-93.5125000000000028
0
LINE
8
BLACK
6
CONTINUOUS
10
127.6749999999999972
20
-93.5125000000000028
11
127.6930789999999973
21
-93.4216129999999936
0
LINE
8
BLACK
6
CONTINUOUS
10
127.6930789999999973
20
-93.4216129999999936
11
127.7445619999999877
21
-93.3445619999999963
0
LINE
8
BLACK
6
CONTINUOUS
10
127.7445619999999877
20
-93.3445619999999963
11
127.8216129999999993
21
-93.2930789999999917
0
LINE
8
BLACK
6
CONTINUOUS
10
127.8216129999999993
20
-93.2930789999999917
11
127.9124999999999943
21
-93.2749999999999915
0
LINE
8
BLACK
6
CONTINUOUS
10
127.9124999999999943
20
-93.2749999999999915
11
128.0199000000000069
21
-93.2749999999999915
0
LINE
8
BLACK
6
CONTINUOUS
10
128.0199000000000069
20
-93.2749999999999915
11
128.0972370000000069
21
-93.2542779999999993
0
LINE
8
BLACK
6
CONTINUOUS
10
128.0972370000000069
20
-93.2542779999999993
11
128.1624999999999943
21
-93.25
0
LINE
8
BLACK
6
CONTINUOUS
10
128.1624999999999943
20
-93.25
11
130.2928939999999898
21
-93.25
0
LINE
8
BLACK
6
CONTINUOUS
10
130.2928939999999898
20
-93.25
11
130.5999999999999943
21
-92.9428939999999955
0
LINE
8
BLACK
6
CONTINUOUS
10
130.5999999999999943
20
-92.9428939999999955
11
130.5999999999999943
21
-92.5336360000000013
0
LINE
8
BLACK
6
CONTINUOUS
10
130.5999999999999943
20
-92.5336360000000013
11
130.4079109999999844
21
-92.4897929999999917
0
LINE
8
BLACK
6
CONTINUOUS
10
130.4079109999999844
20
-92.4897929999999917
11
130.1432910000000049
21
-92.3971990000000005
0
LINE
8
BLACK
6
CONTINUOUS
10
130.1432910000000049
20
-92.3971990000000005
11
129.9933619999999905
21
-92.3249969999999962
0
LINE
8
BLACK
6
CONTINUOUS
10
129.9933619999999905
20
-92.3249969999999962
11
129.1249990000000025
21
-92.3249969999999962
0
LINE
8
BLACK
6
CONTINUOUS
10
129.1249990000000025
20
-92.3249969999999962
11
129.1249990000000025
21
-91.6143069999999966
0
LINE
8
BLACK
6
CONTINUOUS
10
129.1249990000000025
20
-91.6143069999999966
11
129.061097999999987
21
-91.5341779999999972
0
LINE
8
BLACK
6
CONTINUOUS
10
129.061097999999987
20
-91.5341779999999972
11
128.9119409999999846
21
-91.296796999999998
0
LINE
8
BLACK
6
CONTINUOUS
10
128.9119409999999846
20
-91.296796999999998
11
128.7903009999999995
21
-91.0442089999999951
0
LINE
8
BLACK
6
CONTINUOUS
10
128.7903009999999995
20
-91.0442089999999951
11
128.6977070000000083
21
-90.7795890000000014
0
LINE
8
BLACK
6
CONTINUOUS
10
128.6977070000000083
20
-90.7795890000000014
11
128.6353220000000022
21
-90.5062659999999966
0
LINE
8
BLACK
6
CONTINUOUS
10
128.6353220000000022
20
-90.5062659999999966
11
128.6039329999999836
21
-90.2276760000000024
0
LINE
8
BLACK
6
CONTINUOUS
10
128.6039329999999836
20
-90.2276760000000024
11
128.5999999999999943
21
-90.0874999999999915
0
LINE
8
BLACK
6
CONTINUOUS
10
128.5999999999999943
20
-90.0874999999999915
11
128.5999999999999943
21
-83.7349969999999928
0
LINE
8
BLACK
6
CONTINUOUS
10
128.5999999999999943
20
-83.7349969999999928
11
128.6039329999999836
21
-83.594820999999996
0
LINE
8
BLACK
6
CONTINUOUS
10
128.6039329999999836
20
-83.594820999999996
11
128.6353220000000022
21
-83.3162310000000019
0
LINE
8
BLACK
6
CONTINUOUS
10
128.6353220000000022
20
-83.3162310000000019
11
128.6977070000000083
21
-83.0429079999999971
0
LINE
8
BLACK
6
CONTINUOUS
10
128.6977070000000083
20
-83.0429079999999971
11
128.7903009999999995
21
-82.7782879999999892
0
LINE
8
BLACK
6
CONTINUOUS
10
128.7903009999999995
20
-82.7782879999999892
11
128.9119409999999846
21
-82.5257000000000005
0
LINE
8
BLACK
6
CONTINUOUS
10
128.9119409999999846
20
-82.5257000000000005
11
128.986518999999987
21
-82.4070090000000022
0
LINE
8
BLACK
6
CONTINUOUS
10
128.986518999999987
20
-82.4070090000000022
11
129.0610969999999895
21
-82.2883190000000013
0
LINE
8
BLACK
6
CONTINUOUS
10
129.0610969999999895
20
-82.2883190000000013
11
129.2358949999999993
21
-82.0691300000000012
0
LINE
8
BLACK
6
CONTINUOUS
10
129.2358949999999993
20
-82.0691300000000012
11
129.3322330000000022
21
-81.9672300000000007
0
LINE
8
BLACK
6
CONTINUOUS
10
129.3322330000000022
20
-81.9672300000000007
11
130.8249999999999886
21
-80.4744630000000001
0
LINE
8
BLACK
6
CONTINUOUS
10
130.8249999999999886
20
-80.4744630000000001
11
130.8249999999999886
21
-79.5099969999999985
0
LINE
8
BLACK
6
CONTINUOUS
10
130.8249999999999886
20
-79.5099969999999985
11
130.8297199999999805
21
-79.341785999999999
0
LINE
8
BLACK
6
CONTINUOUS
10
130.8297199999999805
20
-79.341785999999999
11
130.8673870000000079
21
-79.0074779999999919
0
LINE
8
BLACK
6
CONTINUOUS
10
130.8673870000000079
20
-79.0074779999999919
11
130.9422480000000064
21
-78.6794900000000013
0
LINE
8
BLACK
6
CONTINUOUS
10
130.9422480000000064
20
-78.6794900000000013
11
131.0533609999999953
21
-78.3619470000000007
0
LINE
8
BLACK
6
CONTINUOUS
10
131.0533609999999953
20
-78.3619470000000007
11
131.1993300000000033
21
-78.0588400000000036
0
LINE
8
BLACK
6
CONTINUOUS
10
131.1993300000000033
20
-78.0588400000000036
11
131.3783169999999814
21
-77.7739830000000012
0
LINE
8
BLACK
6
CONTINUOUS
10
131.3783169999999814
20
-77.7739830000000012
11
131.588074000000006
21
-77.5109569999999906
0
LINE
8
BLACK
6
CONTINUOUS
10
131.588074000000006
20
-77.5109569999999906
11
131.8259599999999807
21
-77.2730710000000016
0
LINE
8
BLACK
6
CONTINUOUS
10
131.8259599999999807
20
-77.2730710000000016
11
132.0889860000000056
21
-77.0633139999999912
0
LINE
8
BLACK
6
CONTINUOUS
10
132.0889860000000056
20
-77.0633139999999912
11
132.3738429999999937
21
-76.884326999999999
0
LINE
8
BLACK
6
CONTINUOUS
10
132.3738429999999937
20
-76.884326999999999
11
132.676950000000005
21
-76.738357999999991
0
LINE
8
BLACK
6
CONTINUOUS
10
132.676950000000005
20
-76.738357999999991
11
132.9944930000000056
21
-76.6272450000000021
0
LINE
8
BLACK
6
CONTINUOUS
10
132.9944930000000056
20
-76.6272450000000021
11
133.322480999999982
21
-76.5523840000000035
0
LINE
8
BLACK
6
CONTINUOUS
10
133.322480999999982
20
-76.5523840000000035
11
133.6567890000000034
21
-76.5147169999999903
0
LINE
8
BLACK
6
CONTINUOUS
10
133.6567890000000034
20
-76.5147169999999903
11
133.9932110000000023
21
-76.5147169999999903
0
LINE
8
BLACK
6
CONTINUOUS
10
133.9932110000000023
20
-76.5147169999999903
11
134.3275189999999952
21
-76.5523840000000035
0
LINE
8
BLACK
6
CONTINUOUS
10
115.6001679999999965
20
-88.541444999999996
11
115.8240249999999918
21
-88.6141810000000021
0
LINE
8
BLACK
6
CONTINUOUS
10
115.8240249999999918
20
-88.6141810000000021
11
116.0337479999999886
21
-88.7210400000000021
0
LINE
8
BLACK
6
CONTINUOUS
10
116.0337479999999886
20
-88.7210400000000021
11
116.2241719999999958
21
-88.8593910000000022
0
LINE
8
BLACK
6
CONTINUOUS
10
116.2241719999999958
20
-88.8593910000000022
11
116.3906089999999978
21
-89.02582799999999
0
LINE
8
BLACK
6
CONTINUOUS
10
116.3906089999999978
20
-89.02582799999999
11
116.5289599999999979
21
-89.2162519999999972
0
LINE
8
BLACK
6
CONTINUOUS
10
116.5289599999999979
20
-89.2162519999999972
11
116.6358189999999979
21
-89.425974999999994
0
LINE
8
BLACK
6
CONTINUOUS
10
116.6358189999999979
20
-89.425974999999994
11
116.7085549999999898
21
-89.6498319999999893
0
LINE
8
BLACK
6
CONTINUOUS
10
116.7085549999999898
20
-89.6498319999999893
11
116.7453759999999932
21
-89.8823110000000014
0
LINE
8
BLACK
6
CONTINUOUS
10
116.7453759999999932
20
-89.8823110000000014
11
116.7453759999999932
21
-90.1176889999999986
0
LINE
8
BLACK
6
CONTINUOUS
10
116.7453759999999932
20
-90.1176889999999986
11
116.7085549999999898
21
-90.3501679999999965
0
LINE
8
BLACK
6
CONTINUOUS
10
116.7085549999999898
20
-90.3501679999999965
11
116.6358189999999979
21
-90.5740249999999918
0
LINE
8
BLACK
6
CONTINUOUS
10
116.6358189999999979
20
-90.5740249999999918
11
116.5289599999999979
21
-90.7837480000000028
0
LINE
8
BLACK
6
CONTINUOUS
10
116.5289599999999979
20
-90.7837480000000028
11
116.3906089999999978
21
-90.9741719999999958
0
LINE
8
BLACK
6
CONTINUOUS
10
116.3906089999999978
20
-90.9741719999999958
11
116.2241719999999958
21
-91.1406089999999978
0
LINE
8
BLACK
6
CONTINUOUS
10
116.2241719999999958
20
-91.1406089999999978
11
116.0337479999999886
21
-91.2789599999999979
0
LINE
8
BLACK
6
CONTINUOUS
10
116.0337479999999886
20
-91.2789599999999979
11
115.8240249999999918
21
-91.3858189999999979
0
LINE
8
BLACK
6
CONTINUOUS
10
115.8240249999999918
20
-91.3858189999999979
11
115.6001679999999965
21
-91.4585549999999898
0
LINE
8
BLACK
6
CONTINUOUS
10
115.6001679999999965
20
-91.4585549999999898
11
115.3676889999999986
21
-91.4953759999999932
0
LINE
8
BLACK
6
CONTINUOUS
10
115.3676889999999986
20
-91.4953759999999932
11
115.1323110000000014
21
-91.4953759999999932
0
LINE
8
BLACK
6
CONTINUOUS
10
115.1323110000000014
20
-91.4953759999999932
11
114.8998319999999893
21
-91.4585549999999898
0
LINE
8
BLACK
6
CONTINUOUS
10
114.8998319999999893
20
-91.4585549999999898
11
114.675974999999994
21
-91.3858189999999979
0
LINE
8
BLACK
6
CONTINUOUS
10
114.675974999999994
20
-91.3858189999999979
11
114.4662519999999972
21
-91.2789599999999979
0
LINE
8
BLACK
6
CONTINUOUS
10
114.4662519999999972
20
-91.2789599999999979
11
114.27582799999999
21
-91.1406089999999978
0
LINE
8
BLACK
6
CONTINUOUS
10
114.27582799999999
20
-91.1406089999999978
11
114.109390999999988
21
-90.9741719999999958
0
LINE
8
BLACK
6
CONTINUOUS
10
114.109390999999988
20
-90.9741719999999958
11
113.9710399999999879
21
-90.7837480000000028
0
LINE
8
BLACK
6
CONTINUOUS
10
113.9710399999999879
20
-90.7837480000000028
11
113.8641809999999879
21
-90.5740249999999918
0
LINE
8
BLACK
6
CONTINUOUS
10
113.8641809999999879
20
-90.5740249999999918
11
113.791444999999996
21
-90.3501679999999965
0
LINE
8
BLACK
6
CONTINUOUS
10
113.791444999999996
20
-90.3501679999999965
11
113.7546239999999926
21
-90.1176889999999986
0
LINE
8
BLACK
6
CONTINUOUS
10
113.7546239999999926
20
-90.1176889999999986
11
113.7546239999999926
21
-89.8823110000000014
0
LINE
8
BLACK
6
CONTINUOUS
10
113.7546239999999926
20
-89.8823110000000014
11
113.791444999999996
21
-89.6498319999999893
0
LINE
8
BLACK
6
CONTINUOUS
10
113.791444999999996
20
-89.6498319999999893
11
113.8641809999999879
21
-89.425974999999994
0
LINE
8
BLACK
6
CONTINUOUS
10
113.8641809999999879
20
-89.425974999999994
11
113.9710399999999879
21
-89.2162519999999972
0
LINE
8
BLACK
6
CONTINUOUS
10
113.9710399999999879
20
-89.2162519999999972
11
114.109390999999988
21
-89.02582799999999
0
LINE
8
BLACK
6
CONTINUOUS
10
114.109390999999988
20
-89.02582799999999
11
114.27582799999999
21
-88.8593910000000022
0
LINE
8
BLACK
6
CONTINUOUS
10
114.27582799999999
20
-88.8593910000000022
11
114.4662519999999972
21
-88.7210400000000021
0
LINE
8
BLACK
6
CONTINUOUS
10
114.4662519999999972
20
-88.7210400000000021
11
114.675974999999994
21
-88.6141810000000021
0
LINE
8
BLACK
6
CONTINUOUS
10
114.675974999999994
20
-88.6141810000000021
11
114.8998319999999893
21
-88.541444999999996
0
LINE
8
BLACK
6
CONTINUOUS
10
114.8998319999999893
20
-88.541444999999996
11
115.1323110000000014
21
-88.5046239999999926
0
LINE
8
BLACK
6
CONTINUOUS
10
115.1323110000000014
20
-88.5046239999999926
11
115.3676889999999986
21
-88.5046239999999926
0
LINE
8
BLACK
6
CONTINUOUS
10
115.3676889999999986
20
-88.5046239999999926
11
115.6001679999999965
21
-88.541444999999996
0
LINE
8
BLACK
6
CONTINUOUS
10
131.7687659999999994
20
-61.6978219999999951
11
132.0420890000000043
21
-61.7602069999999941
0
LINE
8
BLACK
6
CONTINUOUS
10
132.0420890000000043
20
-61.7602069999999941
11
132.3067089999999837
21
-61.8528009999999995
0
LINE
8
BLACK
6
CONTINUOUS
10
132.3067089999999837
20
-61.8528009999999995
11
132.5592969999999866
21
-61.9744409999999988
0
LINE
8
BLACK
6
CONTINUOUS
10
132.5592969999999866
20
-61.9744409999999988
11
132.7966779999999858
21
-62.1235979999999941
0
LINE
8
BLACK
6
CONTINUOUS
10
132.7966779999999858
20
-62.1235979999999941
11
133.0158659999999884
21
-62.2983949999999993
0
LINE
8
BLACK
6
CONTINUOUS
10
133.0158659999999884
20
-62.2983949999999993
11
133.2141049999999893
21
-62.4966340000000002
0
LINE
8
BLACK
6
CONTINUOUS
10
133.2141049999999893
20
-62.4966340000000002
11
133.3889020000000016
21
-62.7158219999999957
0
LINE
8
BLACK
6
CONTINUOUS
10
133.3889020000000016
20
-62.7158219999999957
11
133.5380590000000041
21
-62.9532029999999949
0
LINE
8
BLACK
6
CONTINUOUS
10
133.5380590000000041
20
-62.9532029999999949
11
133.6596989999999892
21
-63.2057909999999978
0
LINE
8
BLACK
6
CONTINUOUS
10
133.6596989999999892
20
-63.2057909999999978
11
133.7522929999999803
21
-63.4704109999999986
0
LINE
8
BLACK
6
CONTINUOUS
10
133.7522929999999803
20
-63.4704109999999986
11
133.8146779999999865
21
-63.7437339999999963
0
LINE
8
BLACK
6
CONTINUOUS
10
133.8146779999999865
20
-63.7437339999999963
11
133.846067000000005
21
-64.0223239999999976
0
LINE
8
BLACK
6
CONTINUOUS
10
133.846067000000005
20
-64.0223239999999976
11
133.8499999999999943
21
-64.1624999999999943
0
LINE
8
BLACK
6
CONTINUOUS
10
133.8499999999999943
20
-64.1624999999999943
11
133.8499999999999943
21
-66.5147189999999995
0
LINE
8
BLACK
6
CONTINUOUS
10
133.8499999999999943
20
-66.5147189999999995
11
133.9932110000000023
21
-66.5147189999999995
0
LINE
8
BLACK
6
CONTINUOUS
10
133.9932110000000023
20
-66.5147189999999995
11
134.3275189999999952
21
-66.5523859999999985
0
LINE
8
BLACK
6
CONTINUOUS
10
134.3275189999999952
20
-66.5523859999999985
11
134.6555070000000001
21
-66.627246999999997
0
LINE
8
BLACK
6
CONTINUOUS
10
134.6555070000000001
20
-66.627246999999997
11
134.9730500000000006
21
-66.7383600000000001
0
LINE
8
BLACK
6
CONTINUOUS
10
134.9730500000000006
20
-66.7383600000000001
11
135.2761569999999836
21
-66.8843289999999939
0
LINE
8
BLACK
6
CONTINUOUS
10
135.2761569999999836
20
-66.8843289999999939
11
135.5610140000000001
21
-67.0633160000000004
0
LINE
8
BLACK
6
CONTINUOUS
10
135.5610140000000001
20
-67.0633160000000004
11
135.8240399999999966
21
-67.2730729999999966
0
LINE
8
BLACK
6
CONTINUOUS
10
135.8240399999999966
20
-67.2730729999999966
11
136.0619259999999997
21
-67.5109589999999997
0
LINE
8
BLACK
6
CONTINUOUS
10
136.0619259999999997
20
-67.5109589999999997
11
136.2716829999999959
21
-67.7739849999999961
0
LINE
8
BLACK
6
CONTINUOUS
10
136.2716829999999959
20
-67.7739849999999961
11
136.4506700000000023
21
-68.0588419999999985
0
LINE
8
BLACK
6
CONTINUOUS
10
136.4506700000000023
20
-68.0588419999999985
11
136.5966389999999819
21
-68.3619489999999956
0
LINE
8
BLACK
6
CONTINUOUS
10
136.5966389999999819
20
-68.3619489999999956
11
136.7077519999999993
21
-68.6794919999999962
0
LINE
8
BLACK
6
CONTINUOUS
10
136.7077519999999993
20
-68.6794919999999962
11
136.7826129999999978
21
-69.007480000000001
0
LINE
8
BLACK
6
CONTINUOUS
10
136.7826129999999978
20
-69.007480000000001
11
136.8202799999999968
21
-69.341787999999994
0
LINE
8
BLACK
6
CONTINUOUS
10
136.8202799999999968
20
-69.341787999999994
11
136.8249999999999886
21
-69.5099989999999934
0
LINE
8
BLACK
6
CONTINUOUS
10
136.8249999999999886
20
-69.5099989999999934
11
136.8249999999999886
21
-72.5099989999999934
0
LINE
8
BLACK
6
CONTINUOUS
10
136.8249999999999886
20
-72.5099989999999934
11
136.8202799999999968
21
-72.6782099999999929
0
LINE
8
BLACK
6
CONTINUOUS
10
136.8202799999999968
20
-72.6782099999999929
11
136.7826129999999978
21
-73.012518
0
LINE
8
BLACK
6
CONTINUOUS
10
136.7826129999999978
20
-73.012518
11
136.7077519999999993
21
-73.3405059999999906
0
LINE
8
BLACK
6
CONTINUOUS
10
136.7077519999999993
20
-73.3405059999999906
11
136.5966389999999819
21
-73.6580489999999912
0
LINE
8
BLACK
6
CONTINUOUS
10
136.5966389999999819
20
-73.6580489999999912
11
136.4506700000000023
21
-73.9611560000000026
0
LINE
8
BLACK
6
CONTINUOUS
10
136.4506700000000023
20
-73.9611560000000026
11
136.2716829999999959
21
-74.2460129999999907
0
LINE
8
BLACK
6
CONTINUOUS
10
136.2716829999999959
20
-74.2460129999999907
11
136.0619259999999997
21
-74.5090390000000014
0
LINE
8
BLACK
6
CONTINUOUS
10
136.0619259999999997
20
-74.5090390000000014
11
135.8240399999999966
21
-74.7469249999999903
0
LINE
8
BLACK
6
CONTINUOUS
10
135.8240399999999966
20
-74.7469249999999903
11
135.5610140000000001
21
-74.9566820000000007
0
LINE
8
BLACK
6
CONTINUOUS
10
135.5610140000000001
20
-74.9566820000000007
11
135.2761569999999836
21
-75.1356689999999929
0
LINE
8
BLACK
6
CONTINUOUS
10
135.2761569999999836
20
-75.1356689999999929
11
134.9730500000000006
21
-75.2816380000000009
0
LINE
8
BLACK
6
CONTINUOUS
10
134.9730500000000006
20
-75.2816380000000009
11
134.6555070000000001
21
-75.3927509999999899
0
LINE
8
BLACK
6
CONTINUOUS
10
134.6555070000000001
20
-75.3927509999999899
11
134.3275189999999952
21
-75.4676120000000026
0
LINE
8
BLACK
6
CONTINUOUS
10
134.3275189999999952
20
-75.4676120000000026
11
133.9932110000000023
21
-75.5052790000000016
0
LINE
8
BLACK
6
CONTINUOUS
10
133.9932110000000023
20
-75.5052790000000016
11
133.6567890000000034
21
-75.5052790000000016
0
LINE
8
BLACK
6
CONTINUOUS
10
133.6567890000000034
20
-75.5052790000000016
11
133.322480999999982
21
-75.4676120000000026
0
LINE
8
BLACK
6
CONTINUOUS
10
133.322480999999982
20
-75.4676120000000026
11
132.9944930000000056
21
-75.3927509999999899
0
LINE
8
BLACK
6
CONTINUOUS
10
132.9944930000000056
20
-75.3927509999999899
11
132.676950000000005
21
-75.2816380000000009
0
LINE
8
BLACK
6
CONTINUOUS
10
132.676950000000005
20
-75.2816380000000009
11
132.3738429999999937
21
-75.1356689999999929
0
LINE
8
BLACK
6
CONTINUOUS
10
132.3738429999999937
20
-75.1356689999999929
11
132.0889860000000056
21
-74.9566820000000007
0
LINE
8
BLACK
6
CONTINUOUS
10
132.0889860000000056
20
-74.9566820000000007
11
131.8259599999999807
21
-74.7469249999999903
0
LINE
8
BLACK
6
CONTINUOUS
10
131.8259599999999807
20
-74.7469249999999903
11
131.588074000000006
21
-74.5090390000000014
0
LINE
8
BLACK
6
CONTINUOUS
10
131.588074000000006
20
-74.5090390000000014
11
131.3783169999999814
21
-74.2460129999999907
0
LINE
8
BLACK
6
CONTINUOUS
10
131.3783169999999814
20
-74.2460129999999907
11
131.1993300000000033
21
-73.9611560000000026
0
LINE
8
BLACK
6
CONTINUOUS
10
131.1993300000000033
20
-73.9611560000000026
11
131.0533609999999953
21
-73.6580489999999912
0
LINE
8
BLACK
6
CONTINUOUS
10
131.0533609999999953
20
-73.6580489999999912
11
130.9422480000000064
21
-73.3405059999999906
0
LINE
8
BLACK
6
CONTINUOUS
10
130.9422480000000064
20
-73.3405059999999906
11
130.8673870000000079
21
-73.012518
0
LINE
8
BLACK
6
CONTINUOUS
10
130.8673870000000079
20
-73.012518
11
130.8297199999999805
21
-72.6782099999999929
0
LINE
8
BLACK
6
CONTINUOUS
10
130.8297199999999805
20
-72.6782099999999929
11
130.8249999999999886
21
-72.5099989999999934
0
LINE
8
BLACK
6
CONTINUOUS
10
130.8249999999999886
20
-72.5099989999999934
11
130.8249999999999886
21
-71.5455329999999918
0
LINE
8
BLACK
6
CONTINUOUS
10
130.8249999999999886
20
-71.5455329999999918
11
129.5822330000000022
21
-70.3027659999999912
0
LINE
8
BLACK
6
CONTINUOUS
10
129.5822330000000022
20
-70.3027659999999912
11
129.4858949999999993
21
-70.2008659999999907
0
LINE
8
BLACK
6
CONTINUOUS
10
129.4858949999999993
20
-70.2008659999999907
11
129.3110969999999895
21
-69.9816769999999906
0
LINE
8
BLACK
6
CONTINUOUS
10
129.3110969999999895
20
-69.9816769999999906
11
129.236518999999987
21
-69.8629859999999923
0
LINE
8
BLACK
6
CONTINUOUS
10
129.236518999999987
20
-69.8629859999999923
11
129.1619409999999846
21
-69.7442959999999914
0
LINE
8
BLACK
6
CONTINUOUS
10
129.1619409999999846
20
-69.7442959999999914
11
129.0403009999999995
21
-69.4917080000000027
0
LINE
8
BLACK
6
CONTINUOUS
10
129.0403009999999995
20
-69.4917080000000027
11
128.9477070000000083
21
-69.2270879999999948
0
LINE
8
BLACK
6
CONTINUOUS
10
128.9477070000000083
20
-69.2270879999999948
11
128.8853220000000022
21
-68.95376499999999
0
LINE
8
BLACK
6
CONTINUOUS
10
128.8853220000000022
20
-68.95376499999999
11
128.8539329999999836
21
-68.6751749999999959
0
LINE
8
BLACK
6
CONTINUOUS
10
128.8539329999999836
20
-68.6751749999999959
11
128.8499999999999943
21
-68.5349989999999991
0
LINE
8
BLACK
6
CONTINUOUS
10
128.8499999999999943
20
-68.5349989999999991
11
128.8499999999999943
21
-64.1624999999999943
0
LINE
8
BLACK
6
CONTINUOUS
10
128.8499999999999943
20
-64.1624999999999943
11
128.8539329999999836
21
-64.0223239999999976
0
LINE
8
BLACK
6
CONTINUOUS
10
128.8539329999999836
20
-64.0223239999999976
11
128.8853220000000022
21
-63.7437339999999963
0
LINE
8
BLACK
6
CONTINUOUS
10
128.8853220000000022
20
-63.7437339999999963
11
128.9477070000000083
21
-63.4704109999999986
0
LINE
8
BLACK
6
CONTINUOUS
10
128.9477070000000083
20
-63.4704109999999986
11
129.0403009999999995
21
-63.2057909999999978
0
LINE
8
BLACK
6
CONTINUOUS
10
129.0403009999999995
20
-63.2057909999999978
11
129.1619409999999846
21
-62.9532029999999949
0
LINE
8
BLACK
6
CONTINUOUS
10
129.1619409999999846
20
-62.9532029999999949
11
129.311097999999987
21
-62.7158219999999957
0
LINE
8
BLACK
6
CONTINUOUS
10
129.311097999999987
20
-62.7158219999999957
11
129.4858949999999993
21
-62.4966340000000002
0
LINE
8
BLACK
6
CONTINUOUS
10
129.4858949999999993
20
-62.4966340000000002
11
129.6841340000000002
21
-62.2983949999999993
0
LINE
8
BLACK
6
CONTINUOUS
10
129.6841340000000002
20
-62.2983949999999993
11
129.9033220000000028
21
-62.1235979999999941
0
LINE
8
BLACK
6
CONTINUOUS
10
129.9033220000000028
20
-62.1235979999999941
11
130.140703000000002
21
-61.9744409999999988
0
LINE
8
BLACK
6
CONTINUOUS
10
130.140703000000002
20
-61.9744409999999988
11
130.3932910000000049
21
-61.8528009999999995
0
LINE
8
BLACK
6
CONTINUOUS
10
130.3932910000000049
20
-61.8528009999999995
11
130.6579109999999844
21
-61.7602069999999941
0
LINE
8
BLACK
6
CONTINUOUS
10
130.6579109999999844
20
-61.7602069999999941
11
130.9312339999999892
21
-61.6978219999999951
0
LINE
8
BLACK
6
CONTINUOUS
10
130.9312339999999892
20
-61.6978219999999951
11
131.2098239999999976
21
-61.6664329999999978
0
LINE
8
BLACK
6
CONTINUOUS
10
131.2098239999999976
20
-61.6664329999999978
11
131.4901759999999911
21
-61.6664329999999978
0
LINE
8
BLACK
6
CONTINUOUS
10
131.4901759999999911
20
-61.6664329999999978
11
131.7687659999999994
21
-61.6978219999999951
0
LINE
8
BLACK
6
CONTINUOUS
10
121.2651509999999888
20
-56.6498009999999965
11
121.4666229999999985
21
-56.7152630000000002
0
LINE
8
BLACK
6
CONTINUOUS
10
121.4666229999999985
20
-56.7152630000000002
11
121.6553729999999973
21
-56.8114360000000005
0
LINE
8
BLACK
6
CONTINUOUS
10
121.6553729999999973
20
-56.8114360000000005
11
121.8267549999999915
21
-56.9359520000000003
0
LINE
8
BLACK
6
CONTINUOUS
10
121.8267549999999915
20
-56.9359520000000003
11
121.976547999999994
21
-57.0857449999999957
0
LINE
8
BLACK
6
CONTINUOUS
10
121.976547999999994
20
-57.0857449999999957
11
122.1010639999999938
21
-57.257126999999997
0
LINE
8
BLACK
6
CONTINUOUS
10
122.1010639999999938
20
-57.257126999999997
11
122.1972370000000012
21
-57.4458769999999959
0
LINE
8
BLACK
6
CONTINUOUS
10
122.1972370000000012
20
-57.4458769999999959
11
122.2626989999999978
21
-57.6473489999999984
0
LINE
8
BLACK
6
CONTINUOUS
10
122.2626989999999978
20
-57.6473489999999984
11
122.2958379999999892
21
-57.8565799999999939
0
LINE
8
BLACK
6
CONTINUOUS
10
122.2958379999999892
20
-57.8565799999999939
11
122.2958379999999892
21
-58.0684199999999962
0
LINE
8
BLACK
6
CONTINUOUS
10
122.2958379999999892
20
-58.0684199999999962
11
122.2626989999999978
21
-58.2776509999999988
0
LINE
8
BLACK
6
CONTINUOUS
10
122.2626989999999978
20
-58.2776509999999988
11
122.1972370000000012
21
-58.4791229999999942
0
LINE
8
BLACK
6
CONTINUOUS
10
122.1972370000000012
20
-58.4791229999999942
11
122.1010639999999938
21
-58.6678730000000002
0
LINE
8
BLACK
6
CONTINUOUS
10
122.1010639999999938
20
-58.6678730000000002
11
121.976547999999994
21
-58.8392549999999943
0
LINE
8
BLACK
6
CONTINUOUS
10
121.976547999999994
20
-58.8392549999999943
11
121.8267549999999915
21
-58.9890479999999968
0
LINE
8
BLACK
6
CONTINUOUS
10
121.8267549999999915
20
-58.9890479999999968
11
121.6553729999999973
21
-59.1135639999999967
0
LINE
8
BLACK
6
CONTINUOUS
10
121.6553729999999973
20
-59.1135639999999967
11
121.4666229999999985
21
-59.209736999999997
0
LINE
8
BLACK
6
CONTINUOUS
10
121.4666229999999985
20
-59.209736999999997
11
121.2651509999999888
21
-59.2751990000000006
0
LINE
8
BLACK
6
CONTINUOUS
10
121.2651509999999888
20
-59.2751990000000006
11
121.0559200000000004
21
-59.3083379999999991
0
LINE
8
BLACK
6
CONTINUOUS
10
121.0559200000000004
20
-59.3083379999999991
11
120.8440799999999911
21
-59.3083379999999991
0
LINE
8
BLACK
6
CONTINUOUS
10
120.8440799999999911
20
-59.3083379999999991
11
120.6348489999999885
21
-59.2751990000000006
0
LINE
8
BLACK
6
CONTINUOUS
10
120.6348489999999885
20
-59.2751990000000006
11
120.433376999999993
21
-59.209736999999997
0
LINE
8
BLACK
6
CONTINUOUS
10
120.433376999999993
20
-59.209736999999997
11
120.2446269999999942
21
-59.1135639999999967
0
LINE
8
BLACK
6
CONTINUOUS
10
120.2446269999999942
20
-59.1135639999999967
11
120.073245
21
-58.9890479999999968
0
LINE
8
BLACK
6
CONTINUOUS
10
120.073245
20
-58.9890479999999968
11
119.9234519999999975
21
-58.8392549999999943
0
LINE
8
BLACK
6
CONTINUOUS
10
119.9234519999999975
20
-58.8392549999999943
11
119.7989359999999976
21
-58.6678730000000002
0
LINE
8
BLACK
6
CONTINUOUS
10
119.7989359999999976
20
-58.6678730000000002
11
119.7027629999999903
21
-58.4791229999999942
0
LINE
8
BLACK
6
CONTINUOUS
10
119.7027629999999903
20
-58.4791229999999942
11
119.6373009999999937
21
-58.2776509999999988
0
LINE
8
BLACK
6
CONTINUOUS
10
119.6373009999999937
20
-58.2776509999999988
11
119.6041619999999881
21
-58.0684199999999962
0
LINE
8
BLACK
6
CONTINUOUS
10
119.6041619999999881
20
-58.0684199999999962
11
119.6041619999999881
21
-57.8565799999999939
0
LINE
8
BLACK
6
CONTINUOUS
10
119.6041619999999881
20
-57.8565799999999939
11
119.6373009999999937
21
-57.6473489999999984
0
LINE
8
BLACK
6
CONTINUOUS
10
119.6373009999999937
20
-57.6473489999999984
11
119.7027629999999903
21
-57.4458769999999959
0
LINE
8
BLACK
6
CONTINUOUS
10
119.7027629999999903
20
-57.4458769999999959
11
119.7989359999999976
21
-57.257126999999997
0
LINE
8
BLACK
6
CONTINUOUS
10
119.7989359999999976
20
-57.257126999999997
11
119.9234519999999975
21
-57.0857449999999957
0
LINE
8
BLACK
6
CONTINUOUS
10
119.9234519999999975
20
-57.0857449999999957
11
120.073245
21
-56.9359520000000003
0
LINE
8
BLACK
6
CONTINUOUS
10
120.073245
20
-56.9359520000000003
11
120.2446269999999942
21
-56.8114360000000005
0
LINE
8
BLACK
6
CONTINUOUS
10
120.2446269999999942
20
-56.8114360000000005
11
120.433376999999993
21
-56.7152630000000002
0
LINE
8
BLACK
6
CONTINUOUS
10
120.433376999999993
20
-56.7152630000000002
11
120.6348489999999885
21
-56.6498009999999965
0
LINE
8
BLACK
6
CONTINUOUS
10
120.6348489999999885
20
-56.6498009999999965
11
120.8440799999999911
21
-56.616661999999998
0
LINE
8
BLACK
6
CONTINUOUS
10
120.8440799999999911
20
-56.616661999999998
11
121.0559200000000004
21
-56.616661999999998
0
LINE
8
BLACK
6
CONTINUOUS
10
121.0559200000000004
20
-56.616661999999998
11
121.2651509999999888
21
-56.6498009999999965
0
LINE
8
BLACK
6
CONTINUOUS
10
134.765151000000003
20
-56.6498009999999965
11
134.9666229999999985
21
-56.7152630000000002
0
LINE
8
BLACK
6
CONTINUOUS
10
134.9666229999999985
20
-56.7152630000000002
11
135.1553729999999973
21
-56.8114360000000005
0
LINE
8
BLACK
6
CONTINUOUS
10
135.1553729999999973
20
-56.8114360000000005
11
135.3267549999999915
21
-56.9359520000000003
0
LINE
8
BLACK
6
CONTINUOUS
10
135.3267549999999915
20
-56.9359520000000003
11
135.4765479999999798
21
-57.0857449999999957
0
LINE
8
BLACK
6
CONTINUOUS
10
135.4765479999999798
20
-57.0857449999999957
11
135.601064000000008
21
-57.257126999999997
0
LINE
8
BLACK
6
CONTINUOUS
10
135.601064000000008
20
-57.257126999999997
11
135.6972370000000012
21
-57.4458769999999959
0
LINE
8
BLACK
6
CONTINUOUS
10
135.6972370000000012
20
-57.4458769999999959
11
135.7626989999999978
21
-57.6473489999999984
0
LINE
8
BLACK
6
CONTINUOUS
10
135.7626989999999978
20
-57.6473489999999984
11
135.7958380000000034
21
-57.8565799999999939
0
LINE
8
BLACK
6
CONTINUOUS
10
135.7958380000000034
20
-57.8565799999999939
11
135.7958380000000034
21
-58.0684199999999962
0
LINE
8
BLACK
6
CONTINUOUS
10
135.7958380000000034
20
-58.0684199999999962
11
135.7626989999999978
21
-58.2776509999999988
0
LINE
8
BLACK
6
CONTINUOUS
10
135.7626989999999978
20
-58.2776509999999988
11
135.6972370000000012
21
-58.4791229999999942
0
LINE
8
BLACK
6
CONTINUOUS
10
135.6972370000000012
20
-58.4791229999999942
11
135.601064000000008
21
-58.6678730000000002
0
LINE
8
BLACK
6
CONTINUOUS
10
135.601064000000008
20
-58.6678730000000002
11
135.4765479999999798
21
-58.8392549999999943
0
LINE
8
BLACK
6
CONTINUOUS
10
135.4765479999999798
20
-58.8392549999999943
11
135.3267549999999915
21
-58.9890479999999968
0
LINE
8
BLACK
6
CONTINUOUS
10
135.3267549999999915
20
-58.9890479999999968
11
135.1553729999999973
21
-59.1135639999999967
0
LINE
8
BLACK
6
CONTINUOUS
10
135.1553729999999973
20
-59.1135639999999967
11
134.9666229999999985
21
-59.209736999999997
0
LINE
8
BLACK
6
CONTINUOUS
10
134.9666229999999985
20
-59.209736999999997
11
134.765151000000003
21
-59.2751990000000006
0
LINE
8
BLACK
6
CONTINUOUS
10
134.765151000000003
20
-59.2751990000000006
11
134.5559199999999862
21
-59.3083379999999991
0
LINE
8
BLACK
6
CONTINUOUS
10
134.5559199999999862
20
-59.3083379999999991
11
134.3440799999999911
21
-59.3083379999999991
0
LINE
8
BLACK
6
CONTINUOUS
10
134.3440799999999911
20
-59.3083379999999991
11
134.1348490000000027
21
-59.2751990000000006
0
LINE
8
BLACK
6
CONTINUOUS
10
134.1348490000000027
20
-59.2751990000000006
11
133.9333770000000072
21
-59.209736999999997
0
LINE
8
BLACK
6
CONTINUOUS
10
133.9333770000000072
20
-59.209736999999997
11
133.7446269999999799
21
-59.1135639999999967
0
LINE
8
BLACK
6
CONTINUOUS
10
133.7446269999999799
20
-59.1135639999999967
11
133.5732449999999858
21
-58.9890479999999968
0
LINE
8
BLACK
6
CONTINUOUS
10
133.5732449999999858
20
-58.9890479999999968
11
133.4234519999999975
21
-58.8392549999999943
0
LINE
8
BLACK
6
CONTINUOUS
10
133.4234519999999975
20
-58.8392549999999943
11
133.2989359999999976
21
-58.6678730000000002
0
LINE
8
BLACK
6
CONTINUOUS
10
133.2989359999999976
20
-58.6678730000000002
11
133.2027630000000045
21
-58.4791229999999942
0
LINE
8
BLACK
6
CONTINUOUS
10
133.2027630000000045
20
-58.4791229999999942
11
133.1373010000000079
21
-58.2776509999999988
0
LINE
8
BLACK
6
CONTINUOUS
10
133.1373010000000079
20
-58.2776509999999988
11
133.1041620000000023
21
-58.0684199999999962
0
LINE
8
BLACK
6
CONTINUOUS
10
133.1041620000000023
20
-58.0684199999999962
11
133.1041620000000023
21
-57.8565799999999939
0
LINE
8
BLACK
6
CONTINUOUS
10
133.1041620000000023
20
-57.8565799999999939
11
133.1373010000000079
21
-57.6473489999999984
0
LINE
8
BLACK
6
CONTINUOUS
10
133.1373010000000079
20
-57.6473489999999984
11
133.2027630000000045
21
-57.4458769999999959
0
LINE
8
BLACK
6
CONTINUOUS
10
133.2027630000000045
20
-57.4458769999999959
11
133.2989359999999976
21
-57.257126999999997
0
LINE
8
BLACK
6
CONTINUOUS
10
133.2989359999999976
20
-57.257126999999997
11
133.4234519999999975
21
-57.0857449999999957
0
LINE
8
BLACK
6
CONTINUOUS
10
133.4234519999999975
20
-57.0857449999999957
11
133.5732449999999858
21
-56.9359520000000003
0
LINE
8
BLACK
6
CONTINUOUS
10
133.5732449999999858
20
-56.9359520000000003
11
133.7446269999999799
21
-56.8114360000000005
0
LINE
8
BLACK
6
CONTINUOUS
10
133.7446269999999799
20
-56.8114360000000005
11
133.9333770000000072
21
-56.7152630000000002
0
LINE
8
BLACK
6
CONTINUOUS
10
133.9333770000000072
20
-56.7152630000000002
11
134.1348490000000027
21
-56.6498009999999965
0
LINE
8
BLACK
6
CONTINUOUS
10
134.1348490000000027
20
-56.6498009999999965
11
134.3440799999999911
21
-56.616661999999998
0
LINE
8
BLACK
6
CONTINUOUS
10
134.3440799999999911
20
-56.616661999999998
11
134.5559199999999862
21
-56.616661999999998
0
LINE
8
BLACK
6
CONTINUOUS
10
134.5559199999999862
20
-56.616661999999998
11
134.765151000000003
21
-56.6498009999999965
0
CIRCLE
8
BLACK
10
112.4249999999999972
20
-74.0999989999999968
40
0.4
0
CIRCLE
8
BLACK
10
112.4250019999999921
20
-76.0100020000000001
40
0.4
0
CIRCLE
8
BLACK
10
112.4249999999999972
20
-77.91999899999999
40
0.4
0
CIRCLE
8
BLACK
10
133.1950039999999831
20
-77.0600019999999972
40
0.25
0
CIRCLE
8
BLACK
10
134.4549989999999866
20
-77.0600029999999947
40
0.25
0
CIRCLE
8
BLACK
10
135.4849999999999852
20
-77.8099989999999906
40
0.25
0
CIRCLE
8
BLACK
10
132.165001999999987
20
-77.8100000000000023
40
0.25
0
CIRCLE
8
BLACK
10
135.8750009999999975
20
-79.009996000000001
40
0.25
0
CIRCLE
8
BLACK
10
131.7750020000000006
20
-79.0100020000000001
40
0.25
0
CIRCLE
8
BLACK
10
135.874998000000005
20
-80.3399969999999968
40
0.25
0
CIRCLE
8
BLACK
10
131.7750020000000006
20
-80.3400010000000009
40
0.25
0
LINE
8
BLACK
6
CONTINUOUS
10
134.8201849999999808
20
-83.1080139999999972
11
134.7819399999999916
21
-83.3002819999999957
0
LINE
8
BLACK
6
CONTINUOUS
10
134.7819399999999916
20
-83.3002819999999957
11
134.7069209999999941
21
-83.4813939999999945
0
LINE
8
BLACK
6
CONTINUOUS
10
134.7069209999999941
20
-83.4813939999999945
11
134.5980099999999879
21
-83.6443900000000014
0
LINE
8
BLACK
6
CONTINUOUS
10
134.5980099999999879
20
-83.6443900000000014
11
134.4593930000000057
21
-83.7830069999999978
0
LINE
8
BLACK
6
CONTINUOUS
10
134.4593930000000057
20
-83.7830069999999978
11
134.2963969999999847
21
-83.8919179999999898
0
LINE
8
BLACK
6
CONTINUOUS
10
134.2963969999999847
20
-83.8919179999999898
11
134.1152850000000001
21
-83.9669370000000015
0
LINE
8
BLACK
6
CONTINUOUS
10
134.1152850000000001
20
-83.9669370000000015
11
133.9230169999999873
21
-84.0051819999999907
0
LINE
8
BLACK
6
CONTINUOUS
10
133.9230169999999873
20
-84.0051819999999907
11
133.7269829999999899
21
-84.0051819999999907
0
LINE
8
BLACK
6
CONTINUOUS
10
133.7269829999999899
20
-84.0051819999999907
11
133.5347150000000056
21
-83.9669370000000015
0
LINE
8
BLACK
6
CONTINUOUS
10
133.5347150000000056
20
-83.9669370000000015
11
133.3536029999999926
21
-83.8919179999999898
0
LINE
8
BLACK
6
CONTINUOUS
10
133.3536029999999926
20
-83.8919179999999898
11
133.190607
21
-83.7830069999999978
0
LINE
8
BLACK
6
CONTINUOUS
10
133.190607
20
-83.7830069999999978
11
133.0519899999999893
21
-83.6443900000000014
0
LINE
8
BLACK
6
CONTINUOUS
10
133.0519899999999893
20
-83.6443900000000014
11
132.9430789999999831
21
-83.4813939999999945
0
LINE
8
BLACK
6
CONTINUOUS
10
132.9430789999999831
20
-83.4813939999999945
11
132.8680599999999856
21
-83.3002819999999957
0
LINE
8
BLACK
6
CONTINUOUS
10
132.8680599999999856
20
-83.3002819999999957
11
132.8298149999999964
21
-83.1080139999999972
0
LINE
8
BLACK
6
CONTINUOUS
10
132.8298149999999964
20
-83.1080139999999972
11
132.8249999999999886
21
-83.0099969999999985
0
LINE
8
BLACK
6
CONTINUOUS
10
132.8249999999999886
20
-83.0099969999999985
11
132.8249999999999886
21
-79.0099969999999985
0
LINE
8
BLACK
6
CONTINUOUS
10
132.8249999999999886
20
-79.0099969999999985
11
132.8298149999999964
21
-78.9119799999999998
0
LINE
8
BLACK
6
CONTINUOUS
10
132.8298149999999964
20
-78.9119799999999998
11
132.8680599999999856
21
-78.7197120000000012
0
LINE
8
BLACK
6
CONTINUOUS
10
132.8680599999999856
20
-78.7197120000000012
11
132.9430789999999831
21
-78.5386000000000024
0
LINE
8
BLACK
6
CONTINUOUS
10
132.9430789999999831
20
-78.5386000000000024
11
133.0519899999999893
21
-78.3756039999999956
0
LINE
8
BLACK
6
CONTINUOUS
10
133.0519899999999893
20
-78.3756039999999956
11
133.190607
21
-78.2369869999999992
0
LINE
8
BLACK
6
CONTINUOUS
10
133.190607
20
-78.2369869999999992
11
133.3536029999999926
21
-78.128075999999993
0
LINE
8
BLACK
6
CONTINUOUS
10
133.3536029999999926
20
-78.128075999999993
11
133.5347150000000056
21
-78.0530569999999955
0
LINE
8
BLACK
6
CONTINUOUS
10
133.5347150000000056
20
-78.0530569999999955
11
133.7269829999999899
21
-78.0148119999999921
0
LINE
8
BLACK
6
CONTINUOUS
10
133.7269829999999899
20
-78.0148119999999921
11
133.9230169999999873
21
-78.0148119999999921
0
LINE
8
BLACK
6
CONTINUOUS
10
133.9230169999999873
20
-78.0148119999999921
11
134.1152850000000001
21
-78.0530569999999955
0
LINE
8
BLACK
6
CONTINUOUS
10
134.1152850000000001
20
-78.0530569999999955
11
134.2963969999999847
21
-78.128075999999993
0
LINE
8
BLACK
6
CONTINUOUS
10
134.2963969999999847
20
-78.128075999999993
11
134.4593930000000057
21
-78.2369869999999992
0
LINE
8
BLACK
6
CONTINUOUS
10
134.4593930000000057
20
-78.2369869999999992
11
134.5980099999999879
21
-78.3756039999999956
0
LINE
8
BLACK
6
CONTINUOUS
10
134.5980099999999879
20
-78.3756039999999956
11
134.7069209999999941
21
-78.5386000000000024
0
LINE
8
BLACK
6
CONTINUOUS
10
134.7069209999999941
20
-78.5386000000000024
11
134.7819399999999916
21
-78.7197120000000012
0
LINE
8
BLACK
6
CONTINUOUS
10
134.7819399999999916
20
-78.7197120000000012
11
134.8201849999999808
21
-78.9119799999999998
0
LINE
8
BLACK
6
CONTINUOUS
10
134.8201849999999808
20
-78.9119799999999998
11
134.8249999999999886
21
-79.0099969999999985
0
LINE
8
BLACK
6
CONTINUOUS
10
134.8249999999999886
20
-79.0099969999999985
11
134.8249999999999886
21
-83.0099969999999985
0
LINE
8
BLACK
6
CONTINUOUS
10
134.8249999999999886
20
-83.0099969999999985
11
134.8201849999999808
21
-83.1080139999999972
0
CIRCLE
8
BLACK
10
135.875
20
-81.6799989999999951
40
0.25
0
CIRCLE
8
BLACK
10
131.7750000000000057
20
-81.6799989999999951
40
0.25
0
CIRCLE
8
BLACK
10
135.875
20
-83.0099969999999985
40
0.25
0
CIRCLE
8
BLACK
10
131.7749979999999823
20
-83.009997999999996
40
0.25
0
CIRCLE
8
BLACK
10
135.4850009999999827
20
-84.2099959999999896
40
0.25
0
CIRCLE
8
BLACK
10
132.1650029999999845
20
-84.2099959999999896
40
0.25
0
CIRCLE
8
BLACK
10
134.4549999999999841
20
-84.9599970000000013
40
0.25
0
CIRCLE
8
BLACK
10
133.1949999999999932
20
-84.9599989999999963
40
0.25
0
CIRCLE
8
BLACK
10
134.4549999999999841
20
-67.0600009999999997
40
0.25
0
CIRCLE
8
BLACK
10
133.1949970000000008
20
-67.0600009999999997
40
0.25
0
CIRCLE
8
BLACK
10
135.4849999999999852
20
-67.8099989999999906
40
0.25
0
CIRCLE
8
BLACK
10
132.164999999999992
20
-67.8100009999999997
40
0.25
0
CIRCLE
8
BLACK
10
135.875
20
-69.009997999999996
40
0.25
0
CIRCLE
8
BLACK
10
131.7750020000000006
20
-69.009997999999996
40
0.25
0
CIRCLE
8
BLACK
10
135.875
20
-70.3399929999999927
40
0.25
0
CIRCLE
8
BLACK
10
131.7750000000000057
20
-70.3399989999999917
40
0.25
0
LINE
8
BLACK
6
CONTINUOUS
10
134.8201849999999808
20
-73.1080159999999921
11
134.7819399999999916
21
-73.3002839999999907
0
LINE
8
BLACK
6
CONTINUOUS
10
134.7819399999999916
20
-73.3002839999999907
11
134.7069209999999941
21
-73.4813960000000037
0
LINE
8
BLACK
6
CONTINUOUS
10
134.7069209999999941
20
-73.4813960000000037
11
134.5980099999999879
21
-73.6443919999999963
0
LINE
8
BLACK
6
CONTINUOUS
10
134.5980099999999879
20
-73.6443919999999963
11
134.4593930000000057
21
-73.7830089999999927
0
LINE
8
BLACK
6
CONTINUOUS
10
134.4593930000000057
20
-73.7830089999999927
11
134.2963969999999847
21
-73.8919199999999989
0
LINE
8
BLACK
6
CONTINUOUS
10
134.2963969999999847
20
-73.8919199999999989
11
134.1152850000000001
21
-73.9669389999999964
0
LINE
8
BLACK
6
CONTINUOUS
10
134.1152850000000001
20
-73.9669389999999964
11
133.9230169999999873
21
-74.0051839999999999
0
LINE
8
BLACK
6
CONTINUOUS
10
133.9230169999999873
20
-74.0051839999999999
11
133.7269829999999899
21
-74.0051839999999999
0
LINE
8
BLACK
6
CONTINUOUS
10
133.7269829999999899
20
-74.0051839999999999
11
133.5347150000000056
21
-73.9669389999999964
0
LINE
8
BLACK
6
CONTINUOUS
10
133.5347150000000056
20
-73.9669389999999964
11
133.3536029999999926
21
-73.8919199999999989
0
LINE
8
BLACK
6
CONTINUOUS
10
133.3536029999999926
20
-73.8919199999999989
11
133.190607
21
-73.7830089999999927
0
LINE
8
BLACK
6
CONTINUOUS
10
133.190607
20
-73.7830089999999927
11
133.0519899999999893
21
-73.6443919999999963
0
LINE
8
BLACK
6
CONTINUOUS
10
133.0519899999999893
20
-73.6443919999999963
11
132.9430789999999831
21
-73.4813960000000037
0
LINE
8
BLACK
6
CONTINUOUS
10
132.9430789999999831
20
-73.4813960000000037
11
132.8680599999999856
21
-73.3002839999999907
0
LINE
8
BLACK
6
CONTINUOUS
10
132.8680599999999856
20
-73.3002839999999907
11
132.8298149999999964
21
-73.1080159999999921
0
LINE
8
BLACK
6
CONTINUOUS
10
132.8298149999999964
20
-73.1080159999999921
11
132.8249999999999886
21
-73.0099989999999934
0
LINE
8
BLACK
6
CONTINUOUS
10
132.8249999999999886
20
-73.0099989999999934
11
132.8249999999999886
21
-69.0099989999999934
0
LINE
8
BLACK
6
CONTINUOUS
10
132.8249999999999886
20
-69.0099989999999934
11
132.8298149999999964
21
-68.9119819999999947
0
LINE
8
BLACK
6
CONTINUOUS
10
132.8298149999999964
20
-68.9119819999999947
11
132.8680599999999856
21
-68.7197139999999962
0
LINE
8
BLACK
6
CONTINUOUS
10
132.8680599999999856
20
-68.7197139999999962
11
132.9430789999999831
21
-68.5386019999999974
0
LINE
8
BLACK
6
CONTINUOUS
10
132.9430789999999831
20
-68.5386019999999974
11
133.0519899999999893
21
-68.3756059999999906
0
LINE
8
BLACK
6
CONTINUOUS
10
133.0519899999999893
20
-68.3756059999999906
11
133.190607
21
-68.2369889999999941
0
LINE
8
BLACK
6
CONTINUOUS
10
133.190607
20
-68.2369889999999941
11
133.3536029999999926
21
-68.1280780000000021
0
LINE
8
BLACK
6
CONTINUOUS
10
133.3536029999999926
20
-68.1280780000000021
11
133.5347150000000056
21
-68.0530589999999904
0
LINE
8
BLACK
6
CONTINUOUS
10
133.5347150000000056
20
-68.0530589999999904
11
133.7269829999999899
21
-68.0148140000000012
0
LINE
8
BLACK
6
CONTINUOUS
10
133.7269829999999899
20
-68.0148140000000012
11
133.9230169999999873
21
-68.0148140000000012
0
LINE
8
BLACK
6
CONTINUOUS
10
133.9230169999999873
20
-68.0148140000000012
11
134.1152850000000001
21
-68.0530589999999904
0
LINE
8
BLACK
6
CONTINUOUS
10
134.1152850000000001
20
-68.0530589999999904
11
134.2963969999999847
21
-68.1280780000000021
0
LINE
8
BLACK
6
CONTINUOUS
10
134.2963969999999847
20
-68.1280780000000021
11
134.4593930000000057
21
-68.2369889999999941
0
LINE
8
BLACK
6
CONTINUOUS
10
134.4593930000000057
20
-68.2369889999999941
11
134.5980099999999879
21
-68.3756059999999906
0
LINE
8
BLACK
6
CONTINUOUS
10
134.5980099999999879
20
-68.3756059999999906
11
134.7069209999999941
21
-68.5386019999999974
0
LINE
8
BLACK
6
CONTINUOUS
10
134.7069209999999941
20
-68.5386019999999974
11
134.7819399999999916
21
-68.7197139999999962
0
LINE
8
BLACK
6
CONTINUOUS
10
134.7819399999999916
20
-68.7197139999999962
11
134.8201849999999808
21
-68.9119819999999947
0
LINE
8
BLACK
6
CONTINUOUS
10
134.8201849999999808
20
-68.9119819999999947
11
134.8249999999999886
21
-69.0099989999999934
0
LINE
8
BLACK
6
CONTINUOUS
10
134.8249999999999886
20
-69.0099989999999934
11
134.8249999999999886
21
-73.0099989999999934
0
LINE
8
BLACK
6
CONTINUOUS
10
134.8249999999999886
20
-73.0099989999999934
11
134.8201849999999808
21
-73.1080159999999921
0
CIRCLE
8
BLACK
10
135.875
20
-71.6799989999999951
40
0.25
0
CIRCLE
8
BLACK
10
131.7749949999999899
20
-71.6799989999999951
40
0.25
0
CIRCLE
8
BLACK
10
131.7750000000000057
20
-73.009996000000001
40
0.25
0
CIRCLE
8
BLACK
10
135.874998000000005
20
-73.0099969999999985
40
0.25
0
CIRCLE
8
BLACK
10
132.164999999999992
20
-74.2099989999999963
40
0.25
0
CIRCLE
8
BLACK
10
135.4849989999999877
20
-74.2099999999999937
40
0.25
0
CIRCLE
8
BLACK
10
133.1950019999999881
20
-74.9599989999999963
40
0.25
0
CIRCLE
8
BLACK
10
134.4550009999999816
20
-74.9600030000000004
40
0.25
0
CIRCLE
8
BLACK
10
115.25
20
-85.
40
0.75
0
CIRCLE
8
BLACK
10
111.
20
-95.5
40
0.75
0
CIRCLE
8
BLACK
10
131.1499990000000082
20
-90.2999969999999905
40
1.3499999999999999
0
CIRCLE
8
BLACK
10
123.9499989999999912
20
-90.2999969999999905
40
1.3499999999999999
0
CIRCLE
8
BLACK
10
134.2999999999999829
20
-96.2999999999999972
40
0.8999999999999999
0
CIRCLE
8
BLACK
10
120.7999989999999997
20
-96.2999969999999905
40
0.8999999999999999
0
CIRCLE
8
BLACK
10
115.25
20
-95.5
40
0.75
0
CIRCLE
8
BLACK
10
110.75
20
-85.
40
0.75
0
CIRCLE
8
BLACK
10
124.0999999999999943
20
-63.9624999999999986
40
1.3499999999999999
0
CIRCLE
8
BLACK
10
131.2999999999999829
20
-63.9624999999999986
40
1.3499999999999999
0
CIRCLE
8
BLACK
10
120.9499999999999886
20
-57.9624999999999986
40
0.8999999999999999
0
CIRCLE
8
BLACK
10
134.4499999999999886
20
-57.9624999999999986
40
0.8999999999999999
0
CIRCLE
8
BLACK
10
115.25
20
-90.
40
0.75
0
CIRCLE
8
BLACK
10
111.
20
-90.
40
0.75
  0
ENDSEC
  0
EOF
