  0
SECTION
  2
HEADER
  9
$ACADVER
  1
AC1015
  9
$ACADMAINTVER
 70
     6
  9
$DWGCODEPAGE
  3
ANSI_1250
  9
$INSBASE
 10
0.0
 20
0.0
 30
0.0
  9
$EXTMIN
 10
-19.75
 20
-7.0
 30
0.0
  9
$EXTMAX
 10
19.75
 20
7.0
 30
0.0
  9
$LIMMIN
 10
0.0
 20
0.0
  9
$LIMMAX
 10
420.0
 20
297.0
  9
$ORTHOMODE
 70
     0
  9
$REGENMODE
 70
     1
  9
$FILLMODE
 70
     1
  9
$QTEXTMODE
 70
     0
  9
$MIRRTEXT
 70
     1
  9
$LTSCALE
 40
1.0
  9
$ATTMODE
 70
     1
  9
$TEXTSIZE
 40
3.5
  9
$TRACEWID
 40
1.0
  9
$TEXTSTYLE
  7
Standard
  9
$CLAYER
  8
0
  9
$CELTYPE
  6
ByLayer
  9
$CECOLOR
 62
   256
  9
$CELTSCALE
 40
1.0
  9
$DISPSILH
 70
     0
  9
$DIMSCALE
 40
1.0
  9
$DIMASZ
 40
3.302
  9
$DIMEXO
 40
1.0
  9
$DIMDLI
 40
3.75
  9
$DIMRND
 40
0.0
  9
$DIMDLE
 40
0.0
  9
$DIMEXE
 40
1.0
  9
$DIMTP
 40
0.0
  9
$DIMTM
 40
0.0
  9
$DIMTXT
 40
3.5
  9
$DIMCEN
 40
2.5
  9
$DIMTSZ
 40
0.0
  9
$DIMTOL
 70
     0
  9
$DIMLIM
 70
     0
  9
$DIMTIH
 70
     1
  9
$DIMTOH
 70
     1
  9
$DIMSE1
 70
     0
  9
$DIMSE2
 70
     0
  9
$DIMTAD
 70
     1
  9
$DIMZIN
 70
     0
  9
$DIMBLK
  1

  9
$DIMASO
 70
     1
  9
$DIMSHO
 70
     1
  9
$DIMPOST
  1

  9
$DIMAPOST
  1

  9
$DIMALT
 70
     0
  9
$DIMALTD
 70
     3
  9
$DIMALTF
 40
0.0393700787
  9
$DIMLFAC
 40
1.0
  9
$DIMTOFL
 70
     1
  9
$DIMTVP
 40
0.0
  9
$DIMTIX
 70
     0
  9
$DIMSOXD
 70
     0
  9
$DIMSAH
 70
     0
  9
$DIMBLK1
  1

  9
$DIMBLK2
  1

  9
$DIMSTYLE
  2
ISO-25
  9
$DIMCLRD
 70
     0
  9
$DIMCLRE
 70
     0
  9
$DIMCLRT
 70
     0
  9
$DIMTFAC
 40
1.0
  9
$DIMGAP
 40
1.524
  9
$DIMJUST
 70
     0
  9
$DIMSD1
 70
     0
  9
$DIMSD2
 70
     0
  9
$DIMTOLJ
 70
     0
  9
$DIMTZIN
 70
     0
  9
$DIMALTZ
 70
     0
  9
$DIMALTTZ
 70
     0
  9
$DIMUPT
 70
     0
  9
$DIMDEC
 70
     3
  9
$DIMTDEC
 70
     3
  9
$DIMALTU
 70
     2
  9
$DIMALTTD
 70
     3
  9
$DIMTXSTY
  7
Standard
  9
$DIMAUNIT
 70
     0
  9
$DIMADEC
 70
     2
  9
$DIMALTRND
 40
0.0
  9
$DIMAZIN
 70
     0
  9
$DIMDSEP
 70
    44
  9
$DIMATFIT
 70
     3
  9
$DIMFRAC
 70
     0
  9
$DIMLDRBLK
  1

  9
$DIMLUNIT
 70
     2
  9
$DIMLWD
 70
    -2
  9
$DIMLWE
 70
    -2
  9
$DIMTMOVE
 70
     0
  9
$LUNITS
 70
     2
  9
$LUPREC
 70
     2
  9
$SKETCHINC
 40
1.0
  9
$FILLETRAD
 40
10.0
  9
$AUNITS
 70
     0
  9
$AUPREC
 70
     2
  9
$MENU
  1
.
  9
$ELEVATION
 40
0.0
  9
$PELEVATION
 40
0.0
  9
$THICKNESS
 40
0.0
  9
$LIMCHECK
 70
     0
  9
$CHAMFERA
 40
10.0
  9
$CHAMFERB
 40
10.0
  9
$CHAMFERC
 40
20.0
  9
$CHAMFERD
 40
0.0
  9
$SKPOLY
 70
     0
  9
$TDCREATE
 40
2458442.378822349
  9
$TDUCREATE
 40
2458442.337155683
  9
$TDUPDATE
 40
2458442.378822361
  9
$TDUUPDATE
 40
2458442.337155695
  9
$TDINDWG
 40
0.0000000116
  9
$TDUSRTIMER
 40
0.0000000116
  9
$USRTIMER
 70
     1
  9
$ANGBASE
 50
0.0
  9
$ANGDIR
 70
     0
  9
$PDMODE
 70
     0
  9
$PDSIZE
 40
-1.0
  9
$PLINEWID
 40
0.0
  9
$SPLFRAME
 70
     0
  9
$SPLINETYPE
 70
     6
  9
$SPLINESEGS
 70
     8
  9
$HANDSEED
  5
A8
  9
$SURFTAB1
 70
     6
  9
$SURFTAB2
 70
     6
  9
$SURFTYPE
 70
     6
  9
$SURFU
 70
     6
  9
$SURFV
 70
     6
  9
$UCSBASE
  2

  9
$UCSNAME
  2

  9
$UCSORG
 10
0.0
 20
0.0
 30
0.0
  9
$UCSXDIR
 10
1.0
 20
0.0
 30
0.0
  9
$UCSYDIR
 10
0.0
 20
1.0
 30
0.0
  9
$UCSORTHOREF
  2

  9
$UCSORTHOVIEW
 70
     0
  9
$UCSORGTOP
 10
0.0
 20
0.0
 30
0.0
  9
$UCSORGBOTTOM
 10
0.0
 20
0.0
 30
0.0
  9
$UCSORGLEFT
 10
0.0
 20
0.0
 30
0.0
  9
$UCSORGRIGHT
 10
0.0
 20
0.0
 30
0.0
  9
$UCSORGFRONT
 10
0.0
 20
0.0
 30
0.0
  9
$UCSORGBACK
 10
0.0
 20
0.0
 30
0.0
  9
$PUCSBASE
  2

  9
$PUCSNAME
  2

  9
$PUCSORG
 10
0.0
 20
0.0
 30
0.0
  9
$PUCSXDIR
 10
1.0
 20
0.0
 30
0.0
  9
$PUCSYDIR
 10
0.0
 20
1.0
 30
0.0
  9
$PUCSORTHOREF
  2

  9
$PUCSORTHOVIEW
 70
     0
  9
$PUCSORGTOP
 10
0.0
 20
0.0
 30
0.0
  9
$PUCSORGBOTTOM
 10
0.0
 20
0.0
 30
0.0
  9
$PUCSORGLEFT
 10
0.0
 20
0.0
 30
0.0
  9
$PUCSORGRIGHT
 10
0.0
 20
0.0
 30
0.0
  9
$PUCSORGFRONT
 10
0.0
 20
0.0
 30
0.0
  9
$PUCSORGBACK
 10
0.0
 20
0.0
 30
0.0
  9
$USERI1
 70
     0
  9
$USERI2
 70
     0
  9
$USERI3
 70
     0
  9
$USERI4
 70
     0
  9
$USERI5
 70
     0
  9
$USERR1
 40
0.0
  9
$USERR2
 40
0.0
  9
$USERR3
 40
0.0
  9
$USERR4
 40
0.0
  9
$USERR5
 40
0.0
  9
$WORLDVIEW
 70
     1
  9
$SHADEDGE
 70
     3
  9
$SHADEDIF
 70
    70
  9
$TILEMODE
 70
     1
  9
$MAXACTVP
 70
    64
  9
$PINSBASE
 10
0.0
 20
0.0
 30
0.0
  9
$PLIMCHECK
 70
     0
  9
$PEXTMIN
 10
1.0000000000E+20
 20
1.0000000000E+20
 30
1.0000000000E+20
  9
$PEXTMAX
 10
-1.0000000000E+20
 20
-1.0000000000E+20
 30
-1.0000000000E+20
  9
$PLIMMIN
 10
0.0
 20
0.0
  9
$PLIMMAX
 10
420.0
 20
297.0
  9
$UNITMODE
 70
     0
  9
$VISRETAIN
 70
     1
  9
$PLINEGEN
 70
     0
  9
$PSLTSCALE
 70
     1
  9
$TREEDEPTH
 70
  3020
  9
$CMLSTYLE
  2
Standard
  9
$CMLJUST
 70
     0
  9
$CMLSCALE
 40
20.0
  9
$PROXYGRAPHICS
 70
     1
  9
$MEASUREMENT
 70
     1
  9
$CELWEIGHT
370
    -1
  9
$ENDCAPS
280
     0
  9
$JOINSTYLE
280
     0
  9
$LWDISPLAY
290
     1
  9
$INSUNITS
 70
     4
  9
$HYPERLINKBASE
  1

  9
$STYLESHEET
  1

  9
$XEDIT
290
     1
  9
$CEPSNTYPE
380
     0
  9
$PSTYLEMODE
290
     1
  9
$FINGERPRINTGUID
  2
{D78406CC-88EC-4FD7-8ECF-3AB95DE0B9AE}
  9
$VERSIONGUID
  2
{FAEB1C32-E019-11D5-929B-00C0DF256EC4}
  9
$EXTNAMES
290
     1
  9
$PSVPSCALE
 40
0.0
  9
$OLESTARTUP
290
     0
  0
ENDSEC
  0
SECTION
  2
CLASSES
  0
CLASS
  1
ACDBDICTIONARYWDFLT
  2
AcDbDictionaryWithDefault
  3
ObjectDBX Classes
 90
        0
280
     0
281
     0
  0
CLASS
  1
VISUALSTYLE
  2
AcDbVisualStyle
  3
ObjectDBX Classes
 90
     4095
280
     0
281
     0
  0
CLASS
  1
MATERIAL
  2
AcDbMaterial
  3
ObjectDBX Classes
 90
     1153
280
     0
281
     0
  0
CLASS
  1
ACDBPLACEHOLDER
  2
AcDbPlaceHolder
  3
ObjectDBX Classes
 90
        0
280
     0
281
     0
  0
CLASS
  1
LAYOUT
  2
AcDbLayout
  3
ObjectDBX Classes
 90
        0
280
     0
281
     0
  0
ENDSEC
  0
SECTION
  2
TABLES
  0
TABLE
  2
VPORT
  5
8
330
0
100
AcDbSymbolTable
 70
     1
  0
VPORT
  5
29
330
8
100
AcDbSymbolTableRecord
100
AcDbViewportTableRecord
  2
*Active
 70
     0
 10
0.0
 20
0.0
 11
1.0
 21
1.0
 12
0.0
 22
0.0
 13
0.0
 23
0.0
 14
10.0
 24
10.0
 15
10.0
 25
10.0
 16
0.0
 26
0.0
 36
1.0
 17
0.0
 27
0.0
 37
0.0
 40
14.28
 41
2.8214285714
 42
50.0
 43
0.0
 44
0.0
 50
0.0
 51
0.0
 71
     0
 72
   100
 73
     1
 74
     3
 75
     0
 76
     0
 77
     0
 78
     0
281
     0
 65
     1
110
0.0
120
0.0
130
0.0
111
1.0
121
0.0
131
0.0
112
0.0
122
1.0
132
0.0
 79
     0
146
0.0
  0
ENDTAB
  0
TABLE
  2
LTYPE
  5
5
330
0
100
AcDbSymbolTable
 70
     6
  0
LTYPE
  5
14
330
5
100
AcDbSymbolTableRecord
100
AcDbLinetypeTableRecord
  2
ByBlock
 70
     0
  3

 72
    65
 73
     0
 40
0.0
  0
LTYPE
  5
15
330
5
100
AcDbSymbolTableRecord
100
AcDbLinetypeTableRecord
  2
ByLayer
 70
     0
  3

 72
    65
 73
     0
 40
0.0
  0
LTYPE
  5
16
330
5
100
AcDbSymbolTableRecord
100
AcDbLinetypeTableRecord
  2
Continuous
 70
     0
  3
Solid line
 72
    65
 73
     0
 40
0.0
  0
LTYPE
  5
3F
330
5
100
AcDbSymbolTableRecord
100
AcDbLinetypeTableRecord
  2
HIDDEN
 70
     0
  3
Hidden __ __ __ __ __ __ __ __ __ __ __ __ __ __
 72
    65
 73
     2
 40
1.905
 49
1.27
 74
     0
 49
-0.635
 74
     0
  0
LTYPE
  5
40
330
5
100
AcDbSymbolTableRecord
100
AcDbLinetypeTableRecord
  2
PHANTOM
 70
     0
  3
Phantom ______  __  __  ______  __  __  ______
 72
    65
 73
     6
 40
12.7
 49
6.35
 74
     0
 49
-1.27
 74
     0
 49
1.27
 74
     0
 49
-1.27
 74
     0
 49
1.27
 74
     0
 49
-1.27
 74
     0
  0
LTYPE
  5
41
330
5
100
AcDbSymbolTableRecord
100
AcDbLinetypeTableRecord
  2
CENTER
 70
     0
  3
Center ____ _ ____ _ ____ _ ____ _ ____ _ ____
 72
    65
 73
     4
 40
10.16
 49
6.35
 74
     0
 49
-1.27
 74
     0
 49
1.27
 74
     0
 49
-1.27
 74
     0
  0
LTYPE
  5
42
330
5
100
AcDbSymbolTableRecord
100
AcDbLinetypeTableRecord
  2
CENTERX2
 70
     0
  3
Center (2x) ________  __  ________  __  _____
 72
    65
 73
     4
 40
20.32
 49
12.7
 74
     0
 49
-2.54
 74
     0
 49
2.54
 74
     0
 49
-2.54
 74
     0
  0
LTYPE
  5
43
330
5
100
AcDbSymbolTableRecord
100
AcDbLinetypeTableRecord
  2
DOT2
 70
     0
  3
Dot (.5x) ........................................
 72
    65
 73
     2
 40
0.635
 49
0.0
 74
     0
 49
-0.635
 74
     0
  0
ENDTAB
  0
TABLE
  2
LAYER
  5
2
330
0
100
AcDbSymbolTable
 70
     1
  0
LAYER
  5
10
330
2
100
AcDbSymbolTableRecord
100
AcDbLayerTableRecord
  2
0
 70
     0
 62
     7
  6
Continuous
370
    -3
390
F
  0
ENDTAB
  0
TABLE
  2
STYLE
  5
3
330
0
100
AcDbSymbolTable
 70
     1
  0
STYLE
  5
11
330
3
100
AcDbSymbolTableRecord
100
AcDbTextStyleTableRecord
  2
Standard
 70
     0
 40
0.0
 41
1.0
 50
0.0
 71
     0
 42
2.5
  3
txt
  4

  0
ENDTAB
  0
TABLE
  2
VIEW
  5
6
330
0
100
AcDbSymbolTable
 70
     0
  0
ENDTAB
  0
TABLE
  2
UCS
  5
7
330
0
100
AcDbSymbolTable
 70
     0
  0
ENDTAB
  0
TABLE
  2
APPID
  5
9
330
0
100
AcDbSymbolTable
 70
     1
  0
APPID
  5
12
330
9
100
AcDbSymbolTableRecord
100
AcDbRegAppTableRecord
  2
ACAD
 70
     0
  0
ENDTAB
  0
TABLE
  2
DIMSTYLE
  5
A
330
0
100
AcDbSymbolTable
 70
     1
100
AcDbDimStyleTable
  0
DIMSTYLE
105
27
330
A
100
AcDbSymbolTableRecord
100
AcDbDimStyleTableRecord
  2
ISO-25
 70
     0
 41
2.5
 42
0.625
 43
3.75
 44
1.25
 73
     0
 74
     0
 77
     1
 78
     8
140
2.5
141
2.5
143
0.0393700787
147
0.625
171
     3
172
     1
178
     0
271
     2
272
     2
274
     3
278
    44
283
     0
284
     8
340
11
  0
ENDTAB
  0
TABLE
  2
BLOCK_RECORD
  5
1
330
0
100
AcDbSymbolTable
 70
     1
  0
BLOCK_RECORD
  5
1F
330
1
100
AcDbSymbolTableRecord
100
AcDbBlockTableRecord
  2
*Model_Space
340
22
  0
BLOCK_RECORD
  5
1B
330
1
100
AcDbSymbolTableRecord
100
AcDbBlockTableRecord
  2
*Paper_Space
340
1E
  0
BLOCK_RECORD
  5
23
330
1
100
AcDbSymbolTableRecord
100
AcDbBlockTableRecord
  2
*Paper_Space0
340
26
  0
ENDTAB
  0
ENDSEC
  0
SECTION
  2
BLOCKS
  0
BLOCK
  5
20
330
1F
100
AcDbEntity
  8
0
100
AcDbBlockBegin
  2
*Model_Space
 70
     0
 10
0.0
 20
0.0
 30
0.0
  3
*Model_Space
  1

  0
ENDBLK
  5
21
330
1F
100
AcDbEntity
  8
0
100
AcDbBlockEnd
  0
BLOCK
  5
1C
330
1B
100
AcDbEntity
 67
     1
  8
0
100
AcDbBlockBegin
  2
*Paper_Space
 70
     0
 10
0.0
 20
0.0
 30
0.0
  3
*Paper_Space
  1

  0
ENDBLK
  5
1D
330
1B
100
AcDbEntity
 67
     1
  8
0
100
AcDbBlockEnd
  0
BLOCK
  5
24
330
23
100
AcDbEntity
  8
0
100
AcDbBlockBegin
  2
*Paper_Space0
 70
     0
 10
0.0
 20
0.0
 30
0.0
  3
*Paper_Space0
  1

  0
ENDBLK
  5
25
330
23
100
AcDbEntity
  8
0
100
AcDbBlockEnd
  0
ENDSEC
  0
SECTION
  2
ENTITIES
  0
SPLINE
  5
45
330
1F
100
AcDbEntity
  8
0
  6
Continuous
 62
     7
370
    15
100
AcDbSpline
210
0.0
220
0.0
230
1.0
 70
     8
 71
     3
 72
    19
 73
    15
 74
     0
 42
0.00000001
 43
0.00000001
 40
0.0
 40
0.0
 40
0.0
 40
0.0
 40
0.1300406298073358
 40
0.2478439232504291
 40
0.3534987336710935
 40
0.4470159636806429
 40
0.5299776550952843
 40
0.5994271483896968
 40
0.658833209320518
 40
0.7063304743025485
 40
0.7836413392296793
 40
0.8517983195898657
 40
0.9229620513136529
 40
1.0
 40
1.0
 40
1.0
 40
1.0
 10
16.25933469730664
 20
2.793740380059114
 30
0.0
 10
16.24110641368578
 20
2.793494688658287
 30
0.0
 10
16.20636519985585
 20
2.793026426386872
 30
0.0
 10
16.15680022931738
 20
2.79284395713278
 30
0.0
 10
16.11240681281778
 20
2.79072006018795
 30
0.0
 10
16.07292563515746
 20
2.788249392556216
 30
0.0
 10
16.03860292958978
 20
2.785068409041957
 30
0.0
 10
16.00907509044116
 20
2.78157530502412
 30
0.0
 10
15.98494895684447
 20
2.776137303692014
 30
0.0
 10
15.9597691389356
 20
2.770209066630237
 30
0.0
 10
15.9352923898186
 20
2.757701906282859
 30
0.0
 10
15.91276301123093
 20
2.736660264212144
 30
0.0
 10
15.8993856762257
 20
2.708401311628253
 30
0.0
 10
15.89831195494639
 20
2.687506366907053
 30
0.0
 10
15.8977538149537
 20
2.67664479182382
 30
0.0
  0
SPLINE
  5
46
330
1F
100
AcDbEntity
  8
0
  6
Continuous
 62
     7
370
    15
100
AcDbSpline
210
0.0
220
0.0
230
1.0
 70
     8
 71
     3
 72
    19
 73
    15
 74
     0
 42
0.00000001
 43
0.00000001
 40
0.0
 40
0.0
 40
0.0
 40
0.0
 40
0.0915922440002778
 40
0.1673869048008569
 40
0.2344485963845426
 40
0.2997626110089481
 40
0.3407766589771535
 40
0.3947033756013241
 40
0.4612796927119676
 40
0.5424865598373305
 40
0.6352282968778935
 40
0.7441291175204808
 40
0.864712921695511
 40
1.0
 40
1.0
 40
1.0
 40
1.0
 10
15.8977538149537
 20
2.67664479182382
 30
0.0
 10
15.89847784435576
 20
2.663294529987944
 30
0.0
 10
15.89980102452151
 20
2.6388966234689
 30
0.0
 10
15.90955159470526
 20
2.605477484274157
 30
0.0
 10
15.92852839651335
 20
2.580963588689942
 30
0.0
 10
15.95063874567781
 20
2.567230214018153
 30
0.0
 10
15.97360667773579
 20
2.562383148840959
 30
0.0
 10
15.99663491019212
 20
2.557428713435383
 30
0.0
 10
16.0260050405438
 20
2.554966734032076
 30
0.0
 10
16.06088258006462
 20
2.551230807496093
 30
0.0
 10
16.1021423645803
 20
2.549960936194252
 30
0.0
 10
16.14907562262242
 20
2.547494337660227
 30
0.0
 10
16.2022919079115
 20
2.547416420327754
 30
0.0
 10
16.23960570521317
 20
2.546935718750997
 30
0.0
 10
16.25933469730664
 20
2.546681556529702
 30
0.0
  0
SPLINE
  5
4B
330
1F
100
AcDbEntity
  8
0
  6
Continuous
 62
     7
370
    15
100
AcDbSpline
210
0.0
220
0.0
230
1.0
 70
     8
 71
     3
 72
    15
 73
    11
 74
     0
 42
0.00000001
 43
0.00000001
 40
0.0
 40
0.0
 40
0.0
 40
0.0
 40
0.2363394278048719
 40
0.4260663326455406
 40
0.5718212630283005
 40
0.6735899671330572
 40
0.7521377293309665
 40
0.8272496308342242
 40
0.9072849038628727
 40
0.9999999999999999
 40
0.9999999999999999
 40
0.9999999999999999
 40
0.9999999999999999
 10
17.56089719730664
 20
2.546681556529702
 30
0.0
 10
17.59113341173207
 20
2.547126676427108
 30
0.0
 10
17.64564244187139
 20
2.547929126547416
 30
0.0
 10
17.71883477447954
 20
2.551600430421521
 30
0.0
 10
17.77420396380535
 20
2.559430882089325
 30
0.0
 10
17.81501293141301
 20
2.570060019281716
 30
0.0
 10
17.84273041955299
 20
2.588362379011594
 30
0.0
 10
17.86199007333701
 20
2.611973045662561
 30
0.0
 10
17.87209547217162
 20
2.642678771899405
 30
0.0
 10
17.87348086374698
 20
2.664781995286069
 30
0.0
 10
17.874224403189
 20
2.67664479182382
 30
0.0
  0
SPLINE
  5
4C
330
1F
100
AcDbEntity
  8
0
  6
Continuous
 62
     7
370
    15
100
AcDbSpline
210
0.0
220
0.0
230
1.0
 70
     8
 71
     3
 72
    15
 73
    11
 74
     0
 42
0.00000001
 43
0.00000001
 40
0.0
 40
0.0
 40
0.0
 40
0.0
 40
0.0968580805565575
 40
0.183366404497631
 40
0.2629025107221358
 40
0.3487150137965677
 40
0.4555884452429003
 40
0.5997793402812309
 40
0.7799717151397079
 40
1.0
 40
1.0
 40
1.0
 40
1.0
 10
17.874224403189
 20
2.67664479182382
 30
0.0
 10
17.87352142886962
 20
2.691136069259384
 30
0.0
 10
17.87219059645317
 20
2.718570160712243
 30
0.0
 10
17.85797688575524
 20
2.756016967769222
 30
0.0
 10
17.8329963182786
 20
2.785021386231079
 30
0.0
 10
17.79735570793232
 20
2.805728680268875
 30
0.0
 10
17.7486571076543
 20
2.819199246996594
 30
0.0
 10
17.68498998823561
 20
2.828813740680686
 30
0.0
 10
17.6038710658297
 20
2.834029566410314
 30
0.0
 10
17.54417545750182
 20
2.834602093757291
 30
0.0
 10
17.51135675613017
 20
2.834916850647349
 30
0.0
  0
SPLINE
  5
50
330
1F
100
AcDbEntity
  8
0
  6
Continuous
 62
     7
370
    15
100
AcDbSpline
210
0.0
220
0.0
230
1.0
 70
     8
 71
     3
 72
    23
 73
    19
 74
     0
 42
0.00000001
 43
0.00000001
 40
0.0
 40
0.0
 40
0.0
 40
0.0
 40
0.0762898931575371
 40
0.143550137323476
 40
0.2015075228152819
 40
0.2504409417252906
 40
0.2969430939576834
 40
0.3469233355045808
 40
0.4015741059761658
 40
0.4612014094662662
 40
0.522608828581038
 40
0.5828222447854366
 40
0.6432071181740694
 40
0.7050384789952722
 40
0.7700067923210206
 40
0.8400761074793708
 40
0.9165075950980925
 40
1.0
 40
1.0
 40
1.0
 40
1.0
 10
17.34279057965959
 20
3.658446262412055
 30
0.0
 10
17.38397833065587
 20
3.658195765839694
 30
0.0
 10
17.46147886272965
 20
3.657724421394534
 30
0.0
 10
17.5701015116003
 20
3.651204787514901
 30
0.0
 10
17.66366621354138
 20
3.641610331138468
 30
0.0
 10
17.74523688552262
 20
3.626691871126236
 30
0.0
 10
17.82060387303061
 20
3.604058243324669
 30
0.0
 10
17.89521801510694
 20
3.57052643244994
 30
0.0
 10
17.97168123248941
 20
3.525415080396441
 30
0.0
 10
18.04967919519066
 20
3.471301560554973
 30
0.0
 10
18.12427744793357
 20
3.407630943458596
 30
0.0
 10
18.19005642278626
 20
3.334216768882529
 30
0.0
 10
18.24506935069844
 20
3.252190090100867
 30
0.0
 10
18.29053255322169
 20
3.161677029327306
 30
0.0
 10
18.32625926441175
 20
3.061287297049786
 30
0.0
 10
18.35091326197172
 20
2.949590265005722
 30
0.0
 10
18.36555003351101
 20
2.826084961683093
 30
0.0
 10
18.36738438145427
 20
2.739738763839839
 30
0.0
 10
18.36834205024782
 20
2.694659497706172
 30
0.0
  0
SPLINE
  5
51
330
1F
100
AcDbEntity
  8
0
  6
Continuous
 62
     7
370
    15
100
AcDbSpline
210
0.0
220
0.0
230
1.0
 70
     8
 71
     3
 72
    27
 73
    23
 74
     0
 42
0.00000001
 43
0.00000001
 40
0.0
 40
0.0
 40
0.0
 40
0.0
 40
0.0768827066329817
 40
0.149368630780812
 40
0.2184192018065356
 40
0.2845845901961643
 40
0.3470254662474253
 40
0.4056808274643015
 40
0.4609584336577493
 40
0.5142295571937016
 40
0.565918527601366
 40
0.6162538237665418
 40
0.6663162152953763
 40
0.7162018819186031
 40
0.7426172246331573
 40
0.7714372327398874
 40
0.8027127504808818
 40
0.8368542128722437
 40
0.8734950470334221
 40
0.9130895311795441
 40
0.955246137388851
 40
1.0
 40
1.0
 40
1.0
 40
1.0
 10
18.36834205024782
 20
2.694659497706172
 30
0.0
 10
18.36735219684511
 20
2.650440202684552
 30
0.0
 10
18.36542909795965
 20
2.564530433885664
 30
0.0
 10
18.35059846921854
 20
2.439574557152425
 30
0.0
 10
18.32548448158113
 20
2.322656305615352
 30
0.0
 10
18.29132533193704
 20
2.214002059765896
 30
0.0
 10
18.24730574828639
 20
2.115526116511607
 30
0.0
 10
18.19706285980142
 20
2.027120974344558
 30
0.0
 10
18.13771997585906
 20
1.951067830412669
 30
0.0
 10
18.07191137630187
 20
1.886139566075032
 30
0.0
 10
17.99981003375302
 20
1.83307123641378
 30
0.0
 10
17.92464326983294
 20
1.788099098861892
 30
0.0
 10
17.84593987035584
 20
1.752010007548814
 30
0.0
 10
17.77686512310731
 20
1.728838777010895
 30
0.0
 10
17.71787846365795
 20
1.715473938451015
 30
0.0
 10
17.6689336442514
 20
1.706497260576279
 30
0.0
 10
17.61527204956493
 20
1.698870286882584
 30
0.0
 10
17.55693486128451
 20
1.692280916209866
 30
0.0
 10
17.49357533033386
 20
1.688310552665289
 30
0.0
 10
17.42562417903269
 20
1.684002795419281
 30
0.0
 10
17.35287772922208
 20
1.682389393530897
 30
0.0
 10
17.30290080424677
 20
1.682116301018771
 30
0.0
 10
17.27716557965958
 20
1.681975674176761
 30
0.0
  0
SPLINE
  5
53
330
1F
100
AcDbEntity
  8
0
  6
Continuous
 62
     7
370
    15
100
AcDbSpline
210
0.0
220
0.0
230
1.0
 70
     8
 71
     3
 72
    27
 73
    23
 74
     0
 42
0.00000001
 43
0.00000001
 40
0.0
 40
0.0
 40
0.0
 40
0.0
 40
0.0563292425467638
 40
0.1095743721338085
 40
0.1601727165900237
 40
0.2074601097478977
 40
0.2527333282614926
 40
0.2949681554334359
 40
0.3349821936223745
 40
0.3728467767822712
 40
0.409389859458426
 40
0.4450438525023007
 40
0.4809813327110873
 40
0.5169210017605259
 40
0.5528387764009561
 40
0.5895750851136914
 40
0.6276385861348944
 40
0.6661642766010483
 40
0.7454338507880953
 40
0.8266687403516034
 40
0.9114405162177585
 40
1.0
 40
1.0
 40
1.0
 40
1.0
 10
16.44269866789488
 20
1.681975674176761
 30
0.0
 10
16.41223453331498
 20
1.682077630143747
 30
0.0
 10
16.35297422253731
 20
1.682275959831182
 30
0.0
 10
16.2665267860879
 20
1.687991538231707
 30
0.0
 10
16.1851080447365
 20
1.695175334329316
 30
0.0
 10
16.10848343535142
 20
1.706344604180393
 30
0.0
 10
16.03684361784743
 20
1.720018544300903
 30
0.0
 10
15.97020636551521
 20
1.737828670023505
 30
0.0
 10
15.90812381835831
 20
1.75712120049349
 30
0.0
 10
15.85116320115362
 20
1.781464208427883
 30
0.0
 10
15.79798135165339
 20
1.808295200060248
 30
0.0
 10
15.74852403598348
 20
1.839645760701435
 30
0.0
 10
15.70224225519109
 20
1.874964596497202
 30
0.0
 10
15.65924108212232
 20
1.914388850341851
 30
0.0
 10
15.6187606190138
 20
1.957024575494161
 30
0.0
 10
15.58214557312631
 20
2.00448547142208
 30
0.0
 10
15.54815635409502
 20
2.055537070602363
 30
0.0
 10
15.50755343932689
 20
2.12947309051
 30
0.0
 10
15.46571762331468
 20
2.228994659566653
 30
0.0
 10
15.42974266547389
 20
2.356895565800282
 30
0.0
 10
15.4073065722757
 20
2.493135749116901
 30
0.0
 10
15.40487733095769
 20
2.586912128606088
 30
0.0
 10
15.40363616789488
 20
2.634824938882644
 30
0.0
  0
SPLINE
  5
54
330
1F
100
AcDbEntity
  8
0
  6
Continuous
 62
     7
370
    15
100
AcDbSpline
210
0.0
220
0.0
230
1.0
 70
     8
 71
     3
 72
    31
 73
    27
 74
     0
 42
0.00000001
 43
0.00000001
 40
0.0
 40
0.0
 40
0.0
 40
0.0
 40
0.0500026203444276
 40
0.0979569365107605
 40
0.1436553114831412
 40
0.187986461298991
 40
0.2303390003713643
 40
0.2713519697396714
 40
0.310928752323404
 40
0.349818179574086
 40
0.3876037103981291
 40
0.4241193830974885
 40
0.460071891402971
 40
0.4949121962534997
 40
0.5293737908908904
 40
0.5637400558999107
 40
0.5979781630720816
 40
0.632336790284584
 40
0.6683330719524309
 40
0.7071954949972702
 40
0.7484127325583474
 40
0.7925436201704867
 40
0.8396322313953966
 40
0.8901725859231244
 40
0.9434840064385759
 40
1.0
 40
1.0
 40
1.0
 40
1.0
 10
15.40363616789488
 20
2.634824938882644
 30
0.0
 10
15.40394582737507
 20
2.664432409796979
 30
0.0
 10
15.4045524614641
 20
2.722434513059214
 30
0.0
 10
15.4110769004272
 20
2.80729482927842
 30
0.0
 10
15.4219560767126
 20
2.888303132437113
 30
0.0
 10
15.43738021546397
 20
2.965196090914562
 30
0.0
 10
15.45658456155385
 20
3.038362182761166
 30
0.0
 10
15.48018359588229
 20
3.107314821233589
 30
0.0
 10
15.50899201040316
 20
3.171981915984358
 30
0.0
 10
15.54072911485766
 20
3.233127477372044
 30
0.0
 10
15.57698395613667
 20
3.289578091246368
 30
0.0
 10
15.61575274817962
 20
3.342135673953113
 30
0.0
 10
15.65724730668386
 20
3.39036164847871
 30
0.0
 10
15.70220303549932
 20
3.433596582511899
 30
0.0
 10
15.74911018914605
 20
3.473281523033603
 30
0.0
 10
15.79946349730068
 20
3.507902085288189
 30
0.0
 10
15.85235975708401
 20
3.538338943864886
 30
0.0
 10
15.90865919062941
 20
3.564282073815681
 30
0.0
 10
15.96920678378482
 20
3.587140075769456
 30
0.0
 10
16.03533127205392
 20
3.606094344758823
 30
0.0
 10
16.10715049865915
 20
3.622001888209695
 30
0.0
 10
16.18439485363527
 20
3.635645203667246
 30
0.0
 10
16.26775720932456
 20
3.645605143309119
 30
0.0
 10
16.35679149124699
 20
3.653369695412136
 30
0.0
 10
16.45165871884524
 20
3.657894090742773
 30
0.0
 10
16.51668282338952
 20
3.658258659362743
 30
0.0
 10
16.55014352083606
 20
3.658446262412056
 30
0.0
  0
SPLINE
  5
56
330
1F
100
AcDbEntity
  8
0
  6
Continuous
 62
     7
370
    15
100
AcDbSpline
210
0.0
220
0.0
230
1.0
 70
     8
 71
     3
 72
     9
 73
     5
 74
     0
 42
0.00000001
 43
0.00000001
 40
0.0
 40
0.0
 40
0.0
 40
0.0
 40
0.5385660103812454
 40
0.9999999999999999
 40
0.9999999999999999
 40
0.9999999999999999
 40
0.9999999999999999
 10
16.30758837377723
 20
0.4055050859414674
 30
0.0
 10
16.30806539255343
 20
0.4175135300469705
 30
0.0
 10
16.3089511127196
 20
0.4398106001814235
 30
0.0
 10
16.30933936707833
 20
0.462121734791364
 30
0.0
 10
16.30951852083606
 20
0.4724168506473498
 30
0.0
  0
SPLINE
  5
57
330
1F
100
AcDbEntity
  8
0
  6
Continuous
 62
     7
370
    15
100
AcDbSpline
210
0.0
220
0.0
230
1.0
 70
     8
 71
     3
 72
    15
 73
    11
 74
     0
 42
0.00000001
 43
0.00000001
 40
0.0
 40
0.0
 40
0.0
 40
0.0
 40
0.1267545043472878
 40
0.2337762247735903
 40
0.3286809787157346
 40
0.4151818006256735
 40
0.5138809680364346
 40
0.6403391161568427
 40
0.8031376051133321
 40
1.0
 40
1.0
 40
1.0
 40
1.0
 10
16.30951852083605
 20
0.4724168506473498
 30
0.0
 10
16.30890884303276
 20
0.4917780881434913
 30
0.0
 10
16.30778440034794
 20
0.5274864602609175
 30
0.0
 10
16.29648912361586
 20
0.576833657264283
 30
0.0
 10
16.27643082823313
 20
0.6164694848744654
 30
0.0
 10
16.24728235432311
 20
0.6488131706606316
 30
0.0
 10
16.20373205821191
 20
0.6700054792084085
 30
0.0
 10
16.14602035957177
 20
0.683835992999071
 30
0.0
 10
16.07212482645911
 20
0.6921589441207333
 30
0.0
 10
16.01723061529334
 20
0.6931809690190227
 30
0.0
 10
15.98718396201252
 20
0.6937403800591144
 30
0.0
  0
SPLINE
  5
59
330
1F
100
AcDbEntity
  8
0
  6
Continuous
 62
     7
370
    15
100
AcDbSpline
210
0.0
220
0.0
230
1.0
 70
     8
 71
     3
 72
    15
 73
    11
 74
     0
 42
0.00000001
 43
0.00000001
 40
0.0
 40
0.0
 40
0.0
 40
0.0
 40
0.169001025414694
 40
0.306954591810015
 40
0.4174865739857215
 40
0.5050008346796349
 40
0.5917776439312644
 40
0.7010700633287913
 40
0.836231330052894
 40
1.0
 40
1.0
 40
1.0
 40
1.0
 10
15.69508837377723
 20
0.6937403800591144
 30
0.0
 10
15.66736960761125
 20
0.6934183432169683
 30
0.0
 10
15.61702433584099
 20
0.6928334314557159
 30
0.0
 10
15.5492678975885
 20
0.6819389732440804
 30
0.0
 10
15.49632808741942
 20
0.6659874288489339
 30
0.0
 10
15.45610683944435
 20
0.6400916676046449
 30
0.0
 10
15.43103910742293
 20
0.5997332455666382
 30
0.0
 10
15.41460239821952
 20
0.547785865360273
 30
0.0
 10
15.40488083384779
 20
0.4813406709188697
 30
0.0
 10
15.40407670798884
 20
0.4323465172938962
 30
0.0
 10
15.40363616789488
 20
0.4055050859414674
 30
0.0
  0
SPLINE
  5
5C
330
1F
100
AcDbEntity
  8
0
  6
Continuous
 62
     7
370
    15
100
AcDbSpline
210
0.0
220
0.0
230
1.0
 70
     8
 71
     3
 72
    31
 73
    27
 74
     0
 42
0.00000001
 43
0.00000001
 40
0.0
 40
0.0
 40
0.0
 40
0.0
 40
0.0534161478342747
 40
0.1034808655949278
 40
0.1501990587977644
 40
0.1943398813778832
 40
0.2348850525341204
 40
0.2729219521448135
 40
0.3078158021067277
 40
0.3396564245738537
 40
0.3980631758604765
 40
0.4508986961480586
 40
0.4991074761496527
 40
0.5435915637548516
 40
0.5868909151776518
 40
0.6301150401144555
 40
0.6737318456805509
 40
0.7192021942831682
 40
0.7437681106937335
 40
0.7712252672555666
 40
0.8018817896284701
 40
0.8354950711023124
 40
0.8720523980747866
 40
0.9115940301706574
 40
0.9541068495975591
 40
0.9999999999999999
 40
0.9999999999999999
 40
0.9999999999999999
 40
0.9999999999999999
 10
14.82716557965958
 20
0.4235197918238204
 30
0.0
 10
14.82716062965517
 20
0.4539771028271424
 30
0.0
 10
14.82715104021896
 20
0.5129807755759912
 30
0.0
 10
14.83072271757099
 20
0.5985592572240132
 30
0.0
 10
14.83529042778632
 20
0.6787655844170838
 30
0.0
 10
14.84040065872853
 20
0.7535367315327312
 30
0.0
 10
14.84933116377342
 20
0.8229539954027051
 30
0.0
 10
14.8585123878398
 20
0.8870009276583118
 30
0.0
 10
14.86998917403397
 20
0.9456613870067292
 30
0.0
 10
14.88775741865657
 20
1.014781354050458
 30
0.0
 10
14.9136925397688
 20
1.092313910359808
 30
0.0
 10
14.95243922762357
 20
1.174737076884503
 30
0.0
 10
14.99641586078716
 20
1.245477641037244
 30
0.0
 10
15.04863317121818
 20
1.30330725041537
 30
0.0
 10
15.10667285553787
 20
1.350700909699651
 30
0.0
 10
15.17017874058254
 20
1.389485821027779
 30
0.0
 10
15.23932347495216
 20
1.420191914165244
 30
0.0
 10
15.30178026472578
 20
1.438196968889214
 30
0.0
 10
15.35632952572071
 20
1.448870670319224
 30
0.0
 10
15.40278464512868
 20
1.457022680736163
 30
0.0
 10
15.45485787854456
 20
1.462115880096892
 30
0.0
 10
15.51207849043365
 20
1.467626152391254
 30
0.0
 10
15.5745454413709
 20
1.471037601246687
 30
0.0
 10
15.64207589390556
 20
1.474735615283334
 30
0.0
 10
15.71503304426241
 20
1.475502947432862
 30
0.0
 10
15.76543246745727
 20
1.475891576699394
 30
0.0
 10
15.79159572671841
 20
1.476093321235585
 30
0.0
  0
SPLINE
  5
5E
330
1F
100
AcDbEntity
  8
0
  6
Continuous
 62
     7
370
    15
100
AcDbSpline
210
0.0
220
0.0
230
1.0
 70
     8
 71
     3
 72
    23
 73
    19
 74
     0
 42
0.00000001
 43
0.00000001
 40
0.0
 40
0.0
 40
0.0
 40
0.0
 40
0.0592476634380613
 40
0.1142398513825066
 40
0.1655008794871717
 40
0.2126692442325469
 40
0.2558698721013397
 40
0.2951523186192938
 40
0.331119630493197
 40
0.3636797446667622
 40
0.4253750367021904
 40
0.4882665929258607
 40
0.554864868670806
 40
0.6272959153512919
 40
0.7072216710082017
 40
0.7953128694579666
 40
0.8924402159350815
 40
1.0
 40
1.0
 40
1.0
 40
1.0
 10
16.09205528554194
 20
1.476093321235585
 30
0.0
 10
16.1186523588129
 20
1.475822349131311
 30
0.0
 10
16.16993616515003
 20
1.475299867549342
 30
0.0
 10
16.24416813721525
 20
1.471990740028289
 30
0.0
 10
16.31288514499464
 20
1.467163187853058
 30
0.0
 10
16.37604140286269
 20
1.459566904451375
 30
0.0
 10
16.43336287735811
 20
1.449284349100947
 30
0.0
 10
16.48511910118204
 20
1.437033260862559
 30
0.0
 10
16.53160058563124
 20
1.423323593363649
 30
0.0
 10
16.58569384280656
 20
1.400961635196428
 30
0.0
 10
16.64697414037142
 20
1.364985744627104
 30
0.0
 10
16.71034557297481
 20
1.306188819064158
 30
0.0
 10
16.76413324034374
 20
1.232642331431275
 30
0.0
 10
16.80838892602036
 20
1.144458751668838
 30
0.0
 10
16.84336422281206
 20
1.042062903934259
 30
0.0
 10
16.86890829987934
 20
0.9255721873472738
 30
0.0
 10
16.88318390302835
 20
0.7946771823142453
 30
0.0
 10
16.88502279894264
 20
0.702782978000426
 30
0.0
 10
16.88598910907135
 20
0.6544940565297027
 30
0.0
  0
SPLINE
  5
70
330
1F
100
AcDbEntity
  8
0
  6
Continuous
 62
     7
370
    15
100
AcDbSpline
210
0.0
220
0.0
230
1.0
 70
     8
 71
     3
 72
    11
 73
     7
 74
     0
 42
0.00000001
 43
0.00000001
 40
0.0
 40
0.0
 40
0.0
 40
0.0
 40
0.220436429229228
 40
0.4609125338429312
 40
0.720436462932265
 40
1.0
 40
1.0
 40
1.0
 40
1.0
 10
14.82716557965958
 20
-2.528318443470297
 30
0.0
 10
14.88142584337011
 20
-2.518891938420295
 30
0.0
 10
14.99487912203756
 20
-2.499181973315745
 30
0.0
 10
15.1721794741372
 20
-2.468173726811811
 30
0.0
 10
15.36418654660332
 20
-2.435521799564438
 30
0.0
 10
15.49692970001545
 20
-2.412742023989666
 30
0.0
 10
15.56576852083605
 20
-2.400928737587944
 30
0.0
  0
LINE
  5
7D
330
1F
100
AcDbEntity
  8
0
  6
Continuous
 62
     7
370
    15
100
AcDbLine
 10
16.4742244032
 20
2.7937403801
 30
0.0
 11
16.2593346973
 21
2.7937403801
 31
0.0
  0
LINE
  5
7E
330
1F
100
AcDbEntity
  8
0
  6
Continuous
 62
     7
370
    15
100
AcDbLine
 10
16.2593346973
 20
2.5466815565
 30
0.0
 11
16.4742244032
 21
2.5466815565
 31
0.0
  0
LINE
  5
7F
330
1F
100
AcDbEntity
  8
0
  6
Continuous
 62
     7
370
    15
100
AcDbLine
 10
16.4742244032
 20
2.5466815565
 30
0.0
 11
16.4742244032
 21
2.7937403801
 31
0.0
  0
LINE
  5
80
330
1F
100
AcDbEntity
  8
0
  6
Continuous
 62
     7
370
    15
100
AcDbLine
 10
16.9271655797
 20
3.6584462624
 30
0.0
 11
16.9271655797
 21
2.5466815565
 31
0.0
  0
LINE
  5
81
330
1F
100
AcDbEntity
  8
0
  6
Continuous
 62
     7
370
    15
100
AcDbLine
 10
16.9271655797
 20
2.5466815565
 30
0.0
 11
17.5608971973
 21
2.5466815565
 31
0.0
  0
LINE
  5
82
330
1F
100
AcDbEntity
  8
0
  6
Continuous
 62
     7
370
    15
100
AcDbLine
 10
17.5113567561
 20
2.8349168506
 30
0.0
 11
17.1330479326
 21
2.8349168506
 31
0.0
  0
LINE
  5
83
330
1F
100
AcDbEntity
  8
0
  6
Continuous
 62
     7
370
    15
100
AcDbLine
 10
17.1330479326
 20
2.8349168506
 30
0.0
 11
17.1330479326
 21
3.6584462624
 31
0.0
  0
LINE
  5
84
330
1F
100
AcDbEntity
  8
0
  6
Continuous
 62
     7
370
    15
100
AcDbLine
 10
17.1330479326
 20
3.6584462624
 30
0.0
 11
17.3427905797
 21
3.6584462624
 31
0.0
  0
LINE
  5
85
330
1F
100
AcDbEntity
  8
0
  6
Continuous
 62
     7
370
    15
100
AcDbLine
 10
17.2771655797
 20
1.6819756742
 30
0.0
 11
16.4426986679
 21
1.6819756742
 31
0.0
  0
LINE
  5
86
330
1F
100
AcDbEntity
  8
0
  6
Continuous
 62
     7
370
    15
100
AcDbLine
 10
16.5501435208
 20
3.6584462624
 30
0.0
 11
16.9271655797
 21
3.6584462624
 31
0.0
  0
LINE
  5
87
330
1F
100
AcDbEntity
  8
0
  6
Continuous
 62
     7
370
    15
100
AcDbLine
 10
15.987183962
 20
0.6937403801
 30
0.0
 11
15.6950883738
 21
0.6937403801
 31
0.0
  0
LINE
  5
88
330
1F
100
AcDbEntity
  8
0
  6
Continuous
 62
     7
370
    15
100
AcDbLine
 10
15.4036361679
 20
0.4055050859
 30
0.0
 11
16.3075883738
 21
0.4055050859
 31
0.0
  0
LINE
  5
89
330
1F
100
AcDbEntity
  8
0
  6
Continuous
 62
     7
370
    15
100
AcDbLine
 10
14.8271655797
 20
-0.500377267
 30
0.0
 11
14.8271655797
 21
0.4235197918
 31
0.0
  0
LINE
  5
8A
330
1F
100
AcDbEntity
  8
0
  6
Continuous
 62
     7
370
    15
100
AcDbLine
 10
15.7915957267
 20
1.4760933212
 30
0.0
 11
16.0920552855
 21
1.4760933212
 31
0.0
  0
LINE
  5
8B
330
1F
100
AcDbEntity
  8
0
  6
Continuous
 62
     7
370
    15
100
AcDbLine
 10
16.8859891091
 20
0.6544940565
 30
0.0
 11
16.8859891091
 21
0.4055050859
 31
0.0
  0
LINE
  5
8C
330
1F
100
AcDbEntity
  8
0
  6
Continuous
 62
     7
370
    15
100
AcDbLine
 10
16.8859891091
 20
0.4055050859
 30
0.0
 11
18.3271655797
 21
0.4055050859
 31
0.0
  0
LINE
  5
8D
330
1F
100
AcDbEntity
  8
0
  6
Continuous
 62
     7
370
    15
100
AcDbLine
 10
18.3271655797
 20
0.4055050859
 30
0.0
 11
18.3271655797
 21
-0.500377267
 31
0.0
  0
LINE
  5
8E
330
1F
100
AcDbEntity
  8
0
  6
Continuous
 62
     7
370
    15
100
AcDbLine
 10
18.3271655797
 20
-0.500377267
 30
0.0
 11
14.8271655797
 21
-0.500377267
 31
0.0
  0
LINE
  5
8F
330
1F
100
AcDbEntity
  8
0
  6
Continuous
 62
     7
370
    15
100
AcDbLine
 10
14.8271655797
 20
-0.8297890317
 30
0.0
 11
18.3271655797
 21
-0.8297890317
 31
0.0
  0
LINE
  5
90
330
1F
100
AcDbEntity
  8
0
  6
Continuous
 62
     7
370
    15
100
AcDbLine
 10
18.3271655797
 20
-0.8297890317
 30
0.0
 11
18.3271655797
 21
-1.6121419729
 31
0.0
  0
LINE
  5
91
330
1F
100
AcDbEntity
  8
0
  6
Continuous
 62
     7
370
    15
100
AcDbLine
 10
18.3271655797
 20
-1.6121419729
 30
0.0
 11
15.9640221973
 21
-1.6327302082
 31
0.0
  0
LINE
  5
92
330
1F
100
AcDbEntity
  8
0
  6
Continuous
 62
     7
370
    15
100
AcDbLine
 10
15.9640221973
 20
-1.6327302082
 30
0.0
 11
18.3271655797
 21
-1.9415537376
 31
0.0
  0
LINE
  5
93
330
1F
100
AcDbEntity
  8
0
  6
Continuous
 62
     7
370
    15
100
AcDbLine
 10
18.3271655797
 20
-1.9415537376
 30
0.0
 11
18.3271655797
 21
-2.5592007964
 31
0.0
  0
LINE
  5
94
330
1F
100
AcDbEntity
  8
0
  6
Continuous
 62
     7
370
    15
100
AcDbLine
 10
18.3271655797
 20
-2.5592007964
 30
0.0
 11
16.0051986679
 21
-2.8680243258
 31
0.0
  0
LINE
  5
95
330
1F
100
AcDbEntity
  8
0
  6
Continuous
 62
     7
370
    15
100
AcDbLine
 10
16.0051986679
 20
-2.8680243258
 30
0.0
 11
18.3271655797
 21
-2.8886125611
 31
0.0
  0
LINE
  5
96
330
1F
100
AcDbEntity
  8
0
  6
Continuous
 62
     7
370
    15
100
AcDbLine
 10
18.3271655797
 20
-2.8886125611
 30
0.0
 11
18.3271655797
 21
-3.6709655023
 31
0.0
  0
LINE
  5
97
330
1F
100
AcDbEntity
  8
0
  6
Continuous
 62
     7
370
    15
100
AcDbLine
 10
18.3271655797
 20
-3.6709655023
 30
0.0
 11
14.8271655797
 21
-3.6709655023
 31
0.0
  0
LINE
  5
98
330
1F
100
AcDbEntity
  8
0
  6
Continuous
 62
     7
370
    15
100
AcDbLine
 10
14.8271655797
 20
-3.6709655023
 30
0.0
 11
14.8271655797
 21
-2.5283184435
 31
0.0
  0
LINE
  5
99
330
1F
100
AcDbEntity
  8
0
  6
Continuous
 62
     7
370
    15
100
AcDbLine
 10
15.5657685208
 20
-2.4009287376
 30
0.0
 11
16.4613567561
 21
-2.250377267
 31
0.0
  0
LINE
  5
9A
330
1F
100
AcDbEntity
  8
0
  6
Continuous
 62
     7
370
    15
100
AcDbLine
 10
16.4613567561
 20
-2.250377267
 30
0.0
 11
14.8271655797
 21
-2.0136125611
 31
0.0
  0
LINE
  5
9B
330
1F
100
AcDbEntity
  8
0
  6
Continuous
 62
     7
370
    15
100
AcDbLine
 10
14.8271655797
 20
-2.0136125611
 30
0.0
 11
14.8271655797
 21
-0.8297890317
 31
0.0
  0
LINE
  5
9C
330
1F
100
AcDbEntity
  8
0
  6
Continuous
 62
     7
370
    15
100
AcDbLine
 10
-12.25
 20
3.5
 30
0.0
 11
-12.25
 21
-3.5
 31
0.0
  0
LINE
  5
9D
330
1F
100
AcDbEntity
  8
0
  6
Continuous
 62
     7
370
    15
100
AcDbLine
 10
-12.25
 20
-3.5
 30
0.0
 11
12.25
 21
-3.5
 31
0.0
  0
LINE
  5
9E
330
1F
100
AcDbEntity
  8
0
  6
Continuous
 62
     7
370
    15
100
AcDbLine
 10
12.25
 20
-3.5
 30
0.0
 11
12.25
 21
3.5
 31
0.0
  0
LINE
  5
9F
330
1F
100
AcDbEntity
  8
0
  6
Continuous
 62
     7
370
    15
100
AcDbLine
 10
12.25
 20
3.5
 30
0.0
 11
-12.25
 21
3.5
 31
0.0
  0
LINE
  5
A0
330
1F
100
AcDbEntity
  8
0
  6
Continuous
 62
     7
370
    15
100
AcDbLine
 10
-19.75
 20
5.5
 30
0.0
 11
-19.75
 21
-5.5
 31
0.0
  0
LINE
  5
A1
330
1F
100
AcDbEntity
  8
0
  6
Continuous
 62
     7
370
    15
100
AcDbLine
 10
18.25
 20
7.0
 30
0.0
 11
-18.25
 21
7.0
 31
0.0
  0
LINE
  5
A2
330
1F
100
AcDbEntity
  8
0
  6
Continuous
 62
     7
370
    15
100
AcDbLine
 10
19.75
 20
-5.5
 30
0.0
 11
19.75
 21
5.5
 31
0.0
  0
LINE
  5
A3
330
1F
100
AcDbEntity
  8
0
  6
Continuous
 62
     7
370
    15
100
AcDbLine
 10
-18.25
 20
-7.0
 30
0.0
 11
18.25
 21
-7.0
 31
0.0
  0
ARC
  5
A4
330
1F
100
AcDbEntity
  8
0
  6
Continuous
 62
     7
370
    15
100
AcDbCircle
 10
-18.25
 20
-5.5
 30
0.0
 40
1.499999999999996
100
AcDbArc
 50
180.0
 51
270.0
  0
ARC
  5
A5
330
1F
100
AcDbEntity
  8
0
  6
Continuous
 62
     7
370
    15
100
AcDbCircle
 10
-18.25
 20
5.5
 30
0.0
 40
1.500000000000004
100
AcDbArc
 50
90.0
 51
180.0
  0
ARC
  5
A6
330
1F
100
AcDbEntity
  8
0
  6
Continuous
 62
     7
370
    15
100
AcDbCircle
 10
18.25
 20
5.5
 30
0.0
 40
1.5
100
AcDbArc
 50
0.0
 51
90.0
  0
ARC
  5
A7
330
1F
100
AcDbEntity
  8
0
  6
Continuous
 62
     7
370
    15
100
AcDbCircle
 10
18.25
 20
-5.5
 30
0.0
 40
1.500000000000007
100
AcDbArc
 50
270.0
 51
0.0
  0
ENDSEC
  0
SECTION
  2
OBJECTS
  0
DICTIONARY
  5
C
330
0
100
AcDbDictionary
281
     1
  3
ACAD_GROUP
350
D
  3
ACAD_LAYOUT
350
1A
  3
ACAD_MLINESTYLE
350
17
  3
ACAD_PLOTSETTINGS
350
19
  3
ACAD_PLOTSTYLENAME
350
E
  0
DICTIONARY
  5
D
102
{ACAD_REACTORS
330
C
102
}
330
C
100
AcDbDictionary
281
     1
  0
DICTIONARY
  5
1A
102
{ACAD_REACTORS
330
C
102
}
330
C
100
AcDbDictionary
281
     1
  3
Layout1
350
1E
  3
Layout2
350
26
  3
Model
350
22
  0
DICTIONARY
  5
17
102
{ACAD_REACTORS
330
C
102
}
330
C
100
AcDbDictionary
281
     1
  3
Standard
350
18
  0
DICTIONARY
  5
19
102
{ACAD_REACTORS
330
C
102
}
330
C
100
AcDbDictionary
281
     1
  0
ACDBDICTIONARYWDFLT
  5
E
102
{ACAD_REACTORS
330
C
102
}
330
C
100
AcDbDictionary
281
     1
  3
Normal
350
F
100
AcDbDictionaryWithDefault
340
F
  0
LAYOUT
  5
1E
102
{ACAD_REACTORS
330
1A
102
}
330
1A
100
AcDbPlotSettings
  1

  2
none_device
  4

  6

 40
0.0
 41
0.0
 42
0.0
 43
0.0
 44
0.0
 45
0.0
 46
0.0
 47
0.0
 48
0.0
 49
0.0
140
0.0
141
0.0
142
1.0
143
1.0
 70
   688
 72
     0
 73
     0
 74
     5
  7

 75
    16
147
1.0
148
0.0
149
0.0
100
AcDbLayout
  1
Layout1
 70
     1
 71
     1
 10
0.0
 20
0.0
 11
420.0
 21
297.0
 12
0.0
 22
0.0
 32
0.0
 14
1.0000000000E+20
 24
1.0000000000E+20
 34
1.0000000000E+20
 15
-1.0000000000E+20
 25
-1.0000000000E+20
 35
-1.0000000000E+20
146
0.0
 13
0.0
 23
0.0
 33
0.0
 16
1.0
 26
0.0
 36
0.0
 17
0.0
 27
1.0
 37
0.0
 76
     0
330
1B
  0
LAYOUT
  5
26
102
{ACAD_REACTORS
330
1A
102
}
330
1A
100
AcDbPlotSettings
  1

  2
none_device
  4

  6

 40
0.0
 41
0.0
 42
0.0
 43
0.0
 44
0.0
 45
0.0
 46
0.0
 47
0.0
 48
0.0
 49
0.0
140
0.0
141
0.0
142
1.0
143
1.0
 70
   688
 72
     0
 73
     0
 74
     5
  7

 75
    16
147
1.0
148
0.0
149
0.0
100
AcDbLayout
  1
Layout2
 70
     1
 71
     2
 10
0.0
 20
0.0
 11
0.0
 21
0.0
 12
0.0
 22
0.0
 32
0.0
 14
0.0
 24
0.0
 34
0.0
 15
0.0
 25
0.0
 35
0.0
146
0.0
 13
0.0
 23
0.0
 33
0.0
 16
1.0
 26
0.0
 36
0.0
 17
0.0
 27
1.0
 37
0.0
 76
     0
330
23
  0
LAYOUT
  5
22
102
{ACAD_REACTORS
330
1A
102
}
330
1A
100
AcDbPlotSettings
  1

  2
none_device
  4
ANSI_A_(11.00_x_8.50_Inches)
  6

 40
6.35
 41
19.05
 42
6.35000508
 43
19.05000254
 44
279.4
 45
215.9
 46
133.34999746
 47
88.89999873
 48
0.0
 49
0.0
140
0.0
141
0.0
142
0.2756962025
143
1.0
 70
  1696
 72
     0
 73
     0
 74
     0
  7

 75
     0
147
0.0179189148
148
0.0
149
0.0
100
AcDbLayout
  1
Model
 70
     1
 71
     0
 10
0.0
 20
0.0
 11
420.0
 21
297.0
 12
0.0
 22
0.0
 32
0.0
 14
-19.75
 24
-7.0
 34
0.0
 15
19.75
 25
7.0
 35
0.0
146
0.0
 13
0.0
 23
0.0
 33
0.0
 16
1.0
 26
0.0
 36
0.0
 17
0.0
 27
1.0
 37
0.0
 76
     0
330
1F
331
29
  0
MLINESTYLE
  5
18
102
{ACAD_REACTORS
330
17
102
}
330
17
100
AcDbMlineStyle
  2
Standard
 70
     0
  3

 62
   256
 51
90.0
 52
90.0
 71
     2
 49
0.5
 62
   256
  6
BYLAYER
 49
-0.5
 62
   256
  6
BYLAYER
  0
ACDBPLACEHOLDER
  5
F
102
{ACAD_REACTORS
330
E
102
}
330
E
  0
ENDSEC
  0
EOF
