%TF.GenerationSoftware,KiCad,Pcbnew,9.0.2*%
%TF.CreationDate,2025-09-16T10:35:50+02:00*%
%TF.ProjectId,CeB_MP,4365425f-4d50-42e6-9b69-6361645f7063,rev?*%
%TF.SameCoordinates,Original*%
%TF.FileFunction,Copper,L2,Bot*%
%TF.FilePolarity,Positive*%
%FSLAX46Y46*%
G04 Gerber Fmt 4.6, Leading zero omitted, Abs format (unit mm)*
G04 Created by KiCad (PCBNEW 9.0.2) date 2025-09-16 10:35:50*
%MOMM*%
%LPD*%
G01*
G04 APERTURE LIST*
G04 Aperture macros list*
%AMRoundRect*
0 Rectangle with rounded corners*
0 $1 Rounding radius*
0 $2 $3 $4 $5 $6 $7 $8 $9 X,Y pos of 4 corners*
0 Add a 4 corners polygon primitive as box body*
4,1,4,$2,$3,$4,$5,$6,$7,$8,$9,$2,$3,0*
0 Add four circle primitives for the rounded corners*
1,1,$1+$1,$2,$3*
1,1,$1+$1,$4,$5*
1,1,$1+$1,$6,$7*
1,1,$1+$1,$8,$9*
0 Add four rect primitives between the rounded corners*
20,1,$1+$1,$2,$3,$4,$5,0*
20,1,$1+$1,$4,$5,$6,$7,0*
20,1,$1+$1,$6,$7,$8,$9,0*
20,1,$1+$1,$8,$9,$2,$3,0*%
%AMOutline5P*
0 Free polygon, 5 corners , with rotation*
0 The origin of the aperture is its center*
0 number of corners: always 5*
0 $1 to $10 corner X, Y*
0 $11 Rotation angle, in degrees counterclockwise*
0 create outline with 5 corners*
4,1,5,$1,$2,$3,$4,$5,$6,$7,$8,$9,$10,$1,$2,$11*%
%AMOutline6P*
0 Free polygon, 6 corners , with rotation*
0 The origin of the aperture is its center*
0 number of corners: always 6*
0 $1 to $12 corner X, Y*
0 $13 Rotation angle, in degrees counterclockwise*
0 create outline with 6 corners*
4,1,6,$1,$2,$3,$4,$5,$6,$7,$8,$9,$10,$11,$12,$1,$2,$13*%
%AMOutline7P*
0 Free polygon, 7 corners , with rotation*
0 The origin of the aperture is its center*
0 number of corners: always 7*
0 $1 to $14 corner X, Y*
0 $15 Rotation angle, in degrees counterclockwise*
0 create outline with 7 corners*
4,1,7,$1,$2,$3,$4,$5,$6,$7,$8,$9,$10,$11,$12,$13,$14,$1,$2,$15*%
%AMOutline8P*
0 Free polygon, 8 corners , with rotation*
0 The origin of the aperture is its center*
0 number of corners: always 8*
0 $1 to $16 corner X, Y*
0 $17 Rotation angle, in degrees counterclockwise*
0 create outline with 8 corners*
4,1,8,$1,$2,$3,$4,$5,$6,$7,$8,$9,$10,$11,$12,$13,$14,$15,$16,$1,$2,$17*%
G04 Aperture macros list end*
%TA.AperFunction,ComponentPad*%
%ADD10R,1.650000X1.650000*%
%TD*%
%TA.AperFunction,ComponentPad*%
%ADD11C,1.650000*%
%TD*%
%TA.AperFunction,ComponentPad*%
%ADD12Outline5P,-1.250000X0.750000X-0.750000X1.250000X1.250000X1.250000X1.250000X-1.250000X-1.250000X-1.250000X180.000000*%
%TD*%
%TA.AperFunction,ComponentPad*%
%ADD13C,2.500000*%
%TD*%
%TA.AperFunction,ComponentPad*%
%ADD14Outline5P,-1.250000X0.750000X-0.750000X1.250000X1.250000X1.250000X1.250000X-1.250000X-1.250000X-1.250000X0.000000*%
%TD*%
%TA.AperFunction,ComponentPad*%
%ADD15RoundRect,0.250000X-0.550000X-0.550000X0.550000X-0.550000X0.550000X0.550000X-0.550000X0.550000X0*%
%TD*%
%TA.AperFunction,ComponentPad*%
%ADD16C,1.600000*%
%TD*%
%TA.AperFunction,ComponentPad*%
%ADD17C,1.540000*%
%TD*%
%TA.AperFunction,ComponentPad*%
%ADD18RoundRect,0.250000X-0.650000X0.650000X-0.650000X-0.650000X0.650000X-0.650000X0.650000X0.650000X0*%
%TD*%
%TA.AperFunction,ComponentPad*%
%ADD19C,1.800000*%
%TD*%
%TA.AperFunction,ComponentPad*%
%ADD20RoundRect,0.250000X0.550000X-0.550000X0.550000X0.550000X-0.550000X0.550000X-0.550000X-0.550000X0*%
%TD*%
%TA.AperFunction,ViaPad*%
%ADD21C,1.000000*%
%TD*%
%TA.AperFunction,Conductor*%
%ADD22C,0.700000*%
%TD*%
G04 APERTURE END LIST*
D10*
%TO.P,3V3,1,Pin_1*%
%TO.N,+3.3V*%
X120730000Y-138800000D03*
D11*
%TO.P,3V3,2,Pin_2*%
%TO.N,GND*%
X123270000Y-138800000D03*
%TD*%
D12*
%TO.P,U5,1,IN-*%
%TO.N,GND*%
X150200000Y-100400000D03*
D13*
%TO.P,U5,2,IN+*%
%TO.N,+12V*%
X141700000Y-100400000D03*
%TO.P,U5,3,OUT-*%
%TO.N,GND*%
X150200000Y-114900000D03*
%TO.P,U5,4,OUT+*%
%TO.N,+3.3V*%
X141800000Y-114900000D03*
%TD*%
D12*
%TO.P,U4,1,IN-*%
%TO.N,GND*%
X136200001Y-100300000D03*
D13*
%TO.P,U4,2,IN+*%
%TO.N,+12V*%
X127700001Y-100300000D03*
%TO.P,U4,3,OUT-*%
%TO.N,GND*%
X136200001Y-114700000D03*
%TO.P,U4,4,OUT+*%
%TO.N,+5V*%
X127800001Y-114700000D03*
%TD*%
D14*
%TO.P,U3,1,IN-*%
%TO.N,GND*%
X108000000Y-114800000D03*
X111100000Y-114800000D03*
D13*
%TO.P,U3,2,IN+*%
%TO.N,VIN*%
X118600000Y-114900000D03*
%TO.P,U3,3,EN*%
X121700000Y-114800000D03*
%TO.P,U3,4,OUT-*%
%TO.N,GND*%
X108000000Y-92500000D03*
X111100000Y-92500000D03*
%TO.P,U3,5,OUT+*%
%TO.N,+12V*%
X118600000Y-92500000D03*
X121600000Y-92500000D03*
%TD*%
D10*
%TO.P,SPD/TOT1,1,Pin_1*%
%TO.N,SPEED_SIG*%
X181040000Y-139000000D03*
D11*
%TO.P,SPD/TOT1,2,Pin_2*%
%TO.N,GND*%
X183580000Y-139000000D03*
%TO.P,SPD/TOT1,3,Pin_3*%
%TO.N,THR_OUT*%
X186120000Y-139000000D03*
%TD*%
D10*
%TO.P,12V1,1,Pin_1*%
%TO.N,+12V*%
X128540000Y-139005000D03*
D11*
%TO.P,12V1,2,Pin_2*%
X131080000Y-139005000D03*
%TO.P,12V1,3,Pin_3*%
%TO.N,GND*%
X133620000Y-139005000D03*
%TD*%
D10*
%TO.P,CUR1,1,Pin_1*%
%TO.N,+3.3V*%
X149500000Y-139000000D03*
D11*
%TO.P,CUR1,2,Pin_2*%
%TO.N,CURRENT_SIG*%
X152040000Y-139000000D03*
%TO.P,CUR1,3,Pin_3*%
%TO.N,GND*%
X154580000Y-139000000D03*
%TD*%
D10*
%TO.P,TIN1,1,Pin_1*%
%TO.N,+3.3V*%
X191540000Y-139005000D03*
D11*
%TO.P,TIN1,2,Pin_2*%
%TO.N,THR_IN_SIG*%
X194080000Y-139005000D03*
%TO.P,TIN1,3,Pin_3*%
%TO.N,GND*%
X196620000Y-139005000D03*
%TD*%
D15*
%TO.P,SW2,1*%
%TO.N,Net-(R16-Pad1)*%
X170232500Y-122742500D03*
D16*
%TO.P,SW2,2*%
%TO.N,TEMP_1*%
X170232500Y-125282500D03*
%TO.P,SW2,3*%
%TO.N,Net-(R17-Pad2)*%
X177852500Y-125282500D03*
%TO.P,SW2,4*%
%TO.N,BRAKE_PIN*%
X177852500Y-122742500D03*
%TD*%
D17*
%TO.P,U2,1,OUT*%
%TO.N,THR_OUT*%
X170380005Y-103120000D03*
%TO.P,U2,2,GND*%
%TO.N,GND*%
X167840001Y-103120002D03*
%TO.P,U2,3,SCL*%
%TO.N,B6{slash}SCL*%
X165299998Y-103120001D03*
%TO.P,U2,4,SDA*%
%TO.N,B7{slash}SDA*%
X162760000Y-103120000D03*
%TO.P,U2,5,VCC*%
%TO.N,+3.3V*%
X160220003Y-103119998D03*
%TO.P,U2,6,GND*%
%TO.N,GND*%
X157680002Y-103120007D03*
%TD*%
D10*
%TO.P,PAS1,1,Pin_1*%
%TO.N,+3.3V*%
X202040000Y-139005000D03*
D11*
%TO.P,PAS1,2,Pin_2*%
%TO.N,PAS_SIG*%
X204580000Y-139005000D03*
%TO.P,PAS1,3,Pin_3*%
%TO.N,GND*%
X207120000Y-139005000D03*
%TD*%
D10*
%TO.P,BRK/TMP1,1,Pin_1*%
%TO.N,BRAKE*%
X212500000Y-139000000D03*
D11*
%TO.P,BRK/TMP1,2,Pin_2*%
%TO.N,TEMP_1*%
X215040000Y-139000000D03*
%TO.P,BRK/TMP1,3,Pin_3*%
%TO.N,TEMP_2*%
X217580000Y-139000000D03*
%TD*%
D18*
%TO.P,U1,1,B12*%
%TO.N,Net-(U1-B12)*%
X227739999Y-97320002D03*
D19*
%TO.P,U1,2,B13*%
%TO.N,Net-(U1-B13)*%
X225199997Y-97319998D03*
%TO.P,U1,3,B14*%
%TO.N,unconnected-(U1-B14-Pad3)*%
X222660000Y-97320002D03*
%TO.P,U1,4,B15*%
%TO.N,unconnected-(U1-B15-Pad4)*%
X220120002Y-97319996D03*
%TO.P,U1,5,A8*%
%TO.N,unconnected-(U1-A8-Pad5)*%
X217579999Y-97319999D03*
%TO.P,U1,6,A9*%
%TO.N,TX*%
X215040000Y-97319999D03*
%TO.P,U1,7,A10*%
%TO.N,Net-(U1-A10)*%
X212499997Y-97320000D03*
%TO.P,U1,8,A11*%
%TO.N,unconnected-(U1-A11-Pad8)*%
X209960000Y-97320000D03*
%TO.P,U1,9,A12*%
%TO.N,unconnected-(U1-A12-Pad9)*%
X207419995Y-97319996D03*
%TO.P,U1,10,A15*%
%TO.N,unconnected-(U1-A15-Pad10)*%
X204879997Y-97320005D03*
%TO.P,U1,11,B3*%
%TO.N,unconnected-(U1-B3-Pad11)*%
X202340002Y-97319999D03*
%TO.P,U1,12,B4*%
%TO.N,unconnected-(U1-B4-Pad12)*%
X199799997Y-97319994D03*
%TO.P,U1,13,B5*%
%TO.N,unconnected-(U1-B5-Pad13)*%
X197259995Y-97319997D03*
%TO.P,U1,14,B6*%
%TO.N,B7{slash}SDA*%
X194720000Y-97320000D03*
%TO.P,U1,15,B7*%
%TO.N,B6{slash}SCL*%
X192180003Y-97320002D03*
%TO.P,U1,16,B8*%
%TO.N,unconnected-(U1-B8-Pad16)*%
X189639998Y-97320000D03*
%TO.P,U1,17,B9*%
%TO.N,unconnected-(U1-B9-Pad17)*%
X187100000Y-97319999D03*
%TO.P,U1,18,5V*%
%TO.N,+5V*%
X184536964Y-97285505D03*
%TO.P,U1,19,GND*%
%TO.N,GND*%
X182020006Y-97320003D03*
%TO.P,U1,20,3V3*%
%TO.N,unconnected-(U1-3V3-Pad20)*%
X179480000Y-97320000D03*
%TO.P,U1,21,VB*%
%TO.N,unconnected-(U1-VB-Pad21)*%
X179520000Y-112700000D03*
%TO.P,U1,22,C13*%
%TO.N,unconnected-(U1-C13-Pad22)*%
X182060002Y-112699999D03*
%TO.P,U1,23,C14*%
%TO.N,unconnected-(U1-C14-Pad23)*%
X184576964Y-112665504D03*
%TO.P,U1,24,C15*%
%TO.N,unconnected-(U1-C15-Pad24)*%
X187139997Y-112700003D03*
%TO.P,U1,25,R*%
%TO.N,unconnected-(U1-R-Pad25)*%
X189680000Y-112700000D03*
%TO.P,U1,26,A0*%
%TO.N,Net-(U1-A0)*%
X192219999Y-112699999D03*
%TO.P,U1,27,A1*%
%TO.N,Net-(U1-A1)*%
X194760000Y-112700000D03*
%TO.P,U1,28,A2*%
%TO.N,unconnected-(U1-A2-Pad28)*%
X197300004Y-112699994D03*
%TO.P,U1,29,A3*%
%TO.N,unconnected-(U1-A3-Pad29)*%
X199839999Y-112700006D03*
%TO.P,U1,30,A4*%
%TO.N,Net-(U1-A4)*%
X202379998Y-112699998D03*
%TO.P,U1,31,A5*%
%TO.N,BAT_U*%
X204920001Y-112700005D03*
%TO.P,U1,32,A6*%
%TO.N,Net-(U1-A6)*%
X207459999Y-112700007D03*
%TO.P,U1,33,A7*%
%TO.N,Net-(U1-A7)*%
X210000000Y-112700000D03*
%TO.P,U1,34,B0*%
%TO.N,Net-(U1-B0)*%
X212539999Y-112699995D03*
%TO.P,U1,35,B1*%
%TO.N,Net-(U1-B1)*%
X215080001Y-112700003D03*
%TO.P,U1,36,B2*%
%TO.N,BRAKE_PIN*%
X217619998Y-112700001D03*
%TO.P,U1,37,B10*%
%TO.N,unconnected-(U1-B10-Pad37)*%
X220159997Y-112700002D03*
%TO.P,U1,38,3V3*%
%TO.N,unconnected-(U1-3V3-Pad38)*%
X222700001Y-112700000D03*
%TO.P,U1,39,GND*%
%TO.N,GND*%
X225239998Y-112700000D03*
D18*
%TO.P,U1,40,5V*%
%TO.N,+5V*%
X227780000Y-112700000D03*
%TD*%
D10*
%TO.P,SCR2,1,Pin_1*%
%TO.N,+3.3V*%
X170540000Y-139005000D03*
D11*
%TO.P,SCR2,2,Pin_2*%
%TO.N,BUTTON_2*%
X173080000Y-139005000D03*
%TO.P,SCR2,3,Pin_3*%
%TO.N,GND*%
X175620000Y-139005000D03*
%TD*%
D10*
%TO.P,VIN1,1,Pin_1*%
%TO.N,BAT_VOLTAGE*%
X139040000Y-139005000D03*
D11*
%TO.P,VIN1,2,Pin_2*%
%TO.N,VIN_V*%
X141580000Y-139005000D03*
%TO.P,VIN1,3,Pin_3*%
%TO.N,GND*%
X144120000Y-139005000D03*
%TD*%
D10*
%TO.P,3V3/TS1,1,Pin_1*%
%TO.N,+3.3V*%
X223000000Y-139000000D03*
D11*
%TO.P,3V3/TS1,2,Pin_2*%
%TO.N,GND*%
X225540000Y-139000000D03*
%TO.P,3V3/TS1,3,Pin_3*%
%TO.N,A3*%
X228080000Y-139000000D03*
%TD*%
D10*
%TO.P,SCR1,1,Pin_1*%
%TO.N,Net-(SCR1-Pin_1)*%
X160000000Y-139000000D03*
D11*
%TO.P,SCR1,2,Pin_2*%
%TO.N,Net-(SCR1-Pin_2)*%
X162540000Y-139000000D03*
%TO.P,SCR1,3,Pin_3*%
%TO.N,BUTTON_1*%
X165080000Y-139000000D03*
%TD*%
D20*
%TO.P,SW1,1*%
%TO.N,VIN*%
X111492501Y-129767500D03*
D16*
%TO.P,SW1,2*%
%TO.N,BAT_VOLTAGE*%
X114032501Y-129767500D03*
%TO.P,SW1,3*%
%TO.N,VIN*%
X114032501Y-122147500D03*
%TO.P,SW1,4*%
%TO.N,VIN_V*%
X111492501Y-122147500D03*
%TD*%
D10*
%TO.P,UART1,1,Pin_1*%
%TO.N,TX_3.3*%
X113230000Y-138800000D03*
D11*
%TO.P,UART1,2,Pin_2*%
%TO.N,RX*%
X115770000Y-138800000D03*
%TD*%
D10*
%TO.P,SW3,1,Pin_1*%
%TO.N,VIN*%
X105730000Y-138805000D03*
D11*
%TO.P,SW3,2,Pin_2*%
%TO.N,VIN_V*%
X108270000Y-138805000D03*
%TD*%
D21*
%TO.N,+3.3V*%
X223750000Y-133250000D03*
X189250000Y-93250000D03*
%TO.N,TEMP_1*%
X187320005Y-125320005D03*
X190500000Y-126750000D03*
%TO.N,TEMP_2*%
X194500000Y-126750000D03*
%TO.N,BRAKE*%
X214250000Y-122250000D03*
%TO.N,BRAKE_PIN*%
X214250000Y-117250000D03*
%TO.N,CURRENT_SIG*%
X201250000Y-120750000D03*
%TO.N,PAS_SIG*%
X222500000Y-128500000D03*
%TO.N,Net-(U1-B12)*%
X228000000Y-93250000D03*
%TO.N,Net-(U1-B13)*%
X225500000Y-93250000D03*
%TO.N,SPEED_SIG*%
X218999994Y-128500000D03*
%TO.N,TX_3.3*%
X217000000Y-91000000D03*
%TO.N,RX*%
X207500000Y-89750000D03*
%TD*%
D22*
%TO.N,+3.3V*%
X227000000Y-133250000D02*
X230500000Y-136750000D01*
X146500000Y-142000000D02*
X149500000Y-139000000D01*
X223000000Y-139000000D02*
X223000000Y-141000000D01*
X202040000Y-141790000D02*
X202040000Y-139005000D01*
X230500000Y-141750000D02*
X229750000Y-142500000D01*
X123930000Y-142000000D02*
X146500000Y-142000000D01*
X120730000Y-138800000D02*
X123930000Y-142000000D01*
X223000000Y-141000000D02*
X223000000Y-141750000D01*
X223000000Y-141750000D02*
X220500000Y-144250000D01*
X220500000Y-144250000D02*
X204500000Y-144250000D01*
X170540000Y-139005000D02*
X166535000Y-135000000D01*
X224500000Y-142500000D02*
X223000000Y-141000000D01*
X223750000Y-133250000D02*
X227000000Y-133250000D01*
X166535000Y-135000000D02*
X153500000Y-135000000D01*
X189250000Y-93250000D02*
X170090001Y-93250000D01*
X230500000Y-136750000D02*
X230500000Y-141750000D01*
X153500000Y-135000000D02*
X149500000Y-139000000D01*
X204500000Y-144250000D02*
X202040000Y-141790000D01*
X229750000Y-142500000D02*
X224500000Y-142500000D01*
X170090001Y-93250000D02*
X160220003Y-103119998D01*
%TO.N,TEMP_1*%
X187320005Y-125320005D02*
X185140010Y-127500000D01*
X185140010Y-127500000D02*
X172450000Y-127500000D01*
X191750000Y-128750000D02*
X204790000Y-128750000D01*
X204790000Y-128750000D02*
X215040000Y-139000000D01*
X172450000Y-127500000D02*
X170232500Y-125282500D01*
X190500000Y-127500000D02*
X191750000Y-128750000D01*
X190500000Y-126750000D02*
X190500000Y-127500000D01*
%TO.N,TEMP_2*%
X205330000Y-126750000D02*
X217580000Y-139000000D01*
X194500000Y-126750000D02*
X205330000Y-126750000D01*
%TO.N,BRAKE*%
X188750000Y-128250000D02*
X195250000Y-134750000D01*
X195250000Y-134750000D02*
X208250000Y-134750000D01*
X214250000Y-122250000D02*
X192750000Y-122250000D01*
X208250000Y-134750000D02*
X212500000Y-139000000D01*
X192750000Y-122250000D02*
X188750000Y-126250000D01*
X188750000Y-126250000D02*
X188750000Y-128250000D01*
%TO.N,BRAKE_PIN*%
X217619998Y-112700001D02*
X217619998Y-113880002D01*
X217619998Y-113880002D02*
X214250000Y-117250000D01*
X214250000Y-117250000D02*
X213500000Y-118000000D01*
X213500000Y-118000000D02*
X182595000Y-118000000D01*
X182595000Y-118000000D02*
X177852500Y-122742500D01*
%TO.N,CURRENT_SIG*%
X203000000Y-145500000D02*
X201250000Y-143750000D01*
X232250000Y-142500000D02*
X230500000Y-144250000D01*
X222750000Y-144250000D02*
X221500000Y-145500000D01*
X156790000Y-143750000D02*
X152040000Y-139000000D01*
X201250000Y-120750000D02*
X217250000Y-120750000D01*
X217250000Y-120750000D02*
X232250000Y-135750000D01*
X232250000Y-135750000D02*
X232250000Y-142500000D01*
X230500000Y-144250000D02*
X222750000Y-144250000D01*
X221500000Y-145500000D02*
X203000000Y-145500000D01*
X201250000Y-143750000D02*
X156790000Y-143750000D01*
%TO.N,PAS_SIG*%
X206500000Y-142500000D02*
X219750000Y-142500000D01*
X219750000Y-142500000D02*
X221250000Y-141000000D01*
X221250000Y-129750000D02*
X222500000Y-128500000D01*
X221250000Y-141000000D02*
X221250000Y-129750000D01*
X204580000Y-140580000D02*
X206500000Y-142500000D01*
X204580000Y-139005000D02*
X204580000Y-140580000D01*
%TO.N,Net-(U1-B12)*%
X227739999Y-97320002D02*
X227739999Y-93510001D01*
X227739999Y-93510001D02*
X228000000Y-93250000D01*
%TO.N,Net-(U1-B13)*%
X225199997Y-97319998D02*
X225199997Y-93550003D01*
X225199997Y-93550003D02*
X225500000Y-93250000D01*
%TO.N,SPEED_SIG*%
X218999994Y-128500000D02*
X219750000Y-129250006D01*
X211750000Y-141000000D02*
X207250000Y-136500000D01*
X219000000Y-141000000D02*
X211750000Y-141000000D01*
X207250000Y-136500000D02*
X183540000Y-136500000D01*
X219750000Y-129250006D02*
X219750000Y-140250000D01*
X219750000Y-140250000D02*
X219000000Y-141000000D01*
X183540000Y-136500000D02*
X181040000Y-139000000D01*
%TO.N,BAT_VOLTAGE*%
X117500000Y-143000000D02*
X112500000Y-143000000D01*
X112500000Y-143000000D02*
X111000000Y-141500000D01*
X111000000Y-141500000D02*
X111000000Y-136750000D01*
X136285000Y-136250000D02*
X119750000Y-136250000D01*
X118750000Y-137250000D02*
X118750000Y-141750000D01*
X111000000Y-136750000D02*
X114032501Y-133717499D01*
X118750000Y-141750000D02*
X117500000Y-143000000D01*
X139040000Y-139005000D02*
X136285000Y-136250000D01*
X119750000Y-136250000D02*
X118750000Y-137250000D01*
X114032501Y-133717499D02*
X114032501Y-129767500D01*
%TO.N,B7{slash}SDA*%
X194720000Y-97320000D02*
X194720000Y-95220000D01*
X171130000Y-94750000D02*
X162760000Y-103120000D01*
X194250000Y-94750000D02*
X171130000Y-94750000D01*
X194720000Y-95220000D02*
X194250000Y-94750000D01*
%TO.N,B6{slash}SCL*%
X189500005Y-100000000D02*
X168419999Y-100000000D01*
X192180003Y-97320002D02*
X189500005Y-100000000D01*
X168419999Y-100000000D02*
X165299998Y-103120001D01*
%TO.N,TX_3.3*%
X113230000Y-138800000D02*
X114000000Y-139570000D01*
X117250000Y-140250000D02*
X117250000Y-136000000D01*
X114000000Y-141000000D02*
X114250000Y-141250000D01*
X116250000Y-141250000D02*
X117250000Y-140250000D01*
X127250000Y-133500000D02*
X155000000Y-105750000D01*
X117250000Y-136000000D02*
X119750000Y-133500000D01*
X216750000Y-91250000D02*
X217000000Y-91000000D01*
X166000000Y-91250000D02*
X216750000Y-91250000D01*
X119750000Y-133500000D02*
X127250000Y-133500000D01*
X114250000Y-141250000D02*
X116250000Y-141250000D01*
X155000000Y-105750000D02*
X155000000Y-102250000D01*
X114000000Y-139570000D02*
X114000000Y-141000000D01*
X155000000Y-102250000D02*
X166000000Y-91250000D01*
%TO.N,RX*%
X166051000Y-88949000D02*
X151750000Y-103250000D01*
X207500000Y-89750000D02*
X206699000Y-88949000D01*
X115770000Y-131480000D02*
X115770000Y-138800000D01*
X144000000Y-103250000D02*
X115770000Y-131480000D01*
X151750000Y-103250000D02*
X144000000Y-103250000D01*
X206699000Y-88949000D02*
X166051000Y-88949000D01*
%TO.N,THR_OUT*%
X178500000Y-138000000D02*
X178500000Y-140500000D01*
X167750000Y-105750005D02*
X167750000Y-127250000D01*
X186120000Y-140630000D02*
X186120000Y-139000000D01*
X167750000Y-127250000D02*
X178500000Y-138000000D01*
X179750000Y-141750000D02*
X185000000Y-141750000D01*
X178500000Y-140500000D02*
X179750000Y-141750000D01*
X185000000Y-141750000D02*
X186120000Y-140630000D01*
X170380005Y-103120000D02*
X167750000Y-105750005D01*
%TD*%
%TA.AperFunction,Conductor*%
%TO.N,GND*%
G36*
X188794102Y-92102492D02*
G01*
X188801069Y-92101265D01*
X188827190Y-92112208D01*
X188854355Y-92120185D01*
X188858985Y-92125529D01*
X188865511Y-92128263D01*
X188881570Y-92151593D01*
X188900110Y-92172989D01*
X188901116Y-92179988D01*
X188905128Y-92185816D01*
X188906024Y-92214120D01*
X188910054Y-92242147D01*
X188907115Y-92248582D01*
X188907339Y-92255651D01*
X188892793Y-92279942D01*
X188881029Y-92305703D01*
X188874209Y-92310978D01*
X188871445Y-92315595D01*
X188852920Y-92327447D01*
X188842372Y-92335607D01*
X188838625Y-92337463D01*
X188776086Y-92363368D01*
X188746632Y-92383048D01*
X188739451Y-92386607D01*
X188712614Y-92391337D01*
X188686609Y-92399480D01*
X188684395Y-92399500D01*
X170006229Y-92399500D01*
X169841926Y-92432182D01*
X169841914Y-92432185D01*
X169796584Y-92450962D01*
X169687144Y-92496292D01*
X169687131Y-92496299D01*
X169547839Y-92589372D01*
X169547835Y-92589375D01*
X160324033Y-101813179D01*
X160262710Y-101846664D01*
X160236352Y-101849498D01*
X160120012Y-101849498D01*
X160062500Y-101858607D01*
X159922491Y-101880782D01*
X159732302Y-101942577D01*
X159554115Y-102033369D01*
X159514696Y-102062009D01*
X159392328Y-102150915D01*
X159392326Y-102150917D01*
X159392325Y-102150917D01*
X159250922Y-102292320D01*
X159250922Y-102292321D01*
X159250920Y-102292323D01*
X159250919Y-102292325D01*
X159133372Y-102454112D01*
X159060203Y-102597714D01*
X159012229Y-102648509D01*
X158944408Y-102665304D01*
X158878273Y-102642766D01*
X158839234Y-102597713D01*
X158766204Y-102454385D01*
X158737998Y-102415562D01*
X158737997Y-102415562D01*
X158061002Y-103092558D01*
X158061002Y-103069847D01*
X158035038Y-102972946D01*
X157984878Y-102886067D01*
X157913942Y-102815131D01*
X157827063Y-102764971D01*
X157730162Y-102739007D01*
X157707447Y-102739007D01*
X158384445Y-102062009D01*
X158384445Y-102062008D01*
X158345627Y-102033806D01*
X158345625Y-102033805D01*
X158167510Y-101943050D01*
X157977395Y-101881279D01*
X157779952Y-101850007D01*
X157580052Y-101850007D01*
X157382608Y-101881279D01*
X157192493Y-101943050D01*
X157014374Y-102033807D01*
X156975557Y-102062008D01*
X156975557Y-102062009D01*
X157652555Y-102739007D01*
X157629842Y-102739007D01*
X157532941Y-102764971D01*
X157446062Y-102815131D01*
X157375126Y-102886067D01*
X157324966Y-102972946D01*
X157299002Y-103069847D01*
X157299002Y-103092560D01*
X156622004Y-102415562D01*
X156622003Y-102415562D01*
X156593802Y-102454379D01*
X156503045Y-102632498D01*
X156441274Y-102822613D01*
X156410002Y-103020056D01*
X156410002Y-103219957D01*
X156441274Y-103417400D01*
X156503045Y-103607515D01*
X156593800Y-103785630D01*
X156593801Y-103785632D01*
X156622003Y-103824450D01*
X156622004Y-103824450D01*
X157299002Y-103147452D01*
X157299002Y-103170167D01*
X157324966Y-103267068D01*
X157375126Y-103353947D01*
X157446062Y-103424883D01*
X157532941Y-103475043D01*
X157629842Y-103501007D01*
X157652555Y-103501007D01*
X156975557Y-104178002D01*
X156975557Y-104178003D01*
X157014380Y-104206209D01*
X157192493Y-104296963D01*
X157382608Y-104358734D01*
X157580052Y-104390007D01*
X157779952Y-104390007D01*
X157977395Y-104358734D01*
X158167510Y-104296963D01*
X158345619Y-104206211D01*
X158345632Y-104206203D01*
X158384445Y-104178004D01*
X158384446Y-104178003D01*
X157707449Y-103501007D01*
X157730162Y-103501007D01*
X157827063Y-103475043D01*
X157913942Y-103424883D01*
X157984878Y-103353947D01*
X158035038Y-103267068D01*
X158061002Y-103170167D01*
X158061002Y-103147454D01*
X158737998Y-103824451D01*
X158737999Y-103824450D01*
X158766198Y-103785637D01*
X158766209Y-103785619D01*
X158839238Y-103642292D01*
X158887212Y-103591495D01*
X158955033Y-103574700D01*
X159021168Y-103597237D01*
X159060207Y-103642290D01*
X159133372Y-103785883D01*
X159161393Y-103824450D01*
X159250920Y-103947673D01*
X159392328Y-104089081D01*
X159554116Y-104206627D01*
X159731399Y-104296958D01*
X159732302Y-104297418D01*
X159827396Y-104328315D01*
X159922493Y-104359214D01*
X160120012Y-104390498D01*
X160120013Y-104390498D01*
X160319993Y-104390498D01*
X160319994Y-104390498D01*
X160517513Y-104359214D01*
X160707706Y-104297417D01*
X160885890Y-104206627D01*
X161047678Y-104089081D01*
X161189086Y-103947673D01*
X161306632Y-103785885D01*
X161379517Y-103642840D01*
X161427489Y-103592047D01*
X161495310Y-103575252D01*
X161561445Y-103597789D01*
X161600484Y-103642842D01*
X161673369Y-103785884D01*
X161673371Y-103785887D01*
X161790917Y-103947675D01*
X161932325Y-104089083D01*
X162094113Y-104206629D01*
X162271392Y-104296958D01*
X162272299Y-104297420D01*
X162367393Y-104328317D01*
X162462490Y-104359216D01*
X162660009Y-104390500D01*
X162660010Y-104390500D01*
X162859990Y-104390500D01*
X162859991Y-104390500D01*
X163057510Y-104359216D01*
X163247703Y-104297419D01*
X163425887Y-104206629D01*
X163587675Y-104089083D01*
X163729083Y-103947675D01*
X163846629Y-103785887D01*
X163919515Y-103642840D01*
X163967487Y-103592047D01*
X164035308Y-103575252D01*
X164101443Y-103597789D01*
X164140482Y-103642843D01*
X164213365Y-103785883D01*
X164213368Y-103785887D01*
X164213369Y-103785888D01*
X164330915Y-103947676D01*
X164472323Y-104089084D01*
X164634111Y-104206630D01*
X164811388Y-104296958D01*
X164812297Y-104297421D01*
X164907391Y-104328318D01*
X165002488Y-104359217D01*
X165200007Y-104390501D01*
X165200008Y-104390501D01*
X165399988Y-104390501D01*
X165399989Y-104390501D01*
X165597508Y-104359217D01*
X165787701Y-104297420D01*
X165965885Y-104206630D01*
X166127673Y-104089084D01*
X166269081Y-103947676D01*
X166386627Y-103785888D01*
X166459795Y-103642287D01*
X166507770Y-103591492D01*
X166575591Y-103574697D01*
X166641726Y-103597234D01*
X166680765Y-103642288D01*
X166753799Y-103785625D01*
X166753800Y-103785627D01*
X166782002Y-103824445D01*
X166782003Y-103824445D01*
X167459001Y-103147447D01*
X167459001Y-103170162D01*
X167484965Y-103267063D01*
X167535125Y-103353942D01*
X167606061Y-103424878D01*
X167692940Y-103475038D01*
X167789841Y-103501002D01*
X167812554Y-103501002D01*
X167135556Y-104177997D01*
X167135556Y-104177998D01*
X167174379Y-104206204D01*
X167352492Y-104296958D01*
X167542608Y-104358730D01*
X167643990Y-104374787D01*
X167707125Y-104404716D01*
X167744057Y-104464027D01*
X167743059Y-104533890D01*
X167712274Y-104584941D01*
X167089375Y-105207839D01*
X167089372Y-105207843D01*
X166996299Y-105347135D01*
X166996292Y-105347148D01*
X166950962Y-105456588D01*
X166932185Y-105501918D01*
X166932182Y-105501930D01*
X166899500Y-105666233D01*
X166899500Y-127333771D01*
X166932182Y-127498074D01*
X166932184Y-127498082D01*
X166944220Y-127527139D01*
X166944220Y-127527140D01*
X166996296Y-127652863D01*
X166996297Y-127652866D01*
X167089372Y-127792161D01*
X167089375Y-127792165D01*
X177613181Y-138315970D01*
X177646666Y-138377293D01*
X177649500Y-138403651D01*
X177649500Y-140583771D01*
X177682182Y-140748074D01*
X177682185Y-140748086D01*
X177700442Y-140792161D01*
X177700443Y-140792163D01*
X177746296Y-140902863D01*
X177746297Y-140902866D01*
X177839372Y-141042161D01*
X177839375Y-141042165D01*
X179207834Y-142410624D01*
X179207838Y-142410627D01*
X179347137Y-142503704D01*
X179347139Y-142503705D01*
X179347143Y-142503707D01*
X179429222Y-142537703D01*
X179456584Y-142549037D01*
X179501918Y-142567816D01*
X179582110Y-142583767D01*
X179666228Y-142600499D01*
X179666232Y-142600500D01*
X179666233Y-142600500D01*
X185083768Y-142600500D01*
X185083769Y-142600499D01*
X185138538Y-142589605D01*
X185248074Y-142567818D01*
X185248078Y-142567816D01*
X185248082Y-142567816D01*
X185293415Y-142549037D01*
X185402863Y-142503704D01*
X185542162Y-142410627D01*
X186780626Y-141172162D01*
X186873704Y-141032863D01*
X186937816Y-140878081D01*
X186943971Y-140847137D01*
X186963674Y-140748086D01*
X186970500Y-140713769D01*
X186970500Y-140075402D01*
X186990185Y-140008363D01*
X187006819Y-139987721D01*
X187068921Y-139925619D01*
X187131035Y-139863505D01*
X187253670Y-139694714D01*
X187348389Y-139508816D01*
X187412862Y-139310389D01*
X187436835Y-139159029D01*
X187445500Y-139104324D01*
X187445500Y-138895675D01*
X187412862Y-138689610D01*
X187379752Y-138587708D01*
X187348389Y-138491184D01*
X187348387Y-138491181D01*
X187348387Y-138491179D01*
X187277619Y-138352289D01*
X187253670Y-138305286D01*
X187253668Y-138305283D01*
X187253667Y-138305281D01*
X187178406Y-138201695D01*
X187131035Y-138136495D01*
X187126675Y-138132135D01*
X190214500Y-138132135D01*
X190214500Y-139877870D01*
X190214501Y-139877876D01*
X190220908Y-139937483D01*
X190271202Y-140072328D01*
X190271206Y-140072335D01*
X190357452Y-140187544D01*
X190357455Y-140187547D01*
X190472664Y-140273793D01*
X190472671Y-140273797D01*
X190607517Y-140324091D01*
X190607516Y-140324091D01*
X190614444Y-140324835D01*
X190667127Y-140330500D01*
X192412872Y-140330499D01*
X192472483Y-140324091D01*
X192607331Y-140273796D01*
X192722546Y-140187546D01*
X192808796Y-140072331D01*
X192859091Y-139937483D01*
X192859091Y-139937481D01*
X192860874Y-139929938D01*
X192863757Y-139930619D01*
X192885147Y-139878896D01*
X192942517Y-139839014D01*
X193012340Y-139836480D01*
X193069425Y-139868965D01*
X193216495Y-140016035D01*
X193385286Y-140138670D01*
X193456961Y-140175190D01*
X193571179Y-140233387D01*
X193571181Y-140233387D01*
X193571184Y-140233389D01*
X193634046Y-140253814D01*
X193769610Y-140297862D01*
X193975676Y-140330500D01*
X193975681Y-140330500D01*
X194184324Y-140330500D01*
X194390389Y-140297862D01*
X194391894Y-140297373D01*
X194588816Y-140233389D01*
X194774714Y-140138670D01*
X194943505Y-140016035D01*
X195091035Y-139868505D01*
X195213670Y-139699714D01*
X195239796Y-139648437D01*
X195287769Y-139597642D01*
X195355590Y-139580846D01*
X195421725Y-139603383D01*
X195460766Y-139648437D01*
X195486759Y-139699451D01*
X195522627Y-139748818D01*
X195522627Y-139748819D01*
X196096212Y-139175234D01*
X196107482Y-139217292D01*
X196179890Y-139342708D01*
X196282292Y-139445110D01*
X196407708Y-139517518D01*
X196449765Y-139528787D01*
X195876179Y-140102371D01*
X195876180Y-140102372D01*
X195925543Y-140138236D01*
X195925556Y-140138244D01*
X196111372Y-140232924D01*
X196309727Y-140297373D01*
X196515721Y-140330000D01*
X196724279Y-140330000D01*
X196930272Y-140297373D01*
X197128627Y-140232924D01*
X197314451Y-140138240D01*
X197363818Y-140102372D01*
X197363818Y-140102371D01*
X196790234Y-139528787D01*
X196832292Y-139517518D01*
X196957708Y-139445110D01*
X197060110Y-139342708D01*
X197132518Y-139217292D01*
X197143787Y-139175234D01*
X197717371Y-139748818D01*
X197717372Y-139748818D01*
X197753240Y-139699451D01*
X197847924Y-139513627D01*
X197912373Y-139315272D01*
X197945000Y-139109279D01*
X197945000Y-138900720D01*
X197912373Y-138694727D01*
X197847924Y-138496372D01*
X197753244Y-138310556D01*
X197753236Y-138310543D01*
X197717372Y-138261180D01*
X197717371Y-138261179D01*
X197143787Y-138834764D01*
X197132518Y-138792708D01*
X197060110Y-138667292D01*
X196957708Y-138564890D01*
X196832292Y-138492482D01*
X196790233Y-138481212D01*
X197363819Y-137907627D01*
X197314451Y-137871759D01*
X197128627Y-137777075D01*
X196930272Y-137712626D01*
X196724279Y-137680000D01*
X196515721Y-137680000D01*
X196309727Y-137712626D01*
X196111372Y-137777075D01*
X195925552Y-137871757D01*
X195876180Y-137907627D01*
X196449766Y-138481212D01*
X196407708Y-138492482D01*
X196282292Y-138564890D01*
X196179890Y-138667292D01*
X196107482Y-138792708D01*
X196096212Y-138834765D01*
X195522627Y-138261180D01*
X195486755Y-138310555D01*
X195460765Y-138361563D01*
X195412790Y-138412358D01*
X195344969Y-138429153D01*
X195278834Y-138406615D01*
X195239796Y-138361561D01*
X195213671Y-138310287D01*
X195122717Y-138185101D01*
X195091035Y-138141495D01*
X194943505Y-137993965D01*
X194774714Y-137871330D01*
X194764901Y-137866330D01*
X194588820Y-137776612D01*
X194390389Y-137712137D01*
X194184324Y-137679500D01*
X194184319Y-137679500D01*
X193975681Y-137679500D01*
X193975676Y-137679500D01*
X193769610Y-137712137D01*
X193571179Y-137776612D01*
X193385285Y-137871330D01*
X193216496Y-137993964D01*
X193069426Y-138141034D01*
X193008103Y-138174518D01*
X192938411Y-138169534D01*
X192882478Y-138127662D01*
X192863515Y-138079444D01*
X192860876Y-138080068D01*
X192859092Y-138072520D01*
X192808797Y-137937671D01*
X192808793Y-137937664D01*
X192722547Y-137822455D01*
X192722544Y-137822452D01*
X192607335Y-137736206D01*
X192607328Y-137736202D01*
X192472482Y-137685908D01*
X192472483Y-137685908D01*
X192412883Y-137679501D01*
X192412881Y-137679500D01*
X192412873Y-137679500D01*
X192412864Y-137679500D01*
X190667129Y-137679500D01*
X190667123Y-137679501D01*
X190607516Y-137685908D01*
X190472671Y-137736202D01*
X190472664Y-137736206D01*
X190357455Y-137822452D01*
X190357452Y-137822455D01*
X190271206Y-137937664D01*
X190271202Y-137937671D01*
X190220908Y-138072517D01*
X190214501Y-138132116D01*
X190214500Y-138132135D01*
X187126675Y-138132135D01*
X186983505Y-137988965D01*
X186814714Y-137866330D01*
X186628820Y-137771612D01*
X186430389Y-137707137D01*
X186224324Y-137674500D01*
X186224319Y-137674500D01*
X186015681Y-137674500D01*
X186015676Y-137674500D01*
X185809610Y-137707137D01*
X185611179Y-137771612D01*
X185425285Y-137866330D01*
X185256493Y-137988966D01*
X185108966Y-138136493D01*
X184986328Y-138305288D01*
X184960202Y-138356563D01*
X184912227Y-138407358D01*
X184844406Y-138424153D01*
X184778272Y-138401615D01*
X184739233Y-138356561D01*
X184713247Y-138305561D01*
X184713236Y-138305543D01*
X184677372Y-138256180D01*
X184677371Y-138256179D01*
X184103787Y-138829764D01*
X184092518Y-138787708D01*
X184020110Y-138662292D01*
X183917708Y-138559890D01*
X183792292Y-138487482D01*
X183750233Y-138476212D01*
X184323819Y-137902627D01*
X184274451Y-137866759D01*
X184088627Y-137772075D01*
X183890273Y-137707626D01*
X183824082Y-137697142D01*
X183760948Y-137667212D01*
X183724017Y-137607900D01*
X183725015Y-137538038D01*
X183755797Y-137486991D01*
X183855972Y-137386816D01*
X183917294Y-137353334D01*
X183943651Y-137350500D01*
X206846349Y-137350500D01*
X206913388Y-137370185D01*
X206934030Y-137386819D01*
X207026210Y-137478999D01*
X207059695Y-137540322D01*
X207054711Y-137610014D01*
X207012839Y-137665947D01*
X206957927Y-137689153D01*
X206809727Y-137712625D01*
X206611372Y-137777075D01*
X206425552Y-137871757D01*
X206376180Y-137907627D01*
X206949766Y-138481212D01*
X206907708Y-138492482D01*
X206782292Y-138564890D01*
X206679890Y-138667292D01*
X206607482Y-138792708D01*
X206596212Y-138834765D01*
X206022627Y-138261180D01*
X205986755Y-138310555D01*
X205960765Y-138361563D01*
X205912790Y-138412358D01*
X205844969Y-138429153D01*
X205778834Y-138406615D01*
X205739796Y-138361561D01*
X205713671Y-138310287D01*
X205622717Y-138185101D01*
X205591035Y-138141495D01*
X205443505Y-137993965D01*
X205274714Y-137871330D01*
X205264901Y-137866330D01*
X205088820Y-137776612D01*
X204890389Y-137712137D01*
X204684324Y-137679500D01*
X204684319Y-137679500D01*
X204475681Y-137679500D01*
X204475676Y-137679500D01*
X204269610Y-137712137D01*
X204071179Y-137776612D01*
X203885285Y-137871330D01*
X203716496Y-137993964D01*
X203569426Y-138141034D01*
X203508103Y-138174518D01*
X203438411Y-138169534D01*
X203382478Y-138127662D01*
X203363515Y-138079444D01*
X203360876Y-138080068D01*
X203359092Y-138072520D01*
X203308797Y-137937671D01*
X203308793Y-137937664D01*
X203222547Y-137822455D01*
X203222544Y-137822452D01*
X203107335Y-137736206D01*
X203107328Y-137736202D01*
X202972482Y-137685908D01*
X202972483Y-137685908D01*
X202912883Y-137679501D01*
X202912881Y-137679500D01*
X202912873Y-137679500D01*
X202912864Y-137679500D01*
X201167129Y-137679500D01*
X201167123Y-137679501D01*
X201107516Y-137685908D01*
X200972671Y-137736202D01*
X200972664Y-137736206D01*
X200857455Y-137822452D01*
X200857452Y-137822455D01*
X200771206Y-137937664D01*
X200771202Y-137937671D01*
X200720908Y-138072517D01*
X200714501Y-138132116D01*
X200714500Y-138132135D01*
X200714500Y-139877870D01*
X200714501Y-139877876D01*
X200720908Y-139937483D01*
X200771202Y-140072328D01*
X200771206Y-140072335D01*
X200857452Y-140187544D01*
X200857455Y-140187547D01*
X200972664Y-140273793D01*
X200972671Y-140273797D01*
X201108833Y-140324582D01*
X201164767Y-140366453D01*
X201189184Y-140431917D01*
X201189500Y-140440764D01*
X201189500Y-141873771D01*
X201214227Y-141998082D01*
X201222181Y-142038074D01*
X201222184Y-142038083D01*
X201286296Y-142192863D01*
X201286297Y-142192866D01*
X201379372Y-142332161D01*
X201379375Y-142332165D01*
X201939892Y-142892681D01*
X201973377Y-142954004D01*
X201968393Y-143023695D01*
X201926522Y-143079629D01*
X201861057Y-143104046D01*
X201792784Y-143089194D01*
X201783320Y-143083464D01*
X201652866Y-142996297D01*
X201652863Y-142996296D01*
X201543416Y-142950962D01*
X201543414Y-142950961D01*
X201498086Y-142932185D01*
X201498074Y-142932182D01*
X201333771Y-142899500D01*
X201333767Y-142899500D01*
X157193650Y-142899500D01*
X157126611Y-142879815D01*
X157105969Y-142863181D01*
X154755800Y-140513011D01*
X154722315Y-140451688D01*
X154727299Y-140381996D01*
X154769171Y-140326063D01*
X154824084Y-140302857D01*
X154890272Y-140292374D01*
X155088627Y-140227924D01*
X155274451Y-140133240D01*
X155323818Y-140097372D01*
X155323818Y-140097371D01*
X154750233Y-139523787D01*
X154792292Y-139512518D01*
X154917708Y-139440110D01*
X155020110Y-139337708D01*
X155092518Y-139212292D01*
X155103787Y-139170234D01*
X155677371Y-139743818D01*
X155677372Y-139743818D01*
X155713240Y-139694451D01*
X155807924Y-139508627D01*
X155872373Y-139310272D01*
X155905000Y-139104279D01*
X155905000Y-138895720D01*
X155872373Y-138689727D01*
X155807924Y-138491372D01*
X155713244Y-138305556D01*
X155713236Y-138305543D01*
X155677372Y-138256180D01*
X155677371Y-138256179D01*
X155103787Y-138829764D01*
X155092518Y-138787708D01*
X155020110Y-138662292D01*
X154917708Y-138559890D01*
X154792292Y-138487482D01*
X154750233Y-138476212D01*
X155099312Y-138127135D01*
X158674500Y-138127135D01*
X158674500Y-139872870D01*
X158674501Y-139872876D01*
X158680908Y-139932483D01*
X158731202Y-140067328D01*
X158731206Y-140067335D01*
X158817452Y-140182544D01*
X158817455Y-140182547D01*
X158932664Y-140268793D01*
X158932671Y-140268797D01*
X159067517Y-140319091D01*
X159067516Y-140319091D01*
X159074444Y-140319835D01*
X159127127Y-140325500D01*
X160872872Y-140325499D01*
X160932483Y-140319091D01*
X161067331Y-140268796D01*
X161182546Y-140182546D01*
X161268796Y-140067331D01*
X161319091Y-139932483D01*
X161319091Y-139932481D01*
X161320874Y-139924938D01*
X161323757Y-139925619D01*
X161345147Y-139873896D01*
X161402517Y-139834014D01*
X161472340Y-139831480D01*
X161529425Y-139863965D01*
X161676495Y-140011035D01*
X161845286Y-140133670D01*
X161926774Y-140175190D01*
X162031179Y-140228387D01*
X162031181Y-140228387D01*
X162031184Y-140228389D01*
X162068932Y-140240654D01*
X162229610Y-140292862D01*
X162435676Y-140325500D01*
X162435681Y-140325500D01*
X162644324Y-140325500D01*
X162850389Y-140292862D01*
X162867538Y-140287290D01*
X163048816Y-140228389D01*
X163234714Y-140133670D01*
X163403505Y-140011035D01*
X163551035Y-139863505D01*
X163673670Y-139694714D01*
X163699515Y-139643990D01*
X163747489Y-139593194D01*
X163815310Y-139576398D01*
X163881445Y-139598935D01*
X163920485Y-139643990D01*
X163946328Y-139694712D01*
X163985316Y-139748373D01*
X164068965Y-139863505D01*
X164216495Y-140011035D01*
X164385286Y-140133670D01*
X164466774Y-140175190D01*
X164571179Y-140228387D01*
X164571181Y-140228387D01*
X164571184Y-140228389D01*
X164608932Y-140240654D01*
X164769610Y-140292862D01*
X164975676Y-140325500D01*
X164975681Y-140325500D01*
X165184324Y-140325500D01*
X165390389Y-140292862D01*
X165407538Y-140287290D01*
X165588816Y-140228389D01*
X165774714Y-140133670D01*
X165943505Y-140011035D01*
X166091035Y-139863505D01*
X166213670Y-139694714D01*
X166308389Y-139508816D01*
X166372862Y-139310389D01*
X166396835Y-139159029D01*
X166405500Y-139104324D01*
X166405500Y-138895675D01*
X166372862Y-138689610D01*
X166339752Y-138587708D01*
X166308389Y-138491184D01*
X166308387Y-138491181D01*
X166308387Y-138491179D01*
X166237619Y-138352289D01*
X166213670Y-138305286D01*
X166091035Y-138136495D01*
X165943505Y-137988965D01*
X165774714Y-137866330D01*
X165588820Y-137771612D01*
X165390389Y-137707137D01*
X165184324Y-137674500D01*
X165184319Y-137674500D01*
X164975681Y-137674500D01*
X164975676Y-137674500D01*
X164769610Y-137707137D01*
X164571179Y-137771612D01*
X164385285Y-137866330D01*
X164216493Y-137988966D01*
X164068966Y-138136493D01*
X163946330Y-138305285D01*
X163920485Y-138356010D01*
X163872510Y-138406806D01*
X163804690Y-138423601D01*
X163738555Y-138401064D01*
X163699515Y-138356010D01*
X163697610Y-138352271D01*
X163673670Y-138305286D01*
X163551035Y-138136495D01*
X163403505Y-137988965D01*
X163234714Y-137866330D01*
X163048820Y-137771612D01*
X162850389Y-137707137D01*
X162644324Y-137674500D01*
X162644319Y-137674500D01*
X162435681Y-137674500D01*
X162435676Y-137674500D01*
X162229610Y-137707137D01*
X162031179Y-137771612D01*
X161845285Y-137866330D01*
X161676496Y-137988964D01*
X161529426Y-138136034D01*
X161468103Y-138169518D01*
X161398411Y-138164534D01*
X161342478Y-138122662D01*
X161323515Y-138074444D01*
X161320876Y-138075068D01*
X161319092Y-138067520D01*
X161314862Y-138056180D01*
X161268796Y-137932669D01*
X161268795Y-137932668D01*
X161268793Y-137932664D01*
X161182547Y-137817455D01*
X161182544Y-137817452D01*
X161067335Y-137731206D01*
X161067328Y-137731202D01*
X160932482Y-137680908D01*
X160932483Y-137680908D01*
X160872883Y-137674501D01*
X160872881Y-137674500D01*
X160872873Y-137674500D01*
X160872864Y-137674500D01*
X159127129Y-137674500D01*
X159127123Y-137674501D01*
X159067516Y-137680908D01*
X158932671Y-137731202D01*
X158932664Y-137731206D01*
X158817455Y-137817452D01*
X158817452Y-137817455D01*
X158731206Y-137932664D01*
X158731202Y-137932671D01*
X158680908Y-138067517D01*
X158674501Y-138127116D01*
X158674500Y-138127135D01*
X155099312Y-138127135D01*
X155190322Y-138036125D01*
X155323819Y-137902627D01*
X155274451Y-137866759D01*
X155088627Y-137772075D01*
X154890272Y-137707626D01*
X154684279Y-137675000D01*
X154475721Y-137675000D01*
X154269727Y-137707626D01*
X154071372Y-137772075D01*
X153885552Y-137866757D01*
X153836180Y-137902627D01*
X154409766Y-138476212D01*
X154367708Y-138487482D01*
X154242292Y-138559890D01*
X154139890Y-138662292D01*
X154067482Y-138787708D01*
X154056212Y-138829766D01*
X153482627Y-138256180D01*
X153446755Y-138305555D01*
X153420765Y-138356563D01*
X153372790Y-138407358D01*
X153304969Y-138424153D01*
X153238834Y-138401615D01*
X153199796Y-138356561D01*
X153173671Y-138305287D01*
X153086351Y-138185103D01*
X153051035Y-138136495D01*
X152903505Y-137988965D01*
X152734714Y-137866330D01*
X152548820Y-137771612D01*
X152350389Y-137707137D01*
X152284520Y-137696705D01*
X152221385Y-137666776D01*
X152184454Y-137607464D01*
X152185452Y-137537601D01*
X152216235Y-137486553D01*
X153815969Y-135886818D01*
X153877292Y-135853334D01*
X153903650Y-135850500D01*
X166131349Y-135850500D01*
X166198388Y-135870185D01*
X166219030Y-135886819D01*
X169178181Y-138845969D01*
X169211666Y-138907292D01*
X169214500Y-138933650D01*
X169214500Y-139877870D01*
X169214501Y-139877876D01*
X169220908Y-139937483D01*
X169271202Y-140072328D01*
X169271206Y-140072335D01*
X169357452Y-140187544D01*
X169357455Y-140187547D01*
X169472664Y-140273793D01*
X169472671Y-140273797D01*
X169607517Y-140324091D01*
X169607516Y-140324091D01*
X169614444Y-140324835D01*
X169667127Y-140330500D01*
X171412872Y-140330499D01*
X171472483Y-140324091D01*
X171607331Y-140273796D01*
X171722546Y-140187546D01*
X171808796Y-140072331D01*
X171859091Y-139937483D01*
X171859091Y-139937481D01*
X171860874Y-139929938D01*
X171863757Y-139930619D01*
X171885147Y-139878896D01*
X171942517Y-139839014D01*
X172012340Y-139836480D01*
X172069425Y-139868965D01*
X172216495Y-140016035D01*
X172385286Y-140138670D01*
X172456961Y-140175190D01*
X172571179Y-140233387D01*
X172571181Y-140233387D01*
X172571184Y-140233389D01*
X172634046Y-140253814D01*
X172769610Y-140297862D01*
X172975676Y-140330500D01*
X172975681Y-140330500D01*
X173184324Y-140330500D01*
X173390389Y-140297862D01*
X173391894Y-140297373D01*
X173588816Y-140233389D01*
X173774714Y-140138670D01*
X173943505Y-140016035D01*
X174091035Y-139868505D01*
X174213670Y-139699714D01*
X174239796Y-139648437D01*
X174287769Y-139597642D01*
X174355590Y-139580846D01*
X174421725Y-139603383D01*
X174460766Y-139648437D01*
X174486759Y-139699451D01*
X174522627Y-139748818D01*
X174522627Y-139748819D01*
X175096212Y-139175234D01*
X175107482Y-139217292D01*
X175179890Y-139342708D01*
X175282292Y-139445110D01*
X175407708Y-139517518D01*
X175449765Y-139528787D01*
X174876179Y-140102371D01*
X174876180Y-140102372D01*
X174925543Y-140138236D01*
X174925556Y-140138244D01*
X175111372Y-140232924D01*
X175309727Y-140297373D01*
X175515721Y-140330000D01*
X175724279Y-140330000D01*
X175930272Y-140297373D01*
X176128627Y-140232924D01*
X176314451Y-140138240D01*
X176363818Y-140102372D01*
X176363818Y-140102371D01*
X175790234Y-139528787D01*
X175832292Y-139517518D01*
X175957708Y-139445110D01*
X176060110Y-139342708D01*
X176132518Y-139217292D01*
X176143787Y-139175234D01*
X176717371Y-139748818D01*
X176717372Y-139748818D01*
X176753240Y-139699451D01*
X176847924Y-139513627D01*
X176912373Y-139315272D01*
X176945000Y-139109279D01*
X176945000Y-138900720D01*
X176912373Y-138694727D01*
X176847924Y-138496372D01*
X176753244Y-138310556D01*
X176753236Y-138310543D01*
X176717372Y-138261180D01*
X176717371Y-138261179D01*
X176143787Y-138834764D01*
X176132518Y-138792708D01*
X176060110Y-138667292D01*
X175957708Y-138564890D01*
X175832292Y-138492482D01*
X175790233Y-138481212D01*
X176363819Y-137907627D01*
X176314451Y-137871759D01*
X176128627Y-137777075D01*
X175930272Y-137712626D01*
X175724279Y-137680000D01*
X175515721Y-137680000D01*
X175309727Y-137712626D01*
X175111372Y-137777075D01*
X174925552Y-137871757D01*
X174876180Y-137907627D01*
X175449766Y-138481212D01*
X175407708Y-138492482D01*
X175282292Y-138564890D01*
X175179890Y-138667292D01*
X175107482Y-138792708D01*
X175096212Y-138834765D01*
X174522627Y-138261180D01*
X174486755Y-138310555D01*
X174460765Y-138361563D01*
X174412790Y-138412358D01*
X174344969Y-138429153D01*
X174278834Y-138406615D01*
X174239796Y-138361561D01*
X174213671Y-138310287D01*
X174122717Y-138185101D01*
X174091035Y-138141495D01*
X173943505Y-137993965D01*
X173774714Y-137871330D01*
X173764901Y-137866330D01*
X173588820Y-137776612D01*
X173390389Y-137712137D01*
X173184324Y-137679500D01*
X173184319Y-137679500D01*
X172975681Y-137679500D01*
X172975676Y-137679500D01*
X172769610Y-137712137D01*
X172571179Y-137776612D01*
X172385285Y-137871330D01*
X172216496Y-137993964D01*
X172069426Y-138141034D01*
X172008103Y-138174518D01*
X171938411Y-138169534D01*
X171882478Y-138127662D01*
X171863515Y-138079444D01*
X171860876Y-138080068D01*
X171859092Y-138072520D01*
X171808797Y-137937671D01*
X171808793Y-137937664D01*
X171722547Y-137822455D01*
X171722544Y-137822452D01*
X171607335Y-137736206D01*
X171607328Y-137736202D01*
X171472482Y-137685908D01*
X171472483Y-137685908D01*
X171412883Y-137679501D01*
X171412881Y-137679500D01*
X171412873Y-137679500D01*
X171412865Y-137679500D01*
X170468650Y-137679500D01*
X170401611Y-137659815D01*
X170380969Y-137643181D01*
X167077165Y-134339375D01*
X167077161Y-134339372D01*
X166937866Y-134246297D01*
X166937863Y-134246296D01*
X166828416Y-134200962D01*
X166828414Y-134200961D01*
X166783086Y-134182185D01*
X166783074Y-134182182D01*
X166618771Y-134149500D01*
X166618767Y-134149500D01*
X153416233Y-134149500D01*
X153416228Y-134149500D01*
X153251925Y-134182181D01*
X153251916Y-134182184D01*
X153097143Y-134246292D01*
X153097137Y-134246295D01*
X153097137Y-134246296D01*
X152957840Y-134339373D01*
X152957831Y-134339379D01*
X152957830Y-134339380D01*
X149659028Y-137638181D01*
X149597705Y-137671666D01*
X149571347Y-137674500D01*
X148627129Y-137674500D01*
X148627123Y-137674501D01*
X148567516Y-137680908D01*
X148432671Y-137731202D01*
X148432664Y-137731206D01*
X148317455Y-137817452D01*
X148317452Y-137817455D01*
X148231206Y-137932664D01*
X148231202Y-137932671D01*
X148180908Y-138067517D01*
X148174501Y-138127116D01*
X148174500Y-138127135D01*
X148174500Y-139071348D01*
X148154815Y-139138387D01*
X148138181Y-139159029D01*
X146184030Y-141113181D01*
X146122707Y-141146666D01*
X146096349Y-141149500D01*
X124333650Y-141149500D01*
X124266611Y-141129815D01*
X124245969Y-141113181D01*
X123445799Y-140313011D01*
X123412314Y-140251688D01*
X123417298Y-140181996D01*
X123459170Y-140126063D01*
X123514083Y-140102856D01*
X123580278Y-140092372D01*
X123778627Y-140027924D01*
X123964451Y-139933240D01*
X124013818Y-139897372D01*
X124013818Y-139897371D01*
X123440233Y-139323787D01*
X123482292Y-139312518D01*
X123607708Y-139240110D01*
X123710110Y-139137708D01*
X123782518Y-139012292D01*
X123793787Y-138970234D01*
X124367371Y-139543818D01*
X124367372Y-139543818D01*
X124403240Y-139494451D01*
X124497924Y-139308627D01*
X124562373Y-139110272D01*
X124595000Y-138904279D01*
X124595000Y-138695720D01*
X124562373Y-138489727D01*
X124497922Y-138291367D01*
X124443777Y-138185103D01*
X124443775Y-138185101D01*
X124416787Y-138132135D01*
X127214500Y-138132135D01*
X127214500Y-139877870D01*
X127214501Y-139877876D01*
X127220908Y-139937483D01*
X127271202Y-140072328D01*
X127271206Y-140072335D01*
X127357452Y-140187544D01*
X127357455Y-140187547D01*
X127472664Y-140273793D01*
X127472671Y-140273797D01*
X127607517Y-140324091D01*
X127607516Y-140324091D01*
X127614444Y-140324835D01*
X127667127Y-140330500D01*
X129412872Y-140330499D01*
X129472483Y-140324091D01*
X129607331Y-140273796D01*
X129722546Y-140187546D01*
X129808796Y-140072331D01*
X129859091Y-139937483D01*
X129859091Y-139937481D01*
X129860874Y-139929938D01*
X129863757Y-139930619D01*
X129885147Y-139878896D01*
X129942517Y-139839014D01*
X130012340Y-139836480D01*
X130069425Y-139868965D01*
X130216495Y-140016035D01*
X130385286Y-140138670D01*
X130456961Y-140175190D01*
X130571179Y-140233387D01*
X130571181Y-140233387D01*
X130571184Y-140233389D01*
X130634046Y-140253814D01*
X130769610Y-140297862D01*
X130975676Y-140330500D01*
X130975681Y-140330500D01*
X131184324Y-140330500D01*
X131390389Y-140297862D01*
X131391894Y-140297373D01*
X131588816Y-140233389D01*
X131774714Y-140138670D01*
X131943505Y-140016035D01*
X132091035Y-139868505D01*
X132213670Y-139699714D01*
X132239796Y-139648437D01*
X132287769Y-139597642D01*
X132355590Y-139580846D01*
X132421725Y-139603383D01*
X132460766Y-139648437D01*
X132486759Y-139699451D01*
X132522627Y-139748818D01*
X132522627Y-139748819D01*
X133096212Y-139175234D01*
X133107482Y-139217292D01*
X133179890Y-139342708D01*
X133282292Y-139445110D01*
X133407708Y-139517518D01*
X133449765Y-139528787D01*
X132876179Y-140102371D01*
X132876180Y-140102372D01*
X132925543Y-140138236D01*
X132925556Y-140138244D01*
X133111372Y-140232924D01*
X133309727Y-140297373D01*
X133515721Y-140330000D01*
X133724279Y-140330000D01*
X133930272Y-140297373D01*
X134128627Y-140232924D01*
X134314451Y-140138240D01*
X134363818Y-140102372D01*
X134363818Y-140102371D01*
X133790234Y-139528787D01*
X133832292Y-139517518D01*
X133957708Y-139445110D01*
X134060110Y-139342708D01*
X134132518Y-139217292D01*
X134143787Y-139175234D01*
X134717371Y-139748818D01*
X134717372Y-139748818D01*
X134753240Y-139699451D01*
X134847924Y-139513627D01*
X134912373Y-139315272D01*
X134945000Y-139109279D01*
X134945000Y-138900720D01*
X134912373Y-138694727D01*
X134847924Y-138496372D01*
X134753244Y-138310556D01*
X134753236Y-138310543D01*
X134717372Y-138261180D01*
X134717371Y-138261179D01*
X134143787Y-138834764D01*
X134132518Y-138792708D01*
X134060110Y-138667292D01*
X133957708Y-138564890D01*
X133832292Y-138492482D01*
X133790233Y-138481212D01*
X134363819Y-137907627D01*
X134314451Y-137871759D01*
X134128627Y-137777075D01*
X133930272Y-137712626D01*
X133724279Y-137680000D01*
X133515721Y-137680000D01*
X133309727Y-137712626D01*
X133111372Y-137777075D01*
X132925552Y-137871757D01*
X132876180Y-137907627D01*
X133449766Y-138481212D01*
X133407708Y-138492482D01*
X133282292Y-138564890D01*
X133179890Y-138667292D01*
X133107482Y-138792708D01*
X133096212Y-138834765D01*
X132522627Y-138261180D01*
X132486755Y-138310555D01*
X132460765Y-138361563D01*
X132412790Y-138412358D01*
X132344969Y-138429153D01*
X132278834Y-138406615D01*
X132239796Y-138361561D01*
X132213671Y-138310287D01*
X132122717Y-138185101D01*
X132091035Y-138141495D01*
X131943505Y-137993965D01*
X131774714Y-137871330D01*
X131764901Y-137866330D01*
X131588820Y-137776612D01*
X131390389Y-137712137D01*
X131184324Y-137679500D01*
X131184319Y-137679500D01*
X130975681Y-137679500D01*
X130975676Y-137679500D01*
X130769610Y-137712137D01*
X130571179Y-137776612D01*
X130385285Y-137871330D01*
X130216496Y-137993964D01*
X130069426Y-138141034D01*
X130008103Y-138174518D01*
X129938411Y-138169534D01*
X129882478Y-138127662D01*
X129863515Y-138079444D01*
X129860876Y-138080068D01*
X129859092Y-138072520D01*
X129808797Y-137937671D01*
X129808793Y-137937664D01*
X129722547Y-137822455D01*
X129722544Y-137822452D01*
X129607335Y-137736206D01*
X129607328Y-137736202D01*
X129472482Y-137685908D01*
X129472483Y-137685908D01*
X129412883Y-137679501D01*
X129412881Y-137679500D01*
X129412873Y-137679500D01*
X129412864Y-137679500D01*
X127667129Y-137679500D01*
X127667123Y-137679501D01*
X127607516Y-137685908D01*
X127472671Y-137736202D01*
X127472664Y-137736206D01*
X127357455Y-137822452D01*
X127357452Y-137822455D01*
X127271206Y-137937664D01*
X127271202Y-137937671D01*
X127220908Y-138072517D01*
X127214501Y-138132116D01*
X127214500Y-138132135D01*
X124416787Y-138132135D01*
X124403244Y-138105556D01*
X124403236Y-138105543D01*
X124367372Y-138056180D01*
X124367371Y-138056179D01*
X123793787Y-138629764D01*
X123782518Y-138587708D01*
X123710110Y-138462292D01*
X123607708Y-138359890D01*
X123482292Y-138287482D01*
X123440233Y-138276212D01*
X124013819Y-137702627D01*
X123964451Y-137666759D01*
X123778627Y-137572075D01*
X123580272Y-137507626D01*
X123374279Y-137475000D01*
X123165721Y-137475000D01*
X122959727Y-137507626D01*
X122761372Y-137572075D01*
X122575552Y-137666757D01*
X122526180Y-137702627D01*
X123099766Y-138276212D01*
X123057708Y-138287482D01*
X122932292Y-138359890D01*
X122829890Y-138462292D01*
X122757482Y-138587708D01*
X122746212Y-138629766D01*
X122166557Y-138050110D01*
X122120849Y-138040508D01*
X122071093Y-137991456D01*
X122058687Y-137959190D01*
X122055499Y-137945402D01*
X122055499Y-137927128D01*
X122049091Y-137867517D01*
X122000115Y-137736206D01*
X121998797Y-137732671D01*
X121998793Y-137732664D01*
X121912547Y-137617455D01*
X121912544Y-137617452D01*
X121797335Y-137531206D01*
X121797328Y-137531202D01*
X121662482Y-137480908D01*
X121662483Y-137480908D01*
X121602883Y-137474501D01*
X121602881Y-137474500D01*
X121602873Y-137474500D01*
X121602865Y-137474500D01*
X120027649Y-137474500D01*
X120006400Y-137468260D01*
X119984315Y-137466681D01*
X119973532Y-137458609D01*
X119960610Y-137454815D01*
X119946111Y-137438082D01*
X119928381Y-137424810D01*
X119923673Y-137412188D01*
X119914855Y-137402011D01*
X119911703Y-137380094D01*
X119903965Y-137359345D01*
X119906827Y-137346184D01*
X119904911Y-137332853D01*
X119914109Y-137312710D01*
X119918817Y-137291072D01*
X119932087Y-137273345D01*
X119933936Y-137269297D01*
X119939932Y-137262855D01*
X120065972Y-137136816D01*
X120127294Y-137103334D01*
X120153651Y-137100500D01*
X135881349Y-137100500D01*
X135948388Y-137120185D01*
X135969030Y-137136819D01*
X137678181Y-138845969D01*
X137711666Y-138907292D01*
X137714500Y-138933650D01*
X137714500Y-139877870D01*
X137714501Y-139877876D01*
X137720908Y-139937483D01*
X137771202Y-140072328D01*
X137771206Y-140072335D01*
X137857452Y-140187544D01*
X137857455Y-140187547D01*
X137972664Y-140273793D01*
X137972671Y-140273797D01*
X138107517Y-140324091D01*
X138107516Y-140324091D01*
X138114444Y-140324835D01*
X138167127Y-140330500D01*
X139912872Y-140330499D01*
X139972483Y-140324091D01*
X140107331Y-140273796D01*
X140222546Y-140187546D01*
X140308796Y-140072331D01*
X140359091Y-139937483D01*
X140359091Y-139937481D01*
X140360874Y-139929938D01*
X140363757Y-139930619D01*
X140385147Y-139878896D01*
X140442517Y-139839014D01*
X140512340Y-139836480D01*
X140569425Y-139868965D01*
X140716495Y-140016035D01*
X140885286Y-140138670D01*
X140956961Y-140175190D01*
X141071179Y-140233387D01*
X141071181Y-140233387D01*
X141071184Y-140233389D01*
X141134046Y-140253814D01*
X141269610Y-140297862D01*
X141475676Y-140330500D01*
X141475681Y-140330500D01*
X141684324Y-140330500D01*
X141890389Y-140297862D01*
X141891894Y-140297373D01*
X142088816Y-140233389D01*
X142274714Y-140138670D01*
X142443505Y-140016035D01*
X142591035Y-139868505D01*
X142713670Y-139699714D01*
X142739796Y-139648437D01*
X142787769Y-139597642D01*
X142855590Y-139580846D01*
X142921725Y-139603383D01*
X142960766Y-139648437D01*
X142986759Y-139699451D01*
X143022627Y-139748818D01*
X143022627Y-139748819D01*
X143596212Y-139175234D01*
X143607482Y-139217292D01*
X143679890Y-139342708D01*
X143782292Y-139445110D01*
X143907708Y-139517518D01*
X143949765Y-139528787D01*
X143376179Y-140102371D01*
X143376180Y-140102372D01*
X143425543Y-140138236D01*
X143425556Y-140138244D01*
X143611372Y-140232924D01*
X143809727Y-140297373D01*
X144015721Y-140330000D01*
X144224279Y-140330000D01*
X144430272Y-140297373D01*
X144628627Y-140232924D01*
X144814451Y-140138240D01*
X144863818Y-140102372D01*
X144863818Y-140102371D01*
X144290234Y-139528787D01*
X144332292Y-139517518D01*
X144457708Y-139445110D01*
X144560110Y-139342708D01*
X144632518Y-139217292D01*
X144643787Y-139175234D01*
X145217371Y-139748818D01*
X145217372Y-139748818D01*
X145253240Y-139699451D01*
X145347924Y-139513627D01*
X145412373Y-139315272D01*
X145445000Y-139109279D01*
X145445000Y-138900720D01*
X145412373Y-138694727D01*
X145347924Y-138496372D01*
X145253244Y-138310556D01*
X145253236Y-138310543D01*
X145217372Y-138261180D01*
X145217371Y-138261179D01*
X144643787Y-138834764D01*
X144632518Y-138792708D01*
X144560110Y-138667292D01*
X144457708Y-138564890D01*
X144332292Y-138492482D01*
X144290233Y-138481212D01*
X144863819Y-137907627D01*
X144814451Y-137871759D01*
X144628627Y-137777075D01*
X144430272Y-137712626D01*
X144224279Y-137680000D01*
X144015721Y-137680000D01*
X143809727Y-137712626D01*
X143611372Y-137777075D01*
X143425552Y-137871757D01*
X143376180Y-137907627D01*
X143949766Y-138481212D01*
X143907708Y-138492482D01*
X143782292Y-138564890D01*
X143679890Y-138667292D01*
X143607482Y-138792708D01*
X143596212Y-138834765D01*
X143022627Y-138261180D01*
X142986755Y-138310555D01*
X142960765Y-138361563D01*
X142912790Y-138412358D01*
X142844969Y-138429153D01*
X142778834Y-138406615D01*
X142739796Y-138361561D01*
X142713671Y-138310287D01*
X142622717Y-138185101D01*
X142591035Y-138141495D01*
X142443505Y-137993965D01*
X142274714Y-137871330D01*
X142264901Y-137866330D01*
X142088820Y-137776612D01*
X141890389Y-137712137D01*
X141684324Y-137679500D01*
X141684319Y-137679500D01*
X141475681Y-137679500D01*
X141475676Y-137679500D01*
X141269610Y-137712137D01*
X141071179Y-137776612D01*
X140885285Y-137871330D01*
X140716496Y-137993964D01*
X140569426Y-138141034D01*
X140508103Y-138174518D01*
X140438411Y-138169534D01*
X140382478Y-138127662D01*
X140363515Y-138079444D01*
X140360876Y-138080068D01*
X140359092Y-138072520D01*
X140308797Y-137937671D01*
X140308793Y-137937664D01*
X140222547Y-137822455D01*
X140222544Y-137822452D01*
X140107335Y-137736206D01*
X140107328Y-137736202D01*
X139972482Y-137685908D01*
X139972483Y-137685908D01*
X139912883Y-137679501D01*
X139912881Y-137679500D01*
X139912873Y-137679500D01*
X139912865Y-137679500D01*
X138968650Y-137679500D01*
X138901611Y-137659815D01*
X138880969Y-137643181D01*
X136827165Y-135589375D01*
X136827161Y-135589372D01*
X136687866Y-135496297D01*
X136687863Y-135496296D01*
X136578416Y-135450962D01*
X136578414Y-135450961D01*
X136533086Y-135432185D01*
X136533074Y-135432182D01*
X136368771Y-135399500D01*
X136368767Y-135399500D01*
X119666233Y-135399500D01*
X119666228Y-135399500D01*
X119501925Y-135432182D01*
X119501917Y-135432184D01*
X119439984Y-135457838D01*
X119439983Y-135457838D01*
X119347141Y-135496293D01*
X119216676Y-135583467D01*
X119149998Y-135604344D01*
X119082618Y-135585859D01*
X119035929Y-135533880D01*
X119024753Y-135464910D01*
X119052639Y-135400846D01*
X119060094Y-135392694D01*
X120065970Y-134386819D01*
X120127293Y-134353334D01*
X120153651Y-134350500D01*
X127333768Y-134350500D01*
X127333769Y-134350499D01*
X127389712Y-134339372D01*
X127498074Y-134317818D01*
X127498078Y-134317816D01*
X127498082Y-134317816D01*
X127543415Y-134299037D01*
X127652863Y-134253704D01*
X127792162Y-134160627D01*
X141676710Y-120276079D01*
X147167484Y-114785305D01*
X148450000Y-114785305D01*
X148450000Y-115014694D01*
X148450001Y-115014710D01*
X148479942Y-115242137D01*
X148539318Y-115463730D01*
X148627102Y-115675659D01*
X148627106Y-115675669D01*
X148741799Y-115874324D01*
X148741805Y-115874331D01*
X148798381Y-115948064D01*
X149522421Y-115224024D01*
X149535359Y-115255258D01*
X149617437Y-115378097D01*
X149721903Y-115482563D01*
X149844742Y-115564641D01*
X149875974Y-115577578D01*
X149151934Y-116301617D01*
X149151934Y-116301618D01*
X149225666Y-116358194D01*
X149424330Y-116472893D01*
X149424340Y-116472897D01*
X149636269Y-116560681D01*
X149857862Y-116620057D01*
X150085289Y-116649998D01*
X150085306Y-116650000D01*
X150314694Y-116650000D01*
X150314710Y-116649998D01*
X150542137Y-116620057D01*
X150763730Y-116560681D01*
X150975659Y-116472897D01*
X150975668Y-116472893D01*
X151174327Y-116358197D01*
X151174334Y-116358192D01*
X151248064Y-116301617D01*
X150524025Y-115577578D01*
X150555258Y-115564641D01*
X150678097Y-115482563D01*
X150782563Y-115378097D01*
X150864641Y-115255258D01*
X150877578Y-115224025D01*
X151601617Y-115948064D01*
X151658192Y-115874334D01*
X151658197Y-115874327D01*
X151772893Y-115675668D01*
X151772897Y-115675659D01*
X151860681Y-115463730D01*
X151920057Y-115242137D01*
X151949998Y-115014710D01*
X151950000Y-115014694D01*
X151950000Y-114785305D01*
X151949998Y-114785289D01*
X151920057Y-114557862D01*
X151860681Y-114336269D01*
X151772897Y-114124340D01*
X151772893Y-114124330D01*
X151658194Y-113925666D01*
X151601618Y-113851934D01*
X151601617Y-113851934D01*
X150877577Y-114575973D01*
X150864641Y-114544742D01*
X150782563Y-114421903D01*
X150678097Y-114317437D01*
X150555258Y-114235359D01*
X150524023Y-114222421D01*
X151248064Y-113498381D01*
X151248064Y-113498380D01*
X151174331Y-113441805D01*
X151174324Y-113441799D01*
X150975669Y-113327106D01*
X150975659Y-113327102D01*
X150763730Y-113239318D01*
X150542137Y-113179942D01*
X150314710Y-113150001D01*
X150314694Y-113150000D01*
X150085306Y-113150000D01*
X150085289Y-113150001D01*
X149857862Y-113179942D01*
X149636269Y-113239318D01*
X149424340Y-113327102D01*
X149424330Y-113327106D01*
X149225673Y-113441801D01*
X149225659Y-113441810D01*
X149151934Y-113498380D01*
X149875975Y-114222421D01*
X149844742Y-114235359D01*
X149721903Y-114317437D01*
X149617437Y-114421903D01*
X149535359Y-114544742D01*
X149522421Y-114575974D01*
X148798381Y-113851934D01*
X148798380Y-113851934D01*
X148741810Y-113925659D01*
X148741801Y-113925673D01*
X148627106Y-114124330D01*
X148627102Y-114124340D01*
X148539318Y-114336269D01*
X148479942Y-114557862D01*
X148450001Y-114785289D01*
X148450000Y-114785305D01*
X147167484Y-114785305D01*
X148494136Y-113458653D01*
X155660623Y-106292165D01*
X155660626Y-106292162D01*
X155753703Y-106152863D01*
X155817816Y-105998082D01*
X155850500Y-105833767D01*
X155850500Y-102653650D01*
X155870185Y-102586611D01*
X155886819Y-102565969D01*
X166315969Y-92136819D01*
X166377292Y-92103334D01*
X166403650Y-92100500D01*
X188787316Y-92100500D01*
X188794102Y-92102492D01*
G37*
%TD.AperFunction*%
%TA.AperFunction,Conductor*%
G36*
X208594949Y-139068004D02*
G01*
X208646000Y-139098789D01*
X210985030Y-141437819D01*
X211018515Y-141499142D01*
X211013531Y-141568834D01*
X210971659Y-141624767D01*
X210906195Y-141649184D01*
X210897349Y-141649500D01*
X206903651Y-141649500D01*
X206836612Y-141629815D01*
X206815970Y-141613181D01*
X205466819Y-140264030D01*
X205452115Y-140237102D01*
X205435523Y-140211284D01*
X205434631Y-140205083D01*
X205433334Y-140202707D01*
X205430500Y-140176349D01*
X205430500Y-140080402D01*
X205450185Y-140013363D01*
X205466819Y-139992721D01*
X205492109Y-139967431D01*
X205534602Y-139924938D01*
X205591035Y-139868505D01*
X205713670Y-139699714D01*
X205739796Y-139648437D01*
X205787769Y-139597642D01*
X205855590Y-139580846D01*
X205921725Y-139603383D01*
X205960766Y-139648437D01*
X205986759Y-139699451D01*
X206022627Y-139748818D01*
X206022627Y-139748819D01*
X206596212Y-139175234D01*
X206607482Y-139217292D01*
X206679890Y-139342708D01*
X206782292Y-139445110D01*
X206907708Y-139517518D01*
X206949765Y-139528787D01*
X206376179Y-140102371D01*
X206376180Y-140102372D01*
X206425543Y-140138236D01*
X206425556Y-140138244D01*
X206611372Y-140232924D01*
X206809727Y-140297373D01*
X207015721Y-140330000D01*
X207224279Y-140330000D01*
X207430272Y-140297373D01*
X207628627Y-140232924D01*
X207814451Y-140138240D01*
X207863818Y-140102372D01*
X207863818Y-140102371D01*
X207290234Y-139528787D01*
X207332292Y-139517518D01*
X207457708Y-139445110D01*
X207560110Y-139342708D01*
X207632518Y-139217292D01*
X207643787Y-139175233D01*
X208217371Y-139748818D01*
X208217372Y-139748818D01*
X208253240Y-139699451D01*
X208347924Y-139513627D01*
X208412374Y-139315272D01*
X208412374Y-139315271D01*
X208435846Y-139167073D01*
X208465775Y-139103938D01*
X208525086Y-139067006D01*
X208594949Y-139068004D01*
G37*
%TD.AperFunction*%
%TA.AperFunction,Conductor*%
G36*
X229562130Y-139020870D02*
G01*
X229620363Y-139059480D01*
X229648477Y-139123444D01*
X229649500Y-139139336D01*
X229649500Y-141346349D01*
X229629815Y-141413388D01*
X229613181Y-141434030D01*
X229434030Y-141613181D01*
X229372707Y-141646666D01*
X229346349Y-141649500D01*
X224903650Y-141649500D01*
X224836611Y-141629815D01*
X224815969Y-141613181D01*
X223886819Y-140684030D01*
X223872115Y-140657102D01*
X223855523Y-140631284D01*
X223854631Y-140625083D01*
X223853334Y-140622707D01*
X223850500Y-140596349D01*
X223850500Y-140435764D01*
X223870185Y-140368725D01*
X223922989Y-140322970D01*
X223931167Y-140319582D01*
X224017746Y-140287290D01*
X224067331Y-140268796D01*
X224182546Y-140182546D01*
X224268796Y-140067331D01*
X224319091Y-139932483D01*
X224325500Y-139872873D01*
X224325499Y-139854587D01*
X224328686Y-139840809D01*
X224339163Y-139822201D01*
X224345175Y-139801718D01*
X224355961Y-139792368D01*
X224362967Y-139779927D01*
X224381839Y-139769938D01*
X224397972Y-139755956D01*
X224413421Y-139753224D01*
X224424721Y-139747244D01*
X224438073Y-139748373D01*
X225016212Y-139170234D01*
X225027482Y-139212292D01*
X225099890Y-139337708D01*
X225202292Y-139440110D01*
X225327708Y-139512518D01*
X225369765Y-139523787D01*
X224796179Y-140097371D01*
X224796180Y-140097372D01*
X224845543Y-140133236D01*
X224845556Y-140133244D01*
X225031372Y-140227924D01*
X225229727Y-140292373D01*
X225435721Y-140325000D01*
X225644279Y-140325000D01*
X225850272Y-140292373D01*
X226048627Y-140227924D01*
X226234451Y-140133240D01*
X226283818Y-140097372D01*
X226283818Y-140097371D01*
X225710234Y-139523787D01*
X225752292Y-139512518D01*
X225877708Y-139440110D01*
X225980110Y-139337708D01*
X226052518Y-139212292D01*
X226063787Y-139170234D01*
X226637371Y-139743818D01*
X226637372Y-139743818D01*
X226673242Y-139694449D01*
X226673242Y-139694448D01*
X226699233Y-139643438D01*
X226747206Y-139592642D01*
X226815027Y-139575846D01*
X226881162Y-139598383D01*
X226920203Y-139643437D01*
X226946330Y-139694714D01*
X227068965Y-139863505D01*
X227216495Y-140011035D01*
X227385286Y-140133670D01*
X227466774Y-140175190D01*
X227571179Y-140228387D01*
X227571181Y-140228387D01*
X227571184Y-140228389D01*
X227608932Y-140240654D01*
X227769610Y-140292862D01*
X227975676Y-140325500D01*
X227975681Y-140325500D01*
X228184324Y-140325500D01*
X228390389Y-140292862D01*
X228407538Y-140287290D01*
X228588816Y-140228389D01*
X228774714Y-140133670D01*
X228943505Y-140011035D01*
X229091035Y-139863505D01*
X229213670Y-139694714D01*
X229308389Y-139508816D01*
X229372862Y-139310389D01*
X229396835Y-139159029D01*
X229403027Y-139119938D01*
X229432956Y-139056803D01*
X229492268Y-139019872D01*
X229562130Y-139020870D01*
G37*
%TD.AperFunction*%
%TA.AperFunction,Conductor*%
G36*
X223705703Y-128408937D02*
G01*
X223712166Y-128414955D01*
X227546712Y-132249500D01*
X227689895Y-132392683D01*
X227723380Y-132454006D01*
X227718396Y-132523698D01*
X227676524Y-132579631D01*
X227611060Y-132604048D01*
X227542787Y-132589196D01*
X227533323Y-132583466D01*
X227402866Y-132496297D01*
X227402863Y-132496296D01*
X227293416Y-132450962D01*
X227293414Y-132450961D01*
X227248086Y-132432185D01*
X227248074Y-132432182D01*
X227083771Y-132399500D01*
X227083767Y-132399500D01*
X224315605Y-132399500D01*
X224248566Y-132379815D01*
X224246714Y-132378602D01*
X224223920Y-132363371D01*
X224223907Y-132363364D01*
X224041839Y-132287950D01*
X224041829Y-132287947D01*
X223848543Y-132249500D01*
X223848541Y-132249500D01*
X223651459Y-132249500D01*
X223651457Y-132249500D01*
X223458170Y-132287947D01*
X223458160Y-132287950D01*
X223276092Y-132363364D01*
X223276079Y-132363371D01*
X223112218Y-132472860D01*
X223112214Y-132472863D01*
X222972863Y-132612214D01*
X222972860Y-132612218D01*
X222863371Y-132776079D01*
X222863364Y-132776092D01*
X222787950Y-132958160D01*
X222787947Y-132958170D01*
X222749500Y-133151456D01*
X222749500Y-133151459D01*
X222749500Y-133348541D01*
X222749500Y-133348543D01*
X222749499Y-133348543D01*
X222787947Y-133541829D01*
X222787950Y-133541839D01*
X222863364Y-133723907D01*
X222863371Y-133723920D01*
X222972860Y-133887781D01*
X222972863Y-133887785D01*
X223112214Y-134027136D01*
X223112218Y-134027139D01*
X223276079Y-134136628D01*
X223276092Y-134136635D01*
X223446555Y-134207242D01*
X223458165Y-134212051D01*
X223458169Y-134212051D01*
X223458170Y-134212052D01*
X223651456Y-134250500D01*
X223651459Y-134250500D01*
X223848543Y-134250500D01*
X223978582Y-134224632D01*
X224041835Y-134212051D01*
X224223914Y-134136632D01*
X224223920Y-134136628D01*
X224246714Y-134121398D01*
X224313391Y-134100520D01*
X224315605Y-134100500D01*
X226596349Y-134100500D01*
X226663388Y-134120185D01*
X226684030Y-134136819D01*
X229613181Y-137065969D01*
X229646666Y-137127292D01*
X229649500Y-137153650D01*
X229649500Y-138860663D01*
X229629815Y-138927702D01*
X229577011Y-138973457D01*
X229507853Y-138983401D01*
X229444297Y-138954376D01*
X229406523Y-138895598D01*
X229403027Y-138880061D01*
X229372862Y-138689610D01*
X229339752Y-138587708D01*
X229308389Y-138491184D01*
X229308387Y-138491181D01*
X229308387Y-138491179D01*
X229237619Y-138352289D01*
X229213670Y-138305286D01*
X229091035Y-138136495D01*
X228943505Y-137988965D01*
X228774714Y-137866330D01*
X228588820Y-137771612D01*
X228390389Y-137707137D01*
X228184324Y-137674500D01*
X228184319Y-137674500D01*
X227975681Y-137674500D01*
X227975676Y-137674500D01*
X227769610Y-137707137D01*
X227571179Y-137771612D01*
X227385285Y-137866330D01*
X227216493Y-137988966D01*
X227068966Y-138136493D01*
X226946328Y-138305288D01*
X226920202Y-138356563D01*
X226872227Y-138407358D01*
X226804406Y-138424153D01*
X226738272Y-138401615D01*
X226699233Y-138356561D01*
X226673247Y-138305561D01*
X226673236Y-138305543D01*
X226637372Y-138256180D01*
X226637371Y-138256179D01*
X226063787Y-138829764D01*
X226052518Y-138787708D01*
X225980110Y-138662292D01*
X225877708Y-138559890D01*
X225752292Y-138487482D01*
X225710233Y-138476212D01*
X226283819Y-137902627D01*
X226234451Y-137866759D01*
X226048627Y-137772075D01*
X225850272Y-137707626D01*
X225644279Y-137675000D01*
X225435721Y-137675000D01*
X225229727Y-137707626D01*
X225031372Y-137772075D01*
X224845552Y-137866757D01*
X224796180Y-137902627D01*
X225369766Y-138476212D01*
X225327708Y-138487482D01*
X225202292Y-138559890D01*
X225099890Y-138662292D01*
X225027482Y-138787708D01*
X225016212Y-138829765D01*
X224436557Y-138250110D01*
X224390849Y-138240508D01*
X224341093Y-138191456D01*
X224328687Y-138159190D01*
X224325499Y-138145402D01*
X224325499Y-138127128D01*
X224319091Y-138067517D01*
X224268796Y-137932669D01*
X224268795Y-137932668D01*
X224268793Y-137932664D01*
X224182547Y-137817455D01*
X224182544Y-137817452D01*
X224067335Y-137731206D01*
X224067328Y-137731202D01*
X223932482Y-137680908D01*
X223932483Y-137680908D01*
X223872883Y-137674501D01*
X223872881Y-137674500D01*
X223872873Y-137674500D01*
X223872865Y-137674500D01*
X222224500Y-137674500D01*
X222157461Y-137654815D01*
X222111706Y-137602011D01*
X222100500Y-137550500D01*
X222100500Y-130153650D01*
X222120185Y-130086611D01*
X222136815Y-130065973D01*
X222701453Y-129501334D01*
X222762774Y-129467851D01*
X222764870Y-129467414D01*
X222791835Y-129462051D01*
X222973914Y-129386632D01*
X223137782Y-129277139D01*
X223277139Y-129137782D01*
X223386632Y-128973914D01*
X223462051Y-128791835D01*
X223500500Y-128598541D01*
X223500500Y-128502650D01*
X223520185Y-128435611D01*
X223572989Y-128389856D01*
X223642147Y-128379912D01*
X223705703Y-128408937D01*
G37*
%TD.AperFunction*%
%TA.AperFunction,Conductor*%
G36*
X154068833Y-102236468D02*
G01*
X154124767Y-102278340D01*
X154149184Y-102343804D01*
X154149500Y-102352650D01*
X154149500Y-105346349D01*
X154129815Y-105413388D01*
X154113181Y-105434030D01*
X126934030Y-132613181D01*
X126872707Y-132646666D01*
X126846349Y-132649500D01*
X119666228Y-132649500D01*
X119501925Y-132682182D01*
X119501913Y-132682185D01*
X119456583Y-132700962D01*
X119347143Y-132746292D01*
X119347130Y-132746299D01*
X119207838Y-132839372D01*
X119207834Y-132839375D01*
X116832181Y-135215029D01*
X116770858Y-135248514D01*
X116701166Y-135243530D01*
X116645233Y-135201658D01*
X116620816Y-135136194D01*
X116620500Y-135127348D01*
X116620500Y-131883650D01*
X116640185Y-131816611D01*
X116656814Y-131795974D01*
X134293643Y-114159145D01*
X134354962Y-114125663D01*
X134424654Y-114130647D01*
X134480587Y-114172519D01*
X134505004Y-114237983D01*
X134501095Y-114278922D01*
X134479943Y-114357860D01*
X134450002Y-114585289D01*
X134450001Y-114585305D01*
X134450001Y-114814694D01*
X134450002Y-114814710D01*
X134479943Y-115042137D01*
X134539319Y-115263730D01*
X134627103Y-115475659D01*
X134627107Y-115475669D01*
X134741800Y-115674324D01*
X134741806Y-115674331D01*
X134798382Y-115748064D01*
X135522422Y-115024024D01*
X135535360Y-115055258D01*
X135617438Y-115178097D01*
X135721904Y-115282563D01*
X135844743Y-115364641D01*
X135875975Y-115377578D01*
X135151935Y-116101617D01*
X135151935Y-116101618D01*
X135225667Y-116158194D01*
X135424331Y-116272893D01*
X135424341Y-116272897D01*
X135636270Y-116360681D01*
X135857863Y-116420057D01*
X136085290Y-116449998D01*
X136085307Y-116450000D01*
X136314695Y-116450000D01*
X136314711Y-116449998D01*
X136542138Y-116420057D01*
X136763731Y-116360681D01*
X136975660Y-116272897D01*
X136975669Y-116272893D01*
X137174328Y-116158197D01*
X137174335Y-116158192D01*
X137248065Y-116101617D01*
X136524026Y-115377578D01*
X136555259Y-115364641D01*
X136678098Y-115282563D01*
X136782564Y-115178097D01*
X136864642Y-115055258D01*
X136877579Y-115024025D01*
X137601618Y-115748064D01*
X137658193Y-115674334D01*
X137658198Y-115674327D01*
X137772894Y-115475668D01*
X137772898Y-115475659D01*
X137860682Y-115263730D01*
X137920058Y-115042137D01*
X137949999Y-114814710D01*
X137950001Y-114814694D01*
X137950001Y-114785258D01*
X140049500Y-114785258D01*
X140049500Y-115014741D01*
X140074446Y-115204215D01*
X140079452Y-115242238D01*
X140115855Y-115378097D01*
X140138842Y-115463887D01*
X140226650Y-115675876D01*
X140226656Y-115675888D01*
X140341228Y-115874334D01*
X140341392Y-115874617D01*
X140481081Y-116056661D01*
X140481089Y-116056670D01*
X140643330Y-116218911D01*
X140643338Y-116218918D01*
X140825382Y-116358607D01*
X140825385Y-116358608D01*
X140825388Y-116358611D01*
X141024112Y-116473344D01*
X141024117Y-116473346D01*
X141024123Y-116473349D01*
X141072420Y-116493354D01*
X141236113Y-116561158D01*
X141457762Y-116620548D01*
X141685266Y-116650500D01*
X141685273Y-116650500D01*
X141914727Y-116650500D01*
X141914734Y-116650500D01*
X142142238Y-116620548D01*
X142363887Y-116561158D01*
X142575888Y-116473344D01*
X142774612Y-116358611D01*
X142956661Y-116218919D01*
X142956665Y-116218914D01*
X142956670Y-116218911D01*
X143118911Y-116056670D01*
X143118914Y-116056665D01*
X143118919Y-116056661D01*
X143258611Y-115874612D01*
X143373344Y-115675888D01*
X143461158Y-115463887D01*
X143520548Y-115242238D01*
X143550500Y-115014734D01*
X143550500Y-114785266D01*
X143520548Y-114557762D01*
X143461158Y-114336113D01*
X143393395Y-114172519D01*
X143373349Y-114124123D01*
X143373346Y-114124117D01*
X143373344Y-114124112D01*
X143258611Y-113925388D01*
X143258608Y-113925385D01*
X143258607Y-113925382D01*
X143138036Y-113768253D01*
X143118919Y-113743339D01*
X143118918Y-113743338D01*
X143118911Y-113743330D01*
X142956670Y-113581089D01*
X142956661Y-113581081D01*
X142774617Y-113441392D01*
X142761860Y-113434027D01*
X142601412Y-113341392D01*
X142575890Y-113326657D01*
X142575876Y-113326650D01*
X142363887Y-113238842D01*
X142318411Y-113226657D01*
X142142238Y-113179452D01*
X142104215Y-113174446D01*
X141914741Y-113149500D01*
X141914734Y-113149500D01*
X141685266Y-113149500D01*
X141685258Y-113149500D01*
X141468715Y-113178009D01*
X141457762Y-113179452D01*
X141364076Y-113204554D01*
X141236112Y-113238842D01*
X141024123Y-113326650D01*
X141024109Y-113326657D01*
X140825382Y-113441392D01*
X140643338Y-113581081D01*
X140481081Y-113743338D01*
X140341392Y-113925382D01*
X140226657Y-114124109D01*
X140226650Y-114124123D01*
X140138842Y-114336112D01*
X140079453Y-114557759D01*
X140079451Y-114557770D01*
X140049500Y-114785258D01*
X137950001Y-114785258D01*
X137950001Y-114585305D01*
X137949999Y-114585289D01*
X137920058Y-114357862D01*
X137860682Y-114136269D01*
X137772898Y-113924340D01*
X137772894Y-113924330D01*
X137658195Y-113725666D01*
X137601619Y-113651934D01*
X137601618Y-113651934D01*
X136877578Y-114375973D01*
X136864642Y-114344742D01*
X136782564Y-114221903D01*
X136678098Y-114117437D01*
X136555259Y-114035359D01*
X136524025Y-114022421D01*
X137248065Y-113298381D01*
X137248065Y-113298380D01*
X137174332Y-113241805D01*
X137174325Y-113241799D01*
X136975670Y-113127106D01*
X136975660Y-113127102D01*
X136763731Y-113039318D01*
X136542138Y-112979942D01*
X136314711Y-112950001D01*
X136314695Y-112950000D01*
X136085307Y-112950000D01*
X136085290Y-112950001D01*
X135857861Y-112979942D01*
X135778923Y-113001094D01*
X135709073Y-112999431D01*
X135651211Y-112960268D01*
X135623707Y-112896040D01*
X135635294Y-112827137D01*
X135659144Y-112793644D01*
X144315970Y-104136819D01*
X144377293Y-104103334D01*
X144403651Y-104100500D01*
X151833768Y-104100500D01*
X151833769Y-104100499D01*
X151891190Y-104089078D01*
X151998074Y-104067818D01*
X151998078Y-104067816D01*
X151998082Y-104067816D01*
X152043415Y-104049037D01*
X152152863Y-104003704D01*
X152292162Y-103910627D01*
X153937819Y-102264968D01*
X153999142Y-102231484D01*
X154068833Y-102236468D01*
G37*
%TD.AperFunction*%
%TA.AperFunction,Conductor*%
G36*
X193812539Y-95620185D02*
G01*
X193858294Y-95672989D01*
X193869500Y-95724500D01*
X193869500Y-96143629D01*
X193849815Y-96210668D01*
X193818388Y-96243945D01*
X193807638Y-96251755D01*
X193807632Y-96251760D01*
X193651756Y-96407636D01*
X193550318Y-96547254D01*
X193494988Y-96589919D01*
X193425374Y-96595898D01*
X193363580Y-96563292D01*
X193349682Y-96547253D01*
X193248250Y-96407642D01*
X193092366Y-96251758D01*
X193092361Y-96251754D01*
X192914028Y-96122189D01*
X192914027Y-96122188D01*
X192914025Y-96122187D01*
X192851099Y-96090124D01*
X192717609Y-96022106D01*
X192717606Y-96022105D01*
X192507955Y-95953987D01*
X192399089Y-95936744D01*
X192290225Y-95919502D01*
X192069781Y-95919502D01*
X191997204Y-95930997D01*
X191852050Y-95953987D01*
X191642399Y-96022105D01*
X191642396Y-96022106D01*
X191445977Y-96122189D01*
X191267644Y-96251754D01*
X191267639Y-96251758D01*
X191111759Y-96407638D01*
X191111755Y-96407643D01*
X191010319Y-96547259D01*
X190954989Y-96589925D01*
X190885376Y-96595904D01*
X190823581Y-96563298D01*
X190809683Y-96547259D01*
X190708245Y-96407641D01*
X190708241Y-96407636D01*
X190552361Y-96251756D01*
X190552356Y-96251752D01*
X190374023Y-96122187D01*
X190374022Y-96122186D01*
X190374020Y-96122185D01*
X190306324Y-96087692D01*
X190177604Y-96022104D01*
X190177601Y-96022103D01*
X189967950Y-95953985D01*
X189843038Y-95934201D01*
X189750220Y-95919500D01*
X189529776Y-95919500D01*
X189457199Y-95930995D01*
X189312045Y-95953985D01*
X189102394Y-96022103D01*
X189102391Y-96022104D01*
X188905972Y-96122187D01*
X188727639Y-96251752D01*
X188727634Y-96251756D01*
X188571754Y-96407636D01*
X188571750Y-96407641D01*
X188470317Y-96547253D01*
X188414987Y-96589919D01*
X188345374Y-96595898D01*
X188283579Y-96563293D01*
X188269681Y-96547253D01*
X188168247Y-96407639D01*
X188012363Y-96251755D01*
X188012358Y-96251751D01*
X187834025Y-96122186D01*
X187834024Y-96122185D01*
X187834022Y-96122184D01*
X187766324Y-96087690D01*
X187637606Y-96022103D01*
X187637603Y-96022102D01*
X187427952Y-95953984D01*
X187303046Y-95934201D01*
X187210222Y-95919499D01*
X186989778Y-95919499D01*
X186917201Y-95930994D01*
X186772047Y-95953984D01*
X186562396Y-96022102D01*
X186562393Y-96022103D01*
X186365974Y-96122186D01*
X186187641Y-96251751D01*
X186187636Y-96251755D01*
X186031756Y-96407635D01*
X186031752Y-96407640D01*
X185931330Y-96545860D01*
X185876000Y-96588526D01*
X185806387Y-96594505D01*
X185744592Y-96561899D01*
X185730697Y-96545864D01*
X185605206Y-96373140D01*
X185449329Y-96217263D01*
X185449327Y-96217261D01*
X185449322Y-96217257D01*
X185270989Y-96087692D01*
X185270988Y-96087691D01*
X185270986Y-96087690D01*
X185208060Y-96055627D01*
X185074570Y-95987609D01*
X185074567Y-95987608D01*
X184864916Y-95919490D01*
X184756050Y-95902247D01*
X184647186Y-95885005D01*
X184426742Y-95885005D01*
X184354165Y-95896500D01*
X184209011Y-95919490D01*
X183999360Y-95987608D01*
X183999357Y-95987609D01*
X183802938Y-96087692D01*
X183624605Y-96217257D01*
X183624600Y-96217261D01*
X183468720Y-96373141D01*
X183468716Y-96373146D01*
X183365961Y-96514577D01*
X183310631Y-96557243D01*
X183241018Y-96563222D01*
X183179223Y-96530616D01*
X183172261Y-96522582D01*
X183171071Y-96522488D01*
X182373559Y-97320002D01*
X182373559Y-97320003D01*
X183171071Y-98117516D01*
X183190388Y-98090930D01*
X183245718Y-98048264D01*
X183315331Y-98042285D01*
X183377127Y-98074890D01*
X183391025Y-98090930D01*
X183468716Y-98197863D01*
X183468720Y-98197868D01*
X183624600Y-98353748D01*
X183624605Y-98353752D01*
X183741471Y-98438659D01*
X183802942Y-98483320D01*
X183931339Y-98548742D01*
X183999357Y-98583400D01*
X183999360Y-98583401D01*
X184070900Y-98606645D01*
X184209013Y-98651520D01*
X184426742Y-98686005D01*
X184426743Y-98686005D01*
X184647185Y-98686005D01*
X184647186Y-98686005D01*
X184864915Y-98651520D01*
X185074570Y-98583400D01*
X185270986Y-98483320D01*
X185449329Y-98353747D01*
X185605206Y-98197870D01*
X185705634Y-98059640D01*
X185760962Y-98016977D01*
X185830575Y-98010998D01*
X185892371Y-98043603D01*
X185906269Y-98059643D01*
X186031752Y-98232358D01*
X186187636Y-98388242D01*
X186187641Y-98388246D01*
X186318497Y-98483317D01*
X186365978Y-98517814D01*
X186486946Y-98579451D01*
X186562393Y-98617894D01*
X186562396Y-98617895D01*
X186626866Y-98638842D01*
X186772049Y-98686014D01*
X186989778Y-98720499D01*
X186989779Y-98720499D01*
X187210221Y-98720499D01*
X187210222Y-98720499D01*
X187427951Y-98686014D01*
X187630042Y-98620351D01*
X187637603Y-98617895D01*
X187637606Y-98617894D01*
X187659683Y-98606645D01*
X187834022Y-98517814D01*
X188012365Y-98388241D01*
X188168242Y-98232364D01*
X188269680Y-98092744D01*
X188325009Y-98050079D01*
X188394622Y-98044100D01*
X188456417Y-98076705D01*
X188470316Y-98092745D01*
X188571750Y-98232358D01*
X188571754Y-98232363D01*
X188727634Y-98388243D01*
X188727639Y-98388247D01*
X188797025Y-98438658D01*
X188905976Y-98517815D01*
X189026942Y-98579451D01*
X189102391Y-98617895D01*
X189102394Y-98617896D01*
X189166861Y-98638842D01*
X189312047Y-98686015D01*
X189329929Y-98688847D01*
X189393063Y-98718774D01*
X189429996Y-98778084D01*
X189429000Y-98847947D01*
X189398214Y-98899001D01*
X189184035Y-99113181D01*
X189122712Y-99146666D01*
X189096354Y-99149500D01*
X168336232Y-99149500D01*
X168302284Y-99156252D01*
X168234154Y-99169804D01*
X168164563Y-99163575D01*
X168109386Y-99120712D01*
X168086142Y-99054822D01*
X168102210Y-98986825D01*
X168122279Y-98960509D01*
X169873011Y-97209778D01*
X178079500Y-97209778D01*
X178079500Y-97430221D01*
X178113985Y-97647952D01*
X178182103Y-97857603D01*
X178182104Y-97857606D01*
X178210003Y-97912359D01*
X178282184Y-98054021D01*
X178282187Y-98054025D01*
X178411752Y-98232358D01*
X178411756Y-98232363D01*
X178567636Y-98388243D01*
X178567641Y-98388247D01*
X178637027Y-98438658D01*
X178745978Y-98517815D01*
X178866944Y-98579451D01*
X178942393Y-98617895D01*
X178942396Y-98617896D01*
X179045880Y-98651519D01*
X179152049Y-98686015D01*
X179369778Y-98720500D01*
X179369779Y-98720500D01*
X179590221Y-98720500D01*
X179590222Y-98720500D01*
X179807951Y-98686015D01*
X180017606Y-98617895D01*
X180214022Y-98517815D01*
X180278364Y-98471068D01*
X181222491Y-98471068D01*
X181222491Y-98471069D01*
X181286249Y-98517391D01*
X181482595Y-98617435D01*
X181692170Y-98685529D01*
X181909825Y-98720003D01*
X182130187Y-98720003D01*
X182347841Y-98685529D01*
X182557416Y-98617435D01*
X182753766Y-98517389D01*
X182817519Y-98471069D01*
X182817520Y-98471069D01*
X182020006Y-97673556D01*
X181222491Y-98471068D01*
X180278364Y-98471068D01*
X180392365Y-98388242D01*
X180548242Y-98232365D01*
X180649994Y-98092314D01*
X180705322Y-98049650D01*
X180774935Y-98043671D01*
X180836731Y-98076276D01*
X180850630Y-98092317D01*
X180868938Y-98117516D01*
X181666452Y-97320003D01*
X181666452Y-97320002D01*
X181620375Y-97273925D01*
X181670006Y-97273925D01*
X181670006Y-97366081D01*
X181693858Y-97455098D01*
X181739936Y-97534908D01*
X181805101Y-97600073D01*
X181884911Y-97646151D01*
X181973928Y-97670003D01*
X182066084Y-97670003D01*
X182155101Y-97646151D01*
X182234911Y-97600073D01*
X182300076Y-97534908D01*
X182346154Y-97455098D01*
X182370006Y-97366081D01*
X182370006Y-97273925D01*
X182346154Y-97184908D01*
X182300076Y-97105098D01*
X182234911Y-97039933D01*
X182155101Y-96993855D01*
X182066084Y-96970003D01*
X181973928Y-96970003D01*
X181884911Y-96993855D01*
X181805101Y-97039933D01*
X181739936Y-97105098D01*
X181693858Y-97184908D01*
X181670006Y-97273925D01*
X181620375Y-97273925D01*
X180868938Y-96522488D01*
X180868936Y-96522488D01*
X180850630Y-96547685D01*
X180795300Y-96590351D01*
X180725687Y-96596330D01*
X180663892Y-96563724D01*
X180649997Y-96547689D01*
X180548242Y-96407635D01*
X180392365Y-96251758D01*
X180392364Y-96251757D01*
X180392363Y-96251756D01*
X180392358Y-96251752D01*
X180278367Y-96168934D01*
X181222491Y-96168934D01*
X181222491Y-96168935D01*
X182020005Y-96966449D01*
X182817519Y-96168935D01*
X182753762Y-96122614D01*
X182557416Y-96022570D01*
X182347841Y-95954476D01*
X182130187Y-95920003D01*
X181909825Y-95920003D01*
X181692170Y-95954476D01*
X181482595Y-96022570D01*
X181286239Y-96122619D01*
X181222491Y-96168934D01*
X180278367Y-96168934D01*
X180214025Y-96122187D01*
X180214024Y-96122186D01*
X180214022Y-96122185D01*
X180146326Y-96087692D01*
X180017606Y-96022104D01*
X180017603Y-96022103D01*
X179807952Y-95953985D01*
X179683040Y-95934201D01*
X179590222Y-95919500D01*
X179369778Y-95919500D01*
X179297201Y-95930995D01*
X179152047Y-95953985D01*
X178942396Y-96022103D01*
X178942393Y-96022104D01*
X178745974Y-96122187D01*
X178567641Y-96251752D01*
X178567636Y-96251756D01*
X178411756Y-96407636D01*
X178411752Y-96407641D01*
X178282187Y-96585974D01*
X178182104Y-96782393D01*
X178182103Y-96782396D01*
X178113985Y-96992047D01*
X178079500Y-97209778D01*
X169873011Y-97209778D01*
X171445970Y-95636819D01*
X171507293Y-95603334D01*
X171533651Y-95600500D01*
X193745500Y-95600500D01*
X193812539Y-95620185D01*
G37*
%TD.AperFunction*%
%TA.AperFunction,Conductor*%
G36*
X110378822Y-114581233D02*
G01*
X110350000Y-114726131D01*
X110350000Y-114873869D01*
X110378822Y-115018767D01*
X110391759Y-115050000D01*
X108708241Y-115050000D01*
X108721178Y-115018767D01*
X108750000Y-114873869D01*
X108750000Y-114726131D01*
X108721178Y-114581233D01*
X108708241Y-114550000D01*
X110391759Y-114550000D01*
X110378822Y-114581233D01*
G37*
%TD.AperFunction*%
%TA.AperFunction,Conductor*%
G36*
X232809362Y-87520185D02*
G01*
X232855117Y-87572989D01*
X232865061Y-87642147D01*
X232836036Y-87705703D01*
X232830004Y-87712181D01*
X232790971Y-87751213D01*
X232790965Y-87751220D01*
X232609957Y-87987114D01*
X232461289Y-88244615D01*
X232461285Y-88244625D01*
X232347504Y-88519315D01*
X232347501Y-88519325D01*
X232275525Y-88787947D01*
X232270545Y-88806531D01*
X232270543Y-88806542D01*
X232231733Y-89101322D01*
X232231733Y-89398677D01*
X232239566Y-89458170D01*
X232270544Y-89693466D01*
X232347501Y-89980674D01*
X232347504Y-89980684D01*
X232461285Y-90255374D01*
X232461289Y-90255384D01*
X232609957Y-90512885D01*
X232790965Y-90748779D01*
X232790971Y-90748786D01*
X233001213Y-90959028D01*
X233001220Y-90959034D01*
X233237114Y-91140042D01*
X233494615Y-91288710D01*
X233494616Y-91288710D01*
X233494619Y-91288712D01*
X233769325Y-91402499D01*
X234056534Y-91479456D01*
X234337140Y-91516398D01*
X234342488Y-91517103D01*
X234351330Y-91518267D01*
X234351337Y-91518267D01*
X234648663Y-91518267D01*
X234648670Y-91518267D01*
X234943466Y-91479456D01*
X235230675Y-91402499D01*
X235505381Y-91288712D01*
X235762886Y-91140042D01*
X235998781Y-90959033D01*
X235998786Y-90959028D01*
X236037819Y-90919996D01*
X236099142Y-90886511D01*
X236168834Y-90891495D01*
X236224767Y-90933367D01*
X236249184Y-90998831D01*
X236249500Y-91007677D01*
X236249500Y-143992323D01*
X236229815Y-144059362D01*
X236177011Y-144105117D01*
X236107853Y-144115061D01*
X236044297Y-144086036D01*
X236037819Y-144080004D01*
X235998786Y-144040971D01*
X235998779Y-144040965D01*
X235762885Y-143859957D01*
X235505384Y-143711289D01*
X235505374Y-143711285D01*
X235230684Y-143597504D01*
X235230677Y-143597502D01*
X235230675Y-143597501D01*
X234943466Y-143520544D01*
X234894200Y-143514058D01*
X234648677Y-143481733D01*
X234648670Y-143481733D01*
X234351330Y-143481733D01*
X234351322Y-143481733D01*
X234070723Y-143518675D01*
X234056534Y-143520544D01*
X233769325Y-143597501D01*
X233769315Y-143597504D01*
X233494625Y-143711285D01*
X233494615Y-143711289D01*
X233237114Y-143859957D01*
X233001220Y-144040965D01*
X233001213Y-144040971D01*
X232790971Y-144251213D01*
X232790965Y-144251220D01*
X232609957Y-144487114D01*
X232461289Y-144744615D01*
X232461285Y-144744625D01*
X232347504Y-145019315D01*
X232347501Y-145019325D01*
X232270545Y-145306531D01*
X232270543Y-145306542D01*
X232231733Y-145601322D01*
X232231733Y-145898677D01*
X232251108Y-146045838D01*
X232270544Y-146193466D01*
X232303864Y-146317817D01*
X232347501Y-146480674D01*
X232347504Y-146480684D01*
X232461285Y-146755374D01*
X232461289Y-146755384D01*
X232609957Y-147012885D01*
X232790965Y-147248779D01*
X232790971Y-147248786D01*
X232830004Y-147287819D01*
X232863489Y-147349142D01*
X232858505Y-147418834D01*
X232816633Y-147474767D01*
X232751169Y-147499184D01*
X232742323Y-147499500D01*
X104257677Y-147499500D01*
X104190638Y-147479815D01*
X104144883Y-147427011D01*
X104134939Y-147357853D01*
X104163964Y-147294297D01*
X104169996Y-147287819D01*
X104209028Y-147248786D01*
X104209033Y-147248781D01*
X104390042Y-147012886D01*
X104538712Y-146755381D01*
X104652499Y-146480675D01*
X104729456Y-146193466D01*
X104768267Y-145898670D01*
X104768267Y-145601330D01*
X104729456Y-145306534D01*
X104652499Y-145019325D01*
X104538712Y-144744619D01*
X104407728Y-144517748D01*
X104390042Y-144487114D01*
X104209034Y-144251220D01*
X104209028Y-144251213D01*
X103998786Y-144040971D01*
X103998779Y-144040965D01*
X103762885Y-143859957D01*
X103505384Y-143711289D01*
X103505374Y-143711285D01*
X103230684Y-143597504D01*
X103230677Y-143597502D01*
X103230675Y-143597501D01*
X102943466Y-143520544D01*
X102894200Y-143514058D01*
X102648677Y-143481733D01*
X102648670Y-143481733D01*
X102351330Y-143481733D01*
X102351322Y-143481733D01*
X102070723Y-143518675D01*
X102056534Y-143520544D01*
X101769325Y-143597501D01*
X101769315Y-143597504D01*
X101494625Y-143711285D01*
X101494615Y-143711289D01*
X101237114Y-143859957D01*
X101001220Y-144040965D01*
X101001213Y-144040971D01*
X100962181Y-144080004D01*
X100900858Y-144113489D01*
X100831166Y-144108505D01*
X100775233Y-144066633D01*
X100750816Y-144001169D01*
X100750500Y-143992323D01*
X100750500Y-137932135D01*
X104404500Y-137932135D01*
X104404500Y-139677870D01*
X104404501Y-139677876D01*
X104410908Y-139737483D01*
X104461202Y-139872328D01*
X104461206Y-139872335D01*
X104547452Y-139987544D01*
X104547455Y-139987547D01*
X104662664Y-140073793D01*
X104662671Y-140073797D01*
X104797517Y-140124091D01*
X104797516Y-140124091D01*
X104803804Y-140124767D01*
X104857127Y-140130500D01*
X106602872Y-140130499D01*
X106662483Y-140124091D01*
X106797331Y-140073796D01*
X106912546Y-139987546D01*
X106998796Y-139872331D01*
X107049091Y-139737483D01*
X107049091Y-139737481D01*
X107050874Y-139729938D01*
X107053757Y-139730619D01*
X107075147Y-139678896D01*
X107132517Y-139639014D01*
X107202340Y-139636480D01*
X107259425Y-139668965D01*
X107406495Y-139816035D01*
X107575286Y-139938670D01*
X107631733Y-139967431D01*
X107761179Y-140033387D01*
X107761181Y-140033387D01*
X107761184Y-140033389D01*
X107865637Y-140067328D01*
X107959610Y-140097862D01*
X108165676Y-140130500D01*
X108165681Y-140130500D01*
X108374324Y-140130500D01*
X108580389Y-140097862D01*
X108581900Y-140097371D01*
X108778816Y-140033389D01*
X108964714Y-139938670D01*
X109133505Y-139816035D01*
X109281035Y-139668505D01*
X109403670Y-139499714D01*
X109498389Y-139313816D01*
X109562862Y-139115389D01*
X109565491Y-139098789D01*
X109595500Y-138909324D01*
X109595500Y-138700675D01*
X109562862Y-138494610D01*
X109517828Y-138356010D01*
X109498389Y-138296184D01*
X109498387Y-138296181D01*
X109498387Y-138296179D01*
X109438898Y-138179426D01*
X109403670Y-138110286D01*
X109281035Y-137941495D01*
X109133505Y-137793965D01*
X108964714Y-137671330D01*
X108954149Y-137665947D01*
X108778820Y-137576612D01*
X108580389Y-137512137D01*
X108374324Y-137479500D01*
X108374319Y-137479500D01*
X108165681Y-137479500D01*
X108165676Y-137479500D01*
X107959610Y-137512137D01*
X107761179Y-137576612D01*
X107575285Y-137671330D01*
X107406496Y-137793964D01*
X107259426Y-137941034D01*
X107198103Y-137974518D01*
X107128411Y-137969534D01*
X107072478Y-137927662D01*
X107053515Y-137879444D01*
X107050876Y-137880068D01*
X107049092Y-137872520D01*
X107048807Y-137871757D01*
X107014404Y-137779516D01*
X106998797Y-137737671D01*
X106998793Y-137737664D01*
X106912547Y-137622455D01*
X106912544Y-137622452D01*
X106797335Y-137536206D01*
X106797328Y-137536202D01*
X106662482Y-137485908D01*
X106662483Y-137485908D01*
X106602883Y-137479501D01*
X106602881Y-137479500D01*
X106602873Y-137479500D01*
X106602864Y-137479500D01*
X104857129Y-137479500D01*
X104857123Y-137479501D01*
X104797516Y-137485908D01*
X104662671Y-137536202D01*
X104662664Y-137536206D01*
X104547455Y-137622452D01*
X104547452Y-137622455D01*
X104461206Y-137737664D01*
X104461202Y-137737671D01*
X104410908Y-137872517D01*
X104404501Y-137932116D01*
X104404500Y-137932135D01*
X100750500Y-137932135D01*
X100750500Y-136666228D01*
X110149500Y-136666228D01*
X110149500Y-141583771D01*
X110182181Y-141748072D01*
X110182184Y-141748081D01*
X110184513Y-141753703D01*
X110184515Y-141753710D01*
X110246296Y-141902863D01*
X110246297Y-141902866D01*
X110339372Y-142042161D01*
X110339375Y-142042165D01*
X111839374Y-143542162D01*
X111957838Y-143660626D01*
X112097137Y-143753703D01*
X112097138Y-143753703D01*
X112097139Y-143753704D01*
X112132201Y-143768227D01*
X112251918Y-143817816D01*
X112416228Y-143850499D01*
X112416232Y-143850500D01*
X112416233Y-143850500D01*
X117583768Y-143850500D01*
X117583769Y-143850499D01*
X117638538Y-143839605D01*
X117748074Y-143817818D01*
X117748078Y-143817816D01*
X117748082Y-143817816D01*
X117793415Y-143799037D01*
X117902863Y-143753704D01*
X118042162Y-143660627D01*
X119410627Y-142292162D01*
X119503704Y-142152863D01*
X119545299Y-142052440D01*
X119565485Y-142003710D01*
X119565487Y-142003703D01*
X119567816Y-141998082D01*
X119600500Y-141833767D01*
X119600500Y-140224201D01*
X119620185Y-140157162D01*
X119672989Y-140111407D01*
X119742147Y-140101463D01*
X119767832Y-140108019D01*
X119797517Y-140119091D01*
X119797516Y-140119091D01*
X119804444Y-140119835D01*
X119857127Y-140125500D01*
X120801348Y-140125499D01*
X120868387Y-140145183D01*
X120889029Y-140161818D01*
X122110915Y-141383703D01*
X123269374Y-142542162D01*
X123387838Y-142660626D01*
X123527137Y-142753703D01*
X123681918Y-142817816D01*
X123846228Y-142850499D01*
X123846232Y-142850500D01*
X123846233Y-142850500D01*
X146583768Y-142850500D01*
X146583769Y-142850499D01*
X146638538Y-142839605D01*
X146748074Y-142817818D01*
X146748078Y-142817816D01*
X146748082Y-142817816D01*
X146793415Y-142799037D01*
X146902863Y-142753704D01*
X147042162Y-142660627D01*
X149340970Y-140361817D01*
X149402293Y-140328333D01*
X149428651Y-140325499D01*
X150372871Y-140325499D01*
X150372872Y-140325499D01*
X150432483Y-140319091D01*
X150567331Y-140268796D01*
X150682546Y-140182546D01*
X150768796Y-140067331D01*
X150819091Y-139932483D01*
X150819091Y-139932481D01*
X150820874Y-139924938D01*
X150823757Y-139925619D01*
X150845147Y-139873896D01*
X150902517Y-139834014D01*
X150972340Y-139831480D01*
X151029425Y-139863965D01*
X151176495Y-140011035D01*
X151345286Y-140133670D01*
X151426774Y-140175190D01*
X151531179Y-140228387D01*
X151531181Y-140228387D01*
X151531184Y-140228389D01*
X151568932Y-140240654D01*
X151729610Y-140292862D01*
X151935676Y-140325500D01*
X152111349Y-140325500D01*
X152178388Y-140345185D01*
X152199029Y-140361818D01*
X156129374Y-144292162D01*
X156247838Y-144410626D01*
X156387137Y-144503703D01*
X156541918Y-144567816D01*
X156706228Y-144600499D01*
X156706232Y-144600500D01*
X156706233Y-144600500D01*
X200846349Y-144600500D01*
X200913388Y-144620185D01*
X200934030Y-144636819D01*
X202457834Y-146160624D01*
X202457838Y-146160627D01*
X202597137Y-146253704D01*
X202597139Y-146253705D01*
X202597143Y-146253707D01*
X202679222Y-146287703D01*
X202706584Y-146299037D01*
X202751918Y-146317816D01*
X202916228Y-146350499D01*
X202916232Y-146350500D01*
X202916233Y-146350500D01*
X221583768Y-146350500D01*
X221583769Y-146350499D01*
X221638538Y-146339605D01*
X221748074Y-146317818D01*
X221748078Y-146317816D01*
X221748082Y-146317816D01*
X221793415Y-146299037D01*
X221902863Y-146253704D01*
X222042162Y-146160627D01*
X223065970Y-145136819D01*
X223127293Y-145103334D01*
X223153651Y-145100500D01*
X230583768Y-145100500D01*
X230583769Y-145100499D01*
X230647338Y-145087855D01*
X230748074Y-145067818D01*
X230748078Y-145067816D01*
X230748082Y-145067816D01*
X230793415Y-145049037D01*
X230902863Y-145003704D01*
X231042162Y-144910627D01*
X232910627Y-143042162D01*
X233003704Y-142902863D01*
X233065487Y-142753704D01*
X233067816Y-142748082D01*
X233100500Y-142583767D01*
X233100500Y-135666233D01*
X233067816Y-135501918D01*
X233003703Y-135347137D01*
X232910626Y-135207838D01*
X232792162Y-135089374D01*
X229099021Y-131396233D01*
X217792165Y-120089375D01*
X217792161Y-120089372D01*
X217652866Y-119996297D01*
X217652863Y-119996296D01*
X217543416Y-119950962D01*
X217543414Y-119950961D01*
X217498086Y-119932185D01*
X217498074Y-119932182D01*
X217333771Y-119899500D01*
X217333767Y-119899500D01*
X201815605Y-119899500D01*
X201748566Y-119879815D01*
X201746714Y-119878602D01*
X201723920Y-119863371D01*
X201723907Y-119863364D01*
X201541839Y-119787950D01*
X201541829Y-119787947D01*
X201348543Y-119749500D01*
X201348541Y-119749500D01*
X201151459Y-119749500D01*
X201151457Y-119749500D01*
X200958170Y-119787947D01*
X200958160Y-119787950D01*
X200776092Y-119863364D01*
X200776079Y-119863371D01*
X200612218Y-119972860D01*
X200612214Y-119972863D01*
X200472863Y-120112214D01*
X200472860Y-120112218D01*
X200363371Y-120276079D01*
X200363364Y-120276092D01*
X200287950Y-120458160D01*
X200287947Y-120458170D01*
X200249500Y-120651456D01*
X200249500Y-120651459D01*
X200249500Y-120848541D01*
X200249500Y-120848543D01*
X200249499Y-120848543D01*
X200287947Y-121041829D01*
X200287950Y-121041839D01*
X200365080Y-121228048D01*
X200372549Y-121297517D01*
X200341274Y-121359996D01*
X200281185Y-121395648D01*
X200250519Y-121399500D01*
X192666228Y-121399500D01*
X192501925Y-121432181D01*
X192501916Y-121432184D01*
X192347143Y-121496292D01*
X192207831Y-121589379D01*
X192207830Y-121589380D01*
X188526892Y-125270317D01*
X188465569Y-125303802D01*
X188395877Y-125298818D01*
X188339944Y-125256946D01*
X188317594Y-125206827D01*
X188282057Y-125028177D01*
X188282057Y-125028175D01*
X188282056Y-125028170D01*
X188261261Y-124977965D01*
X188206640Y-124846097D01*
X188206633Y-124846084D01*
X188097144Y-124682223D01*
X188097141Y-124682219D01*
X187957790Y-124542868D01*
X187957786Y-124542865D01*
X187793925Y-124433376D01*
X187793912Y-124433369D01*
X187611844Y-124357955D01*
X187611834Y-124357952D01*
X187418548Y-124319505D01*
X187418546Y-124319505D01*
X187221464Y-124319505D01*
X187221462Y-124319505D01*
X187028175Y-124357952D01*
X187028165Y-124357955D01*
X186846097Y-124433369D01*
X186846084Y-124433376D01*
X186682223Y-124542865D01*
X186682219Y-124542868D01*
X186542868Y-124682219D01*
X186542865Y-124682223D01*
X186433376Y-124846084D01*
X186433369Y-124846097D01*
X186357955Y-125028165D01*
X186357952Y-125028175D01*
X186352604Y-125055063D01*
X186320218Y-125116974D01*
X186318668Y-125118552D01*
X184824040Y-126613181D01*
X184762717Y-126646666D01*
X184736359Y-126649500D01*
X178550705Y-126649500D01*
X178483666Y-126629815D01*
X178437911Y-126577011D01*
X178427967Y-126507853D01*
X178456992Y-126444297D01*
X178494410Y-126415015D01*
X178534110Y-126394787D01*
X178597844Y-126348482D01*
X178699713Y-126274471D01*
X178699715Y-126274468D01*
X178699719Y-126274466D01*
X178844466Y-126129719D01*
X178844468Y-126129715D01*
X178844471Y-126129713D01*
X178897232Y-126057090D01*
X178964787Y-125964110D01*
X179057720Y-125781719D01*
X179120977Y-125587034D01*
X179153000Y-125384852D01*
X179153000Y-125180148D01*
X179128930Y-125028177D01*
X179120977Y-124977965D01*
X179057718Y-124783276D01*
X179006226Y-124682219D01*
X178964787Y-124600890D01*
X178922632Y-124542868D01*
X178844471Y-124435286D01*
X178699713Y-124290528D01*
X178534114Y-124170215D01*
X178527506Y-124166848D01*
X178441417Y-124122983D01*
X178390623Y-124075011D01*
X178373828Y-124007190D01*
X178396365Y-123941055D01*
X178441417Y-123902016D01*
X178534110Y-123854787D01*
X178662982Y-123761157D01*
X178699713Y-123734471D01*
X178699715Y-123734468D01*
X178699719Y-123734466D01*
X178844466Y-123589719D01*
X178844468Y-123589715D01*
X178844471Y-123589713D01*
X178897232Y-123517090D01*
X178964787Y-123424110D01*
X179057720Y-123241719D01*
X179120977Y-123047034D01*
X179153000Y-122844852D01*
X179153000Y-122696151D01*
X179172685Y-122629112D01*
X179189319Y-122608470D01*
X182910970Y-118886819D01*
X182972293Y-118853334D01*
X182998651Y-118850500D01*
X213583768Y-118850500D01*
X213583769Y-118850499D01*
X213638538Y-118839605D01*
X213748074Y-118817818D01*
X213748078Y-118817816D01*
X213748082Y-118817816D01*
X213793415Y-118799037D01*
X213902863Y-118753704D01*
X214042162Y-118660627D01*
X214451453Y-118251333D01*
X214512772Y-118217851D01*
X214514878Y-118217412D01*
X214541835Y-118212051D01*
X214723914Y-118136632D01*
X214887782Y-118027139D01*
X215027139Y-117887782D01*
X215136632Y-117723914D01*
X215212051Y-117541835D01*
X215217400Y-117514941D01*
X215249783Y-117453032D01*
X215251280Y-117451507D01*
X218280625Y-114422164D01*
X218373702Y-114282865D01*
X218437814Y-114128083D01*
X218443300Y-114100506D01*
X218470498Y-113963769D01*
X218470498Y-113876371D01*
X218490183Y-113809332D01*
X218521612Y-113776053D01*
X218532363Y-113768243D01*
X218688240Y-113612366D01*
X218688244Y-113612361D01*
X218688245Y-113612360D01*
X218789679Y-113472747D01*
X218845008Y-113430081D01*
X218914622Y-113424102D01*
X218976417Y-113456707D01*
X218990315Y-113472747D01*
X219091749Y-113612360D01*
X219091753Y-113612365D01*
X219247633Y-113768245D01*
X219247638Y-113768249D01*
X219326276Y-113825382D01*
X219425975Y-113897817D01*
X219528389Y-113950000D01*
X219622390Y-113997897D01*
X219622393Y-113997898D01*
X219725867Y-114031518D01*
X219832046Y-114066017D01*
X220049775Y-114100502D01*
X220049776Y-114100502D01*
X220270218Y-114100502D01*
X220270219Y-114100502D01*
X220487948Y-114066017D01*
X220697603Y-113997897D01*
X220894019Y-113897817D01*
X221072362Y-113768244D01*
X221228239Y-113612367D01*
X221329682Y-113472740D01*
X221385010Y-113430077D01*
X221454623Y-113424098D01*
X221516419Y-113456703D01*
X221530317Y-113472743D01*
X221631753Y-113612358D01*
X221631757Y-113612363D01*
X221787637Y-113768243D01*
X221787642Y-113768247D01*
X221936464Y-113876371D01*
X221965979Y-113897815D01*
X222068397Y-113950000D01*
X222162394Y-113997895D01*
X222162397Y-113997896D01*
X222265878Y-114031518D01*
X222372050Y-114066015D01*
X222589779Y-114100500D01*
X222589780Y-114100500D01*
X222810222Y-114100500D01*
X222810223Y-114100500D01*
X223027952Y-114066015D01*
X223237582Y-113997903D01*
X223237604Y-113997896D01*
X223237607Y-113997895D01*
X223304574Y-113963773D01*
X223434023Y-113897815D01*
X223498369Y-113851065D01*
X224442483Y-113851065D01*
X224442483Y-113851066D01*
X224506241Y-113897388D01*
X224702587Y-113997432D01*
X224912162Y-114065526D01*
X225129817Y-114100000D01*
X225350179Y-114100000D01*
X225567833Y-114065526D01*
X225777408Y-113997432D01*
X225973758Y-113897386D01*
X226037511Y-113851066D01*
X226037512Y-113851066D01*
X225239998Y-113053553D01*
X224442483Y-113851065D01*
X223498369Y-113851065D01*
X223612366Y-113768242D01*
X223768243Y-113612365D01*
X223768253Y-113612352D01*
X223818394Y-113543338D01*
X223869990Y-113472320D01*
X223925319Y-113429655D01*
X223994932Y-113423676D01*
X224056727Y-113456281D01*
X224070626Y-113472321D01*
X224088929Y-113497513D01*
X224088930Y-113497513D01*
X224886444Y-112700000D01*
X224886444Y-112699999D01*
X224840367Y-112653922D01*
X224889998Y-112653922D01*
X224889998Y-112746078D01*
X224913850Y-112835095D01*
X224959928Y-112914905D01*
X225025093Y-112980070D01*
X225104903Y-113026148D01*
X225193920Y-113050000D01*
X225286076Y-113050000D01*
X225375093Y-113026148D01*
X225454903Y-112980070D01*
X225520068Y-112914905D01*
X225566146Y-112835095D01*
X225589998Y-112746078D01*
X225589998Y-112699999D01*
X225593551Y-112699999D01*
X225593551Y-112700000D01*
X226366074Y-113472523D01*
X226396099Y-113521200D01*
X226445186Y-113669334D01*
X226537288Y-113818656D01*
X226661344Y-113942712D01*
X226810666Y-114034814D01*
X226977203Y-114089999D01*
X227079991Y-114100500D01*
X228480008Y-114100499D01*
X228582797Y-114089999D01*
X228749334Y-114034814D01*
X228898656Y-113942712D01*
X229022712Y-113818656D01*
X229114814Y-113669334D01*
X229169999Y-113502797D01*
X229180500Y-113400009D01*
X229180499Y-111999992D01*
X229177024Y-111965978D01*
X229169999Y-111897203D01*
X229169998Y-111897200D01*
X229133695Y-111787645D01*
X229114814Y-111730666D01*
X229022712Y-111581344D01*
X228898656Y-111457288D01*
X228805888Y-111400069D01*
X228749336Y-111365187D01*
X228749331Y-111365185D01*
X228747862Y-111364698D01*
X228582797Y-111310001D01*
X228582795Y-111310000D01*
X228480010Y-111299500D01*
X227079998Y-111299500D01*
X227079981Y-111299501D01*
X226977203Y-111310000D01*
X226977200Y-111310001D01*
X226810668Y-111365185D01*
X226810663Y-111365187D01*
X226661342Y-111457289D01*
X226537289Y-111581342D01*
X226445187Y-111730663D01*
X226445185Y-111730668D01*
X226396100Y-111878797D01*
X226366075Y-111927474D01*
X225593551Y-112699999D01*
X225589998Y-112699999D01*
X225589998Y-112653922D01*
X225566146Y-112564905D01*
X225520068Y-112485095D01*
X225454903Y-112419930D01*
X225375093Y-112373852D01*
X225286076Y-112350000D01*
X225193920Y-112350000D01*
X225104903Y-112373852D01*
X225025093Y-112419930D01*
X224959928Y-112485095D01*
X224913850Y-112564905D01*
X224889998Y-112653922D01*
X224840367Y-112653922D01*
X224088930Y-111902485D01*
X224088928Y-111902485D01*
X224070626Y-111927677D01*
X224015297Y-111970343D01*
X223945683Y-111976322D01*
X223883888Y-111943717D01*
X223869990Y-111927677D01*
X223768248Y-111787641D01*
X223768244Y-111787636D01*
X223612364Y-111631756D01*
X223612359Y-111631752D01*
X223498364Y-111548931D01*
X224442483Y-111548931D01*
X224442483Y-111548932D01*
X225239997Y-112346446D01*
X226037511Y-111548932D01*
X225973754Y-111502611D01*
X225777408Y-111402567D01*
X225567833Y-111334473D01*
X225350179Y-111300000D01*
X225129817Y-111300000D01*
X224912162Y-111334473D01*
X224702587Y-111402567D01*
X224506231Y-111502616D01*
X224442483Y-111548931D01*
X223498364Y-111548931D01*
X223434026Y-111502187D01*
X223434025Y-111502186D01*
X223434023Y-111502185D01*
X223366325Y-111467691D01*
X223237607Y-111402104D01*
X223237604Y-111402103D01*
X223027953Y-111333985D01*
X222876517Y-111310000D01*
X222810223Y-111299500D01*
X222589779Y-111299500D01*
X222523485Y-111310000D01*
X222372048Y-111333985D01*
X222162397Y-111402103D01*
X222162394Y-111402104D01*
X221965975Y-111502187D01*
X221787642Y-111631752D01*
X221787637Y-111631756D01*
X221631757Y-111787636D01*
X221631753Y-111787641D01*
X221530316Y-111927258D01*
X221474986Y-111969924D01*
X221405373Y-111975903D01*
X221343578Y-111943297D01*
X221329680Y-111927258D01*
X221228244Y-111787643D01*
X221228240Y-111787638D01*
X221072360Y-111631758D01*
X221072355Y-111631754D01*
X220894022Y-111502189D01*
X220894021Y-111502188D01*
X220894019Y-111502187D01*
X220831093Y-111470124D01*
X220697603Y-111402106D01*
X220697600Y-111402105D01*
X220487949Y-111333987D01*
X220379083Y-111316744D01*
X220270219Y-111299502D01*
X220049775Y-111299502D01*
X219983487Y-111310001D01*
X219832044Y-111333987D01*
X219622393Y-111402105D01*
X219622390Y-111402106D01*
X219425971Y-111502189D01*
X219247638Y-111631754D01*
X219247633Y-111631758D01*
X219091753Y-111787638D01*
X218990315Y-111927256D01*
X218934985Y-111969921D01*
X218865371Y-111975900D01*
X218803577Y-111943294D01*
X218789679Y-111927255D01*
X218688245Y-111787641D01*
X218532361Y-111631757D01*
X218532356Y-111631753D01*
X218354023Y-111502188D01*
X218354022Y-111502187D01*
X218354020Y-111502186D01*
X218291094Y-111470123D01*
X218157604Y-111402105D01*
X218157601Y-111402104D01*
X217947950Y-111333986D01*
X217796514Y-111310001D01*
X217730220Y-111299501D01*
X217509776Y-111299501D01*
X217443488Y-111310000D01*
X217292045Y-111333986D01*
X217082394Y-111402104D01*
X217082391Y-111402105D01*
X216885972Y-111502188D01*
X216707639Y-111631753D01*
X216707634Y-111631757D01*
X216551754Y-111787637D01*
X216450316Y-111927255D01*
X216394986Y-111969920D01*
X216325372Y-111975899D01*
X216263578Y-111943293D01*
X216249680Y-111927254D01*
X216148248Y-111787643D01*
X215992364Y-111631759D01*
X215992359Y-111631755D01*
X215814026Y-111502190D01*
X215814025Y-111502189D01*
X215814023Y-111502188D01*
X215725903Y-111457288D01*
X215617607Y-111402107D01*
X215617604Y-111402106D01*
X215407953Y-111333988D01*
X215299087Y-111316745D01*
X215190223Y-111299503D01*
X214969779Y-111299503D01*
X214897202Y-111310998D01*
X214752048Y-111333988D01*
X214542397Y-111402106D01*
X214542394Y-111402107D01*
X214345975Y-111502190D01*
X214167642Y-111631755D01*
X214167637Y-111631759D01*
X214011757Y-111787639D01*
X214011753Y-111787644D01*
X213910320Y-111927255D01*
X213854990Y-111969921D01*
X213785377Y-111975900D01*
X213723582Y-111943294D01*
X213709688Y-111927261D01*
X213608241Y-111787630D01*
X213452364Y-111631753D01*
X213452363Y-111631752D01*
X213452362Y-111631751D01*
X213452357Y-111631747D01*
X213274024Y-111502182D01*
X213274023Y-111502181D01*
X213274021Y-111502180D01*
X213206329Y-111467689D01*
X213077605Y-111402099D01*
X213077602Y-111402098D01*
X212867951Y-111333980D01*
X212716553Y-111310001D01*
X212650221Y-111299495D01*
X212429777Y-111299495D01*
X212363451Y-111310000D01*
X212212046Y-111333980D01*
X212002395Y-111402098D01*
X212002392Y-111402099D01*
X211805973Y-111502182D01*
X211627640Y-111631747D01*
X211627635Y-111631751D01*
X211471755Y-111787631D01*
X211370315Y-111927252D01*
X211314985Y-111969917D01*
X211245372Y-111975896D01*
X211183577Y-111943290D01*
X211169679Y-111927251D01*
X211068247Y-111787640D01*
X210912363Y-111631756D01*
X210912358Y-111631752D01*
X210734025Y-111502187D01*
X210734024Y-111502186D01*
X210734022Y-111502185D01*
X210666324Y-111467691D01*
X210537606Y-111402104D01*
X210537603Y-111402103D01*
X210327952Y-111333985D01*
X210176516Y-111310000D01*
X210110222Y-111299500D01*
X209889778Y-111299500D01*
X209823484Y-111310000D01*
X209672047Y-111333985D01*
X209462396Y-111402103D01*
X209462393Y-111402104D01*
X209265974Y-111502187D01*
X209087641Y-111631752D01*
X209087636Y-111631756D01*
X208931756Y-111787636D01*
X208931752Y-111787641D01*
X208830314Y-111927259D01*
X208774984Y-111969925D01*
X208705371Y-111975904D01*
X208643576Y-111943298D01*
X208629683Y-111927266D01*
X208528241Y-111787642D01*
X208372364Y-111631765D01*
X208372363Y-111631764D01*
X208372362Y-111631763D01*
X208372357Y-111631759D01*
X208194024Y-111502194D01*
X208194023Y-111502193D01*
X208194021Y-111502192D01*
X208105893Y-111457288D01*
X207997605Y-111402111D01*
X207997602Y-111402110D01*
X207787951Y-111333992D01*
X207636471Y-111310000D01*
X207570221Y-111299507D01*
X207349777Y-111299507D01*
X207283527Y-111310000D01*
X207132046Y-111333992D01*
X206922395Y-111402110D01*
X206922392Y-111402111D01*
X206725973Y-111502194D01*
X206547640Y-111631759D01*
X206547635Y-111631763D01*
X206391755Y-111787643D01*
X206391751Y-111787648D01*
X206290318Y-111927259D01*
X206234988Y-111969925D01*
X206165375Y-111975904D01*
X206103580Y-111943298D01*
X206089682Y-111927259D01*
X205988248Y-111787645D01*
X205832364Y-111631761D01*
X205832359Y-111631757D01*
X205654026Y-111502192D01*
X205654025Y-111502191D01*
X205654023Y-111502190D01*
X205565899Y-111457288D01*
X205457607Y-111402109D01*
X205457604Y-111402108D01*
X205247953Y-111333990D01*
X205096492Y-111310001D01*
X205030223Y-111299505D01*
X204809779Y-111299505D01*
X204743516Y-111310000D01*
X204592048Y-111333990D01*
X204382397Y-111402108D01*
X204382394Y-111402109D01*
X204185975Y-111502192D01*
X204007642Y-111631757D01*
X204007637Y-111631761D01*
X203851757Y-111787641D01*
X203851753Y-111787646D01*
X203750320Y-111927258D01*
X203694990Y-111969924D01*
X203625377Y-111975903D01*
X203563582Y-111943298D01*
X203549684Y-111927258D01*
X203448245Y-111787639D01*
X203448241Y-111787634D01*
X203292361Y-111631754D01*
X203292356Y-111631750D01*
X203114023Y-111502185D01*
X203114022Y-111502184D01*
X203114020Y-111502183D01*
X203046322Y-111467689D01*
X202917604Y-111402102D01*
X202917601Y-111402101D01*
X202707950Y-111333983D01*
X202556533Y-111310001D01*
X202490220Y-111299498D01*
X202269776Y-111299498D01*
X202266607Y-111300000D01*
X202052045Y-111333983D01*
X201842394Y-111402101D01*
X201842391Y-111402102D01*
X201645972Y-111502185D01*
X201467639Y-111631750D01*
X201467634Y-111631754D01*
X201311754Y-111787634D01*
X201311750Y-111787639D01*
X201210313Y-111927256D01*
X201154983Y-111969922D01*
X201085370Y-111975901D01*
X201023575Y-111943295D01*
X201009678Y-111927258D01*
X200908241Y-111787641D01*
X200752364Y-111631764D01*
X200752363Y-111631763D01*
X200752362Y-111631762D01*
X200752357Y-111631758D01*
X200574024Y-111502193D01*
X200574023Y-111502192D01*
X200574021Y-111502191D01*
X200485895Y-111457288D01*
X200377605Y-111402110D01*
X200377602Y-111402109D01*
X200167951Y-111333991D01*
X200059085Y-111316748D01*
X199950221Y-111299506D01*
X199729777Y-111299506D01*
X199663521Y-111310000D01*
X199512046Y-111333991D01*
X199302395Y-111402109D01*
X199302392Y-111402110D01*
X199105973Y-111502193D01*
X198927640Y-111631758D01*
X198927635Y-111631762D01*
X198771755Y-111787642D01*
X198670323Y-111927252D01*
X198614993Y-111969917D01*
X198545380Y-111975896D01*
X198483585Y-111943290D01*
X198469690Y-111927256D01*
X198368246Y-111787629D01*
X198212369Y-111631752D01*
X198212368Y-111631751D01*
X198212367Y-111631750D01*
X198212362Y-111631746D01*
X198034029Y-111502181D01*
X198034028Y-111502180D01*
X198034026Y-111502179D01*
X197966336Y-111467689D01*
X197837610Y-111402098D01*
X197837607Y-111402097D01*
X197627956Y-111333979D01*
X197476558Y-111310000D01*
X197410226Y-111299494D01*
X197189782Y-111299494D01*
X197123450Y-111310000D01*
X196972051Y-111333979D01*
X196762400Y-111402097D01*
X196762397Y-111402098D01*
X196565978Y-111502181D01*
X196387645Y-111631746D01*
X196387640Y-111631750D01*
X196231760Y-111787630D01*
X196130317Y-111927255D01*
X196074987Y-111969920D01*
X196005374Y-111975899D01*
X195943579Y-111943293D01*
X195929681Y-111927254D01*
X195828247Y-111787640D01*
X195672363Y-111631756D01*
X195672358Y-111631752D01*
X195494025Y-111502187D01*
X195494024Y-111502186D01*
X195494022Y-111502185D01*
X195426324Y-111467691D01*
X195297606Y-111402104D01*
X195297603Y-111402103D01*
X195087952Y-111333985D01*
X194936516Y-111310000D01*
X194870222Y-111299500D01*
X194649778Y-111299500D01*
X194583484Y-111310000D01*
X194432047Y-111333985D01*
X194222396Y-111402103D01*
X194222393Y-111402104D01*
X194025974Y-111502187D01*
X193847641Y-111631752D01*
X193847636Y-111631756D01*
X193691756Y-111787636D01*
X193691752Y-111787641D01*
X193590317Y-111927255D01*
X193534987Y-111969921D01*
X193465374Y-111975900D01*
X193403579Y-111943294D01*
X193389686Y-111927262D01*
X193288241Y-111787634D01*
X193132364Y-111631757D01*
X193132363Y-111631756D01*
X193132362Y-111631755D01*
X193132357Y-111631751D01*
X192954024Y-111502186D01*
X192954023Y-111502185D01*
X192954021Y-111502184D01*
X192886325Y-111467691D01*
X192757605Y-111402103D01*
X192757602Y-111402102D01*
X192547951Y-111333984D01*
X192439085Y-111316741D01*
X192330221Y-111299499D01*
X192109777Y-111299499D01*
X192043477Y-111310000D01*
X191892046Y-111333984D01*
X191682395Y-111402102D01*
X191682392Y-111402103D01*
X191485973Y-111502186D01*
X191307640Y-111631751D01*
X191307635Y-111631755D01*
X191151755Y-111787635D01*
X191151751Y-111787640D01*
X191050317Y-111927253D01*
X190994987Y-111969919D01*
X190925374Y-111975898D01*
X190863579Y-111943292D01*
X190849681Y-111927253D01*
X190748247Y-111787641D01*
X190748243Y-111787636D01*
X190592363Y-111631756D01*
X190592358Y-111631752D01*
X190414025Y-111502187D01*
X190414024Y-111502186D01*
X190414022Y-111502185D01*
X190346324Y-111467691D01*
X190217606Y-111402104D01*
X190217603Y-111402103D01*
X190007952Y-111333985D01*
X189856516Y-111310000D01*
X189790222Y-111299500D01*
X189569778Y-111299500D01*
X189503484Y-111310000D01*
X189352047Y-111333985D01*
X189142396Y-111402103D01*
X189142393Y-111402104D01*
X188945974Y-111502187D01*
X188767641Y-111631752D01*
X188767636Y-111631756D01*
X188611756Y-111787636D01*
X188611752Y-111787641D01*
X188510315Y-111927258D01*
X188454985Y-111969924D01*
X188385372Y-111975903D01*
X188323577Y-111943297D01*
X188309679Y-111927258D01*
X188208244Y-111787644D01*
X188208240Y-111787639D01*
X188052360Y-111631759D01*
X188052355Y-111631755D01*
X187874022Y-111502190D01*
X187874021Y-111502189D01*
X187874019Y-111502188D01*
X187785899Y-111457288D01*
X187677603Y-111402107D01*
X187677600Y-111402106D01*
X187467949Y-111333988D01*
X187359083Y-111316745D01*
X187250219Y-111299503D01*
X187029775Y-111299503D01*
X186957198Y-111310998D01*
X186812044Y-111333988D01*
X186602393Y-111402106D01*
X186602390Y-111402107D01*
X186405971Y-111502190D01*
X186227638Y-111631755D01*
X186227633Y-111631759D01*
X186071753Y-111787639D01*
X185971330Y-111925860D01*
X185916000Y-111968525D01*
X185846386Y-111974504D01*
X185784592Y-111941898D01*
X185770694Y-111925860D01*
X185645206Y-111753139D01*
X185489329Y-111597262D01*
X185489327Y-111597260D01*
X185489322Y-111597256D01*
X185310989Y-111467691D01*
X185310988Y-111467690D01*
X185310986Y-111467689D01*
X185248060Y-111435626D01*
X185114570Y-111367608D01*
X185114567Y-111367607D01*
X184904916Y-111299489D01*
X184796050Y-111282246D01*
X184687186Y-111265004D01*
X184466742Y-111265004D01*
X184394165Y-111276499D01*
X184249011Y-111299489D01*
X184039360Y-111367607D01*
X184039357Y-111367608D01*
X183842938Y-111467691D01*
X183664605Y-111597256D01*
X183664600Y-111597260D01*
X183508720Y-111753140D01*
X183508716Y-111753145D01*
X183406270Y-111894151D01*
X183350940Y-111936817D01*
X183281327Y-111942796D01*
X183219532Y-111910190D01*
X183205634Y-111894151D01*
X183128249Y-111787640D01*
X183128245Y-111787635D01*
X182972365Y-111631755D01*
X182972360Y-111631751D01*
X182794027Y-111502186D01*
X182794026Y-111502185D01*
X182794024Y-111502184D01*
X182726328Y-111467691D01*
X182597608Y-111402103D01*
X182597605Y-111402102D01*
X182387954Y-111333984D01*
X182279088Y-111316741D01*
X182170224Y-111299499D01*
X181949780Y-111299499D01*
X181883480Y-111310000D01*
X181732049Y-111333984D01*
X181522398Y-111402102D01*
X181522395Y-111402103D01*
X181325976Y-111502186D01*
X181147643Y-111631751D01*
X181147638Y-111631755D01*
X180991758Y-111787635D01*
X180890318Y-111927256D01*
X180834988Y-111969921D01*
X180765375Y-111975900D01*
X180703580Y-111943294D01*
X180689682Y-111927255D01*
X180588247Y-111787641D01*
X180588243Y-111787636D01*
X180432363Y-111631756D01*
X180432358Y-111631752D01*
X180254025Y-111502187D01*
X180254024Y-111502186D01*
X180254022Y-111502185D01*
X180186324Y-111467691D01*
X180057606Y-111402104D01*
X180057603Y-111402103D01*
X179847952Y-111333985D01*
X179696516Y-111310000D01*
X179630222Y-111299500D01*
X179409778Y-111299500D01*
X179343484Y-111310000D01*
X179192047Y-111333985D01*
X178982396Y-111402103D01*
X178982393Y-111402104D01*
X178785974Y-111502187D01*
X178607641Y-111631752D01*
X178607636Y-111631756D01*
X178451756Y-111787636D01*
X178451752Y-111787641D01*
X178322187Y-111965974D01*
X178222104Y-112162393D01*
X178222103Y-112162396D01*
X178153985Y-112372047D01*
X178119500Y-112589778D01*
X178119500Y-112810221D01*
X178153985Y-113027952D01*
X178222103Y-113237603D01*
X178222104Y-113237606D01*
X178274987Y-113341392D01*
X178322184Y-113434021D01*
X178322187Y-113434025D01*
X178451752Y-113612358D01*
X178451756Y-113612363D01*
X178607636Y-113768243D01*
X178607641Y-113768247D01*
X178756463Y-113876371D01*
X178785978Y-113897815D01*
X178888396Y-113950000D01*
X178982393Y-113997895D01*
X178982396Y-113997896D01*
X179085877Y-114031518D01*
X179192049Y-114066015D01*
X179409778Y-114100500D01*
X179409779Y-114100500D01*
X179630221Y-114100500D01*
X179630222Y-114100500D01*
X179847951Y-114066015D01*
X180057581Y-113997903D01*
X180057603Y-113997896D01*
X180057606Y-113997895D01*
X180124573Y-113963773D01*
X180254022Y-113897815D01*
X180432365Y-113768242D01*
X180588242Y-113612365D01*
X180689683Y-113472741D01*
X180745012Y-113430077D01*
X180814625Y-113424098D01*
X180876421Y-113456703D01*
X180890319Y-113472743D01*
X180991754Y-113612357D01*
X180991758Y-113612362D01*
X181147638Y-113768242D01*
X181147643Y-113768246D01*
X181262831Y-113851934D01*
X181325980Y-113897814D01*
X181428400Y-113950000D01*
X181522395Y-113997894D01*
X181522398Y-113997895D01*
X181603088Y-114024112D01*
X181732051Y-114066014D01*
X181949780Y-114100499D01*
X181949781Y-114100499D01*
X182170223Y-114100499D01*
X182170224Y-114100499D01*
X182387953Y-114066014D01*
X182597583Y-113997902D01*
X182597605Y-113997895D01*
X182597608Y-113997894D01*
X182598515Y-113997432D01*
X182794024Y-113897814D01*
X182972367Y-113768241D01*
X183128244Y-113612364D01*
X183230695Y-113471350D01*
X183286024Y-113428685D01*
X183355637Y-113422706D01*
X183417432Y-113455311D01*
X183431331Y-113471351D01*
X183508716Y-113577862D01*
X183508720Y-113577867D01*
X183664600Y-113733747D01*
X183664605Y-113733751D01*
X183790726Y-113825382D01*
X183842942Y-113863319D01*
X183926470Y-113905879D01*
X184039357Y-113963399D01*
X184039360Y-113963400D01*
X184144102Y-113997432D01*
X184249013Y-114031519D01*
X184466742Y-114066004D01*
X184466743Y-114066004D01*
X184687185Y-114066004D01*
X184687186Y-114066004D01*
X184904915Y-114031519D01*
X185114570Y-113963399D01*
X185310986Y-113863319D01*
X185489329Y-113733746D01*
X185645206Y-113577869D01*
X185745630Y-113439646D01*
X185800959Y-113396981D01*
X185870573Y-113391002D01*
X185932368Y-113423607D01*
X185946266Y-113439647D01*
X186071749Y-113612362D01*
X186227633Y-113768246D01*
X186227638Y-113768250D01*
X186350707Y-113857664D01*
X186405975Y-113897818D01*
X186494080Y-113942710D01*
X186602390Y-113997898D01*
X186602393Y-113997899D01*
X186683104Y-114024123D01*
X186812046Y-114066018D01*
X187029775Y-114100503D01*
X187029776Y-114100503D01*
X187250218Y-114100503D01*
X187250219Y-114100503D01*
X187467948Y-114066018D01*
X187677603Y-113997898D01*
X187874019Y-113897818D01*
X188052362Y-113768245D01*
X188208239Y-113612368D01*
X188309682Y-113472741D01*
X188365010Y-113430078D01*
X188434623Y-113424099D01*
X188496419Y-113456704D01*
X188510317Y-113472744D01*
X188611752Y-113612358D01*
X188611756Y-113612363D01*
X188767636Y-113768243D01*
X188767641Y-113768247D01*
X188916463Y-113876371D01*
X188945978Y-113897815D01*
X189048396Y-113950000D01*
X189142393Y-113997895D01*
X189142396Y-113997896D01*
X189245877Y-114031518D01*
X189352049Y-114066015D01*
X189569778Y-114100500D01*
X189569779Y-114100500D01*
X189790221Y-114100500D01*
X189790222Y-114100500D01*
X190007951Y-114066015D01*
X190217581Y-113997903D01*
X190217603Y-113997896D01*
X190217606Y-113997895D01*
X190284573Y-113963773D01*
X190414022Y-113897815D01*
X190592365Y-113768242D01*
X190748242Y-113612365D01*
X190849682Y-113472742D01*
X190905010Y-113430079D01*
X190974623Y-113424100D01*
X191036418Y-113456705D01*
X191050317Y-113472745D01*
X191151751Y-113612357D01*
X191151755Y-113612362D01*
X191307635Y-113768242D01*
X191307640Y-113768246D01*
X191422828Y-113851934D01*
X191485977Y-113897814D01*
X191588397Y-113950000D01*
X191682392Y-113997894D01*
X191682395Y-113997895D01*
X191763085Y-114024112D01*
X191892048Y-114066014D01*
X192109777Y-114100499D01*
X192109778Y-114100499D01*
X192330220Y-114100499D01*
X192330221Y-114100499D01*
X192547950Y-114066014D01*
X192757580Y-113997902D01*
X192757602Y-113997895D01*
X192757605Y-113997894D01*
X192758512Y-113997432D01*
X192954021Y-113897814D01*
X193132364Y-113768241D01*
X193288241Y-113612364D01*
X193389682Y-113472741D01*
X193445010Y-113430077D01*
X193514623Y-113424098D01*
X193576419Y-113456703D01*
X193590313Y-113472737D01*
X193669029Y-113581081D01*
X193691758Y-113612365D01*
X193847636Y-113768243D01*
X193847641Y-113768247D01*
X193996463Y-113876371D01*
X194025978Y-113897815D01*
X194128396Y-113950000D01*
X194222393Y-113997895D01*
X194222396Y-113997896D01*
X194325877Y-114031518D01*
X194432049Y-114066015D01*
X194649778Y-114100500D01*
X194649779Y-114100500D01*
X194870221Y-114100500D01*
X194870222Y-114100500D01*
X195087951Y-114066015D01*
X195297581Y-113997903D01*
X195297603Y-113997896D01*
X195297606Y-113997895D01*
X195364573Y-113963773D01*
X195494022Y-113897815D01*
X195672365Y-113768242D01*
X195828242Y-113612365D01*
X195929686Y-113472737D01*
X195985015Y-113430073D01*
X196054629Y-113424094D01*
X196116424Y-113456699D01*
X196130322Y-113472739D01*
X196231756Y-113612352D01*
X196231760Y-113612357D01*
X196387640Y-113768237D01*
X196387645Y-113768241D01*
X196466294Y-113825382D01*
X196565982Y-113897809D01*
X196668412Y-113950000D01*
X196762397Y-113997889D01*
X196762400Y-113997890D01*
X196843096Y-114024109D01*
X196972053Y-114066009D01*
X197189782Y-114100494D01*
X197189783Y-114100494D01*
X197410225Y-114100494D01*
X197410226Y-114100494D01*
X197627955Y-114066009D01*
X197837585Y-113997897D01*
X197837607Y-113997890D01*
X197837610Y-113997889D01*
X197838507Y-113997432D01*
X198034026Y-113897809D01*
X198212369Y-113768236D01*
X198368246Y-113612359D01*
X198469679Y-113472746D01*
X198525008Y-113430082D01*
X198594621Y-113424103D01*
X198656417Y-113456708D01*
X198670315Y-113472748D01*
X198771751Y-113612365D01*
X198927635Y-113768249D01*
X198927640Y-113768253D01*
X199050705Y-113857664D01*
X199105977Y-113897821D01*
X199194076Y-113942710D01*
X199302392Y-113997901D01*
X199302395Y-113997902D01*
X199336731Y-114009058D01*
X199512048Y-114066021D01*
X199729777Y-114100506D01*
X199729778Y-114100506D01*
X199950220Y-114100506D01*
X199950221Y-114100506D01*
X200167950Y-114066021D01*
X200377605Y-113997901D01*
X200574021Y-113897821D01*
X200752364Y-113768248D01*
X200908241Y-113612371D01*
X201009684Y-113472744D01*
X201065012Y-113430081D01*
X201134625Y-113424102D01*
X201196421Y-113456707D01*
X201210319Y-113472747D01*
X201311750Y-113612357D01*
X201467634Y-113768241D01*
X201467639Y-113768245D01*
X201590715Y-113857664D01*
X201645976Y-113897813D01*
X201748398Y-113950000D01*
X201842391Y-113997893D01*
X201842394Y-113997894D01*
X201923078Y-114024109D01*
X202052047Y-114066013D01*
X202269776Y-114100498D01*
X202269777Y-114100498D01*
X202490219Y-114100498D01*
X202490220Y-114100498D01*
X202707949Y-114066013D01*
X202917579Y-113997901D01*
X202917601Y-113997894D01*
X202917604Y-113997893D01*
X202918509Y-113997432D01*
X203114020Y-113897813D01*
X203292363Y-113768240D01*
X203448240Y-113612363D01*
X203549678Y-113472743D01*
X203605007Y-113430078D01*
X203674620Y-113424099D01*
X203736415Y-113456704D01*
X203750314Y-113472744D01*
X203851753Y-113612363D01*
X203851757Y-113612368D01*
X204007637Y-113768248D01*
X204007642Y-113768252D01*
X204138488Y-113863316D01*
X204185979Y-113897820D01*
X204274080Y-113942710D01*
X204382394Y-113997900D01*
X204382397Y-113997901D01*
X204416736Y-114009058D01*
X204592050Y-114066020D01*
X204809779Y-114100505D01*
X204809780Y-114100505D01*
X205030222Y-114100505D01*
X205030223Y-114100505D01*
X205247952Y-114066020D01*
X205457607Y-113997900D01*
X205654023Y-113897820D01*
X205832366Y-113768247D01*
X205988243Y-113612370D01*
X206089681Y-113472750D01*
X206145010Y-113430086D01*
X206214623Y-113424107D01*
X206276419Y-113456712D01*
X206290317Y-113472752D01*
X206391751Y-113612365D01*
X206391755Y-113612370D01*
X206547635Y-113768250D01*
X206547640Y-113768254D01*
X206662817Y-113851934D01*
X206725977Y-113897822D01*
X206814074Y-113942710D01*
X206922392Y-113997902D01*
X206922395Y-113997903D01*
X207003051Y-114024109D01*
X207132048Y-114066022D01*
X207349777Y-114100507D01*
X207349778Y-114100507D01*
X207570220Y-114100507D01*
X207570221Y-114100507D01*
X207787950Y-114066022D01*
X207997605Y-113997902D01*
X208194021Y-113897822D01*
X208372364Y-113768249D01*
X208528241Y-113612372D01*
X208629685Y-113472745D01*
X208685013Y-113430081D01*
X208754626Y-113424102D01*
X208816422Y-113456707D01*
X208830314Y-113472739D01*
X208909029Y-113581081D01*
X208931758Y-113612365D01*
X209087636Y-113768243D01*
X209087641Y-113768247D01*
X209236463Y-113876371D01*
X209265978Y-113897815D01*
X209368396Y-113950000D01*
X209462393Y-113997895D01*
X209462396Y-113997896D01*
X209565877Y-114031518D01*
X209672049Y-114066015D01*
X209889778Y-114100500D01*
X209889779Y-114100500D01*
X210110221Y-114100500D01*
X210110222Y-114100500D01*
X210327951Y-114066015D01*
X210537581Y-113997903D01*
X210537603Y-113997896D01*
X210537606Y-113997895D01*
X210604573Y-113963773D01*
X210734022Y-113897815D01*
X210912365Y-113768242D01*
X211068242Y-113612365D01*
X211169683Y-113472741D01*
X211225012Y-113430077D01*
X211294625Y-113424098D01*
X211356421Y-113456703D01*
X211370319Y-113472743D01*
X211471751Y-113612353D01*
X211471755Y-113612358D01*
X211627635Y-113768238D01*
X211627640Y-113768242D01*
X211750720Y-113857664D01*
X211805977Y-113897810D01*
X211908405Y-113950000D01*
X212002392Y-113997890D01*
X212002395Y-113997891D01*
X212083088Y-114024109D01*
X212212048Y-114066010D01*
X212429777Y-114100495D01*
X212429778Y-114100495D01*
X212650220Y-114100495D01*
X212650221Y-114100495D01*
X212867950Y-114066010D01*
X213077580Y-113997898D01*
X213077602Y-113997891D01*
X213077605Y-113997890D01*
X213078504Y-113997432D01*
X213274021Y-113897810D01*
X213452364Y-113768237D01*
X213608241Y-113612360D01*
X213709679Y-113472740D01*
X213765008Y-113430076D01*
X213834621Y-113424097D01*
X213896417Y-113456702D01*
X213910312Y-113472737D01*
X213961606Y-113543338D01*
X214011759Y-113612368D01*
X214167637Y-113768246D01*
X214167642Y-113768250D01*
X214290711Y-113857664D01*
X214345979Y-113897818D01*
X214434084Y-113942710D01*
X214542394Y-113997898D01*
X214542397Y-113997899D01*
X214623108Y-114024123D01*
X214752050Y-114066018D01*
X214969779Y-114100503D01*
X214969780Y-114100503D01*
X215190222Y-114100503D01*
X215190223Y-114100503D01*
X215407952Y-114066018D01*
X215617607Y-113997898D01*
X215814023Y-113897818D01*
X215992366Y-113768245D01*
X216148243Y-113612368D01*
X216148247Y-113612363D01*
X216148248Y-113612362D01*
X216249682Y-113472749D01*
X216305011Y-113430083D01*
X216374625Y-113424104D01*
X216436420Y-113456709D01*
X216450318Y-113472749D01*
X216545510Y-113603770D01*
X216568990Y-113669576D01*
X216553164Y-113737630D01*
X216532873Y-113764336D01*
X214048546Y-116248663D01*
X213987223Y-116282148D01*
X213985057Y-116282599D01*
X213958170Y-116287947D01*
X213958162Y-116287949D01*
X213776092Y-116363364D01*
X213776079Y-116363371D01*
X213612218Y-116472860D01*
X213612214Y-116472863D01*
X213472863Y-116612214D01*
X213472860Y-116612218D01*
X213363371Y-116776079D01*
X213363364Y-116776092D01*
X213287950Y-116958160D01*
X213287947Y-116958170D01*
X213282599Y-116985058D01*
X213273834Y-117001812D01*
X213269815Y-117020292D01*
X213251066Y-117045337D01*
X213250213Y-117046969D01*
X213248664Y-117048547D01*
X213184028Y-117113182D01*
X213122708Y-117146666D01*
X213096349Y-117149500D01*
X182511228Y-117149500D01*
X182346925Y-117182182D01*
X182346913Y-117182185D01*
X182301583Y-117200962D01*
X182192143Y-117246292D01*
X182192130Y-117246299D01*
X182052838Y-117339372D01*
X182052834Y-117339375D01*
X177986530Y-121405681D01*
X177925207Y-121439166D01*
X177898849Y-121442000D01*
X177750148Y-121442000D01*
X177725829Y-121445851D01*
X177547965Y-121474022D01*
X177353276Y-121537281D01*
X177170886Y-121630215D01*
X177005286Y-121750528D01*
X176860528Y-121895286D01*
X176740215Y-122060886D01*
X176647281Y-122243276D01*
X176584022Y-122437965D01*
X176552000Y-122640148D01*
X176552000Y-122844851D01*
X176584022Y-123047034D01*
X176647281Y-123241723D01*
X176740215Y-123424113D01*
X176860528Y-123589713D01*
X177005286Y-123734471D01*
X177160249Y-123847056D01*
X177170890Y-123854787D01*
X177262340Y-123901383D01*
X177263580Y-123902015D01*
X177314376Y-123949990D01*
X177331171Y-124017811D01*
X177308634Y-124083946D01*
X177263580Y-124122985D01*
X177170886Y-124170215D01*
X177005286Y-124290528D01*
X176860528Y-124435286D01*
X176740215Y-124600886D01*
X176647281Y-124783276D01*
X176584022Y-124977965D01*
X176552000Y-125180148D01*
X176552000Y-125384851D01*
X176584022Y-125587034D01*
X176647281Y-125781723D01*
X176711191Y-125907153D01*
X176733513Y-125950961D01*
X176740215Y-125964113D01*
X176860528Y-126129713D01*
X177005286Y-126274471D01*
X177170885Y-126394784D01*
X177170887Y-126394785D01*
X177170890Y-126394787D01*
X177210590Y-126415015D01*
X177261386Y-126462990D01*
X177278181Y-126530810D01*
X177255644Y-126596945D01*
X177200929Y-126640397D01*
X177154295Y-126649500D01*
X172853651Y-126649500D01*
X172786612Y-126629815D01*
X172765970Y-126613181D01*
X171569319Y-125416530D01*
X171535834Y-125355207D01*
X171533000Y-125328849D01*
X171533000Y-125180148D01*
X171500977Y-124977965D01*
X171437718Y-124783276D01*
X171386226Y-124682219D01*
X171344787Y-124600890D01*
X171302632Y-124542868D01*
X171224471Y-124435286D01*
X171079719Y-124290534D01*
X171079711Y-124290528D01*
X170986047Y-124222478D01*
X170943382Y-124167149D01*
X170937403Y-124097536D01*
X170970008Y-124035740D01*
X171019926Y-124004455D01*
X171101834Y-123977314D01*
X171251156Y-123885212D01*
X171375212Y-123761156D01*
X171467314Y-123611834D01*
X171522499Y-123445297D01*
X171533000Y-123342509D01*
X171532999Y-122142492D01*
X171522499Y-122039703D01*
X171467314Y-121873166D01*
X171375212Y-121723844D01*
X171251156Y-121599788D01*
X171101834Y-121507686D01*
X170935297Y-121452501D01*
X170935295Y-121452500D01*
X170832510Y-121442000D01*
X169632498Y-121442000D01*
X169632481Y-121442001D01*
X169529703Y-121452500D01*
X169529700Y-121452501D01*
X169363168Y-121507685D01*
X169363163Y-121507687D01*
X169213842Y-121599789D01*
X169089789Y-121723842D01*
X168997687Y-121873163D01*
X168997686Y-121873166D01*
X168942501Y-122039703D01*
X168942501Y-122039704D01*
X168942500Y-122039704D01*
X168932000Y-122142483D01*
X168932000Y-123342501D01*
X168932001Y-123342518D01*
X168942500Y-123445296D01*
X168942501Y-123445299D01*
X168990356Y-123589713D01*
X168997686Y-123611834D01*
X169089788Y-123761156D01*
X169213844Y-123885212D01*
X169363166Y-123977314D01*
X169445070Y-124004454D01*
X169502515Y-124044227D01*
X169529338Y-124108743D01*
X169517023Y-124177518D01*
X169478951Y-124222478D01*
X169385287Y-124290528D01*
X169385282Y-124290532D01*
X169240528Y-124435286D01*
X169120215Y-124600886D01*
X169027281Y-124783276D01*
X168964022Y-124977965D01*
X168932000Y-125180148D01*
X168932000Y-125384851D01*
X168964022Y-125587034D01*
X169027281Y-125781723D01*
X169091191Y-125907153D01*
X169113513Y-125950961D01*
X169120215Y-125964113D01*
X169240528Y-126129713D01*
X169385286Y-126274471D01*
X169540249Y-126387056D01*
X169550890Y-126394787D01*
X169648059Y-126444297D01*
X169733276Y-126487718D01*
X169733278Y-126487718D01*
X169733281Y-126487720D01*
X169795244Y-126507853D01*
X169927965Y-126550977D01*
X170029057Y-126566988D01*
X170130148Y-126583000D01*
X170278849Y-126583000D01*
X170345888Y-126602685D01*
X170366530Y-126619319D01*
X171907834Y-128160624D01*
X171907842Y-128160630D01*
X172047127Y-128253697D01*
X172047131Y-128253699D01*
X172047138Y-128253704D01*
X172113247Y-128281087D01*
X172201918Y-128317816D01*
X172366228Y-128350499D01*
X172366232Y-128350500D01*
X172366233Y-128350500D01*
X185223778Y-128350500D01*
X185223779Y-128350499D01*
X185278548Y-128339605D01*
X185388084Y-128317818D01*
X185388088Y-128317816D01*
X185388092Y-128317816D01*
X185433425Y-128299037D01*
X185542873Y-128253704D01*
X185682172Y-128160627D01*
X187521457Y-126321339D01*
X187566733Y-126292498D01*
X187575643Y-126289255D01*
X187611840Y-126282056D01*
X187730554Y-126232883D01*
X187733097Y-126231958D01*
X187765362Y-126229909D01*
X187797517Y-126226452D01*
X187800025Y-126227707D01*
X187802826Y-126227530D01*
X187831074Y-126243249D01*
X187859996Y-126257727D01*
X187861428Y-126260141D01*
X187863879Y-126261505D01*
X187879145Y-126290002D01*
X187895648Y-126317816D01*
X187896138Y-126321722D01*
X187896873Y-126323093D01*
X187896655Y-126325832D01*
X187899500Y-126348482D01*
X187899500Y-128333771D01*
X187932182Y-128498075D01*
X187932185Y-128498086D01*
X187946516Y-128532680D01*
X187946517Y-128532686D01*
X187946518Y-128532686D01*
X187996296Y-128652863D01*
X187996297Y-128652866D01*
X188089372Y-128792161D01*
X188089375Y-128792165D01*
X194707830Y-135410619D01*
X194707834Y-135410622D01*
X194707838Y-135410626D01*
X194725458Y-135422399D01*
X194770262Y-135476010D01*
X194778969Y-135545335D01*
X194748815Y-135608363D01*
X194689372Y-135645082D01*
X194656566Y-135649500D01*
X183456228Y-135649500D01*
X183291925Y-135682182D01*
X183291913Y-135682185D01*
X183246583Y-135700962D01*
X183137143Y-135746292D01*
X183137130Y-135746299D01*
X182997838Y-135839372D01*
X182997834Y-135839375D01*
X181199028Y-137638181D01*
X181137705Y-137671666D01*
X181111347Y-137674500D01*
X180167129Y-137674500D01*
X180167123Y-137674501D01*
X180107516Y-137680908D01*
X179972671Y-137731202D01*
X179972664Y-137731206D01*
X179857455Y-137817452D01*
X179857452Y-137817455D01*
X179771206Y-137932664D01*
X179771202Y-137932671D01*
X179720908Y-138067517D01*
X179714501Y-138127116D01*
X179714500Y-138127135D01*
X179714500Y-139872870D01*
X179714501Y-139872876D01*
X179720908Y-139932483D01*
X179771202Y-140067328D01*
X179771206Y-140067335D01*
X179857452Y-140182544D01*
X179857455Y-140182547D01*
X179972664Y-140268793D01*
X179972671Y-140268797D01*
X180107517Y-140319091D01*
X180107516Y-140319091D01*
X180114444Y-140319835D01*
X180167127Y-140325500D01*
X181912872Y-140325499D01*
X181972483Y-140319091D01*
X182107331Y-140268796D01*
X182222546Y-140182546D01*
X182308796Y-140067331D01*
X182359091Y-139932483D01*
X182365500Y-139872873D01*
X182365499Y-139854588D01*
X182368686Y-139840809D01*
X182379163Y-139822201D01*
X182385175Y-139801718D01*
X182395961Y-139792368D01*
X182402967Y-139779927D01*
X182421839Y-139769938D01*
X182437972Y-139755956D01*
X182453421Y-139753224D01*
X182464721Y-139747244D01*
X182478072Y-139748373D01*
X183056212Y-139170233D01*
X183067482Y-139212292D01*
X183139890Y-139337708D01*
X183242292Y-139440110D01*
X183367708Y-139512518D01*
X183409765Y-139523787D01*
X182836179Y-140097371D01*
X182836180Y-140097372D01*
X182885543Y-140133236D01*
X182885556Y-140133244D01*
X183071372Y-140227924D01*
X183269727Y-140292373D01*
X183475721Y-140325000D01*
X183684279Y-140325000D01*
X183890272Y-140292373D01*
X184088627Y-140227924D01*
X184274451Y-140133240D01*
X184323818Y-140097372D01*
X184323818Y-140097371D01*
X183750234Y-139523787D01*
X183792292Y-139512518D01*
X183917708Y-139440110D01*
X184020110Y-139337708D01*
X184092518Y-139212292D01*
X184103787Y-139170234D01*
X184677371Y-139743818D01*
X184677372Y-139743818D01*
X184713242Y-139694449D01*
X184713242Y-139694448D01*
X184739233Y-139643438D01*
X184787206Y-139592642D01*
X184855027Y-139575846D01*
X184921162Y-139598383D01*
X184960203Y-139643437D01*
X184986330Y-139694714D01*
X185087538Y-139834014D01*
X185108966Y-139863506D01*
X185233181Y-139987721D01*
X185247884Y-140014648D01*
X185264477Y-140040467D01*
X185265368Y-140046667D01*
X185266666Y-140049044D01*
X185269500Y-140075402D01*
X185269500Y-140226349D01*
X185249815Y-140293388D01*
X185233181Y-140314030D01*
X184684030Y-140863181D01*
X184622707Y-140896666D01*
X184596349Y-140899500D01*
X180153651Y-140899500D01*
X180086612Y-140879815D01*
X180065970Y-140863181D01*
X179386819Y-140184030D01*
X179353334Y-140122707D01*
X179350500Y-140096349D01*
X179350500Y-137916232D01*
X179350499Y-137916228D01*
X179340574Y-137866330D01*
X179317816Y-137751918D01*
X179276786Y-137652863D01*
X179253704Y-137597137D01*
X179253702Y-137597135D01*
X179253702Y-137597133D01*
X179160627Y-137457838D01*
X179160624Y-137457834D01*
X168636819Y-126934029D01*
X168603334Y-126872706D01*
X168600500Y-126846348D01*
X168600500Y-106153656D01*
X168620185Y-106086617D01*
X168636819Y-106065975D01*
X170275975Y-104426819D01*
X170337298Y-104393334D01*
X170363656Y-104390500D01*
X170479995Y-104390500D01*
X170479996Y-104390500D01*
X170677515Y-104359216D01*
X170867708Y-104297419D01*
X171045892Y-104206629D01*
X171207680Y-104089083D01*
X171349088Y-103947675D01*
X171466634Y-103785887D01*
X171557424Y-103607703D01*
X171619221Y-103417510D01*
X171650505Y-103219991D01*
X171650505Y-103020009D01*
X171619221Y-102822490D01*
X171560826Y-102642766D01*
X171557425Y-102632299D01*
X171557423Y-102632295D01*
X171466634Y-102454113D01*
X171349088Y-102292325D01*
X171207680Y-102150917D01*
X171045892Y-102033371D01*
X171020722Y-102020546D01*
X170867705Y-101942579D01*
X170677516Y-101880784D01*
X170537495Y-101858607D01*
X170479996Y-101849500D01*
X170280014Y-101849500D01*
X170222515Y-101858607D01*
X170082493Y-101880784D01*
X169892304Y-101942579D01*
X169714117Y-102033371D01*
X169621811Y-102100435D01*
X169552330Y-102150917D01*
X169552328Y-102150919D01*
X169552327Y-102150919D01*
X169410924Y-102292322D01*
X169410924Y-102292323D01*
X169410922Y-102292325D01*
X169373520Y-102343804D01*
X169293374Y-102454115D01*
X169220205Y-102597715D01*
X169172230Y-102648510D01*
X169104409Y-102665305D01*
X169038275Y-102642767D01*
X168999236Y-102597714D01*
X168926203Y-102454380D01*
X168897997Y-102415557D01*
X168897996Y-102415557D01*
X168221001Y-103092555D01*
X168221001Y-103069842D01*
X168195037Y-102972941D01*
X168144877Y-102886062D01*
X168073941Y-102815126D01*
X167987062Y-102764966D01*
X167890161Y-102739002D01*
X167867446Y-102739002D01*
X168544444Y-102062004D01*
X168544444Y-102062003D01*
X168505626Y-102033801D01*
X168505624Y-102033800D01*
X168327509Y-101943045D01*
X168137394Y-101881274D01*
X168036008Y-101865216D01*
X167972873Y-101835287D01*
X167935942Y-101775975D01*
X167936940Y-101706113D01*
X167967723Y-101655064D01*
X168735969Y-100886819D01*
X168797292Y-100853334D01*
X168823650Y-100850500D01*
X189583773Y-100850500D01*
X189583774Y-100850499D01*
X189638543Y-100839605D01*
X189748079Y-100817818D01*
X189748083Y-100817816D01*
X189748087Y-100817816D01*
X189793420Y-100799037D01*
X189902868Y-100753704D01*
X190042167Y-100660627D01*
X191949579Y-98753213D01*
X192010900Y-98719730D01*
X192056655Y-98718423D01*
X192069781Y-98720502D01*
X192069782Y-98720502D01*
X192290224Y-98720502D01*
X192290225Y-98720502D01*
X192507954Y-98686017D01*
X192717609Y-98617897D01*
X192914025Y-98517817D01*
X193092368Y-98388244D01*
X193248245Y-98232367D01*
X193248249Y-98232362D01*
X193248250Y-98232361D01*
X193349684Y-98092748D01*
X193405013Y-98050082D01*
X193474627Y-98044103D01*
X193536422Y-98076708D01*
X193550320Y-98092748D01*
X193651752Y-98232358D01*
X193651756Y-98232363D01*
X193807636Y-98388243D01*
X193807641Y-98388247D01*
X193877027Y-98438658D01*
X193985978Y-98517815D01*
X194106944Y-98579451D01*
X194182393Y-98617895D01*
X194182396Y-98617896D01*
X194285880Y-98651519D01*
X194392049Y-98686015D01*
X194609778Y-98720500D01*
X194609779Y-98720500D01*
X194830221Y-98720500D01*
X194830222Y-98720500D01*
X195047951Y-98686015D01*
X195257606Y-98617895D01*
X195454022Y-98517815D01*
X195632365Y-98388242D01*
X195788242Y-98232365D01*
X195889680Y-98092745D01*
X195945009Y-98050081D01*
X196014622Y-98044102D01*
X196076418Y-98076707D01*
X196090316Y-98092747D01*
X196191747Y-98232355D01*
X196191751Y-98232360D01*
X196347631Y-98388240D01*
X196347636Y-98388244D01*
X196503187Y-98501257D01*
X196525973Y-98517812D01*
X196646945Y-98579451D01*
X196722388Y-98617892D01*
X196722391Y-98617893D01*
X196786867Y-98638842D01*
X196932044Y-98686012D01*
X197149773Y-98720497D01*
X197149774Y-98720497D01*
X197370216Y-98720497D01*
X197370217Y-98720497D01*
X197587946Y-98686012D01*
X197797601Y-98617892D01*
X197994017Y-98517812D01*
X198172360Y-98388239D01*
X198328237Y-98232362D01*
X198328241Y-98232357D01*
X198328242Y-98232356D01*
X198429679Y-98092739D01*
X198485008Y-98050073D01*
X198554622Y-98044094D01*
X198616417Y-98076699D01*
X198630315Y-98092739D01*
X198731749Y-98232352D01*
X198731753Y-98232357D01*
X198887633Y-98388237D01*
X198887638Y-98388241D01*
X199018505Y-98483320D01*
X199065975Y-98517809D01*
X199186953Y-98579451D01*
X199262390Y-98617889D01*
X199262393Y-98617890D01*
X199359681Y-98649500D01*
X199472046Y-98686009D01*
X199689775Y-98720494D01*
X199689776Y-98720494D01*
X199910218Y-98720494D01*
X199910219Y-98720494D01*
X200127948Y-98686009D01*
X200337578Y-98617897D01*
X200337600Y-98617890D01*
X200337603Y-98617889D01*
X200338494Y-98617435D01*
X200534019Y-98517809D01*
X200712362Y-98388236D01*
X200868239Y-98232359D01*
X200969680Y-98092736D01*
X201025008Y-98050072D01*
X201094621Y-98044093D01*
X201156417Y-98076698D01*
X201170315Y-98092738D01*
X201271754Y-98232357D01*
X201271758Y-98232362D01*
X201427638Y-98388242D01*
X201427643Y-98388246D01*
X201558499Y-98483317D01*
X201605980Y-98517814D01*
X201726948Y-98579451D01*
X201802395Y-98617894D01*
X201802398Y-98617895D01*
X201866868Y-98638842D01*
X202012051Y-98686014D01*
X202229780Y-98720499D01*
X202229781Y-98720499D01*
X202450223Y-98720499D01*
X202450224Y-98720499D01*
X202667953Y-98686014D01*
X202870044Y-98620351D01*
X202877605Y-98617895D01*
X202877608Y-98617894D01*
X202899685Y-98606645D01*
X203074024Y-98517814D01*
X203252367Y-98388241D01*
X203408244Y-98232364D01*
X203509680Y-98092748D01*
X203565008Y-98050084D01*
X203634621Y-98044105D01*
X203696417Y-98076710D01*
X203710315Y-98092750D01*
X203811749Y-98232363D01*
X203811753Y-98232368D01*
X203967633Y-98388248D01*
X203967638Y-98388252D01*
X204123189Y-98501265D01*
X204145975Y-98517820D01*
X204221694Y-98556401D01*
X204342390Y-98617900D01*
X204342393Y-98617901D01*
X204439647Y-98649500D01*
X204552046Y-98686020D01*
X204769775Y-98720505D01*
X204769776Y-98720505D01*
X204990218Y-98720505D01*
X204990219Y-98720505D01*
X205207948Y-98686020D01*
X205417603Y-98617900D01*
X205614019Y-98517820D01*
X205792362Y-98388247D01*
X205948239Y-98232370D01*
X206049682Y-98092743D01*
X206105010Y-98050080D01*
X206174623Y-98044101D01*
X206236419Y-98076706D01*
X206250312Y-98092739D01*
X206326689Y-98197863D01*
X206351753Y-98232361D01*
X206507631Y-98388239D01*
X206507636Y-98388243D01*
X206621636Y-98471068D01*
X206685973Y-98517811D01*
X206806947Y-98579451D01*
X206882388Y-98617891D01*
X206882391Y-98617892D01*
X206979673Y-98649500D01*
X207092044Y-98686011D01*
X207309773Y-98720496D01*
X207309774Y-98720496D01*
X207530216Y-98720496D01*
X207530217Y-98720496D01*
X207747946Y-98686011D01*
X207957573Y-98617900D01*
X207957598Y-98617892D01*
X207957601Y-98617891D01*
X207979672Y-98606645D01*
X208154017Y-98517811D01*
X208332360Y-98388238D01*
X208488237Y-98232361D01*
X208589678Y-98092737D01*
X208645007Y-98050073D01*
X208714620Y-98044094D01*
X208776416Y-98076699D01*
X208790311Y-98092734D01*
X208866691Y-98197863D01*
X208891758Y-98232365D01*
X209047636Y-98388243D01*
X209047641Y-98388247D01*
X209117027Y-98438658D01*
X209225978Y-98517815D01*
X209346944Y-98579451D01*
X209422393Y-98617895D01*
X209422396Y-98617896D01*
X209525880Y-98651519D01*
X209632049Y-98686015D01*
X209849778Y-98720500D01*
X209849779Y-98720500D01*
X210070221Y-98720500D01*
X210070222Y-98720500D01*
X210287951Y-98686015D01*
X210497606Y-98617895D01*
X210694022Y-98517815D01*
X210872365Y-98388242D01*
X211028242Y-98232365D01*
X211129680Y-98092745D01*
X211185009Y-98050081D01*
X211254622Y-98044102D01*
X211316418Y-98076707D01*
X211330316Y-98092747D01*
X211431749Y-98232358D01*
X211431753Y-98232363D01*
X211587633Y-98388243D01*
X211587638Y-98388247D01*
X211657024Y-98438658D01*
X211765975Y-98517815D01*
X211886941Y-98579451D01*
X211962390Y-98617895D01*
X211962393Y-98617896D01*
X212065877Y-98651519D01*
X212172046Y-98686015D01*
X212389775Y-98720500D01*
X212389776Y-98720500D01*
X212610218Y-98720500D01*
X212610219Y-98720500D01*
X212827948Y-98686015D01*
X213037603Y-98617895D01*
X213234019Y-98517815D01*
X213412362Y-98388242D01*
X213568239Y-98232365D01*
X213568249Y-98232352D01*
X213593306Y-98197863D01*
X213669680Y-98092741D01*
X213725009Y-98050076D01*
X213794622Y-98044097D01*
X213856417Y-98076702D01*
X213870316Y-98092742D01*
X213971752Y-98232357D01*
X213971756Y-98232362D01*
X214127636Y-98388242D01*
X214127641Y-98388246D01*
X214258497Y-98483317D01*
X214305978Y-98517814D01*
X214426946Y-98579451D01*
X214502393Y-98617894D01*
X214502396Y-98617895D01*
X214566866Y-98638842D01*
X214712049Y-98686014D01*
X214929778Y-98720499D01*
X214929779Y-98720499D01*
X215150221Y-98720499D01*
X215150222Y-98720499D01*
X215367951Y-98686014D01*
X215570042Y-98620351D01*
X215577603Y-98617895D01*
X215577606Y-98617894D01*
X215599683Y-98606645D01*
X215774022Y-98517814D01*
X215952365Y-98388241D01*
X216108242Y-98232364D01*
X216209682Y-98092741D01*
X216265010Y-98050078D01*
X216334623Y-98044099D01*
X216396418Y-98076704D01*
X216410317Y-98092744D01*
X216511751Y-98232357D01*
X216511755Y-98232362D01*
X216667635Y-98388242D01*
X216667640Y-98388246D01*
X216798496Y-98483317D01*
X216845977Y-98517814D01*
X216966945Y-98579451D01*
X217042392Y-98617894D01*
X217042395Y-98617895D01*
X217106865Y-98638842D01*
X217252048Y-98686014D01*
X217469777Y-98720499D01*
X217469778Y-98720499D01*
X217690220Y-98720499D01*
X217690221Y-98720499D01*
X217907950Y-98686014D01*
X218110041Y-98620351D01*
X218117602Y-98617895D01*
X218117605Y-98617894D01*
X218139682Y-98606645D01*
X218314021Y-98517814D01*
X218492364Y-98388241D01*
X218648241Y-98232364D01*
X218749684Y-98092737D01*
X218805012Y-98050074D01*
X218874625Y-98044095D01*
X218936421Y-98076700D01*
X218950319Y-98092740D01*
X219051754Y-98232354D01*
X219051758Y-98232359D01*
X219207638Y-98388239D01*
X219207643Y-98388243D01*
X219321643Y-98471068D01*
X219385980Y-98517811D01*
X219506954Y-98579451D01*
X219582395Y-98617891D01*
X219582398Y-98617892D01*
X219679680Y-98649500D01*
X219792051Y-98686011D01*
X220009780Y-98720496D01*
X220009781Y-98720496D01*
X220230223Y-98720496D01*
X220230224Y-98720496D01*
X220447953Y-98686011D01*
X220657580Y-98617900D01*
X220657605Y-98617892D01*
X220657608Y-98617891D01*
X220679679Y-98606645D01*
X220854024Y-98517811D01*
X221032367Y-98388238D01*
X221188244Y-98232361D01*
X221289680Y-98092744D01*
X221345009Y-98050079D01*
X221414622Y-98044100D01*
X221476417Y-98076705D01*
X221490316Y-98092745D01*
X221591752Y-98232360D01*
X221591756Y-98232365D01*
X221747636Y-98388245D01*
X221747641Y-98388249D01*
X221878497Y-98483320D01*
X221925978Y-98517817D01*
X222046940Y-98579451D01*
X222122393Y-98617897D01*
X222122396Y-98617898D01*
X222221198Y-98650000D01*
X222332049Y-98686017D01*
X222549778Y-98720502D01*
X222549779Y-98720502D01*
X222770221Y-98720502D01*
X222770222Y-98720502D01*
X222987951Y-98686017D01*
X223197606Y-98617897D01*
X223394022Y-98517817D01*
X223572365Y-98388244D01*
X223728242Y-98232367D01*
X223829682Y-98092744D01*
X223885010Y-98050081D01*
X223954623Y-98044102D01*
X224016418Y-98076707D01*
X224030317Y-98092747D01*
X224131749Y-98232356D01*
X224131753Y-98232361D01*
X224287633Y-98388241D01*
X224287638Y-98388245D01*
X224401637Y-98471069D01*
X224465975Y-98517813D01*
X224586945Y-98579451D01*
X224662390Y-98617893D01*
X224662393Y-98617894D01*
X224726866Y-98638842D01*
X224872046Y-98686013D01*
X225089775Y-98720498D01*
X225089776Y-98720498D01*
X225310218Y-98720498D01*
X225310219Y-98720498D01*
X225527948Y-98686013D01*
X225737578Y-98617901D01*
X225737600Y-98617894D01*
X225737603Y-98617893D01*
X225759678Y-98606645D01*
X225934019Y-98517813D01*
X226079150Y-98412369D01*
X226112354Y-98388246D01*
X226112356Y-98388244D01*
X226112362Y-98388240D01*
X226220317Y-98280284D01*
X226281636Y-98246802D01*
X226351328Y-98251786D01*
X226407262Y-98293657D01*
X226413534Y-98302872D01*
X226466196Y-98388252D01*
X226497287Y-98438658D01*
X226621343Y-98562714D01*
X226770665Y-98654816D01*
X226937202Y-98710001D01*
X227039990Y-98720502D01*
X228440007Y-98720501D01*
X228440037Y-98720498D01*
X228460349Y-98718423D01*
X228542796Y-98710001D01*
X228709333Y-98654816D01*
X228858655Y-98562714D01*
X228982711Y-98438658D01*
X229074813Y-98289336D01*
X229129998Y-98122799D01*
X229140499Y-98020011D01*
X229140498Y-96619994D01*
X229138036Y-96595897D01*
X229129998Y-96517205D01*
X229129997Y-96517202D01*
X229129127Y-96514577D01*
X229074813Y-96350668D01*
X228982711Y-96201346D01*
X228858655Y-96077290D01*
X228713258Y-95987609D01*
X228709335Y-95985189D01*
X228709334Y-95985188D01*
X228709333Y-95985188D01*
X228709327Y-95985186D01*
X228675493Y-95973974D01*
X228618049Y-95934201D01*
X228591227Y-95869685D01*
X228590499Y-95856269D01*
X228590499Y-94124590D01*
X228610184Y-94057551D01*
X228635845Y-94028728D01*
X228637773Y-94027144D01*
X228637782Y-94027139D01*
X228777139Y-93887782D01*
X228886632Y-93723914D01*
X228962051Y-93541835D01*
X229000500Y-93348541D01*
X229000500Y-93151459D01*
X229000500Y-93151456D01*
X228962052Y-92958170D01*
X228962051Y-92958166D01*
X228962051Y-92958165D01*
X228913991Y-92842137D01*
X228886635Y-92776092D01*
X228886628Y-92776079D01*
X228777139Y-92612218D01*
X228777136Y-92612214D01*
X228637785Y-92472863D01*
X228637781Y-92472860D01*
X228473920Y-92363371D01*
X228473907Y-92363364D01*
X228291839Y-92287950D01*
X228291829Y-92287947D01*
X228098543Y-92249500D01*
X228098541Y-92249500D01*
X227901459Y-92249500D01*
X227901457Y-92249500D01*
X227708170Y-92287947D01*
X227708160Y-92287950D01*
X227526092Y-92363364D01*
X227526079Y-92363371D01*
X227362218Y-92472860D01*
X227362214Y-92472863D01*
X227222863Y-92612214D01*
X227222860Y-92612218D01*
X227113371Y-92776079D01*
X227113364Y-92776092D01*
X227037950Y-92958160D01*
X227037947Y-92958169D01*
X227022461Y-93036021D01*
X227011707Y-93067375D01*
X227008240Y-93074294D01*
X226986295Y-93107138D01*
X226961817Y-93166234D01*
X226960117Y-93170337D01*
X226960111Y-93170350D01*
X226922183Y-93261918D01*
X226922181Y-93261926D01*
X226889499Y-93426229D01*
X226889499Y-95856269D01*
X226869814Y-95923308D01*
X226817010Y-95969063D01*
X226804505Y-95973974D01*
X226770670Y-95985186D01*
X226770662Y-95985189D01*
X226621341Y-96077291D01*
X226497288Y-96201344D01*
X226413537Y-96337127D01*
X226397114Y-96351898D01*
X226384226Y-96369832D01*
X226371646Y-96374804D01*
X226361589Y-96383851D01*
X226339787Y-96387398D01*
X226319249Y-96395518D01*
X226305979Y-96392900D01*
X226292626Y-96395074D01*
X226272367Y-96386271D01*
X226250700Y-96381998D01*
X226233507Y-96369386D01*
X226228544Y-96367230D01*
X226222040Y-96361401D01*
X226221175Y-96360569D01*
X226112362Y-96251756D01*
X226094699Y-96238923D01*
X226088539Y-96232998D01*
X226075271Y-96209785D01*
X226058945Y-96188612D01*
X226056878Y-96177606D01*
X226053867Y-96172338D01*
X226054305Y-96163905D01*
X226050497Y-96143627D01*
X226050497Y-94151739D01*
X226070182Y-94084700D01*
X226105606Y-94048637D01*
X226137782Y-94027139D01*
X226277139Y-93887782D01*
X226386632Y-93723914D01*
X226462051Y-93541835D01*
X226500500Y-93348541D01*
X226500500Y-93151459D01*
X226500500Y-93151456D01*
X226462052Y-92958170D01*
X226462051Y-92958166D01*
X226462051Y-92958165D01*
X226413991Y-92842137D01*
X226386635Y-92776092D01*
X226386628Y-92776079D01*
X226277139Y-92612218D01*
X226277136Y-92612214D01*
X226137785Y-92472863D01*
X226137781Y-92472860D01*
X225973920Y-92363371D01*
X225973907Y-92363364D01*
X225791839Y-92287950D01*
X225791829Y-92287947D01*
X225598543Y-92249500D01*
X225598541Y-92249500D01*
X225401459Y-92249500D01*
X225401457Y-92249500D01*
X225208170Y-92287947D01*
X225208160Y-92287950D01*
X225026092Y-92363364D01*
X225026079Y-92363371D01*
X224862218Y-92472860D01*
X224862214Y-92472863D01*
X224722863Y-92612214D01*
X224722860Y-92612218D01*
X224613371Y-92776079D01*
X224613364Y-92776092D01*
X224537949Y-92958162D01*
X224537948Y-92958166D01*
X224528087Y-93007736D01*
X224509574Y-93052430D01*
X224446294Y-93147138D01*
X224446291Y-93147143D01*
X224400959Y-93256587D01*
X224382182Y-93301916D01*
X224382179Y-93301928D01*
X224349497Y-93466231D01*
X224349497Y-96143627D01*
X224329812Y-96210666D01*
X224298385Y-96243943D01*
X224287635Y-96251753D01*
X224287629Y-96251758D01*
X224131753Y-96407634D01*
X224131749Y-96407639D01*
X224030315Y-96547252D01*
X223974985Y-96589918D01*
X223905372Y-96595897D01*
X223843577Y-96563291D01*
X223829679Y-96547252D01*
X223728247Y-96407643D01*
X223728243Y-96407638D01*
X223572363Y-96251758D01*
X223572358Y-96251754D01*
X223394025Y-96122189D01*
X223394024Y-96122188D01*
X223394022Y-96122187D01*
X223331096Y-96090124D01*
X223197606Y-96022106D01*
X223197603Y-96022105D01*
X222987952Y-95953987D01*
X222879086Y-95936744D01*
X222770222Y-95919502D01*
X222549778Y-95919502D01*
X222477201Y-95930997D01*
X222332047Y-95953987D01*
X222122396Y-96022105D01*
X222122393Y-96022106D01*
X221925974Y-96122189D01*
X221747641Y-96251754D01*
X221747636Y-96251758D01*
X221591756Y-96407638D01*
X221591752Y-96407643D01*
X221490321Y-96547252D01*
X221434991Y-96589918D01*
X221365378Y-96595897D01*
X221303583Y-96563291D01*
X221289685Y-96547252D01*
X221188249Y-96407637D01*
X221188245Y-96407632D01*
X221032365Y-96251752D01*
X221032360Y-96251748D01*
X220854027Y-96122183D01*
X220854026Y-96122182D01*
X220854024Y-96122181D01*
X220786332Y-96087690D01*
X220657608Y-96022100D01*
X220657605Y-96022099D01*
X220447954Y-95953981D01*
X220323067Y-95934201D01*
X220230224Y-95919496D01*
X220009780Y-95919496D01*
X219937203Y-95930991D01*
X219792049Y-95953981D01*
X219582398Y-96022099D01*
X219582395Y-96022100D01*
X219385976Y-96122183D01*
X219207643Y-96251748D01*
X219207638Y-96251752D01*
X219051758Y-96407632D01*
X219051754Y-96407637D01*
X218950317Y-96547254D01*
X218894987Y-96589920D01*
X218825374Y-96595899D01*
X218763579Y-96563293D01*
X218749681Y-96547254D01*
X218648246Y-96407640D01*
X218648242Y-96407635D01*
X218492362Y-96251755D01*
X218492357Y-96251751D01*
X218314024Y-96122186D01*
X218314023Y-96122185D01*
X218314021Y-96122184D01*
X218246323Y-96087690D01*
X218117605Y-96022103D01*
X218117602Y-96022102D01*
X217907951Y-95953984D01*
X217783045Y-95934201D01*
X217690221Y-95919499D01*
X217469777Y-95919499D01*
X217397200Y-95930994D01*
X217252046Y-95953984D01*
X217042395Y-96022102D01*
X217042392Y-96022103D01*
X216845973Y-96122186D01*
X216667640Y-96251751D01*
X216667635Y-96251755D01*
X216511755Y-96407635D01*
X216511751Y-96407640D01*
X216410317Y-96547253D01*
X216354987Y-96589919D01*
X216285374Y-96595898D01*
X216223579Y-96563292D01*
X216209681Y-96547253D01*
X216108247Y-96407639D01*
X215952363Y-96251755D01*
X215952358Y-96251751D01*
X215774025Y-96122186D01*
X215774024Y-96122185D01*
X215774022Y-96122184D01*
X215706324Y-96087690D01*
X215577606Y-96022103D01*
X215577603Y-96022102D01*
X215367952Y-95953984D01*
X215243046Y-95934201D01*
X215150222Y-95919499D01*
X214929778Y-95919499D01*
X214857201Y-95930994D01*
X214712047Y-95953984D01*
X214502396Y-96022102D01*
X214502393Y-96022103D01*
X214305974Y-96122186D01*
X214127641Y-96251751D01*
X214127636Y-96251755D01*
X213971756Y-96407635D01*
X213971752Y-96407640D01*
X213870316Y-96547256D01*
X213814986Y-96589922D01*
X213745373Y-96595901D01*
X213683578Y-96563295D01*
X213669680Y-96547256D01*
X213568244Y-96407641D01*
X213568240Y-96407636D01*
X213412360Y-96251756D01*
X213412355Y-96251752D01*
X213234022Y-96122187D01*
X213234021Y-96122186D01*
X213234019Y-96122185D01*
X213166323Y-96087692D01*
X213037603Y-96022104D01*
X213037600Y-96022103D01*
X212827949Y-95953985D01*
X212703037Y-95934201D01*
X212610219Y-95919500D01*
X212389775Y-95919500D01*
X212317198Y-95930995D01*
X212172044Y-95953985D01*
X211962393Y-96022103D01*
X211962390Y-96022104D01*
X211765971Y-96122187D01*
X211587638Y-96251752D01*
X211587633Y-96251756D01*
X211431753Y-96407636D01*
X211431749Y-96407641D01*
X211330316Y-96547252D01*
X211274986Y-96589918D01*
X211205373Y-96595897D01*
X211143578Y-96563291D01*
X211129680Y-96547252D01*
X211028247Y-96407641D01*
X211028243Y-96407636D01*
X210872363Y-96251756D01*
X210872358Y-96251752D01*
X210694025Y-96122187D01*
X210694024Y-96122186D01*
X210694022Y-96122185D01*
X210626326Y-96087692D01*
X210497606Y-96022104D01*
X210497603Y-96022103D01*
X210287952Y-95953985D01*
X210163040Y-95934201D01*
X210070222Y-95919500D01*
X209849778Y-95919500D01*
X209777201Y-95930995D01*
X209632047Y-95953985D01*
X209422396Y-96022103D01*
X209422393Y-96022104D01*
X209225974Y-96122187D01*
X209047641Y-96251752D01*
X209047636Y-96251756D01*
X208891756Y-96407636D01*
X208790316Y-96547257D01*
X208734986Y-96589922D01*
X208665373Y-96595901D01*
X208603578Y-96563295D01*
X208589682Y-96547259D01*
X208488237Y-96407631D01*
X208332360Y-96251754D01*
X208332359Y-96251753D01*
X208332358Y-96251752D01*
X208332353Y-96251748D01*
X208154020Y-96122183D01*
X208154019Y-96122182D01*
X208154017Y-96122181D01*
X208086325Y-96087690D01*
X207957601Y-96022100D01*
X207957598Y-96022099D01*
X207747947Y-95953981D01*
X207623060Y-95934201D01*
X207530217Y-95919496D01*
X207309773Y-95919496D01*
X207237196Y-95930991D01*
X207092042Y-95953981D01*
X206882391Y-96022099D01*
X206882388Y-96022100D01*
X206685969Y-96122183D01*
X206507636Y-96251748D01*
X206507631Y-96251752D01*
X206351751Y-96407632D01*
X206351747Y-96407637D01*
X206250310Y-96547254D01*
X206194980Y-96589920D01*
X206125367Y-96595899D01*
X206063572Y-96563293D01*
X206049678Y-96547260D01*
X205948239Y-96407640D01*
X205792362Y-96251763D01*
X205792360Y-96251761D01*
X205792355Y-96251757D01*
X205614022Y-96122192D01*
X205614021Y-96122191D01*
X205614019Y-96122190D01*
X205525899Y-96077290D01*
X205417603Y-96022109D01*
X205417600Y-96022108D01*
X205207949Y-95953990D01*
X205099083Y-95936747D01*
X204990219Y-95919505D01*
X204769775Y-95919505D01*
X204697198Y-95931000D01*
X204552044Y-95953990D01*
X204342393Y-96022108D01*
X204342390Y-96022109D01*
X204145971Y-96122192D01*
X203967638Y-96251757D01*
X203967633Y-96251761D01*
X203811753Y-96407641D01*
X203811749Y-96407646D01*
X203710319Y-96547253D01*
X203654989Y-96589919D01*
X203585376Y-96595898D01*
X203523581Y-96563292D01*
X203509683Y-96547253D01*
X203408249Y-96407639D01*
X203252365Y-96251755D01*
X203252360Y-96251751D01*
X203074027Y-96122186D01*
X203074026Y-96122185D01*
X203074024Y-96122184D01*
X203006326Y-96087690D01*
X202877608Y-96022103D01*
X202877605Y-96022102D01*
X202667954Y-95953984D01*
X202543048Y-95934201D01*
X202450224Y-95919499D01*
X202229780Y-95919499D01*
X202157203Y-95930994D01*
X202012049Y-95953984D01*
X201802398Y-96022102D01*
X201802395Y-96022103D01*
X201605976Y-96122186D01*
X201427643Y-96251751D01*
X201427638Y-96251755D01*
X201271758Y-96407635D01*
X201271754Y-96407640D01*
X201170319Y-96547254D01*
X201114989Y-96589920D01*
X201045376Y-96595899D01*
X200983581Y-96563293D01*
X200969683Y-96547254D01*
X200868244Y-96407635D01*
X200868240Y-96407630D01*
X200712360Y-96251750D01*
X200712355Y-96251746D01*
X200534022Y-96122181D01*
X200534021Y-96122180D01*
X200534019Y-96122179D01*
X200466331Y-96087690D01*
X200337603Y-96022098D01*
X200337600Y-96022097D01*
X200127949Y-95953979D01*
X200003075Y-95934201D01*
X199910219Y-95919494D01*
X199689775Y-95919494D01*
X199617198Y-95930989D01*
X199472044Y-95953979D01*
X199262393Y-96022097D01*
X199262390Y-96022098D01*
X199065971Y-96122181D01*
X198887638Y-96251746D01*
X198887633Y-96251750D01*
X198731753Y-96407630D01*
X198630312Y-96547252D01*
X198574982Y-96589917D01*
X198505368Y-96595896D01*
X198443573Y-96563290D01*
X198429676Y-96547251D01*
X198328242Y-96407637D01*
X198172358Y-96251753D01*
X198172353Y-96251749D01*
X197994020Y-96122184D01*
X197994019Y-96122183D01*
X197994017Y-96122182D01*
X197926323Y-96087690D01*
X197797601Y-96022101D01*
X197797598Y-96022100D01*
X197587947Y-95953982D01*
X197463054Y-95934201D01*
X197370217Y-95919497D01*
X197149773Y-95919497D01*
X197077196Y-95930992D01*
X196932042Y-95953982D01*
X196722391Y-96022100D01*
X196722388Y-96022101D01*
X196525969Y-96122184D01*
X196347636Y-96251749D01*
X196347631Y-96251753D01*
X196191751Y-96407633D01*
X196191747Y-96407638D01*
X196090314Y-96547249D01*
X196034984Y-96589915D01*
X195965371Y-96595894D01*
X195903576Y-96563288D01*
X195889678Y-96547249D01*
X195788247Y-96407641D01*
X195788243Y-96407636D01*
X195632367Y-96251760D01*
X195632363Y-96251757D01*
X195632361Y-96251755D01*
X195621612Y-96243945D01*
X195578948Y-96188614D01*
X195570500Y-96143629D01*
X195570500Y-95136232D01*
X195570499Y-95136228D01*
X195537817Y-94971925D01*
X195537816Y-94971918D01*
X195473703Y-94817137D01*
X195380626Y-94677838D01*
X195262162Y-94559374D01*
X194922846Y-94220057D01*
X194792165Y-94089375D01*
X194792161Y-94089372D01*
X194652866Y-93996297D01*
X194652863Y-93996296D01*
X194543416Y-93950962D01*
X194543414Y-93950961D01*
X194498086Y-93932185D01*
X194498074Y-93932182D01*
X194333771Y-93899500D01*
X194333767Y-93899500D01*
X190249481Y-93899500D01*
X190182442Y-93879815D01*
X190136687Y-93827011D01*
X190126743Y-93757853D01*
X190134920Y-93728048D01*
X190212049Y-93541839D01*
X190212051Y-93541835D01*
X190250500Y-93348541D01*
X190250500Y-93151459D01*
X190250500Y-93151456D01*
X190212052Y-92958170D01*
X190212051Y-92958166D01*
X190212051Y-92958165D01*
X190163991Y-92842137D01*
X190136635Y-92776092D01*
X190136628Y-92776079D01*
X190027139Y-92612218D01*
X190027136Y-92612214D01*
X189887785Y-92472863D01*
X189887781Y-92472860D01*
X189723920Y-92363371D01*
X189723907Y-92363364D01*
X189665232Y-92339061D01*
X189610828Y-92295221D01*
X189588763Y-92228927D01*
X189606042Y-92161227D01*
X189657179Y-92113616D01*
X189712684Y-92100500D01*
X216833768Y-92100500D01*
X216833769Y-92100499D01*
X216888538Y-92089605D01*
X216998074Y-92067818D01*
X216998078Y-92067816D01*
X216998082Y-92067816D01*
X217043415Y-92049037D01*
X217152863Y-92003704D01*
X217170822Y-91991703D01*
X217180260Y-91987461D01*
X217189377Y-91986205D01*
X217206904Y-91978944D01*
X217291835Y-91962051D01*
X217473914Y-91886632D01*
X217637782Y-91777139D01*
X217777139Y-91637782D01*
X217886632Y-91473914D01*
X217962051Y-91291835D01*
X218000500Y-91098541D01*
X218000500Y-90901459D01*
X218000500Y-90901456D01*
X217962052Y-90708170D01*
X217962051Y-90708169D01*
X217962051Y-90708165D01*
X217946575Y-90670802D01*
X217886635Y-90526092D01*
X217886628Y-90526079D01*
X217777139Y-90362218D01*
X217777136Y-90362214D01*
X217637785Y-90222863D01*
X217637781Y-90222860D01*
X217473920Y-90113371D01*
X217473907Y-90113364D01*
X217291839Y-90037950D01*
X217291829Y-90037947D01*
X217098543Y-89999500D01*
X217098541Y-89999500D01*
X216901459Y-89999500D01*
X216901457Y-89999500D01*
X216708170Y-90037947D01*
X216708160Y-90037950D01*
X216526092Y-90113364D01*
X216526079Y-90113371D01*
X216362218Y-90222860D01*
X216362214Y-90222863D01*
X216221897Y-90363181D01*
X216160574Y-90396666D01*
X216134216Y-90399500D01*
X208499481Y-90399500D01*
X208432442Y-90379815D01*
X208386687Y-90327011D01*
X208376743Y-90257853D01*
X208384920Y-90228048D01*
X208462049Y-90041839D01*
X208462051Y-90041835D01*
X208500500Y-89848541D01*
X208500500Y-89651459D01*
X208500500Y-89651456D01*
X208462052Y-89458170D01*
X208462051Y-89458169D01*
X208462051Y-89458165D01*
X208438195Y-89400571D01*
X208386635Y-89276092D01*
X208386628Y-89276079D01*
X208277139Y-89112218D01*
X208277136Y-89112214D01*
X208137785Y-88972863D01*
X208137781Y-88972860D01*
X207973920Y-88863371D01*
X207973907Y-88863364D01*
X207791839Y-88787950D01*
X207791827Y-88787947D01*
X207764941Y-88782599D01*
X207703030Y-88750214D01*
X207701451Y-88748663D01*
X207241165Y-88288375D01*
X207241161Y-88288372D01*
X207101866Y-88195297D01*
X207101863Y-88195296D01*
X206992416Y-88149962D01*
X206992414Y-88149961D01*
X206947086Y-88131185D01*
X206947074Y-88131182D01*
X206782771Y-88098500D01*
X206782767Y-88098500D01*
X165967233Y-88098500D01*
X165967228Y-88098500D01*
X165802925Y-88131182D01*
X165802913Y-88131185D01*
X165757583Y-88149962D01*
X165648143Y-88195292D01*
X165648137Y-88195295D01*
X165648137Y-88195296D01*
X165508840Y-88288373D01*
X165508831Y-88288379D01*
X165508831Y-88288380D01*
X151434030Y-102363181D01*
X151372707Y-102396666D01*
X151346349Y-102399500D01*
X143916228Y-102399500D01*
X143751925Y-102432182D01*
X143751913Y-102432185D01*
X143706583Y-102450962D01*
X143597143Y-102496292D01*
X143597130Y-102496299D01*
X143457838Y-102589372D01*
X143457834Y-102589375D01*
X115109375Y-130937834D01*
X115105509Y-130942546D01*
X115104326Y-130941575D01*
X115084069Y-130958501D01*
X115058512Y-130980647D01*
X115057367Y-130980811D01*
X115056478Y-130981555D01*
X115022855Y-130985773D01*
X114989354Y-130990591D01*
X114988300Y-130990109D01*
X114987152Y-130990254D01*
X114956615Y-130975639D01*
X114925798Y-130961566D01*
X114925171Y-130960591D01*
X114924128Y-130960092D01*
X114906331Y-130931275D01*
X114888024Y-130902788D01*
X114887807Y-130901280D01*
X114887415Y-130900645D01*
X114883001Y-130867853D01*
X114883001Y-130807547D01*
X114902686Y-130740508D01*
X114919320Y-130719866D01*
X115024467Y-130614719D01*
X115024469Y-130614715D01*
X115024472Y-130614713D01*
X115092522Y-130521048D01*
X115144788Y-130449110D01*
X115237721Y-130266719D01*
X115300978Y-130072034D01*
X115333001Y-129869852D01*
X115333001Y-129665148D01*
X115317585Y-129567816D01*
X115300978Y-129462965D01*
X115237719Y-129268276D01*
X115186366Y-129167491D01*
X115144788Y-129085890D01*
X115116728Y-129047268D01*
X115024472Y-128920286D01*
X114879714Y-128775528D01*
X114714114Y-128655215D01*
X114714113Y-128655214D01*
X114714111Y-128655213D01*
X114654399Y-128624788D01*
X114531724Y-128562281D01*
X114337035Y-128499022D01*
X114162496Y-128471378D01*
X114134853Y-128467000D01*
X113930149Y-128467000D01*
X113905830Y-128470851D01*
X113727966Y-128499022D01*
X113533277Y-128562281D01*
X113350887Y-128655215D01*
X113185287Y-128775528D01*
X113040533Y-128920282D01*
X113040529Y-128920287D01*
X112972479Y-129013951D01*
X112917149Y-129056617D01*
X112847536Y-129062596D01*
X112785741Y-129029990D01*
X112754455Y-128980070D01*
X112752413Y-128973907D01*
X112727315Y-128898166D01*
X112635213Y-128748844D01*
X112511157Y-128624788D01*
X112361835Y-128532686D01*
X112195298Y-128477501D01*
X112195296Y-128477500D01*
X112092511Y-128467000D01*
X110892499Y-128467000D01*
X110892482Y-128467001D01*
X110789704Y-128477500D01*
X110789701Y-128477501D01*
X110623169Y-128532685D01*
X110623164Y-128532687D01*
X110473843Y-128624789D01*
X110349790Y-128748842D01*
X110257688Y-128898163D01*
X110257686Y-128898168D01*
X110240607Y-128949709D01*
X110202502Y-129064703D01*
X110202502Y-129064704D01*
X110202501Y-129064704D01*
X110192001Y-129167483D01*
X110192001Y-130367501D01*
X110192002Y-130367518D01*
X110202501Y-130470296D01*
X110202502Y-130470299D01*
X110219319Y-130521048D01*
X110257687Y-130636834D01*
X110349789Y-130786156D01*
X110473845Y-130910212D01*
X110623167Y-131002314D01*
X110789704Y-131057499D01*
X110892492Y-131068000D01*
X112092509Y-131067999D01*
X112195298Y-131057499D01*
X112361835Y-131002314D01*
X112511157Y-130910212D01*
X112635213Y-130786156D01*
X112727315Y-130636834D01*
X112754456Y-130554927D01*
X112794227Y-130497484D01*
X112858743Y-130470661D01*
X112927519Y-130482976D01*
X112972478Y-130521047D01*
X113040531Y-130614713D01*
X113040535Y-130614719D01*
X113145682Y-130719866D01*
X113179167Y-130781189D01*
X113182001Y-130807547D01*
X113182001Y-133313847D01*
X113162316Y-133380886D01*
X113145682Y-133401528D01*
X110339375Y-136207834D01*
X110339372Y-136207838D01*
X110246297Y-136347133D01*
X110246296Y-136347136D01*
X110217676Y-136416232D01*
X110217676Y-136416233D01*
X110182184Y-136501917D01*
X110182182Y-136501925D01*
X110149500Y-136666228D01*
X100750500Y-136666228D01*
X100750500Y-122045148D01*
X110192001Y-122045148D01*
X110192001Y-122249851D01*
X110224023Y-122452034D01*
X110287282Y-122646723D01*
X110380216Y-122829113D01*
X110500529Y-122994713D01*
X110645287Y-123139471D01*
X110786022Y-123241719D01*
X110810891Y-123259787D01*
X110927108Y-123319003D01*
X110993277Y-123352718D01*
X110993279Y-123352718D01*
X110993282Y-123352720D01*
X111097638Y-123386627D01*
X111187966Y-123415977D01*
X111289058Y-123431988D01*
X111390149Y-123448000D01*
X111390150Y-123448000D01*
X111594852Y-123448000D01*
X111594853Y-123448000D01*
X111797035Y-123415977D01*
X111991720Y-123352720D01*
X112174111Y-123259787D01*
X112267091Y-123192232D01*
X112339714Y-123139471D01*
X112339716Y-123139468D01*
X112339720Y-123139466D01*
X112484467Y-122994719D01*
X112484469Y-122994715D01*
X112484472Y-122994713D01*
X112604785Y-122829114D01*
X112604786Y-122829113D01*
X112604788Y-122829110D01*
X112652017Y-122736417D01*
X112699990Y-122685623D01*
X112767811Y-122668828D01*
X112833946Y-122691365D01*
X112872986Y-122736419D01*
X112920216Y-122829114D01*
X113040529Y-122994713D01*
X113185287Y-123139471D01*
X113326022Y-123241719D01*
X113350891Y-123259787D01*
X113467108Y-123319003D01*
X113533277Y-123352718D01*
X113533279Y-123352718D01*
X113533282Y-123352720D01*
X113637638Y-123386627D01*
X113727966Y-123415977D01*
X113829058Y-123431988D01*
X113930149Y-123448000D01*
X113930150Y-123448000D01*
X114134852Y-123448000D01*
X114134853Y-123448000D01*
X114337035Y-123415977D01*
X114531720Y-123352720D01*
X114714111Y-123259787D01*
X114807091Y-123192232D01*
X114879714Y-123139471D01*
X114879716Y-123139468D01*
X114879720Y-123139466D01*
X115024467Y-122994719D01*
X115024469Y-122994715D01*
X115024472Y-122994713D01*
X115102158Y-122887785D01*
X115144788Y-122829110D01*
X115237721Y-122646719D01*
X115300978Y-122452034D01*
X115333001Y-122249852D01*
X115333001Y-122045148D01*
X115300978Y-121842966D01*
X115237721Y-121648281D01*
X115237719Y-121648278D01*
X115237719Y-121648276D01*
X115192016Y-121558580D01*
X115144788Y-121465890D01*
X115125372Y-121439166D01*
X115024472Y-121300286D01*
X114879714Y-121155528D01*
X114714114Y-121035215D01*
X114714113Y-121035214D01*
X114714111Y-121035213D01*
X114657154Y-121006191D01*
X114531724Y-120942281D01*
X114337035Y-120879022D01*
X114162496Y-120851378D01*
X114134853Y-120847000D01*
X113930149Y-120847000D01*
X113905830Y-120850851D01*
X113727966Y-120879022D01*
X113533277Y-120942281D01*
X113350887Y-121035215D01*
X113185287Y-121155528D01*
X113040529Y-121300286D01*
X112920216Y-121465886D01*
X112872986Y-121558580D01*
X112825011Y-121609376D01*
X112757190Y-121626171D01*
X112691055Y-121603634D01*
X112652016Y-121558580D01*
X112651384Y-121557340D01*
X112604788Y-121465890D01*
X112585372Y-121439166D01*
X112484472Y-121300286D01*
X112339714Y-121155528D01*
X112174114Y-121035215D01*
X112174113Y-121035214D01*
X112174111Y-121035213D01*
X112117154Y-121006191D01*
X111991724Y-120942281D01*
X111797035Y-120879022D01*
X111622496Y-120851378D01*
X111594853Y-120847000D01*
X111390149Y-120847000D01*
X111365830Y-120850851D01*
X111187966Y-120879022D01*
X110993277Y-120942281D01*
X110810887Y-121035215D01*
X110645287Y-121155528D01*
X110500529Y-121300286D01*
X110380216Y-121465886D01*
X110287282Y-121648276D01*
X110224023Y-121842965D01*
X110192001Y-122045148D01*
X100750500Y-122045148D01*
X100750500Y-114009058D01*
X106250000Y-114009058D01*
X106250000Y-114550000D01*
X107291759Y-114550000D01*
X107278822Y-114581233D01*
X107250000Y-114726131D01*
X107250000Y-114873869D01*
X107278822Y-115018767D01*
X107291759Y-115050000D01*
X106250000Y-115050000D01*
X106250000Y-116097844D01*
X106256401Y-116157372D01*
X106256403Y-116157379D01*
X106306645Y-116292086D01*
X106306649Y-116292093D01*
X106392809Y-116407187D01*
X106392812Y-116407190D01*
X106507906Y-116493350D01*
X106507913Y-116493354D01*
X106642620Y-116543596D01*
X106642627Y-116543598D01*
X106702155Y-116549999D01*
X106702172Y-116550000D01*
X107750000Y-116550000D01*
X107750000Y-115508240D01*
X107781233Y-115521178D01*
X107926131Y-115550000D01*
X108073869Y-115550000D01*
X108218767Y-115521178D01*
X108250000Y-115508240D01*
X108250000Y-116550000D01*
X109297828Y-116550000D01*
X109297844Y-116549999D01*
X109357372Y-116543598D01*
X109357376Y-116543597D01*
X109500398Y-116490253D01*
X109501015Y-116491909D01*
X109558840Y-116479327D01*
X109599251Y-116491193D01*
X109599602Y-116490253D01*
X109742623Y-116543597D01*
X109742627Y-116543598D01*
X109802155Y-116549999D01*
X109802172Y-116550000D01*
X110850000Y-116550000D01*
X110850000Y-115508240D01*
X110881233Y-115521178D01*
X111026131Y-115550000D01*
X111173869Y-115550000D01*
X111318767Y-115521178D01*
X111350000Y-115508240D01*
X111350000Y-116550000D01*
X112397828Y-116550000D01*
X112397844Y-116549999D01*
X112457372Y-116543598D01*
X112457379Y-116543596D01*
X112592086Y-116493354D01*
X112592093Y-116493350D01*
X112707187Y-116407190D01*
X112707190Y-116407187D01*
X112793350Y-116292093D01*
X112793354Y-116292086D01*
X112843596Y-116157379D01*
X112843598Y-116157372D01*
X112849999Y-116097844D01*
X112850000Y-116097827D01*
X112850000Y-115050000D01*
X111808241Y-115050000D01*
X111821178Y-115018767D01*
X111850000Y-114873869D01*
X111850000Y-114785258D01*
X116849500Y-114785258D01*
X116849500Y-115014741D01*
X116874446Y-115204215D01*
X116879452Y-115242238D01*
X116915855Y-115378097D01*
X116938842Y-115463887D01*
X117026650Y-115675876D01*
X117026656Y-115675888D01*
X117141228Y-115874334D01*
X117141392Y-115874617D01*
X117281081Y-116056661D01*
X117281089Y-116056670D01*
X117443330Y-116218911D01*
X117443338Y-116218918D01*
X117625382Y-116358607D01*
X117625385Y-116358608D01*
X117625388Y-116358611D01*
X117824112Y-116473344D01*
X117824117Y-116473346D01*
X117824123Y-116473349D01*
X117872420Y-116493354D01*
X118036113Y-116561158D01*
X118257762Y-116620548D01*
X118485266Y-116650500D01*
X118485273Y-116650500D01*
X118714727Y-116650500D01*
X118714734Y-116650500D01*
X118942238Y-116620548D01*
X119163887Y-116561158D01*
X119375888Y-116473344D01*
X119574612Y-116358611D01*
X119756661Y-116218919D01*
X119756665Y-116218914D01*
X119756670Y-116218911D01*
X119918911Y-116056670D01*
X119918914Y-116056665D01*
X119918919Y-116056661D01*
X120058611Y-115874612D01*
X120077245Y-115842335D01*
X120127809Y-115794122D01*
X120196416Y-115780897D01*
X120261281Y-115806864D01*
X120283006Y-115828849D01*
X120381081Y-115956661D01*
X120381089Y-115956670D01*
X120543330Y-116118911D01*
X120543338Y-116118918D01*
X120725382Y-116258607D01*
X120725385Y-116258608D01*
X120725388Y-116258611D01*
X120924112Y-116373344D01*
X120924117Y-116373346D01*
X120924123Y-116373349D01*
X121005816Y-116407187D01*
X121136113Y-116461158D01*
X121357762Y-116520548D01*
X121574312Y-116549057D01*
X121581460Y-116549999D01*
X121585266Y-116550500D01*
X121585273Y-116550500D01*
X121814727Y-116550500D01*
X121814734Y-116550500D01*
X122042238Y-116520548D01*
X122263887Y-116461158D01*
X122475888Y-116373344D01*
X122674612Y-116258611D01*
X122856661Y-116118919D01*
X122856665Y-116118914D01*
X122856670Y-116118911D01*
X123018911Y-115956670D01*
X123018914Y-115956665D01*
X123018919Y-115956661D01*
X123158611Y-115774612D01*
X123273344Y-115575888D01*
X123361158Y-115363887D01*
X123420548Y-115142238D01*
X123450500Y-114914734D01*
X123450500Y-114685266D01*
X123437333Y-114585258D01*
X126049501Y-114585258D01*
X126049501Y-114814741D01*
X126062666Y-114914734D01*
X126079453Y-115042238D01*
X126115856Y-115178097D01*
X126138843Y-115263887D01*
X126226651Y-115475876D01*
X126226657Y-115475888D01*
X126341229Y-115674334D01*
X126341393Y-115674617D01*
X126481082Y-115856661D01*
X126481090Y-115856670D01*
X126643331Y-116018911D01*
X126643339Y-116018918D01*
X126825383Y-116158607D01*
X126825386Y-116158608D01*
X126825389Y-116158611D01*
X127024113Y-116273344D01*
X127024118Y-116273346D01*
X127024124Y-116273349D01*
X127092370Y-116301617D01*
X127236114Y-116361158D01*
X127457763Y-116420548D01*
X127685267Y-116450500D01*
X127685274Y-116450500D01*
X127914728Y-116450500D01*
X127914735Y-116450500D01*
X128142239Y-116420548D01*
X128363888Y-116361158D01*
X128575889Y-116273344D01*
X128774613Y-116158611D01*
X128956662Y-116018919D01*
X128956666Y-116018914D01*
X128956671Y-116018911D01*
X129118912Y-115856670D01*
X129118915Y-115856665D01*
X129118920Y-115856661D01*
X129258612Y-115674612D01*
X129373345Y-115475888D01*
X129461159Y-115263887D01*
X129520549Y-115042238D01*
X129550501Y-114814734D01*
X129550501Y-114585266D01*
X129520549Y-114357762D01*
X129461159Y-114136113D01*
X129403908Y-113997897D01*
X129373350Y-113924123D01*
X129373347Y-113924117D01*
X129373345Y-113924112D01*
X129258612Y-113725388D01*
X129258609Y-113725385D01*
X129258608Y-113725382D01*
X129118919Y-113543338D01*
X129118912Y-113543330D01*
X128956671Y-113381089D01*
X128956662Y-113381081D01*
X128774618Y-113241392D01*
X128768060Y-113237606D01*
X128596996Y-113138842D01*
X128575891Y-113126657D01*
X128575877Y-113126650D01*
X128363888Y-113038842D01*
X128142239Y-112979452D01*
X128104216Y-112974446D01*
X127914742Y-112949500D01*
X127914735Y-112949500D01*
X127685267Y-112949500D01*
X127685259Y-112949500D01*
X127468716Y-112978009D01*
X127457763Y-112979452D01*
X127455457Y-112980070D01*
X127236113Y-113038842D01*
X127024124Y-113126650D01*
X127024110Y-113126657D01*
X126825383Y-113241392D01*
X126643339Y-113381081D01*
X126481082Y-113543338D01*
X126341393Y-113725382D01*
X126226658Y-113924109D01*
X126226651Y-113924123D01*
X126138843Y-114136112D01*
X126079454Y-114357759D01*
X126079452Y-114357770D01*
X126049501Y-114585258D01*
X123437333Y-114585258D01*
X123420548Y-114457762D01*
X123361158Y-114236113D01*
X123304778Y-114100000D01*
X123273349Y-114024123D01*
X123273346Y-114024117D01*
X123273344Y-114024112D01*
X123158611Y-113825388D01*
X123158608Y-113825385D01*
X123158607Y-113825382D01*
X123018918Y-113643338D01*
X123018911Y-113643330D01*
X122856670Y-113481089D01*
X122856661Y-113481081D01*
X122674617Y-113341392D01*
X122649093Y-113326656D01*
X122589665Y-113292345D01*
X122475890Y-113226657D01*
X122475876Y-113226650D01*
X122263887Y-113138842D01*
X122218411Y-113126657D01*
X122042238Y-113079452D01*
X122004215Y-113074446D01*
X121814741Y-113049500D01*
X121814734Y-113049500D01*
X121585266Y-113049500D01*
X121585258Y-113049500D01*
X121368715Y-113078009D01*
X121357762Y-113079452D01*
X121264076Y-113104554D01*
X121136112Y-113138842D01*
X120924123Y-113226650D01*
X120924109Y-113226657D01*
X120725382Y-113341392D01*
X120543338Y-113481081D01*
X120381081Y-113643338D01*
X120241390Y-113825385D01*
X120222754Y-113857664D01*
X120172187Y-113905879D01*
X120103579Y-113919101D01*
X120038715Y-113893133D01*
X120016993Y-113871150D01*
X119938036Y-113768253D01*
X119918919Y-113743339D01*
X119918918Y-113743338D01*
X119918911Y-113743330D01*
X119756670Y-113581089D01*
X119756661Y-113581081D01*
X119574617Y-113441392D01*
X119561860Y-113434027D01*
X119401412Y-113341392D01*
X119375890Y-113326657D01*
X119375876Y-113326650D01*
X119163887Y-113238842D01*
X119118411Y-113226657D01*
X118942238Y-113179452D01*
X118904215Y-113174446D01*
X118714741Y-113149500D01*
X118714734Y-113149500D01*
X118485266Y-113149500D01*
X118485258Y-113149500D01*
X118268715Y-113178009D01*
X118257762Y-113179452D01*
X118164076Y-113204554D01*
X118036112Y-113238842D01*
X117824123Y-113326650D01*
X117824109Y-113326657D01*
X117625382Y-113441392D01*
X117443338Y-113581081D01*
X117281081Y-113743338D01*
X117141392Y-113925382D01*
X117026657Y-114124109D01*
X117026650Y-114124123D01*
X116938842Y-114336112D01*
X116879453Y-114557759D01*
X116879451Y-114557770D01*
X116849500Y-114785258D01*
X111850000Y-114785258D01*
X111850000Y-114726131D01*
X111821178Y-114581233D01*
X111808241Y-114550000D01*
X112850000Y-114550000D01*
X112850000Y-113502172D01*
X112849999Y-113502155D01*
X112843598Y-113442627D01*
X112843596Y-113442620D01*
X112793354Y-113307913D01*
X112793350Y-113307906D01*
X112707190Y-113192812D01*
X112707187Y-113192809D01*
X112592093Y-113106649D01*
X112592086Y-113106645D01*
X112457379Y-113056403D01*
X112457372Y-113056401D01*
X112397844Y-113050000D01*
X111350000Y-113050000D01*
X111350000Y-114091759D01*
X111318767Y-114078822D01*
X111173869Y-114050000D01*
X111026131Y-114050000D01*
X110881233Y-114078822D01*
X110850000Y-114091759D01*
X110850000Y-113050000D01*
X110309056Y-113050000D01*
X110225074Y-113060549D01*
X110092241Y-113115570D01*
X110025403Y-113167492D01*
X110025398Y-113167496D01*
X109876581Y-113316313D01*
X109815258Y-113349797D01*
X109745566Y-113344813D01*
X109689634Y-113302942D01*
X109607190Y-113192812D01*
X109607187Y-113192809D01*
X109492093Y-113106649D01*
X109492086Y-113106645D01*
X109357379Y-113056403D01*
X109357372Y-113056401D01*
X109297844Y-113050000D01*
X108250000Y-113050000D01*
X108250000Y-114091759D01*
X108218767Y-114078822D01*
X108073869Y-114050000D01*
X107926131Y-114050000D01*
X107781233Y-114078822D01*
X107750000Y-114091759D01*
X107750000Y-113050000D01*
X107209056Y-113050000D01*
X107125074Y-113060549D01*
X106992241Y-113115570D01*
X106925403Y-113167492D01*
X106925390Y-113167503D01*
X106367503Y-113725390D01*
X106367492Y-113725403D01*
X106315570Y-113792241D01*
X106315570Y-113792242D01*
X106260549Y-113925075D01*
X106250000Y-114009058D01*
X100750500Y-114009058D01*
X100750500Y-100185258D01*
X125949501Y-100185258D01*
X125949501Y-100414741D01*
X125963197Y-100518767D01*
X125979453Y-100642238D01*
X126026499Y-100817818D01*
X126038843Y-100863887D01*
X126126651Y-101075876D01*
X126126658Y-101075890D01*
X126241393Y-101274617D01*
X126381082Y-101456661D01*
X126381090Y-101456670D01*
X126543331Y-101618911D01*
X126543339Y-101618918D01*
X126725383Y-101758607D01*
X126725386Y-101758608D01*
X126725389Y-101758611D01*
X126924113Y-101873344D01*
X126924118Y-101873346D01*
X126924124Y-101873349D01*
X127005817Y-101907187D01*
X127136114Y-101961158D01*
X127357763Y-102020548D01*
X127574313Y-102049057D01*
X127581461Y-102049999D01*
X127585267Y-102050500D01*
X127585274Y-102050500D01*
X127814728Y-102050500D01*
X127814735Y-102050500D01*
X128042239Y-102020548D01*
X128263888Y-101961158D01*
X128475889Y-101873344D01*
X128674613Y-101758611D01*
X128856662Y-101618919D01*
X128856666Y-101618914D01*
X128856671Y-101618911D01*
X129018912Y-101456670D01*
X129018915Y-101456665D01*
X129018920Y-101456661D01*
X129158612Y-101274612D01*
X129273345Y-101075888D01*
X129361159Y-100863887D01*
X129420549Y-100642238D01*
X129450501Y-100414734D01*
X129450501Y-100185266D01*
X129420549Y-99957762D01*
X129361159Y-99736113D01*
X129296007Y-99578822D01*
X129273350Y-99524123D01*
X129273347Y-99524117D01*
X129273345Y-99524112D01*
X129158612Y-99325388D01*
X129158609Y-99325385D01*
X129158608Y-99325382D01*
X129034448Y-99163575D01*
X129018920Y-99143339D01*
X129018919Y-99143338D01*
X129018912Y-99143330D01*
X128877737Y-99002155D01*
X134450001Y-99002155D01*
X134450001Y-100050000D01*
X135491760Y-100050000D01*
X135478823Y-100081233D01*
X135450001Y-100226131D01*
X135450001Y-100373869D01*
X135478823Y-100518767D01*
X135491760Y-100550000D01*
X134450001Y-100550000D01*
X134450001Y-101597844D01*
X134456402Y-101657372D01*
X134456404Y-101657379D01*
X134506646Y-101792086D01*
X134506650Y-101792093D01*
X134592810Y-101907187D01*
X134592813Y-101907190D01*
X134707907Y-101993350D01*
X134707914Y-101993354D01*
X134842621Y-102043596D01*
X134842628Y-102043598D01*
X134902156Y-102049999D01*
X134902173Y-102050000D01*
X135950001Y-102050000D01*
X135950001Y-101008240D01*
X135981234Y-101021178D01*
X136126132Y-101050000D01*
X136273870Y-101050000D01*
X136418768Y-101021178D01*
X136450001Y-101008240D01*
X136450001Y-102050000D01*
X136990943Y-102050000D01*
X136990944Y-102049999D01*
X137074926Y-102039450D01*
X137207759Y-101984429D01*
X137274597Y-101932507D01*
X137274610Y-101932496D01*
X137832497Y-101374609D01*
X137832508Y-101374596D01*
X137884430Y-101307758D01*
X137884430Y-101307757D01*
X137939451Y-101174924D01*
X137950000Y-101090941D01*
X137950001Y-101090935D01*
X137950001Y-100550000D01*
X136908242Y-100550000D01*
X136921179Y-100518767D01*
X136950001Y-100373869D01*
X136950001Y-100285258D01*
X139949500Y-100285258D01*
X139949500Y-100514741D01*
X139974446Y-100704215D01*
X139979452Y-100742238D01*
X140015855Y-100878097D01*
X140038842Y-100963887D01*
X140126650Y-101175876D01*
X140126657Y-101175890D01*
X140241392Y-101374617D01*
X140381081Y-101556661D01*
X140381089Y-101556670D01*
X140543330Y-101718911D01*
X140543338Y-101718918D01*
X140725382Y-101858607D01*
X140725385Y-101858608D01*
X140725388Y-101858611D01*
X140924112Y-101973344D01*
X140924117Y-101973346D01*
X140924123Y-101973349D01*
X140972420Y-101993354D01*
X141136113Y-102061158D01*
X141357762Y-102120548D01*
X141574312Y-102149057D01*
X141581460Y-102149999D01*
X141585266Y-102150500D01*
X141585273Y-102150500D01*
X141814727Y-102150500D01*
X141814734Y-102150500D01*
X142042238Y-102120548D01*
X142263887Y-102061158D01*
X142475888Y-101973344D01*
X142674612Y-101858611D01*
X142856661Y-101718919D01*
X142856665Y-101718914D01*
X142856670Y-101718911D01*
X143018911Y-101556670D01*
X143018914Y-101556665D01*
X143018919Y-101556661D01*
X143158611Y-101374612D01*
X143273344Y-101175888D01*
X143361158Y-100963887D01*
X143420548Y-100742238D01*
X143450500Y-100514734D01*
X143450500Y-100285266D01*
X143420548Y-100057762D01*
X143361158Y-99836113D01*
X143296006Y-99678822D01*
X143273349Y-99624123D01*
X143273346Y-99624117D01*
X143273344Y-99624112D01*
X143158611Y-99425388D01*
X143158608Y-99425385D01*
X143158607Y-99425382D01*
X143018918Y-99243338D01*
X143018911Y-99243330D01*
X142877736Y-99102155D01*
X148450000Y-99102155D01*
X148450000Y-100150000D01*
X149491759Y-100150000D01*
X149478822Y-100181233D01*
X149450000Y-100326131D01*
X149450000Y-100473869D01*
X149478822Y-100618767D01*
X149491759Y-100650000D01*
X148450000Y-100650000D01*
X148450000Y-101697844D01*
X148456401Y-101757372D01*
X148456403Y-101757379D01*
X148506645Y-101892086D01*
X148506649Y-101892093D01*
X148592809Y-102007187D01*
X148592812Y-102007190D01*
X148707906Y-102093350D01*
X148707913Y-102093354D01*
X148842620Y-102143596D01*
X148842627Y-102143598D01*
X148902155Y-102149999D01*
X148902172Y-102150000D01*
X149950000Y-102150000D01*
X149950000Y-101108240D01*
X149981233Y-101121178D01*
X150126131Y-101150000D01*
X150273869Y-101150000D01*
X150418767Y-101121178D01*
X150450000Y-101108240D01*
X150450000Y-102150000D01*
X150990942Y-102150000D01*
X150990943Y-102149999D01*
X151074925Y-102139450D01*
X151207758Y-102084429D01*
X151274596Y-102032507D01*
X151274609Y-102032496D01*
X151832496Y-101474609D01*
X151832507Y-101474596D01*
X151884429Y-101407758D01*
X151884429Y-101407757D01*
X151939450Y-101274924D01*
X151949999Y-101190941D01*
X151950000Y-101190935D01*
X151950000Y-100650000D01*
X150908241Y-100650000D01*
X150921178Y-100618767D01*
X150950000Y-100473869D01*
X150950000Y-100326131D01*
X150921178Y-100181233D01*
X150908241Y-100150000D01*
X151950000Y-100150000D01*
X151950000Y-99102172D01*
X151949999Y-99102155D01*
X151943598Y-99042627D01*
X151943596Y-99042620D01*
X151893354Y-98907913D01*
X151893350Y-98907906D01*
X151807190Y-98792812D01*
X151807187Y-98792809D01*
X151692093Y-98706649D01*
X151692086Y-98706645D01*
X151557379Y-98656403D01*
X151557372Y-98656401D01*
X151497844Y-98650000D01*
X150450000Y-98650000D01*
X150450000Y-99691759D01*
X150418767Y-99678822D01*
X150273869Y-99650000D01*
X150126131Y-99650000D01*
X149981233Y-99678822D01*
X149950000Y-99691759D01*
X149950000Y-98650000D01*
X148902155Y-98650000D01*
X148842627Y-98656401D01*
X148842620Y-98656403D01*
X148707913Y-98706645D01*
X148707906Y-98706649D01*
X148592812Y-98792809D01*
X148592809Y-98792812D01*
X148506649Y-98907906D01*
X148506645Y-98907913D01*
X148456403Y-99042620D01*
X148456401Y-99042627D01*
X148450000Y-99102155D01*
X142877736Y-99102155D01*
X142856670Y-99081089D01*
X142856661Y-99081081D01*
X142674617Y-98941392D01*
X142475890Y-98826657D01*
X142475876Y-98826650D01*
X142263887Y-98738842D01*
X142218411Y-98726657D01*
X142042238Y-98679452D01*
X142004215Y-98674446D01*
X141814741Y-98649500D01*
X141814734Y-98649500D01*
X141585266Y-98649500D01*
X141585258Y-98649500D01*
X141368715Y-98678009D01*
X141357762Y-98679452D01*
X141264076Y-98704554D01*
X141136112Y-98738842D01*
X140924123Y-98826650D01*
X140924109Y-98826657D01*
X140725382Y-98941392D01*
X140543338Y-99081081D01*
X140381081Y-99243338D01*
X140241392Y-99425382D01*
X140126657Y-99624109D01*
X140126650Y-99624123D01*
X140038842Y-99836112D01*
X139979453Y-100057759D01*
X139979451Y-100057770D01*
X139949500Y-100285258D01*
X136950001Y-100285258D01*
X136950001Y-100226131D01*
X136921179Y-100081233D01*
X136908242Y-100050000D01*
X137950001Y-100050000D01*
X137950001Y-99002172D01*
X137950000Y-99002155D01*
X137943599Y-98942627D01*
X137943597Y-98942620D01*
X137893355Y-98807913D01*
X137893351Y-98807906D01*
X137807191Y-98692812D01*
X137807188Y-98692809D01*
X137692094Y-98606649D01*
X137692087Y-98606645D01*
X137557380Y-98556403D01*
X137557373Y-98556401D01*
X137497845Y-98550000D01*
X136450001Y-98550000D01*
X136450001Y-99591759D01*
X136418768Y-99578822D01*
X136273870Y-99550000D01*
X136126132Y-99550000D01*
X135981234Y-99578822D01*
X135950001Y-99591759D01*
X135950001Y-98550000D01*
X134902156Y-98550000D01*
X134842628Y-98556401D01*
X134842621Y-98556403D01*
X134707914Y-98606645D01*
X134707907Y-98606649D01*
X134592813Y-98692809D01*
X134592810Y-98692812D01*
X134506650Y-98807906D01*
X134506646Y-98807913D01*
X134456404Y-98942620D01*
X134456402Y-98942627D01*
X134450001Y-99002155D01*
X128877737Y-99002155D01*
X128856671Y-98981089D01*
X128856662Y-98981081D01*
X128674618Y-98841392D01*
X128649094Y-98826656D01*
X128475889Y-98726656D01*
X128475877Y-98726650D01*
X128263888Y-98638842D01*
X128185734Y-98617901D01*
X128042239Y-98579452D01*
X128004216Y-98574446D01*
X127814742Y-98549500D01*
X127814735Y-98549500D01*
X127585267Y-98549500D01*
X127585259Y-98549500D01*
X127368716Y-98578009D01*
X127357763Y-98579452D01*
X127264077Y-98604554D01*
X127136113Y-98638842D01*
X126924124Y-98726650D01*
X126924110Y-98726657D01*
X126725383Y-98841392D01*
X126543339Y-98981081D01*
X126381082Y-99143338D01*
X126241393Y-99325382D01*
X126126658Y-99524109D01*
X126126651Y-99524123D01*
X126038843Y-99736112D01*
X125979454Y-99957759D01*
X125979452Y-99957770D01*
X125949501Y-100185258D01*
X100750500Y-100185258D01*
X100750500Y-92385305D01*
X106250000Y-92385305D01*
X106250000Y-92614694D01*
X106250001Y-92614710D01*
X106279942Y-92842137D01*
X106339318Y-93063730D01*
X106427102Y-93275659D01*
X106427106Y-93275669D01*
X106541799Y-93474324D01*
X106541805Y-93474331D01*
X106598381Y-93548064D01*
X107322421Y-92824024D01*
X107335359Y-92855258D01*
X107417437Y-92978097D01*
X107521903Y-93082563D01*
X107644742Y-93164641D01*
X107675974Y-93177578D01*
X106951934Y-93901617D01*
X106951934Y-93901618D01*
X107025666Y-93958194D01*
X107224330Y-94072893D01*
X107224340Y-94072897D01*
X107436269Y-94160681D01*
X107657862Y-94220057D01*
X107885289Y-94249998D01*
X107885306Y-94250000D01*
X108114694Y-94250000D01*
X108114710Y-94249998D01*
X108342137Y-94220057D01*
X108563730Y-94160681D01*
X108775659Y-94072897D01*
X108775668Y-94072893D01*
X108974327Y-93958197D01*
X108974334Y-93958192D01*
X109048064Y-93901617D01*
X108324025Y-93177578D01*
X108355258Y-93164641D01*
X108478097Y-93082563D01*
X108582563Y-92978097D01*
X108664641Y-92855258D01*
X108677578Y-92824025D01*
X109401617Y-93548064D01*
X109451624Y-93482895D01*
X109508052Y-93441693D01*
X109577798Y-93437538D01*
X109638719Y-93471750D01*
X109648377Y-93482897D01*
X109698381Y-93548064D01*
X110422421Y-92824024D01*
X110435359Y-92855258D01*
X110517437Y-92978097D01*
X110621903Y-93082563D01*
X110744742Y-93164641D01*
X110775974Y-93177578D01*
X110051934Y-93901617D01*
X110051934Y-93901618D01*
X110125666Y-93958194D01*
X110324330Y-94072893D01*
X110324340Y-94072897D01*
X110536269Y-94160681D01*
X110757862Y-94220057D01*
X110985289Y-94249998D01*
X110985306Y-94250000D01*
X111214694Y-94250000D01*
X111214710Y-94249998D01*
X111442137Y-94220057D01*
X111663730Y-94160681D01*
X111875659Y-94072897D01*
X111875668Y-94072893D01*
X112074327Y-93958197D01*
X112074334Y-93958192D01*
X112148064Y-93901617D01*
X111424025Y-93177578D01*
X111455258Y-93164641D01*
X111578097Y-93082563D01*
X111682563Y-92978097D01*
X111764641Y-92855258D01*
X111777578Y-92824025D01*
X112501617Y-93548064D01*
X112558192Y-93474334D01*
X112558197Y-93474327D01*
X112672893Y-93275668D01*
X112672897Y-93275659D01*
X112760681Y-93063730D01*
X112820057Y-92842137D01*
X112849998Y-92614710D01*
X112850000Y-92614694D01*
X112850000Y-92385297D01*
X112849995Y-92385258D01*
X116849500Y-92385258D01*
X116849500Y-92614741D01*
X116874446Y-92804215D01*
X116879452Y-92842238D01*
X116910515Y-92958169D01*
X116938842Y-93063887D01*
X117026650Y-93275876D01*
X117026656Y-93275888D01*
X117141228Y-93474334D01*
X117141392Y-93474617D01*
X117281081Y-93656661D01*
X117281089Y-93656670D01*
X117443330Y-93818911D01*
X117443338Y-93818918D01*
X117625382Y-93958607D01*
X117625385Y-93958608D01*
X117625388Y-93958611D01*
X117824112Y-94073344D01*
X117824117Y-94073346D01*
X117824123Y-94073349D01*
X117862809Y-94089373D01*
X118036113Y-94161158D01*
X118257762Y-94220548D01*
X118485266Y-94250500D01*
X118485273Y-94250500D01*
X118714727Y-94250500D01*
X118714734Y-94250500D01*
X118942238Y-94220548D01*
X119163887Y-94161158D01*
X119375888Y-94073344D01*
X119574612Y-93958611D01*
X119756661Y-93818919D01*
X119756665Y-93818914D01*
X119756670Y-93818911D01*
X119918910Y-93656670D01*
X119918919Y-93656661D01*
X120001626Y-93548875D01*
X120058052Y-93507675D01*
X120127799Y-93503520D01*
X120188719Y-93537733D01*
X120198366Y-93548865D01*
X120281081Y-93656661D01*
X120281085Y-93656665D01*
X120281089Y-93656670D01*
X120443330Y-93818911D01*
X120443338Y-93818918D01*
X120625382Y-93958607D01*
X120625385Y-93958608D01*
X120625388Y-93958611D01*
X120824112Y-94073344D01*
X120824117Y-94073346D01*
X120824123Y-94073349D01*
X120862809Y-94089373D01*
X121036113Y-94161158D01*
X121257762Y-94220548D01*
X121485266Y-94250500D01*
X121485273Y-94250500D01*
X121714727Y-94250500D01*
X121714734Y-94250500D01*
X121942238Y-94220548D01*
X122163887Y-94161158D01*
X122375888Y-94073344D01*
X122574612Y-93958611D01*
X122756661Y-93818919D01*
X122756665Y-93818914D01*
X122756670Y-93818911D01*
X122918911Y-93656670D01*
X122918914Y-93656665D01*
X122918919Y-93656661D01*
X123058611Y-93474612D01*
X123173344Y-93275888D01*
X123261158Y-93063887D01*
X123320548Y-92842238D01*
X123350500Y-92614734D01*
X123350500Y-92385266D01*
X123320548Y-92157762D01*
X123261158Y-91936113D01*
X123195309Y-91777139D01*
X123173349Y-91724123D01*
X123173346Y-91724117D01*
X123173344Y-91724112D01*
X123058611Y-91525388D01*
X123058608Y-91525385D01*
X123058607Y-91525382D01*
X122918918Y-91343338D01*
X122918911Y-91343330D01*
X122756670Y-91181089D01*
X122756661Y-91181081D01*
X122574617Y-91041392D01*
X122375890Y-90926657D01*
X122375876Y-90926650D01*
X122163887Y-90838842D01*
X121942238Y-90779452D01*
X121904215Y-90774446D01*
X121714741Y-90749500D01*
X121714734Y-90749500D01*
X121485266Y-90749500D01*
X121485258Y-90749500D01*
X121268715Y-90778009D01*
X121257762Y-90779452D01*
X121164076Y-90804554D01*
X121036112Y-90838842D01*
X120824123Y-90926650D01*
X120824109Y-90926657D01*
X120625382Y-91041392D01*
X120443338Y-91181081D01*
X120281081Y-91343338D01*
X120198375Y-91451122D01*
X120141947Y-91492325D01*
X120072201Y-91496479D01*
X120011281Y-91462266D01*
X120001625Y-91451122D01*
X119918918Y-91343338D01*
X119918911Y-91343330D01*
X119756670Y-91181089D01*
X119756661Y-91181081D01*
X119574617Y-91041392D01*
X119375890Y-90926657D01*
X119375876Y-90926650D01*
X119163887Y-90838842D01*
X118942238Y-90779452D01*
X118904215Y-90774446D01*
X118714741Y-90749500D01*
X118714734Y-90749500D01*
X118485266Y-90749500D01*
X118485258Y-90749500D01*
X118268715Y-90778009D01*
X118257762Y-90779452D01*
X118164076Y-90804554D01*
X118036112Y-90838842D01*
X117824123Y-90926650D01*
X117824109Y-90926657D01*
X117625382Y-91041392D01*
X117443338Y-91181081D01*
X117281081Y-91343338D01*
X117141392Y-91525382D01*
X117026657Y-91724109D01*
X117026650Y-91724123D01*
X116938842Y-91936112D01*
X116879453Y-92157759D01*
X116879451Y-92157770D01*
X116849500Y-92385258D01*
X112849995Y-92385258D01*
X112820057Y-92157862D01*
X112760681Y-91936269D01*
X112672897Y-91724340D01*
X112672893Y-91724330D01*
X112558194Y-91525666D01*
X112501618Y-91451934D01*
X112501617Y-91451934D01*
X111777577Y-92175973D01*
X111764641Y-92144742D01*
X111682563Y-92021903D01*
X111578097Y-91917437D01*
X111455258Y-91835359D01*
X111424023Y-91822421D01*
X112148064Y-91098381D01*
X112148064Y-91098380D01*
X112074331Y-91041805D01*
X112074324Y-91041799D01*
X111875669Y-90927106D01*
X111875659Y-90927102D01*
X111663730Y-90839318D01*
X111442137Y-90779942D01*
X111214710Y-90750001D01*
X111214694Y-90750000D01*
X110985306Y-90750000D01*
X110985289Y-90750001D01*
X110757862Y-90779942D01*
X110536269Y-90839318D01*
X110324340Y-90927102D01*
X110324330Y-90927106D01*
X110125673Y-91041801D01*
X110125659Y-91041810D01*
X110051934Y-91098380D01*
X110775975Y-91822421D01*
X110744742Y-91835359D01*
X110621903Y-91917437D01*
X110517437Y-92021903D01*
X110435359Y-92144742D01*
X110422421Y-92175975D01*
X109698380Y-91451934D01*
X109648375Y-91517103D01*
X109591948Y-91558306D01*
X109522202Y-91562461D01*
X109461281Y-91528249D01*
X109451622Y-91517102D01*
X109401617Y-91451934D01*
X108677577Y-92175973D01*
X108664641Y-92144742D01*
X108582563Y-92021903D01*
X108478097Y-91917437D01*
X108355258Y-91835359D01*
X108324023Y-91822421D01*
X109048064Y-91098381D01*
X109048064Y-91098380D01*
X108974331Y-91041805D01*
X108974324Y-91041799D01*
X108775669Y-90927106D01*
X108775659Y-90927102D01*
X108563730Y-90839318D01*
X108342137Y-90779942D01*
X108114710Y-90750001D01*
X108114694Y-90750000D01*
X107885306Y-90750000D01*
X107885289Y-90750001D01*
X107657862Y-90779942D01*
X107436269Y-90839318D01*
X107224340Y-90927102D01*
X107224330Y-90927106D01*
X107025673Y-91041801D01*
X107025659Y-91041810D01*
X106951934Y-91098380D01*
X107675975Y-91822421D01*
X107644742Y-91835359D01*
X107521903Y-91917437D01*
X107417437Y-92021903D01*
X107335359Y-92144742D01*
X107322421Y-92175975D01*
X106598380Y-91451934D01*
X106541810Y-91525659D01*
X106541801Y-91525673D01*
X106427106Y-91724330D01*
X106427102Y-91724340D01*
X106339318Y-91936269D01*
X106279942Y-92157862D01*
X106250001Y-92385289D01*
X106250000Y-92385305D01*
X100750500Y-92385305D01*
X100750500Y-90985529D01*
X100770185Y-90918490D01*
X100822989Y-90872735D01*
X100892147Y-90862791D01*
X100955703Y-90891816D01*
X100972874Y-90910041D01*
X100985624Y-90926657D01*
X101040965Y-90998779D01*
X101040971Y-90998786D01*
X101251213Y-91209028D01*
X101251220Y-91209034D01*
X101487114Y-91390042D01*
X101744615Y-91538710D01*
X101744616Y-91538710D01*
X101744619Y-91538712D01*
X101885522Y-91597076D01*
X101983792Y-91637781D01*
X102019325Y-91652499D01*
X102306534Y-91729456D01*
X102601330Y-91768267D01*
X102601337Y-91768267D01*
X102898663Y-91768267D01*
X102898670Y-91768267D01*
X103193466Y-91729456D01*
X103480675Y-91652499D01*
X103755381Y-91538712D01*
X104012886Y-91390042D01*
X104248781Y-91209033D01*
X104317772Y-91140042D01*
X104399162Y-91058653D01*
X104459028Y-90998786D01*
X104459033Y-90998781D01*
X104640042Y-90762886D01*
X104788712Y-90505381D01*
X104902499Y-90230675D01*
X104979456Y-89943466D01*
X105018267Y-89648670D01*
X105018267Y-89351330D01*
X104979456Y-89056534D01*
X104902499Y-88769325D01*
X104788712Y-88494619D01*
X104749658Y-88426976D01*
X104640042Y-88237114D01*
X104459034Y-88001220D01*
X104459028Y-88001213D01*
X104248786Y-87790971D01*
X104196982Y-87751220D01*
X104160042Y-87722875D01*
X104118841Y-87666448D01*
X104114686Y-87596702D01*
X104148898Y-87535782D01*
X104210616Y-87503029D01*
X104235530Y-87500500D01*
X232742323Y-87500500D01*
X232809362Y-87520185D01*
G37*
%TD.AperFunction*%
%TD*%
M02*
