%TF.GenerationSoftware,KiCad,Pcbnew,9.0.2*%
%TF.CreationDate,2025-09-16T10:35:51+02:00*%
%TF.ProjectId,CeB_MP,4365425f-4d50-42e6-9b69-6361645f7063,rev?*%
%TF.SameCoordinates,Original*%
%TF.FileFunction,Legend,Top*%
%TF.FilePolarity,Positive*%
%FSLAX46Y46*%
G04 Gerber Fmt 4.6, Leading zero omitted, Abs format (unit mm)*
G04 Created by KiCad (PCBNEW 9.0.2) date 2025-09-16 10:35:51*
%MOMM*%
%LPD*%
G01*
G04 APERTURE LIST*
%ADD10C,0.100000*%
%ADD11C,0.500000*%
%ADD12C,0.254000*%
%ADD13C,0.150000*%
%ADD14C,0.152400*%
%ADD15C,0.200000*%
%ADD16C,0.120000*%
G04 APERTURE END LIST*
D10*
X120096895Y-135319925D02*
X120096895Y-134824687D01*
X120096895Y-134824687D02*
X120401657Y-135091353D01*
X120401657Y-135091353D02*
X120401657Y-134977068D01*
X120401657Y-134977068D02*
X120439752Y-134900877D01*
X120439752Y-134900877D02*
X120477847Y-134862782D01*
X120477847Y-134862782D02*
X120554038Y-134824687D01*
X120554038Y-134824687D02*
X120744514Y-134824687D01*
X120744514Y-134824687D02*
X120820704Y-134862782D01*
X120820704Y-134862782D02*
X120858800Y-134900877D01*
X120858800Y-134900877D02*
X120896895Y-134977068D01*
X120896895Y-134977068D02*
X120896895Y-135205639D01*
X120896895Y-135205639D02*
X120858800Y-135281830D01*
X120858800Y-135281830D02*
X120820704Y-135319925D01*
X120096895Y-134596115D02*
X120896895Y-134329448D01*
X120896895Y-134329448D02*
X120096895Y-134062782D01*
X120096895Y-133872306D02*
X120096895Y-133377068D01*
X120096895Y-133377068D02*
X120401657Y-133643734D01*
X120401657Y-133643734D02*
X120401657Y-133529449D01*
X120401657Y-133529449D02*
X120439752Y-133453258D01*
X120439752Y-133453258D02*
X120477847Y-133415163D01*
X120477847Y-133415163D02*
X120554038Y-133377068D01*
X120554038Y-133377068D02*
X120744514Y-133377068D01*
X120744514Y-133377068D02*
X120820704Y-133415163D01*
X120820704Y-133415163D02*
X120858800Y-133453258D01*
X120858800Y-133453258D02*
X120896895Y-133529449D01*
X120896895Y-133529449D02*
X120896895Y-133758020D01*
X120896895Y-133758020D02*
X120858800Y-133834211D01*
X120858800Y-133834211D02*
X120820704Y-133872306D01*
X122884990Y-134824687D02*
X122846895Y-134900877D01*
X122846895Y-134900877D02*
X122846895Y-135015163D01*
X122846895Y-135015163D02*
X122884990Y-135129449D01*
X122884990Y-135129449D02*
X122961180Y-135205639D01*
X122961180Y-135205639D02*
X123037371Y-135243734D01*
X123037371Y-135243734D02*
X123189752Y-135281830D01*
X123189752Y-135281830D02*
X123304038Y-135281830D01*
X123304038Y-135281830D02*
X123456419Y-135243734D01*
X123456419Y-135243734D02*
X123532609Y-135205639D01*
X123532609Y-135205639D02*
X123608800Y-135129449D01*
X123608800Y-135129449D02*
X123646895Y-135015163D01*
X123646895Y-135015163D02*
X123646895Y-134938972D01*
X123646895Y-134938972D02*
X123608800Y-134824687D01*
X123608800Y-134824687D02*
X123570704Y-134786591D01*
X123570704Y-134786591D02*
X123304038Y-134786591D01*
X123304038Y-134786591D02*
X123304038Y-134938972D01*
X123646895Y-134443734D02*
X122846895Y-134443734D01*
X122846895Y-134443734D02*
X123646895Y-133986591D01*
X123646895Y-133986591D02*
X122846895Y-133986591D01*
X123646895Y-133605639D02*
X122846895Y-133605639D01*
X122846895Y-133605639D02*
X122846895Y-133415163D01*
X122846895Y-133415163D02*
X122884990Y-133300877D01*
X122884990Y-133300877D02*
X122961180Y-133224687D01*
X122961180Y-133224687D02*
X123037371Y-133186592D01*
X123037371Y-133186592D02*
X123189752Y-133148496D01*
X123189752Y-133148496D02*
X123304038Y-133148496D01*
X123304038Y-133148496D02*
X123456419Y-133186592D01*
X123456419Y-133186592D02*
X123532609Y-133224687D01*
X123532609Y-133224687D02*
X123608800Y-133300877D01*
X123608800Y-133300877D02*
X123646895Y-133415163D01*
X123646895Y-133415163D02*
X123646895Y-133605639D01*
X133384990Y-134824687D02*
X133346895Y-134900877D01*
X133346895Y-134900877D02*
X133346895Y-135015163D01*
X133346895Y-135015163D02*
X133384990Y-135129449D01*
X133384990Y-135129449D02*
X133461180Y-135205639D01*
X133461180Y-135205639D02*
X133537371Y-135243734D01*
X133537371Y-135243734D02*
X133689752Y-135281830D01*
X133689752Y-135281830D02*
X133804038Y-135281830D01*
X133804038Y-135281830D02*
X133956419Y-135243734D01*
X133956419Y-135243734D02*
X134032609Y-135205639D01*
X134032609Y-135205639D02*
X134108800Y-135129449D01*
X134108800Y-135129449D02*
X134146895Y-135015163D01*
X134146895Y-135015163D02*
X134146895Y-134938972D01*
X134146895Y-134938972D02*
X134108800Y-134824687D01*
X134108800Y-134824687D02*
X134070704Y-134786591D01*
X134070704Y-134786591D02*
X133804038Y-134786591D01*
X133804038Y-134786591D02*
X133804038Y-134938972D01*
X134146895Y-134443734D02*
X133346895Y-134443734D01*
X133346895Y-134443734D02*
X134146895Y-133986591D01*
X134146895Y-133986591D02*
X133346895Y-133986591D01*
X134146895Y-133605639D02*
X133346895Y-133605639D01*
X133346895Y-133605639D02*
X133346895Y-133415163D01*
X133346895Y-133415163D02*
X133384990Y-133300877D01*
X133384990Y-133300877D02*
X133461180Y-133224687D01*
X133461180Y-133224687D02*
X133537371Y-133186592D01*
X133537371Y-133186592D02*
X133689752Y-133148496D01*
X133689752Y-133148496D02*
X133804038Y-133148496D01*
X133804038Y-133148496D02*
X133956419Y-133186592D01*
X133956419Y-133186592D02*
X134032609Y-133224687D01*
X134032609Y-133224687D02*
X134108800Y-133300877D01*
X134108800Y-133300877D02*
X134146895Y-133415163D01*
X134146895Y-133415163D02*
X134146895Y-133605639D01*
X128872419Y-134922306D02*
X128872419Y-135493734D01*
X128872419Y-135208020D02*
X127872419Y-135208020D01*
X127872419Y-135208020D02*
X128015276Y-135303258D01*
X128015276Y-135303258D02*
X128110514Y-135398496D01*
X128110514Y-135398496D02*
X128158133Y-135493734D01*
X127967657Y-134541353D02*
X127920038Y-134493734D01*
X127920038Y-134493734D02*
X127872419Y-134398496D01*
X127872419Y-134398496D02*
X127872419Y-134160401D01*
X127872419Y-134160401D02*
X127920038Y-134065163D01*
X127920038Y-134065163D02*
X127967657Y-134017544D01*
X127967657Y-134017544D02*
X128062895Y-133969925D01*
X128062895Y-133969925D02*
X128158133Y-133969925D01*
X128158133Y-133969925D02*
X128300990Y-134017544D01*
X128300990Y-134017544D02*
X128872419Y-134588972D01*
X128872419Y-134588972D02*
X128872419Y-133969925D01*
X127872419Y-133684210D02*
X128872419Y-133350877D01*
X128872419Y-133350877D02*
X127872419Y-133017544D01*
X131622419Y-135037306D02*
X131622419Y-135608734D01*
X131622419Y-135323020D02*
X130622419Y-135323020D01*
X130622419Y-135323020D02*
X130765276Y-135418258D01*
X130765276Y-135418258D02*
X130860514Y-135513496D01*
X130860514Y-135513496D02*
X130908133Y-135608734D01*
X130717657Y-134656353D02*
X130670038Y-134608734D01*
X130670038Y-134608734D02*
X130622419Y-134513496D01*
X130622419Y-134513496D02*
X130622419Y-134275401D01*
X130622419Y-134275401D02*
X130670038Y-134180163D01*
X130670038Y-134180163D02*
X130717657Y-134132544D01*
X130717657Y-134132544D02*
X130812895Y-134084925D01*
X130812895Y-134084925D02*
X130908133Y-134084925D01*
X130908133Y-134084925D02*
X131050990Y-134132544D01*
X131050990Y-134132544D02*
X131622419Y-134703972D01*
X131622419Y-134703972D02*
X131622419Y-134084925D01*
X130622419Y-133799210D02*
X131622419Y-133465877D01*
X131622419Y-133465877D02*
X130622419Y-133132544D01*
X107622419Y-135088972D02*
X108622419Y-134755639D01*
X108622419Y-134755639D02*
X107622419Y-134422306D01*
X108622419Y-134088972D02*
X107622419Y-134088972D01*
X108622419Y-133612782D02*
X107622419Y-133612782D01*
X107622419Y-133612782D02*
X108622419Y-133041354D01*
X108622419Y-133041354D02*
X107622419Y-133041354D01*
X108717657Y-132803259D02*
X108717657Y-132041354D01*
X107622419Y-131946115D02*
X108622419Y-131612782D01*
X108622419Y-131612782D02*
X107622419Y-131279449D01*
X104872419Y-135088972D02*
X105872419Y-134755639D01*
X105872419Y-134755639D02*
X104872419Y-134422306D01*
X105872419Y-134088972D02*
X104872419Y-134088972D01*
X105872419Y-133612782D02*
X104872419Y-133612782D01*
X104872419Y-133612782D02*
X105872419Y-133041354D01*
X105872419Y-133041354D02*
X104872419Y-133041354D01*
X116146895Y-134786591D02*
X115765942Y-135053258D01*
X116146895Y-135243734D02*
X115346895Y-135243734D01*
X115346895Y-135243734D02*
X115346895Y-134938972D01*
X115346895Y-134938972D02*
X115384990Y-134862782D01*
X115384990Y-134862782D02*
X115423085Y-134824687D01*
X115423085Y-134824687D02*
X115499276Y-134786591D01*
X115499276Y-134786591D02*
X115613561Y-134786591D01*
X115613561Y-134786591D02*
X115689752Y-134824687D01*
X115689752Y-134824687D02*
X115727847Y-134862782D01*
X115727847Y-134862782D02*
X115765942Y-134938972D01*
X115765942Y-134938972D02*
X115765942Y-135243734D01*
X115346895Y-134519925D02*
X116146895Y-133986591D01*
X115346895Y-133986591D02*
X116146895Y-134519925D01*
X112596895Y-135358020D02*
X112596895Y-134900877D01*
X113396895Y-135129449D02*
X112596895Y-135129449D01*
X112596895Y-134710401D02*
X113396895Y-134177067D01*
X112596895Y-134177067D02*
X113396895Y-134710401D01*
X227256265Y-134836704D02*
X227732455Y-134836704D01*
X227161027Y-135122419D02*
X227494360Y-134122419D01*
X227494360Y-134122419D02*
X227827693Y-135122419D01*
X228065789Y-134122419D02*
X228684836Y-134122419D01*
X228684836Y-134122419D02*
X228351503Y-134503371D01*
X228351503Y-134503371D02*
X228494360Y-134503371D01*
X228494360Y-134503371D02*
X228589598Y-134550990D01*
X228589598Y-134550990D02*
X228637217Y-134598609D01*
X228637217Y-134598609D02*
X228684836Y-134693847D01*
X228684836Y-134693847D02*
X228684836Y-134931942D01*
X228684836Y-134931942D02*
X228637217Y-135027180D01*
X228637217Y-135027180D02*
X228589598Y-135074800D01*
X228589598Y-135074800D02*
X228494360Y-135122419D01*
X228494360Y-135122419D02*
X228208646Y-135122419D01*
X228208646Y-135122419D02*
X228113408Y-135074800D01*
X228113408Y-135074800D02*
X228065789Y-135027180D01*
X217096895Y-135608020D02*
X217096895Y-135150877D01*
X217896895Y-135379449D02*
X217096895Y-135379449D01*
X217477847Y-134884210D02*
X217477847Y-134617544D01*
X217896895Y-134503258D02*
X217896895Y-134884210D01*
X217896895Y-134884210D02*
X217096895Y-134884210D01*
X217096895Y-134884210D02*
X217096895Y-134503258D01*
X217896895Y-134160400D02*
X217096895Y-134160400D01*
X217096895Y-134160400D02*
X217668323Y-133893734D01*
X217668323Y-133893734D02*
X217096895Y-133627067D01*
X217096895Y-133627067D02*
X217896895Y-133627067D01*
X217896895Y-133246114D02*
X217096895Y-133246114D01*
X217096895Y-133246114D02*
X217096895Y-132941352D01*
X217096895Y-132941352D02*
X217134990Y-132865162D01*
X217134990Y-132865162D02*
X217173085Y-132827067D01*
X217173085Y-132827067D02*
X217249276Y-132788971D01*
X217249276Y-132788971D02*
X217363561Y-132788971D01*
X217363561Y-132788971D02*
X217439752Y-132827067D01*
X217439752Y-132827067D02*
X217477847Y-132865162D01*
X217477847Y-132865162D02*
X217515942Y-132941352D01*
X217515942Y-132941352D02*
X217515942Y-133246114D01*
X217173085Y-132484210D02*
X217134990Y-132446114D01*
X217134990Y-132446114D02*
X217096895Y-132369924D01*
X217096895Y-132369924D02*
X217096895Y-132179448D01*
X217096895Y-132179448D02*
X217134990Y-132103257D01*
X217134990Y-132103257D02*
X217173085Y-132065162D01*
X217173085Y-132065162D02*
X217249276Y-132027067D01*
X217249276Y-132027067D02*
X217325466Y-132027067D01*
X217325466Y-132027067D02*
X217439752Y-132065162D01*
X217439752Y-132065162D02*
X217896895Y-132522305D01*
X217896895Y-132522305D02*
X217896895Y-132027067D01*
X214596895Y-135718020D02*
X214596895Y-135260877D01*
X215396895Y-135489449D02*
X214596895Y-135489449D01*
X214977847Y-134994210D02*
X214977847Y-134727544D01*
X215396895Y-134613258D02*
X215396895Y-134994210D01*
X215396895Y-134994210D02*
X214596895Y-134994210D01*
X214596895Y-134994210D02*
X214596895Y-134613258D01*
X215396895Y-134270400D02*
X214596895Y-134270400D01*
X214596895Y-134270400D02*
X215168323Y-134003734D01*
X215168323Y-134003734D02*
X214596895Y-133737067D01*
X214596895Y-133737067D02*
X215396895Y-133737067D01*
X215396895Y-133356114D02*
X214596895Y-133356114D01*
X214596895Y-133356114D02*
X214596895Y-133051352D01*
X214596895Y-133051352D02*
X214634990Y-132975162D01*
X214634990Y-132975162D02*
X214673085Y-132937067D01*
X214673085Y-132937067D02*
X214749276Y-132898971D01*
X214749276Y-132898971D02*
X214863561Y-132898971D01*
X214863561Y-132898971D02*
X214939752Y-132937067D01*
X214939752Y-132937067D02*
X214977847Y-132975162D01*
X214977847Y-132975162D02*
X215015942Y-133051352D01*
X215015942Y-133051352D02*
X215015942Y-133356114D01*
X215396895Y-132137067D02*
X215396895Y-132594210D01*
X215396895Y-132365638D02*
X214596895Y-132365638D01*
X214596895Y-132365638D02*
X214711180Y-132441829D01*
X214711180Y-132441829D02*
X214787371Y-132518019D01*
X214787371Y-132518019D02*
X214825466Y-132594210D01*
X212227847Y-135337068D02*
X212265942Y-135222782D01*
X212265942Y-135222782D02*
X212304038Y-135184687D01*
X212304038Y-135184687D02*
X212380228Y-135146591D01*
X212380228Y-135146591D02*
X212494514Y-135146591D01*
X212494514Y-135146591D02*
X212570704Y-135184687D01*
X212570704Y-135184687D02*
X212608800Y-135222782D01*
X212608800Y-135222782D02*
X212646895Y-135298972D01*
X212646895Y-135298972D02*
X212646895Y-135603734D01*
X212646895Y-135603734D02*
X211846895Y-135603734D01*
X211846895Y-135603734D02*
X211846895Y-135337068D01*
X211846895Y-135337068D02*
X211884990Y-135260877D01*
X211884990Y-135260877D02*
X211923085Y-135222782D01*
X211923085Y-135222782D02*
X211999276Y-135184687D01*
X211999276Y-135184687D02*
X212075466Y-135184687D01*
X212075466Y-135184687D02*
X212151657Y-135222782D01*
X212151657Y-135222782D02*
X212189752Y-135260877D01*
X212189752Y-135260877D02*
X212227847Y-135337068D01*
X212227847Y-135337068D02*
X212227847Y-135603734D01*
X212646895Y-134346591D02*
X212265942Y-134613258D01*
X212646895Y-134803734D02*
X211846895Y-134803734D01*
X211846895Y-134803734D02*
X211846895Y-134498972D01*
X211846895Y-134498972D02*
X211884990Y-134422782D01*
X211884990Y-134422782D02*
X211923085Y-134384687D01*
X211923085Y-134384687D02*
X211999276Y-134346591D01*
X211999276Y-134346591D02*
X212113561Y-134346591D01*
X212113561Y-134346591D02*
X212189752Y-134384687D01*
X212189752Y-134384687D02*
X212227847Y-134422782D01*
X212227847Y-134422782D02*
X212265942Y-134498972D01*
X212265942Y-134498972D02*
X212265942Y-134803734D01*
X212418323Y-134041830D02*
X212418323Y-133660877D01*
X212646895Y-134118020D02*
X211846895Y-133851353D01*
X211846895Y-133851353D02*
X212646895Y-133584687D01*
X212646895Y-133318020D02*
X211846895Y-133318020D01*
X212646895Y-132860877D02*
X212189752Y-133203735D01*
X211846895Y-132860877D02*
X212304038Y-133318020D01*
X212227847Y-132518020D02*
X212227847Y-132251354D01*
X212646895Y-132137068D02*
X212646895Y-132518020D01*
X212646895Y-132518020D02*
X211846895Y-132518020D01*
X211846895Y-132518020D02*
X211846895Y-132137068D01*
X206634990Y-134824687D02*
X206596895Y-134900877D01*
X206596895Y-134900877D02*
X206596895Y-135015163D01*
X206596895Y-135015163D02*
X206634990Y-135129449D01*
X206634990Y-135129449D02*
X206711180Y-135205639D01*
X206711180Y-135205639D02*
X206787371Y-135243734D01*
X206787371Y-135243734D02*
X206939752Y-135281830D01*
X206939752Y-135281830D02*
X207054038Y-135281830D01*
X207054038Y-135281830D02*
X207206419Y-135243734D01*
X207206419Y-135243734D02*
X207282609Y-135205639D01*
X207282609Y-135205639D02*
X207358800Y-135129449D01*
X207358800Y-135129449D02*
X207396895Y-135015163D01*
X207396895Y-135015163D02*
X207396895Y-134938972D01*
X207396895Y-134938972D02*
X207358800Y-134824687D01*
X207358800Y-134824687D02*
X207320704Y-134786591D01*
X207320704Y-134786591D02*
X207054038Y-134786591D01*
X207054038Y-134786591D02*
X207054038Y-134938972D01*
X207396895Y-134443734D02*
X206596895Y-134443734D01*
X206596895Y-134443734D02*
X207396895Y-133986591D01*
X207396895Y-133986591D02*
X206596895Y-133986591D01*
X207396895Y-133605639D02*
X206596895Y-133605639D01*
X206596895Y-133605639D02*
X206596895Y-133415163D01*
X206596895Y-133415163D02*
X206634990Y-133300877D01*
X206634990Y-133300877D02*
X206711180Y-133224687D01*
X206711180Y-133224687D02*
X206787371Y-133186592D01*
X206787371Y-133186592D02*
X206939752Y-133148496D01*
X206939752Y-133148496D02*
X207054038Y-133148496D01*
X207054038Y-133148496D02*
X207206419Y-133186592D01*
X207206419Y-133186592D02*
X207282609Y-133224687D01*
X207282609Y-133224687D02*
X207358800Y-133300877D01*
X207358800Y-133300877D02*
X207396895Y-133415163D01*
X207396895Y-133415163D02*
X207396895Y-133605639D01*
X204646895Y-135243734D02*
X203846895Y-135243734D01*
X203846895Y-135243734D02*
X203846895Y-134938972D01*
X203846895Y-134938972D02*
X203884990Y-134862782D01*
X203884990Y-134862782D02*
X203923085Y-134824687D01*
X203923085Y-134824687D02*
X203999276Y-134786591D01*
X203999276Y-134786591D02*
X204113561Y-134786591D01*
X204113561Y-134786591D02*
X204189752Y-134824687D01*
X204189752Y-134824687D02*
X204227847Y-134862782D01*
X204227847Y-134862782D02*
X204265942Y-134938972D01*
X204265942Y-134938972D02*
X204265942Y-135243734D01*
X204418323Y-134481830D02*
X204418323Y-134100877D01*
X204646895Y-134558020D02*
X203846895Y-134291353D01*
X203846895Y-134291353D02*
X204646895Y-134024687D01*
X204608800Y-133796116D02*
X204646895Y-133681830D01*
X204646895Y-133681830D02*
X204646895Y-133491354D01*
X204646895Y-133491354D02*
X204608800Y-133415163D01*
X204608800Y-133415163D02*
X204570704Y-133377068D01*
X204570704Y-133377068D02*
X204494514Y-133338973D01*
X204494514Y-133338973D02*
X204418323Y-133338973D01*
X204418323Y-133338973D02*
X204342133Y-133377068D01*
X204342133Y-133377068D02*
X204304038Y-133415163D01*
X204304038Y-133415163D02*
X204265942Y-133491354D01*
X204265942Y-133491354D02*
X204227847Y-133643735D01*
X204227847Y-133643735D02*
X204189752Y-133719925D01*
X204189752Y-133719925D02*
X204151657Y-133758020D01*
X204151657Y-133758020D02*
X204075466Y-133796116D01*
X204075466Y-133796116D02*
X203999276Y-133796116D01*
X203999276Y-133796116D02*
X203923085Y-133758020D01*
X203923085Y-133758020D02*
X203884990Y-133719925D01*
X203884990Y-133719925D02*
X203846895Y-133643735D01*
X203846895Y-133643735D02*
X203846895Y-133453258D01*
X203846895Y-133453258D02*
X203884990Y-133338973D01*
X204723085Y-133186592D02*
X204723085Y-132577068D01*
X204608800Y-132424687D02*
X204646895Y-132310401D01*
X204646895Y-132310401D02*
X204646895Y-132119925D01*
X204646895Y-132119925D02*
X204608800Y-132043734D01*
X204608800Y-132043734D02*
X204570704Y-132005639D01*
X204570704Y-132005639D02*
X204494514Y-131967544D01*
X204494514Y-131967544D02*
X204418323Y-131967544D01*
X204418323Y-131967544D02*
X204342133Y-132005639D01*
X204342133Y-132005639D02*
X204304038Y-132043734D01*
X204304038Y-132043734D02*
X204265942Y-132119925D01*
X204265942Y-132119925D02*
X204227847Y-132272306D01*
X204227847Y-132272306D02*
X204189752Y-132348496D01*
X204189752Y-132348496D02*
X204151657Y-132386591D01*
X204151657Y-132386591D02*
X204075466Y-132424687D01*
X204075466Y-132424687D02*
X203999276Y-132424687D01*
X203999276Y-132424687D02*
X203923085Y-132386591D01*
X203923085Y-132386591D02*
X203884990Y-132348496D01*
X203884990Y-132348496D02*
X203846895Y-132272306D01*
X203846895Y-132272306D02*
X203846895Y-132081829D01*
X203846895Y-132081829D02*
X203884990Y-131967544D01*
X204646895Y-131624686D02*
X203846895Y-131624686D01*
X203884990Y-130824687D02*
X203846895Y-130900877D01*
X203846895Y-130900877D02*
X203846895Y-131015163D01*
X203846895Y-131015163D02*
X203884990Y-131129449D01*
X203884990Y-131129449D02*
X203961180Y-131205639D01*
X203961180Y-131205639D02*
X204037371Y-131243734D01*
X204037371Y-131243734D02*
X204189752Y-131281830D01*
X204189752Y-131281830D02*
X204304038Y-131281830D01*
X204304038Y-131281830D02*
X204456419Y-131243734D01*
X204456419Y-131243734D02*
X204532609Y-131205639D01*
X204532609Y-131205639D02*
X204608800Y-131129449D01*
X204608800Y-131129449D02*
X204646895Y-131015163D01*
X204646895Y-131015163D02*
X204646895Y-130938972D01*
X204646895Y-130938972D02*
X204608800Y-130824687D01*
X204608800Y-130824687D02*
X204570704Y-130786591D01*
X204570704Y-130786591D02*
X204304038Y-130786591D01*
X204304038Y-130786591D02*
X204304038Y-130938972D01*
X201596895Y-135069925D02*
X201596895Y-134574687D01*
X201596895Y-134574687D02*
X201901657Y-134841353D01*
X201901657Y-134841353D02*
X201901657Y-134727068D01*
X201901657Y-134727068D02*
X201939752Y-134650877D01*
X201939752Y-134650877D02*
X201977847Y-134612782D01*
X201977847Y-134612782D02*
X202054038Y-134574687D01*
X202054038Y-134574687D02*
X202244514Y-134574687D01*
X202244514Y-134574687D02*
X202320704Y-134612782D01*
X202320704Y-134612782D02*
X202358800Y-134650877D01*
X202358800Y-134650877D02*
X202396895Y-134727068D01*
X202396895Y-134727068D02*
X202396895Y-134955639D01*
X202396895Y-134955639D02*
X202358800Y-135031830D01*
X202358800Y-135031830D02*
X202320704Y-135069925D01*
X201596895Y-134346115D02*
X202396895Y-134079448D01*
X202396895Y-134079448D02*
X201596895Y-133812782D01*
X201596895Y-133622306D02*
X201596895Y-133127068D01*
X201596895Y-133127068D02*
X201901657Y-133393734D01*
X201901657Y-133393734D02*
X201901657Y-133279449D01*
X201901657Y-133279449D02*
X201939752Y-133203258D01*
X201939752Y-133203258D02*
X201977847Y-133165163D01*
X201977847Y-133165163D02*
X202054038Y-133127068D01*
X202054038Y-133127068D02*
X202244514Y-133127068D01*
X202244514Y-133127068D02*
X202320704Y-133165163D01*
X202320704Y-133165163D02*
X202358800Y-133203258D01*
X202358800Y-133203258D02*
X202396895Y-133279449D01*
X202396895Y-133279449D02*
X202396895Y-133508020D01*
X202396895Y-133508020D02*
X202358800Y-133584211D01*
X202358800Y-133584211D02*
X202320704Y-133622306D01*
X196134990Y-134824687D02*
X196096895Y-134900877D01*
X196096895Y-134900877D02*
X196096895Y-135015163D01*
X196096895Y-135015163D02*
X196134990Y-135129449D01*
X196134990Y-135129449D02*
X196211180Y-135205639D01*
X196211180Y-135205639D02*
X196287371Y-135243734D01*
X196287371Y-135243734D02*
X196439752Y-135281830D01*
X196439752Y-135281830D02*
X196554038Y-135281830D01*
X196554038Y-135281830D02*
X196706419Y-135243734D01*
X196706419Y-135243734D02*
X196782609Y-135205639D01*
X196782609Y-135205639D02*
X196858800Y-135129449D01*
X196858800Y-135129449D02*
X196896895Y-135015163D01*
X196896895Y-135015163D02*
X196896895Y-134938972D01*
X196896895Y-134938972D02*
X196858800Y-134824687D01*
X196858800Y-134824687D02*
X196820704Y-134786591D01*
X196820704Y-134786591D02*
X196554038Y-134786591D01*
X196554038Y-134786591D02*
X196554038Y-134938972D01*
X196896895Y-134443734D02*
X196096895Y-134443734D01*
X196096895Y-134443734D02*
X196896895Y-133986591D01*
X196896895Y-133986591D02*
X196096895Y-133986591D01*
X196896895Y-133605639D02*
X196096895Y-133605639D01*
X196096895Y-133605639D02*
X196096895Y-133415163D01*
X196096895Y-133415163D02*
X196134990Y-133300877D01*
X196134990Y-133300877D02*
X196211180Y-133224687D01*
X196211180Y-133224687D02*
X196287371Y-133186592D01*
X196287371Y-133186592D02*
X196439752Y-133148496D01*
X196439752Y-133148496D02*
X196554038Y-133148496D01*
X196554038Y-133148496D02*
X196706419Y-133186592D01*
X196706419Y-133186592D02*
X196782609Y-133224687D01*
X196782609Y-133224687D02*
X196858800Y-133300877D01*
X196858800Y-133300877D02*
X196896895Y-133415163D01*
X196896895Y-133415163D02*
X196896895Y-133605639D01*
X193596895Y-135358020D02*
X193596895Y-134900877D01*
X194396895Y-135129449D02*
X193596895Y-135129449D01*
X194396895Y-134634210D02*
X193596895Y-134634210D01*
X193977847Y-134634210D02*
X193977847Y-134177067D01*
X194396895Y-134177067D02*
X193596895Y-134177067D01*
X194396895Y-133338972D02*
X194015942Y-133605639D01*
X194396895Y-133796115D02*
X193596895Y-133796115D01*
X193596895Y-133796115D02*
X193596895Y-133491353D01*
X193596895Y-133491353D02*
X193634990Y-133415163D01*
X193634990Y-133415163D02*
X193673085Y-133377068D01*
X193673085Y-133377068D02*
X193749276Y-133338972D01*
X193749276Y-133338972D02*
X193863561Y-133338972D01*
X193863561Y-133338972D02*
X193939752Y-133377068D01*
X193939752Y-133377068D02*
X193977847Y-133415163D01*
X193977847Y-133415163D02*
X194015942Y-133491353D01*
X194015942Y-133491353D02*
X194015942Y-133796115D01*
X194473085Y-133186592D02*
X194473085Y-132577068D01*
X194396895Y-132386591D02*
X193596895Y-132386591D01*
X194396895Y-132005639D02*
X193596895Y-132005639D01*
X193596895Y-132005639D02*
X194396895Y-131548496D01*
X194396895Y-131548496D02*
X193596895Y-131548496D01*
X191096895Y-135069925D02*
X191096895Y-134574687D01*
X191096895Y-134574687D02*
X191401657Y-134841353D01*
X191401657Y-134841353D02*
X191401657Y-134727068D01*
X191401657Y-134727068D02*
X191439752Y-134650877D01*
X191439752Y-134650877D02*
X191477847Y-134612782D01*
X191477847Y-134612782D02*
X191554038Y-134574687D01*
X191554038Y-134574687D02*
X191744514Y-134574687D01*
X191744514Y-134574687D02*
X191820704Y-134612782D01*
X191820704Y-134612782D02*
X191858800Y-134650877D01*
X191858800Y-134650877D02*
X191896895Y-134727068D01*
X191896895Y-134727068D02*
X191896895Y-134955639D01*
X191896895Y-134955639D02*
X191858800Y-135031830D01*
X191858800Y-135031830D02*
X191820704Y-135069925D01*
X191096895Y-134346115D02*
X191896895Y-134079448D01*
X191896895Y-134079448D02*
X191096895Y-133812782D01*
X191096895Y-133622306D02*
X191096895Y-133127068D01*
X191096895Y-133127068D02*
X191401657Y-133393734D01*
X191401657Y-133393734D02*
X191401657Y-133279449D01*
X191401657Y-133279449D02*
X191439752Y-133203258D01*
X191439752Y-133203258D02*
X191477847Y-133165163D01*
X191477847Y-133165163D02*
X191554038Y-133127068D01*
X191554038Y-133127068D02*
X191744514Y-133127068D01*
X191744514Y-133127068D02*
X191820704Y-133165163D01*
X191820704Y-133165163D02*
X191858800Y-133203258D01*
X191858800Y-133203258D02*
X191896895Y-133279449D01*
X191896895Y-133279449D02*
X191896895Y-133508020D01*
X191896895Y-133508020D02*
X191858800Y-133584211D01*
X191858800Y-133584211D02*
X191820704Y-133622306D01*
X185846895Y-135358020D02*
X185846895Y-134900877D01*
X186646895Y-135129449D02*
X185846895Y-135129449D01*
X186646895Y-134634210D02*
X185846895Y-134634210D01*
X186227847Y-134634210D02*
X186227847Y-134177067D01*
X186646895Y-134177067D02*
X185846895Y-134177067D01*
X186646895Y-133338972D02*
X186265942Y-133605639D01*
X186646895Y-133796115D02*
X185846895Y-133796115D01*
X185846895Y-133796115D02*
X185846895Y-133491353D01*
X185846895Y-133491353D02*
X185884990Y-133415163D01*
X185884990Y-133415163D02*
X185923085Y-133377068D01*
X185923085Y-133377068D02*
X185999276Y-133338972D01*
X185999276Y-133338972D02*
X186113561Y-133338972D01*
X186113561Y-133338972D02*
X186189752Y-133377068D01*
X186189752Y-133377068D02*
X186227847Y-133415163D01*
X186227847Y-133415163D02*
X186265942Y-133491353D01*
X186265942Y-133491353D02*
X186265942Y-133796115D01*
X186723085Y-133186592D02*
X186723085Y-132577068D01*
X185846895Y-132234210D02*
X185846895Y-132081829D01*
X185846895Y-132081829D02*
X185884990Y-132005639D01*
X185884990Y-132005639D02*
X185961180Y-131929448D01*
X185961180Y-131929448D02*
X186113561Y-131891353D01*
X186113561Y-131891353D02*
X186380228Y-131891353D01*
X186380228Y-131891353D02*
X186532609Y-131929448D01*
X186532609Y-131929448D02*
X186608800Y-132005639D01*
X186608800Y-132005639D02*
X186646895Y-132081829D01*
X186646895Y-132081829D02*
X186646895Y-132234210D01*
X186646895Y-132234210D02*
X186608800Y-132310401D01*
X186608800Y-132310401D02*
X186532609Y-132386591D01*
X186532609Y-132386591D02*
X186380228Y-132424687D01*
X186380228Y-132424687D02*
X186113561Y-132424687D01*
X186113561Y-132424687D02*
X185961180Y-132386591D01*
X185961180Y-132386591D02*
X185884990Y-132310401D01*
X185884990Y-132310401D02*
X185846895Y-132234210D01*
X185846895Y-131548496D02*
X186494514Y-131548496D01*
X186494514Y-131548496D02*
X186570704Y-131510401D01*
X186570704Y-131510401D02*
X186608800Y-131472306D01*
X186608800Y-131472306D02*
X186646895Y-131396115D01*
X186646895Y-131396115D02*
X186646895Y-131243734D01*
X186646895Y-131243734D02*
X186608800Y-131167544D01*
X186608800Y-131167544D02*
X186570704Y-131129449D01*
X186570704Y-131129449D02*
X186494514Y-131091353D01*
X186494514Y-131091353D02*
X185846895Y-131091353D01*
X185846895Y-130824687D02*
X185846895Y-130367544D01*
X186646895Y-130596116D02*
X185846895Y-130596116D01*
X181358800Y-135531830D02*
X181396895Y-135417544D01*
X181396895Y-135417544D02*
X181396895Y-135227068D01*
X181396895Y-135227068D02*
X181358800Y-135150877D01*
X181358800Y-135150877D02*
X181320704Y-135112782D01*
X181320704Y-135112782D02*
X181244514Y-135074687D01*
X181244514Y-135074687D02*
X181168323Y-135074687D01*
X181168323Y-135074687D02*
X181092133Y-135112782D01*
X181092133Y-135112782D02*
X181054038Y-135150877D01*
X181054038Y-135150877D02*
X181015942Y-135227068D01*
X181015942Y-135227068D02*
X180977847Y-135379449D01*
X180977847Y-135379449D02*
X180939752Y-135455639D01*
X180939752Y-135455639D02*
X180901657Y-135493734D01*
X180901657Y-135493734D02*
X180825466Y-135531830D01*
X180825466Y-135531830D02*
X180749276Y-135531830D01*
X180749276Y-135531830D02*
X180673085Y-135493734D01*
X180673085Y-135493734D02*
X180634990Y-135455639D01*
X180634990Y-135455639D02*
X180596895Y-135379449D01*
X180596895Y-135379449D02*
X180596895Y-135188972D01*
X180596895Y-135188972D02*
X180634990Y-135074687D01*
X181396895Y-134731829D02*
X180596895Y-134731829D01*
X180596895Y-134731829D02*
X180596895Y-134427067D01*
X180596895Y-134427067D02*
X180634990Y-134350877D01*
X180634990Y-134350877D02*
X180673085Y-134312782D01*
X180673085Y-134312782D02*
X180749276Y-134274686D01*
X180749276Y-134274686D02*
X180863561Y-134274686D01*
X180863561Y-134274686D02*
X180939752Y-134312782D01*
X180939752Y-134312782D02*
X180977847Y-134350877D01*
X180977847Y-134350877D02*
X181015942Y-134427067D01*
X181015942Y-134427067D02*
X181015942Y-134731829D01*
X180977847Y-133931829D02*
X180977847Y-133665163D01*
X181396895Y-133550877D02*
X181396895Y-133931829D01*
X181396895Y-133931829D02*
X180596895Y-133931829D01*
X180596895Y-133931829D02*
X180596895Y-133550877D01*
X180977847Y-133208019D02*
X180977847Y-132941353D01*
X181396895Y-132827067D02*
X181396895Y-133208019D01*
X181396895Y-133208019D02*
X180596895Y-133208019D01*
X180596895Y-133208019D02*
X180596895Y-132827067D01*
X181396895Y-132484209D02*
X180596895Y-132484209D01*
X180596895Y-132484209D02*
X180596895Y-132293733D01*
X180596895Y-132293733D02*
X180634990Y-132179447D01*
X180634990Y-132179447D02*
X180711180Y-132103257D01*
X180711180Y-132103257D02*
X180787371Y-132065162D01*
X180787371Y-132065162D02*
X180939752Y-132027066D01*
X180939752Y-132027066D02*
X181054038Y-132027066D01*
X181054038Y-132027066D02*
X181206419Y-132065162D01*
X181206419Y-132065162D02*
X181282609Y-132103257D01*
X181282609Y-132103257D02*
X181358800Y-132179447D01*
X181358800Y-132179447D02*
X181396895Y-132293733D01*
X181396895Y-132293733D02*
X181396895Y-132484209D01*
X181473085Y-131874686D02*
X181473085Y-131265162D01*
X181358800Y-131112781D02*
X181396895Y-130998495D01*
X181396895Y-130998495D02*
X181396895Y-130808019D01*
X181396895Y-130808019D02*
X181358800Y-130731828D01*
X181358800Y-130731828D02*
X181320704Y-130693733D01*
X181320704Y-130693733D02*
X181244514Y-130655638D01*
X181244514Y-130655638D02*
X181168323Y-130655638D01*
X181168323Y-130655638D02*
X181092133Y-130693733D01*
X181092133Y-130693733D02*
X181054038Y-130731828D01*
X181054038Y-130731828D02*
X181015942Y-130808019D01*
X181015942Y-130808019D02*
X180977847Y-130960400D01*
X180977847Y-130960400D02*
X180939752Y-131036590D01*
X180939752Y-131036590D02*
X180901657Y-131074685D01*
X180901657Y-131074685D02*
X180825466Y-131112781D01*
X180825466Y-131112781D02*
X180749276Y-131112781D01*
X180749276Y-131112781D02*
X180673085Y-131074685D01*
X180673085Y-131074685D02*
X180634990Y-131036590D01*
X180634990Y-131036590D02*
X180596895Y-130960400D01*
X180596895Y-130960400D02*
X180596895Y-130769923D01*
X180596895Y-130769923D02*
X180634990Y-130655638D01*
X183134990Y-134824687D02*
X183096895Y-134900877D01*
X183096895Y-134900877D02*
X183096895Y-135015163D01*
X183096895Y-135015163D02*
X183134990Y-135129449D01*
X183134990Y-135129449D02*
X183211180Y-135205639D01*
X183211180Y-135205639D02*
X183287371Y-135243734D01*
X183287371Y-135243734D02*
X183439752Y-135281830D01*
X183439752Y-135281830D02*
X183554038Y-135281830D01*
X183554038Y-135281830D02*
X183706419Y-135243734D01*
X183706419Y-135243734D02*
X183782609Y-135205639D01*
X183782609Y-135205639D02*
X183858800Y-135129449D01*
X183858800Y-135129449D02*
X183896895Y-135015163D01*
X183896895Y-135015163D02*
X183896895Y-134938972D01*
X183896895Y-134938972D02*
X183858800Y-134824687D01*
X183858800Y-134824687D02*
X183820704Y-134786591D01*
X183820704Y-134786591D02*
X183554038Y-134786591D01*
X183554038Y-134786591D02*
X183554038Y-134938972D01*
X183896895Y-134443734D02*
X183096895Y-134443734D01*
X183096895Y-134443734D02*
X183896895Y-133986591D01*
X183896895Y-133986591D02*
X183096895Y-133986591D01*
X183896895Y-133605639D02*
X183096895Y-133605639D01*
X183096895Y-133605639D02*
X183096895Y-133415163D01*
X183096895Y-133415163D02*
X183134990Y-133300877D01*
X183134990Y-133300877D02*
X183211180Y-133224687D01*
X183211180Y-133224687D02*
X183287371Y-133186592D01*
X183287371Y-133186592D02*
X183439752Y-133148496D01*
X183439752Y-133148496D02*
X183554038Y-133148496D01*
X183554038Y-133148496D02*
X183706419Y-133186592D01*
X183706419Y-133186592D02*
X183782609Y-133224687D01*
X183782609Y-133224687D02*
X183858800Y-133300877D01*
X183858800Y-133300877D02*
X183896895Y-133415163D01*
X183896895Y-133415163D02*
X183896895Y-133605639D01*
X170346895Y-135319925D02*
X170346895Y-134824687D01*
X170346895Y-134824687D02*
X170651657Y-135091353D01*
X170651657Y-135091353D02*
X170651657Y-134977068D01*
X170651657Y-134977068D02*
X170689752Y-134900877D01*
X170689752Y-134900877D02*
X170727847Y-134862782D01*
X170727847Y-134862782D02*
X170804038Y-134824687D01*
X170804038Y-134824687D02*
X170994514Y-134824687D01*
X170994514Y-134824687D02*
X171070704Y-134862782D01*
X171070704Y-134862782D02*
X171108800Y-134900877D01*
X171108800Y-134900877D02*
X171146895Y-134977068D01*
X171146895Y-134977068D02*
X171146895Y-135205639D01*
X171146895Y-135205639D02*
X171108800Y-135281830D01*
X171108800Y-135281830D02*
X171070704Y-135319925D01*
X170346895Y-134596115D02*
X171146895Y-134329448D01*
X171146895Y-134329448D02*
X170346895Y-134062782D01*
X170346895Y-133872306D02*
X170346895Y-133377068D01*
X170346895Y-133377068D02*
X170651657Y-133643734D01*
X170651657Y-133643734D02*
X170651657Y-133529449D01*
X170651657Y-133529449D02*
X170689752Y-133453258D01*
X170689752Y-133453258D02*
X170727847Y-133415163D01*
X170727847Y-133415163D02*
X170804038Y-133377068D01*
X170804038Y-133377068D02*
X170994514Y-133377068D01*
X170994514Y-133377068D02*
X171070704Y-133415163D01*
X171070704Y-133415163D02*
X171108800Y-133453258D01*
X171108800Y-133453258D02*
X171146895Y-133529449D01*
X171146895Y-133529449D02*
X171146895Y-133758020D01*
X171146895Y-133758020D02*
X171108800Y-133834211D01*
X171108800Y-133834211D02*
X171070704Y-133872306D01*
X175134990Y-134824687D02*
X175096895Y-134900877D01*
X175096895Y-134900877D02*
X175096895Y-135015163D01*
X175096895Y-135015163D02*
X175134990Y-135129449D01*
X175134990Y-135129449D02*
X175211180Y-135205639D01*
X175211180Y-135205639D02*
X175287371Y-135243734D01*
X175287371Y-135243734D02*
X175439752Y-135281830D01*
X175439752Y-135281830D02*
X175554038Y-135281830D01*
X175554038Y-135281830D02*
X175706419Y-135243734D01*
X175706419Y-135243734D02*
X175782609Y-135205639D01*
X175782609Y-135205639D02*
X175858800Y-135129449D01*
X175858800Y-135129449D02*
X175896895Y-135015163D01*
X175896895Y-135015163D02*
X175896895Y-134938972D01*
X175896895Y-134938972D02*
X175858800Y-134824687D01*
X175858800Y-134824687D02*
X175820704Y-134786591D01*
X175820704Y-134786591D02*
X175554038Y-134786591D01*
X175554038Y-134786591D02*
X175554038Y-134938972D01*
X175896895Y-134443734D02*
X175096895Y-134443734D01*
X175096895Y-134443734D02*
X175896895Y-133986591D01*
X175896895Y-133986591D02*
X175096895Y-133986591D01*
X175896895Y-133605639D02*
X175096895Y-133605639D01*
X175096895Y-133605639D02*
X175096895Y-133415163D01*
X175096895Y-133415163D02*
X175134990Y-133300877D01*
X175134990Y-133300877D02*
X175211180Y-133224687D01*
X175211180Y-133224687D02*
X175287371Y-133186592D01*
X175287371Y-133186592D02*
X175439752Y-133148496D01*
X175439752Y-133148496D02*
X175554038Y-133148496D01*
X175554038Y-133148496D02*
X175706419Y-133186592D01*
X175706419Y-133186592D02*
X175782609Y-133224687D01*
X175782609Y-133224687D02*
X175858800Y-133300877D01*
X175858800Y-133300877D02*
X175896895Y-133415163D01*
X175896895Y-133415163D02*
X175896895Y-133605639D01*
X172977847Y-134977068D02*
X173015942Y-134862782D01*
X173015942Y-134862782D02*
X173054038Y-134824687D01*
X173054038Y-134824687D02*
X173130228Y-134786591D01*
X173130228Y-134786591D02*
X173244514Y-134786591D01*
X173244514Y-134786591D02*
X173320704Y-134824687D01*
X173320704Y-134824687D02*
X173358800Y-134862782D01*
X173358800Y-134862782D02*
X173396895Y-134938972D01*
X173396895Y-134938972D02*
X173396895Y-135243734D01*
X173396895Y-135243734D02*
X172596895Y-135243734D01*
X172596895Y-135243734D02*
X172596895Y-134977068D01*
X172596895Y-134977068D02*
X172634990Y-134900877D01*
X172634990Y-134900877D02*
X172673085Y-134862782D01*
X172673085Y-134862782D02*
X172749276Y-134824687D01*
X172749276Y-134824687D02*
X172825466Y-134824687D01*
X172825466Y-134824687D02*
X172901657Y-134862782D01*
X172901657Y-134862782D02*
X172939752Y-134900877D01*
X172939752Y-134900877D02*
X172977847Y-134977068D01*
X172977847Y-134977068D02*
X172977847Y-135243734D01*
X172596895Y-134443734D02*
X173244514Y-134443734D01*
X173244514Y-134443734D02*
X173320704Y-134405639D01*
X173320704Y-134405639D02*
X173358800Y-134367544D01*
X173358800Y-134367544D02*
X173396895Y-134291353D01*
X173396895Y-134291353D02*
X173396895Y-134138972D01*
X173396895Y-134138972D02*
X173358800Y-134062782D01*
X173358800Y-134062782D02*
X173320704Y-134024687D01*
X173320704Y-134024687D02*
X173244514Y-133986591D01*
X173244514Y-133986591D02*
X172596895Y-133986591D01*
X172596895Y-133719925D02*
X172596895Y-133262782D01*
X173396895Y-133491354D02*
X172596895Y-133491354D01*
X172596895Y-133110401D02*
X172596895Y-132653258D01*
X173396895Y-132881830D02*
X172596895Y-132881830D01*
X172673085Y-132424687D02*
X172634990Y-132386591D01*
X172634990Y-132386591D02*
X172596895Y-132310401D01*
X172596895Y-132310401D02*
X172596895Y-132119925D01*
X172596895Y-132119925D02*
X172634990Y-132043734D01*
X172634990Y-132043734D02*
X172673085Y-132005639D01*
X172673085Y-132005639D02*
X172749276Y-131967544D01*
X172749276Y-131967544D02*
X172825466Y-131967544D01*
X172825466Y-131967544D02*
X172939752Y-132005639D01*
X172939752Y-132005639D02*
X173396895Y-132462782D01*
X173396895Y-132462782D02*
X173396895Y-131967544D01*
X164977847Y-134977068D02*
X165015942Y-134862782D01*
X165015942Y-134862782D02*
X165054038Y-134824687D01*
X165054038Y-134824687D02*
X165130228Y-134786591D01*
X165130228Y-134786591D02*
X165244514Y-134786591D01*
X165244514Y-134786591D02*
X165320704Y-134824687D01*
X165320704Y-134824687D02*
X165358800Y-134862782D01*
X165358800Y-134862782D02*
X165396895Y-134938972D01*
X165396895Y-134938972D02*
X165396895Y-135243734D01*
X165396895Y-135243734D02*
X164596895Y-135243734D01*
X164596895Y-135243734D02*
X164596895Y-134977068D01*
X164596895Y-134977068D02*
X164634990Y-134900877D01*
X164634990Y-134900877D02*
X164673085Y-134862782D01*
X164673085Y-134862782D02*
X164749276Y-134824687D01*
X164749276Y-134824687D02*
X164825466Y-134824687D01*
X164825466Y-134824687D02*
X164901657Y-134862782D01*
X164901657Y-134862782D02*
X164939752Y-134900877D01*
X164939752Y-134900877D02*
X164977847Y-134977068D01*
X164977847Y-134977068D02*
X164977847Y-135243734D01*
X164596895Y-134443734D02*
X165244514Y-134443734D01*
X165244514Y-134443734D02*
X165320704Y-134405639D01*
X165320704Y-134405639D02*
X165358800Y-134367544D01*
X165358800Y-134367544D02*
X165396895Y-134291353D01*
X165396895Y-134291353D02*
X165396895Y-134138972D01*
X165396895Y-134138972D02*
X165358800Y-134062782D01*
X165358800Y-134062782D02*
X165320704Y-134024687D01*
X165320704Y-134024687D02*
X165244514Y-133986591D01*
X165244514Y-133986591D02*
X164596895Y-133986591D01*
X164596895Y-133719925D02*
X164596895Y-133262782D01*
X165396895Y-133491354D02*
X164596895Y-133491354D01*
X164596895Y-133110401D02*
X164596895Y-132653258D01*
X165396895Y-132881830D02*
X164596895Y-132881830D01*
X165396895Y-131967544D02*
X165396895Y-132424687D01*
X165396895Y-132196115D02*
X164596895Y-132196115D01*
X164596895Y-132196115D02*
X164711180Y-132272306D01*
X164711180Y-132272306D02*
X164787371Y-132348496D01*
X164787371Y-132348496D02*
X164825466Y-132424687D01*
X162858800Y-135281830D02*
X162896895Y-135167544D01*
X162896895Y-135167544D02*
X162896895Y-134977068D01*
X162896895Y-134977068D02*
X162858800Y-134900877D01*
X162858800Y-134900877D02*
X162820704Y-134862782D01*
X162820704Y-134862782D02*
X162744514Y-134824687D01*
X162744514Y-134824687D02*
X162668323Y-134824687D01*
X162668323Y-134824687D02*
X162592133Y-134862782D01*
X162592133Y-134862782D02*
X162554038Y-134900877D01*
X162554038Y-134900877D02*
X162515942Y-134977068D01*
X162515942Y-134977068D02*
X162477847Y-135129449D01*
X162477847Y-135129449D02*
X162439752Y-135205639D01*
X162439752Y-135205639D02*
X162401657Y-135243734D01*
X162401657Y-135243734D02*
X162325466Y-135281830D01*
X162325466Y-135281830D02*
X162249276Y-135281830D01*
X162249276Y-135281830D02*
X162173085Y-135243734D01*
X162173085Y-135243734D02*
X162134990Y-135205639D01*
X162134990Y-135205639D02*
X162096895Y-135129449D01*
X162096895Y-135129449D02*
X162096895Y-134938972D01*
X162096895Y-134938972D02*
X162134990Y-134824687D01*
X162820704Y-134024686D02*
X162858800Y-134062782D01*
X162858800Y-134062782D02*
X162896895Y-134177067D01*
X162896895Y-134177067D02*
X162896895Y-134253258D01*
X162896895Y-134253258D02*
X162858800Y-134367544D01*
X162858800Y-134367544D02*
X162782609Y-134443734D01*
X162782609Y-134443734D02*
X162706419Y-134481829D01*
X162706419Y-134481829D02*
X162554038Y-134519925D01*
X162554038Y-134519925D02*
X162439752Y-134519925D01*
X162439752Y-134519925D02*
X162287371Y-134481829D01*
X162287371Y-134481829D02*
X162211180Y-134443734D01*
X162211180Y-134443734D02*
X162134990Y-134367544D01*
X162134990Y-134367544D02*
X162096895Y-134253258D01*
X162096895Y-134253258D02*
X162096895Y-134177067D01*
X162096895Y-134177067D02*
X162134990Y-134062782D01*
X162134990Y-134062782D02*
X162173085Y-134024686D01*
X162896895Y-133300877D02*
X162896895Y-133681829D01*
X162896895Y-133681829D02*
X162096895Y-133681829D01*
X160108800Y-135281830D02*
X160146895Y-135167544D01*
X160146895Y-135167544D02*
X160146895Y-134977068D01*
X160146895Y-134977068D02*
X160108800Y-134900877D01*
X160108800Y-134900877D02*
X160070704Y-134862782D01*
X160070704Y-134862782D02*
X159994514Y-134824687D01*
X159994514Y-134824687D02*
X159918323Y-134824687D01*
X159918323Y-134824687D02*
X159842133Y-134862782D01*
X159842133Y-134862782D02*
X159804038Y-134900877D01*
X159804038Y-134900877D02*
X159765942Y-134977068D01*
X159765942Y-134977068D02*
X159727847Y-135129449D01*
X159727847Y-135129449D02*
X159689752Y-135205639D01*
X159689752Y-135205639D02*
X159651657Y-135243734D01*
X159651657Y-135243734D02*
X159575466Y-135281830D01*
X159575466Y-135281830D02*
X159499276Y-135281830D01*
X159499276Y-135281830D02*
X159423085Y-135243734D01*
X159423085Y-135243734D02*
X159384990Y-135205639D01*
X159384990Y-135205639D02*
X159346895Y-135129449D01*
X159346895Y-135129449D02*
X159346895Y-134938972D01*
X159346895Y-134938972D02*
X159384990Y-134824687D01*
X160146895Y-134481829D02*
X159346895Y-134481829D01*
X159346895Y-134481829D02*
X159346895Y-134291353D01*
X159346895Y-134291353D02*
X159384990Y-134177067D01*
X159384990Y-134177067D02*
X159461180Y-134100877D01*
X159461180Y-134100877D02*
X159537371Y-134062782D01*
X159537371Y-134062782D02*
X159689752Y-134024686D01*
X159689752Y-134024686D02*
X159804038Y-134024686D01*
X159804038Y-134024686D02*
X159956419Y-134062782D01*
X159956419Y-134062782D02*
X160032609Y-134100877D01*
X160032609Y-134100877D02*
X160108800Y-134177067D01*
X160108800Y-134177067D02*
X160146895Y-134291353D01*
X160146895Y-134291353D02*
X160146895Y-134481829D01*
X159918323Y-133719925D02*
X159918323Y-133338972D01*
X160146895Y-133796115D02*
X159346895Y-133529448D01*
X159346895Y-133529448D02*
X160146895Y-133262782D01*
X149096895Y-135319925D02*
X149096895Y-134824687D01*
X149096895Y-134824687D02*
X149401657Y-135091353D01*
X149401657Y-135091353D02*
X149401657Y-134977068D01*
X149401657Y-134977068D02*
X149439752Y-134900877D01*
X149439752Y-134900877D02*
X149477847Y-134862782D01*
X149477847Y-134862782D02*
X149554038Y-134824687D01*
X149554038Y-134824687D02*
X149744514Y-134824687D01*
X149744514Y-134824687D02*
X149820704Y-134862782D01*
X149820704Y-134862782D02*
X149858800Y-134900877D01*
X149858800Y-134900877D02*
X149896895Y-134977068D01*
X149896895Y-134977068D02*
X149896895Y-135205639D01*
X149896895Y-135205639D02*
X149858800Y-135281830D01*
X149858800Y-135281830D02*
X149820704Y-135319925D01*
X149096895Y-134596115D02*
X149896895Y-134329448D01*
X149896895Y-134329448D02*
X149096895Y-134062782D01*
X149096895Y-133872306D02*
X149096895Y-133377068D01*
X149096895Y-133377068D02*
X149401657Y-133643734D01*
X149401657Y-133643734D02*
X149401657Y-133529449D01*
X149401657Y-133529449D02*
X149439752Y-133453258D01*
X149439752Y-133453258D02*
X149477847Y-133415163D01*
X149477847Y-133415163D02*
X149554038Y-133377068D01*
X149554038Y-133377068D02*
X149744514Y-133377068D01*
X149744514Y-133377068D02*
X149820704Y-133415163D01*
X149820704Y-133415163D02*
X149858800Y-133453258D01*
X149858800Y-133453258D02*
X149896895Y-133529449D01*
X149896895Y-133529449D02*
X149896895Y-133758020D01*
X149896895Y-133758020D02*
X149858800Y-133834211D01*
X149858800Y-133834211D02*
X149820704Y-133872306D01*
X154134990Y-135074687D02*
X154096895Y-135150877D01*
X154096895Y-135150877D02*
X154096895Y-135265163D01*
X154096895Y-135265163D02*
X154134990Y-135379449D01*
X154134990Y-135379449D02*
X154211180Y-135455639D01*
X154211180Y-135455639D02*
X154287371Y-135493734D01*
X154287371Y-135493734D02*
X154439752Y-135531830D01*
X154439752Y-135531830D02*
X154554038Y-135531830D01*
X154554038Y-135531830D02*
X154706419Y-135493734D01*
X154706419Y-135493734D02*
X154782609Y-135455639D01*
X154782609Y-135455639D02*
X154858800Y-135379449D01*
X154858800Y-135379449D02*
X154896895Y-135265163D01*
X154896895Y-135265163D02*
X154896895Y-135188972D01*
X154896895Y-135188972D02*
X154858800Y-135074687D01*
X154858800Y-135074687D02*
X154820704Y-135036591D01*
X154820704Y-135036591D02*
X154554038Y-135036591D01*
X154554038Y-135036591D02*
X154554038Y-135188972D01*
X154896895Y-134693734D02*
X154096895Y-134693734D01*
X154096895Y-134693734D02*
X154896895Y-134236591D01*
X154896895Y-134236591D02*
X154096895Y-134236591D01*
X154896895Y-133855639D02*
X154096895Y-133855639D01*
X154096895Y-133855639D02*
X154096895Y-133665163D01*
X154096895Y-133665163D02*
X154134990Y-133550877D01*
X154134990Y-133550877D02*
X154211180Y-133474687D01*
X154211180Y-133474687D02*
X154287371Y-133436592D01*
X154287371Y-133436592D02*
X154439752Y-133398496D01*
X154439752Y-133398496D02*
X154554038Y-133398496D01*
X154554038Y-133398496D02*
X154706419Y-133436592D01*
X154706419Y-133436592D02*
X154782609Y-133474687D01*
X154782609Y-133474687D02*
X154858800Y-133550877D01*
X154858800Y-133550877D02*
X154896895Y-133665163D01*
X154896895Y-133665163D02*
X154896895Y-133855639D01*
X152320704Y-135146591D02*
X152358800Y-135184687D01*
X152358800Y-135184687D02*
X152396895Y-135298972D01*
X152396895Y-135298972D02*
X152396895Y-135375163D01*
X152396895Y-135375163D02*
X152358800Y-135489449D01*
X152358800Y-135489449D02*
X152282609Y-135565639D01*
X152282609Y-135565639D02*
X152206419Y-135603734D01*
X152206419Y-135603734D02*
X152054038Y-135641830D01*
X152054038Y-135641830D02*
X151939752Y-135641830D01*
X151939752Y-135641830D02*
X151787371Y-135603734D01*
X151787371Y-135603734D02*
X151711180Y-135565639D01*
X151711180Y-135565639D02*
X151634990Y-135489449D01*
X151634990Y-135489449D02*
X151596895Y-135375163D01*
X151596895Y-135375163D02*
X151596895Y-135298972D01*
X151596895Y-135298972D02*
X151634990Y-135184687D01*
X151634990Y-135184687D02*
X151673085Y-135146591D01*
X151596895Y-134803734D02*
X152244514Y-134803734D01*
X152244514Y-134803734D02*
X152320704Y-134765639D01*
X152320704Y-134765639D02*
X152358800Y-134727544D01*
X152358800Y-134727544D02*
X152396895Y-134651353D01*
X152396895Y-134651353D02*
X152396895Y-134498972D01*
X152396895Y-134498972D02*
X152358800Y-134422782D01*
X152358800Y-134422782D02*
X152320704Y-134384687D01*
X152320704Y-134384687D02*
X152244514Y-134346591D01*
X152244514Y-134346591D02*
X151596895Y-134346591D01*
X152396895Y-133508496D02*
X152015942Y-133775163D01*
X152396895Y-133965639D02*
X151596895Y-133965639D01*
X151596895Y-133965639D02*
X151596895Y-133660877D01*
X151596895Y-133660877D02*
X151634990Y-133584687D01*
X151634990Y-133584687D02*
X151673085Y-133546592D01*
X151673085Y-133546592D02*
X151749276Y-133508496D01*
X151749276Y-133508496D02*
X151863561Y-133508496D01*
X151863561Y-133508496D02*
X151939752Y-133546592D01*
X151939752Y-133546592D02*
X151977847Y-133584687D01*
X151977847Y-133584687D02*
X152015942Y-133660877D01*
X152015942Y-133660877D02*
X152015942Y-133965639D01*
X152473085Y-133356116D02*
X152473085Y-132746592D01*
X152358800Y-132594211D02*
X152396895Y-132479925D01*
X152396895Y-132479925D02*
X152396895Y-132289449D01*
X152396895Y-132289449D02*
X152358800Y-132213258D01*
X152358800Y-132213258D02*
X152320704Y-132175163D01*
X152320704Y-132175163D02*
X152244514Y-132137068D01*
X152244514Y-132137068D02*
X152168323Y-132137068D01*
X152168323Y-132137068D02*
X152092133Y-132175163D01*
X152092133Y-132175163D02*
X152054038Y-132213258D01*
X152054038Y-132213258D02*
X152015942Y-132289449D01*
X152015942Y-132289449D02*
X151977847Y-132441830D01*
X151977847Y-132441830D02*
X151939752Y-132518020D01*
X151939752Y-132518020D02*
X151901657Y-132556115D01*
X151901657Y-132556115D02*
X151825466Y-132594211D01*
X151825466Y-132594211D02*
X151749276Y-132594211D01*
X151749276Y-132594211D02*
X151673085Y-132556115D01*
X151673085Y-132556115D02*
X151634990Y-132518020D01*
X151634990Y-132518020D02*
X151596895Y-132441830D01*
X151596895Y-132441830D02*
X151596895Y-132251353D01*
X151596895Y-132251353D02*
X151634990Y-132137068D01*
X143634990Y-134824687D02*
X143596895Y-134900877D01*
X143596895Y-134900877D02*
X143596895Y-135015163D01*
X143596895Y-135015163D02*
X143634990Y-135129449D01*
X143634990Y-135129449D02*
X143711180Y-135205639D01*
X143711180Y-135205639D02*
X143787371Y-135243734D01*
X143787371Y-135243734D02*
X143939752Y-135281830D01*
X143939752Y-135281830D02*
X144054038Y-135281830D01*
X144054038Y-135281830D02*
X144206419Y-135243734D01*
X144206419Y-135243734D02*
X144282609Y-135205639D01*
X144282609Y-135205639D02*
X144358800Y-135129449D01*
X144358800Y-135129449D02*
X144396895Y-135015163D01*
X144396895Y-135015163D02*
X144396895Y-134938972D01*
X144396895Y-134938972D02*
X144358800Y-134824687D01*
X144358800Y-134824687D02*
X144320704Y-134786591D01*
X144320704Y-134786591D02*
X144054038Y-134786591D01*
X144054038Y-134786591D02*
X144054038Y-134938972D01*
X144396895Y-134443734D02*
X143596895Y-134443734D01*
X143596895Y-134443734D02*
X144396895Y-133986591D01*
X144396895Y-133986591D02*
X143596895Y-133986591D01*
X144396895Y-133605639D02*
X143596895Y-133605639D01*
X143596895Y-133605639D02*
X143596895Y-133415163D01*
X143596895Y-133415163D02*
X143634990Y-133300877D01*
X143634990Y-133300877D02*
X143711180Y-133224687D01*
X143711180Y-133224687D02*
X143787371Y-133186592D01*
X143787371Y-133186592D02*
X143939752Y-133148496D01*
X143939752Y-133148496D02*
X144054038Y-133148496D01*
X144054038Y-133148496D02*
X144206419Y-133186592D01*
X144206419Y-133186592D02*
X144282609Y-133224687D01*
X144282609Y-133224687D02*
X144358800Y-133300877D01*
X144358800Y-133300877D02*
X144396895Y-133415163D01*
X144396895Y-133415163D02*
X144396895Y-133605639D01*
X141096895Y-135358020D02*
X141896895Y-135091353D01*
X141896895Y-135091353D02*
X141096895Y-134824687D01*
X141896895Y-134558020D02*
X141096895Y-134558020D01*
X141896895Y-134177068D02*
X141096895Y-134177068D01*
X141096895Y-134177068D02*
X141896895Y-133719925D01*
X141896895Y-133719925D02*
X141096895Y-133719925D01*
X138977847Y-135227068D02*
X139015942Y-135112782D01*
X139015942Y-135112782D02*
X139054038Y-135074687D01*
X139054038Y-135074687D02*
X139130228Y-135036591D01*
X139130228Y-135036591D02*
X139244514Y-135036591D01*
X139244514Y-135036591D02*
X139320704Y-135074687D01*
X139320704Y-135074687D02*
X139358800Y-135112782D01*
X139358800Y-135112782D02*
X139396895Y-135188972D01*
X139396895Y-135188972D02*
X139396895Y-135493734D01*
X139396895Y-135493734D02*
X138596895Y-135493734D01*
X138596895Y-135493734D02*
X138596895Y-135227068D01*
X138596895Y-135227068D02*
X138634990Y-135150877D01*
X138634990Y-135150877D02*
X138673085Y-135112782D01*
X138673085Y-135112782D02*
X138749276Y-135074687D01*
X138749276Y-135074687D02*
X138825466Y-135074687D01*
X138825466Y-135074687D02*
X138901657Y-135112782D01*
X138901657Y-135112782D02*
X138939752Y-135150877D01*
X138939752Y-135150877D02*
X138977847Y-135227068D01*
X138977847Y-135227068D02*
X138977847Y-135493734D01*
X139168323Y-134731830D02*
X139168323Y-134350877D01*
X139396895Y-134808020D02*
X138596895Y-134541353D01*
X138596895Y-134541353D02*
X139396895Y-134274687D01*
X138596895Y-134122306D02*
X138596895Y-133665163D01*
X139396895Y-133893735D02*
X138596895Y-133893735D01*
X139473085Y-133588973D02*
X139473085Y-132979449D01*
X138596895Y-132903258D02*
X139396895Y-132636591D01*
X139396895Y-132636591D02*
X138596895Y-132369925D01*
D11*
X156757518Y-93821142D02*
X156614661Y-93964000D01*
X156614661Y-93964000D02*
X156186089Y-94106857D01*
X156186089Y-94106857D02*
X155900375Y-94106857D01*
X155900375Y-94106857D02*
X155471804Y-93964000D01*
X155471804Y-93964000D02*
X155186089Y-93678285D01*
X155186089Y-93678285D02*
X155043232Y-93392571D01*
X155043232Y-93392571D02*
X154900375Y-92821142D01*
X154900375Y-92821142D02*
X154900375Y-92392571D01*
X154900375Y-92392571D02*
X155043232Y-91821142D01*
X155043232Y-91821142D02*
X155186089Y-91535428D01*
X155186089Y-91535428D02*
X155471804Y-91249714D01*
X155471804Y-91249714D02*
X155900375Y-91106857D01*
X155900375Y-91106857D02*
X156186089Y-91106857D01*
X156186089Y-91106857D02*
X156614661Y-91249714D01*
X156614661Y-91249714D02*
X156757518Y-91392571D01*
X159186089Y-93964000D02*
X158900375Y-94106857D01*
X158900375Y-94106857D02*
X158328947Y-94106857D01*
X158328947Y-94106857D02*
X158043232Y-93964000D01*
X158043232Y-93964000D02*
X157900375Y-93678285D01*
X157900375Y-93678285D02*
X157900375Y-92535428D01*
X157900375Y-92535428D02*
X158043232Y-92249714D01*
X158043232Y-92249714D02*
X158328947Y-92106857D01*
X158328947Y-92106857D02*
X158900375Y-92106857D01*
X158900375Y-92106857D02*
X159186089Y-92249714D01*
X159186089Y-92249714D02*
X159328947Y-92535428D01*
X159328947Y-92535428D02*
X159328947Y-92821142D01*
X159328947Y-92821142D02*
X157900375Y-93106857D01*
X161614661Y-92535428D02*
X162043233Y-92678285D01*
X162043233Y-92678285D02*
X162186090Y-92821142D01*
X162186090Y-92821142D02*
X162328947Y-93106857D01*
X162328947Y-93106857D02*
X162328947Y-93535428D01*
X162328947Y-93535428D02*
X162186090Y-93821142D01*
X162186090Y-93821142D02*
X162043233Y-93964000D01*
X162043233Y-93964000D02*
X161757518Y-94106857D01*
X161757518Y-94106857D02*
X160614661Y-94106857D01*
X160614661Y-94106857D02*
X160614661Y-91106857D01*
X160614661Y-91106857D02*
X161614661Y-91106857D01*
X161614661Y-91106857D02*
X161900376Y-91249714D01*
X161900376Y-91249714D02*
X162043233Y-91392571D01*
X162043233Y-91392571D02*
X162186090Y-91678285D01*
X162186090Y-91678285D02*
X162186090Y-91964000D01*
X162186090Y-91964000D02*
X162043233Y-92249714D01*
X162043233Y-92249714D02*
X161900376Y-92392571D01*
X161900376Y-92392571D02*
X161614661Y-92535428D01*
X161614661Y-92535428D02*
X160614661Y-92535428D01*
X162900376Y-94392571D02*
X165186090Y-94392571D01*
X165471804Y-91106857D02*
X166471804Y-94106857D01*
X166471804Y-94106857D02*
X167471804Y-91106857D01*
X170043233Y-94106857D02*
X168328947Y-94106857D01*
X169186090Y-94106857D02*
X169186090Y-91106857D01*
X169186090Y-91106857D02*
X168900376Y-91535428D01*
X168900376Y-91535428D02*
X168614661Y-91821142D01*
X168614661Y-91821142D02*
X168328947Y-91964000D01*
X171328947Y-93821142D02*
X171471804Y-93964000D01*
X171471804Y-93964000D02*
X171328947Y-94106857D01*
X171328947Y-94106857D02*
X171186090Y-93964000D01*
X171186090Y-93964000D02*
X171328947Y-93821142D01*
X171328947Y-93821142D02*
X171328947Y-94106857D01*
X173328947Y-91106857D02*
X173614661Y-91106857D01*
X173614661Y-91106857D02*
X173900375Y-91249714D01*
X173900375Y-91249714D02*
X174043233Y-91392571D01*
X174043233Y-91392571D02*
X174186090Y-91678285D01*
X174186090Y-91678285D02*
X174328947Y-92249714D01*
X174328947Y-92249714D02*
X174328947Y-92964000D01*
X174328947Y-92964000D02*
X174186090Y-93535428D01*
X174186090Y-93535428D02*
X174043233Y-93821142D01*
X174043233Y-93821142D02*
X173900375Y-93964000D01*
X173900375Y-93964000D02*
X173614661Y-94106857D01*
X173614661Y-94106857D02*
X173328947Y-94106857D01*
X173328947Y-94106857D02*
X173043233Y-93964000D01*
X173043233Y-93964000D02*
X172900375Y-93821142D01*
X172900375Y-93821142D02*
X172757518Y-93535428D01*
X172757518Y-93535428D02*
X172614661Y-92964000D01*
X172614661Y-92964000D02*
X172614661Y-92249714D01*
X172614661Y-92249714D02*
X172757518Y-91678285D01*
X172757518Y-91678285D02*
X172900375Y-91392571D01*
X172900375Y-91392571D02*
X173043233Y-91249714D01*
X173043233Y-91249714D02*
X173328947Y-91106857D01*
D12*
X120497619Y-142334318D02*
X121283810Y-142334318D01*
X121283810Y-142334318D02*
X120860476Y-142818127D01*
X120860476Y-142818127D02*
X121041905Y-142818127D01*
X121041905Y-142818127D02*
X121162857Y-142878603D01*
X121162857Y-142878603D02*
X121223333Y-142939080D01*
X121223333Y-142939080D02*
X121283810Y-143060032D01*
X121283810Y-143060032D02*
X121283810Y-143362413D01*
X121283810Y-143362413D02*
X121223333Y-143483365D01*
X121223333Y-143483365D02*
X121162857Y-143543842D01*
X121162857Y-143543842D02*
X121041905Y-143604318D01*
X121041905Y-143604318D02*
X120679048Y-143604318D01*
X120679048Y-143604318D02*
X120558095Y-143543842D01*
X120558095Y-143543842D02*
X120497619Y-143483365D01*
X121646667Y-142334318D02*
X122070000Y-143604318D01*
X122070000Y-143604318D02*
X122493334Y-142334318D01*
X122795714Y-142334318D02*
X123581905Y-142334318D01*
X123581905Y-142334318D02*
X123158571Y-142818127D01*
X123158571Y-142818127D02*
X123340000Y-142818127D01*
X123340000Y-142818127D02*
X123460952Y-142878603D01*
X123460952Y-142878603D02*
X123521428Y-142939080D01*
X123521428Y-142939080D02*
X123581905Y-143060032D01*
X123581905Y-143060032D02*
X123581905Y-143362413D01*
X123581905Y-143362413D02*
X123521428Y-143483365D01*
X123521428Y-143483365D02*
X123460952Y-143543842D01*
X123460952Y-143543842D02*
X123340000Y-143604318D01*
X123340000Y-143604318D02*
X122977143Y-143604318D01*
X122977143Y-143604318D02*
X122856190Y-143543842D01*
X122856190Y-143543842D02*
X122795714Y-143483365D01*
D10*
X146861903Y-110442581D02*
X146861903Y-109633058D01*
X146861903Y-109633058D02*
X146814284Y-109537820D01*
X146814284Y-109537820D02*
X146766665Y-109490201D01*
X146766665Y-109490201D02*
X146671427Y-109442581D01*
X146671427Y-109442581D02*
X146480951Y-109442581D01*
X146480951Y-109442581D02*
X146385713Y-109490201D01*
X146385713Y-109490201D02*
X146338094Y-109537820D01*
X146338094Y-109537820D02*
X146290475Y-109633058D01*
X146290475Y-109633058D02*
X146290475Y-110442581D01*
X145338094Y-110442581D02*
X145814284Y-110442581D01*
X145814284Y-110442581D02*
X145861903Y-109966391D01*
X145861903Y-109966391D02*
X145814284Y-110014010D01*
X145814284Y-110014010D02*
X145719046Y-110061629D01*
X145719046Y-110061629D02*
X145480951Y-110061629D01*
X145480951Y-110061629D02*
X145385713Y-110014010D01*
X145385713Y-110014010D02*
X145338094Y-109966391D01*
X145338094Y-109966391D02*
X145290475Y-109871153D01*
X145290475Y-109871153D02*
X145290475Y-109633058D01*
X145290475Y-109633058D02*
X145338094Y-109537820D01*
X145338094Y-109537820D02*
X145385713Y-109490201D01*
X145385713Y-109490201D02*
X145480951Y-109442581D01*
X145480951Y-109442581D02*
X145719046Y-109442581D01*
X145719046Y-109442581D02*
X145814284Y-109490201D01*
X145814284Y-109490201D02*
X145861903Y-109537820D01*
D13*
X140285714Y-96407200D02*
X140428571Y-96454819D01*
X140428571Y-96454819D02*
X140666666Y-96454819D01*
X140666666Y-96454819D02*
X140761904Y-96407200D01*
X140761904Y-96407200D02*
X140809523Y-96359580D01*
X140809523Y-96359580D02*
X140857142Y-96264342D01*
X140857142Y-96264342D02*
X140857142Y-96169104D01*
X140857142Y-96169104D02*
X140809523Y-96073866D01*
X140809523Y-96073866D02*
X140761904Y-96026247D01*
X140761904Y-96026247D02*
X140666666Y-95978628D01*
X140666666Y-95978628D02*
X140476190Y-95931009D01*
X140476190Y-95931009D02*
X140380952Y-95883390D01*
X140380952Y-95883390D02*
X140333333Y-95835771D01*
X140333333Y-95835771D02*
X140285714Y-95740533D01*
X140285714Y-95740533D02*
X140285714Y-95645295D01*
X140285714Y-95645295D02*
X140333333Y-95550057D01*
X140333333Y-95550057D02*
X140380952Y-95502438D01*
X140380952Y-95502438D02*
X140476190Y-95454819D01*
X140476190Y-95454819D02*
X140714285Y-95454819D01*
X140714285Y-95454819D02*
X140857142Y-95502438D01*
X141142857Y-95788152D02*
X141523809Y-95788152D01*
X141285714Y-95454819D02*
X141285714Y-96311961D01*
X141285714Y-96311961D02*
X141333333Y-96407200D01*
X141333333Y-96407200D02*
X141428571Y-96454819D01*
X141428571Y-96454819D02*
X141523809Y-96454819D01*
X142238095Y-96407200D02*
X142142857Y-96454819D01*
X142142857Y-96454819D02*
X141952381Y-96454819D01*
X141952381Y-96454819D02*
X141857143Y-96407200D01*
X141857143Y-96407200D02*
X141809524Y-96311961D01*
X141809524Y-96311961D02*
X141809524Y-95931009D01*
X141809524Y-95931009D02*
X141857143Y-95835771D01*
X141857143Y-95835771D02*
X141952381Y-95788152D01*
X141952381Y-95788152D02*
X142142857Y-95788152D01*
X142142857Y-95788152D02*
X142238095Y-95835771D01*
X142238095Y-95835771D02*
X142285714Y-95931009D01*
X142285714Y-95931009D02*
X142285714Y-96026247D01*
X142285714Y-96026247D02*
X141809524Y-96121485D01*
X142714286Y-95788152D02*
X142714286Y-96788152D01*
X142714286Y-95835771D02*
X142809524Y-95788152D01*
X142809524Y-95788152D02*
X143000000Y-95788152D01*
X143000000Y-95788152D02*
X143095238Y-95835771D01*
X143095238Y-95835771D02*
X143142857Y-95883390D01*
X143142857Y-95883390D02*
X143190476Y-95978628D01*
X143190476Y-95978628D02*
X143190476Y-96264342D01*
X143190476Y-96264342D02*
X143142857Y-96359580D01*
X143142857Y-96359580D02*
X143095238Y-96407200D01*
X143095238Y-96407200D02*
X143000000Y-96454819D01*
X143000000Y-96454819D02*
X142809524Y-96454819D01*
X142809524Y-96454819D02*
X142714286Y-96407200D01*
X143619048Y-96073866D02*
X144380953Y-96073866D01*
X145285714Y-96454819D02*
X145285714Y-95454819D01*
X145285714Y-96407200D02*
X145190476Y-96454819D01*
X145190476Y-96454819D02*
X145000000Y-96454819D01*
X145000000Y-96454819D02*
X144904762Y-96407200D01*
X144904762Y-96407200D02*
X144857143Y-96359580D01*
X144857143Y-96359580D02*
X144809524Y-96264342D01*
X144809524Y-96264342D02*
X144809524Y-95978628D01*
X144809524Y-95978628D02*
X144857143Y-95883390D01*
X144857143Y-95883390D02*
X144904762Y-95835771D01*
X144904762Y-95835771D02*
X145000000Y-95788152D01*
X145000000Y-95788152D02*
X145190476Y-95788152D01*
X145190476Y-95788152D02*
X145285714Y-95835771D01*
X145904762Y-96454819D02*
X145809524Y-96407200D01*
X145809524Y-96407200D02*
X145761905Y-96359580D01*
X145761905Y-96359580D02*
X145714286Y-96264342D01*
X145714286Y-96264342D02*
X145714286Y-95978628D01*
X145714286Y-95978628D02*
X145761905Y-95883390D01*
X145761905Y-95883390D02*
X145809524Y-95835771D01*
X145809524Y-95835771D02*
X145904762Y-95788152D01*
X145904762Y-95788152D02*
X146047619Y-95788152D01*
X146047619Y-95788152D02*
X146142857Y-95835771D01*
X146142857Y-95835771D02*
X146190476Y-95883390D01*
X146190476Y-95883390D02*
X146238095Y-95978628D01*
X146238095Y-95978628D02*
X146238095Y-96264342D01*
X146238095Y-96264342D02*
X146190476Y-96359580D01*
X146190476Y-96359580D02*
X146142857Y-96407200D01*
X146142857Y-96407200D02*
X146047619Y-96454819D01*
X146047619Y-96454819D02*
X145904762Y-96454819D01*
X146571429Y-95788152D02*
X146761905Y-96454819D01*
X146761905Y-96454819D02*
X146952381Y-95978628D01*
X146952381Y-95978628D02*
X147142857Y-96454819D01*
X147142857Y-96454819D02*
X147333333Y-95788152D01*
X147714286Y-95788152D02*
X147714286Y-96454819D01*
X147714286Y-95883390D02*
X147761905Y-95835771D01*
X147761905Y-95835771D02*
X147857143Y-95788152D01*
X147857143Y-95788152D02*
X148000000Y-95788152D01*
X148000000Y-95788152D02*
X148095238Y-95835771D01*
X148095238Y-95835771D02*
X148142857Y-95931009D01*
X148142857Y-95931009D02*
X148142857Y-96454819D01*
X149285715Y-95454819D02*
X149904762Y-95454819D01*
X149904762Y-95454819D02*
X149571429Y-95835771D01*
X149571429Y-95835771D02*
X149714286Y-95835771D01*
X149714286Y-95835771D02*
X149809524Y-95883390D01*
X149809524Y-95883390D02*
X149857143Y-95931009D01*
X149857143Y-95931009D02*
X149904762Y-96026247D01*
X149904762Y-96026247D02*
X149904762Y-96264342D01*
X149904762Y-96264342D02*
X149857143Y-96359580D01*
X149857143Y-96359580D02*
X149809524Y-96407200D01*
X149809524Y-96407200D02*
X149714286Y-96454819D01*
X149714286Y-96454819D02*
X149428572Y-96454819D01*
X149428572Y-96454819D02*
X149333334Y-96407200D01*
X149333334Y-96407200D02*
X149285715Y-96359580D01*
X150190477Y-95454819D02*
X150523810Y-96454819D01*
X150523810Y-96454819D02*
X150857143Y-95454819D01*
X151095239Y-95454819D02*
X151714286Y-95454819D01*
X151714286Y-95454819D02*
X151380953Y-95835771D01*
X151380953Y-95835771D02*
X151523810Y-95835771D01*
X151523810Y-95835771D02*
X151619048Y-95883390D01*
X151619048Y-95883390D02*
X151666667Y-95931009D01*
X151666667Y-95931009D02*
X151714286Y-96026247D01*
X151714286Y-96026247D02*
X151714286Y-96264342D01*
X151714286Y-96264342D02*
X151666667Y-96359580D01*
X151666667Y-96359580D02*
X151619048Y-96407200D01*
X151619048Y-96407200D02*
X151523810Y-96454819D01*
X151523810Y-96454819D02*
X151238096Y-96454819D01*
X151238096Y-96454819D02*
X151142858Y-96407200D01*
X151142858Y-96407200D02*
X151095239Y-96359580D01*
D10*
X151296117Y-97827578D02*
X151296117Y-98827578D01*
X150819927Y-97827578D02*
X150819927Y-98827578D01*
X150819927Y-98827578D02*
X150248499Y-97827578D01*
X150248499Y-97827578D02*
X150248499Y-98827578D01*
X149772308Y-98208531D02*
X149010404Y-98208531D01*
X142496113Y-97827578D02*
X142496113Y-98827578D01*
X142019923Y-97827578D02*
X142019923Y-98827578D01*
X142019923Y-98827578D02*
X141448495Y-97827578D01*
X141448495Y-97827578D02*
X141448495Y-98827578D01*
X140972304Y-98208531D02*
X140210400Y-98208531D01*
X140591352Y-97827578D02*
X140591352Y-98589483D01*
X132861900Y-111142582D02*
X132861900Y-110333059D01*
X132861900Y-110333059D02*
X132814281Y-110237821D01*
X132814281Y-110237821D02*
X132766662Y-110190202D01*
X132766662Y-110190202D02*
X132671424Y-110142582D01*
X132671424Y-110142582D02*
X132480948Y-110142582D01*
X132480948Y-110142582D02*
X132385710Y-110190202D01*
X132385710Y-110190202D02*
X132338091Y-110237821D01*
X132338091Y-110237821D02*
X132290472Y-110333059D01*
X132290472Y-110333059D02*
X132290472Y-111142582D01*
X131385710Y-110809249D02*
X131385710Y-110142582D01*
X131623805Y-111190202D02*
X131861900Y-110475916D01*
X131861900Y-110475916D02*
X131242853Y-110475916D01*
D13*
X126761906Y-96407200D02*
X126904763Y-96454819D01*
X126904763Y-96454819D02*
X127142858Y-96454819D01*
X127142858Y-96454819D02*
X127238096Y-96407200D01*
X127238096Y-96407200D02*
X127285715Y-96359580D01*
X127285715Y-96359580D02*
X127333334Y-96264342D01*
X127333334Y-96264342D02*
X127333334Y-96169104D01*
X127333334Y-96169104D02*
X127285715Y-96073866D01*
X127285715Y-96073866D02*
X127238096Y-96026247D01*
X127238096Y-96026247D02*
X127142858Y-95978628D01*
X127142858Y-95978628D02*
X126952382Y-95931009D01*
X126952382Y-95931009D02*
X126857144Y-95883390D01*
X126857144Y-95883390D02*
X126809525Y-95835771D01*
X126809525Y-95835771D02*
X126761906Y-95740533D01*
X126761906Y-95740533D02*
X126761906Y-95645295D01*
X126761906Y-95645295D02*
X126809525Y-95550057D01*
X126809525Y-95550057D02*
X126857144Y-95502438D01*
X126857144Y-95502438D02*
X126952382Y-95454819D01*
X126952382Y-95454819D02*
X127190477Y-95454819D01*
X127190477Y-95454819D02*
X127333334Y-95502438D01*
X127619049Y-95788152D02*
X128000001Y-95788152D01*
X127761906Y-95454819D02*
X127761906Y-96311961D01*
X127761906Y-96311961D02*
X127809525Y-96407200D01*
X127809525Y-96407200D02*
X127904763Y-96454819D01*
X127904763Y-96454819D02*
X128000001Y-96454819D01*
X128714287Y-96407200D02*
X128619049Y-96454819D01*
X128619049Y-96454819D02*
X128428573Y-96454819D01*
X128428573Y-96454819D02*
X128333335Y-96407200D01*
X128333335Y-96407200D02*
X128285716Y-96311961D01*
X128285716Y-96311961D02*
X128285716Y-95931009D01*
X128285716Y-95931009D02*
X128333335Y-95835771D01*
X128333335Y-95835771D02*
X128428573Y-95788152D01*
X128428573Y-95788152D02*
X128619049Y-95788152D01*
X128619049Y-95788152D02*
X128714287Y-95835771D01*
X128714287Y-95835771D02*
X128761906Y-95931009D01*
X128761906Y-95931009D02*
X128761906Y-96026247D01*
X128761906Y-96026247D02*
X128285716Y-96121485D01*
X129190478Y-95788152D02*
X129190478Y-96788152D01*
X129190478Y-95835771D02*
X129285716Y-95788152D01*
X129285716Y-95788152D02*
X129476192Y-95788152D01*
X129476192Y-95788152D02*
X129571430Y-95835771D01*
X129571430Y-95835771D02*
X129619049Y-95883390D01*
X129619049Y-95883390D02*
X129666668Y-95978628D01*
X129666668Y-95978628D02*
X129666668Y-96264342D01*
X129666668Y-96264342D02*
X129619049Y-96359580D01*
X129619049Y-96359580D02*
X129571430Y-96407200D01*
X129571430Y-96407200D02*
X129476192Y-96454819D01*
X129476192Y-96454819D02*
X129285716Y-96454819D01*
X129285716Y-96454819D02*
X129190478Y-96407200D01*
X130095240Y-96073866D02*
X130857145Y-96073866D01*
X131761906Y-96454819D02*
X131761906Y-95454819D01*
X131761906Y-96407200D02*
X131666668Y-96454819D01*
X131666668Y-96454819D02*
X131476192Y-96454819D01*
X131476192Y-96454819D02*
X131380954Y-96407200D01*
X131380954Y-96407200D02*
X131333335Y-96359580D01*
X131333335Y-96359580D02*
X131285716Y-96264342D01*
X131285716Y-96264342D02*
X131285716Y-95978628D01*
X131285716Y-95978628D02*
X131333335Y-95883390D01*
X131333335Y-95883390D02*
X131380954Y-95835771D01*
X131380954Y-95835771D02*
X131476192Y-95788152D01*
X131476192Y-95788152D02*
X131666668Y-95788152D01*
X131666668Y-95788152D02*
X131761906Y-95835771D01*
X132380954Y-96454819D02*
X132285716Y-96407200D01*
X132285716Y-96407200D02*
X132238097Y-96359580D01*
X132238097Y-96359580D02*
X132190478Y-96264342D01*
X132190478Y-96264342D02*
X132190478Y-95978628D01*
X132190478Y-95978628D02*
X132238097Y-95883390D01*
X132238097Y-95883390D02*
X132285716Y-95835771D01*
X132285716Y-95835771D02*
X132380954Y-95788152D01*
X132380954Y-95788152D02*
X132523811Y-95788152D01*
X132523811Y-95788152D02*
X132619049Y-95835771D01*
X132619049Y-95835771D02*
X132666668Y-95883390D01*
X132666668Y-95883390D02*
X132714287Y-95978628D01*
X132714287Y-95978628D02*
X132714287Y-96264342D01*
X132714287Y-96264342D02*
X132666668Y-96359580D01*
X132666668Y-96359580D02*
X132619049Y-96407200D01*
X132619049Y-96407200D02*
X132523811Y-96454819D01*
X132523811Y-96454819D02*
X132380954Y-96454819D01*
X133047621Y-95788152D02*
X133238097Y-96454819D01*
X133238097Y-96454819D02*
X133428573Y-95978628D01*
X133428573Y-95978628D02*
X133619049Y-96454819D01*
X133619049Y-96454819D02*
X133809525Y-95788152D01*
X134190478Y-95788152D02*
X134190478Y-96454819D01*
X134190478Y-95883390D02*
X134238097Y-95835771D01*
X134238097Y-95835771D02*
X134333335Y-95788152D01*
X134333335Y-95788152D02*
X134476192Y-95788152D01*
X134476192Y-95788152D02*
X134571430Y-95835771D01*
X134571430Y-95835771D02*
X134619049Y-95931009D01*
X134619049Y-95931009D02*
X134619049Y-96454819D01*
X136333335Y-95454819D02*
X135857145Y-95454819D01*
X135857145Y-95454819D02*
X135809526Y-95931009D01*
X135809526Y-95931009D02*
X135857145Y-95883390D01*
X135857145Y-95883390D02*
X135952383Y-95835771D01*
X135952383Y-95835771D02*
X136190478Y-95835771D01*
X136190478Y-95835771D02*
X136285716Y-95883390D01*
X136285716Y-95883390D02*
X136333335Y-95931009D01*
X136333335Y-95931009D02*
X136380954Y-96026247D01*
X136380954Y-96026247D02*
X136380954Y-96264342D01*
X136380954Y-96264342D02*
X136333335Y-96359580D01*
X136333335Y-96359580D02*
X136285716Y-96407200D01*
X136285716Y-96407200D02*
X136190478Y-96454819D01*
X136190478Y-96454819D02*
X135952383Y-96454819D01*
X135952383Y-96454819D02*
X135857145Y-96407200D01*
X135857145Y-96407200D02*
X135809526Y-96359580D01*
X136666669Y-95454819D02*
X137000002Y-96454819D01*
X137000002Y-96454819D02*
X137333335Y-95454819D01*
D10*
X128496113Y-97627581D02*
X128496113Y-98627581D01*
X128019923Y-97627581D02*
X128019923Y-98627581D01*
X128019923Y-98627581D02*
X127448495Y-97627581D01*
X127448495Y-97627581D02*
X127448495Y-98627581D01*
X126972304Y-98008534D02*
X126210400Y-98008534D01*
X126591352Y-97627581D02*
X126591352Y-98389486D01*
X137296116Y-97627580D02*
X137296116Y-98627580D01*
X136819926Y-97627580D02*
X136819926Y-98627580D01*
X136819926Y-98627580D02*
X136248498Y-97627580D01*
X136248498Y-97627580D02*
X136248498Y-98627580D01*
X135772307Y-98008533D02*
X135010403Y-98008533D01*
X115138095Y-99757419D02*
X115138095Y-100566942D01*
X115138095Y-100566942D02*
X115185714Y-100662180D01*
X115185714Y-100662180D02*
X115233333Y-100709800D01*
X115233333Y-100709800D02*
X115328571Y-100757419D01*
X115328571Y-100757419D02*
X115519047Y-100757419D01*
X115519047Y-100757419D02*
X115614285Y-100709800D01*
X115614285Y-100709800D02*
X115661904Y-100662180D01*
X115661904Y-100662180D02*
X115709523Y-100566942D01*
X115709523Y-100566942D02*
X115709523Y-99757419D01*
X116090476Y-99757419D02*
X116709523Y-99757419D01*
X116709523Y-99757419D02*
X116376190Y-100138371D01*
X116376190Y-100138371D02*
X116519047Y-100138371D01*
X116519047Y-100138371D02*
X116614285Y-100185990D01*
X116614285Y-100185990D02*
X116661904Y-100233609D01*
X116661904Y-100233609D02*
X116709523Y-100328847D01*
X116709523Y-100328847D02*
X116709523Y-100566942D01*
X116709523Y-100566942D02*
X116661904Y-100662180D01*
X116661904Y-100662180D02*
X116614285Y-100709800D01*
X116614285Y-100709800D02*
X116519047Y-100757419D01*
X116519047Y-100757419D02*
X116233333Y-100757419D01*
X116233333Y-100757419D02*
X116138095Y-100709800D01*
X116138095Y-100709800D02*
X116090476Y-100662180D01*
D13*
X109285714Y-89407200D02*
X109428571Y-89454819D01*
X109428571Y-89454819D02*
X109666666Y-89454819D01*
X109666666Y-89454819D02*
X109761904Y-89407200D01*
X109761904Y-89407200D02*
X109809523Y-89359580D01*
X109809523Y-89359580D02*
X109857142Y-89264342D01*
X109857142Y-89264342D02*
X109857142Y-89169104D01*
X109857142Y-89169104D02*
X109809523Y-89073866D01*
X109809523Y-89073866D02*
X109761904Y-89026247D01*
X109761904Y-89026247D02*
X109666666Y-88978628D01*
X109666666Y-88978628D02*
X109476190Y-88931009D01*
X109476190Y-88931009D02*
X109380952Y-88883390D01*
X109380952Y-88883390D02*
X109333333Y-88835771D01*
X109333333Y-88835771D02*
X109285714Y-88740533D01*
X109285714Y-88740533D02*
X109285714Y-88645295D01*
X109285714Y-88645295D02*
X109333333Y-88550057D01*
X109333333Y-88550057D02*
X109380952Y-88502438D01*
X109380952Y-88502438D02*
X109476190Y-88454819D01*
X109476190Y-88454819D02*
X109714285Y-88454819D01*
X109714285Y-88454819D02*
X109857142Y-88502438D01*
X110142857Y-88788152D02*
X110523809Y-88788152D01*
X110285714Y-88454819D02*
X110285714Y-89311961D01*
X110285714Y-89311961D02*
X110333333Y-89407200D01*
X110333333Y-89407200D02*
X110428571Y-89454819D01*
X110428571Y-89454819D02*
X110523809Y-89454819D01*
X111238095Y-89407200D02*
X111142857Y-89454819D01*
X111142857Y-89454819D02*
X110952381Y-89454819D01*
X110952381Y-89454819D02*
X110857143Y-89407200D01*
X110857143Y-89407200D02*
X110809524Y-89311961D01*
X110809524Y-89311961D02*
X110809524Y-88931009D01*
X110809524Y-88931009D02*
X110857143Y-88835771D01*
X110857143Y-88835771D02*
X110952381Y-88788152D01*
X110952381Y-88788152D02*
X111142857Y-88788152D01*
X111142857Y-88788152D02*
X111238095Y-88835771D01*
X111238095Y-88835771D02*
X111285714Y-88931009D01*
X111285714Y-88931009D02*
X111285714Y-89026247D01*
X111285714Y-89026247D02*
X110809524Y-89121485D01*
X111714286Y-88788152D02*
X111714286Y-89788152D01*
X111714286Y-88835771D02*
X111809524Y-88788152D01*
X111809524Y-88788152D02*
X112000000Y-88788152D01*
X112000000Y-88788152D02*
X112095238Y-88835771D01*
X112095238Y-88835771D02*
X112142857Y-88883390D01*
X112142857Y-88883390D02*
X112190476Y-88978628D01*
X112190476Y-88978628D02*
X112190476Y-89264342D01*
X112190476Y-89264342D02*
X112142857Y-89359580D01*
X112142857Y-89359580D02*
X112095238Y-89407200D01*
X112095238Y-89407200D02*
X112000000Y-89454819D01*
X112000000Y-89454819D02*
X111809524Y-89454819D01*
X111809524Y-89454819D02*
X111714286Y-89407200D01*
X112619048Y-89073866D02*
X113380953Y-89073866D01*
X114285714Y-89454819D02*
X114285714Y-88454819D01*
X114285714Y-89407200D02*
X114190476Y-89454819D01*
X114190476Y-89454819D02*
X114000000Y-89454819D01*
X114000000Y-89454819D02*
X113904762Y-89407200D01*
X113904762Y-89407200D02*
X113857143Y-89359580D01*
X113857143Y-89359580D02*
X113809524Y-89264342D01*
X113809524Y-89264342D02*
X113809524Y-88978628D01*
X113809524Y-88978628D02*
X113857143Y-88883390D01*
X113857143Y-88883390D02*
X113904762Y-88835771D01*
X113904762Y-88835771D02*
X114000000Y-88788152D01*
X114000000Y-88788152D02*
X114190476Y-88788152D01*
X114190476Y-88788152D02*
X114285714Y-88835771D01*
X114904762Y-89454819D02*
X114809524Y-89407200D01*
X114809524Y-89407200D02*
X114761905Y-89359580D01*
X114761905Y-89359580D02*
X114714286Y-89264342D01*
X114714286Y-89264342D02*
X114714286Y-88978628D01*
X114714286Y-88978628D02*
X114761905Y-88883390D01*
X114761905Y-88883390D02*
X114809524Y-88835771D01*
X114809524Y-88835771D02*
X114904762Y-88788152D01*
X114904762Y-88788152D02*
X115047619Y-88788152D01*
X115047619Y-88788152D02*
X115142857Y-88835771D01*
X115142857Y-88835771D02*
X115190476Y-88883390D01*
X115190476Y-88883390D02*
X115238095Y-88978628D01*
X115238095Y-88978628D02*
X115238095Y-89264342D01*
X115238095Y-89264342D02*
X115190476Y-89359580D01*
X115190476Y-89359580D02*
X115142857Y-89407200D01*
X115142857Y-89407200D02*
X115047619Y-89454819D01*
X115047619Y-89454819D02*
X114904762Y-89454819D01*
X115571429Y-88788152D02*
X115761905Y-89454819D01*
X115761905Y-89454819D02*
X115952381Y-88978628D01*
X115952381Y-88978628D02*
X116142857Y-89454819D01*
X116142857Y-89454819D02*
X116333333Y-88788152D01*
X116714286Y-88788152D02*
X116714286Y-89454819D01*
X116714286Y-88883390D02*
X116761905Y-88835771D01*
X116761905Y-88835771D02*
X116857143Y-88788152D01*
X116857143Y-88788152D02*
X117000000Y-88788152D01*
X117000000Y-88788152D02*
X117095238Y-88835771D01*
X117095238Y-88835771D02*
X117142857Y-88931009D01*
X117142857Y-88931009D02*
X117142857Y-89454819D01*
X118904762Y-89454819D02*
X118333334Y-89454819D01*
X118619048Y-89454819D02*
X118619048Y-88454819D01*
X118619048Y-88454819D02*
X118523810Y-88597676D01*
X118523810Y-88597676D02*
X118428572Y-88692914D01*
X118428572Y-88692914D02*
X118333334Y-88740533D01*
X119285715Y-88550057D02*
X119333334Y-88502438D01*
X119333334Y-88502438D02*
X119428572Y-88454819D01*
X119428572Y-88454819D02*
X119666667Y-88454819D01*
X119666667Y-88454819D02*
X119761905Y-88502438D01*
X119761905Y-88502438D02*
X119809524Y-88550057D01*
X119809524Y-88550057D02*
X119857143Y-88645295D01*
X119857143Y-88645295D02*
X119857143Y-88740533D01*
X119857143Y-88740533D02*
X119809524Y-88883390D01*
X119809524Y-88883390D02*
X119238096Y-89454819D01*
X119238096Y-89454819D02*
X119857143Y-89454819D01*
X120142858Y-88454819D02*
X120476191Y-89454819D01*
X120476191Y-89454819D02*
X120809524Y-88454819D01*
D10*
X108403884Y-118072419D02*
X108403884Y-117072419D01*
X108880074Y-118072419D02*
X108880074Y-117072419D01*
X108880074Y-117072419D02*
X109451502Y-118072419D01*
X109451502Y-118072419D02*
X109451502Y-117072419D01*
X109927693Y-117691466D02*
X110689598Y-117691466D01*
X118103884Y-118072419D02*
X118103884Y-117072419D01*
X118580074Y-118072419D02*
X118580074Y-117072419D01*
X118580074Y-117072419D02*
X119151502Y-118072419D01*
X119151502Y-118072419D02*
X119151502Y-117072419D01*
X119627693Y-117691466D02*
X120389598Y-117691466D01*
X120008645Y-118072419D02*
X120008645Y-117310514D01*
X121203884Y-117548609D02*
X121537217Y-117548609D01*
X121680074Y-118072419D02*
X121203884Y-118072419D01*
X121203884Y-118072419D02*
X121203884Y-117072419D01*
X121203884Y-117072419D02*
X121680074Y-117072419D01*
X122108646Y-118072419D02*
X122108646Y-117072419D01*
X122108646Y-117072419D02*
X122680074Y-118072419D01*
X122680074Y-118072419D02*
X122680074Y-117072419D01*
D13*
X208804817Y-120462864D02*
X208328626Y-120796197D01*
X208804817Y-121034292D02*
X207804817Y-121034292D01*
X207804817Y-121034292D02*
X207804817Y-120653340D01*
X207804817Y-120653340D02*
X207852436Y-120558102D01*
X207852436Y-120558102D02*
X207900055Y-120510483D01*
X207900055Y-120510483D02*
X207995293Y-120462864D01*
X207995293Y-120462864D02*
X208138150Y-120462864D01*
X208138150Y-120462864D02*
X208233388Y-120510483D01*
X208233388Y-120510483D02*
X208281007Y-120558102D01*
X208281007Y-120558102D02*
X208328626Y-120653340D01*
X208328626Y-120653340D02*
X208328626Y-121034292D01*
X207900055Y-120081911D02*
X207852436Y-120034292D01*
X207852436Y-120034292D02*
X207804817Y-119939054D01*
X207804817Y-119939054D02*
X207804817Y-119700959D01*
X207804817Y-119700959D02*
X207852436Y-119605721D01*
X207852436Y-119605721D02*
X207900055Y-119558102D01*
X207900055Y-119558102D02*
X207995293Y-119510483D01*
X207995293Y-119510483D02*
X208090531Y-119510483D01*
X208090531Y-119510483D02*
X208233388Y-119558102D01*
X208233388Y-119558102D02*
X208804817Y-120129530D01*
X208804817Y-120129530D02*
X208804817Y-119510483D01*
X207804817Y-119177149D02*
X207804817Y-118558102D01*
X207804817Y-118558102D02*
X208185769Y-118891435D01*
X208185769Y-118891435D02*
X208185769Y-118748578D01*
X208185769Y-118748578D02*
X208233388Y-118653340D01*
X208233388Y-118653340D02*
X208281007Y-118605721D01*
X208281007Y-118605721D02*
X208376245Y-118558102D01*
X208376245Y-118558102D02*
X208614340Y-118558102D01*
X208614340Y-118558102D02*
X208709578Y-118605721D01*
X208709578Y-118605721D02*
X208757198Y-118653340D01*
X208757198Y-118653340D02*
X208804817Y-118748578D01*
X208804817Y-118748578D02*
X208804817Y-119034292D01*
X208804817Y-119034292D02*
X208757198Y-119129530D01*
X208757198Y-119129530D02*
X208709578Y-119177149D01*
D12*
X179094285Y-143753842D02*
X179275714Y-143814318D01*
X179275714Y-143814318D02*
X179578095Y-143814318D01*
X179578095Y-143814318D02*
X179699047Y-143753842D01*
X179699047Y-143753842D02*
X179759523Y-143693365D01*
X179759523Y-143693365D02*
X179820000Y-143572413D01*
X179820000Y-143572413D02*
X179820000Y-143451461D01*
X179820000Y-143451461D02*
X179759523Y-143330508D01*
X179759523Y-143330508D02*
X179699047Y-143270032D01*
X179699047Y-143270032D02*
X179578095Y-143209556D01*
X179578095Y-143209556D02*
X179336190Y-143149080D01*
X179336190Y-143149080D02*
X179215238Y-143088603D01*
X179215238Y-143088603D02*
X179154761Y-143028127D01*
X179154761Y-143028127D02*
X179094285Y-142907175D01*
X179094285Y-142907175D02*
X179094285Y-142786222D01*
X179094285Y-142786222D02*
X179154761Y-142665270D01*
X179154761Y-142665270D02*
X179215238Y-142604794D01*
X179215238Y-142604794D02*
X179336190Y-142544318D01*
X179336190Y-142544318D02*
X179638571Y-142544318D01*
X179638571Y-142544318D02*
X179820000Y-142604794D01*
X180364285Y-143814318D02*
X180364285Y-142544318D01*
X180364285Y-142544318D02*
X180848095Y-142544318D01*
X180848095Y-142544318D02*
X180969047Y-142604794D01*
X180969047Y-142604794D02*
X181029524Y-142665270D01*
X181029524Y-142665270D02*
X181090000Y-142786222D01*
X181090000Y-142786222D02*
X181090000Y-142967651D01*
X181090000Y-142967651D02*
X181029524Y-143088603D01*
X181029524Y-143088603D02*
X180969047Y-143149080D01*
X180969047Y-143149080D02*
X180848095Y-143209556D01*
X180848095Y-143209556D02*
X180364285Y-143209556D01*
X181634285Y-143814318D02*
X181634285Y-142544318D01*
X181634285Y-142544318D02*
X181936666Y-142544318D01*
X181936666Y-142544318D02*
X182118095Y-142604794D01*
X182118095Y-142604794D02*
X182239047Y-142725746D01*
X182239047Y-142725746D02*
X182299524Y-142846699D01*
X182299524Y-142846699D02*
X182360000Y-143088603D01*
X182360000Y-143088603D02*
X182360000Y-143270032D01*
X182360000Y-143270032D02*
X182299524Y-143511937D01*
X182299524Y-143511937D02*
X182239047Y-143632889D01*
X182239047Y-143632889D02*
X182118095Y-143753842D01*
X182118095Y-143753842D02*
X181936666Y-143814318D01*
X181936666Y-143814318D02*
X181634285Y-143814318D01*
X183811428Y-142483842D02*
X182722857Y-144116699D01*
X184053333Y-142544318D02*
X184779047Y-142544318D01*
X184416190Y-143814318D02*
X184416190Y-142544318D01*
X185444285Y-142544318D02*
X185686190Y-142544318D01*
X185686190Y-142544318D02*
X185807142Y-142604794D01*
X185807142Y-142604794D02*
X185928095Y-142725746D01*
X185928095Y-142725746D02*
X185988571Y-142967651D01*
X185988571Y-142967651D02*
X185988571Y-143390984D01*
X185988571Y-143390984D02*
X185928095Y-143632889D01*
X185928095Y-143632889D02*
X185807142Y-143753842D01*
X185807142Y-143753842D02*
X185686190Y-143814318D01*
X185686190Y-143814318D02*
X185444285Y-143814318D01*
X185444285Y-143814318D02*
X185323333Y-143753842D01*
X185323333Y-143753842D02*
X185202380Y-143632889D01*
X185202380Y-143632889D02*
X185141904Y-143390984D01*
X185141904Y-143390984D02*
X185141904Y-142967651D01*
X185141904Y-142967651D02*
X185202380Y-142725746D01*
X185202380Y-142725746D02*
X185323333Y-142604794D01*
X185323333Y-142604794D02*
X185444285Y-142544318D01*
X186351428Y-142544318D02*
X187077142Y-142544318D01*
X186714285Y-143814318D02*
X186714285Y-142544318D01*
X188165714Y-143814318D02*
X187439999Y-143814318D01*
X187802856Y-143814318D02*
X187802856Y-142544318D01*
X187802856Y-142544318D02*
X187681904Y-142725746D01*
X187681904Y-142725746D02*
X187560952Y-142846699D01*
X187560952Y-142846699D02*
X187439999Y-142907175D01*
D13*
X189789578Y-121486672D02*
X189837198Y-121534291D01*
X189837198Y-121534291D02*
X189884817Y-121677148D01*
X189884817Y-121677148D02*
X189884817Y-121772386D01*
X189884817Y-121772386D02*
X189837198Y-121915243D01*
X189837198Y-121915243D02*
X189741959Y-122010481D01*
X189741959Y-122010481D02*
X189646721Y-122058100D01*
X189646721Y-122058100D02*
X189456245Y-122105719D01*
X189456245Y-122105719D02*
X189313388Y-122105719D01*
X189313388Y-122105719D02*
X189122912Y-122058100D01*
X189122912Y-122058100D02*
X189027674Y-122010481D01*
X189027674Y-122010481D02*
X188932436Y-121915243D01*
X188932436Y-121915243D02*
X188884817Y-121772386D01*
X188884817Y-121772386D02*
X188884817Y-121677148D01*
X188884817Y-121677148D02*
X188932436Y-121534291D01*
X188932436Y-121534291D02*
X188980055Y-121486672D01*
X189884817Y-120534291D02*
X189884817Y-121105719D01*
X189884817Y-120820005D02*
X188884817Y-120820005D01*
X188884817Y-120820005D02*
X189027674Y-120915243D01*
X189027674Y-120915243D02*
X189122912Y-121010481D01*
X189122912Y-121010481D02*
X189170531Y-121105719D01*
X211604821Y-91462858D02*
X211128630Y-91796191D01*
X211604821Y-92034286D02*
X210604821Y-92034286D01*
X210604821Y-92034286D02*
X210604821Y-91653334D01*
X210604821Y-91653334D02*
X210652440Y-91558096D01*
X210652440Y-91558096D02*
X210700059Y-91510477D01*
X210700059Y-91510477D02*
X210795297Y-91462858D01*
X210795297Y-91462858D02*
X210938154Y-91462858D01*
X210938154Y-91462858D02*
X211033392Y-91510477D01*
X211033392Y-91510477D02*
X211081011Y-91558096D01*
X211081011Y-91558096D02*
X211128630Y-91653334D01*
X211128630Y-91653334D02*
X211128630Y-92034286D01*
X210700059Y-91081905D02*
X210652440Y-91034286D01*
X210652440Y-91034286D02*
X210604821Y-90939048D01*
X210604821Y-90939048D02*
X210604821Y-90700953D01*
X210604821Y-90700953D02*
X210652440Y-90605715D01*
X210652440Y-90605715D02*
X210700059Y-90558096D01*
X210700059Y-90558096D02*
X210795297Y-90510477D01*
X210795297Y-90510477D02*
X210890535Y-90510477D01*
X210890535Y-90510477D02*
X211033392Y-90558096D01*
X211033392Y-90558096D02*
X211604821Y-91129524D01*
X211604821Y-91129524D02*
X211604821Y-90510477D01*
X210938154Y-89653334D02*
X211604821Y-89653334D01*
X210557202Y-89891429D02*
X211271487Y-90129524D01*
X211271487Y-90129524D02*
X211271487Y-89510477D01*
X195333328Y-124124818D02*
X194999995Y-123648627D01*
X194761900Y-124124818D02*
X194761900Y-123124818D01*
X194761900Y-123124818D02*
X195142852Y-123124818D01*
X195142852Y-123124818D02*
X195238090Y-123172437D01*
X195238090Y-123172437D02*
X195285709Y-123220056D01*
X195285709Y-123220056D02*
X195333328Y-123315294D01*
X195333328Y-123315294D02*
X195333328Y-123458151D01*
X195333328Y-123458151D02*
X195285709Y-123553389D01*
X195285709Y-123553389D02*
X195238090Y-123601008D01*
X195238090Y-123601008D02*
X195142852Y-123648627D01*
X195142852Y-123648627D02*
X194761900Y-123648627D01*
X196190471Y-123458151D02*
X196190471Y-124124818D01*
X195952376Y-123077199D02*
X195714281Y-123791484D01*
X195714281Y-123791484D02*
X196333328Y-123791484D01*
X182089645Y-127347320D02*
X181756312Y-126871129D01*
X181518217Y-127347320D02*
X181518217Y-126347320D01*
X181518217Y-126347320D02*
X181899169Y-126347320D01*
X181899169Y-126347320D02*
X181994407Y-126394939D01*
X181994407Y-126394939D02*
X182042026Y-126442558D01*
X182042026Y-126442558D02*
X182089645Y-126537796D01*
X182089645Y-126537796D02*
X182089645Y-126680653D01*
X182089645Y-126680653D02*
X182042026Y-126775891D01*
X182042026Y-126775891D02*
X181994407Y-126823510D01*
X181994407Y-126823510D02*
X181899169Y-126871129D01*
X181899169Y-126871129D02*
X181518217Y-126871129D01*
X183042026Y-127347320D02*
X182470598Y-127347320D01*
X182756312Y-127347320D02*
X182756312Y-126347320D01*
X182756312Y-126347320D02*
X182661074Y-126490177D01*
X182661074Y-126490177D02*
X182565836Y-126585415D01*
X182565836Y-126585415D02*
X182470598Y-126633034D01*
X183375360Y-126347320D02*
X184042026Y-126347320D01*
X184042026Y-126347320D02*
X183613455Y-127347320D01*
D12*
X129639048Y-143759318D02*
X128913333Y-143759318D01*
X129276190Y-143759318D02*
X129276190Y-142489318D01*
X129276190Y-142489318D02*
X129155238Y-142670746D01*
X129155238Y-142670746D02*
X129034286Y-142791699D01*
X129034286Y-142791699D02*
X128913333Y-142852175D01*
X130122857Y-142610270D02*
X130183333Y-142549794D01*
X130183333Y-142549794D02*
X130304286Y-142489318D01*
X130304286Y-142489318D02*
X130606667Y-142489318D01*
X130606667Y-142489318D02*
X130727619Y-142549794D01*
X130727619Y-142549794D02*
X130788095Y-142610270D01*
X130788095Y-142610270D02*
X130848572Y-142731222D01*
X130848572Y-142731222D02*
X130848572Y-142852175D01*
X130848572Y-142852175D02*
X130788095Y-143033603D01*
X130788095Y-143033603D02*
X130062381Y-143759318D01*
X130062381Y-143759318D02*
X130848572Y-143759318D01*
X131211429Y-142489318D02*
X131634762Y-143759318D01*
X131634762Y-143759318D02*
X132058096Y-142489318D01*
X133146667Y-143759318D02*
X132420952Y-143759318D01*
X132783809Y-143759318D02*
X132783809Y-142489318D01*
X132783809Y-142489318D02*
X132662857Y-142670746D01*
X132662857Y-142670746D02*
X132541905Y-142791699D01*
X132541905Y-142791699D02*
X132420952Y-142852175D01*
D13*
X162604821Y-130142854D02*
X162128630Y-130476187D01*
X162604821Y-130714282D02*
X161604821Y-130714282D01*
X161604821Y-130714282D02*
X161604821Y-130333330D01*
X161604821Y-130333330D02*
X161652440Y-130238092D01*
X161652440Y-130238092D02*
X161700059Y-130190473D01*
X161700059Y-130190473D02*
X161795297Y-130142854D01*
X161795297Y-130142854D02*
X161938154Y-130142854D01*
X161938154Y-130142854D02*
X162033392Y-130190473D01*
X162033392Y-130190473D02*
X162081011Y-130238092D01*
X162081011Y-130238092D02*
X162128630Y-130333330D01*
X162128630Y-130333330D02*
X162128630Y-130714282D01*
X161700059Y-129761901D02*
X161652440Y-129714282D01*
X161652440Y-129714282D02*
X161604821Y-129619044D01*
X161604821Y-129619044D02*
X161604821Y-129380949D01*
X161604821Y-129380949D02*
X161652440Y-129285711D01*
X161652440Y-129285711D02*
X161700059Y-129238092D01*
X161700059Y-129238092D02*
X161795297Y-129190473D01*
X161795297Y-129190473D02*
X161890535Y-129190473D01*
X161890535Y-129190473D02*
X162033392Y-129238092D01*
X162033392Y-129238092D02*
X162604821Y-129809520D01*
X162604821Y-129809520D02*
X162604821Y-129190473D01*
X161604821Y-128571425D02*
X161604821Y-128476187D01*
X161604821Y-128476187D02*
X161652440Y-128380949D01*
X161652440Y-128380949D02*
X161700059Y-128333330D01*
X161700059Y-128333330D02*
X161795297Y-128285711D01*
X161795297Y-128285711D02*
X161985773Y-128238092D01*
X161985773Y-128238092D02*
X162223868Y-128238092D01*
X162223868Y-128238092D02*
X162414344Y-128285711D01*
X162414344Y-128285711D02*
X162509582Y-128333330D01*
X162509582Y-128333330D02*
X162557202Y-128380949D01*
X162557202Y-128380949D02*
X162604821Y-128476187D01*
X162604821Y-128476187D02*
X162604821Y-128571425D01*
X162604821Y-128571425D02*
X162557202Y-128666663D01*
X162557202Y-128666663D02*
X162509582Y-128714282D01*
X162509582Y-128714282D02*
X162414344Y-128761901D01*
X162414344Y-128761901D02*
X162223868Y-128809520D01*
X162223868Y-128809520D02*
X161985773Y-128809520D01*
X161985773Y-128809520D02*
X161795297Y-128761901D01*
X161795297Y-128761901D02*
X161700059Y-128714282D01*
X161700059Y-128714282D02*
X161652440Y-128666663D01*
X161652440Y-128666663D02*
X161604821Y-128571425D01*
D12*
X150678095Y-143623365D02*
X150617619Y-143683842D01*
X150617619Y-143683842D02*
X150436190Y-143744318D01*
X150436190Y-143744318D02*
X150315238Y-143744318D01*
X150315238Y-143744318D02*
X150133809Y-143683842D01*
X150133809Y-143683842D02*
X150012857Y-143562889D01*
X150012857Y-143562889D02*
X149952380Y-143441937D01*
X149952380Y-143441937D02*
X149891904Y-143200032D01*
X149891904Y-143200032D02*
X149891904Y-143018603D01*
X149891904Y-143018603D02*
X149952380Y-142776699D01*
X149952380Y-142776699D02*
X150012857Y-142655746D01*
X150012857Y-142655746D02*
X150133809Y-142534794D01*
X150133809Y-142534794D02*
X150315238Y-142474318D01*
X150315238Y-142474318D02*
X150436190Y-142474318D01*
X150436190Y-142474318D02*
X150617619Y-142534794D01*
X150617619Y-142534794D02*
X150678095Y-142595270D01*
X151222380Y-142474318D02*
X151222380Y-143502413D01*
X151222380Y-143502413D02*
X151282857Y-143623365D01*
X151282857Y-143623365D02*
X151343333Y-143683842D01*
X151343333Y-143683842D02*
X151464285Y-143744318D01*
X151464285Y-143744318D02*
X151706190Y-143744318D01*
X151706190Y-143744318D02*
X151827142Y-143683842D01*
X151827142Y-143683842D02*
X151887619Y-143623365D01*
X151887619Y-143623365D02*
X151948095Y-143502413D01*
X151948095Y-143502413D02*
X151948095Y-142474318D01*
X153278571Y-143744318D02*
X152855237Y-143139556D01*
X152552856Y-143744318D02*
X152552856Y-142474318D01*
X152552856Y-142474318D02*
X153036666Y-142474318D01*
X153036666Y-142474318D02*
X153157618Y-142534794D01*
X153157618Y-142534794D02*
X153218095Y-142595270D01*
X153218095Y-142595270D02*
X153278571Y-142716222D01*
X153278571Y-142716222D02*
X153278571Y-142897651D01*
X153278571Y-142897651D02*
X153218095Y-143018603D01*
X153218095Y-143018603D02*
X153157618Y-143079080D01*
X153157618Y-143079080D02*
X153036666Y-143139556D01*
X153036666Y-143139556D02*
X152552856Y-143139556D01*
X154488095Y-143744318D02*
X153762380Y-143744318D01*
X154125237Y-143744318D02*
X154125237Y-142474318D01*
X154125237Y-142474318D02*
X154004285Y-142655746D01*
X154004285Y-142655746D02*
X153883333Y-142776699D01*
X153883333Y-142776699D02*
X153762380Y-142837175D01*
D13*
X119857142Y-130304819D02*
X119523809Y-129828628D01*
X119285714Y-130304819D02*
X119285714Y-129304819D01*
X119285714Y-129304819D02*
X119666666Y-129304819D01*
X119666666Y-129304819D02*
X119761904Y-129352438D01*
X119761904Y-129352438D02*
X119809523Y-129400057D01*
X119809523Y-129400057D02*
X119857142Y-129495295D01*
X119857142Y-129495295D02*
X119857142Y-129638152D01*
X119857142Y-129638152D02*
X119809523Y-129733390D01*
X119809523Y-129733390D02*
X119761904Y-129781009D01*
X119761904Y-129781009D02*
X119666666Y-129828628D01*
X119666666Y-129828628D02*
X119285714Y-129828628D01*
X120809523Y-130304819D02*
X120238095Y-130304819D01*
X120523809Y-130304819D02*
X120523809Y-129304819D01*
X120523809Y-129304819D02*
X120428571Y-129447676D01*
X120428571Y-129447676D02*
X120333333Y-129542914D01*
X120333333Y-129542914D02*
X120238095Y-129590533D01*
X121714285Y-129304819D02*
X121238095Y-129304819D01*
X121238095Y-129304819D02*
X121190476Y-129781009D01*
X121190476Y-129781009D02*
X121238095Y-129733390D01*
X121238095Y-129733390D02*
X121333333Y-129685771D01*
X121333333Y-129685771D02*
X121571428Y-129685771D01*
X121571428Y-129685771D02*
X121666666Y-129733390D01*
X121666666Y-129733390D02*
X121714285Y-129781009D01*
X121714285Y-129781009D02*
X121761904Y-129876247D01*
X121761904Y-129876247D02*
X121761904Y-130114342D01*
X121761904Y-130114342D02*
X121714285Y-130209580D01*
X121714285Y-130209580D02*
X121666666Y-130257200D01*
X121666666Y-130257200D02*
X121571428Y-130304819D01*
X121571428Y-130304819D02*
X121333333Y-130304819D01*
X121333333Y-130304819D02*
X121238095Y-130257200D01*
X121238095Y-130257200D02*
X121190476Y-130209580D01*
X217804817Y-91642860D02*
X217328626Y-91976193D01*
X217804817Y-92214288D02*
X216804817Y-92214288D01*
X216804817Y-92214288D02*
X216804817Y-91833336D01*
X216804817Y-91833336D02*
X216852436Y-91738098D01*
X216852436Y-91738098D02*
X216900055Y-91690479D01*
X216900055Y-91690479D02*
X216995293Y-91642860D01*
X216995293Y-91642860D02*
X217138150Y-91642860D01*
X217138150Y-91642860D02*
X217233388Y-91690479D01*
X217233388Y-91690479D02*
X217281007Y-91738098D01*
X217281007Y-91738098D02*
X217328626Y-91833336D01*
X217328626Y-91833336D02*
X217328626Y-92214288D01*
X216900055Y-91261907D02*
X216852436Y-91214288D01*
X216852436Y-91214288D02*
X216804817Y-91119050D01*
X216804817Y-91119050D02*
X216804817Y-90880955D01*
X216804817Y-90880955D02*
X216852436Y-90785717D01*
X216852436Y-90785717D02*
X216900055Y-90738098D01*
X216900055Y-90738098D02*
X216995293Y-90690479D01*
X216995293Y-90690479D02*
X217090531Y-90690479D01*
X217090531Y-90690479D02*
X217233388Y-90738098D01*
X217233388Y-90738098D02*
X217804817Y-91309526D01*
X217804817Y-91309526D02*
X217804817Y-90690479D01*
X216900055Y-90309526D02*
X216852436Y-90261907D01*
X216852436Y-90261907D02*
X216804817Y-90166669D01*
X216804817Y-90166669D02*
X216804817Y-89928574D01*
X216804817Y-89928574D02*
X216852436Y-89833336D01*
X216852436Y-89833336D02*
X216900055Y-89785717D01*
X216900055Y-89785717D02*
X216995293Y-89738098D01*
X216995293Y-89738098D02*
X217090531Y-89738098D01*
X217090531Y-89738098D02*
X217233388Y-89785717D01*
X217233388Y-89785717D02*
X217804817Y-90357145D01*
X217804817Y-90357145D02*
X217804817Y-89738098D01*
D12*
X192294762Y-142479318D02*
X193020476Y-142479318D01*
X192657619Y-143749318D02*
X192657619Y-142479318D01*
X193443809Y-143749318D02*
X193443809Y-142479318D01*
X194048571Y-143749318D02*
X194048571Y-142479318D01*
X194048571Y-142479318D02*
X194774286Y-143749318D01*
X194774286Y-143749318D02*
X194774286Y-142479318D01*
X196044286Y-143749318D02*
X195318571Y-143749318D01*
X195681428Y-143749318D02*
X195681428Y-142479318D01*
X195681428Y-142479318D02*
X195560476Y-142660746D01*
X195560476Y-142660746D02*
X195439524Y-142781699D01*
X195439524Y-142781699D02*
X195318571Y-142842175D01*
D13*
X196554823Y-121486666D02*
X196078632Y-121819999D01*
X196554823Y-122058094D02*
X195554823Y-122058094D01*
X195554823Y-122058094D02*
X195554823Y-121677142D01*
X195554823Y-121677142D02*
X195602442Y-121581904D01*
X195602442Y-121581904D02*
X195650061Y-121534285D01*
X195650061Y-121534285D02*
X195745299Y-121486666D01*
X195745299Y-121486666D02*
X195888156Y-121486666D01*
X195888156Y-121486666D02*
X195983394Y-121534285D01*
X195983394Y-121534285D02*
X196031013Y-121581904D01*
X196031013Y-121581904D02*
X196078632Y-121677142D01*
X196078632Y-121677142D02*
X196078632Y-122058094D01*
X195554823Y-121153332D02*
X195554823Y-120534285D01*
X195554823Y-120534285D02*
X195935775Y-120867618D01*
X195935775Y-120867618D02*
X195935775Y-120724761D01*
X195935775Y-120724761D02*
X195983394Y-120629523D01*
X195983394Y-120629523D02*
X196031013Y-120581904D01*
X196031013Y-120581904D02*
X196126251Y-120534285D01*
X196126251Y-120534285D02*
X196364346Y-120534285D01*
X196364346Y-120534285D02*
X196459584Y-120581904D01*
X196459584Y-120581904D02*
X196507204Y-120629523D01*
X196507204Y-120629523D02*
X196554823Y-120724761D01*
X196554823Y-120724761D02*
X196554823Y-121010475D01*
X196554823Y-121010475D02*
X196507204Y-121105713D01*
X196507204Y-121105713D02*
X196459584Y-121153332D01*
X159104821Y-130142854D02*
X158628630Y-130476187D01*
X159104821Y-130714282D02*
X158104821Y-130714282D01*
X158104821Y-130714282D02*
X158104821Y-130333330D01*
X158104821Y-130333330D02*
X158152440Y-130238092D01*
X158152440Y-130238092D02*
X158200059Y-130190473D01*
X158200059Y-130190473D02*
X158295297Y-130142854D01*
X158295297Y-130142854D02*
X158438154Y-130142854D01*
X158438154Y-130142854D02*
X158533392Y-130190473D01*
X158533392Y-130190473D02*
X158581011Y-130238092D01*
X158581011Y-130238092D02*
X158628630Y-130333330D01*
X158628630Y-130333330D02*
X158628630Y-130714282D01*
X159104821Y-129190473D02*
X159104821Y-129761901D01*
X159104821Y-129476187D02*
X158104821Y-129476187D01*
X158104821Y-129476187D02*
X158247678Y-129571425D01*
X158247678Y-129571425D02*
X158342916Y-129666663D01*
X158342916Y-129666663D02*
X158390535Y-129761901D01*
X159104821Y-128714282D02*
X159104821Y-128523806D01*
X159104821Y-128523806D02*
X159057202Y-128428568D01*
X159057202Y-128428568D02*
X159009582Y-128380949D01*
X159009582Y-128380949D02*
X158866725Y-128285711D01*
X158866725Y-128285711D02*
X158676249Y-128238092D01*
X158676249Y-128238092D02*
X158295297Y-128238092D01*
X158295297Y-128238092D02*
X158200059Y-128285711D01*
X158200059Y-128285711D02*
X158152440Y-128333330D01*
X158152440Y-128333330D02*
X158104821Y-128428568D01*
X158104821Y-128428568D02*
X158104821Y-128619044D01*
X158104821Y-128619044D02*
X158152440Y-128714282D01*
X158152440Y-128714282D02*
X158200059Y-128761901D01*
X158200059Y-128761901D02*
X158295297Y-128809520D01*
X158295297Y-128809520D02*
X158533392Y-128809520D01*
X158533392Y-128809520D02*
X158628630Y-128761901D01*
X158628630Y-128761901D02*
X158676249Y-128714282D01*
X158676249Y-128714282D02*
X158723868Y-128619044D01*
X158723868Y-128619044D02*
X158723868Y-128428568D01*
X158723868Y-128428568D02*
X158676249Y-128333330D01*
X158676249Y-128333330D02*
X158628630Y-128285711D01*
X158628630Y-128285711D02*
X158533392Y-128238092D01*
X224304819Y-90986669D02*
X223828628Y-91320002D01*
X224304819Y-91558097D02*
X223304819Y-91558097D01*
X223304819Y-91558097D02*
X223304819Y-91177145D01*
X223304819Y-91177145D02*
X223352438Y-91081907D01*
X223352438Y-91081907D02*
X223400057Y-91034288D01*
X223400057Y-91034288D02*
X223495295Y-90986669D01*
X223495295Y-90986669D02*
X223638152Y-90986669D01*
X223638152Y-90986669D02*
X223733390Y-91034288D01*
X223733390Y-91034288D02*
X223781009Y-91081907D01*
X223781009Y-91081907D02*
X223828628Y-91177145D01*
X223828628Y-91177145D02*
X223828628Y-91558097D01*
X223304819Y-90129526D02*
X223304819Y-90320002D01*
X223304819Y-90320002D02*
X223352438Y-90415240D01*
X223352438Y-90415240D02*
X223400057Y-90462859D01*
X223400057Y-90462859D02*
X223542914Y-90558097D01*
X223542914Y-90558097D02*
X223733390Y-90605716D01*
X223733390Y-90605716D02*
X224114342Y-90605716D01*
X224114342Y-90605716D02*
X224209580Y-90558097D01*
X224209580Y-90558097D02*
X224257200Y-90510478D01*
X224257200Y-90510478D02*
X224304819Y-90415240D01*
X224304819Y-90415240D02*
X224304819Y-90224764D01*
X224304819Y-90224764D02*
X224257200Y-90129526D01*
X224257200Y-90129526D02*
X224209580Y-90081907D01*
X224209580Y-90081907D02*
X224114342Y-90034288D01*
X224114342Y-90034288D02*
X223876247Y-90034288D01*
X223876247Y-90034288D02*
X223781009Y-90081907D01*
X223781009Y-90081907D02*
X223733390Y-90129526D01*
X223733390Y-90129526D02*
X223685771Y-90224764D01*
X223685771Y-90224764D02*
X223685771Y-90415240D01*
X223685771Y-90415240D02*
X223733390Y-90510478D01*
X223733390Y-90510478D02*
X223781009Y-90558097D01*
X223781009Y-90558097D02*
X223876247Y-90605716D01*
X172709167Y-119729700D02*
X172852024Y-119777319D01*
X172852024Y-119777319D02*
X173090119Y-119777319D01*
X173090119Y-119777319D02*
X173185357Y-119729700D01*
X173185357Y-119729700D02*
X173232976Y-119682080D01*
X173232976Y-119682080D02*
X173280595Y-119586842D01*
X173280595Y-119586842D02*
X173280595Y-119491604D01*
X173280595Y-119491604D02*
X173232976Y-119396366D01*
X173232976Y-119396366D02*
X173185357Y-119348747D01*
X173185357Y-119348747D02*
X173090119Y-119301128D01*
X173090119Y-119301128D02*
X172899643Y-119253509D01*
X172899643Y-119253509D02*
X172804405Y-119205890D01*
X172804405Y-119205890D02*
X172756786Y-119158271D01*
X172756786Y-119158271D02*
X172709167Y-119063033D01*
X172709167Y-119063033D02*
X172709167Y-118967795D01*
X172709167Y-118967795D02*
X172756786Y-118872557D01*
X172756786Y-118872557D02*
X172804405Y-118824938D01*
X172804405Y-118824938D02*
X172899643Y-118777319D01*
X172899643Y-118777319D02*
X173137738Y-118777319D01*
X173137738Y-118777319D02*
X173280595Y-118824938D01*
X173613929Y-118777319D02*
X173852024Y-119777319D01*
X173852024Y-119777319D02*
X174042500Y-119063033D01*
X174042500Y-119063033D02*
X174232976Y-119777319D01*
X174232976Y-119777319D02*
X174471072Y-118777319D01*
X174804405Y-118872557D02*
X174852024Y-118824938D01*
X174852024Y-118824938D02*
X174947262Y-118777319D01*
X174947262Y-118777319D02*
X175185357Y-118777319D01*
X175185357Y-118777319D02*
X175280595Y-118824938D01*
X175280595Y-118824938D02*
X175328214Y-118872557D01*
X175328214Y-118872557D02*
X175375833Y-118967795D01*
X175375833Y-118967795D02*
X175375833Y-119063033D01*
X175375833Y-119063033D02*
X175328214Y-119205890D01*
X175328214Y-119205890D02*
X174756786Y-119777319D01*
X174756786Y-119777319D02*
X175375833Y-119777319D01*
X217954819Y-130642857D02*
X217478628Y-130976190D01*
X217954819Y-131214285D02*
X216954819Y-131214285D01*
X216954819Y-131214285D02*
X216954819Y-130833333D01*
X216954819Y-130833333D02*
X217002438Y-130738095D01*
X217002438Y-130738095D02*
X217050057Y-130690476D01*
X217050057Y-130690476D02*
X217145295Y-130642857D01*
X217145295Y-130642857D02*
X217288152Y-130642857D01*
X217288152Y-130642857D02*
X217383390Y-130690476D01*
X217383390Y-130690476D02*
X217431009Y-130738095D01*
X217431009Y-130738095D02*
X217478628Y-130833333D01*
X217478628Y-130833333D02*
X217478628Y-131214285D01*
X217954819Y-129690476D02*
X217954819Y-130261904D01*
X217954819Y-129976190D02*
X216954819Y-129976190D01*
X216954819Y-129976190D02*
X217097676Y-130071428D01*
X217097676Y-130071428D02*
X217192914Y-130166666D01*
X217192914Y-130166666D02*
X217240533Y-130261904D01*
X216954819Y-129071428D02*
X216954819Y-128976190D01*
X216954819Y-128976190D02*
X217002438Y-128880952D01*
X217002438Y-128880952D02*
X217050057Y-128833333D01*
X217050057Y-128833333D02*
X217145295Y-128785714D01*
X217145295Y-128785714D02*
X217335771Y-128738095D01*
X217335771Y-128738095D02*
X217573866Y-128738095D01*
X217573866Y-128738095D02*
X217764342Y-128785714D01*
X217764342Y-128785714D02*
X217859580Y-128833333D01*
X217859580Y-128833333D02*
X217907200Y-128880952D01*
X217907200Y-128880952D02*
X217954819Y-128976190D01*
X217954819Y-128976190D02*
X217954819Y-129071428D01*
X217954819Y-129071428D02*
X217907200Y-129166666D01*
X217907200Y-129166666D02*
X217859580Y-129214285D01*
X217859580Y-129214285D02*
X217764342Y-129261904D01*
X217764342Y-129261904D02*
X217573866Y-129309523D01*
X217573866Y-129309523D02*
X217335771Y-129309523D01*
X217335771Y-129309523D02*
X217145295Y-129261904D01*
X217145295Y-129261904D02*
X217050057Y-129214285D01*
X217050057Y-129214285D02*
X217002438Y-129166666D01*
X217002438Y-129166666D02*
X216954819Y-129071428D01*
X120107142Y-121054819D02*
X119773809Y-120578628D01*
X119535714Y-121054819D02*
X119535714Y-120054819D01*
X119535714Y-120054819D02*
X119916666Y-120054819D01*
X119916666Y-120054819D02*
X120011904Y-120102438D01*
X120011904Y-120102438D02*
X120059523Y-120150057D01*
X120059523Y-120150057D02*
X120107142Y-120245295D01*
X120107142Y-120245295D02*
X120107142Y-120388152D01*
X120107142Y-120388152D02*
X120059523Y-120483390D01*
X120059523Y-120483390D02*
X120011904Y-120531009D01*
X120011904Y-120531009D02*
X119916666Y-120578628D01*
X119916666Y-120578628D02*
X119535714Y-120578628D01*
X121059523Y-121054819D02*
X120488095Y-121054819D01*
X120773809Y-121054819D02*
X120773809Y-120054819D01*
X120773809Y-120054819D02*
X120678571Y-120197676D01*
X120678571Y-120197676D02*
X120583333Y-120292914D01*
X120583333Y-120292914D02*
X120488095Y-120340533D01*
X121392857Y-120054819D02*
X122011904Y-120054819D01*
X122011904Y-120054819D02*
X121678571Y-120435771D01*
X121678571Y-120435771D02*
X121821428Y-120435771D01*
X121821428Y-120435771D02*
X121916666Y-120483390D01*
X121916666Y-120483390D02*
X121964285Y-120531009D01*
X121964285Y-120531009D02*
X122011904Y-120626247D01*
X122011904Y-120626247D02*
X122011904Y-120864342D01*
X122011904Y-120864342D02*
X121964285Y-120959580D01*
X121964285Y-120959580D02*
X121916666Y-121007200D01*
X121916666Y-121007200D02*
X121821428Y-121054819D01*
X121821428Y-121054819D02*
X121535714Y-121054819D01*
X121535714Y-121054819D02*
X121440476Y-121007200D01*
X121440476Y-121007200D02*
X121392857Y-120959580D01*
X193104814Y-121486667D02*
X192628623Y-121820000D01*
X193104814Y-122058095D02*
X192104814Y-122058095D01*
X192104814Y-122058095D02*
X192104814Y-121677143D01*
X192104814Y-121677143D02*
X192152433Y-121581905D01*
X192152433Y-121581905D02*
X192200052Y-121534286D01*
X192200052Y-121534286D02*
X192295290Y-121486667D01*
X192295290Y-121486667D02*
X192438147Y-121486667D01*
X192438147Y-121486667D02*
X192533385Y-121534286D01*
X192533385Y-121534286D02*
X192581004Y-121581905D01*
X192581004Y-121581905D02*
X192628623Y-121677143D01*
X192628623Y-121677143D02*
X192628623Y-122058095D01*
X193104814Y-120534286D02*
X193104814Y-121105714D01*
X193104814Y-120820000D02*
X192104814Y-120820000D01*
X192104814Y-120820000D02*
X192247671Y-120915238D01*
X192247671Y-120915238D02*
X192342909Y-121010476D01*
X192342909Y-121010476D02*
X192390528Y-121105714D01*
X219289577Y-119986667D02*
X219337197Y-120034286D01*
X219337197Y-120034286D02*
X219384816Y-120177143D01*
X219384816Y-120177143D02*
X219384816Y-120272381D01*
X219384816Y-120272381D02*
X219337197Y-120415238D01*
X219337197Y-120415238D02*
X219241958Y-120510476D01*
X219241958Y-120510476D02*
X219146720Y-120558095D01*
X219146720Y-120558095D02*
X218956244Y-120605714D01*
X218956244Y-120605714D02*
X218813387Y-120605714D01*
X218813387Y-120605714D02*
X218622911Y-120558095D01*
X218622911Y-120558095D02*
X218527673Y-120510476D01*
X218527673Y-120510476D02*
X218432435Y-120415238D01*
X218432435Y-120415238D02*
X218384816Y-120272381D01*
X218384816Y-120272381D02*
X218384816Y-120177143D01*
X218384816Y-120177143D02*
X218432435Y-120034286D01*
X218432435Y-120034286D02*
X218480054Y-119986667D01*
X218384816Y-119653333D02*
X218384816Y-119034286D01*
X218384816Y-119034286D02*
X218765768Y-119367619D01*
X218765768Y-119367619D02*
X218765768Y-119224762D01*
X218765768Y-119224762D02*
X218813387Y-119129524D01*
X218813387Y-119129524D02*
X218861006Y-119081905D01*
X218861006Y-119081905D02*
X218956244Y-119034286D01*
X218956244Y-119034286D02*
X219194339Y-119034286D01*
X219194339Y-119034286D02*
X219289577Y-119081905D01*
X219289577Y-119081905D02*
X219337197Y-119129524D01*
X219337197Y-119129524D02*
X219384816Y-119224762D01*
X219384816Y-119224762D02*
X219384816Y-119510476D01*
X219384816Y-119510476D02*
X219337197Y-119605714D01*
X219337197Y-119605714D02*
X219289577Y-119653333D01*
X193754814Y-91462862D02*
X193278623Y-91796195D01*
X193754814Y-92034290D02*
X192754814Y-92034290D01*
X192754814Y-92034290D02*
X192754814Y-91653338D01*
X192754814Y-91653338D02*
X192802433Y-91558100D01*
X192802433Y-91558100D02*
X192850052Y-91510481D01*
X192850052Y-91510481D02*
X192945290Y-91462862D01*
X192945290Y-91462862D02*
X193088147Y-91462862D01*
X193088147Y-91462862D02*
X193183385Y-91510481D01*
X193183385Y-91510481D02*
X193231004Y-91558100D01*
X193231004Y-91558100D02*
X193278623Y-91653338D01*
X193278623Y-91653338D02*
X193278623Y-92034290D01*
X192850052Y-91081909D02*
X192802433Y-91034290D01*
X192802433Y-91034290D02*
X192754814Y-90939052D01*
X192754814Y-90939052D02*
X192754814Y-90700957D01*
X192754814Y-90700957D02*
X192802433Y-90605719D01*
X192802433Y-90605719D02*
X192850052Y-90558100D01*
X192850052Y-90558100D02*
X192945290Y-90510481D01*
X192945290Y-90510481D02*
X193040528Y-90510481D01*
X193040528Y-90510481D02*
X193183385Y-90558100D01*
X193183385Y-90558100D02*
X193754814Y-91129528D01*
X193754814Y-91129528D02*
X193754814Y-90510481D01*
X192754814Y-89605719D02*
X192754814Y-90081909D01*
X192754814Y-90081909D02*
X193231004Y-90129528D01*
X193231004Y-90129528D02*
X193183385Y-90081909D01*
X193183385Y-90081909D02*
X193135766Y-89986671D01*
X193135766Y-89986671D02*
X193135766Y-89748576D01*
X193135766Y-89748576D02*
X193183385Y-89653338D01*
X193183385Y-89653338D02*
X193231004Y-89605719D01*
X193231004Y-89605719D02*
X193326242Y-89558100D01*
X193326242Y-89558100D02*
X193564337Y-89558100D01*
X193564337Y-89558100D02*
X193659575Y-89605719D01*
X193659575Y-89605719D02*
X193707195Y-89653338D01*
X193707195Y-89653338D02*
X193754814Y-89748576D01*
X193754814Y-89748576D02*
X193754814Y-89986671D01*
X193754814Y-89986671D02*
X193707195Y-90081909D01*
X193707195Y-90081909D02*
X193659575Y-90129528D01*
D14*
X168181493Y-104919543D02*
X168220198Y-104842133D01*
X168220198Y-104842133D02*
X168220198Y-104726019D01*
X168220198Y-104726019D02*
X168181493Y-104609905D01*
X168181493Y-104609905D02*
X168104083Y-104532495D01*
X168104083Y-104532495D02*
X168026674Y-104493790D01*
X168026674Y-104493790D02*
X167871855Y-104455086D01*
X167871855Y-104455086D02*
X167755741Y-104455086D01*
X167755741Y-104455086D02*
X167600922Y-104493790D01*
X167600922Y-104493790D02*
X167523512Y-104532495D01*
X167523512Y-104532495D02*
X167446103Y-104609905D01*
X167446103Y-104609905D02*
X167407398Y-104726019D01*
X167407398Y-104726019D02*
X167407398Y-104803428D01*
X167407398Y-104803428D02*
X167446103Y-104919543D01*
X167446103Y-104919543D02*
X167484807Y-104958247D01*
X167484807Y-104958247D02*
X167755741Y-104958247D01*
X167755741Y-104958247D02*
X167755741Y-104803428D01*
X167407398Y-105306590D02*
X168220198Y-105306590D01*
X168220198Y-105306590D02*
X167407398Y-105771047D01*
X167407398Y-105771047D02*
X168220198Y-105771047D01*
X167407398Y-106158095D02*
X168220198Y-106158095D01*
X168220198Y-106158095D02*
X168220198Y-106351619D01*
X168220198Y-106351619D02*
X168181493Y-106467733D01*
X168181493Y-106467733D02*
X168104083Y-106545143D01*
X168104083Y-106545143D02*
X168026674Y-106583848D01*
X168026674Y-106583848D02*
X167871855Y-106622552D01*
X167871855Y-106622552D02*
X167755741Y-106622552D01*
X167755741Y-106622552D02*
X167600922Y-106583848D01*
X167600922Y-106583848D02*
X167523512Y-106545143D01*
X167523512Y-106545143D02*
X167446103Y-106467733D01*
X167446103Y-106467733D02*
X167407398Y-106351619D01*
X167407398Y-106351619D02*
X167407398Y-106158095D01*
X170720195Y-104648604D02*
X170720195Y-104803423D01*
X170720195Y-104803423D02*
X170681490Y-104880833D01*
X170681490Y-104880833D02*
X170604080Y-104958242D01*
X170604080Y-104958242D02*
X170449261Y-104996947D01*
X170449261Y-104996947D02*
X170178328Y-104996947D01*
X170178328Y-104996947D02*
X170023509Y-104958242D01*
X170023509Y-104958242D02*
X169946100Y-104880833D01*
X169946100Y-104880833D02*
X169907395Y-104803423D01*
X169907395Y-104803423D02*
X169907395Y-104648604D01*
X169907395Y-104648604D02*
X169946100Y-104571195D01*
X169946100Y-104571195D02*
X170023509Y-104493785D01*
X170023509Y-104493785D02*
X170178328Y-104455081D01*
X170178328Y-104455081D02*
X170449261Y-104455081D01*
X170449261Y-104455081D02*
X170604080Y-104493785D01*
X170604080Y-104493785D02*
X170681490Y-104571195D01*
X170681490Y-104571195D02*
X170720195Y-104648604D01*
X170720195Y-105345290D02*
X170062214Y-105345290D01*
X170062214Y-105345290D02*
X169984804Y-105383995D01*
X169984804Y-105383995D02*
X169946100Y-105422700D01*
X169946100Y-105422700D02*
X169907395Y-105500109D01*
X169907395Y-105500109D02*
X169907395Y-105654928D01*
X169907395Y-105654928D02*
X169946100Y-105732338D01*
X169946100Y-105732338D02*
X169984804Y-105771043D01*
X169984804Y-105771043D02*
X170062214Y-105809747D01*
X170062214Y-105809747D02*
X170720195Y-105809747D01*
X170720195Y-106080681D02*
X170720195Y-106545138D01*
X169907395Y-106312910D02*
X170720195Y-106312910D01*
X158181496Y-104919537D02*
X158220201Y-104842127D01*
X158220201Y-104842127D02*
X158220201Y-104726013D01*
X158220201Y-104726013D02*
X158181496Y-104609899D01*
X158181496Y-104609899D02*
X158104086Y-104532489D01*
X158104086Y-104532489D02*
X158026677Y-104493784D01*
X158026677Y-104493784D02*
X157871858Y-104455080D01*
X157871858Y-104455080D02*
X157755744Y-104455080D01*
X157755744Y-104455080D02*
X157600925Y-104493784D01*
X157600925Y-104493784D02*
X157523515Y-104532489D01*
X157523515Y-104532489D02*
X157446106Y-104609899D01*
X157446106Y-104609899D02*
X157407401Y-104726013D01*
X157407401Y-104726013D02*
X157407401Y-104803422D01*
X157407401Y-104803422D02*
X157446106Y-104919537D01*
X157446106Y-104919537D02*
X157484810Y-104958241D01*
X157484810Y-104958241D02*
X157755744Y-104958241D01*
X157755744Y-104958241D02*
X157755744Y-104803422D01*
X157407401Y-105306584D02*
X158220201Y-105306584D01*
X158220201Y-105306584D02*
X157407401Y-105771041D01*
X157407401Y-105771041D02*
X158220201Y-105771041D01*
X157407401Y-106158089D02*
X158220201Y-106158089D01*
X158220201Y-106158089D02*
X158220201Y-106351613D01*
X158220201Y-106351613D02*
X158181496Y-106467727D01*
X158181496Y-106467727D02*
X158104086Y-106545137D01*
X158104086Y-106545137D02*
X158026677Y-106583842D01*
X158026677Y-106583842D02*
X157871858Y-106622546D01*
X157871858Y-106622546D02*
X157755744Y-106622546D01*
X157755744Y-106622546D02*
X157600925Y-106583842D01*
X157600925Y-106583842D02*
X157523515Y-106545137D01*
X157523515Y-106545137D02*
X157446106Y-106467727D01*
X157446106Y-106467727D02*
X157407401Y-106351613D01*
X157407401Y-106351613D02*
X157407401Y-106158089D01*
X164946103Y-104455080D02*
X164907398Y-104571194D01*
X164907398Y-104571194D02*
X164907398Y-104764718D01*
X164907398Y-104764718D02*
X164946103Y-104842127D01*
X164946103Y-104842127D02*
X164984807Y-104880832D01*
X164984807Y-104880832D02*
X165062217Y-104919537D01*
X165062217Y-104919537D02*
X165139626Y-104919537D01*
X165139626Y-104919537D02*
X165217036Y-104880832D01*
X165217036Y-104880832D02*
X165255741Y-104842127D01*
X165255741Y-104842127D02*
X165294445Y-104764718D01*
X165294445Y-104764718D02*
X165333150Y-104609899D01*
X165333150Y-104609899D02*
X165371855Y-104532489D01*
X165371855Y-104532489D02*
X165410560Y-104493784D01*
X165410560Y-104493784D02*
X165487969Y-104455080D01*
X165487969Y-104455080D02*
X165565379Y-104455080D01*
X165565379Y-104455080D02*
X165642788Y-104493784D01*
X165642788Y-104493784D02*
X165681493Y-104532489D01*
X165681493Y-104532489D02*
X165720198Y-104609899D01*
X165720198Y-104609899D02*
X165720198Y-104803422D01*
X165720198Y-104803422D02*
X165681493Y-104919537D01*
X164984807Y-105732336D02*
X164946103Y-105693632D01*
X164946103Y-105693632D02*
X164907398Y-105577517D01*
X164907398Y-105577517D02*
X164907398Y-105500108D01*
X164907398Y-105500108D02*
X164946103Y-105383994D01*
X164946103Y-105383994D02*
X165023512Y-105306584D01*
X165023512Y-105306584D02*
X165100922Y-105267879D01*
X165100922Y-105267879D02*
X165255741Y-105229175D01*
X165255741Y-105229175D02*
X165371855Y-105229175D01*
X165371855Y-105229175D02*
X165526674Y-105267879D01*
X165526674Y-105267879D02*
X165604083Y-105306584D01*
X165604083Y-105306584D02*
X165681493Y-105383994D01*
X165681493Y-105383994D02*
X165720198Y-105500108D01*
X165720198Y-105500108D02*
X165720198Y-105577517D01*
X165720198Y-105577517D02*
X165681493Y-105693632D01*
X165681493Y-105693632D02*
X165642788Y-105732336D01*
X164907398Y-106467727D02*
X164907398Y-106080679D01*
X164907398Y-106080679D02*
X165720198Y-106080679D01*
X162446100Y-104455084D02*
X162407395Y-104571198D01*
X162407395Y-104571198D02*
X162407395Y-104764722D01*
X162407395Y-104764722D02*
X162446100Y-104842131D01*
X162446100Y-104842131D02*
X162484804Y-104880836D01*
X162484804Y-104880836D02*
X162562214Y-104919541D01*
X162562214Y-104919541D02*
X162639623Y-104919541D01*
X162639623Y-104919541D02*
X162717033Y-104880836D01*
X162717033Y-104880836D02*
X162755738Y-104842131D01*
X162755738Y-104842131D02*
X162794442Y-104764722D01*
X162794442Y-104764722D02*
X162833147Y-104609903D01*
X162833147Y-104609903D02*
X162871852Y-104532493D01*
X162871852Y-104532493D02*
X162910557Y-104493788D01*
X162910557Y-104493788D02*
X162987966Y-104455084D01*
X162987966Y-104455084D02*
X163065376Y-104455084D01*
X163065376Y-104455084D02*
X163142785Y-104493788D01*
X163142785Y-104493788D02*
X163181490Y-104532493D01*
X163181490Y-104532493D02*
X163220195Y-104609903D01*
X163220195Y-104609903D02*
X163220195Y-104803426D01*
X163220195Y-104803426D02*
X163181490Y-104919541D01*
X162407395Y-105267883D02*
X163220195Y-105267883D01*
X163220195Y-105267883D02*
X163220195Y-105461407D01*
X163220195Y-105461407D02*
X163181490Y-105577521D01*
X163181490Y-105577521D02*
X163104080Y-105654931D01*
X163104080Y-105654931D02*
X163026671Y-105693636D01*
X163026671Y-105693636D02*
X162871852Y-105732340D01*
X162871852Y-105732340D02*
X162755738Y-105732340D01*
X162755738Y-105732340D02*
X162600919Y-105693636D01*
X162600919Y-105693636D02*
X162523509Y-105654931D01*
X162523509Y-105654931D02*
X162446100Y-105577521D01*
X162446100Y-105577521D02*
X162407395Y-105461407D01*
X162407395Y-105461407D02*
X162407395Y-105267883D01*
X162639623Y-106041979D02*
X162639623Y-106429026D01*
X162407395Y-105964569D02*
X163220195Y-106235502D01*
X163220195Y-106235502D02*
X162407395Y-106506436D01*
X160720200Y-104377672D02*
X159907400Y-104648605D01*
X159907400Y-104648605D02*
X160720200Y-104919539D01*
X159984809Y-105654929D02*
X159946105Y-105616225D01*
X159946105Y-105616225D02*
X159907400Y-105500110D01*
X159907400Y-105500110D02*
X159907400Y-105422701D01*
X159907400Y-105422701D02*
X159946105Y-105306587D01*
X159946105Y-105306587D02*
X160023514Y-105229177D01*
X160023514Y-105229177D02*
X160100924Y-105190472D01*
X160100924Y-105190472D02*
X160255743Y-105151768D01*
X160255743Y-105151768D02*
X160371857Y-105151768D01*
X160371857Y-105151768D02*
X160526676Y-105190472D01*
X160526676Y-105190472D02*
X160604085Y-105229177D01*
X160604085Y-105229177D02*
X160681495Y-105306587D01*
X160681495Y-105306587D02*
X160720200Y-105422701D01*
X160720200Y-105422701D02*
X160720200Y-105500110D01*
X160720200Y-105500110D02*
X160681495Y-105616225D01*
X160681495Y-105616225D02*
X160642790Y-105654929D01*
X159984809Y-106467729D02*
X159946105Y-106429025D01*
X159946105Y-106429025D02*
X159907400Y-106312910D01*
X159907400Y-106312910D02*
X159907400Y-106235501D01*
X159907400Y-106235501D02*
X159946105Y-106119387D01*
X159946105Y-106119387D02*
X160023514Y-106041977D01*
X160023514Y-106041977D02*
X160100924Y-106003272D01*
X160100924Y-106003272D02*
X160255743Y-105964568D01*
X160255743Y-105964568D02*
X160371857Y-105964568D01*
X160371857Y-105964568D02*
X160526676Y-106003272D01*
X160526676Y-106003272D02*
X160604085Y-106041977D01*
X160604085Y-106041977D02*
X160681495Y-106119387D01*
X160681495Y-106119387D02*
X160720200Y-106235501D01*
X160720200Y-106235501D02*
X160720200Y-106312910D01*
X160720200Y-106312910D02*
X160681495Y-106429025D01*
X160681495Y-106429025D02*
X160642790Y-106467729D01*
D10*
X157803884Y-99872419D02*
X157803884Y-98872419D01*
X157803884Y-98872419D02*
X158137217Y-99586704D01*
X158137217Y-99586704D02*
X158470550Y-98872419D01*
X158470550Y-98872419D02*
X158470550Y-99872419D01*
X159518169Y-99777180D02*
X159470550Y-99824800D01*
X159470550Y-99824800D02*
X159327693Y-99872419D01*
X159327693Y-99872419D02*
X159232455Y-99872419D01*
X159232455Y-99872419D02*
X159089598Y-99824800D01*
X159089598Y-99824800D02*
X158994360Y-99729561D01*
X158994360Y-99729561D02*
X158946741Y-99634323D01*
X158946741Y-99634323D02*
X158899122Y-99443847D01*
X158899122Y-99443847D02*
X158899122Y-99300990D01*
X158899122Y-99300990D02*
X158946741Y-99110514D01*
X158946741Y-99110514D02*
X158994360Y-99015276D01*
X158994360Y-99015276D02*
X159089598Y-98920038D01*
X159089598Y-98920038D02*
X159232455Y-98872419D01*
X159232455Y-98872419D02*
X159327693Y-98872419D01*
X159327693Y-98872419D02*
X159470550Y-98920038D01*
X159470550Y-98920038D02*
X159518169Y-98967657D01*
X159946741Y-99872419D02*
X159946741Y-98872419D01*
X159946741Y-98872419D02*
X160327693Y-98872419D01*
X160327693Y-98872419D02*
X160422931Y-98920038D01*
X160422931Y-98920038D02*
X160470550Y-98967657D01*
X160470550Y-98967657D02*
X160518169Y-99062895D01*
X160518169Y-99062895D02*
X160518169Y-99205752D01*
X160518169Y-99205752D02*
X160470550Y-99300990D01*
X160470550Y-99300990D02*
X160422931Y-99348609D01*
X160422931Y-99348609D02*
X160327693Y-99396228D01*
X160327693Y-99396228D02*
X159946741Y-99396228D01*
X160851503Y-98872419D02*
X161518169Y-98872419D01*
X161518169Y-98872419D02*
X161089598Y-99872419D01*
X162375312Y-98872419D02*
X161899122Y-98872419D01*
X161899122Y-98872419D02*
X161851503Y-99348609D01*
X161851503Y-99348609D02*
X161899122Y-99300990D01*
X161899122Y-99300990D02*
X161994360Y-99253371D01*
X161994360Y-99253371D02*
X162232455Y-99253371D01*
X162232455Y-99253371D02*
X162327693Y-99300990D01*
X162327693Y-99300990D02*
X162375312Y-99348609D01*
X162375312Y-99348609D02*
X162422931Y-99443847D01*
X162422931Y-99443847D02*
X162422931Y-99681942D01*
X162422931Y-99681942D02*
X162375312Y-99777180D01*
X162375312Y-99777180D02*
X162327693Y-99824800D01*
X162327693Y-99824800D02*
X162232455Y-99872419D01*
X162232455Y-99872419D02*
X161994360Y-99872419D01*
X161994360Y-99872419D02*
X161899122Y-99824800D01*
X161899122Y-99824800D02*
X161851503Y-99777180D01*
X162803884Y-98967657D02*
X162851503Y-98920038D01*
X162851503Y-98920038D02*
X162946741Y-98872419D01*
X162946741Y-98872419D02*
X163184836Y-98872419D01*
X163184836Y-98872419D02*
X163280074Y-98920038D01*
X163280074Y-98920038D02*
X163327693Y-98967657D01*
X163327693Y-98967657D02*
X163375312Y-99062895D01*
X163375312Y-99062895D02*
X163375312Y-99158133D01*
X163375312Y-99158133D02*
X163327693Y-99300990D01*
X163327693Y-99300990D02*
X162756265Y-99872419D01*
X162756265Y-99872419D02*
X163375312Y-99872419D01*
X164280074Y-98872419D02*
X163803884Y-98872419D01*
X163803884Y-98872419D02*
X163756265Y-99348609D01*
X163756265Y-99348609D02*
X163803884Y-99300990D01*
X163803884Y-99300990D02*
X163899122Y-99253371D01*
X163899122Y-99253371D02*
X164137217Y-99253371D01*
X164137217Y-99253371D02*
X164232455Y-99300990D01*
X164232455Y-99300990D02*
X164280074Y-99348609D01*
X164280074Y-99348609D02*
X164327693Y-99443847D01*
X164327693Y-99443847D02*
X164327693Y-99681942D01*
X164327693Y-99681942D02*
X164280074Y-99777180D01*
X164280074Y-99777180D02*
X164232455Y-99824800D01*
X164232455Y-99824800D02*
X164137217Y-99872419D01*
X164137217Y-99872419D02*
X163899122Y-99872419D01*
X163899122Y-99872419D02*
X163803884Y-99824800D01*
X163803884Y-99824800D02*
X163756265Y-99777180D01*
D13*
X224604817Y-126142849D02*
X224128626Y-126476182D01*
X224604817Y-126714277D02*
X223604817Y-126714277D01*
X223604817Y-126714277D02*
X223604817Y-126333325D01*
X223604817Y-126333325D02*
X223652436Y-126238087D01*
X223652436Y-126238087D02*
X223700055Y-126190468D01*
X223700055Y-126190468D02*
X223795293Y-126142849D01*
X223795293Y-126142849D02*
X223938150Y-126142849D01*
X223938150Y-126142849D02*
X224033388Y-126190468D01*
X224033388Y-126190468D02*
X224081007Y-126238087D01*
X224081007Y-126238087D02*
X224128626Y-126333325D01*
X224128626Y-126333325D02*
X224128626Y-126714277D01*
X224604817Y-125190468D02*
X224604817Y-125761896D01*
X224604817Y-125476182D02*
X223604817Y-125476182D01*
X223604817Y-125476182D02*
X223747674Y-125571420D01*
X223747674Y-125571420D02*
X223842912Y-125666658D01*
X223842912Y-125666658D02*
X223890531Y-125761896D01*
X223700055Y-124809515D02*
X223652436Y-124761896D01*
X223652436Y-124761896D02*
X223604817Y-124666658D01*
X223604817Y-124666658D02*
X223604817Y-124428563D01*
X223604817Y-124428563D02*
X223652436Y-124333325D01*
X223652436Y-124333325D02*
X223700055Y-124285706D01*
X223700055Y-124285706D02*
X223795293Y-124238087D01*
X223795293Y-124238087D02*
X223890531Y-124238087D01*
X223890531Y-124238087D02*
X224033388Y-124285706D01*
X224033388Y-124285706D02*
X224604817Y-124857134D01*
X224604817Y-124857134D02*
X224604817Y-124238087D01*
X213054817Y-120642860D02*
X212578626Y-120976193D01*
X213054817Y-121214288D02*
X212054817Y-121214288D01*
X212054817Y-121214288D02*
X212054817Y-120833336D01*
X212054817Y-120833336D02*
X212102436Y-120738098D01*
X212102436Y-120738098D02*
X212150055Y-120690479D01*
X212150055Y-120690479D02*
X212245293Y-120642860D01*
X212245293Y-120642860D02*
X212388150Y-120642860D01*
X212388150Y-120642860D02*
X212483388Y-120690479D01*
X212483388Y-120690479D02*
X212531007Y-120738098D01*
X212531007Y-120738098D02*
X212578626Y-120833336D01*
X212578626Y-120833336D02*
X212578626Y-121214288D01*
X213054817Y-119690479D02*
X213054817Y-120261907D01*
X213054817Y-119976193D02*
X212054817Y-119976193D01*
X212054817Y-119976193D02*
X212197674Y-120071431D01*
X212197674Y-120071431D02*
X212292912Y-120166669D01*
X212292912Y-120166669D02*
X212340531Y-120261907D01*
X212483388Y-119119050D02*
X212435769Y-119214288D01*
X212435769Y-119214288D02*
X212388150Y-119261907D01*
X212388150Y-119261907D02*
X212292912Y-119309526D01*
X212292912Y-119309526D02*
X212245293Y-119309526D01*
X212245293Y-119309526D02*
X212150055Y-119261907D01*
X212150055Y-119261907D02*
X212102436Y-119214288D01*
X212102436Y-119214288D02*
X212054817Y-119119050D01*
X212054817Y-119119050D02*
X212054817Y-118928574D01*
X212054817Y-118928574D02*
X212102436Y-118833336D01*
X212102436Y-118833336D02*
X212150055Y-118785717D01*
X212150055Y-118785717D02*
X212245293Y-118738098D01*
X212245293Y-118738098D02*
X212292912Y-118738098D01*
X212292912Y-118738098D02*
X212388150Y-118785717D01*
X212388150Y-118785717D02*
X212435769Y-118833336D01*
X212435769Y-118833336D02*
X212483388Y-118928574D01*
X212483388Y-118928574D02*
X212483388Y-119119050D01*
X212483388Y-119119050D02*
X212531007Y-119214288D01*
X212531007Y-119214288D02*
X212578626Y-119261907D01*
X212578626Y-119261907D02*
X212673864Y-119309526D01*
X212673864Y-119309526D02*
X212864340Y-119309526D01*
X212864340Y-119309526D02*
X212959578Y-119261907D01*
X212959578Y-119261907D02*
X213007198Y-119214288D01*
X213007198Y-119214288D02*
X213054817Y-119119050D01*
X213054817Y-119119050D02*
X213054817Y-118928574D01*
X213054817Y-118928574D02*
X213007198Y-118833336D01*
X213007198Y-118833336D02*
X212959578Y-118785717D01*
X212959578Y-118785717D02*
X212864340Y-118738098D01*
X212864340Y-118738098D02*
X212673864Y-118738098D01*
X212673864Y-118738098D02*
X212578626Y-118785717D01*
X212578626Y-118785717D02*
X212531007Y-118833336D01*
X212531007Y-118833336D02*
X212483388Y-118928574D01*
X213804817Y-91642860D02*
X213328626Y-91976193D01*
X213804817Y-92214288D02*
X212804817Y-92214288D01*
X212804817Y-92214288D02*
X212804817Y-91833336D01*
X212804817Y-91833336D02*
X212852436Y-91738098D01*
X212852436Y-91738098D02*
X212900055Y-91690479D01*
X212900055Y-91690479D02*
X212995293Y-91642860D01*
X212995293Y-91642860D02*
X213138150Y-91642860D01*
X213138150Y-91642860D02*
X213233388Y-91690479D01*
X213233388Y-91690479D02*
X213281007Y-91738098D01*
X213281007Y-91738098D02*
X213328626Y-91833336D01*
X213328626Y-91833336D02*
X213328626Y-92214288D01*
X212900055Y-91261907D02*
X212852436Y-91214288D01*
X212852436Y-91214288D02*
X212804817Y-91119050D01*
X212804817Y-91119050D02*
X212804817Y-90880955D01*
X212804817Y-90880955D02*
X212852436Y-90785717D01*
X212852436Y-90785717D02*
X212900055Y-90738098D01*
X212900055Y-90738098D02*
X212995293Y-90690479D01*
X212995293Y-90690479D02*
X213090531Y-90690479D01*
X213090531Y-90690479D02*
X213233388Y-90738098D01*
X213233388Y-90738098D02*
X213804817Y-91309526D01*
X213804817Y-91309526D02*
X213804817Y-90690479D01*
X213804817Y-89738098D02*
X213804817Y-90309526D01*
X213804817Y-90023812D02*
X212804817Y-90023812D01*
X212804817Y-90023812D02*
X212947674Y-90119050D01*
X212947674Y-90119050D02*
X213042912Y-90214288D01*
X213042912Y-90214288D02*
X213090531Y-90309526D01*
D12*
X202553571Y-143779318D02*
X202553571Y-142509318D01*
X202553571Y-142509318D02*
X203037381Y-142509318D01*
X203037381Y-142509318D02*
X203158333Y-142569794D01*
X203158333Y-142569794D02*
X203218810Y-142630270D01*
X203218810Y-142630270D02*
X203279286Y-142751222D01*
X203279286Y-142751222D02*
X203279286Y-142932651D01*
X203279286Y-142932651D02*
X203218810Y-143053603D01*
X203218810Y-143053603D02*
X203158333Y-143114080D01*
X203158333Y-143114080D02*
X203037381Y-143174556D01*
X203037381Y-143174556D02*
X202553571Y-143174556D01*
X203763095Y-143416461D02*
X204367857Y-143416461D01*
X203642143Y-143779318D02*
X204065476Y-142509318D01*
X204065476Y-142509318D02*
X204488810Y-143779318D01*
X204851666Y-143718842D02*
X205033095Y-143779318D01*
X205033095Y-143779318D02*
X205335476Y-143779318D01*
X205335476Y-143779318D02*
X205456428Y-143718842D01*
X205456428Y-143718842D02*
X205516904Y-143658365D01*
X205516904Y-143658365D02*
X205577381Y-143537413D01*
X205577381Y-143537413D02*
X205577381Y-143416461D01*
X205577381Y-143416461D02*
X205516904Y-143295508D01*
X205516904Y-143295508D02*
X205456428Y-143235032D01*
X205456428Y-143235032D02*
X205335476Y-143174556D01*
X205335476Y-143174556D02*
X205093571Y-143114080D01*
X205093571Y-143114080D02*
X204972619Y-143053603D01*
X204972619Y-143053603D02*
X204912142Y-142993127D01*
X204912142Y-142993127D02*
X204851666Y-142872175D01*
X204851666Y-142872175D02*
X204851666Y-142751222D01*
X204851666Y-142751222D02*
X204912142Y-142630270D01*
X204912142Y-142630270D02*
X204972619Y-142569794D01*
X204972619Y-142569794D02*
X205093571Y-142509318D01*
X205093571Y-142509318D02*
X205395952Y-142509318D01*
X205395952Y-142509318D02*
X205577381Y-142569794D01*
X206786905Y-143779318D02*
X206061190Y-143779318D01*
X206424047Y-143779318D02*
X206424047Y-142509318D01*
X206424047Y-142509318D02*
X206303095Y-142690746D01*
X206303095Y-142690746D02*
X206182143Y-142811699D01*
X206182143Y-142811699D02*
X206061190Y-142872175D01*
D13*
X201304812Y-119986670D02*
X200828621Y-120320003D01*
X201304812Y-120558098D02*
X200304812Y-120558098D01*
X200304812Y-120558098D02*
X200304812Y-120177146D01*
X200304812Y-120177146D02*
X200352431Y-120081908D01*
X200352431Y-120081908D02*
X200400050Y-120034289D01*
X200400050Y-120034289D02*
X200495288Y-119986670D01*
X200495288Y-119986670D02*
X200638145Y-119986670D01*
X200638145Y-119986670D02*
X200733383Y-120034289D01*
X200733383Y-120034289D02*
X200781002Y-120081908D01*
X200781002Y-120081908D02*
X200828621Y-120177146D01*
X200828621Y-120177146D02*
X200828621Y-120558098D01*
X200733383Y-119415241D02*
X200685764Y-119510479D01*
X200685764Y-119510479D02*
X200638145Y-119558098D01*
X200638145Y-119558098D02*
X200542907Y-119605717D01*
X200542907Y-119605717D02*
X200495288Y-119605717D01*
X200495288Y-119605717D02*
X200400050Y-119558098D01*
X200400050Y-119558098D02*
X200352431Y-119510479D01*
X200352431Y-119510479D02*
X200304812Y-119415241D01*
X200304812Y-119415241D02*
X200304812Y-119224765D01*
X200304812Y-119224765D02*
X200352431Y-119129527D01*
X200352431Y-119129527D02*
X200400050Y-119081908D01*
X200400050Y-119081908D02*
X200495288Y-119034289D01*
X200495288Y-119034289D02*
X200542907Y-119034289D01*
X200542907Y-119034289D02*
X200638145Y-119081908D01*
X200638145Y-119081908D02*
X200685764Y-119129527D01*
X200685764Y-119129527D02*
X200733383Y-119224765D01*
X200733383Y-119224765D02*
X200733383Y-119415241D01*
X200733383Y-119415241D02*
X200781002Y-119510479D01*
X200781002Y-119510479D02*
X200828621Y-119558098D01*
X200828621Y-119558098D02*
X200923859Y-119605717D01*
X200923859Y-119605717D02*
X201114335Y-119605717D01*
X201114335Y-119605717D02*
X201209573Y-119558098D01*
X201209573Y-119558098D02*
X201257193Y-119510479D01*
X201257193Y-119510479D02*
X201304812Y-119415241D01*
X201304812Y-119415241D02*
X201304812Y-119224765D01*
X201304812Y-119224765D02*
X201257193Y-119129527D01*
X201257193Y-119129527D02*
X201209573Y-119081908D01*
X201209573Y-119081908D02*
X201114335Y-119034289D01*
X201114335Y-119034289D02*
X200923859Y-119034289D01*
X200923859Y-119034289D02*
X200828621Y-119081908D01*
X200828621Y-119081908D02*
X200781002Y-119129527D01*
X200781002Y-119129527D02*
X200733383Y-119224765D01*
D12*
X210896190Y-143149080D02*
X211077618Y-143209556D01*
X211077618Y-143209556D02*
X211138095Y-143270032D01*
X211138095Y-143270032D02*
X211198571Y-143390984D01*
X211198571Y-143390984D02*
X211198571Y-143572413D01*
X211198571Y-143572413D02*
X211138095Y-143693365D01*
X211138095Y-143693365D02*
X211077618Y-143753842D01*
X211077618Y-143753842D02*
X210956666Y-143814318D01*
X210956666Y-143814318D02*
X210472856Y-143814318D01*
X210472856Y-143814318D02*
X210472856Y-142544318D01*
X210472856Y-142544318D02*
X210896190Y-142544318D01*
X210896190Y-142544318D02*
X211017142Y-142604794D01*
X211017142Y-142604794D02*
X211077618Y-142665270D01*
X211077618Y-142665270D02*
X211138095Y-142786222D01*
X211138095Y-142786222D02*
X211138095Y-142907175D01*
X211138095Y-142907175D02*
X211077618Y-143028127D01*
X211077618Y-143028127D02*
X211017142Y-143088603D01*
X211017142Y-143088603D02*
X210896190Y-143149080D01*
X210896190Y-143149080D02*
X210472856Y-143149080D01*
X212468571Y-143814318D02*
X212045237Y-143209556D01*
X211742856Y-143814318D02*
X211742856Y-142544318D01*
X211742856Y-142544318D02*
X212226666Y-142544318D01*
X212226666Y-142544318D02*
X212347618Y-142604794D01*
X212347618Y-142604794D02*
X212408095Y-142665270D01*
X212408095Y-142665270D02*
X212468571Y-142786222D01*
X212468571Y-142786222D02*
X212468571Y-142967651D01*
X212468571Y-142967651D02*
X212408095Y-143088603D01*
X212408095Y-143088603D02*
X212347618Y-143149080D01*
X212347618Y-143149080D02*
X212226666Y-143209556D01*
X212226666Y-143209556D02*
X211742856Y-143209556D01*
X213012856Y-143814318D02*
X213012856Y-142544318D01*
X213738571Y-143814318D02*
X213194285Y-143088603D01*
X213738571Y-142544318D02*
X213012856Y-143270032D01*
X215189999Y-142483842D02*
X214101428Y-144116699D01*
X215431904Y-142544318D02*
X216157618Y-142544318D01*
X215794761Y-143814318D02*
X215794761Y-142544318D01*
X216580951Y-143814318D02*
X216580951Y-142544318D01*
X216580951Y-142544318D02*
X217004285Y-143451461D01*
X217004285Y-143451461D02*
X217427618Y-142544318D01*
X217427618Y-142544318D02*
X217427618Y-143814318D01*
X218032380Y-143814318D02*
X218032380Y-142544318D01*
X218032380Y-142544318D02*
X218516190Y-142544318D01*
X218516190Y-142544318D02*
X218637142Y-142604794D01*
X218637142Y-142604794D02*
X218697619Y-142665270D01*
X218697619Y-142665270D02*
X218758095Y-142786222D01*
X218758095Y-142786222D02*
X218758095Y-142967651D01*
X218758095Y-142967651D02*
X218697619Y-143088603D01*
X218697619Y-143088603D02*
X218637142Y-143149080D01*
X218637142Y-143149080D02*
X218516190Y-143209556D01*
X218516190Y-143209556D02*
X218032380Y-143209556D01*
X219967619Y-143814318D02*
X219241904Y-143814318D01*
X219604761Y-143814318D02*
X219604761Y-142544318D01*
X219604761Y-142544318D02*
X219483809Y-142725746D01*
X219483809Y-142725746D02*
X219362857Y-142846699D01*
X219362857Y-142846699D02*
X219241904Y-142907175D01*
D13*
X221104821Y-125666659D02*
X220628630Y-125999992D01*
X221104821Y-126238087D02*
X220104821Y-126238087D01*
X220104821Y-126238087D02*
X220104821Y-125857135D01*
X220104821Y-125857135D02*
X220152440Y-125761897D01*
X220152440Y-125761897D02*
X220200059Y-125714278D01*
X220200059Y-125714278D02*
X220295297Y-125666659D01*
X220295297Y-125666659D02*
X220438154Y-125666659D01*
X220438154Y-125666659D02*
X220533392Y-125714278D01*
X220533392Y-125714278D02*
X220581011Y-125761897D01*
X220581011Y-125761897D02*
X220628630Y-125857135D01*
X220628630Y-125857135D02*
X220628630Y-126238087D01*
X221104821Y-125190468D02*
X221104821Y-124999992D01*
X221104821Y-124999992D02*
X221057202Y-124904754D01*
X221057202Y-124904754D02*
X221009582Y-124857135D01*
X221009582Y-124857135D02*
X220866725Y-124761897D01*
X220866725Y-124761897D02*
X220676249Y-124714278D01*
X220676249Y-124714278D02*
X220295297Y-124714278D01*
X220295297Y-124714278D02*
X220200059Y-124761897D01*
X220200059Y-124761897D02*
X220152440Y-124809516D01*
X220152440Y-124809516D02*
X220104821Y-124904754D01*
X220104821Y-124904754D02*
X220104821Y-125095230D01*
X220104821Y-125095230D02*
X220152440Y-125190468D01*
X220152440Y-125190468D02*
X220200059Y-125238087D01*
X220200059Y-125238087D02*
X220295297Y-125285706D01*
X220295297Y-125285706D02*
X220533392Y-125285706D01*
X220533392Y-125285706D02*
X220628630Y-125238087D01*
X220628630Y-125238087D02*
X220676249Y-125190468D01*
X220676249Y-125190468D02*
X220723868Y-125095230D01*
X220723868Y-125095230D02*
X220723868Y-124904754D01*
X220723868Y-124904754D02*
X220676249Y-124809516D01*
X220676249Y-124809516D02*
X220628630Y-124761897D01*
X220628630Y-124761897D02*
X220533392Y-124714278D01*
X221304817Y-132142860D02*
X220828626Y-132476193D01*
X221304817Y-132714288D02*
X220304817Y-132714288D01*
X220304817Y-132714288D02*
X220304817Y-132333336D01*
X220304817Y-132333336D02*
X220352436Y-132238098D01*
X220352436Y-132238098D02*
X220400055Y-132190479D01*
X220400055Y-132190479D02*
X220495293Y-132142860D01*
X220495293Y-132142860D02*
X220638150Y-132142860D01*
X220638150Y-132142860D02*
X220733388Y-132190479D01*
X220733388Y-132190479D02*
X220781007Y-132238098D01*
X220781007Y-132238098D02*
X220828626Y-132333336D01*
X220828626Y-132333336D02*
X220828626Y-132714288D01*
X221304817Y-131190479D02*
X221304817Y-131761907D01*
X221304817Y-131476193D02*
X220304817Y-131476193D01*
X220304817Y-131476193D02*
X220447674Y-131571431D01*
X220447674Y-131571431D02*
X220542912Y-131666669D01*
X220542912Y-131666669D02*
X220590531Y-131761907D01*
X221304817Y-130238098D02*
X221304817Y-130809526D01*
X221304817Y-130523812D02*
X220304817Y-130523812D01*
X220304817Y-130523812D02*
X220447674Y-130619050D01*
X220447674Y-130619050D02*
X220542912Y-130714288D01*
X220542912Y-130714288D02*
X220590531Y-130809526D01*
D10*
X205922580Y-103638095D02*
X205113057Y-103638095D01*
X205113057Y-103638095D02*
X205017819Y-103685714D01*
X205017819Y-103685714D02*
X204970200Y-103733333D01*
X204970200Y-103733333D02*
X204922580Y-103828571D01*
X204922580Y-103828571D02*
X204922580Y-104019047D01*
X204922580Y-104019047D02*
X204970200Y-104114285D01*
X204970200Y-104114285D02*
X205017819Y-104161904D01*
X205017819Y-104161904D02*
X205113057Y-104209523D01*
X205113057Y-104209523D02*
X205922580Y-104209523D01*
X204922580Y-105209523D02*
X204922580Y-104638095D01*
X204922580Y-104923809D02*
X205922580Y-104923809D01*
X205922580Y-104923809D02*
X205779723Y-104828571D01*
X205779723Y-104828571D02*
X205684485Y-104733333D01*
X205684485Y-104733333D02*
X205636866Y-104638095D01*
D13*
X209378100Y-117007200D02*
X209520957Y-117054819D01*
X209520957Y-117054819D02*
X209759052Y-117054819D01*
X209759052Y-117054819D02*
X209854290Y-117007200D01*
X209854290Y-117007200D02*
X209901909Y-116959580D01*
X209901909Y-116959580D02*
X209949528Y-116864342D01*
X209949528Y-116864342D02*
X209949528Y-116769104D01*
X209949528Y-116769104D02*
X209901909Y-116673866D01*
X209901909Y-116673866D02*
X209854290Y-116626247D01*
X209854290Y-116626247D02*
X209759052Y-116578628D01*
X209759052Y-116578628D02*
X209568576Y-116531009D01*
X209568576Y-116531009D02*
X209473338Y-116483390D01*
X209473338Y-116483390D02*
X209425719Y-116435771D01*
X209425719Y-116435771D02*
X209378100Y-116340533D01*
X209378100Y-116340533D02*
X209378100Y-116245295D01*
X209378100Y-116245295D02*
X209425719Y-116150057D01*
X209425719Y-116150057D02*
X209473338Y-116102438D01*
X209473338Y-116102438D02*
X209568576Y-116054819D01*
X209568576Y-116054819D02*
X209806671Y-116054819D01*
X209806671Y-116054819D02*
X209949528Y-116102438D01*
X210235243Y-116054819D02*
X210806671Y-116054819D01*
X210520957Y-117054819D02*
X210520957Y-116054819D01*
X211140005Y-117054819D02*
X211140005Y-116054819D01*
X211140005Y-116054819D02*
X211473338Y-116769104D01*
X211473338Y-116769104D02*
X211806671Y-116054819D01*
X211806671Y-116054819D02*
X211806671Y-117054819D01*
X212187624Y-116054819D02*
X212806671Y-116054819D01*
X212806671Y-116054819D02*
X212473338Y-116435771D01*
X212473338Y-116435771D02*
X212616195Y-116435771D01*
X212616195Y-116435771D02*
X212711433Y-116483390D01*
X212711433Y-116483390D02*
X212759052Y-116531009D01*
X212759052Y-116531009D02*
X212806671Y-116626247D01*
X212806671Y-116626247D02*
X212806671Y-116864342D01*
X212806671Y-116864342D02*
X212759052Y-116959580D01*
X212759052Y-116959580D02*
X212711433Y-117007200D01*
X212711433Y-117007200D02*
X212616195Y-117054819D01*
X212616195Y-117054819D02*
X212330481Y-117054819D01*
X212330481Y-117054819D02*
X212235243Y-117007200D01*
X212235243Y-117007200D02*
X212187624Y-116959580D01*
X213187624Y-116150057D02*
X213235243Y-116102438D01*
X213235243Y-116102438D02*
X213330481Y-116054819D01*
X213330481Y-116054819D02*
X213568576Y-116054819D01*
X213568576Y-116054819D02*
X213663814Y-116102438D01*
X213663814Y-116102438D02*
X213711433Y-116150057D01*
X213711433Y-116150057D02*
X213759052Y-116245295D01*
X213759052Y-116245295D02*
X213759052Y-116340533D01*
X213759052Y-116340533D02*
X213711433Y-116483390D01*
X213711433Y-116483390D02*
X213140005Y-117054819D01*
X213140005Y-117054819D02*
X213759052Y-117054819D01*
X214520957Y-116531009D02*
X214187624Y-116531009D01*
X214187624Y-117054819D02*
X214187624Y-116054819D01*
X214187624Y-116054819D02*
X214663814Y-116054819D01*
X215473338Y-116388152D02*
X215473338Y-117054819D01*
X215235243Y-116007200D02*
X214997148Y-116721485D01*
X214997148Y-116721485D02*
X215616195Y-116721485D01*
X216520957Y-117054819D02*
X215949529Y-117054819D01*
X216235243Y-117054819D02*
X216235243Y-116054819D01*
X216235243Y-116054819D02*
X216140005Y-116197676D01*
X216140005Y-116197676D02*
X216044767Y-116292914D01*
X216044767Y-116292914D02*
X215949529Y-116340533D01*
X217473338Y-117054819D02*
X216901910Y-117054819D01*
X217187624Y-117054819D02*
X217187624Y-116054819D01*
X217187624Y-116054819D02*
X217092386Y-116197676D01*
X217092386Y-116197676D02*
X216997148Y-116292914D01*
X216997148Y-116292914D02*
X216901910Y-116340533D01*
X218473338Y-116959580D02*
X218425719Y-117007200D01*
X218425719Y-117007200D02*
X218282862Y-117054819D01*
X218282862Y-117054819D02*
X218187624Y-117054819D01*
X218187624Y-117054819D02*
X218044767Y-117007200D01*
X218044767Y-117007200D02*
X217949529Y-116911961D01*
X217949529Y-116911961D02*
X217901910Y-116816723D01*
X217901910Y-116816723D02*
X217854291Y-116626247D01*
X217854291Y-116626247D02*
X217854291Y-116483390D01*
X217854291Y-116483390D02*
X217901910Y-116292914D01*
X217901910Y-116292914D02*
X217949529Y-116197676D01*
X217949529Y-116197676D02*
X218044767Y-116102438D01*
X218044767Y-116102438D02*
X218187624Y-116054819D01*
X218187624Y-116054819D02*
X218282862Y-116054819D01*
X218282862Y-116054819D02*
X218425719Y-116102438D01*
X218425719Y-116102438D02*
X218473338Y-116150057D01*
X218901910Y-116531009D02*
X219235243Y-116531009D01*
X219378100Y-117054819D02*
X218901910Y-117054819D01*
X218901910Y-117054819D02*
X218901910Y-116054819D01*
X218901910Y-116054819D02*
X219378100Y-116054819D01*
X219806672Y-116054819D02*
X219806672Y-116864342D01*
X219806672Y-116864342D02*
X219854291Y-116959580D01*
X219854291Y-116959580D02*
X219901910Y-117007200D01*
X219901910Y-117007200D02*
X219997148Y-117054819D01*
X219997148Y-117054819D02*
X220187624Y-117054819D01*
X220187624Y-117054819D02*
X220282862Y-117007200D01*
X220282862Y-117007200D02*
X220330481Y-116959580D01*
X220330481Y-116959580D02*
X220378100Y-116864342D01*
X220378100Y-116864342D02*
X220378100Y-116054819D01*
X221282862Y-116054819D02*
X221092386Y-116054819D01*
X221092386Y-116054819D02*
X220997148Y-116102438D01*
X220997148Y-116102438D02*
X220949529Y-116150057D01*
X220949529Y-116150057D02*
X220854291Y-116292914D01*
X220854291Y-116292914D02*
X220806672Y-116483390D01*
X220806672Y-116483390D02*
X220806672Y-116864342D01*
X220806672Y-116864342D02*
X220854291Y-116959580D01*
X220854291Y-116959580D02*
X220901910Y-117007200D01*
X220901910Y-117007200D02*
X220997148Y-117054819D01*
X220997148Y-117054819D02*
X221187624Y-117054819D01*
X221187624Y-117054819D02*
X221282862Y-117007200D01*
X221282862Y-117007200D02*
X221330481Y-116959580D01*
X221330481Y-116959580D02*
X221378100Y-116864342D01*
X221378100Y-116864342D02*
X221378100Y-116626247D01*
X221378100Y-116626247D02*
X221330481Y-116531009D01*
X221330481Y-116531009D02*
X221282862Y-116483390D01*
X221282862Y-116483390D02*
X221187624Y-116435771D01*
X221187624Y-116435771D02*
X220997148Y-116435771D01*
X220997148Y-116435771D02*
X220901910Y-116483390D01*
X220901910Y-116483390D02*
X220854291Y-116531009D01*
X220854291Y-116531009D02*
X220806672Y-116626247D01*
X221568577Y-117150057D02*
X222330481Y-117150057D01*
X222901910Y-116531009D02*
X223044767Y-116578628D01*
X223044767Y-116578628D02*
X223092386Y-116626247D01*
X223092386Y-116626247D02*
X223140005Y-116721485D01*
X223140005Y-116721485D02*
X223140005Y-116864342D01*
X223140005Y-116864342D02*
X223092386Y-116959580D01*
X223092386Y-116959580D02*
X223044767Y-117007200D01*
X223044767Y-117007200D02*
X222949529Y-117054819D01*
X222949529Y-117054819D02*
X222568577Y-117054819D01*
X222568577Y-117054819D02*
X222568577Y-116054819D01*
X222568577Y-116054819D02*
X222901910Y-116054819D01*
X222901910Y-116054819D02*
X222997148Y-116102438D01*
X222997148Y-116102438D02*
X223044767Y-116150057D01*
X223044767Y-116150057D02*
X223092386Y-116245295D01*
X223092386Y-116245295D02*
X223092386Y-116340533D01*
X223092386Y-116340533D02*
X223044767Y-116435771D01*
X223044767Y-116435771D02*
X222997148Y-116483390D01*
X222997148Y-116483390D02*
X222901910Y-116531009D01*
X222901910Y-116531009D02*
X222568577Y-116531009D01*
X224044767Y-117054819D02*
X223568577Y-117054819D01*
X223568577Y-117054819D02*
X223568577Y-116054819D01*
X224330482Y-116769104D02*
X224806672Y-116769104D01*
X224235244Y-117054819D02*
X224568577Y-116054819D01*
X224568577Y-116054819D02*
X224901910Y-117054819D01*
X225806672Y-116959580D02*
X225759053Y-117007200D01*
X225759053Y-117007200D02*
X225616196Y-117054819D01*
X225616196Y-117054819D02*
X225520958Y-117054819D01*
X225520958Y-117054819D02*
X225378101Y-117007200D01*
X225378101Y-117007200D02*
X225282863Y-116911961D01*
X225282863Y-116911961D02*
X225235244Y-116816723D01*
X225235244Y-116816723D02*
X225187625Y-116626247D01*
X225187625Y-116626247D02*
X225187625Y-116483390D01*
X225187625Y-116483390D02*
X225235244Y-116292914D01*
X225235244Y-116292914D02*
X225282863Y-116197676D01*
X225282863Y-116197676D02*
X225378101Y-116102438D01*
X225378101Y-116102438D02*
X225520958Y-116054819D01*
X225520958Y-116054819D02*
X225616196Y-116054819D01*
X225616196Y-116054819D02*
X225759053Y-116102438D01*
X225759053Y-116102438D02*
X225806672Y-116150057D01*
X226235244Y-117054819D02*
X226235244Y-116054819D01*
X226806672Y-117054819D02*
X226378101Y-116483390D01*
X226806672Y-116054819D02*
X226235244Y-116626247D01*
X227235244Y-117054819D02*
X227235244Y-116054819D01*
X227235244Y-116054819D02*
X227616196Y-116054819D01*
X227616196Y-116054819D02*
X227711434Y-116102438D01*
X227711434Y-116102438D02*
X227759053Y-116150057D01*
X227759053Y-116150057D02*
X227806672Y-116245295D01*
X227806672Y-116245295D02*
X227806672Y-116388152D01*
X227806672Y-116388152D02*
X227759053Y-116483390D01*
X227759053Y-116483390D02*
X227711434Y-116531009D01*
X227711434Y-116531009D02*
X227616196Y-116578628D01*
X227616196Y-116578628D02*
X227235244Y-116578628D01*
X228235244Y-117054819D02*
X228235244Y-116054819D01*
X229187624Y-117054819D02*
X228711434Y-117054819D01*
X228711434Y-117054819D02*
X228711434Y-116054819D01*
X229997148Y-117054819D02*
X229520958Y-117054819D01*
X229520958Y-117054819D02*
X229520958Y-116054819D01*
D12*
X171092380Y-143728842D02*
X171273809Y-143789318D01*
X171273809Y-143789318D02*
X171576190Y-143789318D01*
X171576190Y-143789318D02*
X171697142Y-143728842D01*
X171697142Y-143728842D02*
X171757618Y-143668365D01*
X171757618Y-143668365D02*
X171818095Y-143547413D01*
X171818095Y-143547413D02*
X171818095Y-143426461D01*
X171818095Y-143426461D02*
X171757618Y-143305508D01*
X171757618Y-143305508D02*
X171697142Y-143245032D01*
X171697142Y-143245032D02*
X171576190Y-143184556D01*
X171576190Y-143184556D02*
X171334285Y-143124080D01*
X171334285Y-143124080D02*
X171213333Y-143063603D01*
X171213333Y-143063603D02*
X171152856Y-143003127D01*
X171152856Y-143003127D02*
X171092380Y-142882175D01*
X171092380Y-142882175D02*
X171092380Y-142761222D01*
X171092380Y-142761222D02*
X171152856Y-142640270D01*
X171152856Y-142640270D02*
X171213333Y-142579794D01*
X171213333Y-142579794D02*
X171334285Y-142519318D01*
X171334285Y-142519318D02*
X171636666Y-142519318D01*
X171636666Y-142519318D02*
X171818095Y-142579794D01*
X173088095Y-143668365D02*
X173027619Y-143728842D01*
X173027619Y-143728842D02*
X172846190Y-143789318D01*
X172846190Y-143789318D02*
X172725238Y-143789318D01*
X172725238Y-143789318D02*
X172543809Y-143728842D01*
X172543809Y-143728842D02*
X172422857Y-143607889D01*
X172422857Y-143607889D02*
X172362380Y-143486937D01*
X172362380Y-143486937D02*
X172301904Y-143245032D01*
X172301904Y-143245032D02*
X172301904Y-143063603D01*
X172301904Y-143063603D02*
X172362380Y-142821699D01*
X172362380Y-142821699D02*
X172422857Y-142700746D01*
X172422857Y-142700746D02*
X172543809Y-142579794D01*
X172543809Y-142579794D02*
X172725238Y-142519318D01*
X172725238Y-142519318D02*
X172846190Y-142519318D01*
X172846190Y-142519318D02*
X173027619Y-142579794D01*
X173027619Y-142579794D02*
X173088095Y-142640270D01*
X174358095Y-143789318D02*
X173934761Y-143184556D01*
X173632380Y-143789318D02*
X173632380Y-142519318D01*
X173632380Y-142519318D02*
X174116190Y-142519318D01*
X174116190Y-142519318D02*
X174237142Y-142579794D01*
X174237142Y-142579794D02*
X174297619Y-142640270D01*
X174297619Y-142640270D02*
X174358095Y-142761222D01*
X174358095Y-142761222D02*
X174358095Y-142942651D01*
X174358095Y-142942651D02*
X174297619Y-143063603D01*
X174297619Y-143063603D02*
X174237142Y-143124080D01*
X174237142Y-143124080D02*
X174116190Y-143184556D01*
X174116190Y-143184556D02*
X173632380Y-143184556D01*
X174841904Y-142640270D02*
X174902380Y-142579794D01*
X174902380Y-142579794D02*
X175023333Y-142519318D01*
X175023333Y-142519318D02*
X175325714Y-142519318D01*
X175325714Y-142519318D02*
X175446666Y-142579794D01*
X175446666Y-142579794D02*
X175507142Y-142640270D01*
X175507142Y-142640270D02*
X175567619Y-142761222D01*
X175567619Y-142761222D02*
X175567619Y-142882175D01*
X175567619Y-142882175D02*
X175507142Y-143063603D01*
X175507142Y-143063603D02*
X174781428Y-143789318D01*
X174781428Y-143789318D02*
X175567619Y-143789318D01*
X139884286Y-142609318D02*
X140307619Y-143879318D01*
X140307619Y-143879318D02*
X140730953Y-142609318D01*
X141154285Y-143879318D02*
X141154285Y-142609318D01*
X141759047Y-143879318D02*
X141759047Y-142609318D01*
X141759047Y-142609318D02*
X142484762Y-143879318D01*
X142484762Y-143879318D02*
X142484762Y-142609318D01*
X143754762Y-143879318D02*
X143029047Y-143879318D01*
X143391904Y-143879318D02*
X143391904Y-142609318D01*
X143391904Y-142609318D02*
X143270952Y-142790746D01*
X143270952Y-142790746D02*
X143150000Y-142911699D01*
X143150000Y-142911699D02*
X143029047Y-142972175D01*
D13*
X205304814Y-119986674D02*
X204828623Y-120320007D01*
X205304814Y-120558102D02*
X204304814Y-120558102D01*
X204304814Y-120558102D02*
X204304814Y-120177150D01*
X204304814Y-120177150D02*
X204352433Y-120081912D01*
X204352433Y-120081912D02*
X204400052Y-120034293D01*
X204400052Y-120034293D02*
X204495290Y-119986674D01*
X204495290Y-119986674D02*
X204638147Y-119986674D01*
X204638147Y-119986674D02*
X204733385Y-120034293D01*
X204733385Y-120034293D02*
X204781004Y-120081912D01*
X204781004Y-120081912D02*
X204828623Y-120177150D01*
X204828623Y-120177150D02*
X204828623Y-120558102D01*
X204304814Y-119653340D02*
X204304814Y-118986674D01*
X204304814Y-118986674D02*
X205304814Y-119415245D01*
X191333325Y-124124822D02*
X190999992Y-123648631D01*
X190761897Y-124124822D02*
X190761897Y-123124822D01*
X190761897Y-123124822D02*
X191142849Y-123124822D01*
X191142849Y-123124822D02*
X191238087Y-123172441D01*
X191238087Y-123172441D02*
X191285706Y-123220060D01*
X191285706Y-123220060D02*
X191333325Y-123315298D01*
X191333325Y-123315298D02*
X191333325Y-123458155D01*
X191333325Y-123458155D02*
X191285706Y-123553393D01*
X191285706Y-123553393D02*
X191238087Y-123601012D01*
X191238087Y-123601012D02*
X191142849Y-123648631D01*
X191142849Y-123648631D02*
X190761897Y-123648631D01*
X191714278Y-123220060D02*
X191761897Y-123172441D01*
X191761897Y-123172441D02*
X191857135Y-123124822D01*
X191857135Y-123124822D02*
X192095230Y-123124822D01*
X192095230Y-123124822D02*
X192190468Y-123172441D01*
X192190468Y-123172441D02*
X192238087Y-123220060D01*
X192238087Y-123220060D02*
X192285706Y-123315298D01*
X192285706Y-123315298D02*
X192285706Y-123410536D01*
X192285706Y-123410536D02*
X192238087Y-123553393D01*
X192238087Y-123553393D02*
X191666659Y-124124822D01*
X191666659Y-124124822D02*
X192285706Y-124124822D01*
X214289583Y-125986674D02*
X214337203Y-126034293D01*
X214337203Y-126034293D02*
X214384822Y-126177150D01*
X214384822Y-126177150D02*
X214384822Y-126272388D01*
X214384822Y-126272388D02*
X214337203Y-126415245D01*
X214337203Y-126415245D02*
X214241964Y-126510483D01*
X214241964Y-126510483D02*
X214146726Y-126558102D01*
X214146726Y-126558102D02*
X213956250Y-126605721D01*
X213956250Y-126605721D02*
X213813393Y-126605721D01*
X213813393Y-126605721D02*
X213622917Y-126558102D01*
X213622917Y-126558102D02*
X213527679Y-126510483D01*
X213527679Y-126510483D02*
X213432441Y-126415245D01*
X213432441Y-126415245D02*
X213384822Y-126272388D01*
X213384822Y-126272388D02*
X213384822Y-126177150D01*
X213384822Y-126177150D02*
X213432441Y-126034293D01*
X213432441Y-126034293D02*
X213480060Y-125986674D01*
X213384822Y-125081912D02*
X213384822Y-125558102D01*
X213384822Y-125558102D02*
X213861012Y-125605721D01*
X213861012Y-125605721D02*
X213813393Y-125558102D01*
X213813393Y-125558102D02*
X213765774Y-125462864D01*
X213765774Y-125462864D02*
X213765774Y-125224769D01*
X213765774Y-125224769D02*
X213813393Y-125129531D01*
X213813393Y-125129531D02*
X213861012Y-125081912D01*
X213861012Y-125081912D02*
X213956250Y-125034293D01*
X213956250Y-125034293D02*
X214194345Y-125034293D01*
X214194345Y-125034293D02*
X214289583Y-125081912D01*
X214289583Y-125081912D02*
X214337203Y-125129531D01*
X214337203Y-125129531D02*
X214384822Y-125224769D01*
X214384822Y-125224769D02*
X214384822Y-125462864D01*
X214384822Y-125462864D02*
X214337203Y-125558102D01*
X214337203Y-125558102D02*
X214289583Y-125605721D01*
X208289580Y-124986669D02*
X208337200Y-125034288D01*
X208337200Y-125034288D02*
X208384819Y-125177145D01*
X208384819Y-125177145D02*
X208384819Y-125272383D01*
X208384819Y-125272383D02*
X208337200Y-125415240D01*
X208337200Y-125415240D02*
X208241961Y-125510478D01*
X208241961Y-125510478D02*
X208146723Y-125558097D01*
X208146723Y-125558097D02*
X207956247Y-125605716D01*
X207956247Y-125605716D02*
X207813390Y-125605716D01*
X207813390Y-125605716D02*
X207622914Y-125558097D01*
X207622914Y-125558097D02*
X207527676Y-125510478D01*
X207527676Y-125510478D02*
X207432438Y-125415240D01*
X207432438Y-125415240D02*
X207384819Y-125272383D01*
X207384819Y-125272383D02*
X207384819Y-125177145D01*
X207384819Y-125177145D02*
X207432438Y-125034288D01*
X207432438Y-125034288D02*
X207480057Y-124986669D01*
X207718152Y-124129526D02*
X208384819Y-124129526D01*
X207337200Y-124367621D02*
X208051485Y-124605716D01*
X208051485Y-124605716D02*
X208051485Y-123986669D01*
D12*
X221759047Y-142514318D02*
X222545238Y-142514318D01*
X222545238Y-142514318D02*
X222121904Y-142998127D01*
X222121904Y-142998127D02*
X222303333Y-142998127D01*
X222303333Y-142998127D02*
X222424285Y-143058603D01*
X222424285Y-143058603D02*
X222484761Y-143119080D01*
X222484761Y-143119080D02*
X222545238Y-143240032D01*
X222545238Y-143240032D02*
X222545238Y-143542413D01*
X222545238Y-143542413D02*
X222484761Y-143663365D01*
X222484761Y-143663365D02*
X222424285Y-143723842D01*
X222424285Y-143723842D02*
X222303333Y-143784318D01*
X222303333Y-143784318D02*
X221940476Y-143784318D01*
X221940476Y-143784318D02*
X221819523Y-143723842D01*
X221819523Y-143723842D02*
X221759047Y-143663365D01*
X222908095Y-142514318D02*
X223331428Y-143784318D01*
X223331428Y-143784318D02*
X223754762Y-142514318D01*
X224057142Y-142514318D02*
X224843333Y-142514318D01*
X224843333Y-142514318D02*
X224419999Y-142998127D01*
X224419999Y-142998127D02*
X224601428Y-142998127D01*
X224601428Y-142998127D02*
X224722380Y-143058603D01*
X224722380Y-143058603D02*
X224782856Y-143119080D01*
X224782856Y-143119080D02*
X224843333Y-143240032D01*
X224843333Y-143240032D02*
X224843333Y-143542413D01*
X224843333Y-143542413D02*
X224782856Y-143663365D01*
X224782856Y-143663365D02*
X224722380Y-143723842D01*
X224722380Y-143723842D02*
X224601428Y-143784318D01*
X224601428Y-143784318D02*
X224238571Y-143784318D01*
X224238571Y-143784318D02*
X224117618Y-143723842D01*
X224117618Y-143723842D02*
X224057142Y-143663365D01*
X226294761Y-142453842D02*
X225206190Y-144086699D01*
X226536666Y-142514318D02*
X227262380Y-142514318D01*
X226899523Y-143784318D02*
X226899523Y-142514318D01*
X227625237Y-143723842D02*
X227806666Y-143784318D01*
X227806666Y-143784318D02*
X228109047Y-143784318D01*
X228109047Y-143784318D02*
X228229999Y-143723842D01*
X228229999Y-143723842D02*
X228290475Y-143663365D01*
X228290475Y-143663365D02*
X228350952Y-143542413D01*
X228350952Y-143542413D02*
X228350952Y-143421461D01*
X228350952Y-143421461D02*
X228290475Y-143300508D01*
X228290475Y-143300508D02*
X228229999Y-143240032D01*
X228229999Y-143240032D02*
X228109047Y-143179556D01*
X228109047Y-143179556D02*
X227867142Y-143119080D01*
X227867142Y-143119080D02*
X227746190Y-143058603D01*
X227746190Y-143058603D02*
X227685713Y-142998127D01*
X227685713Y-142998127D02*
X227625237Y-142877175D01*
X227625237Y-142877175D02*
X227625237Y-142756222D01*
X227625237Y-142756222D02*
X227685713Y-142635270D01*
X227685713Y-142635270D02*
X227746190Y-142574794D01*
X227746190Y-142574794D02*
X227867142Y-142514318D01*
X227867142Y-142514318D02*
X228169523Y-142514318D01*
X228169523Y-142514318D02*
X228350952Y-142574794D01*
X229560476Y-143784318D02*
X228834761Y-143784318D01*
X229197618Y-143784318D02*
X229197618Y-142514318D01*
X229197618Y-142514318D02*
X229076666Y-142695746D01*
X229076666Y-142695746D02*
X228955714Y-142816699D01*
X228955714Y-142816699D02*
X228834761Y-142877175D01*
X160352380Y-143693842D02*
X160533809Y-143754318D01*
X160533809Y-143754318D02*
X160836190Y-143754318D01*
X160836190Y-143754318D02*
X160957142Y-143693842D01*
X160957142Y-143693842D02*
X161017618Y-143633365D01*
X161017618Y-143633365D02*
X161078095Y-143512413D01*
X161078095Y-143512413D02*
X161078095Y-143391461D01*
X161078095Y-143391461D02*
X161017618Y-143270508D01*
X161017618Y-143270508D02*
X160957142Y-143210032D01*
X160957142Y-143210032D02*
X160836190Y-143149556D01*
X160836190Y-143149556D02*
X160594285Y-143089080D01*
X160594285Y-143089080D02*
X160473333Y-143028603D01*
X160473333Y-143028603D02*
X160412856Y-142968127D01*
X160412856Y-142968127D02*
X160352380Y-142847175D01*
X160352380Y-142847175D02*
X160352380Y-142726222D01*
X160352380Y-142726222D02*
X160412856Y-142605270D01*
X160412856Y-142605270D02*
X160473333Y-142544794D01*
X160473333Y-142544794D02*
X160594285Y-142484318D01*
X160594285Y-142484318D02*
X160896666Y-142484318D01*
X160896666Y-142484318D02*
X161078095Y-142544794D01*
X162348095Y-143633365D02*
X162287619Y-143693842D01*
X162287619Y-143693842D02*
X162106190Y-143754318D01*
X162106190Y-143754318D02*
X161985238Y-143754318D01*
X161985238Y-143754318D02*
X161803809Y-143693842D01*
X161803809Y-143693842D02*
X161682857Y-143572889D01*
X161682857Y-143572889D02*
X161622380Y-143451937D01*
X161622380Y-143451937D02*
X161561904Y-143210032D01*
X161561904Y-143210032D02*
X161561904Y-143028603D01*
X161561904Y-143028603D02*
X161622380Y-142786699D01*
X161622380Y-142786699D02*
X161682857Y-142665746D01*
X161682857Y-142665746D02*
X161803809Y-142544794D01*
X161803809Y-142544794D02*
X161985238Y-142484318D01*
X161985238Y-142484318D02*
X162106190Y-142484318D01*
X162106190Y-142484318D02*
X162287619Y-142544794D01*
X162287619Y-142544794D02*
X162348095Y-142605270D01*
X163618095Y-143754318D02*
X163194761Y-143149556D01*
X162892380Y-143754318D02*
X162892380Y-142484318D01*
X162892380Y-142484318D02*
X163376190Y-142484318D01*
X163376190Y-142484318D02*
X163497142Y-142544794D01*
X163497142Y-142544794D02*
X163557619Y-142605270D01*
X163557619Y-142605270D02*
X163618095Y-142726222D01*
X163618095Y-142726222D02*
X163618095Y-142907651D01*
X163618095Y-142907651D02*
X163557619Y-143028603D01*
X163557619Y-143028603D02*
X163497142Y-143089080D01*
X163497142Y-143089080D02*
X163376190Y-143149556D01*
X163376190Y-143149556D02*
X162892380Y-143149556D01*
X164827619Y-143754318D02*
X164101904Y-143754318D01*
X164464761Y-143754318D02*
X164464761Y-142484318D01*
X164464761Y-142484318D02*
X164343809Y-142665746D01*
X164343809Y-142665746D02*
X164222857Y-142786699D01*
X164222857Y-142786699D02*
X164101904Y-142847175D01*
D13*
X119857145Y-128604820D02*
X119523812Y-128128629D01*
X119285717Y-128604820D02*
X119285717Y-127604820D01*
X119285717Y-127604820D02*
X119666669Y-127604820D01*
X119666669Y-127604820D02*
X119761907Y-127652439D01*
X119761907Y-127652439D02*
X119809526Y-127700058D01*
X119809526Y-127700058D02*
X119857145Y-127795296D01*
X119857145Y-127795296D02*
X119857145Y-127938153D01*
X119857145Y-127938153D02*
X119809526Y-128033391D01*
X119809526Y-128033391D02*
X119761907Y-128081010D01*
X119761907Y-128081010D02*
X119666669Y-128128629D01*
X119666669Y-128128629D02*
X119285717Y-128128629D01*
X120809526Y-128604820D02*
X120238098Y-128604820D01*
X120523812Y-128604820D02*
X120523812Y-127604820D01*
X120523812Y-127604820D02*
X120428574Y-127747677D01*
X120428574Y-127747677D02*
X120333336Y-127842915D01*
X120333336Y-127842915D02*
X120238098Y-127890534D01*
X121666669Y-127938153D02*
X121666669Y-128604820D01*
X121428574Y-127557201D02*
X121190479Y-128271486D01*
X121190479Y-128271486D02*
X121809526Y-128271486D01*
X108479701Y-127290832D02*
X108527320Y-127147975D01*
X108527320Y-127147975D02*
X108527320Y-126909880D01*
X108527320Y-126909880D02*
X108479701Y-126814642D01*
X108479701Y-126814642D02*
X108432081Y-126767023D01*
X108432081Y-126767023D02*
X108336843Y-126719404D01*
X108336843Y-126719404D02*
X108241605Y-126719404D01*
X108241605Y-126719404D02*
X108146367Y-126767023D01*
X108146367Y-126767023D02*
X108098748Y-126814642D01*
X108098748Y-126814642D02*
X108051129Y-126909880D01*
X108051129Y-126909880D02*
X108003510Y-127100356D01*
X108003510Y-127100356D02*
X107955891Y-127195594D01*
X107955891Y-127195594D02*
X107908272Y-127243213D01*
X107908272Y-127243213D02*
X107813034Y-127290832D01*
X107813034Y-127290832D02*
X107717796Y-127290832D01*
X107717796Y-127290832D02*
X107622558Y-127243213D01*
X107622558Y-127243213D02*
X107574939Y-127195594D01*
X107574939Y-127195594D02*
X107527320Y-127100356D01*
X107527320Y-127100356D02*
X107527320Y-126862261D01*
X107527320Y-126862261D02*
X107574939Y-126719404D01*
X107527320Y-126386070D02*
X108527320Y-126147975D01*
X108527320Y-126147975D02*
X107813034Y-125957499D01*
X107813034Y-125957499D02*
X108527320Y-125767023D01*
X108527320Y-125767023D02*
X107527320Y-125528928D01*
X108527320Y-124624166D02*
X108527320Y-125195594D01*
X108527320Y-124909880D02*
X107527320Y-124909880D01*
X107527320Y-124909880D02*
X107670177Y-125005118D01*
X107670177Y-125005118D02*
X107765415Y-125100356D01*
X107765415Y-125100356D02*
X107813034Y-125195594D01*
X190804812Y-91462862D02*
X190328621Y-91796195D01*
X190804812Y-92034290D02*
X189804812Y-92034290D01*
X189804812Y-92034290D02*
X189804812Y-91653338D01*
X189804812Y-91653338D02*
X189852431Y-91558100D01*
X189852431Y-91558100D02*
X189900050Y-91510481D01*
X189900050Y-91510481D02*
X189995288Y-91462862D01*
X189995288Y-91462862D02*
X190138145Y-91462862D01*
X190138145Y-91462862D02*
X190233383Y-91510481D01*
X190233383Y-91510481D02*
X190281002Y-91558100D01*
X190281002Y-91558100D02*
X190328621Y-91653338D01*
X190328621Y-91653338D02*
X190328621Y-92034290D01*
X189900050Y-91081909D02*
X189852431Y-91034290D01*
X189852431Y-91034290D02*
X189804812Y-90939052D01*
X189804812Y-90939052D02*
X189804812Y-90700957D01*
X189804812Y-90700957D02*
X189852431Y-90605719D01*
X189852431Y-90605719D02*
X189900050Y-90558100D01*
X189900050Y-90558100D02*
X189995288Y-90510481D01*
X189995288Y-90510481D02*
X190090526Y-90510481D01*
X190090526Y-90510481D02*
X190233383Y-90558100D01*
X190233383Y-90558100D02*
X190804812Y-91129528D01*
X190804812Y-91129528D02*
X190804812Y-90510481D01*
X189804812Y-89653338D02*
X189804812Y-89843814D01*
X189804812Y-89843814D02*
X189852431Y-89939052D01*
X189852431Y-89939052D02*
X189900050Y-89986671D01*
X189900050Y-89986671D02*
X190042907Y-90081909D01*
X190042907Y-90081909D02*
X190233383Y-90129528D01*
X190233383Y-90129528D02*
X190614335Y-90129528D01*
X190614335Y-90129528D02*
X190709573Y-90081909D01*
X190709573Y-90081909D02*
X190757193Y-90034290D01*
X190757193Y-90034290D02*
X190804812Y-89939052D01*
X190804812Y-89939052D02*
X190804812Y-89748576D01*
X190804812Y-89748576D02*
X190757193Y-89653338D01*
X190757193Y-89653338D02*
X190709573Y-89605719D01*
X190709573Y-89605719D02*
X190614335Y-89558100D01*
X190614335Y-89558100D02*
X190376240Y-89558100D01*
X190376240Y-89558100D02*
X190281002Y-89605719D01*
X190281002Y-89605719D02*
X190233383Y-89653338D01*
X190233383Y-89653338D02*
X190185764Y-89748576D01*
X190185764Y-89748576D02*
X190185764Y-89939052D01*
X190185764Y-89939052D02*
X190233383Y-90034290D01*
X190233383Y-90034290D02*
X190281002Y-90081909D01*
X190281002Y-90081909D02*
X190376240Y-90129528D01*
D12*
X112019285Y-142434318D02*
X112019285Y-143462413D01*
X112019285Y-143462413D02*
X112079762Y-143583365D01*
X112079762Y-143583365D02*
X112140238Y-143643842D01*
X112140238Y-143643842D02*
X112261190Y-143704318D01*
X112261190Y-143704318D02*
X112503095Y-143704318D01*
X112503095Y-143704318D02*
X112624047Y-143643842D01*
X112624047Y-143643842D02*
X112684524Y-143583365D01*
X112684524Y-143583365D02*
X112745000Y-143462413D01*
X112745000Y-143462413D02*
X112745000Y-142434318D01*
X113289285Y-143341461D02*
X113894047Y-143341461D01*
X113168333Y-143704318D02*
X113591666Y-142434318D01*
X113591666Y-142434318D02*
X114015000Y-143704318D01*
X115164047Y-143704318D02*
X114740713Y-143099556D01*
X114438332Y-143704318D02*
X114438332Y-142434318D01*
X114438332Y-142434318D02*
X114922142Y-142434318D01*
X114922142Y-142434318D02*
X115043094Y-142494794D01*
X115043094Y-142494794D02*
X115103571Y-142555270D01*
X115103571Y-142555270D02*
X115164047Y-142676222D01*
X115164047Y-142676222D02*
X115164047Y-142857651D01*
X115164047Y-142857651D02*
X115103571Y-142978603D01*
X115103571Y-142978603D02*
X115043094Y-143039080D01*
X115043094Y-143039080D02*
X114922142Y-143099556D01*
X114922142Y-143099556D02*
X114438332Y-143099556D01*
X115526904Y-142434318D02*
X116252618Y-142434318D01*
X115889761Y-143704318D02*
X115889761Y-142434318D01*
X117341190Y-143704318D02*
X116615475Y-143704318D01*
X116978332Y-143704318D02*
X116978332Y-142434318D01*
X116978332Y-142434318D02*
X116857380Y-142615746D01*
X116857380Y-142615746D02*
X116736428Y-142736699D01*
X116736428Y-142736699D02*
X116615475Y-142797175D01*
D13*
X164089645Y-124847320D02*
X163756312Y-124371129D01*
X163518217Y-124847320D02*
X163518217Y-123847320D01*
X163518217Y-123847320D02*
X163899169Y-123847320D01*
X163899169Y-123847320D02*
X163994407Y-123894939D01*
X163994407Y-123894939D02*
X164042026Y-123942558D01*
X164042026Y-123942558D02*
X164089645Y-124037796D01*
X164089645Y-124037796D02*
X164089645Y-124180653D01*
X164089645Y-124180653D02*
X164042026Y-124275891D01*
X164042026Y-124275891D02*
X163994407Y-124323510D01*
X163994407Y-124323510D02*
X163899169Y-124371129D01*
X163899169Y-124371129D02*
X163518217Y-124371129D01*
X165042026Y-124847320D02*
X164470598Y-124847320D01*
X164756312Y-124847320D02*
X164756312Y-123847320D01*
X164756312Y-123847320D02*
X164661074Y-123990177D01*
X164661074Y-123990177D02*
X164565836Y-124085415D01*
X164565836Y-124085415D02*
X164470598Y-124133034D01*
X165899169Y-123847320D02*
X165708693Y-123847320D01*
X165708693Y-123847320D02*
X165613455Y-123894939D01*
X165613455Y-123894939D02*
X165565836Y-123942558D01*
X165565836Y-123942558D02*
X165470598Y-124085415D01*
X165470598Y-124085415D02*
X165422979Y-124275891D01*
X165422979Y-124275891D02*
X165422979Y-124656843D01*
X165422979Y-124656843D02*
X165470598Y-124752081D01*
X165470598Y-124752081D02*
X165518217Y-124799701D01*
X165518217Y-124799701D02*
X165613455Y-124847320D01*
X165613455Y-124847320D02*
X165803931Y-124847320D01*
X165803931Y-124847320D02*
X165899169Y-124799701D01*
X165899169Y-124799701D02*
X165946788Y-124752081D01*
X165946788Y-124752081D02*
X165994407Y-124656843D01*
X165994407Y-124656843D02*
X165994407Y-124418748D01*
X165994407Y-124418748D02*
X165946788Y-124323510D01*
X165946788Y-124323510D02*
X165899169Y-124275891D01*
X165899169Y-124275891D02*
X165803931Y-124228272D01*
X165803931Y-124228272D02*
X165613455Y-124228272D01*
X165613455Y-124228272D02*
X165518217Y-124275891D01*
X165518217Y-124275891D02*
X165470598Y-124323510D01*
X165470598Y-124323510D02*
X165422979Y-124418748D01*
X226804820Y-90986676D02*
X226328629Y-91320009D01*
X226804820Y-91558104D02*
X225804820Y-91558104D01*
X225804820Y-91558104D02*
X225804820Y-91177152D01*
X225804820Y-91177152D02*
X225852439Y-91081914D01*
X225852439Y-91081914D02*
X225900058Y-91034295D01*
X225900058Y-91034295D02*
X225995296Y-90986676D01*
X225995296Y-90986676D02*
X226138153Y-90986676D01*
X226138153Y-90986676D02*
X226233391Y-91034295D01*
X226233391Y-91034295D02*
X226281010Y-91081914D01*
X226281010Y-91081914D02*
X226328629Y-91177152D01*
X226328629Y-91177152D02*
X226328629Y-91558104D01*
X225804820Y-90081914D02*
X225804820Y-90558104D01*
X225804820Y-90558104D02*
X226281010Y-90605723D01*
X226281010Y-90605723D02*
X226233391Y-90558104D01*
X226233391Y-90558104D02*
X226185772Y-90462866D01*
X226185772Y-90462866D02*
X226185772Y-90224771D01*
X226185772Y-90224771D02*
X226233391Y-90129533D01*
X226233391Y-90129533D02*
X226281010Y-90081914D01*
X226281010Y-90081914D02*
X226376248Y-90034295D01*
X226376248Y-90034295D02*
X226614343Y-90034295D01*
X226614343Y-90034295D02*
X226709581Y-90081914D01*
X226709581Y-90081914D02*
X226757201Y-90129533D01*
X226757201Y-90129533D02*
X226804820Y-90224771D01*
X226804820Y-90224771D02*
X226804820Y-90462866D01*
X226804820Y-90462866D02*
X226757201Y-90558104D01*
X226757201Y-90558104D02*
X226709581Y-90605723D01*
X199874580Y-121261668D02*
X199922200Y-121309287D01*
X199922200Y-121309287D02*
X199969819Y-121452144D01*
X199969819Y-121452144D02*
X199969819Y-121547382D01*
X199969819Y-121547382D02*
X199922200Y-121690239D01*
X199922200Y-121690239D02*
X199826961Y-121785477D01*
X199826961Y-121785477D02*
X199731723Y-121833096D01*
X199731723Y-121833096D02*
X199541247Y-121880715D01*
X199541247Y-121880715D02*
X199398390Y-121880715D01*
X199398390Y-121880715D02*
X199207914Y-121833096D01*
X199207914Y-121833096D02*
X199112676Y-121785477D01*
X199112676Y-121785477D02*
X199017438Y-121690239D01*
X199017438Y-121690239D02*
X198969819Y-121547382D01*
X198969819Y-121547382D02*
X198969819Y-121452144D01*
X198969819Y-121452144D02*
X199017438Y-121309287D01*
X199017438Y-121309287D02*
X199065057Y-121261668D01*
X199065057Y-120880715D02*
X199017438Y-120833096D01*
X199017438Y-120833096D02*
X198969819Y-120737858D01*
X198969819Y-120737858D02*
X198969819Y-120499763D01*
X198969819Y-120499763D02*
X199017438Y-120404525D01*
X199017438Y-120404525D02*
X199065057Y-120356906D01*
X199065057Y-120356906D02*
X199160295Y-120309287D01*
X199160295Y-120309287D02*
X199255533Y-120309287D01*
X199255533Y-120309287D02*
X199398390Y-120356906D01*
X199398390Y-120356906D02*
X199969819Y-120928334D01*
X199969819Y-120928334D02*
X199969819Y-120309287D01*
D12*
X105316666Y-143548842D02*
X105498095Y-143609318D01*
X105498095Y-143609318D02*
X105800476Y-143609318D01*
X105800476Y-143609318D02*
X105921428Y-143548842D01*
X105921428Y-143548842D02*
X105981904Y-143488365D01*
X105981904Y-143488365D02*
X106042381Y-143367413D01*
X106042381Y-143367413D02*
X106042381Y-143246461D01*
X106042381Y-143246461D02*
X105981904Y-143125508D01*
X105981904Y-143125508D02*
X105921428Y-143065032D01*
X105921428Y-143065032D02*
X105800476Y-143004556D01*
X105800476Y-143004556D02*
X105558571Y-142944080D01*
X105558571Y-142944080D02*
X105437619Y-142883603D01*
X105437619Y-142883603D02*
X105377142Y-142823127D01*
X105377142Y-142823127D02*
X105316666Y-142702175D01*
X105316666Y-142702175D02*
X105316666Y-142581222D01*
X105316666Y-142581222D02*
X105377142Y-142460270D01*
X105377142Y-142460270D02*
X105437619Y-142399794D01*
X105437619Y-142399794D02*
X105558571Y-142339318D01*
X105558571Y-142339318D02*
X105860952Y-142339318D01*
X105860952Y-142339318D02*
X106042381Y-142399794D01*
X106465714Y-142339318D02*
X106768095Y-143609318D01*
X106768095Y-143609318D02*
X107010000Y-142702175D01*
X107010000Y-142702175D02*
X107251905Y-143609318D01*
X107251905Y-143609318D02*
X107554286Y-142339318D01*
X107917143Y-142339318D02*
X108703334Y-142339318D01*
X108703334Y-142339318D02*
X108280000Y-142823127D01*
X108280000Y-142823127D02*
X108461429Y-142823127D01*
X108461429Y-142823127D02*
X108582381Y-142883603D01*
X108582381Y-142883603D02*
X108642857Y-142944080D01*
X108642857Y-142944080D02*
X108703334Y-143065032D01*
X108703334Y-143065032D02*
X108703334Y-143367413D01*
X108703334Y-143367413D02*
X108642857Y-143488365D01*
X108642857Y-143488365D02*
X108582381Y-143548842D01*
X108582381Y-143548842D02*
X108461429Y-143609318D01*
X108461429Y-143609318D02*
X108098572Y-143609318D01*
X108098572Y-143609318D02*
X107977619Y-143548842D01*
X107977619Y-143548842D02*
X107917143Y-143488365D01*
D15*
%TO.C,3V3*%
X119220000Y-135660000D02*
X124780000Y-135660000D01*
X124780000Y-135660000D02*
X124780000Y-141930000D01*
X124780000Y-141930000D02*
X119220000Y-141930000D01*
X119220000Y-141930000D02*
X119220000Y-135660000D01*
D10*
%TO.C,U5*%
X152000000Y-116200000D02*
X140000000Y-116200000D01*
X152000000Y-99200000D02*
X152000000Y-116200000D01*
X140000000Y-116200000D02*
X140000000Y-99200000D01*
X140000000Y-99100000D02*
X152000000Y-99100000D01*
%TO.C,U4*%
X138000001Y-116000000D02*
X126000001Y-116000000D01*
X138000001Y-99000000D02*
X138000001Y-116000000D01*
X126000001Y-116000000D02*
X126000001Y-99000000D01*
X126000001Y-99000000D02*
X138000001Y-99000000D01*
%TO.C,U3*%
X106600000Y-91100000D02*
X123100000Y-91100000D01*
X106600000Y-116600000D02*
X106600000Y-91100000D01*
X123100000Y-91100000D02*
X123100000Y-116600000D01*
X123100000Y-116600000D02*
X106600000Y-116600000D01*
X106600000Y-91100000D02*
X123100000Y-91100000D01*
X123100000Y-116600000D01*
X106600000Y-116600000D01*
X106600000Y-91100000D01*
D16*
%TO.C,R23*%
X209265001Y-120047068D02*
X209265000Y-119592939D01*
X210735000Y-120047069D02*
X210734999Y-119592940D01*
D10*
%TO.C,SPD/TOT1*%
X179040000Y-139000000D02*
X179040000Y-139000000D01*
X179140000Y-139000000D02*
X179140000Y-139000000D01*
D15*
X179530000Y-135860000D02*
X187630000Y-135860000D01*
X179530000Y-142130000D02*
X179530000Y-135860000D01*
X187630000Y-135860000D02*
X187630000Y-142130000D01*
X187630000Y-142130000D02*
X179530000Y-142130000D01*
D10*
X179040000Y-139000000D02*
G75*
G02*
X179140000Y-139000000I50000J0D01*
G01*
X179140000Y-139000000D02*
G75*
G02*
X179040000Y-139000000I-50000J0D01*
G01*
D16*
%TO.C,C1*%
X187490002Y-121173743D02*
X187489995Y-121466271D01*
X188510001Y-121173741D02*
X188509994Y-121466269D01*
%TO.C,R24*%
X208765001Y-90592940D02*
X208765000Y-91047069D01*
X210235000Y-90592939D02*
X210234999Y-91047068D01*
%TO.C,R4*%
X195272934Y-124585001D02*
X195727062Y-124585001D01*
X195272934Y-126055001D02*
X195727062Y-126055001D01*
%TO.C,R17*%
X182959565Y-124507501D02*
X182505435Y-124507501D01*
X182959565Y-125977499D02*
X182505435Y-125977499D01*
D10*
%TO.C,12V1*%
X126540000Y-139005000D02*
X126540000Y-139005000D01*
X126640000Y-139005000D02*
X126640000Y-139005000D01*
D15*
X127030000Y-135865000D02*
X135130000Y-135865000D01*
X127030000Y-142135000D02*
X127030000Y-135865000D01*
X135130000Y-135865000D02*
X135130000Y-142135000D01*
X135130000Y-142135000D02*
X127030000Y-142135000D01*
D10*
X126540000Y-139005000D02*
G75*
G02*
X126640000Y-139005000I50000J0D01*
G01*
X126640000Y-139005000D02*
G75*
G02*
X126540000Y-139005000I-50000J0D01*
G01*
D16*
%TO.C,R20*%
X159765001Y-129272936D02*
X159765000Y-129727065D01*
X161235000Y-129272935D02*
X161234999Y-129727064D01*
D10*
%TO.C,CUR1*%
X147500000Y-139000000D02*
X147500000Y-139000000D01*
X147600000Y-139000000D02*
X147600000Y-139000000D01*
D15*
X147990000Y-135860000D02*
X156090000Y-135860000D01*
X147990000Y-142130000D02*
X147990000Y-135860000D01*
X156090000Y-135860000D02*
X156090000Y-142130000D01*
X156090000Y-142130000D02*
X147990000Y-142130000D01*
D10*
X147500000Y-139000000D02*
G75*
G02*
X147600000Y-139000000I50000J0D01*
G01*
X147600000Y-139000000D02*
G75*
G02*
X147500000Y-139000000I-50000J0D01*
G01*
D16*
%TO.C,R15*%
X120272936Y-130765000D02*
X120727064Y-130765000D01*
X120272936Y-132235000D02*
X120727064Y-132235000D01*
%TO.C,R22*%
X218265001Y-91227064D02*
X218265000Y-90772935D01*
X219735000Y-91227065D02*
X219734999Y-90772936D01*
D10*
%TO.C,TIN1*%
X189540000Y-139005000D02*
X189540000Y-139005000D01*
X189640000Y-139005000D02*
X189640000Y-139005000D01*
D15*
X190030000Y-135865000D02*
X198130000Y-135865000D01*
X190030000Y-142135000D02*
X190030000Y-135865000D01*
X198130000Y-135865000D02*
X198130000Y-142135000D01*
X198130000Y-142135000D02*
X190030000Y-142135000D01*
D10*
X189540000Y-139005000D02*
G75*
G02*
X189640000Y-139005000I50000J0D01*
G01*
X189640000Y-139005000D02*
G75*
G02*
X189540000Y-139005000I-50000J0D01*
G01*
D16*
%TO.C,R3*%
X193715003Y-121092939D02*
X193715002Y-121547068D01*
X195185002Y-121092938D02*
X195185001Y-121547067D01*
%TO.C,R19*%
X156265001Y-129272936D02*
X156265000Y-129727065D01*
X157735000Y-129272935D02*
X157734999Y-129727064D01*
%TO.C,R6*%
X224765003Y-91047064D02*
X224765002Y-90592935D01*
X226235002Y-91047065D02*
X226235001Y-90592936D01*
%TO.C,SW2*%
X168852500Y-120082500D02*
X168852500Y-121465500D01*
X168852500Y-120082500D02*
X170235500Y-120082500D01*
X169092500Y-120322500D02*
X169092500Y-127702500D01*
X169092500Y-120322500D02*
X178992500Y-120322500D01*
X169092500Y-127702500D02*
X178992500Y-127702500D01*
X173365833Y-122107500D02*
X173365833Y-123377500D01*
X173365833Y-124647500D02*
X173365833Y-125917500D01*
X178992500Y-120322500D02*
X178992500Y-127702500D01*
X172012500Y-122107500D02*
X173365833Y-122107500D01*
X173365833Y-123377500D01*
X172012500Y-123377500D01*
X172012500Y-122107500D01*
G36*
X172012500Y-122107500D02*
G01*
X173365833Y-122107500D01*
X173365833Y-123377500D01*
X172012500Y-123377500D01*
X172012500Y-122107500D01*
G37*
X172012500Y-122107500D02*
X176072500Y-122107500D01*
X176072500Y-123377500D01*
X172012500Y-123377500D01*
X172012500Y-122107500D01*
X172012500Y-124647500D02*
X173365833Y-124647500D01*
X173365833Y-125917500D01*
X172012500Y-125917500D01*
X172012500Y-124647500D01*
G36*
X172012500Y-124647500D02*
G01*
X173365833Y-124647500D01*
X173365833Y-125917500D01*
X172012500Y-125917500D01*
X172012500Y-124647500D01*
G37*
X172012500Y-124647500D02*
X176072500Y-124647500D01*
X176072500Y-125917500D01*
X172012500Y-125917500D01*
X172012500Y-124647500D01*
%TO.C,R10*%
X218264995Y-131727062D02*
X218264994Y-131272933D01*
X219734994Y-131727063D02*
X219734993Y-131272934D01*
%TO.C,R13*%
X120522936Y-121515000D02*
X120977064Y-121515000D01*
X120522936Y-122985000D02*
X120977064Y-122985000D01*
%TO.C,R1*%
X190264994Y-121092940D02*
X190264993Y-121547069D01*
X191734993Y-121092939D02*
X191734992Y-121547068D01*
%TO.C,C3*%
X216990001Y-119673738D02*
X216989994Y-119966266D01*
X218010000Y-119673736D02*
X218009993Y-119966264D01*
%TO.C,R25*%
X194214998Y-91047066D02*
X194214997Y-90592937D01*
X195684997Y-91047067D02*
X195684996Y-90592938D01*
D10*
%TO.C,U2*%
X156399997Y-100799996D02*
X171600004Y-100799998D01*
X156400004Y-116200004D02*
X156399997Y-100799996D01*
X171600004Y-100799998D02*
X171600004Y-116200005D01*
X171600004Y-116200005D02*
X156400004Y-116200004D01*
D16*
%TO.C,R12*%
X221764997Y-125272931D02*
X221764996Y-125727060D01*
X223234996Y-125272930D02*
X223234995Y-125727059D01*
%TO.C,R18*%
X213515001Y-120227064D02*
X213515000Y-119772935D01*
X214985000Y-120227065D02*
X214984999Y-119772936D01*
%TO.C,R21*%
X214265001Y-91227064D02*
X214265000Y-90772935D01*
X215735000Y-91227065D02*
X215734999Y-90772936D01*
D10*
%TO.C,PAS1*%
X200040000Y-139005000D02*
X200040000Y-139005000D01*
X200140000Y-139005000D02*
X200140000Y-139005000D01*
D15*
X200530000Y-135865000D02*
X208630000Y-135865000D01*
X200530000Y-142135000D02*
X200530000Y-135865000D01*
X208630000Y-135865000D02*
X208630000Y-142135000D01*
X208630000Y-142135000D02*
X200530000Y-142135000D01*
D10*
X200040000Y-139005000D02*
G75*
G02*
X200140000Y-139005000I50000J0D01*
G01*
X200140000Y-139005000D02*
G75*
G02*
X200040000Y-139005000I-50000J0D01*
G01*
D16*
%TO.C,R8*%
X201764996Y-120047065D02*
X201764995Y-119592936D01*
X203234995Y-120047066D02*
X203234994Y-119592937D01*
D10*
%TO.C,BRK/TMP1*%
X210500000Y-139000000D02*
X210500000Y-139000000D01*
X210600000Y-139000000D02*
X210600000Y-139000000D01*
D15*
X210990000Y-135860000D02*
X219090000Y-135860000D01*
X210990000Y-142130000D02*
X210990000Y-135860000D01*
X219090000Y-135860000D02*
X219090000Y-142130000D01*
X219090000Y-142130000D02*
X210990000Y-142130000D01*
D10*
X210500000Y-139000000D02*
G75*
G02*
X210600000Y-139000000I50000J0D01*
G01*
X210600000Y-139000000D02*
G75*
G02*
X210500000Y-139000000I-50000J0D01*
G01*
D16*
%TO.C,R9*%
X218265001Y-125272932D02*
X218265000Y-125727061D01*
X219735000Y-125272931D02*
X219734999Y-125727060D01*
%TO.C,R11*%
X221765001Y-131727064D02*
X221765000Y-131272935D01*
X223235000Y-131727065D02*
X223234999Y-131272936D01*
D10*
%TO.C,U1*%
X177500000Y-115400000D02*
X177500002Y-94400001D01*
X177500002Y-94400001D02*
X230500000Y-94400003D01*
X230499998Y-115400003D02*
X177500000Y-115400000D01*
X230500000Y-94400003D02*
X230499998Y-115400003D01*
%TO.C,SCR2*%
X168540000Y-139005000D02*
X168540000Y-139005000D01*
X168640000Y-139005000D02*
X168640000Y-139005000D01*
D15*
X169030000Y-135865000D02*
X177130000Y-135865000D01*
X169030000Y-142135000D02*
X169030000Y-135865000D01*
X177130000Y-135865000D02*
X177130000Y-142135000D01*
X177130000Y-142135000D02*
X169030000Y-142135000D01*
D10*
X168540000Y-139005000D02*
G75*
G02*
X168640000Y-139005000I50000J0D01*
G01*
X168640000Y-139005000D02*
G75*
G02*
X168540000Y-139005000I-50000J0D01*
G01*
%TO.C,VIN1*%
X137040000Y-139005000D02*
X137040000Y-139005000D01*
X137140000Y-139005000D02*
X137140000Y-139005000D01*
D15*
X137530000Y-135865000D02*
X145630000Y-135865000D01*
X137530000Y-142135000D02*
X137530000Y-135865000D01*
X145630000Y-135865000D02*
X145630000Y-142135000D01*
X145630000Y-142135000D02*
X137530000Y-142135000D01*
D10*
X137040000Y-139005000D02*
G75*
G02*
X137140000Y-139005000I50000J0D01*
G01*
X137140000Y-139005000D02*
G75*
G02*
X137040000Y-139005000I-50000J0D01*
G01*
D16*
%TO.C,R7*%
X205764998Y-120047069D02*
X205764997Y-119592940D01*
X207234997Y-120047070D02*
X207234996Y-119592941D01*
%TO.C,R2*%
X191272931Y-124585005D02*
X191727059Y-124585005D01*
X191272931Y-126055005D02*
X191727059Y-126055005D01*
%TO.C,C5*%
X211990007Y-125673745D02*
X211990000Y-125966273D01*
X213010006Y-125673743D02*
X213009999Y-125966271D01*
%TO.C,C4*%
X205990004Y-124673740D02*
X205989999Y-124966265D01*
X207010001Y-124673741D02*
X207009996Y-124966266D01*
D10*
%TO.C,3V3/TS1*%
X221000000Y-139000000D02*
X221000000Y-139000000D01*
X221100000Y-139000000D02*
X221100000Y-139000000D01*
D15*
X221490000Y-135860000D02*
X229590000Y-135860000D01*
X221490000Y-142130000D02*
X221490000Y-135860000D01*
X229590000Y-135860000D02*
X229590000Y-142130000D01*
X229590000Y-142130000D02*
X221490000Y-142130000D01*
D10*
X221000000Y-139000000D02*
G75*
G02*
X221100000Y-139000000I50000J0D01*
G01*
X221100000Y-139000000D02*
G75*
G02*
X221000000Y-139000000I-50000J0D01*
G01*
%TO.C,SCR1*%
X158000000Y-139000000D02*
X158000000Y-139000000D01*
X158100000Y-139000000D02*
X158100000Y-139000000D01*
D15*
X158490000Y-135860000D02*
X166590000Y-135860000D01*
X158490000Y-142130000D02*
X158490000Y-135860000D01*
X166590000Y-135860000D02*
X166590000Y-142130000D01*
X166590000Y-142130000D02*
X158490000Y-142130000D01*
D10*
X158000000Y-139000000D02*
G75*
G02*
X158100000Y-139000000I50000J0D01*
G01*
X158100000Y-139000000D02*
G75*
G02*
X158000000Y-139000000I-50000J0D01*
G01*
D16*
%TO.C,R14*%
X120727065Y-125765001D02*
X120272935Y-125765001D01*
X120727065Y-127234999D02*
X120272935Y-127234999D01*
%TO.C,SW1*%
X108832501Y-131147500D02*
X108832500Y-129764501D01*
X108832501Y-131147500D02*
X110215496Y-131147494D01*
X109072497Y-130907504D02*
X109072504Y-121007499D01*
X109072497Y-130907504D02*
X116452501Y-130907500D01*
X109072504Y-121007499D02*
X116452501Y-121007500D01*
X110857501Y-126634167D02*
X112127500Y-126634167D01*
X113397498Y-126634160D02*
X114667501Y-126634167D01*
X116452501Y-130907500D02*
X116452501Y-121007500D01*
X112127500Y-123927501D02*
X112127501Y-127987500D01*
X110857501Y-127987500D01*
X110857501Y-123927500D01*
X112127500Y-123927501D01*
X112127501Y-127987500D02*
X110857501Y-127987500D01*
X110857501Y-126634167D01*
X112127500Y-126634167D01*
X112127501Y-127987500D01*
G36*
X112127501Y-127987500D02*
G01*
X110857501Y-127987500D01*
X110857501Y-126634167D01*
X112127500Y-126634167D01*
X112127501Y-127987500D01*
G37*
X114667501Y-126634167D02*
X114667499Y-127987494D01*
X113397504Y-127987496D01*
X113397498Y-126634160D01*
X114667501Y-126634167D01*
G36*
X114667501Y-126634167D02*
G01*
X114667499Y-127987494D01*
X113397504Y-127987496D01*
X113397498Y-126634160D01*
X114667501Y-126634167D01*
G37*
X114667499Y-127987494D02*
X113397504Y-127987496D01*
X113397501Y-123927502D01*
X114667498Y-123927502D01*
X114667499Y-127987494D01*
%TO.C,R26*%
X191264996Y-91047066D02*
X191264995Y-90592937D01*
X192734995Y-91047067D02*
X192734994Y-90592938D01*
D15*
%TO.C,UART1*%
X111720000Y-135660000D02*
X117280000Y-135660000D01*
X111720000Y-141930000D02*
X111720000Y-135660000D01*
X117280000Y-135660000D02*
X117280000Y-141930000D01*
X117280000Y-141930000D02*
X111720000Y-141930000D01*
D16*
%TO.C,R16*%
X164959565Y-122007501D02*
X164505435Y-122007501D01*
X164959565Y-123477499D02*
X164505435Y-123477499D01*
%TO.C,R5*%
X227265004Y-91047071D02*
X227265003Y-90592942D01*
X228735003Y-91047072D02*
X228735002Y-90592943D01*
%TO.C,C2*%
X197490003Y-121173737D02*
X197489996Y-121466265D01*
X198510002Y-121173735D02*
X198509995Y-121466263D01*
D15*
%TO.C,SW3*%
X104220000Y-135665000D02*
X109780000Y-135665000D01*
X104220000Y-141935000D02*
X104220000Y-135665000D01*
X109780000Y-135665000D02*
X109780000Y-141935000D01*
X109780000Y-141935000D02*
X104220000Y-141935000D01*
%TD*%
M02*
