M48
; DRILL file {KiCad 9.0.2} date 2025-09-16T10:35:50+0200
; FORMAT={-:-/ absolute / metric / decimal}
; #@! TF.CreationDate,2025-09-16T10:35:50+02:00
; #@! TF.GenerationSoftware,Kicad,Pcbnew,9.0.2
; #@! TF.FileFunction,Plated,1,2,PTH
FMAT,2
METRIC
; #@! TA.AperFunction,Plated,PTH,ViaDrill
T1C0.500
; #@! TA.AperFunction,Plated,PTH,ComponentDrill
T2C0.700
; #@! TA.AperFunction,Plated,PTH,ComponentDrill
T3C0.762
; #@! TA.AperFunction,Plated,PTH,ComponentDrill
T4C0.800
; #@! TA.AperFunction,Plated,PTH,ComponentDrill
T5C1.100
; #@! TA.AperFunction,Plated,PTH,ComponentDrill
T6C1.500
%
G90
G05
T1
X187.32Y-125.32
X189.25Y-93.25
X190.5Y-126.75
X194.5Y-126.75
X201.25Y-120.75
X207.5Y-89.75
X214.25Y-117.25
X214.25Y-122.25
X217.0Y-91.0
X219.0Y-128.5
X222.5Y-128.5
X223.75Y-133.25
X225.5Y-93.25
X228.0Y-93.25
T2
X179.48Y-97.32
X179.52Y-112.7
X182.02Y-97.32
X182.06Y-112.7
X184.537Y-97.286
X184.577Y-112.666
X187.1Y-97.32
X187.14Y-112.7
X189.64Y-97.32
X189.68Y-112.7
X192.18Y-97.32
X192.22Y-112.7
X194.72Y-97.32
X194.76Y-112.7
X197.26Y-97.32
X197.3Y-112.7
X199.8Y-97.32
X199.84Y-112.7
X202.34Y-97.32
X202.38Y-112.7
X204.88Y-97.32
X204.92Y-112.7
X207.42Y-97.32
X207.46Y-112.7
X209.96Y-97.32
X210.0Y-112.7
X212.5Y-97.32
X212.54Y-112.7
X215.04Y-97.32
X215.08Y-112.7
X217.58Y-97.32
X217.62Y-112.7
X220.12Y-97.32
X220.16Y-112.7
X222.66Y-97.32
X222.7Y-112.7
X225.2Y-97.32
X225.24Y-112.7
X227.74Y-97.32
X227.78Y-112.7
T3
X157.68Y-103.12
X160.22Y-103.12
X162.76Y-103.12
X165.3Y-103.12
X167.84Y-103.12
X170.38Y-103.12
T4
X111.493Y-122.147
X111.493Y-129.767
X114.033Y-122.147
X114.033Y-129.767
X170.232Y-122.742
X170.232Y-125.282
X177.852Y-122.742
X177.852Y-125.282
T5
X105.73Y-138.805
X108.27Y-138.805
X113.23Y-138.8
X115.77Y-138.8
X120.73Y-138.8
X123.27Y-138.8
X128.54Y-139.005
X131.08Y-139.005
X133.62Y-139.005
X139.04Y-139.005
X141.58Y-139.005
X144.12Y-139.005
X149.5Y-139.0
X152.04Y-139.0
X154.58Y-139.0
X160.0Y-139.0
X162.54Y-139.0
X165.08Y-139.0
X170.54Y-139.005
X173.08Y-139.005
X175.62Y-139.005
X181.04Y-139.0
X183.58Y-139.0
X186.12Y-139.0
X191.54Y-139.005
X194.08Y-139.005
X196.62Y-139.005
X202.04Y-139.005
X204.58Y-139.005
X207.12Y-139.005
X212.5Y-139.0
X215.04Y-139.0
X217.58Y-139.0
X223.0Y-139.0
X225.54Y-139.0
X228.08Y-139.0
T6
X108.0Y-92.5
X108.0Y-114.8
X111.1Y-92.5
X111.1Y-114.8
X118.6Y-92.5
X118.6Y-114.9
X121.6Y-92.5
X121.7Y-114.8
X127.7Y-100.3
X127.8Y-114.7
X136.2Y-100.3
X136.2Y-114.7
X141.7Y-100.4
X141.8Y-114.9
X150.2Y-100.4
X150.2Y-114.9
M30
