%TF.GenerationSoftware,KiCad,Pcbnew,9.0.2*%
%TF.CreationDate,2025-09-16T10:35:51+02:00*%
%TF.ProjectId,CeB_MP,4365425f-4d50-42e6-9b69-6361645f7063,rev?*%
%TF.SameCoordinates,Original*%
%TF.FileFunction,Paste,Top*%
%TF.FilePolarity,Positive*%
%FSLAX46Y46*%
G04 Gerber Fmt 4.6, Leading zero omitted, Abs format (unit mm)*
G04 Created by KiCad (PCBNEW 9.0.2) date 2025-09-16 10:35:51*
%MOMM*%
%LPD*%
G01*
G04 APERTURE LIST*
G04 Aperture macros list*
%AMRoundRect*
0 Rectangle with rounded corners*
0 $1 Rounding radius*
0 $2 $3 $4 $5 $6 $7 $8 $9 X,Y pos of 4 corners*
0 Add a 4 corners polygon primitive as box body*
4,1,4,$2,$3,$4,$5,$6,$7,$8,$9,$2,$3,0*
0 Add four circle primitives for the rounded corners*
1,1,$1+$1,$2,$3*
1,1,$1+$1,$4,$5*
1,1,$1+$1,$6,$7*
1,1,$1+$1,$8,$9*
0 Add four rect primitives between the rounded corners*
20,1,$1+$1,$2,$3,$4,$5,0*
20,1,$1+$1,$4,$5,$6,$7,0*
20,1,$1+$1,$6,$7,$8,$9,0*
20,1,$1+$1,$8,$9,$2,$3,0*%
G04 Aperture macros list end*
%ADD10RoundRect,0.250000X0.450000X-0.350000X0.450000X0.350000X-0.450000X0.350000X-0.450000X-0.350000X0*%
%ADD11RoundRect,0.237500X-0.237500X0.300000X-0.237500X-0.300000X0.237500X-0.300000X0.237500X0.300000X0*%
%ADD12RoundRect,0.250000X-0.450000X0.350000X-0.450000X-0.350000X0.450000X-0.350000X0.450000X0.350000X0*%
%ADD13RoundRect,0.250000X-0.350000X-0.450000X0.350000X-0.450000X0.350000X0.450000X-0.350000X0.450000X0*%
%ADD14RoundRect,0.250000X0.350000X0.450000X-0.350000X0.450000X-0.350000X-0.450000X0.350000X-0.450000X0*%
G04 APERTURE END LIST*
D10*
%TO.C,R23*%
X210000000Y-120820004D03*
X210000000Y-118820004D03*
%TD*%
D11*
%TO.C,C1*%
X187999997Y-120457503D03*
X187999999Y-122182509D03*
%TD*%
D12*
%TO.C,R24*%
X209500000Y-89820004D03*
X209500000Y-91820004D03*
%TD*%
D13*
%TO.C,R4*%
X194499998Y-125320001D03*
X196499998Y-125320001D03*
%TD*%
D14*
%TO.C,R17*%
X183732500Y-125242500D03*
X181732500Y-125242500D03*
%TD*%
D12*
%TO.C,R20*%
X160500000Y-128500000D03*
X160500000Y-130500000D03*
%TD*%
D13*
%TO.C,R15*%
X119500000Y-131500000D03*
X121500000Y-131500000D03*
%TD*%
D10*
%TO.C,R22*%
X219000000Y-92000000D03*
X219000000Y-90000000D03*
%TD*%
D12*
%TO.C,R3*%
X194450002Y-120320003D03*
X194450002Y-122320003D03*
%TD*%
%TO.C,R19*%
X157000000Y-128500000D03*
X157000000Y-130500000D03*
%TD*%
D10*
%TO.C,R6*%
X225500002Y-91820000D03*
X225500002Y-89820000D03*
%TD*%
%TO.C,R10*%
X218999994Y-132499998D03*
X218999994Y-130499998D03*
%TD*%
D13*
%TO.C,R13*%
X119750000Y-122250000D03*
X121750000Y-122250000D03*
%TD*%
D12*
%TO.C,R1*%
X190999993Y-120320004D03*
X190999993Y-122320004D03*
%TD*%
D11*
%TO.C,C3*%
X217499996Y-118957498D03*
X217499998Y-120682504D03*
%TD*%
D10*
%TO.C,R25*%
X194949997Y-91820002D03*
X194949997Y-89820002D03*
%TD*%
D12*
%TO.C,R12*%
X222499996Y-124499995D03*
X222499996Y-126499995D03*
%TD*%
D10*
%TO.C,R18*%
X214250000Y-121000000D03*
X214250000Y-119000000D03*
%TD*%
%TO.C,R21*%
X215000000Y-92000000D03*
X215000000Y-90000000D03*
%TD*%
%TO.C,R8*%
X202499995Y-120820001D03*
X202499995Y-118820001D03*
%TD*%
D12*
%TO.C,R9*%
X219000000Y-124499996D03*
X219000000Y-126499996D03*
%TD*%
D10*
%TO.C,R11*%
X222500000Y-132500000D03*
X222500000Y-130500000D03*
%TD*%
%TO.C,R7*%
X206499997Y-120820005D03*
X206499997Y-118820005D03*
%TD*%
D13*
%TO.C,R2*%
X190499995Y-125320005D03*
X192499995Y-125320005D03*
%TD*%
D11*
%TO.C,C5*%
X212500002Y-124957505D03*
X212500004Y-126682511D03*
%TD*%
%TO.C,C4*%
X206499999Y-123957500D03*
X206500001Y-125682506D03*
%TD*%
D14*
%TO.C,R14*%
X121500000Y-126500000D03*
X119500000Y-126500000D03*
%TD*%
D10*
%TO.C,R26*%
X191999995Y-91820002D03*
X191999995Y-89820002D03*
%TD*%
D14*
%TO.C,R16*%
X165732500Y-122742500D03*
X163732500Y-122742500D03*
%TD*%
D10*
%TO.C,R5*%
X228000003Y-91820007D03*
X228000003Y-89820007D03*
%TD*%
D11*
%TO.C,C2*%
X197999998Y-120457497D03*
X198000000Y-122182503D03*
%TD*%
M02*
