%TF.GenerationSoftware,KiCad,Pcbnew,9.0.2*%
%TF.CreationDate,2025-09-16T10:35:51+02:00*%
%TF.ProjectId,CeB_MP,4365425f-4d50-42e6-9b69-6361645f7063,rev?*%
%TF.SameCoordinates,Original*%
%TF.FileFunction,Soldermask,Bot*%
%TF.FilePolarity,Negative*%
%FSLAX46Y46*%
G04 Gerber Fmt 4.6, Leading zero omitted, Abs format (unit mm)*
G04 Created by KiCad (PCBNEW 9.0.2) date 2025-09-16 10:35:51*
%MOMM*%
%LPD*%
G01*
G04 APERTURE LIST*
G04 Aperture macros list*
%AMRoundRect*
0 Rectangle with rounded corners*
0 $1 Rounding radius*
0 $2 $3 $4 $5 $6 $7 $8 $9 X,Y pos of 4 corners*
0 Add a 4 corners polygon primitive as box body*
4,1,4,$2,$3,$4,$5,$6,$7,$8,$9,$2,$3,0*
0 Add four circle primitives for the rounded corners*
1,1,$1+$1,$2,$3*
1,1,$1+$1,$4,$5*
1,1,$1+$1,$6,$7*
1,1,$1+$1,$8,$9*
0 Add four rect primitives between the rounded corners*
20,1,$1+$1,$2,$3,$4,$5,0*
20,1,$1+$1,$4,$5,$6,$7,0*
20,1,$1+$1,$6,$7,$8,$9,0*
20,1,$1+$1,$8,$9,$2,$3,0*%
%AMOutline5P*
0 Free polygon, 5 corners , with rotation*
0 The origin of the aperture is its center*
0 number of corners: always 5*
0 $1 to $10 corner X, Y*
0 $11 Rotation angle, in degrees counterclockwise*
0 create outline with 5 corners*
4,1,5,$1,$2,$3,$4,$5,$6,$7,$8,$9,$10,$1,$2,$11*%
%AMOutline6P*
0 Free polygon, 6 corners , with rotation*
0 The origin of the aperture is its center*
0 number of corners: always 6*
0 $1 to $12 corner X, Y*
0 $13 Rotation angle, in degrees counterclockwise*
0 create outline with 6 corners*
4,1,6,$1,$2,$3,$4,$5,$6,$7,$8,$9,$10,$11,$12,$1,$2,$13*%
%AMOutline7P*
0 Free polygon, 7 corners , with rotation*
0 The origin of the aperture is its center*
0 number of corners: always 7*
0 $1 to $14 corner X, Y*
0 $15 Rotation angle, in degrees counterclockwise*
0 create outline with 7 corners*
4,1,7,$1,$2,$3,$4,$5,$6,$7,$8,$9,$10,$11,$12,$13,$14,$1,$2,$15*%
%AMOutline8P*
0 Free polygon, 8 corners , with rotation*
0 The origin of the aperture is its center*
0 number of corners: always 8*
0 $1 to $16 corner X, Y*
0 $17 Rotation angle, in degrees counterclockwise*
0 create outline with 8 corners*
4,1,8,$1,$2,$3,$4,$5,$6,$7,$8,$9,$10,$11,$12,$13,$14,$15,$16,$1,$2,$17*%
G04 Aperture macros list end*
%ADD10R,1.650000X1.650000*%
%ADD11C,1.650000*%
%ADD12Outline5P,-1.250000X0.750000X-0.750000X1.250000X1.250000X1.250000X1.250000X-1.250000X-1.250000X-1.250000X180.000000*%
%ADD13C,2.500000*%
%ADD14Outline5P,-1.250000X0.750000X-0.750000X1.250000X1.250000X1.250000X1.250000X-1.250000X-1.250000X-1.250000X0.000000*%
%ADD15RoundRect,0.250000X-0.550000X-0.550000X0.550000X-0.550000X0.550000X0.550000X-0.550000X0.550000X0*%
%ADD16C,1.600000*%
%ADD17C,1.540000*%
%ADD18RoundRect,0.250000X-0.650000X0.650000X-0.650000X-0.650000X0.650000X-0.650000X0.650000X0.650000X0*%
%ADD19C,1.800000*%
%ADD20RoundRect,0.250000X0.550000X-0.550000X0.550000X0.550000X-0.550000X0.550000X-0.550000X-0.550000X0*%
G04 APERTURE END LIST*
D10*
%TO.C,3V3*%
X120730000Y-138800000D03*
D11*
X123270000Y-138800000D03*
%TD*%
D12*
%TO.C,U5*%
X150200000Y-100400000D03*
D13*
X141700000Y-100400000D03*
X150200000Y-114900000D03*
X141800000Y-114900000D03*
%TD*%
D12*
%TO.C,U4*%
X136200001Y-100300000D03*
D13*
X127700001Y-100300000D03*
X136200001Y-114700000D03*
X127800001Y-114700000D03*
%TD*%
D14*
%TO.C,U3*%
X108000000Y-114800000D03*
X111100000Y-114800000D03*
D13*
X118600000Y-114900000D03*
X121700000Y-114800000D03*
X108000000Y-92500000D03*
X111100000Y-92500000D03*
X118600000Y-92500000D03*
X121600000Y-92500000D03*
%TD*%
D10*
%TO.C,SPD/TOT1*%
X181040000Y-139000000D03*
D11*
X183580000Y-139000000D03*
X186120000Y-139000000D03*
%TD*%
D10*
%TO.C,12V1*%
X128540000Y-139005000D03*
D11*
X131080000Y-139005000D03*
X133620000Y-139005000D03*
%TD*%
D10*
%TO.C,CUR1*%
X149500000Y-139000000D03*
D11*
X152040000Y-139000000D03*
X154580000Y-139000000D03*
%TD*%
D10*
%TO.C,TIN1*%
X191540000Y-139005000D03*
D11*
X194080000Y-139005000D03*
X196620000Y-139005000D03*
%TD*%
D15*
%TO.C,SW2*%
X170232500Y-122742500D03*
D16*
X170232500Y-125282500D03*
X177852500Y-125282500D03*
X177852500Y-122742500D03*
%TD*%
D17*
%TO.C,U2*%
X170380005Y-103120000D03*
X167840001Y-103120002D03*
X165299998Y-103120001D03*
X162760000Y-103120000D03*
X160220003Y-103119998D03*
X157680002Y-103120007D03*
%TD*%
D10*
%TO.C,PAS1*%
X202040000Y-139005000D03*
D11*
X204580000Y-139005000D03*
X207120000Y-139005000D03*
%TD*%
D10*
%TO.C,BRK/TMP1*%
X212500000Y-139000000D03*
D11*
X215040000Y-139000000D03*
X217580000Y-139000000D03*
%TD*%
D18*
%TO.C,U1*%
X227739999Y-97320002D03*
D19*
X225199997Y-97319998D03*
X222660000Y-97320002D03*
X220120002Y-97319996D03*
X217579999Y-97319999D03*
X215040000Y-97319999D03*
X212499997Y-97320000D03*
X209960000Y-97320000D03*
X207419995Y-97319996D03*
X204879997Y-97320005D03*
X202340002Y-97319999D03*
X199799997Y-97319994D03*
X197259995Y-97319997D03*
X194720000Y-97320000D03*
X192180003Y-97320002D03*
X189639998Y-97320000D03*
X187100000Y-97319999D03*
X184536964Y-97285505D03*
X182020006Y-97320003D03*
X179480000Y-97320000D03*
X179520000Y-112700000D03*
X182060002Y-112699999D03*
X184576964Y-112665504D03*
X187139997Y-112700003D03*
X189680000Y-112700000D03*
X192219999Y-112699999D03*
X194760000Y-112700000D03*
X197300004Y-112699994D03*
X199839999Y-112700006D03*
X202379998Y-112699998D03*
X204920001Y-112700005D03*
X207459999Y-112700007D03*
X210000000Y-112700000D03*
X212539999Y-112699995D03*
X215080001Y-112700003D03*
X217619998Y-112700001D03*
X220159997Y-112700002D03*
X222700001Y-112700000D03*
X225239998Y-112700000D03*
D18*
X227780000Y-112700000D03*
%TD*%
D10*
%TO.C,SCR2*%
X170540000Y-139005000D03*
D11*
X173080000Y-139005000D03*
X175620000Y-139005000D03*
%TD*%
D10*
%TO.C,VIN1*%
X139040000Y-139005000D03*
D11*
X141580000Y-139005000D03*
X144120000Y-139005000D03*
%TD*%
D10*
%TO.C,3V3/TS1*%
X223000000Y-139000000D03*
D11*
X225540000Y-139000000D03*
X228080000Y-139000000D03*
%TD*%
D10*
%TO.C,SCR1*%
X160000000Y-139000000D03*
D11*
X162540000Y-139000000D03*
X165080000Y-139000000D03*
%TD*%
D20*
%TO.C,SW1*%
X111492501Y-129767500D03*
D16*
X114032501Y-129767500D03*
X114032501Y-122147500D03*
X111492501Y-122147500D03*
%TD*%
D10*
%TO.C,UART1*%
X113230000Y-138800000D03*
D11*
X115770000Y-138800000D03*
%TD*%
D10*
%TO.C,SW3*%
X105730000Y-138805000D03*
D11*
X108270000Y-138805000D03*
%TD*%
M02*
