%TF.GenerationSoftware,KiCad,Pcbnew,9.0.2*%
%TF.CreationDate,2025-09-16T10:35:50+02:00*%
%TF.ProjectId,CeB_MP,4365425f-4d50-42e6-9b69-6361645f7063,rev?*%
%TF.SameCoordinates,Original*%
%TF.FileFunction,Drillmap*%
%TF.FilePolarity,Positive*%
%FSLAX45Y45*%
G04 Gerber Fmt 4.5, Leading zero omitted, Abs format (unit mm)*
G04 Created by KiCad (PCBNEW 9.0.2) date 2025-09-16 10:35:50*
%MOMM*%
%LPD*%
G01*
G04 APERTURE LIST*
%ADD10C,0.050000*%
%ADD11C,0.200000*%
G04 APERTURE END LIST*
D10*
X10025000Y-8700000D02*
X23675000Y-8700000D01*
X23675000Y-14800000D01*
X10025000Y-14800000D01*
X10025000Y-8700000D01*
D11*
X23626777Y-14575000D02*
G75*
G02*
X23273223Y-14575000I-176777J0D01*
G01*
X23273223Y-14575000D02*
G75*
G02*
X23626777Y-14575000I176777J0D01*
G01*
X10426777Y-14575000D02*
G75*
G02*
X10073223Y-14575000I-176777J0D01*
G01*
X10073223Y-14575000D02*
G75*
G02*
X10426777Y-14575000I176777J0D01*
G01*
X23626777Y-8925000D02*
G75*
G02*
X23273223Y-8925000I-176777J0D01*
G01*
X23273223Y-8925000D02*
G75*
G02*
X23626777Y-8925000I176777J0D01*
G01*
X10451777Y-8950000D02*
G75*
G02*
X10098223Y-8950000I-176777J0D01*
G01*
X10098223Y-8950000D02*
G75*
G02*
X10451777Y-8950000I176777J0D01*
G01*
X10283277Y-15113984D02*
X10283277Y-14913984D01*
X10283277Y-14913984D02*
X10330896Y-14913984D01*
X10330896Y-14913984D02*
X10359467Y-14923508D01*
X10359467Y-14923508D02*
X10378515Y-14942555D01*
X10378515Y-14942555D02*
X10388039Y-14961603D01*
X10388039Y-14961603D02*
X10397563Y-14999698D01*
X10397563Y-14999698D02*
X10397563Y-15028269D01*
X10397563Y-15028269D02*
X10388039Y-15066365D01*
X10388039Y-15066365D02*
X10378515Y-15085412D01*
X10378515Y-15085412D02*
X10359467Y-15104460D01*
X10359467Y-15104460D02*
X10330896Y-15113984D01*
X10330896Y-15113984D02*
X10283277Y-15113984D01*
X10483277Y-15113984D02*
X10483277Y-14980650D01*
X10483277Y-15018746D02*
X10492801Y-14999698D01*
X10492801Y-14999698D02*
X10502324Y-14990174D01*
X10502324Y-14990174D02*
X10521372Y-14980650D01*
X10521372Y-14980650D02*
X10540420Y-14980650D01*
X10607086Y-15113984D02*
X10607086Y-14980650D01*
X10607086Y-14913984D02*
X10597563Y-14923508D01*
X10597563Y-14923508D02*
X10607086Y-14933031D01*
X10607086Y-14933031D02*
X10616610Y-14923508D01*
X10616610Y-14923508D02*
X10607086Y-14913984D01*
X10607086Y-14913984D02*
X10607086Y-14933031D01*
X10730896Y-15113984D02*
X10711848Y-15104460D01*
X10711848Y-15104460D02*
X10702324Y-15085412D01*
X10702324Y-15085412D02*
X10702324Y-14913984D01*
X10835658Y-15113984D02*
X10816610Y-15104460D01*
X10816610Y-15104460D02*
X10807086Y-15085412D01*
X10807086Y-15085412D02*
X10807086Y-14913984D01*
X11064229Y-15113984D02*
X11064229Y-14913984D01*
X11064229Y-14913984D02*
X11130896Y-15056841D01*
X11130896Y-15056841D02*
X11197562Y-14913984D01*
X11197562Y-14913984D02*
X11197562Y-15113984D01*
X11378515Y-15113984D02*
X11378515Y-15009222D01*
X11378515Y-15009222D02*
X11368991Y-14990174D01*
X11368991Y-14990174D02*
X11349943Y-14980650D01*
X11349943Y-14980650D02*
X11311848Y-14980650D01*
X11311848Y-14980650D02*
X11292801Y-14990174D01*
X11378515Y-15104460D02*
X11359467Y-15113984D01*
X11359467Y-15113984D02*
X11311848Y-15113984D01*
X11311848Y-15113984D02*
X11292801Y-15104460D01*
X11292801Y-15104460D02*
X11283277Y-15085412D01*
X11283277Y-15085412D02*
X11283277Y-15066365D01*
X11283277Y-15066365D02*
X11292801Y-15047317D01*
X11292801Y-15047317D02*
X11311848Y-15037793D01*
X11311848Y-15037793D02*
X11359467Y-15037793D01*
X11359467Y-15037793D02*
X11378515Y-15028269D01*
X11473753Y-14980650D02*
X11473753Y-15180650D01*
X11473753Y-14990174D02*
X11492801Y-14980650D01*
X11492801Y-14980650D02*
X11530896Y-14980650D01*
X11530896Y-14980650D02*
X11549943Y-14990174D01*
X11549943Y-14990174D02*
X11559467Y-14999698D01*
X11559467Y-14999698D02*
X11568991Y-15018746D01*
X11568991Y-15018746D02*
X11568991Y-15075888D01*
X11568991Y-15075888D02*
X11559467Y-15094936D01*
X11559467Y-15094936D02*
X11549943Y-15104460D01*
X11549943Y-15104460D02*
X11530896Y-15113984D01*
X11530896Y-15113984D02*
X11492801Y-15113984D01*
X11492801Y-15113984D02*
X11473753Y-15104460D01*
X11654705Y-15094936D02*
X11664229Y-15104460D01*
X11664229Y-15104460D02*
X11654705Y-15113984D01*
X11654705Y-15113984D02*
X11645182Y-15104460D01*
X11645182Y-15104460D02*
X11654705Y-15094936D01*
X11654705Y-15094936D02*
X11654705Y-15113984D01*
X11654705Y-14990174D02*
X11664229Y-14999698D01*
X11664229Y-14999698D02*
X11654705Y-15009222D01*
X11654705Y-15009222D02*
X11645182Y-14999698D01*
X11645182Y-14999698D02*
X11654705Y-14990174D01*
X11654705Y-14990174D02*
X11654705Y-15009222D01*
M02*
