%TF.GenerationSoftware,KiCad,Pcbnew,9.0.2*%
%TF.CreationDate,2025-09-16T11:52:18+02:00*%
%TF.ProjectId,CeB_CURR_PCB,4365425f-4355-4525-925f-5043422e6b69,rev?*%
%TF.SameCoordinates,Original*%
%TF.FileFunction,Drillmap*%
%TF.FilePolarity,Positive*%
%FSLAX45Y45*%
G04 Gerber Fmt 4.5, Leading zero omitted, Abs format (unit mm)*
G04 Created by KiCad (PCBNEW 9.0.2) date 2025-09-16 11:52:18*
%MOMM*%
%LPD*%
G01*
G04 APERTURE LIST*
%ADD10C,0.050000*%
%ADD11C,0.200000*%
%ADD12C,0.100000*%
%ADD13C,0.150000*%
%ADD14C,0.180000*%
%ADD15C,0.270000*%
G04 APERTURE END LIST*
D10*
X10600000Y-5625000D02*
X13775000Y-5625000D01*
X13775000Y-9800000D01*
X10600000Y-9800000D01*
X10600000Y-5625000D01*
D11*
D12*
X13152499Y-7143000D02*
X13202499Y-7193000D01*
X13202499Y-7143000D02*
X13152499Y-7193000D01*
X13152500Y-8276000D02*
X13202500Y-8326000D01*
X13202500Y-8276000D02*
X13152500Y-8326000D01*
X13152500Y-7009000D02*
X13202500Y-7059000D01*
X13202500Y-7009000D02*
X13152500Y-7059000D01*
X13152500Y-7276000D02*
X13202500Y-7326000D01*
X13202500Y-7276000D02*
X13152500Y-7326000D01*
X13152500Y-8143000D02*
X13202500Y-8193000D01*
X13202500Y-8143000D02*
X13152500Y-8193000D01*
X13152500Y-6876000D02*
X13202500Y-6926000D01*
X13202500Y-6876000D02*
X13152500Y-6926000D01*
X13152500Y-7876000D02*
X13202500Y-7926000D01*
X13202500Y-7876000D02*
X13152500Y-7926000D01*
X13152500Y-8009000D02*
X13202500Y-8059000D01*
X13202500Y-8009000D02*
X13152500Y-8059000D01*
X13191500Y-6756000D02*
X13241500Y-6806000D01*
X13241500Y-6756000D02*
X13191500Y-6806000D01*
X13191500Y-7396000D02*
X13241500Y-7446000D01*
X13241500Y-7396000D02*
X13191500Y-7446000D01*
X13191500Y-7756000D02*
X13241500Y-7806000D01*
X13241500Y-7756000D02*
X13191500Y-7806000D01*
X13191500Y-8396000D02*
X13241500Y-8446000D01*
X13241500Y-8396000D02*
X13191500Y-8446000D01*
X13294500Y-6681000D02*
X13344500Y-6731000D01*
X13344500Y-6681000D02*
X13294500Y-6731000D01*
X13294500Y-8471000D02*
X13344500Y-8521000D01*
X13344500Y-8471000D02*
X13294500Y-8521000D01*
X13294500Y-7471000D02*
X13344500Y-7521000D01*
X13344500Y-7471000D02*
X13294500Y-7521000D01*
X13294500Y-7681000D02*
X13344500Y-7731000D01*
X13344500Y-7681000D02*
X13294500Y-7731000D01*
X13420500Y-7681000D02*
X13470500Y-7731000D01*
X13470500Y-7681000D02*
X13420500Y-7731000D01*
X13420500Y-6681000D02*
X13470500Y-6731000D01*
X13470500Y-6681000D02*
X13420500Y-6731000D01*
X13420500Y-8471000D02*
X13470500Y-8521000D01*
X13470500Y-8471000D02*
X13420500Y-8521000D01*
X13420500Y-7471000D02*
X13470500Y-7521000D01*
X13470500Y-7471000D02*
X13420500Y-7521000D01*
X13523500Y-7396000D02*
X13573500Y-7446000D01*
X13573500Y-7396000D02*
X13523500Y-7446000D01*
X13523500Y-6756000D02*
X13573500Y-6806000D01*
X13573500Y-6756000D02*
X13523500Y-6806000D01*
X13523500Y-7756000D02*
X13573500Y-7806000D01*
X13573500Y-7756000D02*
X13523500Y-7806000D01*
X13523500Y-8396000D02*
X13573500Y-8446000D01*
X13573500Y-8396000D02*
X13523500Y-8446000D01*
X13562500Y-7276000D02*
X13612500Y-7326000D01*
X13612500Y-7276000D02*
X13562500Y-7326000D01*
X13562500Y-8009000D02*
X13612500Y-8059000D01*
X13612500Y-8009000D02*
X13562500Y-8059000D01*
X13562500Y-6876000D02*
X13612500Y-6926000D01*
X13612500Y-6876000D02*
X13562500Y-6926000D01*
X13562500Y-7008999D02*
X13612500Y-7058999D01*
X13612500Y-7008999D02*
X13562500Y-7058999D01*
X13562500Y-7143000D02*
X13612500Y-7193000D01*
X13612500Y-7143000D02*
X13562500Y-7193000D01*
X13562500Y-8143000D02*
X13612500Y-8193000D01*
X13612500Y-8143000D02*
X13562500Y-8193000D01*
X13562500Y-8276000D02*
X13612500Y-8326000D01*
X13612500Y-8276000D02*
X13562500Y-8326000D01*
X13562500Y-7876000D02*
X13612500Y-7926000D01*
X13612500Y-7876000D02*
X13562500Y-7926000D01*
X11282500Y-7410000D02*
G75*
G02*
X11202500Y-7410000I-40000J0D01*
G01*
X11202500Y-7410000D02*
G75*
G02*
X11282500Y-7410000I40000J0D01*
G01*
X11282500Y-7792000D02*
G75*
G02*
X11202500Y-7792000I-40000J0D01*
G01*
X11202500Y-7792000D02*
G75*
G02*
X11282500Y-7792000I40000J0D01*
G01*
X11282500Y-7601000D02*
G75*
G02*
X11202500Y-7601000I-40000J0D01*
G01*
X11202500Y-7601000D02*
G75*
G02*
X11282500Y-7601000I40000J0D01*
G01*
D13*
X11075000Y-8425000D02*
X11075000Y-8575000D01*
X11000000Y-8500000D02*
X11150000Y-8500000D01*
X11100000Y-8925000D02*
X11100000Y-9075000D01*
X11025000Y-9000000D02*
X11175000Y-9000000D01*
X11100000Y-9475000D02*
X11100000Y-9625000D01*
X11025000Y-9550000D02*
X11175000Y-9550000D01*
X11525000Y-8425000D02*
X11525000Y-8575000D01*
X11450000Y-8500000D02*
X11600000Y-8500000D01*
X11525000Y-8925000D02*
X11525000Y-9075000D01*
X11450000Y-9000000D02*
X11600000Y-9000000D01*
X11525000Y-9475000D02*
X11525000Y-9625000D01*
X11450000Y-9550000D02*
X11600000Y-9550000D01*
D14*
X12138640Y-9672390D02*
X12138640Y-9545110D01*
X12011360Y-9545110D01*
X12011360Y-9672390D01*
X12138640Y-9672390D01*
X12163640Y-5879890D02*
X12163640Y-5752610D01*
X12036360Y-5752610D01*
X12036360Y-5879890D01*
X12163640Y-5879890D01*
X13488640Y-9672391D02*
X13488640Y-9545110D01*
X13361360Y-9545110D01*
X13361360Y-9672391D01*
X13488640Y-9672391D01*
X13513640Y-5879890D02*
X13513640Y-5752610D01*
X13386360Y-5752610D01*
X13386360Y-5879890D01*
X13513640Y-5879890D01*
D11*
X13382500Y-7201000D02*
X13482500Y-7101000D01*
X13382500Y-7001000D01*
X13282500Y-7101000D01*
X13382500Y-7201000D01*
D12*
X13282500Y-6901000D02*
X13282500Y-7301000D01*
X13482500Y-7301000D02*
G75*
G02*
X13282500Y-7301000I-100000J0D01*
G01*
X13482500Y-7301000D02*
X13482500Y-6901000D01*
X13482500Y-6901000D02*
G75*
G03*
X13282500Y-6901000I-100000J0D01*
G01*
D11*
X13382500Y-8201000D02*
X13482500Y-8101000D01*
X13382500Y-8001000D01*
X13282500Y-8101000D01*
X13382500Y-8201000D01*
D12*
X13282500Y-7901000D02*
X13282500Y-8301000D01*
X13482500Y-8301000D02*
G75*
G02*
X13282500Y-8301000I-100000J0D01*
G01*
X13482500Y-8301000D02*
X13482500Y-7901000D01*
X13482500Y-7901000D02*
G75*
G03*
X13282500Y-7901000I-100000J0D01*
G01*
D15*
X12255000Y-8873750D02*
X12525000Y-9143750D01*
X12525000Y-8873750D02*
X12255000Y-9143750D01*
X12525000Y-9008750D02*
G75*
G02*
X12255000Y-9008750I-135000J0D01*
G01*
X12255000Y-9008750D02*
G75*
G02*
X12525000Y-9008750I135000J0D01*
G01*
X12280000Y-6281250D02*
X12550000Y-6551250D01*
X12550000Y-6281250D02*
X12280000Y-6551250D01*
X12550000Y-6416250D02*
G75*
G02*
X12280000Y-6416250I-135000J0D01*
G01*
X12280000Y-6416250D02*
G75*
G02*
X12550000Y-6416250I135000J0D01*
G01*
X12975000Y-8873750D02*
X13245000Y-9143750D01*
X13245000Y-8873750D02*
X12975000Y-9143750D01*
X13245000Y-9008750D02*
G75*
G02*
X12975000Y-9008750I-135000J0D01*
G01*
X12975000Y-9008750D02*
G75*
G02*
X13245000Y-9008750I135000J0D01*
G01*
X13000000Y-6281250D02*
X13270000Y-6551250D01*
X13270000Y-6281250D02*
X13000000Y-6551250D01*
X13270000Y-6416250D02*
G75*
G02*
X13000000Y-6416250I-135000J0D01*
G01*
X13000000Y-6416250D02*
G75*
G02*
X13270000Y-6416250I135000J0D01*
G01*
D11*
X10858277Y-10113984D02*
X10858277Y-9913984D01*
X10858277Y-9913984D02*
X10905896Y-9913984D01*
X10905896Y-9913984D02*
X10934467Y-9923508D01*
X10934467Y-9923508D02*
X10953515Y-9942555D01*
X10953515Y-9942555D02*
X10963039Y-9961603D01*
X10963039Y-9961603D02*
X10972563Y-9999698D01*
X10972563Y-9999698D02*
X10972563Y-10028270D01*
X10972563Y-10028270D02*
X10963039Y-10066365D01*
X10963039Y-10066365D02*
X10953515Y-10085412D01*
X10953515Y-10085412D02*
X10934467Y-10104460D01*
X10934467Y-10104460D02*
X10905896Y-10113984D01*
X10905896Y-10113984D02*
X10858277Y-10113984D01*
X11058277Y-10113984D02*
X11058277Y-9980650D01*
X11058277Y-10018746D02*
X11067801Y-9999698D01*
X11067801Y-9999698D02*
X11077324Y-9990174D01*
X11077324Y-9990174D02*
X11096372Y-9980650D01*
X11096372Y-9980650D02*
X11115420Y-9980650D01*
X11182086Y-10113984D02*
X11182086Y-9980650D01*
X11182086Y-9913984D02*
X11172563Y-9923508D01*
X11172563Y-9923508D02*
X11182086Y-9933031D01*
X11182086Y-9933031D02*
X11191610Y-9923508D01*
X11191610Y-9923508D02*
X11182086Y-9913984D01*
X11182086Y-9913984D02*
X11182086Y-9933031D01*
X11305896Y-10113984D02*
X11286848Y-10104460D01*
X11286848Y-10104460D02*
X11277324Y-10085412D01*
X11277324Y-10085412D02*
X11277324Y-9913984D01*
X11410658Y-10113984D02*
X11391610Y-10104460D01*
X11391610Y-10104460D02*
X11382086Y-10085412D01*
X11382086Y-10085412D02*
X11382086Y-9913984D01*
X11639229Y-10113984D02*
X11639229Y-9913984D01*
X11639229Y-9913984D02*
X11705896Y-10056841D01*
X11705896Y-10056841D02*
X11772562Y-9913984D01*
X11772562Y-9913984D02*
X11772562Y-10113984D01*
X11953515Y-10113984D02*
X11953515Y-10009222D01*
X11953515Y-10009222D02*
X11943991Y-9990174D01*
X11943991Y-9990174D02*
X11924943Y-9980650D01*
X11924943Y-9980650D02*
X11886848Y-9980650D01*
X11886848Y-9980650D02*
X11867801Y-9990174D01*
X11953515Y-10104460D02*
X11934467Y-10113984D01*
X11934467Y-10113984D02*
X11886848Y-10113984D01*
X11886848Y-10113984D02*
X11867801Y-10104460D01*
X11867801Y-10104460D02*
X11858277Y-10085412D01*
X11858277Y-10085412D02*
X11858277Y-10066365D01*
X11858277Y-10066365D02*
X11867801Y-10047317D01*
X11867801Y-10047317D02*
X11886848Y-10037793D01*
X11886848Y-10037793D02*
X11934467Y-10037793D01*
X11934467Y-10037793D02*
X11953515Y-10028270D01*
X12048753Y-9980650D02*
X12048753Y-10180650D01*
X12048753Y-9990174D02*
X12067801Y-9980650D01*
X12067801Y-9980650D02*
X12105896Y-9980650D01*
X12105896Y-9980650D02*
X12124943Y-9990174D01*
X12124943Y-9990174D02*
X12134467Y-9999698D01*
X12134467Y-9999698D02*
X12143991Y-10018746D01*
X12143991Y-10018746D02*
X12143991Y-10075889D01*
X12143991Y-10075889D02*
X12134467Y-10094936D01*
X12134467Y-10094936D02*
X12124943Y-10104460D01*
X12124943Y-10104460D02*
X12105896Y-10113984D01*
X12105896Y-10113984D02*
X12067801Y-10113984D01*
X12067801Y-10113984D02*
X12048753Y-10104460D01*
X12229705Y-10094936D02*
X12239229Y-10104460D01*
X12239229Y-10104460D02*
X12229705Y-10113984D01*
X12229705Y-10113984D02*
X12220182Y-10104460D01*
X12220182Y-10104460D02*
X12229705Y-10094936D01*
X12229705Y-10094936D02*
X12229705Y-10113984D01*
X12229705Y-9990174D02*
X12239229Y-9999698D01*
X12239229Y-9999698D02*
X12229705Y-10009222D01*
X12229705Y-10009222D02*
X12220182Y-9999698D01*
X12220182Y-9999698D02*
X12229705Y-9990174D01*
X12229705Y-9990174D02*
X12229705Y-10009222D01*
D12*
X10547500Y-10417500D02*
X10597500Y-10467500D01*
X10597500Y-10417500D02*
X10547500Y-10467500D01*
D11*
X10896372Y-10333984D02*
X10915420Y-10333984D01*
X10915420Y-10333984D02*
X10934467Y-10343508D01*
X10934467Y-10343508D02*
X10943991Y-10353031D01*
X10943991Y-10353031D02*
X10953515Y-10372079D01*
X10953515Y-10372079D02*
X10963039Y-10410174D01*
X10963039Y-10410174D02*
X10963039Y-10457793D01*
X10963039Y-10457793D02*
X10953515Y-10495889D01*
X10953515Y-10495889D02*
X10943991Y-10514936D01*
X10943991Y-10514936D02*
X10934467Y-10524460D01*
X10934467Y-10524460D02*
X10915420Y-10533984D01*
X10915420Y-10533984D02*
X10896372Y-10533984D01*
X10896372Y-10533984D02*
X10877324Y-10524460D01*
X10877324Y-10524460D02*
X10867801Y-10514936D01*
X10867801Y-10514936D02*
X10858277Y-10495889D01*
X10858277Y-10495889D02*
X10848753Y-10457793D01*
X10848753Y-10457793D02*
X10848753Y-10410174D01*
X10848753Y-10410174D02*
X10858277Y-10372079D01*
X10858277Y-10372079D02*
X10867801Y-10353031D01*
X10867801Y-10353031D02*
X10877324Y-10343508D01*
X10877324Y-10343508D02*
X10896372Y-10333984D01*
X11048753Y-10514936D02*
X11058277Y-10524460D01*
X11058277Y-10524460D02*
X11048753Y-10533984D01*
X11048753Y-10533984D02*
X11039229Y-10524460D01*
X11039229Y-10524460D02*
X11048753Y-10514936D01*
X11048753Y-10514936D02*
X11048753Y-10533984D01*
X11239229Y-10333984D02*
X11143991Y-10333984D01*
X11143991Y-10333984D02*
X11134467Y-10429222D01*
X11134467Y-10429222D02*
X11143991Y-10419698D01*
X11143991Y-10419698D02*
X11163039Y-10410174D01*
X11163039Y-10410174D02*
X11210658Y-10410174D01*
X11210658Y-10410174D02*
X11229705Y-10419698D01*
X11229705Y-10419698D02*
X11239229Y-10429222D01*
X11239229Y-10429222D02*
X11248753Y-10448270D01*
X11248753Y-10448270D02*
X11248753Y-10495889D01*
X11248753Y-10495889D02*
X11239229Y-10514936D01*
X11239229Y-10514936D02*
X11229705Y-10524460D01*
X11229705Y-10524460D02*
X11210658Y-10533984D01*
X11210658Y-10533984D02*
X11163039Y-10533984D01*
X11163039Y-10533984D02*
X11143991Y-10524460D01*
X11143991Y-10524460D02*
X11134467Y-10514936D01*
X11372562Y-10333984D02*
X11391610Y-10333984D01*
X11391610Y-10333984D02*
X11410658Y-10343508D01*
X11410658Y-10343508D02*
X11420182Y-10353031D01*
X11420182Y-10353031D02*
X11429705Y-10372079D01*
X11429705Y-10372079D02*
X11439229Y-10410174D01*
X11439229Y-10410174D02*
X11439229Y-10457793D01*
X11439229Y-10457793D02*
X11429705Y-10495889D01*
X11429705Y-10495889D02*
X11420182Y-10514936D01*
X11420182Y-10514936D02*
X11410658Y-10524460D01*
X11410658Y-10524460D02*
X11391610Y-10533984D01*
X11391610Y-10533984D02*
X11372562Y-10533984D01*
X11372562Y-10533984D02*
X11353515Y-10524460D01*
X11353515Y-10524460D02*
X11343991Y-10514936D01*
X11343991Y-10514936D02*
X11334467Y-10495889D01*
X11334467Y-10495889D02*
X11324943Y-10457793D01*
X11324943Y-10457793D02*
X11324943Y-10410174D01*
X11324943Y-10410174D02*
X11334467Y-10372079D01*
X11334467Y-10372079D02*
X11343991Y-10353031D01*
X11343991Y-10353031D02*
X11353515Y-10343508D01*
X11353515Y-10343508D02*
X11372562Y-10333984D01*
X11563039Y-10333984D02*
X11582086Y-10333984D01*
X11582086Y-10333984D02*
X11601134Y-10343508D01*
X11601134Y-10343508D02*
X11610658Y-10353031D01*
X11610658Y-10353031D02*
X11620182Y-10372079D01*
X11620182Y-10372079D02*
X11629705Y-10410174D01*
X11629705Y-10410174D02*
X11629705Y-10457793D01*
X11629705Y-10457793D02*
X11620182Y-10495889D01*
X11620182Y-10495889D02*
X11610658Y-10514936D01*
X11610658Y-10514936D02*
X11601134Y-10524460D01*
X11601134Y-10524460D02*
X11582086Y-10533984D01*
X11582086Y-10533984D02*
X11563039Y-10533984D01*
X11563039Y-10533984D02*
X11543991Y-10524460D01*
X11543991Y-10524460D02*
X11534467Y-10514936D01*
X11534467Y-10514936D02*
X11524943Y-10495889D01*
X11524943Y-10495889D02*
X11515420Y-10457793D01*
X11515420Y-10457793D02*
X11515420Y-10410174D01*
X11515420Y-10410174D02*
X11524943Y-10372079D01*
X11524943Y-10372079D02*
X11534467Y-10353031D01*
X11534467Y-10353031D02*
X11543991Y-10343508D01*
X11543991Y-10343508D02*
X11563039Y-10333984D01*
X11715420Y-10533984D02*
X11715420Y-10400650D01*
X11715420Y-10419698D02*
X11724943Y-10410174D01*
X11724943Y-10410174D02*
X11743991Y-10400650D01*
X11743991Y-10400650D02*
X11772563Y-10400650D01*
X11772563Y-10400650D02*
X11791610Y-10410174D01*
X11791610Y-10410174D02*
X11801134Y-10429222D01*
X11801134Y-10429222D02*
X11801134Y-10533984D01*
X11801134Y-10429222D02*
X11810658Y-10410174D01*
X11810658Y-10410174D02*
X11829705Y-10400650D01*
X11829705Y-10400650D02*
X11858277Y-10400650D01*
X11858277Y-10400650D02*
X11877324Y-10410174D01*
X11877324Y-10410174D02*
X11886848Y-10429222D01*
X11886848Y-10429222D02*
X11886848Y-10533984D01*
X11982086Y-10533984D02*
X11982086Y-10400650D01*
X11982086Y-10419698D02*
X11991610Y-10410174D01*
X11991610Y-10410174D02*
X12010658Y-10400650D01*
X12010658Y-10400650D02*
X12039229Y-10400650D01*
X12039229Y-10400650D02*
X12058277Y-10410174D01*
X12058277Y-10410174D02*
X12067801Y-10429222D01*
X12067801Y-10429222D02*
X12067801Y-10533984D01*
X12067801Y-10429222D02*
X12077324Y-10410174D01*
X12077324Y-10410174D02*
X12096372Y-10400650D01*
X12096372Y-10400650D02*
X12124943Y-10400650D01*
X12124943Y-10400650D02*
X12143991Y-10410174D01*
X12143991Y-10410174D02*
X12153515Y-10429222D01*
X12153515Y-10429222D02*
X12153515Y-10533984D01*
X12543991Y-10324460D02*
X12372563Y-10581603D01*
X12801134Y-10333984D02*
X12820182Y-10333984D01*
X12820182Y-10333984D02*
X12839229Y-10343508D01*
X12839229Y-10343508D02*
X12848753Y-10353031D01*
X12848753Y-10353031D02*
X12858277Y-10372079D01*
X12858277Y-10372079D02*
X12867801Y-10410174D01*
X12867801Y-10410174D02*
X12867801Y-10457793D01*
X12867801Y-10457793D02*
X12858277Y-10495889D01*
X12858277Y-10495889D02*
X12848753Y-10514936D01*
X12848753Y-10514936D02*
X12839229Y-10524460D01*
X12839229Y-10524460D02*
X12820182Y-10533984D01*
X12820182Y-10533984D02*
X12801134Y-10533984D01*
X12801134Y-10533984D02*
X12782086Y-10524460D01*
X12782086Y-10524460D02*
X12772563Y-10514936D01*
X12772563Y-10514936D02*
X12763039Y-10495889D01*
X12763039Y-10495889D02*
X12753515Y-10457793D01*
X12753515Y-10457793D02*
X12753515Y-10410174D01*
X12753515Y-10410174D02*
X12763039Y-10372079D01*
X12763039Y-10372079D02*
X12772563Y-10353031D01*
X12772563Y-10353031D02*
X12782086Y-10343508D01*
X12782086Y-10343508D02*
X12801134Y-10333984D01*
X12953515Y-10514936D02*
X12963039Y-10524460D01*
X12963039Y-10524460D02*
X12953515Y-10533984D01*
X12953515Y-10533984D02*
X12943991Y-10524460D01*
X12943991Y-10524460D02*
X12953515Y-10514936D01*
X12953515Y-10514936D02*
X12953515Y-10533984D01*
X13086848Y-10333984D02*
X13105896Y-10333984D01*
X13105896Y-10333984D02*
X13124944Y-10343508D01*
X13124944Y-10343508D02*
X13134467Y-10353031D01*
X13134467Y-10353031D02*
X13143991Y-10372079D01*
X13143991Y-10372079D02*
X13153515Y-10410174D01*
X13153515Y-10410174D02*
X13153515Y-10457793D01*
X13153515Y-10457793D02*
X13143991Y-10495889D01*
X13143991Y-10495889D02*
X13134467Y-10514936D01*
X13134467Y-10514936D02*
X13124944Y-10524460D01*
X13124944Y-10524460D02*
X13105896Y-10533984D01*
X13105896Y-10533984D02*
X13086848Y-10533984D01*
X13086848Y-10533984D02*
X13067801Y-10524460D01*
X13067801Y-10524460D02*
X13058277Y-10514936D01*
X13058277Y-10514936D02*
X13048753Y-10495889D01*
X13048753Y-10495889D02*
X13039229Y-10457793D01*
X13039229Y-10457793D02*
X13039229Y-10410174D01*
X13039229Y-10410174D02*
X13048753Y-10372079D01*
X13048753Y-10372079D02*
X13058277Y-10353031D01*
X13058277Y-10353031D02*
X13067801Y-10343508D01*
X13067801Y-10343508D02*
X13086848Y-10333984D01*
X13343991Y-10533984D02*
X13229706Y-10533984D01*
X13286848Y-10533984D02*
X13286848Y-10333984D01*
X13286848Y-10333984D02*
X13267801Y-10362555D01*
X13267801Y-10362555D02*
X13248753Y-10381603D01*
X13248753Y-10381603D02*
X13229706Y-10391127D01*
X13439229Y-10533984D02*
X13477325Y-10533984D01*
X13477325Y-10533984D02*
X13496372Y-10524460D01*
X13496372Y-10524460D02*
X13505896Y-10514936D01*
X13505896Y-10514936D02*
X13524944Y-10486365D01*
X13524944Y-10486365D02*
X13534467Y-10448270D01*
X13534467Y-10448270D02*
X13534467Y-10372079D01*
X13534467Y-10372079D02*
X13524944Y-10353031D01*
X13524944Y-10353031D02*
X13515420Y-10343508D01*
X13515420Y-10343508D02*
X13496372Y-10333984D01*
X13496372Y-10333984D02*
X13458277Y-10333984D01*
X13458277Y-10333984D02*
X13439229Y-10343508D01*
X13439229Y-10343508D02*
X13429706Y-10353031D01*
X13429706Y-10353031D02*
X13420182Y-10372079D01*
X13420182Y-10372079D02*
X13420182Y-10419698D01*
X13420182Y-10419698D02*
X13429706Y-10438746D01*
X13429706Y-10438746D02*
X13439229Y-10448270D01*
X13439229Y-10448270D02*
X13458277Y-10457793D01*
X13458277Y-10457793D02*
X13496372Y-10457793D01*
X13496372Y-10457793D02*
X13515420Y-10448270D01*
X13515420Y-10448270D02*
X13524944Y-10438746D01*
X13524944Y-10438746D02*
X13534467Y-10419698D01*
X13601134Y-10333984D02*
X13734467Y-10333984D01*
X13734467Y-10333984D02*
X13648753Y-10533984D01*
X13801134Y-10333984D02*
X13801134Y-10372079D01*
X13877325Y-10333984D02*
X13877325Y-10372079D01*
X14172563Y-10610174D02*
X14163039Y-10600650D01*
X14163039Y-10600650D02*
X14143991Y-10572079D01*
X14143991Y-10572079D02*
X14134468Y-10553031D01*
X14134468Y-10553031D02*
X14124944Y-10524460D01*
X14124944Y-10524460D02*
X14115420Y-10476841D01*
X14115420Y-10476841D02*
X14115420Y-10438746D01*
X14115420Y-10438746D02*
X14124944Y-10391127D01*
X14124944Y-10391127D02*
X14134468Y-10362555D01*
X14134468Y-10362555D02*
X14143991Y-10343508D01*
X14143991Y-10343508D02*
X14163039Y-10314936D01*
X14163039Y-10314936D02*
X14172563Y-10305412D01*
X14229706Y-10333984D02*
X14353515Y-10333984D01*
X14353515Y-10333984D02*
X14286848Y-10410174D01*
X14286848Y-10410174D02*
X14315420Y-10410174D01*
X14315420Y-10410174D02*
X14334468Y-10419698D01*
X14334468Y-10419698D02*
X14343991Y-10429222D01*
X14343991Y-10429222D02*
X14353515Y-10448270D01*
X14353515Y-10448270D02*
X14353515Y-10495889D01*
X14353515Y-10495889D02*
X14343991Y-10514936D01*
X14343991Y-10514936D02*
X14334468Y-10524460D01*
X14334468Y-10524460D02*
X14315420Y-10533984D01*
X14315420Y-10533984D02*
X14258277Y-10533984D01*
X14258277Y-10533984D02*
X14239229Y-10524460D01*
X14239229Y-10524460D02*
X14229706Y-10514936D01*
X14429706Y-10353031D02*
X14439229Y-10343508D01*
X14439229Y-10343508D02*
X14458277Y-10333984D01*
X14458277Y-10333984D02*
X14505896Y-10333984D01*
X14505896Y-10333984D02*
X14524944Y-10343508D01*
X14524944Y-10343508D02*
X14534468Y-10353031D01*
X14534468Y-10353031D02*
X14543991Y-10372079D01*
X14543991Y-10372079D02*
X14543991Y-10391127D01*
X14543991Y-10391127D02*
X14534468Y-10419698D01*
X14534468Y-10419698D02*
X14420182Y-10533984D01*
X14420182Y-10533984D02*
X14543991Y-10533984D01*
X14782087Y-10533984D02*
X14782087Y-10333984D01*
X14867801Y-10533984D02*
X14867801Y-10429222D01*
X14867801Y-10429222D02*
X14858277Y-10410174D01*
X14858277Y-10410174D02*
X14839230Y-10400650D01*
X14839230Y-10400650D02*
X14810658Y-10400650D01*
X14810658Y-10400650D02*
X14791610Y-10410174D01*
X14791610Y-10410174D02*
X14782087Y-10419698D01*
X14991610Y-10533984D02*
X14972563Y-10524460D01*
X14972563Y-10524460D02*
X14963039Y-10514936D01*
X14963039Y-10514936D02*
X14953515Y-10495889D01*
X14953515Y-10495889D02*
X14953515Y-10438746D01*
X14953515Y-10438746D02*
X14963039Y-10419698D01*
X14963039Y-10419698D02*
X14972563Y-10410174D01*
X14972563Y-10410174D02*
X14991610Y-10400650D01*
X14991610Y-10400650D02*
X15020182Y-10400650D01*
X15020182Y-10400650D02*
X15039230Y-10410174D01*
X15039230Y-10410174D02*
X15048753Y-10419698D01*
X15048753Y-10419698D02*
X15058277Y-10438746D01*
X15058277Y-10438746D02*
X15058277Y-10495889D01*
X15058277Y-10495889D02*
X15048753Y-10514936D01*
X15048753Y-10514936D02*
X15039230Y-10524460D01*
X15039230Y-10524460D02*
X15020182Y-10533984D01*
X15020182Y-10533984D02*
X14991610Y-10533984D01*
X15172563Y-10533984D02*
X15153515Y-10524460D01*
X15153515Y-10524460D02*
X15143991Y-10505412D01*
X15143991Y-10505412D02*
X15143991Y-10333984D01*
X15324944Y-10524460D02*
X15305896Y-10533984D01*
X15305896Y-10533984D02*
X15267801Y-10533984D01*
X15267801Y-10533984D02*
X15248753Y-10524460D01*
X15248753Y-10524460D02*
X15239230Y-10505412D01*
X15239230Y-10505412D02*
X15239230Y-10429222D01*
X15239230Y-10429222D02*
X15248753Y-10410174D01*
X15248753Y-10410174D02*
X15267801Y-10400650D01*
X15267801Y-10400650D02*
X15305896Y-10400650D01*
X15305896Y-10400650D02*
X15324944Y-10410174D01*
X15324944Y-10410174D02*
X15334468Y-10429222D01*
X15334468Y-10429222D02*
X15334468Y-10448270D01*
X15334468Y-10448270D02*
X15239230Y-10467317D01*
X15410658Y-10524460D02*
X15429706Y-10533984D01*
X15429706Y-10533984D02*
X15467801Y-10533984D01*
X15467801Y-10533984D02*
X15486849Y-10524460D01*
X15486849Y-10524460D02*
X15496372Y-10505412D01*
X15496372Y-10505412D02*
X15496372Y-10495889D01*
X15496372Y-10495889D02*
X15486849Y-10476841D01*
X15486849Y-10476841D02*
X15467801Y-10467317D01*
X15467801Y-10467317D02*
X15439230Y-10467317D01*
X15439230Y-10467317D02*
X15420182Y-10457793D01*
X15420182Y-10457793D02*
X15410658Y-10438746D01*
X15410658Y-10438746D02*
X15410658Y-10429222D01*
X15410658Y-10429222D02*
X15420182Y-10410174D01*
X15420182Y-10410174D02*
X15439230Y-10400650D01*
X15439230Y-10400650D02*
X15467801Y-10400650D01*
X15467801Y-10400650D02*
X15486849Y-10410174D01*
X15563039Y-10610174D02*
X15572563Y-10600650D01*
X15572563Y-10600650D02*
X15591611Y-10572079D01*
X15591611Y-10572079D02*
X15601134Y-10553031D01*
X15601134Y-10553031D02*
X15610658Y-10524460D01*
X15610658Y-10524460D02*
X15620182Y-10476841D01*
X15620182Y-10476841D02*
X15620182Y-10438746D01*
X15620182Y-10438746D02*
X15610658Y-10391127D01*
X15610658Y-10391127D02*
X15601134Y-10362555D01*
X15601134Y-10362555D02*
X15591611Y-10343508D01*
X15591611Y-10343508D02*
X15572563Y-10314936D01*
X15572563Y-10314936D02*
X15563039Y-10305412D01*
D12*
X10597500Y-10706500D02*
G75*
G02*
X10517500Y-10706500I-40000J0D01*
G01*
X10517500Y-10706500D02*
G75*
G02*
X10597500Y-10706500I40000J0D01*
G01*
D11*
X10896372Y-10597984D02*
X10915420Y-10597984D01*
X10915420Y-10597984D02*
X10934467Y-10607508D01*
X10934467Y-10607508D02*
X10943991Y-10617031D01*
X10943991Y-10617031D02*
X10953515Y-10636079D01*
X10953515Y-10636079D02*
X10963039Y-10674174D01*
X10963039Y-10674174D02*
X10963039Y-10721793D01*
X10963039Y-10721793D02*
X10953515Y-10759889D01*
X10953515Y-10759889D02*
X10943991Y-10778936D01*
X10943991Y-10778936D02*
X10934467Y-10788460D01*
X10934467Y-10788460D02*
X10915420Y-10797984D01*
X10915420Y-10797984D02*
X10896372Y-10797984D01*
X10896372Y-10797984D02*
X10877324Y-10788460D01*
X10877324Y-10788460D02*
X10867801Y-10778936D01*
X10867801Y-10778936D02*
X10858277Y-10759889D01*
X10858277Y-10759889D02*
X10848753Y-10721793D01*
X10848753Y-10721793D02*
X10848753Y-10674174D01*
X10848753Y-10674174D02*
X10858277Y-10636079D01*
X10858277Y-10636079D02*
X10867801Y-10617031D01*
X10867801Y-10617031D02*
X10877324Y-10607508D01*
X10877324Y-10607508D02*
X10896372Y-10597984D01*
X11048753Y-10778936D02*
X11058277Y-10788460D01*
X11058277Y-10788460D02*
X11048753Y-10797984D01*
X11048753Y-10797984D02*
X11039229Y-10788460D01*
X11039229Y-10788460D02*
X11048753Y-10778936D01*
X11048753Y-10778936D02*
X11048753Y-10797984D01*
X11172563Y-10683698D02*
X11153515Y-10674174D01*
X11153515Y-10674174D02*
X11143991Y-10664650D01*
X11143991Y-10664650D02*
X11134467Y-10645603D01*
X11134467Y-10645603D02*
X11134467Y-10636079D01*
X11134467Y-10636079D02*
X11143991Y-10617031D01*
X11143991Y-10617031D02*
X11153515Y-10607508D01*
X11153515Y-10607508D02*
X11172563Y-10597984D01*
X11172563Y-10597984D02*
X11210658Y-10597984D01*
X11210658Y-10597984D02*
X11229705Y-10607508D01*
X11229705Y-10607508D02*
X11239229Y-10617031D01*
X11239229Y-10617031D02*
X11248753Y-10636079D01*
X11248753Y-10636079D02*
X11248753Y-10645603D01*
X11248753Y-10645603D02*
X11239229Y-10664650D01*
X11239229Y-10664650D02*
X11229705Y-10674174D01*
X11229705Y-10674174D02*
X11210658Y-10683698D01*
X11210658Y-10683698D02*
X11172563Y-10683698D01*
X11172563Y-10683698D02*
X11153515Y-10693222D01*
X11153515Y-10693222D02*
X11143991Y-10702746D01*
X11143991Y-10702746D02*
X11134467Y-10721793D01*
X11134467Y-10721793D02*
X11134467Y-10759889D01*
X11134467Y-10759889D02*
X11143991Y-10778936D01*
X11143991Y-10778936D02*
X11153515Y-10788460D01*
X11153515Y-10788460D02*
X11172563Y-10797984D01*
X11172563Y-10797984D02*
X11210658Y-10797984D01*
X11210658Y-10797984D02*
X11229705Y-10788460D01*
X11229705Y-10788460D02*
X11239229Y-10778936D01*
X11239229Y-10778936D02*
X11248753Y-10759889D01*
X11248753Y-10759889D02*
X11248753Y-10721793D01*
X11248753Y-10721793D02*
X11239229Y-10702746D01*
X11239229Y-10702746D02*
X11229705Y-10693222D01*
X11229705Y-10693222D02*
X11210658Y-10683698D01*
X11372562Y-10597984D02*
X11391610Y-10597984D01*
X11391610Y-10597984D02*
X11410658Y-10607508D01*
X11410658Y-10607508D02*
X11420182Y-10617031D01*
X11420182Y-10617031D02*
X11429705Y-10636079D01*
X11429705Y-10636079D02*
X11439229Y-10674174D01*
X11439229Y-10674174D02*
X11439229Y-10721793D01*
X11439229Y-10721793D02*
X11429705Y-10759889D01*
X11429705Y-10759889D02*
X11420182Y-10778936D01*
X11420182Y-10778936D02*
X11410658Y-10788460D01*
X11410658Y-10788460D02*
X11391610Y-10797984D01*
X11391610Y-10797984D02*
X11372562Y-10797984D01*
X11372562Y-10797984D02*
X11353515Y-10788460D01*
X11353515Y-10788460D02*
X11343991Y-10778936D01*
X11343991Y-10778936D02*
X11334467Y-10759889D01*
X11334467Y-10759889D02*
X11324943Y-10721793D01*
X11324943Y-10721793D02*
X11324943Y-10674174D01*
X11324943Y-10674174D02*
X11334467Y-10636079D01*
X11334467Y-10636079D02*
X11343991Y-10617031D01*
X11343991Y-10617031D02*
X11353515Y-10607508D01*
X11353515Y-10607508D02*
X11372562Y-10597984D01*
X11563039Y-10597984D02*
X11582086Y-10597984D01*
X11582086Y-10597984D02*
X11601134Y-10607508D01*
X11601134Y-10607508D02*
X11610658Y-10617031D01*
X11610658Y-10617031D02*
X11620182Y-10636079D01*
X11620182Y-10636079D02*
X11629705Y-10674174D01*
X11629705Y-10674174D02*
X11629705Y-10721793D01*
X11629705Y-10721793D02*
X11620182Y-10759889D01*
X11620182Y-10759889D02*
X11610658Y-10778936D01*
X11610658Y-10778936D02*
X11601134Y-10788460D01*
X11601134Y-10788460D02*
X11582086Y-10797984D01*
X11582086Y-10797984D02*
X11563039Y-10797984D01*
X11563039Y-10797984D02*
X11543991Y-10788460D01*
X11543991Y-10788460D02*
X11534467Y-10778936D01*
X11534467Y-10778936D02*
X11524943Y-10759889D01*
X11524943Y-10759889D02*
X11515420Y-10721793D01*
X11515420Y-10721793D02*
X11515420Y-10674174D01*
X11515420Y-10674174D02*
X11524943Y-10636079D01*
X11524943Y-10636079D02*
X11534467Y-10617031D01*
X11534467Y-10617031D02*
X11543991Y-10607508D01*
X11543991Y-10607508D02*
X11563039Y-10597984D01*
X11715420Y-10797984D02*
X11715420Y-10664650D01*
X11715420Y-10683698D02*
X11724943Y-10674174D01*
X11724943Y-10674174D02*
X11743991Y-10664650D01*
X11743991Y-10664650D02*
X11772563Y-10664650D01*
X11772563Y-10664650D02*
X11791610Y-10674174D01*
X11791610Y-10674174D02*
X11801134Y-10693222D01*
X11801134Y-10693222D02*
X11801134Y-10797984D01*
X11801134Y-10693222D02*
X11810658Y-10674174D01*
X11810658Y-10674174D02*
X11829705Y-10664650D01*
X11829705Y-10664650D02*
X11858277Y-10664650D01*
X11858277Y-10664650D02*
X11877324Y-10674174D01*
X11877324Y-10674174D02*
X11886848Y-10693222D01*
X11886848Y-10693222D02*
X11886848Y-10797984D01*
X11982086Y-10797984D02*
X11982086Y-10664650D01*
X11982086Y-10683698D02*
X11991610Y-10674174D01*
X11991610Y-10674174D02*
X12010658Y-10664650D01*
X12010658Y-10664650D02*
X12039229Y-10664650D01*
X12039229Y-10664650D02*
X12058277Y-10674174D01*
X12058277Y-10674174D02*
X12067801Y-10693222D01*
X12067801Y-10693222D02*
X12067801Y-10797984D01*
X12067801Y-10693222D02*
X12077324Y-10674174D01*
X12077324Y-10674174D02*
X12096372Y-10664650D01*
X12096372Y-10664650D02*
X12124943Y-10664650D01*
X12124943Y-10664650D02*
X12143991Y-10674174D01*
X12143991Y-10674174D02*
X12153515Y-10693222D01*
X12153515Y-10693222D02*
X12153515Y-10797984D01*
X12543991Y-10588460D02*
X12372563Y-10845603D01*
X12801134Y-10597984D02*
X12820182Y-10597984D01*
X12820182Y-10597984D02*
X12839229Y-10607508D01*
X12839229Y-10607508D02*
X12848753Y-10617031D01*
X12848753Y-10617031D02*
X12858277Y-10636079D01*
X12858277Y-10636079D02*
X12867801Y-10674174D01*
X12867801Y-10674174D02*
X12867801Y-10721793D01*
X12867801Y-10721793D02*
X12858277Y-10759889D01*
X12858277Y-10759889D02*
X12848753Y-10778936D01*
X12848753Y-10778936D02*
X12839229Y-10788460D01*
X12839229Y-10788460D02*
X12820182Y-10797984D01*
X12820182Y-10797984D02*
X12801134Y-10797984D01*
X12801134Y-10797984D02*
X12782086Y-10788460D01*
X12782086Y-10788460D02*
X12772563Y-10778936D01*
X12772563Y-10778936D02*
X12763039Y-10759889D01*
X12763039Y-10759889D02*
X12753515Y-10721793D01*
X12753515Y-10721793D02*
X12753515Y-10674174D01*
X12753515Y-10674174D02*
X12763039Y-10636079D01*
X12763039Y-10636079D02*
X12772563Y-10617031D01*
X12772563Y-10617031D02*
X12782086Y-10607508D01*
X12782086Y-10607508D02*
X12801134Y-10597984D01*
X12953515Y-10778936D02*
X12963039Y-10788460D01*
X12963039Y-10788460D02*
X12953515Y-10797984D01*
X12953515Y-10797984D02*
X12943991Y-10788460D01*
X12943991Y-10788460D02*
X12953515Y-10778936D01*
X12953515Y-10778936D02*
X12953515Y-10797984D01*
X13086848Y-10597984D02*
X13105896Y-10597984D01*
X13105896Y-10597984D02*
X13124944Y-10607508D01*
X13124944Y-10607508D02*
X13134467Y-10617031D01*
X13134467Y-10617031D02*
X13143991Y-10636079D01*
X13143991Y-10636079D02*
X13153515Y-10674174D01*
X13153515Y-10674174D02*
X13153515Y-10721793D01*
X13153515Y-10721793D02*
X13143991Y-10759889D01*
X13143991Y-10759889D02*
X13134467Y-10778936D01*
X13134467Y-10778936D02*
X13124944Y-10788460D01*
X13124944Y-10788460D02*
X13105896Y-10797984D01*
X13105896Y-10797984D02*
X13086848Y-10797984D01*
X13086848Y-10797984D02*
X13067801Y-10788460D01*
X13067801Y-10788460D02*
X13058277Y-10778936D01*
X13058277Y-10778936D02*
X13048753Y-10759889D01*
X13048753Y-10759889D02*
X13039229Y-10721793D01*
X13039229Y-10721793D02*
X13039229Y-10674174D01*
X13039229Y-10674174D02*
X13048753Y-10636079D01*
X13048753Y-10636079D02*
X13058277Y-10617031D01*
X13058277Y-10617031D02*
X13067801Y-10607508D01*
X13067801Y-10607508D02*
X13086848Y-10597984D01*
X13220182Y-10597984D02*
X13343991Y-10597984D01*
X13343991Y-10597984D02*
X13277325Y-10674174D01*
X13277325Y-10674174D02*
X13305896Y-10674174D01*
X13305896Y-10674174D02*
X13324944Y-10683698D01*
X13324944Y-10683698D02*
X13334467Y-10693222D01*
X13334467Y-10693222D02*
X13343991Y-10712270D01*
X13343991Y-10712270D02*
X13343991Y-10759889D01*
X13343991Y-10759889D02*
X13334467Y-10778936D01*
X13334467Y-10778936D02*
X13324944Y-10788460D01*
X13324944Y-10788460D02*
X13305896Y-10797984D01*
X13305896Y-10797984D02*
X13248753Y-10797984D01*
X13248753Y-10797984D02*
X13229706Y-10788460D01*
X13229706Y-10788460D02*
X13220182Y-10778936D01*
X13534467Y-10797984D02*
X13420182Y-10797984D01*
X13477325Y-10797984D02*
X13477325Y-10597984D01*
X13477325Y-10597984D02*
X13458277Y-10626555D01*
X13458277Y-10626555D02*
X13439229Y-10645603D01*
X13439229Y-10645603D02*
X13420182Y-10655127D01*
X13715420Y-10597984D02*
X13620182Y-10597984D01*
X13620182Y-10597984D02*
X13610658Y-10693222D01*
X13610658Y-10693222D02*
X13620182Y-10683698D01*
X13620182Y-10683698D02*
X13639229Y-10674174D01*
X13639229Y-10674174D02*
X13686848Y-10674174D01*
X13686848Y-10674174D02*
X13705896Y-10683698D01*
X13705896Y-10683698D02*
X13715420Y-10693222D01*
X13715420Y-10693222D02*
X13724944Y-10712270D01*
X13724944Y-10712270D02*
X13724944Y-10759889D01*
X13724944Y-10759889D02*
X13715420Y-10778936D01*
X13715420Y-10778936D02*
X13705896Y-10788460D01*
X13705896Y-10788460D02*
X13686848Y-10797984D01*
X13686848Y-10797984D02*
X13639229Y-10797984D01*
X13639229Y-10797984D02*
X13620182Y-10788460D01*
X13620182Y-10788460D02*
X13610658Y-10778936D01*
X13801134Y-10597984D02*
X13801134Y-10636079D01*
X13877325Y-10597984D02*
X13877325Y-10636079D01*
X14172563Y-10874174D02*
X14163039Y-10864650D01*
X14163039Y-10864650D02*
X14143991Y-10836079D01*
X14143991Y-10836079D02*
X14134468Y-10817031D01*
X14134468Y-10817031D02*
X14124944Y-10788460D01*
X14124944Y-10788460D02*
X14115420Y-10740841D01*
X14115420Y-10740841D02*
X14115420Y-10702746D01*
X14115420Y-10702746D02*
X14124944Y-10655127D01*
X14124944Y-10655127D02*
X14134468Y-10626555D01*
X14134468Y-10626555D02*
X14143991Y-10607508D01*
X14143991Y-10607508D02*
X14163039Y-10578936D01*
X14163039Y-10578936D02*
X14172563Y-10569412D01*
X14229706Y-10597984D02*
X14353515Y-10597984D01*
X14353515Y-10597984D02*
X14286848Y-10674174D01*
X14286848Y-10674174D02*
X14315420Y-10674174D01*
X14315420Y-10674174D02*
X14334468Y-10683698D01*
X14334468Y-10683698D02*
X14343991Y-10693222D01*
X14343991Y-10693222D02*
X14353515Y-10712270D01*
X14353515Y-10712270D02*
X14353515Y-10759889D01*
X14353515Y-10759889D02*
X14343991Y-10778936D01*
X14343991Y-10778936D02*
X14334468Y-10788460D01*
X14334468Y-10788460D02*
X14315420Y-10797984D01*
X14315420Y-10797984D02*
X14258277Y-10797984D01*
X14258277Y-10797984D02*
X14239229Y-10788460D01*
X14239229Y-10788460D02*
X14229706Y-10778936D01*
X14591610Y-10797984D02*
X14591610Y-10597984D01*
X14677325Y-10797984D02*
X14677325Y-10693222D01*
X14677325Y-10693222D02*
X14667801Y-10674174D01*
X14667801Y-10674174D02*
X14648753Y-10664650D01*
X14648753Y-10664650D02*
X14620182Y-10664650D01*
X14620182Y-10664650D02*
X14601134Y-10674174D01*
X14601134Y-10674174D02*
X14591610Y-10683698D01*
X14801134Y-10797984D02*
X14782087Y-10788460D01*
X14782087Y-10788460D02*
X14772563Y-10778936D01*
X14772563Y-10778936D02*
X14763039Y-10759889D01*
X14763039Y-10759889D02*
X14763039Y-10702746D01*
X14763039Y-10702746D02*
X14772563Y-10683698D01*
X14772563Y-10683698D02*
X14782087Y-10674174D01*
X14782087Y-10674174D02*
X14801134Y-10664650D01*
X14801134Y-10664650D02*
X14829706Y-10664650D01*
X14829706Y-10664650D02*
X14848753Y-10674174D01*
X14848753Y-10674174D02*
X14858277Y-10683698D01*
X14858277Y-10683698D02*
X14867801Y-10702746D01*
X14867801Y-10702746D02*
X14867801Y-10759889D01*
X14867801Y-10759889D02*
X14858277Y-10778936D01*
X14858277Y-10778936D02*
X14848753Y-10788460D01*
X14848753Y-10788460D02*
X14829706Y-10797984D01*
X14829706Y-10797984D02*
X14801134Y-10797984D01*
X14982087Y-10797984D02*
X14963039Y-10788460D01*
X14963039Y-10788460D02*
X14953515Y-10769412D01*
X14953515Y-10769412D02*
X14953515Y-10597984D01*
X15134468Y-10788460D02*
X15115420Y-10797984D01*
X15115420Y-10797984D02*
X15077325Y-10797984D01*
X15077325Y-10797984D02*
X15058277Y-10788460D01*
X15058277Y-10788460D02*
X15048753Y-10769412D01*
X15048753Y-10769412D02*
X15048753Y-10693222D01*
X15048753Y-10693222D02*
X15058277Y-10674174D01*
X15058277Y-10674174D02*
X15077325Y-10664650D01*
X15077325Y-10664650D02*
X15115420Y-10664650D01*
X15115420Y-10664650D02*
X15134468Y-10674174D01*
X15134468Y-10674174D02*
X15143991Y-10693222D01*
X15143991Y-10693222D02*
X15143991Y-10712270D01*
X15143991Y-10712270D02*
X15048753Y-10731317D01*
X15220182Y-10788460D02*
X15239230Y-10797984D01*
X15239230Y-10797984D02*
X15277325Y-10797984D01*
X15277325Y-10797984D02*
X15296372Y-10788460D01*
X15296372Y-10788460D02*
X15305896Y-10769412D01*
X15305896Y-10769412D02*
X15305896Y-10759889D01*
X15305896Y-10759889D02*
X15296372Y-10740841D01*
X15296372Y-10740841D02*
X15277325Y-10731317D01*
X15277325Y-10731317D02*
X15248753Y-10731317D01*
X15248753Y-10731317D02*
X15229706Y-10721793D01*
X15229706Y-10721793D02*
X15220182Y-10702746D01*
X15220182Y-10702746D02*
X15220182Y-10693222D01*
X15220182Y-10693222D02*
X15229706Y-10674174D01*
X15229706Y-10674174D02*
X15248753Y-10664650D01*
X15248753Y-10664650D02*
X15277325Y-10664650D01*
X15277325Y-10664650D02*
X15296372Y-10674174D01*
X15372563Y-10874174D02*
X15382087Y-10864650D01*
X15382087Y-10864650D02*
X15401134Y-10836079D01*
X15401134Y-10836079D02*
X15410658Y-10817031D01*
X15410658Y-10817031D02*
X15420182Y-10788460D01*
X15420182Y-10788460D02*
X15429706Y-10740841D01*
X15429706Y-10740841D02*
X15429706Y-10702746D01*
X15429706Y-10702746D02*
X15420182Y-10655127D01*
X15420182Y-10655127D02*
X15410658Y-10626555D01*
X15410658Y-10626555D02*
X15401134Y-10607508D01*
X15401134Y-10607508D02*
X15382087Y-10578936D01*
X15382087Y-10578936D02*
X15372563Y-10569412D01*
D13*
X10522500Y-10895500D02*
X10522500Y-11045500D01*
X10447500Y-10970500D02*
X10597500Y-10970500D01*
D11*
X10963039Y-11061984D02*
X10848753Y-11061984D01*
X10905896Y-11061984D02*
X10905896Y-10861984D01*
X10905896Y-10861984D02*
X10886848Y-10890555D01*
X10886848Y-10890555D02*
X10867801Y-10909603D01*
X10867801Y-10909603D02*
X10848753Y-10919127D01*
X11048753Y-11042936D02*
X11058277Y-11052460D01*
X11058277Y-11052460D02*
X11048753Y-11061984D01*
X11048753Y-11061984D02*
X11039229Y-11052460D01*
X11039229Y-11052460D02*
X11048753Y-11042936D01*
X11048753Y-11042936D02*
X11048753Y-11061984D01*
X11239229Y-10861984D02*
X11143991Y-10861984D01*
X11143991Y-10861984D02*
X11134467Y-10957222D01*
X11134467Y-10957222D02*
X11143991Y-10947698D01*
X11143991Y-10947698D02*
X11163039Y-10938174D01*
X11163039Y-10938174D02*
X11210658Y-10938174D01*
X11210658Y-10938174D02*
X11229705Y-10947698D01*
X11229705Y-10947698D02*
X11239229Y-10957222D01*
X11239229Y-10957222D02*
X11248753Y-10976270D01*
X11248753Y-10976270D02*
X11248753Y-11023889D01*
X11248753Y-11023889D02*
X11239229Y-11042936D01*
X11239229Y-11042936D02*
X11229705Y-11052460D01*
X11229705Y-11052460D02*
X11210658Y-11061984D01*
X11210658Y-11061984D02*
X11163039Y-11061984D01*
X11163039Y-11061984D02*
X11143991Y-11052460D01*
X11143991Y-11052460D02*
X11134467Y-11042936D01*
X11372562Y-10861984D02*
X11391610Y-10861984D01*
X11391610Y-10861984D02*
X11410658Y-10871508D01*
X11410658Y-10871508D02*
X11420182Y-10881031D01*
X11420182Y-10881031D02*
X11429705Y-10900079D01*
X11429705Y-10900079D02*
X11439229Y-10938174D01*
X11439229Y-10938174D02*
X11439229Y-10985793D01*
X11439229Y-10985793D02*
X11429705Y-11023889D01*
X11429705Y-11023889D02*
X11420182Y-11042936D01*
X11420182Y-11042936D02*
X11410658Y-11052460D01*
X11410658Y-11052460D02*
X11391610Y-11061984D01*
X11391610Y-11061984D02*
X11372562Y-11061984D01*
X11372562Y-11061984D02*
X11353515Y-11052460D01*
X11353515Y-11052460D02*
X11343991Y-11042936D01*
X11343991Y-11042936D02*
X11334467Y-11023889D01*
X11334467Y-11023889D02*
X11324943Y-10985793D01*
X11324943Y-10985793D02*
X11324943Y-10938174D01*
X11324943Y-10938174D02*
X11334467Y-10900079D01*
X11334467Y-10900079D02*
X11343991Y-10881031D01*
X11343991Y-10881031D02*
X11353515Y-10871508D01*
X11353515Y-10871508D02*
X11372562Y-10861984D01*
X11563039Y-10861984D02*
X11582086Y-10861984D01*
X11582086Y-10861984D02*
X11601134Y-10871508D01*
X11601134Y-10871508D02*
X11610658Y-10881031D01*
X11610658Y-10881031D02*
X11620182Y-10900079D01*
X11620182Y-10900079D02*
X11629705Y-10938174D01*
X11629705Y-10938174D02*
X11629705Y-10985793D01*
X11629705Y-10985793D02*
X11620182Y-11023889D01*
X11620182Y-11023889D02*
X11610658Y-11042936D01*
X11610658Y-11042936D02*
X11601134Y-11052460D01*
X11601134Y-11052460D02*
X11582086Y-11061984D01*
X11582086Y-11061984D02*
X11563039Y-11061984D01*
X11563039Y-11061984D02*
X11543991Y-11052460D01*
X11543991Y-11052460D02*
X11534467Y-11042936D01*
X11534467Y-11042936D02*
X11524943Y-11023889D01*
X11524943Y-11023889D02*
X11515420Y-10985793D01*
X11515420Y-10985793D02*
X11515420Y-10938174D01*
X11515420Y-10938174D02*
X11524943Y-10900079D01*
X11524943Y-10900079D02*
X11534467Y-10881031D01*
X11534467Y-10881031D02*
X11543991Y-10871508D01*
X11543991Y-10871508D02*
X11563039Y-10861984D01*
X11715420Y-11061984D02*
X11715420Y-10928650D01*
X11715420Y-10947698D02*
X11724943Y-10938174D01*
X11724943Y-10938174D02*
X11743991Y-10928650D01*
X11743991Y-10928650D02*
X11772563Y-10928650D01*
X11772563Y-10928650D02*
X11791610Y-10938174D01*
X11791610Y-10938174D02*
X11801134Y-10957222D01*
X11801134Y-10957222D02*
X11801134Y-11061984D01*
X11801134Y-10957222D02*
X11810658Y-10938174D01*
X11810658Y-10938174D02*
X11829705Y-10928650D01*
X11829705Y-10928650D02*
X11858277Y-10928650D01*
X11858277Y-10928650D02*
X11877324Y-10938174D01*
X11877324Y-10938174D02*
X11886848Y-10957222D01*
X11886848Y-10957222D02*
X11886848Y-11061984D01*
X11982086Y-11061984D02*
X11982086Y-10928650D01*
X11982086Y-10947698D02*
X11991610Y-10938174D01*
X11991610Y-10938174D02*
X12010658Y-10928650D01*
X12010658Y-10928650D02*
X12039229Y-10928650D01*
X12039229Y-10928650D02*
X12058277Y-10938174D01*
X12058277Y-10938174D02*
X12067801Y-10957222D01*
X12067801Y-10957222D02*
X12067801Y-11061984D01*
X12067801Y-10957222D02*
X12077324Y-10938174D01*
X12077324Y-10938174D02*
X12096372Y-10928650D01*
X12096372Y-10928650D02*
X12124943Y-10928650D01*
X12124943Y-10928650D02*
X12143991Y-10938174D01*
X12143991Y-10938174D02*
X12153515Y-10957222D01*
X12153515Y-10957222D02*
X12153515Y-11061984D01*
X12543991Y-10852460D02*
X12372563Y-11109603D01*
X12801134Y-10861984D02*
X12820182Y-10861984D01*
X12820182Y-10861984D02*
X12839229Y-10871508D01*
X12839229Y-10871508D02*
X12848753Y-10881031D01*
X12848753Y-10881031D02*
X12858277Y-10900079D01*
X12858277Y-10900079D02*
X12867801Y-10938174D01*
X12867801Y-10938174D02*
X12867801Y-10985793D01*
X12867801Y-10985793D02*
X12858277Y-11023889D01*
X12858277Y-11023889D02*
X12848753Y-11042936D01*
X12848753Y-11042936D02*
X12839229Y-11052460D01*
X12839229Y-11052460D02*
X12820182Y-11061984D01*
X12820182Y-11061984D02*
X12801134Y-11061984D01*
X12801134Y-11061984D02*
X12782086Y-11052460D01*
X12782086Y-11052460D02*
X12772563Y-11042936D01*
X12772563Y-11042936D02*
X12763039Y-11023889D01*
X12763039Y-11023889D02*
X12753515Y-10985793D01*
X12753515Y-10985793D02*
X12753515Y-10938174D01*
X12753515Y-10938174D02*
X12763039Y-10900079D01*
X12763039Y-10900079D02*
X12772563Y-10881031D01*
X12772563Y-10881031D02*
X12782086Y-10871508D01*
X12782086Y-10871508D02*
X12801134Y-10861984D01*
X12953515Y-11042936D02*
X12963039Y-11052460D01*
X12963039Y-11052460D02*
X12953515Y-11061984D01*
X12953515Y-11061984D02*
X12943991Y-11052460D01*
X12943991Y-11052460D02*
X12953515Y-11042936D01*
X12953515Y-11042936D02*
X12953515Y-11061984D01*
X13086848Y-10861984D02*
X13105896Y-10861984D01*
X13105896Y-10861984D02*
X13124944Y-10871508D01*
X13124944Y-10871508D02*
X13134467Y-10881031D01*
X13134467Y-10881031D02*
X13143991Y-10900079D01*
X13143991Y-10900079D02*
X13153515Y-10938174D01*
X13153515Y-10938174D02*
X13153515Y-10985793D01*
X13153515Y-10985793D02*
X13143991Y-11023889D01*
X13143991Y-11023889D02*
X13134467Y-11042936D01*
X13134467Y-11042936D02*
X13124944Y-11052460D01*
X13124944Y-11052460D02*
X13105896Y-11061984D01*
X13105896Y-11061984D02*
X13086848Y-11061984D01*
X13086848Y-11061984D02*
X13067801Y-11052460D01*
X13067801Y-11052460D02*
X13058277Y-11042936D01*
X13058277Y-11042936D02*
X13048753Y-11023889D01*
X13048753Y-11023889D02*
X13039229Y-10985793D01*
X13039229Y-10985793D02*
X13039229Y-10938174D01*
X13039229Y-10938174D02*
X13048753Y-10900079D01*
X13048753Y-10900079D02*
X13058277Y-10881031D01*
X13058277Y-10881031D02*
X13067801Y-10871508D01*
X13067801Y-10871508D02*
X13086848Y-10861984D01*
X13334467Y-10861984D02*
X13239229Y-10861984D01*
X13239229Y-10861984D02*
X13229706Y-10957222D01*
X13229706Y-10957222D02*
X13239229Y-10947698D01*
X13239229Y-10947698D02*
X13258277Y-10938174D01*
X13258277Y-10938174D02*
X13305896Y-10938174D01*
X13305896Y-10938174D02*
X13324944Y-10947698D01*
X13324944Y-10947698D02*
X13334467Y-10957222D01*
X13334467Y-10957222D02*
X13343991Y-10976270D01*
X13343991Y-10976270D02*
X13343991Y-11023889D01*
X13343991Y-11023889D02*
X13334467Y-11042936D01*
X13334467Y-11042936D02*
X13324944Y-11052460D01*
X13324944Y-11052460D02*
X13305896Y-11061984D01*
X13305896Y-11061984D02*
X13258277Y-11061984D01*
X13258277Y-11061984D02*
X13239229Y-11052460D01*
X13239229Y-11052460D02*
X13229706Y-11042936D01*
X13439229Y-11061984D02*
X13477325Y-11061984D01*
X13477325Y-11061984D02*
X13496372Y-11052460D01*
X13496372Y-11052460D02*
X13505896Y-11042936D01*
X13505896Y-11042936D02*
X13524944Y-11014365D01*
X13524944Y-11014365D02*
X13534467Y-10976270D01*
X13534467Y-10976270D02*
X13534467Y-10900079D01*
X13534467Y-10900079D02*
X13524944Y-10881031D01*
X13524944Y-10881031D02*
X13515420Y-10871508D01*
X13515420Y-10871508D02*
X13496372Y-10861984D01*
X13496372Y-10861984D02*
X13458277Y-10861984D01*
X13458277Y-10861984D02*
X13439229Y-10871508D01*
X13439229Y-10871508D02*
X13429706Y-10881031D01*
X13429706Y-10881031D02*
X13420182Y-10900079D01*
X13420182Y-10900079D02*
X13420182Y-10947698D01*
X13420182Y-10947698D02*
X13429706Y-10966746D01*
X13429706Y-10966746D02*
X13439229Y-10976270D01*
X13439229Y-10976270D02*
X13458277Y-10985793D01*
X13458277Y-10985793D02*
X13496372Y-10985793D01*
X13496372Y-10985793D02*
X13515420Y-10976270D01*
X13515420Y-10976270D02*
X13524944Y-10966746D01*
X13524944Y-10966746D02*
X13534467Y-10947698D01*
X13724944Y-11061984D02*
X13610658Y-11061984D01*
X13667801Y-11061984D02*
X13667801Y-10861984D01*
X13667801Y-10861984D02*
X13648753Y-10890555D01*
X13648753Y-10890555D02*
X13629706Y-10909603D01*
X13629706Y-10909603D02*
X13610658Y-10919127D01*
X13801134Y-10861984D02*
X13801134Y-10900079D01*
X13877325Y-10861984D02*
X13877325Y-10900079D01*
X14172563Y-11138174D02*
X14163039Y-11128650D01*
X14163039Y-11128650D02*
X14143991Y-11100079D01*
X14143991Y-11100079D02*
X14134468Y-11081031D01*
X14134468Y-11081031D02*
X14124944Y-11052460D01*
X14124944Y-11052460D02*
X14115420Y-11004841D01*
X14115420Y-11004841D02*
X14115420Y-10966746D01*
X14115420Y-10966746D02*
X14124944Y-10919127D01*
X14124944Y-10919127D02*
X14134468Y-10890555D01*
X14134468Y-10890555D02*
X14143991Y-10871508D01*
X14143991Y-10871508D02*
X14163039Y-10842936D01*
X14163039Y-10842936D02*
X14172563Y-10833412D01*
X14334468Y-10861984D02*
X14296372Y-10861984D01*
X14296372Y-10861984D02*
X14277325Y-10871508D01*
X14277325Y-10871508D02*
X14267801Y-10881031D01*
X14267801Y-10881031D02*
X14248753Y-10909603D01*
X14248753Y-10909603D02*
X14239229Y-10947698D01*
X14239229Y-10947698D02*
X14239229Y-11023889D01*
X14239229Y-11023889D02*
X14248753Y-11042936D01*
X14248753Y-11042936D02*
X14258277Y-11052460D01*
X14258277Y-11052460D02*
X14277325Y-11061984D01*
X14277325Y-11061984D02*
X14315420Y-11061984D01*
X14315420Y-11061984D02*
X14334468Y-11052460D01*
X14334468Y-11052460D02*
X14343991Y-11042936D01*
X14343991Y-11042936D02*
X14353515Y-11023889D01*
X14353515Y-11023889D02*
X14353515Y-10976270D01*
X14353515Y-10976270D02*
X14343991Y-10957222D01*
X14343991Y-10957222D02*
X14334468Y-10947698D01*
X14334468Y-10947698D02*
X14315420Y-10938174D01*
X14315420Y-10938174D02*
X14277325Y-10938174D01*
X14277325Y-10938174D02*
X14258277Y-10947698D01*
X14258277Y-10947698D02*
X14248753Y-10957222D01*
X14248753Y-10957222D02*
X14239229Y-10976270D01*
X14591610Y-11061984D02*
X14591610Y-10861984D01*
X14677325Y-11061984D02*
X14677325Y-10957222D01*
X14677325Y-10957222D02*
X14667801Y-10938174D01*
X14667801Y-10938174D02*
X14648753Y-10928650D01*
X14648753Y-10928650D02*
X14620182Y-10928650D01*
X14620182Y-10928650D02*
X14601134Y-10938174D01*
X14601134Y-10938174D02*
X14591610Y-10947698D01*
X14801134Y-11061984D02*
X14782087Y-11052460D01*
X14782087Y-11052460D02*
X14772563Y-11042936D01*
X14772563Y-11042936D02*
X14763039Y-11023889D01*
X14763039Y-11023889D02*
X14763039Y-10966746D01*
X14763039Y-10966746D02*
X14772563Y-10947698D01*
X14772563Y-10947698D02*
X14782087Y-10938174D01*
X14782087Y-10938174D02*
X14801134Y-10928650D01*
X14801134Y-10928650D02*
X14829706Y-10928650D01*
X14829706Y-10928650D02*
X14848753Y-10938174D01*
X14848753Y-10938174D02*
X14858277Y-10947698D01*
X14858277Y-10947698D02*
X14867801Y-10966746D01*
X14867801Y-10966746D02*
X14867801Y-11023889D01*
X14867801Y-11023889D02*
X14858277Y-11042936D01*
X14858277Y-11042936D02*
X14848753Y-11052460D01*
X14848753Y-11052460D02*
X14829706Y-11061984D01*
X14829706Y-11061984D02*
X14801134Y-11061984D01*
X14982087Y-11061984D02*
X14963039Y-11052460D01*
X14963039Y-11052460D02*
X14953515Y-11033412D01*
X14953515Y-11033412D02*
X14953515Y-10861984D01*
X15134468Y-11052460D02*
X15115420Y-11061984D01*
X15115420Y-11061984D02*
X15077325Y-11061984D01*
X15077325Y-11061984D02*
X15058277Y-11052460D01*
X15058277Y-11052460D02*
X15048753Y-11033412D01*
X15048753Y-11033412D02*
X15048753Y-10957222D01*
X15048753Y-10957222D02*
X15058277Y-10938174D01*
X15058277Y-10938174D02*
X15077325Y-10928650D01*
X15077325Y-10928650D02*
X15115420Y-10928650D01*
X15115420Y-10928650D02*
X15134468Y-10938174D01*
X15134468Y-10938174D02*
X15143991Y-10957222D01*
X15143991Y-10957222D02*
X15143991Y-10976270D01*
X15143991Y-10976270D02*
X15048753Y-10995317D01*
X15220182Y-11052460D02*
X15239230Y-11061984D01*
X15239230Y-11061984D02*
X15277325Y-11061984D01*
X15277325Y-11061984D02*
X15296372Y-11052460D01*
X15296372Y-11052460D02*
X15305896Y-11033412D01*
X15305896Y-11033412D02*
X15305896Y-11023889D01*
X15305896Y-11023889D02*
X15296372Y-11004841D01*
X15296372Y-11004841D02*
X15277325Y-10995317D01*
X15277325Y-10995317D02*
X15248753Y-10995317D01*
X15248753Y-10995317D02*
X15229706Y-10985793D01*
X15229706Y-10985793D02*
X15220182Y-10966746D01*
X15220182Y-10966746D02*
X15220182Y-10957222D01*
X15220182Y-10957222D02*
X15229706Y-10938174D01*
X15229706Y-10938174D02*
X15248753Y-10928650D01*
X15248753Y-10928650D02*
X15277325Y-10928650D01*
X15277325Y-10928650D02*
X15296372Y-10938174D01*
X15372563Y-11138174D02*
X15382087Y-11128650D01*
X15382087Y-11128650D02*
X15401134Y-11100079D01*
X15401134Y-11100079D02*
X15410658Y-11081031D01*
X15410658Y-11081031D02*
X15420182Y-11052460D01*
X15420182Y-11052460D02*
X15429706Y-11004841D01*
X15429706Y-11004841D02*
X15429706Y-10966746D01*
X15429706Y-10966746D02*
X15420182Y-10919127D01*
X15420182Y-10919127D02*
X15410658Y-10890555D01*
X15410658Y-10890555D02*
X15401134Y-10871508D01*
X15401134Y-10871508D02*
X15382087Y-10842936D01*
X15382087Y-10842936D02*
X15372563Y-10833412D01*
D14*
X10571140Y-11304140D02*
X10571140Y-11176860D01*
X10443860Y-11176860D01*
X10443860Y-11304140D01*
X10571140Y-11304140D01*
D11*
X10963039Y-11331984D02*
X10848753Y-11331984D01*
X10905896Y-11331984D02*
X10905896Y-11131984D01*
X10905896Y-11131984D02*
X10886848Y-11160555D01*
X10886848Y-11160555D02*
X10867801Y-11179603D01*
X10867801Y-11179603D02*
X10848753Y-11189127D01*
X11048753Y-11312936D02*
X11058277Y-11322460D01*
X11058277Y-11322460D02*
X11048753Y-11331984D01*
X11048753Y-11331984D02*
X11039229Y-11322460D01*
X11039229Y-11322460D02*
X11048753Y-11312936D01*
X11048753Y-11312936D02*
X11048753Y-11331984D01*
X11172563Y-11217698D02*
X11153515Y-11208174D01*
X11153515Y-11208174D02*
X11143991Y-11198650D01*
X11143991Y-11198650D02*
X11134467Y-11179603D01*
X11134467Y-11179603D02*
X11134467Y-11170079D01*
X11134467Y-11170079D02*
X11143991Y-11151031D01*
X11143991Y-11151031D02*
X11153515Y-11141508D01*
X11153515Y-11141508D02*
X11172563Y-11131984D01*
X11172563Y-11131984D02*
X11210658Y-11131984D01*
X11210658Y-11131984D02*
X11229705Y-11141508D01*
X11229705Y-11141508D02*
X11239229Y-11151031D01*
X11239229Y-11151031D02*
X11248753Y-11170079D01*
X11248753Y-11170079D02*
X11248753Y-11179603D01*
X11248753Y-11179603D02*
X11239229Y-11198650D01*
X11239229Y-11198650D02*
X11229705Y-11208174D01*
X11229705Y-11208174D02*
X11210658Y-11217698D01*
X11210658Y-11217698D02*
X11172563Y-11217698D01*
X11172563Y-11217698D02*
X11153515Y-11227222D01*
X11153515Y-11227222D02*
X11143991Y-11236746D01*
X11143991Y-11236746D02*
X11134467Y-11255793D01*
X11134467Y-11255793D02*
X11134467Y-11293888D01*
X11134467Y-11293888D02*
X11143991Y-11312936D01*
X11143991Y-11312936D02*
X11153515Y-11322460D01*
X11153515Y-11322460D02*
X11172563Y-11331984D01*
X11172563Y-11331984D02*
X11210658Y-11331984D01*
X11210658Y-11331984D02*
X11229705Y-11322460D01*
X11229705Y-11322460D02*
X11239229Y-11312936D01*
X11239229Y-11312936D02*
X11248753Y-11293888D01*
X11248753Y-11293888D02*
X11248753Y-11255793D01*
X11248753Y-11255793D02*
X11239229Y-11236746D01*
X11239229Y-11236746D02*
X11229705Y-11227222D01*
X11229705Y-11227222D02*
X11210658Y-11217698D01*
X11372562Y-11131984D02*
X11391610Y-11131984D01*
X11391610Y-11131984D02*
X11410658Y-11141508D01*
X11410658Y-11141508D02*
X11420182Y-11151031D01*
X11420182Y-11151031D02*
X11429705Y-11170079D01*
X11429705Y-11170079D02*
X11439229Y-11208174D01*
X11439229Y-11208174D02*
X11439229Y-11255793D01*
X11439229Y-11255793D02*
X11429705Y-11293888D01*
X11429705Y-11293888D02*
X11420182Y-11312936D01*
X11420182Y-11312936D02*
X11410658Y-11322460D01*
X11410658Y-11322460D02*
X11391610Y-11331984D01*
X11391610Y-11331984D02*
X11372562Y-11331984D01*
X11372562Y-11331984D02*
X11353515Y-11322460D01*
X11353515Y-11322460D02*
X11343991Y-11312936D01*
X11343991Y-11312936D02*
X11334467Y-11293888D01*
X11334467Y-11293888D02*
X11324943Y-11255793D01*
X11324943Y-11255793D02*
X11324943Y-11208174D01*
X11324943Y-11208174D02*
X11334467Y-11170079D01*
X11334467Y-11170079D02*
X11343991Y-11151031D01*
X11343991Y-11151031D02*
X11353515Y-11141508D01*
X11353515Y-11141508D02*
X11372562Y-11131984D01*
X11563039Y-11131984D02*
X11582086Y-11131984D01*
X11582086Y-11131984D02*
X11601134Y-11141508D01*
X11601134Y-11141508D02*
X11610658Y-11151031D01*
X11610658Y-11151031D02*
X11620182Y-11170079D01*
X11620182Y-11170079D02*
X11629705Y-11208174D01*
X11629705Y-11208174D02*
X11629705Y-11255793D01*
X11629705Y-11255793D02*
X11620182Y-11293888D01*
X11620182Y-11293888D02*
X11610658Y-11312936D01*
X11610658Y-11312936D02*
X11601134Y-11322460D01*
X11601134Y-11322460D02*
X11582086Y-11331984D01*
X11582086Y-11331984D02*
X11563039Y-11331984D01*
X11563039Y-11331984D02*
X11543991Y-11322460D01*
X11543991Y-11322460D02*
X11534467Y-11312936D01*
X11534467Y-11312936D02*
X11524943Y-11293888D01*
X11524943Y-11293888D02*
X11515420Y-11255793D01*
X11515420Y-11255793D02*
X11515420Y-11208174D01*
X11515420Y-11208174D02*
X11524943Y-11170079D01*
X11524943Y-11170079D02*
X11534467Y-11151031D01*
X11534467Y-11151031D02*
X11543991Y-11141508D01*
X11543991Y-11141508D02*
X11563039Y-11131984D01*
X11715420Y-11331984D02*
X11715420Y-11198650D01*
X11715420Y-11217698D02*
X11724943Y-11208174D01*
X11724943Y-11208174D02*
X11743991Y-11198650D01*
X11743991Y-11198650D02*
X11772563Y-11198650D01*
X11772563Y-11198650D02*
X11791610Y-11208174D01*
X11791610Y-11208174D02*
X11801134Y-11227222D01*
X11801134Y-11227222D02*
X11801134Y-11331984D01*
X11801134Y-11227222D02*
X11810658Y-11208174D01*
X11810658Y-11208174D02*
X11829705Y-11198650D01*
X11829705Y-11198650D02*
X11858277Y-11198650D01*
X11858277Y-11198650D02*
X11877324Y-11208174D01*
X11877324Y-11208174D02*
X11886848Y-11227222D01*
X11886848Y-11227222D02*
X11886848Y-11331984D01*
X11982086Y-11331984D02*
X11982086Y-11198650D01*
X11982086Y-11217698D02*
X11991610Y-11208174D01*
X11991610Y-11208174D02*
X12010658Y-11198650D01*
X12010658Y-11198650D02*
X12039229Y-11198650D01*
X12039229Y-11198650D02*
X12058277Y-11208174D01*
X12058277Y-11208174D02*
X12067801Y-11227222D01*
X12067801Y-11227222D02*
X12067801Y-11331984D01*
X12067801Y-11227222D02*
X12077324Y-11208174D01*
X12077324Y-11208174D02*
X12096372Y-11198650D01*
X12096372Y-11198650D02*
X12124943Y-11198650D01*
X12124943Y-11198650D02*
X12143991Y-11208174D01*
X12143991Y-11208174D02*
X12153515Y-11227222D01*
X12153515Y-11227222D02*
X12153515Y-11331984D01*
X12543991Y-11122460D02*
X12372563Y-11379603D01*
X12801134Y-11131984D02*
X12820182Y-11131984D01*
X12820182Y-11131984D02*
X12839229Y-11141508D01*
X12839229Y-11141508D02*
X12848753Y-11151031D01*
X12848753Y-11151031D02*
X12858277Y-11170079D01*
X12858277Y-11170079D02*
X12867801Y-11208174D01*
X12867801Y-11208174D02*
X12867801Y-11255793D01*
X12867801Y-11255793D02*
X12858277Y-11293888D01*
X12858277Y-11293888D02*
X12848753Y-11312936D01*
X12848753Y-11312936D02*
X12839229Y-11322460D01*
X12839229Y-11322460D02*
X12820182Y-11331984D01*
X12820182Y-11331984D02*
X12801134Y-11331984D01*
X12801134Y-11331984D02*
X12782086Y-11322460D01*
X12782086Y-11322460D02*
X12772563Y-11312936D01*
X12772563Y-11312936D02*
X12763039Y-11293888D01*
X12763039Y-11293888D02*
X12753515Y-11255793D01*
X12753515Y-11255793D02*
X12753515Y-11208174D01*
X12753515Y-11208174D02*
X12763039Y-11170079D01*
X12763039Y-11170079D02*
X12772563Y-11151031D01*
X12772563Y-11151031D02*
X12782086Y-11141508D01*
X12782086Y-11141508D02*
X12801134Y-11131984D01*
X12953515Y-11312936D02*
X12963039Y-11322460D01*
X12963039Y-11322460D02*
X12953515Y-11331984D01*
X12953515Y-11331984D02*
X12943991Y-11322460D01*
X12943991Y-11322460D02*
X12953515Y-11312936D01*
X12953515Y-11312936D02*
X12953515Y-11331984D01*
X13086848Y-11131984D02*
X13105896Y-11131984D01*
X13105896Y-11131984D02*
X13124944Y-11141508D01*
X13124944Y-11141508D02*
X13134467Y-11151031D01*
X13134467Y-11151031D02*
X13143991Y-11170079D01*
X13143991Y-11170079D02*
X13153515Y-11208174D01*
X13153515Y-11208174D02*
X13153515Y-11255793D01*
X13153515Y-11255793D02*
X13143991Y-11293888D01*
X13143991Y-11293888D02*
X13134467Y-11312936D01*
X13134467Y-11312936D02*
X13124944Y-11322460D01*
X13124944Y-11322460D02*
X13105896Y-11331984D01*
X13105896Y-11331984D02*
X13086848Y-11331984D01*
X13086848Y-11331984D02*
X13067801Y-11322460D01*
X13067801Y-11322460D02*
X13058277Y-11312936D01*
X13058277Y-11312936D02*
X13048753Y-11293888D01*
X13048753Y-11293888D02*
X13039229Y-11255793D01*
X13039229Y-11255793D02*
X13039229Y-11208174D01*
X13039229Y-11208174D02*
X13048753Y-11170079D01*
X13048753Y-11170079D02*
X13058277Y-11151031D01*
X13058277Y-11151031D02*
X13067801Y-11141508D01*
X13067801Y-11141508D02*
X13086848Y-11131984D01*
X13220182Y-11131984D02*
X13353515Y-11131984D01*
X13353515Y-11131984D02*
X13267801Y-11331984D01*
X13467801Y-11131984D02*
X13486848Y-11131984D01*
X13486848Y-11131984D02*
X13505896Y-11141508D01*
X13505896Y-11141508D02*
X13515420Y-11151031D01*
X13515420Y-11151031D02*
X13524944Y-11170079D01*
X13524944Y-11170079D02*
X13534467Y-11208174D01*
X13534467Y-11208174D02*
X13534467Y-11255793D01*
X13534467Y-11255793D02*
X13524944Y-11293888D01*
X13524944Y-11293888D02*
X13515420Y-11312936D01*
X13515420Y-11312936D02*
X13505896Y-11322460D01*
X13505896Y-11322460D02*
X13486848Y-11331984D01*
X13486848Y-11331984D02*
X13467801Y-11331984D01*
X13467801Y-11331984D02*
X13448753Y-11322460D01*
X13448753Y-11322460D02*
X13439229Y-11312936D01*
X13439229Y-11312936D02*
X13429706Y-11293888D01*
X13429706Y-11293888D02*
X13420182Y-11255793D01*
X13420182Y-11255793D02*
X13420182Y-11208174D01*
X13420182Y-11208174D02*
X13429706Y-11170079D01*
X13429706Y-11170079D02*
X13439229Y-11151031D01*
X13439229Y-11151031D02*
X13448753Y-11141508D01*
X13448753Y-11141508D02*
X13467801Y-11131984D01*
X13629706Y-11331984D02*
X13667801Y-11331984D01*
X13667801Y-11331984D02*
X13686848Y-11322460D01*
X13686848Y-11322460D02*
X13696372Y-11312936D01*
X13696372Y-11312936D02*
X13715420Y-11284365D01*
X13715420Y-11284365D02*
X13724944Y-11246269D01*
X13724944Y-11246269D02*
X13724944Y-11170079D01*
X13724944Y-11170079D02*
X13715420Y-11151031D01*
X13715420Y-11151031D02*
X13705896Y-11141508D01*
X13705896Y-11141508D02*
X13686848Y-11131984D01*
X13686848Y-11131984D02*
X13648753Y-11131984D01*
X13648753Y-11131984D02*
X13629706Y-11141508D01*
X13629706Y-11141508D02*
X13620182Y-11151031D01*
X13620182Y-11151031D02*
X13610658Y-11170079D01*
X13610658Y-11170079D02*
X13610658Y-11217698D01*
X13610658Y-11217698D02*
X13620182Y-11236746D01*
X13620182Y-11236746D02*
X13629706Y-11246269D01*
X13629706Y-11246269D02*
X13648753Y-11255793D01*
X13648753Y-11255793D02*
X13686848Y-11255793D01*
X13686848Y-11255793D02*
X13705896Y-11246269D01*
X13705896Y-11246269D02*
X13715420Y-11236746D01*
X13715420Y-11236746D02*
X13724944Y-11217698D01*
X13801134Y-11131984D02*
X13801134Y-11170079D01*
X13877325Y-11131984D02*
X13877325Y-11170079D01*
X14172563Y-11408174D02*
X14163039Y-11398650D01*
X14163039Y-11398650D02*
X14143991Y-11370079D01*
X14143991Y-11370079D02*
X14134468Y-11351031D01*
X14134468Y-11351031D02*
X14124944Y-11322460D01*
X14124944Y-11322460D02*
X14115420Y-11274841D01*
X14115420Y-11274841D02*
X14115420Y-11236746D01*
X14115420Y-11236746D02*
X14124944Y-11189127D01*
X14124944Y-11189127D02*
X14134468Y-11160555D01*
X14134468Y-11160555D02*
X14143991Y-11141508D01*
X14143991Y-11141508D02*
X14163039Y-11112936D01*
X14163039Y-11112936D02*
X14172563Y-11103412D01*
X14334468Y-11198650D02*
X14334468Y-11331984D01*
X14286848Y-11122460D02*
X14239229Y-11265317D01*
X14239229Y-11265317D02*
X14363039Y-11265317D01*
X14591610Y-11331984D02*
X14591610Y-11131984D01*
X14677325Y-11331984D02*
X14677325Y-11227222D01*
X14677325Y-11227222D02*
X14667801Y-11208174D01*
X14667801Y-11208174D02*
X14648753Y-11198650D01*
X14648753Y-11198650D02*
X14620182Y-11198650D01*
X14620182Y-11198650D02*
X14601134Y-11208174D01*
X14601134Y-11208174D02*
X14591610Y-11217698D01*
X14801134Y-11331984D02*
X14782087Y-11322460D01*
X14782087Y-11322460D02*
X14772563Y-11312936D01*
X14772563Y-11312936D02*
X14763039Y-11293888D01*
X14763039Y-11293888D02*
X14763039Y-11236746D01*
X14763039Y-11236746D02*
X14772563Y-11217698D01*
X14772563Y-11217698D02*
X14782087Y-11208174D01*
X14782087Y-11208174D02*
X14801134Y-11198650D01*
X14801134Y-11198650D02*
X14829706Y-11198650D01*
X14829706Y-11198650D02*
X14848753Y-11208174D01*
X14848753Y-11208174D02*
X14858277Y-11217698D01*
X14858277Y-11217698D02*
X14867801Y-11236746D01*
X14867801Y-11236746D02*
X14867801Y-11293888D01*
X14867801Y-11293888D02*
X14858277Y-11312936D01*
X14858277Y-11312936D02*
X14848753Y-11322460D01*
X14848753Y-11322460D02*
X14829706Y-11331984D01*
X14829706Y-11331984D02*
X14801134Y-11331984D01*
X14982087Y-11331984D02*
X14963039Y-11322460D01*
X14963039Y-11322460D02*
X14953515Y-11303412D01*
X14953515Y-11303412D02*
X14953515Y-11131984D01*
X15134468Y-11322460D02*
X15115420Y-11331984D01*
X15115420Y-11331984D02*
X15077325Y-11331984D01*
X15077325Y-11331984D02*
X15058277Y-11322460D01*
X15058277Y-11322460D02*
X15048753Y-11303412D01*
X15048753Y-11303412D02*
X15048753Y-11227222D01*
X15048753Y-11227222D02*
X15058277Y-11208174D01*
X15058277Y-11208174D02*
X15077325Y-11198650D01*
X15077325Y-11198650D02*
X15115420Y-11198650D01*
X15115420Y-11198650D02*
X15134468Y-11208174D01*
X15134468Y-11208174D02*
X15143991Y-11227222D01*
X15143991Y-11227222D02*
X15143991Y-11246269D01*
X15143991Y-11246269D02*
X15048753Y-11265317D01*
X15220182Y-11322460D02*
X15239230Y-11331984D01*
X15239230Y-11331984D02*
X15277325Y-11331984D01*
X15277325Y-11331984D02*
X15296372Y-11322460D01*
X15296372Y-11322460D02*
X15305896Y-11303412D01*
X15305896Y-11303412D02*
X15305896Y-11293888D01*
X15305896Y-11293888D02*
X15296372Y-11274841D01*
X15296372Y-11274841D02*
X15277325Y-11265317D01*
X15277325Y-11265317D02*
X15248753Y-11265317D01*
X15248753Y-11265317D02*
X15229706Y-11255793D01*
X15229706Y-11255793D02*
X15220182Y-11236746D01*
X15220182Y-11236746D02*
X15220182Y-11227222D01*
X15220182Y-11227222D02*
X15229706Y-11208174D01*
X15229706Y-11208174D02*
X15248753Y-11198650D01*
X15248753Y-11198650D02*
X15277325Y-11198650D01*
X15277325Y-11198650D02*
X15296372Y-11208174D01*
X15372563Y-11408174D02*
X15382087Y-11398650D01*
X15382087Y-11398650D02*
X15401134Y-11370079D01*
X15401134Y-11370079D02*
X15410658Y-11351031D01*
X15410658Y-11351031D02*
X15420182Y-11322460D01*
X15420182Y-11322460D02*
X15429706Y-11274841D01*
X15429706Y-11274841D02*
X15429706Y-11236746D01*
X15429706Y-11236746D02*
X15420182Y-11189127D01*
X15420182Y-11189127D02*
X15410658Y-11160555D01*
X15410658Y-11160555D02*
X15401134Y-11141508D01*
X15401134Y-11141508D02*
X15382087Y-11112936D01*
X15382087Y-11112936D02*
X15372563Y-11103412D01*
X10497500Y-11640500D02*
X10597500Y-11540500D01*
X10497500Y-11440500D01*
X10397500Y-11540500D01*
X10497500Y-11640500D01*
X10848753Y-11451031D02*
X10858277Y-11441508D01*
X10858277Y-11441508D02*
X10877324Y-11431984D01*
X10877324Y-11431984D02*
X10924944Y-11431984D01*
X10924944Y-11431984D02*
X10943991Y-11441508D01*
X10943991Y-11441508D02*
X10953515Y-11451031D01*
X10953515Y-11451031D02*
X10963039Y-11470079D01*
X10963039Y-11470079D02*
X10963039Y-11489127D01*
X10963039Y-11489127D02*
X10953515Y-11517698D01*
X10953515Y-11517698D02*
X10839229Y-11631984D01*
X10839229Y-11631984D02*
X10963039Y-11631984D01*
X11048753Y-11612936D02*
X11058277Y-11622460D01*
X11058277Y-11622460D02*
X11048753Y-11631984D01*
X11048753Y-11631984D02*
X11039229Y-11622460D01*
X11039229Y-11622460D02*
X11048753Y-11612936D01*
X11048753Y-11612936D02*
X11048753Y-11631984D01*
X11182086Y-11431984D02*
X11201134Y-11431984D01*
X11201134Y-11431984D02*
X11220182Y-11441508D01*
X11220182Y-11441508D02*
X11229705Y-11451031D01*
X11229705Y-11451031D02*
X11239229Y-11470079D01*
X11239229Y-11470079D02*
X11248753Y-11508174D01*
X11248753Y-11508174D02*
X11248753Y-11555793D01*
X11248753Y-11555793D02*
X11239229Y-11593888D01*
X11239229Y-11593888D02*
X11229705Y-11612936D01*
X11229705Y-11612936D02*
X11220182Y-11622460D01*
X11220182Y-11622460D02*
X11201134Y-11631984D01*
X11201134Y-11631984D02*
X11182086Y-11631984D01*
X11182086Y-11631984D02*
X11163039Y-11622460D01*
X11163039Y-11622460D02*
X11153515Y-11612936D01*
X11153515Y-11612936D02*
X11143991Y-11593888D01*
X11143991Y-11593888D02*
X11134467Y-11555793D01*
X11134467Y-11555793D02*
X11134467Y-11508174D01*
X11134467Y-11508174D02*
X11143991Y-11470079D01*
X11143991Y-11470079D02*
X11153515Y-11451031D01*
X11153515Y-11451031D02*
X11163039Y-11441508D01*
X11163039Y-11441508D02*
X11182086Y-11431984D01*
X11372562Y-11431984D02*
X11391610Y-11431984D01*
X11391610Y-11431984D02*
X11410658Y-11441508D01*
X11410658Y-11441508D02*
X11420182Y-11451031D01*
X11420182Y-11451031D02*
X11429705Y-11470079D01*
X11429705Y-11470079D02*
X11439229Y-11508174D01*
X11439229Y-11508174D02*
X11439229Y-11555793D01*
X11439229Y-11555793D02*
X11429705Y-11593888D01*
X11429705Y-11593888D02*
X11420182Y-11612936D01*
X11420182Y-11612936D02*
X11410658Y-11622460D01*
X11410658Y-11622460D02*
X11391610Y-11631984D01*
X11391610Y-11631984D02*
X11372562Y-11631984D01*
X11372562Y-11631984D02*
X11353515Y-11622460D01*
X11353515Y-11622460D02*
X11343991Y-11612936D01*
X11343991Y-11612936D02*
X11334467Y-11593888D01*
X11334467Y-11593888D02*
X11324943Y-11555793D01*
X11324943Y-11555793D02*
X11324943Y-11508174D01*
X11324943Y-11508174D02*
X11334467Y-11470079D01*
X11334467Y-11470079D02*
X11343991Y-11451031D01*
X11343991Y-11451031D02*
X11353515Y-11441508D01*
X11353515Y-11441508D02*
X11372562Y-11431984D01*
X11563039Y-11431984D02*
X11582086Y-11431984D01*
X11582086Y-11431984D02*
X11601134Y-11441508D01*
X11601134Y-11441508D02*
X11610658Y-11451031D01*
X11610658Y-11451031D02*
X11620182Y-11470079D01*
X11620182Y-11470079D02*
X11629705Y-11508174D01*
X11629705Y-11508174D02*
X11629705Y-11555793D01*
X11629705Y-11555793D02*
X11620182Y-11593888D01*
X11620182Y-11593888D02*
X11610658Y-11612936D01*
X11610658Y-11612936D02*
X11601134Y-11622460D01*
X11601134Y-11622460D02*
X11582086Y-11631984D01*
X11582086Y-11631984D02*
X11563039Y-11631984D01*
X11563039Y-11631984D02*
X11543991Y-11622460D01*
X11543991Y-11622460D02*
X11534467Y-11612936D01*
X11534467Y-11612936D02*
X11524943Y-11593888D01*
X11524943Y-11593888D02*
X11515420Y-11555793D01*
X11515420Y-11555793D02*
X11515420Y-11508174D01*
X11515420Y-11508174D02*
X11524943Y-11470079D01*
X11524943Y-11470079D02*
X11534467Y-11451031D01*
X11534467Y-11451031D02*
X11543991Y-11441508D01*
X11543991Y-11441508D02*
X11563039Y-11431984D01*
X11715420Y-11631984D02*
X11715420Y-11498650D01*
X11715420Y-11517698D02*
X11724943Y-11508174D01*
X11724943Y-11508174D02*
X11743991Y-11498650D01*
X11743991Y-11498650D02*
X11772563Y-11498650D01*
X11772563Y-11498650D02*
X11791610Y-11508174D01*
X11791610Y-11508174D02*
X11801134Y-11527222D01*
X11801134Y-11527222D02*
X11801134Y-11631984D01*
X11801134Y-11527222D02*
X11810658Y-11508174D01*
X11810658Y-11508174D02*
X11829705Y-11498650D01*
X11829705Y-11498650D02*
X11858277Y-11498650D01*
X11858277Y-11498650D02*
X11877324Y-11508174D01*
X11877324Y-11508174D02*
X11886848Y-11527222D01*
X11886848Y-11527222D02*
X11886848Y-11631984D01*
X11982086Y-11631984D02*
X11982086Y-11498650D01*
X11982086Y-11517698D02*
X11991610Y-11508174D01*
X11991610Y-11508174D02*
X12010658Y-11498650D01*
X12010658Y-11498650D02*
X12039229Y-11498650D01*
X12039229Y-11498650D02*
X12058277Y-11508174D01*
X12058277Y-11508174D02*
X12067801Y-11527222D01*
X12067801Y-11527222D02*
X12067801Y-11631984D01*
X12067801Y-11527222D02*
X12077324Y-11508174D01*
X12077324Y-11508174D02*
X12096372Y-11498650D01*
X12096372Y-11498650D02*
X12124943Y-11498650D01*
X12124943Y-11498650D02*
X12143991Y-11508174D01*
X12143991Y-11508174D02*
X12153515Y-11527222D01*
X12153515Y-11527222D02*
X12153515Y-11631984D01*
X12543991Y-11422460D02*
X12372563Y-11679603D01*
X12801134Y-11431984D02*
X12820182Y-11431984D01*
X12820182Y-11431984D02*
X12839229Y-11441508D01*
X12839229Y-11441508D02*
X12848753Y-11451031D01*
X12848753Y-11451031D02*
X12858277Y-11470079D01*
X12858277Y-11470079D02*
X12867801Y-11508174D01*
X12867801Y-11508174D02*
X12867801Y-11555793D01*
X12867801Y-11555793D02*
X12858277Y-11593888D01*
X12858277Y-11593888D02*
X12848753Y-11612936D01*
X12848753Y-11612936D02*
X12839229Y-11622460D01*
X12839229Y-11622460D02*
X12820182Y-11631984D01*
X12820182Y-11631984D02*
X12801134Y-11631984D01*
X12801134Y-11631984D02*
X12782086Y-11622460D01*
X12782086Y-11622460D02*
X12772563Y-11612936D01*
X12772563Y-11612936D02*
X12763039Y-11593888D01*
X12763039Y-11593888D02*
X12753515Y-11555793D01*
X12753515Y-11555793D02*
X12753515Y-11508174D01*
X12753515Y-11508174D02*
X12763039Y-11470079D01*
X12763039Y-11470079D02*
X12772563Y-11451031D01*
X12772563Y-11451031D02*
X12782086Y-11441508D01*
X12782086Y-11441508D02*
X12801134Y-11431984D01*
X12953515Y-11612936D02*
X12963039Y-11622460D01*
X12963039Y-11622460D02*
X12953515Y-11631984D01*
X12953515Y-11631984D02*
X12943991Y-11622460D01*
X12943991Y-11622460D02*
X12953515Y-11612936D01*
X12953515Y-11612936D02*
X12953515Y-11631984D01*
X13086848Y-11431984D02*
X13105896Y-11431984D01*
X13105896Y-11431984D02*
X13124944Y-11441508D01*
X13124944Y-11441508D02*
X13134467Y-11451031D01*
X13134467Y-11451031D02*
X13143991Y-11470079D01*
X13143991Y-11470079D02*
X13153515Y-11508174D01*
X13153515Y-11508174D02*
X13153515Y-11555793D01*
X13153515Y-11555793D02*
X13143991Y-11593888D01*
X13143991Y-11593888D02*
X13134467Y-11612936D01*
X13134467Y-11612936D02*
X13124944Y-11622460D01*
X13124944Y-11622460D02*
X13105896Y-11631984D01*
X13105896Y-11631984D02*
X13086848Y-11631984D01*
X13086848Y-11631984D02*
X13067801Y-11622460D01*
X13067801Y-11622460D02*
X13058277Y-11612936D01*
X13058277Y-11612936D02*
X13048753Y-11593888D01*
X13048753Y-11593888D02*
X13039229Y-11555793D01*
X13039229Y-11555793D02*
X13039229Y-11508174D01*
X13039229Y-11508174D02*
X13048753Y-11470079D01*
X13048753Y-11470079D02*
X13058277Y-11451031D01*
X13058277Y-11451031D02*
X13067801Y-11441508D01*
X13067801Y-11441508D02*
X13086848Y-11431984D01*
X13220182Y-11431984D02*
X13353515Y-11431984D01*
X13353515Y-11431984D02*
X13267801Y-11631984D01*
X13458277Y-11517698D02*
X13439229Y-11508174D01*
X13439229Y-11508174D02*
X13429706Y-11498650D01*
X13429706Y-11498650D02*
X13420182Y-11479603D01*
X13420182Y-11479603D02*
X13420182Y-11470079D01*
X13420182Y-11470079D02*
X13429706Y-11451031D01*
X13429706Y-11451031D02*
X13439229Y-11441508D01*
X13439229Y-11441508D02*
X13458277Y-11431984D01*
X13458277Y-11431984D02*
X13496372Y-11431984D01*
X13496372Y-11431984D02*
X13515420Y-11441508D01*
X13515420Y-11441508D02*
X13524944Y-11451031D01*
X13524944Y-11451031D02*
X13534467Y-11470079D01*
X13534467Y-11470079D02*
X13534467Y-11479603D01*
X13534467Y-11479603D02*
X13524944Y-11498650D01*
X13524944Y-11498650D02*
X13515420Y-11508174D01*
X13515420Y-11508174D02*
X13496372Y-11517698D01*
X13496372Y-11517698D02*
X13458277Y-11517698D01*
X13458277Y-11517698D02*
X13439229Y-11527222D01*
X13439229Y-11527222D02*
X13429706Y-11536746D01*
X13429706Y-11536746D02*
X13420182Y-11555793D01*
X13420182Y-11555793D02*
X13420182Y-11593888D01*
X13420182Y-11593888D02*
X13429706Y-11612936D01*
X13429706Y-11612936D02*
X13439229Y-11622460D01*
X13439229Y-11622460D02*
X13458277Y-11631984D01*
X13458277Y-11631984D02*
X13496372Y-11631984D01*
X13496372Y-11631984D02*
X13515420Y-11622460D01*
X13515420Y-11622460D02*
X13524944Y-11612936D01*
X13524944Y-11612936D02*
X13534467Y-11593888D01*
X13534467Y-11593888D02*
X13534467Y-11555793D01*
X13534467Y-11555793D02*
X13524944Y-11536746D01*
X13524944Y-11536746D02*
X13515420Y-11527222D01*
X13515420Y-11527222D02*
X13496372Y-11517698D01*
X13601134Y-11431984D02*
X13734467Y-11431984D01*
X13734467Y-11431984D02*
X13648753Y-11631984D01*
X13801134Y-11431984D02*
X13801134Y-11470079D01*
X13877325Y-11431984D02*
X13877325Y-11470079D01*
X14172563Y-11708174D02*
X14163039Y-11698650D01*
X14163039Y-11698650D02*
X14143991Y-11670079D01*
X14143991Y-11670079D02*
X14134468Y-11651031D01*
X14134468Y-11651031D02*
X14124944Y-11622460D01*
X14124944Y-11622460D02*
X14115420Y-11574841D01*
X14115420Y-11574841D02*
X14115420Y-11536746D01*
X14115420Y-11536746D02*
X14124944Y-11489127D01*
X14124944Y-11489127D02*
X14134468Y-11460555D01*
X14134468Y-11460555D02*
X14143991Y-11441508D01*
X14143991Y-11441508D02*
X14163039Y-11412936D01*
X14163039Y-11412936D02*
X14172563Y-11403412D01*
X14286848Y-11431984D02*
X14305896Y-11431984D01*
X14305896Y-11431984D02*
X14324944Y-11441508D01*
X14324944Y-11441508D02*
X14334468Y-11451031D01*
X14334468Y-11451031D02*
X14343991Y-11470079D01*
X14343991Y-11470079D02*
X14353515Y-11508174D01*
X14353515Y-11508174D02*
X14353515Y-11555793D01*
X14353515Y-11555793D02*
X14343991Y-11593888D01*
X14343991Y-11593888D02*
X14334468Y-11612936D01*
X14334468Y-11612936D02*
X14324944Y-11622460D01*
X14324944Y-11622460D02*
X14305896Y-11631984D01*
X14305896Y-11631984D02*
X14286848Y-11631984D01*
X14286848Y-11631984D02*
X14267801Y-11622460D01*
X14267801Y-11622460D02*
X14258277Y-11612936D01*
X14258277Y-11612936D02*
X14248753Y-11593888D01*
X14248753Y-11593888D02*
X14239229Y-11555793D01*
X14239229Y-11555793D02*
X14239229Y-11508174D01*
X14239229Y-11508174D02*
X14248753Y-11470079D01*
X14248753Y-11470079D02*
X14258277Y-11451031D01*
X14258277Y-11451031D02*
X14267801Y-11441508D01*
X14267801Y-11441508D02*
X14286848Y-11431984D01*
X14591610Y-11631984D02*
X14591610Y-11431984D01*
X14677325Y-11631984D02*
X14677325Y-11527222D01*
X14677325Y-11527222D02*
X14667801Y-11508174D01*
X14667801Y-11508174D02*
X14648753Y-11498650D01*
X14648753Y-11498650D02*
X14620182Y-11498650D01*
X14620182Y-11498650D02*
X14601134Y-11508174D01*
X14601134Y-11508174D02*
X14591610Y-11517698D01*
X14801134Y-11631984D02*
X14782087Y-11622460D01*
X14782087Y-11622460D02*
X14772563Y-11612936D01*
X14772563Y-11612936D02*
X14763039Y-11593888D01*
X14763039Y-11593888D02*
X14763039Y-11536746D01*
X14763039Y-11536746D02*
X14772563Y-11517698D01*
X14772563Y-11517698D02*
X14782087Y-11508174D01*
X14782087Y-11508174D02*
X14801134Y-11498650D01*
X14801134Y-11498650D02*
X14829706Y-11498650D01*
X14829706Y-11498650D02*
X14848753Y-11508174D01*
X14848753Y-11508174D02*
X14858277Y-11517698D01*
X14858277Y-11517698D02*
X14867801Y-11536746D01*
X14867801Y-11536746D02*
X14867801Y-11593888D01*
X14867801Y-11593888D02*
X14858277Y-11612936D01*
X14858277Y-11612936D02*
X14848753Y-11622460D01*
X14848753Y-11622460D02*
X14829706Y-11631984D01*
X14829706Y-11631984D02*
X14801134Y-11631984D01*
X14982087Y-11631984D02*
X14963039Y-11622460D01*
X14963039Y-11622460D02*
X14953515Y-11603412D01*
X14953515Y-11603412D02*
X14953515Y-11431984D01*
X15134468Y-11622460D02*
X15115420Y-11631984D01*
X15115420Y-11631984D02*
X15077325Y-11631984D01*
X15077325Y-11631984D02*
X15058277Y-11622460D01*
X15058277Y-11622460D02*
X15048753Y-11603412D01*
X15048753Y-11603412D02*
X15048753Y-11527222D01*
X15048753Y-11527222D02*
X15058277Y-11508174D01*
X15058277Y-11508174D02*
X15077325Y-11498650D01*
X15077325Y-11498650D02*
X15115420Y-11498650D01*
X15115420Y-11498650D02*
X15134468Y-11508174D01*
X15134468Y-11508174D02*
X15143991Y-11527222D01*
X15143991Y-11527222D02*
X15143991Y-11546269D01*
X15143991Y-11546269D02*
X15048753Y-11565317D01*
X15220182Y-11622460D02*
X15239230Y-11631984D01*
X15239230Y-11631984D02*
X15277325Y-11631984D01*
X15277325Y-11631984D02*
X15296372Y-11622460D01*
X15296372Y-11622460D02*
X15305896Y-11603412D01*
X15305896Y-11603412D02*
X15305896Y-11593888D01*
X15305896Y-11593888D02*
X15296372Y-11574841D01*
X15296372Y-11574841D02*
X15277325Y-11565317D01*
X15277325Y-11565317D02*
X15248753Y-11565317D01*
X15248753Y-11565317D02*
X15229706Y-11555793D01*
X15229706Y-11555793D02*
X15220182Y-11536746D01*
X15220182Y-11536746D02*
X15220182Y-11527222D01*
X15220182Y-11527222D02*
X15229706Y-11508174D01*
X15229706Y-11508174D02*
X15248753Y-11498650D01*
X15248753Y-11498650D02*
X15277325Y-11498650D01*
X15277325Y-11498650D02*
X15296372Y-11508174D01*
X15543992Y-11555793D02*
X15696373Y-11555793D01*
X15620182Y-11631984D02*
X15620182Y-11479603D01*
X15934468Y-11451031D02*
X15943992Y-11441508D01*
X15943992Y-11441508D02*
X15963039Y-11431984D01*
X15963039Y-11431984D02*
X16010658Y-11431984D01*
X16010658Y-11431984D02*
X16029706Y-11441508D01*
X16029706Y-11441508D02*
X16039230Y-11451031D01*
X16039230Y-11451031D02*
X16048753Y-11470079D01*
X16048753Y-11470079D02*
X16048753Y-11489127D01*
X16048753Y-11489127D02*
X16039230Y-11517698D01*
X16039230Y-11517698D02*
X15924944Y-11631984D01*
X15924944Y-11631984D02*
X16048753Y-11631984D01*
X16277325Y-11622460D02*
X16296373Y-11631984D01*
X16296373Y-11631984D02*
X16334468Y-11631984D01*
X16334468Y-11631984D02*
X16353515Y-11622460D01*
X16353515Y-11622460D02*
X16363039Y-11603412D01*
X16363039Y-11603412D02*
X16363039Y-11593888D01*
X16363039Y-11593888D02*
X16353515Y-11574841D01*
X16353515Y-11574841D02*
X16334468Y-11565317D01*
X16334468Y-11565317D02*
X16305896Y-11565317D01*
X16305896Y-11565317D02*
X16286849Y-11555793D01*
X16286849Y-11555793D02*
X16277325Y-11536746D01*
X16277325Y-11536746D02*
X16277325Y-11527222D01*
X16277325Y-11527222D02*
X16286849Y-11508174D01*
X16286849Y-11508174D02*
X16305896Y-11498650D01*
X16305896Y-11498650D02*
X16334468Y-11498650D01*
X16334468Y-11498650D02*
X16353515Y-11508174D01*
X16477325Y-11631984D02*
X16458277Y-11622460D01*
X16458277Y-11622460D02*
X16448754Y-11603412D01*
X16448754Y-11603412D02*
X16448754Y-11431984D01*
X16582087Y-11631984D02*
X16563039Y-11622460D01*
X16563039Y-11622460D02*
X16553515Y-11612936D01*
X16553515Y-11612936D02*
X16543992Y-11593888D01*
X16543992Y-11593888D02*
X16543992Y-11536746D01*
X16543992Y-11536746D02*
X16553515Y-11517698D01*
X16553515Y-11517698D02*
X16563039Y-11508174D01*
X16563039Y-11508174D02*
X16582087Y-11498650D01*
X16582087Y-11498650D02*
X16610658Y-11498650D01*
X16610658Y-11498650D02*
X16629706Y-11508174D01*
X16629706Y-11508174D02*
X16639230Y-11517698D01*
X16639230Y-11517698D02*
X16648754Y-11536746D01*
X16648754Y-11536746D02*
X16648754Y-11593888D01*
X16648754Y-11593888D02*
X16639230Y-11612936D01*
X16639230Y-11612936D02*
X16629706Y-11622460D01*
X16629706Y-11622460D02*
X16610658Y-11631984D01*
X16610658Y-11631984D02*
X16582087Y-11631984D01*
X16705896Y-11498650D02*
X16782087Y-11498650D01*
X16734468Y-11431984D02*
X16734468Y-11603412D01*
X16734468Y-11603412D02*
X16743992Y-11622460D01*
X16743992Y-11622460D02*
X16763039Y-11631984D01*
X16763039Y-11631984D02*
X16782087Y-11631984D01*
X16839230Y-11622460D02*
X16858277Y-11631984D01*
X16858277Y-11631984D02*
X16896373Y-11631984D01*
X16896373Y-11631984D02*
X16915420Y-11622460D01*
X16915420Y-11622460D02*
X16924944Y-11603412D01*
X16924944Y-11603412D02*
X16924944Y-11593888D01*
X16924944Y-11593888D02*
X16915420Y-11574841D01*
X16915420Y-11574841D02*
X16896373Y-11565317D01*
X16896373Y-11565317D02*
X16867801Y-11565317D01*
X16867801Y-11565317D02*
X16848754Y-11555793D01*
X16848754Y-11555793D02*
X16839230Y-11536746D01*
X16839230Y-11536746D02*
X16839230Y-11527222D01*
X16839230Y-11527222D02*
X16848754Y-11508174D01*
X16848754Y-11508174D02*
X16867801Y-11498650D01*
X16867801Y-11498650D02*
X16896373Y-11498650D01*
X16896373Y-11498650D02*
X16915420Y-11508174D01*
X16991611Y-11708174D02*
X17001135Y-11698650D01*
X17001135Y-11698650D02*
X17020182Y-11670079D01*
X17020182Y-11670079D02*
X17029706Y-11651031D01*
X17029706Y-11651031D02*
X17039230Y-11622460D01*
X17039230Y-11622460D02*
X17048754Y-11574841D01*
X17048754Y-11574841D02*
X17048754Y-11536746D01*
X17048754Y-11536746D02*
X17039230Y-11489127D01*
X17039230Y-11489127D02*
X17029706Y-11460555D01*
X17029706Y-11460555D02*
X17020182Y-11441508D01*
X17020182Y-11441508D02*
X17001135Y-11412936D01*
X17001135Y-11412936D02*
X16991611Y-11403412D01*
X10397500Y-11760500D02*
X10597500Y-11960500D01*
X10597500Y-11760500D02*
X10397500Y-11960500D01*
X10597500Y-11860500D02*
G75*
G02*
X10397500Y-11860500I-100000J0D01*
G01*
X10397500Y-11860500D02*
G75*
G02*
X10597500Y-11860500I100000J0D01*
G01*
X10848753Y-11771031D02*
X10858277Y-11761508D01*
X10858277Y-11761508D02*
X10877324Y-11751984D01*
X10877324Y-11751984D02*
X10924944Y-11751984D01*
X10924944Y-11751984D02*
X10943991Y-11761508D01*
X10943991Y-11761508D02*
X10953515Y-11771031D01*
X10953515Y-11771031D02*
X10963039Y-11790079D01*
X10963039Y-11790079D02*
X10963039Y-11809127D01*
X10963039Y-11809127D02*
X10953515Y-11837698D01*
X10953515Y-11837698D02*
X10839229Y-11951984D01*
X10839229Y-11951984D02*
X10963039Y-11951984D01*
X11048753Y-11932936D02*
X11058277Y-11942460D01*
X11058277Y-11942460D02*
X11048753Y-11951984D01*
X11048753Y-11951984D02*
X11039229Y-11942460D01*
X11039229Y-11942460D02*
X11048753Y-11932936D01*
X11048753Y-11932936D02*
X11048753Y-11951984D01*
X11124944Y-11751984D02*
X11258277Y-11751984D01*
X11258277Y-11751984D02*
X11172563Y-11951984D01*
X11372562Y-11751984D02*
X11391610Y-11751984D01*
X11391610Y-11751984D02*
X11410658Y-11761508D01*
X11410658Y-11761508D02*
X11420182Y-11771031D01*
X11420182Y-11771031D02*
X11429705Y-11790079D01*
X11429705Y-11790079D02*
X11439229Y-11828174D01*
X11439229Y-11828174D02*
X11439229Y-11875793D01*
X11439229Y-11875793D02*
X11429705Y-11913888D01*
X11429705Y-11913888D02*
X11420182Y-11932936D01*
X11420182Y-11932936D02*
X11410658Y-11942460D01*
X11410658Y-11942460D02*
X11391610Y-11951984D01*
X11391610Y-11951984D02*
X11372562Y-11951984D01*
X11372562Y-11951984D02*
X11353515Y-11942460D01*
X11353515Y-11942460D02*
X11343991Y-11932936D01*
X11343991Y-11932936D02*
X11334467Y-11913888D01*
X11334467Y-11913888D02*
X11324943Y-11875793D01*
X11324943Y-11875793D02*
X11324943Y-11828174D01*
X11324943Y-11828174D02*
X11334467Y-11790079D01*
X11334467Y-11790079D02*
X11343991Y-11771031D01*
X11343991Y-11771031D02*
X11353515Y-11761508D01*
X11353515Y-11761508D02*
X11372562Y-11751984D01*
X11563039Y-11751984D02*
X11582086Y-11751984D01*
X11582086Y-11751984D02*
X11601134Y-11761508D01*
X11601134Y-11761508D02*
X11610658Y-11771031D01*
X11610658Y-11771031D02*
X11620182Y-11790079D01*
X11620182Y-11790079D02*
X11629705Y-11828174D01*
X11629705Y-11828174D02*
X11629705Y-11875793D01*
X11629705Y-11875793D02*
X11620182Y-11913888D01*
X11620182Y-11913888D02*
X11610658Y-11932936D01*
X11610658Y-11932936D02*
X11601134Y-11942460D01*
X11601134Y-11942460D02*
X11582086Y-11951984D01*
X11582086Y-11951984D02*
X11563039Y-11951984D01*
X11563039Y-11951984D02*
X11543991Y-11942460D01*
X11543991Y-11942460D02*
X11534467Y-11932936D01*
X11534467Y-11932936D02*
X11524943Y-11913888D01*
X11524943Y-11913888D02*
X11515420Y-11875793D01*
X11515420Y-11875793D02*
X11515420Y-11828174D01*
X11515420Y-11828174D02*
X11524943Y-11790079D01*
X11524943Y-11790079D02*
X11534467Y-11771031D01*
X11534467Y-11771031D02*
X11543991Y-11761508D01*
X11543991Y-11761508D02*
X11563039Y-11751984D01*
X11715420Y-11951984D02*
X11715420Y-11818650D01*
X11715420Y-11837698D02*
X11724943Y-11828174D01*
X11724943Y-11828174D02*
X11743991Y-11818650D01*
X11743991Y-11818650D02*
X11772563Y-11818650D01*
X11772563Y-11818650D02*
X11791610Y-11828174D01*
X11791610Y-11828174D02*
X11801134Y-11847222D01*
X11801134Y-11847222D02*
X11801134Y-11951984D01*
X11801134Y-11847222D02*
X11810658Y-11828174D01*
X11810658Y-11828174D02*
X11829705Y-11818650D01*
X11829705Y-11818650D02*
X11858277Y-11818650D01*
X11858277Y-11818650D02*
X11877324Y-11828174D01*
X11877324Y-11828174D02*
X11886848Y-11847222D01*
X11886848Y-11847222D02*
X11886848Y-11951984D01*
X11982086Y-11951984D02*
X11982086Y-11818650D01*
X11982086Y-11837698D02*
X11991610Y-11828174D01*
X11991610Y-11828174D02*
X12010658Y-11818650D01*
X12010658Y-11818650D02*
X12039229Y-11818650D01*
X12039229Y-11818650D02*
X12058277Y-11828174D01*
X12058277Y-11828174D02*
X12067801Y-11847222D01*
X12067801Y-11847222D02*
X12067801Y-11951984D01*
X12067801Y-11847222D02*
X12077324Y-11828174D01*
X12077324Y-11828174D02*
X12096372Y-11818650D01*
X12096372Y-11818650D02*
X12124943Y-11818650D01*
X12124943Y-11818650D02*
X12143991Y-11828174D01*
X12143991Y-11828174D02*
X12153515Y-11847222D01*
X12153515Y-11847222D02*
X12153515Y-11951984D01*
X12543991Y-11742460D02*
X12372563Y-11999603D01*
X12801134Y-11751984D02*
X12820182Y-11751984D01*
X12820182Y-11751984D02*
X12839229Y-11761508D01*
X12839229Y-11761508D02*
X12848753Y-11771031D01*
X12848753Y-11771031D02*
X12858277Y-11790079D01*
X12858277Y-11790079D02*
X12867801Y-11828174D01*
X12867801Y-11828174D02*
X12867801Y-11875793D01*
X12867801Y-11875793D02*
X12858277Y-11913888D01*
X12858277Y-11913888D02*
X12848753Y-11932936D01*
X12848753Y-11932936D02*
X12839229Y-11942460D01*
X12839229Y-11942460D02*
X12820182Y-11951984D01*
X12820182Y-11951984D02*
X12801134Y-11951984D01*
X12801134Y-11951984D02*
X12782086Y-11942460D01*
X12782086Y-11942460D02*
X12772563Y-11932936D01*
X12772563Y-11932936D02*
X12763039Y-11913888D01*
X12763039Y-11913888D02*
X12753515Y-11875793D01*
X12753515Y-11875793D02*
X12753515Y-11828174D01*
X12753515Y-11828174D02*
X12763039Y-11790079D01*
X12763039Y-11790079D02*
X12772563Y-11771031D01*
X12772563Y-11771031D02*
X12782086Y-11761508D01*
X12782086Y-11761508D02*
X12801134Y-11751984D01*
X12953515Y-11932936D02*
X12963039Y-11942460D01*
X12963039Y-11942460D02*
X12953515Y-11951984D01*
X12953515Y-11951984D02*
X12943991Y-11942460D01*
X12943991Y-11942460D02*
X12953515Y-11932936D01*
X12953515Y-11932936D02*
X12953515Y-11951984D01*
X13153515Y-11951984D02*
X13039229Y-11951984D01*
X13096372Y-11951984D02*
X13096372Y-11751984D01*
X13096372Y-11751984D02*
X13077325Y-11780555D01*
X13077325Y-11780555D02*
X13058277Y-11799603D01*
X13058277Y-11799603D02*
X13039229Y-11809127D01*
X13277325Y-11751984D02*
X13296372Y-11751984D01*
X13296372Y-11751984D02*
X13315420Y-11761508D01*
X13315420Y-11761508D02*
X13324944Y-11771031D01*
X13324944Y-11771031D02*
X13334467Y-11790079D01*
X13334467Y-11790079D02*
X13343991Y-11828174D01*
X13343991Y-11828174D02*
X13343991Y-11875793D01*
X13343991Y-11875793D02*
X13334467Y-11913888D01*
X13334467Y-11913888D02*
X13324944Y-11932936D01*
X13324944Y-11932936D02*
X13315420Y-11942460D01*
X13315420Y-11942460D02*
X13296372Y-11951984D01*
X13296372Y-11951984D02*
X13277325Y-11951984D01*
X13277325Y-11951984D02*
X13258277Y-11942460D01*
X13258277Y-11942460D02*
X13248753Y-11932936D01*
X13248753Y-11932936D02*
X13239229Y-11913888D01*
X13239229Y-11913888D02*
X13229706Y-11875793D01*
X13229706Y-11875793D02*
X13229706Y-11828174D01*
X13229706Y-11828174D02*
X13239229Y-11790079D01*
X13239229Y-11790079D02*
X13248753Y-11771031D01*
X13248753Y-11771031D02*
X13258277Y-11761508D01*
X13258277Y-11761508D02*
X13277325Y-11751984D01*
X13515420Y-11751984D02*
X13477325Y-11751984D01*
X13477325Y-11751984D02*
X13458277Y-11761508D01*
X13458277Y-11761508D02*
X13448753Y-11771031D01*
X13448753Y-11771031D02*
X13429706Y-11799603D01*
X13429706Y-11799603D02*
X13420182Y-11837698D01*
X13420182Y-11837698D02*
X13420182Y-11913888D01*
X13420182Y-11913888D02*
X13429706Y-11932936D01*
X13429706Y-11932936D02*
X13439229Y-11942460D01*
X13439229Y-11942460D02*
X13458277Y-11951984D01*
X13458277Y-11951984D02*
X13496372Y-11951984D01*
X13496372Y-11951984D02*
X13515420Y-11942460D01*
X13515420Y-11942460D02*
X13524944Y-11932936D01*
X13524944Y-11932936D02*
X13534467Y-11913888D01*
X13534467Y-11913888D02*
X13534467Y-11866269D01*
X13534467Y-11866269D02*
X13524944Y-11847222D01*
X13524944Y-11847222D02*
X13515420Y-11837698D01*
X13515420Y-11837698D02*
X13496372Y-11828174D01*
X13496372Y-11828174D02*
X13458277Y-11828174D01*
X13458277Y-11828174D02*
X13439229Y-11837698D01*
X13439229Y-11837698D02*
X13429706Y-11847222D01*
X13429706Y-11847222D02*
X13420182Y-11866269D01*
X13601134Y-11751984D02*
X13724944Y-11751984D01*
X13724944Y-11751984D02*
X13658277Y-11828174D01*
X13658277Y-11828174D02*
X13686848Y-11828174D01*
X13686848Y-11828174D02*
X13705896Y-11837698D01*
X13705896Y-11837698D02*
X13715420Y-11847222D01*
X13715420Y-11847222D02*
X13724944Y-11866269D01*
X13724944Y-11866269D02*
X13724944Y-11913888D01*
X13724944Y-11913888D02*
X13715420Y-11932936D01*
X13715420Y-11932936D02*
X13705896Y-11942460D01*
X13705896Y-11942460D02*
X13686848Y-11951984D01*
X13686848Y-11951984D02*
X13629706Y-11951984D01*
X13629706Y-11951984D02*
X13610658Y-11942460D01*
X13610658Y-11942460D02*
X13601134Y-11932936D01*
X13801134Y-11751984D02*
X13801134Y-11790079D01*
X13877325Y-11751984D02*
X13877325Y-11790079D01*
X14172563Y-12028174D02*
X14163039Y-12018650D01*
X14163039Y-12018650D02*
X14143991Y-11990079D01*
X14143991Y-11990079D02*
X14134468Y-11971031D01*
X14134468Y-11971031D02*
X14124944Y-11942460D01*
X14124944Y-11942460D02*
X14115420Y-11894841D01*
X14115420Y-11894841D02*
X14115420Y-11856746D01*
X14115420Y-11856746D02*
X14124944Y-11809127D01*
X14124944Y-11809127D02*
X14134468Y-11780555D01*
X14134468Y-11780555D02*
X14143991Y-11761508D01*
X14143991Y-11761508D02*
X14163039Y-11732936D01*
X14163039Y-11732936D02*
X14172563Y-11723412D01*
X14334468Y-11818650D02*
X14334468Y-11951984D01*
X14286848Y-11742460D02*
X14239229Y-11885317D01*
X14239229Y-11885317D02*
X14363039Y-11885317D01*
X14591610Y-11951984D02*
X14591610Y-11751984D01*
X14677325Y-11951984D02*
X14677325Y-11847222D01*
X14677325Y-11847222D02*
X14667801Y-11828174D01*
X14667801Y-11828174D02*
X14648753Y-11818650D01*
X14648753Y-11818650D02*
X14620182Y-11818650D01*
X14620182Y-11818650D02*
X14601134Y-11828174D01*
X14601134Y-11828174D02*
X14591610Y-11837698D01*
X14801134Y-11951984D02*
X14782087Y-11942460D01*
X14782087Y-11942460D02*
X14772563Y-11932936D01*
X14772563Y-11932936D02*
X14763039Y-11913888D01*
X14763039Y-11913888D02*
X14763039Y-11856746D01*
X14763039Y-11856746D02*
X14772563Y-11837698D01*
X14772563Y-11837698D02*
X14782087Y-11828174D01*
X14782087Y-11828174D02*
X14801134Y-11818650D01*
X14801134Y-11818650D02*
X14829706Y-11818650D01*
X14829706Y-11818650D02*
X14848753Y-11828174D01*
X14848753Y-11828174D02*
X14858277Y-11837698D01*
X14858277Y-11837698D02*
X14867801Y-11856746D01*
X14867801Y-11856746D02*
X14867801Y-11913888D01*
X14867801Y-11913888D02*
X14858277Y-11932936D01*
X14858277Y-11932936D02*
X14848753Y-11942460D01*
X14848753Y-11942460D02*
X14829706Y-11951984D01*
X14829706Y-11951984D02*
X14801134Y-11951984D01*
X14982087Y-11951984D02*
X14963039Y-11942460D01*
X14963039Y-11942460D02*
X14953515Y-11923412D01*
X14953515Y-11923412D02*
X14953515Y-11751984D01*
X15134468Y-11942460D02*
X15115420Y-11951984D01*
X15115420Y-11951984D02*
X15077325Y-11951984D01*
X15077325Y-11951984D02*
X15058277Y-11942460D01*
X15058277Y-11942460D02*
X15048753Y-11923412D01*
X15048753Y-11923412D02*
X15048753Y-11847222D01*
X15048753Y-11847222D02*
X15058277Y-11828174D01*
X15058277Y-11828174D02*
X15077325Y-11818650D01*
X15077325Y-11818650D02*
X15115420Y-11818650D01*
X15115420Y-11818650D02*
X15134468Y-11828174D01*
X15134468Y-11828174D02*
X15143991Y-11847222D01*
X15143991Y-11847222D02*
X15143991Y-11866269D01*
X15143991Y-11866269D02*
X15048753Y-11885317D01*
X15220182Y-11942460D02*
X15239230Y-11951984D01*
X15239230Y-11951984D02*
X15277325Y-11951984D01*
X15277325Y-11951984D02*
X15296372Y-11942460D01*
X15296372Y-11942460D02*
X15305896Y-11923412D01*
X15305896Y-11923412D02*
X15305896Y-11913888D01*
X15305896Y-11913888D02*
X15296372Y-11894841D01*
X15296372Y-11894841D02*
X15277325Y-11885317D01*
X15277325Y-11885317D02*
X15248753Y-11885317D01*
X15248753Y-11885317D02*
X15229706Y-11875793D01*
X15229706Y-11875793D02*
X15220182Y-11856746D01*
X15220182Y-11856746D02*
X15220182Y-11847222D01*
X15220182Y-11847222D02*
X15229706Y-11828174D01*
X15229706Y-11828174D02*
X15248753Y-11818650D01*
X15248753Y-11818650D02*
X15277325Y-11818650D01*
X15277325Y-11818650D02*
X15296372Y-11828174D01*
X15372563Y-12028174D02*
X15382087Y-12018650D01*
X15382087Y-12018650D02*
X15401134Y-11990079D01*
X15401134Y-11990079D02*
X15410658Y-11971031D01*
X15410658Y-11971031D02*
X15420182Y-11942460D01*
X15420182Y-11942460D02*
X15429706Y-11894841D01*
X15429706Y-11894841D02*
X15429706Y-11856746D01*
X15429706Y-11856746D02*
X15420182Y-11809127D01*
X15420182Y-11809127D02*
X15410658Y-11780555D01*
X15410658Y-11780555D02*
X15401134Y-11761508D01*
X15401134Y-11761508D02*
X15382087Y-11732936D01*
X15382087Y-11732936D02*
X15372563Y-11723412D01*
M02*
