%TF.GenerationSoftware,KiCad,Pcbnew,9.0.2*%
%TF.CreationDate,2025-09-16T11:52:20+02:00*%
%TF.ProjectId,CeB_CURR_PCB,4365425f-4355-4525-925f-5043422e6b69,rev?*%
%TF.SameCoordinates,Original*%
%TF.FileFunction,Copper,L2,Bot*%
%TF.FilePolarity,Positive*%
%FSLAX46Y46*%
G04 Gerber Fmt 4.6, Leading zero omitted, Abs format (unit mm)*
G04 Created by KiCad (PCBNEW 9.0.2) date 2025-09-16 11:52:20*
%MOMM*%
%LPD*%
G01*
G04 APERTURE LIST*
G04 Aperture macros list*
%AMRoundRect*
0 Rectangle with rounded corners*
0 $1 Rounding radius*
0 $2 $3 $4 $5 $6 $7 $8 $9 X,Y pos of 4 corners*
0 Add a 4 corners polygon primitive as box body*
4,1,4,$2,$3,$4,$5,$6,$7,$8,$9,$2,$3,0*
0 Add four circle primitives for the rounded corners*
1,1,$1+$1,$2,$3*
1,1,$1+$1,$4,$5*
1,1,$1+$1,$6,$7*
1,1,$1+$1,$8,$9*
0 Add four rect primitives between the rounded corners*
20,1,$1+$1,$2,$3,$4,$5,0*
20,1,$1+$1,$4,$5,$6,$7,0*
20,1,$1+$1,$6,$7,$8,$9,0*
20,1,$1+$1,$8,$9,$2,$3,0*%
%AMHorizOval*
0 Thick line with rounded ends*
0 $1 width*
0 $2 $3 position (X,Y) of the first rounded end (center of the circle)*
0 $4 $5 position (X,Y) of the second rounded end (center of the circle)*
0 Add line between two ends*
20,1,$1,$2,$3,$4,$5,0*
0 Add two circle primitives to create the rounded ends*
1,1,$1,$2,$3*
1,1,$1,$4,$5*%
G04 Aperture macros list end*
%TA.AperFunction,ComponentPad*%
%ADD10R,1.500000X1.500000*%
%TD*%
%TA.AperFunction,ComponentPad*%
%ADD11C,1.500000*%
%TD*%
%TA.AperFunction,ComponentPad*%
%ADD12HorizOval,0.800000X0.000000X0.000000X0.000000X0.000000X0*%
%TD*%
%TA.AperFunction,ComponentPad*%
%ADD13HorizOval,0.800000X0.000000X0.000000X0.000000X0.000000X0*%
%TD*%
%TA.AperFunction,ComponentPad*%
%ADD14C,0.800000*%
%TD*%
%TA.AperFunction,ComponentPad*%
%ADD15O,6.000000X9.000000*%
%TD*%
%TA.AperFunction,SMDPad,CuDef*%
%ADD16RoundRect,0.237500X0.250000X0.237500X-0.250000X0.237500X-0.250000X-0.237500X0.250000X-0.237500X0*%
%TD*%
%TA.AperFunction,ComponentPad*%
%ADD17C,3.000000*%
%TD*%
%TA.AperFunction,ComponentPad*%
%ADD18R,4.050000X4.050000*%
%TD*%
%TA.AperFunction,ComponentPad*%
%ADD19C,4.050000*%
%TD*%
%TA.AperFunction,ComponentPad*%
%ADD20C,2.700000*%
%TD*%
%TA.AperFunction,Conductor*%
%ADD21C,5.000000*%
%TD*%
%TA.AperFunction,Conductor*%
%ADD22C,0.200000*%
%TD*%
%TA.AperFunction,Conductor*%
%ADD23C,1.000000*%
%TD*%
%TA.AperFunction,Conductor*%
%ADD24C,1.500000*%
%TD*%
G04 APERTURE END LIST*
D10*
%TO.P,U1,1,VCC*%
%TO.N,Net-(J4-Pin_1)*%
X112425000Y-74099999D03*
D11*
%TO.P,U1,2,GND*%
%TO.N,GND*%
X112425002Y-76010002D03*
%TO.P,U1,3,VIOUT*%
%TO.N,Net-(U1-VIOUT)*%
X112425000Y-77919999D03*
D12*
%TO.P,U1,4,IP+*%
%TO.N,Net-(J1-P+)*%
X134454999Y-77060003D03*
D13*
X133195004Y-77060002D03*
D14*
X135485000Y-77809999D03*
X132165002Y-77810000D03*
X135875001Y-79009996D03*
X131775002Y-79010002D03*
X135874998Y-80339997D03*
X131775002Y-80340001D03*
D15*
X133825000Y-81009997D03*
D14*
X135875000Y-81679999D03*
X131775000Y-81679999D03*
X135875000Y-83009997D03*
X131774998Y-83009998D03*
X135485001Y-84209996D03*
X132165003Y-84209996D03*
X134455000Y-84959997D03*
X133195000Y-84959999D03*
%TO.P,U1,5,IP-*%
%TO.N,Net-(J2-P+)*%
X134455000Y-67060001D03*
X133194997Y-67060001D03*
X135485000Y-67809999D03*
X132165000Y-67810001D03*
X135875000Y-69009998D03*
X131775002Y-69009998D03*
X135875000Y-70339993D03*
X131775000Y-70339999D03*
D15*
X133825000Y-71009999D03*
D14*
X135875000Y-71679999D03*
X131774995Y-71679999D03*
X135874998Y-73009997D03*
X131775000Y-73009996D03*
X135484999Y-74210000D03*
X132165000Y-74209999D03*
D13*
X134455001Y-74960003D03*
D12*
X133195002Y-74959999D03*
%TD*%
D16*
%TO.P,R1,1*%
%TO.N,Net-(J1-P+)*%
X128162500Y-93750000D03*
%TO.P,R1,2*%
%TO.N,Net-(J3-Pin_1)*%
X126337500Y-93750000D03*
%TD*%
D17*
%TO.P,J8,1,Pin_1*%
%TO.N,Net-(J1-P-)*%
X115250000Y-85000000D03*
%TD*%
%TO.P,J7,1,Pin_1*%
%TO.N,Net-(J1-P-)*%
X111000000Y-95500000D03*
%TD*%
%TO.P,J6,1,Pin_1*%
%TO.N,Net-(J6-Pin_1)*%
X115250000Y-90000000D03*
%TD*%
%TO.P,J5,1,Pin_1*%
%TO.N,GND*%
X110750000Y-85000000D03*
%TD*%
%TO.P,J4,1,Pin_1*%
%TO.N,Net-(J4-Pin_1)*%
X111000000Y-90000000D03*
%TD*%
%TO.P,J3,1,Pin_1*%
%TO.N,Net-(J3-Pin_1)*%
X115250000Y-95500000D03*
%TD*%
D18*
%TO.P,J2,1,P-*%
%TO.N,Net-(J1-P-)*%
X124150000Y-64162500D03*
D19*
%TO.P,J2,2,P+*%
%TO.N,Net-(J2-P+)*%
X131350000Y-64162500D03*
D20*
%TO.P,J2,3*%
%TO.N,N/C*%
X121000000Y-58162500D03*
%TO.P,J2,4*%
X134500000Y-58162500D03*
%TD*%
D18*
%TO.P,J1,1,P+*%
%TO.N,Net-(J1-P+)*%
X131100000Y-90087500D03*
D19*
%TO.P,J1,2,P-*%
%TO.N,Net-(J1-P-)*%
X123900000Y-90087500D03*
D20*
%TO.P,J1,3*%
%TO.N,N/C*%
X134250001Y-96087503D03*
%TO.P,J1,4*%
X120750000Y-96087500D03*
%TD*%
D21*
%TO.N,Net-(J1-P-)*%
X124150000Y-89837500D02*
X123900000Y-90087500D01*
X124150000Y-64162500D02*
X124150000Y-89837500D01*
%TO.N,Net-(J1-P+)*%
X131100000Y-83734997D02*
X133825000Y-81009997D01*
X131100000Y-90087500D02*
X131100000Y-83734997D01*
%TO.N,Net-(J2-P+)*%
X131350000Y-68534999D02*
X133825000Y-71009999D01*
X131350000Y-64162500D02*
X131350000Y-68534999D01*
D22*
%TO.N,Net-(J1-P-)*%
X115500000Y-84750000D02*
X115250000Y-85000000D01*
D23*
X123900000Y-90087500D02*
X118562500Y-84750000D01*
X118562500Y-84750000D02*
X115500000Y-84750000D01*
X117500000Y-92750000D02*
X120162500Y-90087500D01*
X111000000Y-95500000D02*
X113750000Y-92750000D01*
X113750000Y-92750000D02*
X117500000Y-92750000D01*
X120162500Y-90087500D02*
X123900000Y-90087500D01*
%TO.N,Net-(J3-Pin_1)*%
X117500000Y-95500000D02*
X119500000Y-93500000D01*
X115250000Y-95500000D02*
X117500000Y-95500000D01*
X119500000Y-93500000D02*
X126087500Y-93500000D01*
%TO.N,Net-(J1-P+)*%
X130500000Y-93750000D02*
X131100000Y-93150000D01*
X131100000Y-93150000D02*
X131100000Y-90087500D01*
X128162500Y-93750000D02*
X130500000Y-93750000D01*
D24*
%TO.N,Net-(J3-Pin_1)*%
X126087500Y-93500000D02*
X126337500Y-93750000D01*
%TD*%
%TA.AperFunction,Conductor*%
%TO.N,GND*%
G36*
X119515677Y-69769685D02*
G01*
X119536319Y-69786319D01*
X120463681Y-70713681D01*
X120497166Y-70775004D01*
X120500000Y-70801362D01*
X120500000Y-84973218D01*
X120480315Y-85040257D01*
X120427511Y-85086012D01*
X120358353Y-85095956D01*
X120294797Y-85066931D01*
X120288319Y-85060899D01*
X119343979Y-84116559D01*
X119343959Y-84116537D01*
X119200285Y-83972863D01*
X119200281Y-83972860D01*
X119036420Y-83863371D01*
X119036411Y-83863366D01*
X118963815Y-83833296D01*
X118907665Y-83810038D01*
X118854336Y-83787949D01*
X118854332Y-83787948D01*
X118854328Y-83787946D01*
X118757688Y-83768724D01*
X118661044Y-83749500D01*
X118661041Y-83749500D01*
X116873182Y-83749500D01*
X116806143Y-83729815D01*
X116774808Y-83700989D01*
X116773332Y-83699066D01*
X116757282Y-83678149D01*
X116757277Y-83678144D01*
X116757274Y-83678140D01*
X116571860Y-83492726D01*
X116571851Y-83492718D01*
X116363803Y-83333075D01*
X116136700Y-83201958D01*
X116136690Y-83201953D01*
X115894428Y-83101605D01*
X115894421Y-83101603D01*
X115894419Y-83101602D01*
X115641116Y-83033730D01*
X115583339Y-83026123D01*
X115381127Y-82999500D01*
X115381120Y-82999500D01*
X115118880Y-82999500D01*
X115118872Y-82999500D01*
X114887772Y-83029926D01*
X114858884Y-83033730D01*
X114605581Y-83101602D01*
X114605571Y-83101605D01*
X114363309Y-83201953D01*
X114363299Y-83201958D01*
X114136196Y-83333075D01*
X113928148Y-83492718D01*
X113742718Y-83678148D01*
X113583075Y-83886196D01*
X113451958Y-84113299D01*
X113451953Y-84113309D01*
X113351605Y-84355571D01*
X113351602Y-84355581D01*
X113283730Y-84608884D01*
X113283716Y-84608990D01*
X113249500Y-84868872D01*
X113249500Y-85131127D01*
X113261039Y-85218767D01*
X113283730Y-85391116D01*
X113335028Y-85582563D01*
X113351602Y-85644418D01*
X113351605Y-85644428D01*
X113451953Y-85886690D01*
X113451958Y-85886700D01*
X113583075Y-86113803D01*
X113742718Y-86321851D01*
X113742726Y-86321860D01*
X113928140Y-86507274D01*
X113928148Y-86507281D01*
X114136196Y-86666924D01*
X114363299Y-86798041D01*
X114363309Y-86798046D01*
X114605571Y-86898394D01*
X114605581Y-86898398D01*
X114858884Y-86966270D01*
X115107188Y-86998960D01*
X115115074Y-86999999D01*
X115118880Y-87000500D01*
X115118887Y-87000500D01*
X115381113Y-87000500D01*
X115381120Y-87000500D01*
X115641116Y-86966270D01*
X115894419Y-86898398D01*
X116136697Y-86798043D01*
X116363803Y-86666924D01*
X116571851Y-86507282D01*
X116571855Y-86507277D01*
X116571860Y-86507274D01*
X116757274Y-86321860D01*
X116757277Y-86321855D01*
X116757282Y-86321851D01*
X116916924Y-86113803D01*
X117048043Y-85886697D01*
X117072751Y-85827047D01*
X117116592Y-85772644D01*
X117182886Y-85750579D01*
X117187312Y-85750500D01*
X118096718Y-85750500D01*
X118163757Y-85770185D01*
X118184399Y-85786819D01*
X120463681Y-88066101D01*
X120497166Y-88127424D01*
X120500000Y-88153782D01*
X120500000Y-88963000D01*
X120497449Y-88971685D01*
X120498738Y-88980647D01*
X120487759Y-89004687D01*
X120480315Y-89030039D01*
X120473474Y-89035966D01*
X120469713Y-89044203D01*
X120447478Y-89058492D01*
X120427511Y-89075794D01*
X120416996Y-89078081D01*
X120410935Y-89081977D01*
X120376000Y-89087000D01*
X120267175Y-89087000D01*
X120267155Y-89086999D01*
X120261041Y-89086999D01*
X120063960Y-89086999D01*
X120063957Y-89086999D01*
X119870672Y-89125446D01*
X119870664Y-89125448D01*
X119688588Y-89200866D01*
X119688579Y-89200871D01*
X119524719Y-89310359D01*
X119524715Y-89310362D01*
X117121899Y-91713181D01*
X117060576Y-91746666D01*
X117034218Y-91749500D01*
X116621478Y-91749500D01*
X116554439Y-91729815D01*
X116508684Y-91677011D01*
X116498740Y-91607853D01*
X116527765Y-91544297D01*
X116545984Y-91527130D01*
X116571851Y-91507282D01*
X116623698Y-91455435D01*
X116757274Y-91321860D01*
X116757277Y-91321855D01*
X116757282Y-91321851D01*
X116916924Y-91113803D01*
X117048043Y-90886697D01*
X117148398Y-90644419D01*
X117216270Y-90391116D01*
X117250500Y-90131120D01*
X117250500Y-89868880D01*
X117216270Y-89608884D01*
X117148398Y-89355581D01*
X117129667Y-89310360D01*
X117048046Y-89113309D01*
X117048041Y-89113299D01*
X116916924Y-88886196D01*
X116757281Y-88678148D01*
X116757274Y-88678140D01*
X116571860Y-88492726D01*
X116571851Y-88492718D01*
X116363803Y-88333075D01*
X116136700Y-88201958D01*
X116136690Y-88201953D01*
X115894428Y-88101605D01*
X115894421Y-88101603D01*
X115894419Y-88101602D01*
X115641116Y-88033730D01*
X115583339Y-88026123D01*
X115381127Y-87999500D01*
X115381120Y-87999500D01*
X115118880Y-87999500D01*
X115118872Y-87999500D01*
X114887772Y-88029926D01*
X114858884Y-88033730D01*
X114605581Y-88101602D01*
X114605571Y-88101605D01*
X114363309Y-88201953D01*
X114363299Y-88201958D01*
X114136196Y-88333075D01*
X113928148Y-88492718D01*
X113742718Y-88678148D01*
X113583075Y-88886196D01*
X113451958Y-89113299D01*
X113451953Y-89113309D01*
X113351605Y-89355571D01*
X113351602Y-89355581D01*
X113283730Y-89608885D01*
X113249500Y-89868872D01*
X113249500Y-90131127D01*
X113276123Y-90333339D01*
X113283730Y-90391116D01*
X113294863Y-90432665D01*
X113351602Y-90644418D01*
X113351605Y-90644428D01*
X113451953Y-90886690D01*
X113451958Y-90886700D01*
X113583075Y-91113803D01*
X113742718Y-91321851D01*
X113742726Y-91321860D01*
X113928139Y-91507273D01*
X113928143Y-91507276D01*
X113928149Y-91507282D01*
X113954011Y-91527126D01*
X113995211Y-91583552D01*
X113999366Y-91653298D01*
X113965153Y-91714219D01*
X113903436Y-91746971D01*
X113878522Y-91749500D01*
X113651455Y-91749500D01*
X113554812Y-91768724D01*
X113458167Y-91787947D01*
X113458161Y-91787949D01*
X113404834Y-91810037D01*
X113404834Y-91810038D01*
X113359315Y-91828892D01*
X113276089Y-91863366D01*
X113276079Y-91863371D01*
X113122082Y-91966270D01*
X113122081Y-91966271D01*
X113112215Y-91972862D01*
X113112214Y-91972863D01*
X111568110Y-93516968D01*
X111506787Y-93550453D01*
X111448337Y-93549062D01*
X111429271Y-93543953D01*
X111391116Y-93533730D01*
X111347662Y-93528009D01*
X111131127Y-93499500D01*
X111131120Y-93499500D01*
X110868880Y-93499500D01*
X110868872Y-93499500D01*
X110637772Y-93529926D01*
X110608884Y-93533730D01*
X110367005Y-93598541D01*
X110355581Y-93601602D01*
X110355571Y-93601605D01*
X110113309Y-93701953D01*
X110113299Y-93701958D01*
X109886196Y-93833075D01*
X109678148Y-93992718D01*
X109492718Y-94178148D01*
X109333075Y-94386196D01*
X109201958Y-94613299D01*
X109201953Y-94613309D01*
X109101605Y-94855571D01*
X109101602Y-94855581D01*
X109052279Y-95039660D01*
X109033730Y-95108885D01*
X108999500Y-95368872D01*
X108999500Y-95631127D01*
X109011036Y-95718744D01*
X109033730Y-95891116D01*
X109053852Y-95966211D01*
X109101602Y-96144418D01*
X109101605Y-96144428D01*
X109201953Y-96386690D01*
X109201958Y-96386700D01*
X109333075Y-96613803D01*
X109492718Y-96821851D01*
X109492726Y-96821860D01*
X109678140Y-97007274D01*
X109678148Y-97007281D01*
X109886196Y-97166924D01*
X110061462Y-97268113D01*
X110109677Y-97318680D01*
X110122901Y-97387287D01*
X110096933Y-97452151D01*
X110040019Y-97492680D01*
X109999462Y-97499500D01*
X106624500Y-97499500D01*
X106557461Y-97479815D01*
X106511706Y-97427011D01*
X106500500Y-97375500D01*
X106500500Y-89868872D01*
X108999500Y-89868872D01*
X108999500Y-90131127D01*
X109026123Y-90333339D01*
X109033730Y-90391116D01*
X109044863Y-90432665D01*
X109101602Y-90644418D01*
X109101605Y-90644428D01*
X109201953Y-90886690D01*
X109201958Y-90886700D01*
X109333075Y-91113803D01*
X109492718Y-91321851D01*
X109492726Y-91321860D01*
X109678140Y-91507274D01*
X109678148Y-91507281D01*
X109678149Y-91507282D01*
X109726388Y-91544297D01*
X109886196Y-91666924D01*
X110113299Y-91798041D01*
X110113309Y-91798046D01*
X110271006Y-91863366D01*
X110355581Y-91898398D01*
X110608884Y-91966270D01*
X110868880Y-92000500D01*
X110868887Y-92000500D01*
X111131113Y-92000500D01*
X111131120Y-92000500D01*
X111391116Y-91966270D01*
X111644419Y-91898398D01*
X111886697Y-91798043D01*
X112113803Y-91666924D01*
X112321851Y-91507282D01*
X112321855Y-91507277D01*
X112321860Y-91507274D01*
X112507274Y-91321860D01*
X112507277Y-91321855D01*
X112507282Y-91321851D01*
X112666924Y-91113803D01*
X112798043Y-90886697D01*
X112898398Y-90644419D01*
X112966270Y-90391116D01*
X113000500Y-90131120D01*
X113000500Y-89868880D01*
X112966270Y-89608884D01*
X112898398Y-89355581D01*
X112879667Y-89310360D01*
X112798046Y-89113309D01*
X112798041Y-89113299D01*
X112666924Y-88886196D01*
X112507281Y-88678148D01*
X112507274Y-88678140D01*
X112321860Y-88492726D01*
X112321851Y-88492718D01*
X112113803Y-88333075D01*
X111886700Y-88201958D01*
X111886690Y-88201953D01*
X111644428Y-88101605D01*
X111644421Y-88101603D01*
X111644419Y-88101602D01*
X111391116Y-88033730D01*
X111333339Y-88026123D01*
X111131127Y-87999500D01*
X111131120Y-87999500D01*
X110868880Y-87999500D01*
X110868872Y-87999500D01*
X110637772Y-88029926D01*
X110608884Y-88033730D01*
X110355581Y-88101602D01*
X110355571Y-88101605D01*
X110113309Y-88201953D01*
X110113299Y-88201958D01*
X109886196Y-88333075D01*
X109678148Y-88492718D01*
X109492718Y-88678148D01*
X109333075Y-88886196D01*
X109201958Y-89113299D01*
X109201953Y-89113309D01*
X109101605Y-89355571D01*
X109101602Y-89355581D01*
X109033730Y-89608885D01*
X108999500Y-89868872D01*
X106500500Y-89868872D01*
X106500500Y-84868905D01*
X108750000Y-84868905D01*
X108750000Y-85131094D01*
X108784220Y-85391009D01*
X108784222Y-85391020D01*
X108852075Y-85644255D01*
X108952404Y-85886471D01*
X108952409Y-85886482D01*
X109083488Y-86113516D01*
X109083494Y-86113524D01*
X109170080Y-86226365D01*
X110072421Y-85324024D01*
X110085359Y-85355258D01*
X110167437Y-85478097D01*
X110271903Y-85582563D01*
X110394742Y-85664641D01*
X110425974Y-85677577D01*
X109523633Y-86579917D01*
X109523633Y-86579918D01*
X109636475Y-86666505D01*
X109636483Y-86666511D01*
X109863517Y-86797590D01*
X109863528Y-86797595D01*
X110105744Y-86897924D01*
X110358979Y-86965777D01*
X110358990Y-86965779D01*
X110618905Y-86999999D01*
X110618920Y-87000000D01*
X110881080Y-87000000D01*
X110881094Y-86999999D01*
X111141009Y-86965779D01*
X111141020Y-86965777D01*
X111394255Y-86897924D01*
X111636471Y-86797595D01*
X111636482Y-86797590D01*
X111863516Y-86666511D01*
X111863534Y-86666499D01*
X111976365Y-86579919D01*
X111976365Y-86579917D01*
X111074025Y-85677578D01*
X111105258Y-85664641D01*
X111228097Y-85582563D01*
X111332563Y-85478097D01*
X111414641Y-85355258D01*
X111427578Y-85324025D01*
X112329917Y-86226365D01*
X112329919Y-86226365D01*
X112416499Y-86113534D01*
X112416511Y-86113516D01*
X112547590Y-85886482D01*
X112547595Y-85886471D01*
X112647924Y-85644255D01*
X112715777Y-85391020D01*
X112715779Y-85391009D01*
X112749999Y-85131094D01*
X112750000Y-85131080D01*
X112750000Y-84868919D01*
X112749999Y-84868905D01*
X112715779Y-84608990D01*
X112715777Y-84608979D01*
X112647924Y-84355744D01*
X112547595Y-84113528D01*
X112547590Y-84113517D01*
X112416511Y-83886483D01*
X112416505Y-83886475D01*
X112329918Y-83773633D01*
X112329917Y-83773633D01*
X111427577Y-84675973D01*
X111414641Y-84644742D01*
X111332563Y-84521903D01*
X111228097Y-84417437D01*
X111105258Y-84335359D01*
X111074023Y-84322421D01*
X111976365Y-83420080D01*
X111863524Y-83333494D01*
X111863516Y-83333488D01*
X111636482Y-83202409D01*
X111636471Y-83202404D01*
X111394255Y-83102075D01*
X111141020Y-83034222D01*
X111141009Y-83034220D01*
X110881094Y-83000000D01*
X110618905Y-83000000D01*
X110358990Y-83034220D01*
X110358979Y-83034222D01*
X110105744Y-83102075D01*
X109863528Y-83202404D01*
X109863517Y-83202409D01*
X109636471Y-83333496D01*
X109523633Y-83420079D01*
X109523633Y-83420080D01*
X110425974Y-84322421D01*
X110394742Y-84335359D01*
X110271903Y-84417437D01*
X110167437Y-84521903D01*
X110085359Y-84644742D01*
X110072421Y-84675974D01*
X109170080Y-83773633D01*
X109170079Y-83773633D01*
X109083496Y-83886471D01*
X108952409Y-84113517D01*
X108952404Y-84113528D01*
X108852075Y-84355744D01*
X108784222Y-84608979D01*
X108784220Y-84608990D01*
X108750000Y-84868905D01*
X106500500Y-84868905D01*
X106500500Y-73302134D01*
X111174500Y-73302134D01*
X111174500Y-74897869D01*
X111174501Y-74897875D01*
X111180908Y-74957482D01*
X111231202Y-75092327D01*
X111231206Y-75092334D01*
X111317452Y-75207543D01*
X111323725Y-75213816D01*
X111322472Y-75215068D01*
X111357930Y-75262428D01*
X111362918Y-75332120D01*
X111352235Y-75362062D01*
X111266584Y-75530163D01*
X111205780Y-75717296D01*
X111175002Y-75911619D01*
X111175002Y-76108384D01*
X111205780Y-76302707D01*
X111266583Y-76489837D01*
X111355907Y-76665147D01*
X111381321Y-76700127D01*
X111381322Y-76700127D01*
X112025002Y-76056447D01*
X112025002Y-76062663D01*
X112052261Y-76164396D01*
X112104922Y-76255608D01*
X112179396Y-76330082D01*
X112270608Y-76382743D01*
X112372341Y-76410002D01*
X112378555Y-76410002D01*
X112088184Y-76700371D01*
X112038823Y-76730620D01*
X111944974Y-76761114D01*
X111769594Y-76850475D01*
X111678741Y-76916484D01*
X111610354Y-76966171D01*
X111610352Y-76966173D01*
X111610351Y-76966173D01*
X111471174Y-77105350D01*
X111471174Y-77105351D01*
X111471172Y-77105353D01*
X111421485Y-77173740D01*
X111355476Y-77264593D01*
X111266117Y-77439969D01*
X111205290Y-77627172D01*
X111174500Y-77821576D01*
X111174500Y-78018421D01*
X111205290Y-78212825D01*
X111266117Y-78400028D01*
X111355476Y-78575404D01*
X111471172Y-78734645D01*
X111610354Y-78873827D01*
X111769595Y-78989523D01*
X111852455Y-79031742D01*
X111944970Y-79078881D01*
X111944972Y-79078881D01*
X111944975Y-79078883D01*
X112045317Y-79111486D01*
X112132173Y-79139708D01*
X112326578Y-79170499D01*
X112326583Y-79170499D01*
X112523422Y-79170499D01*
X112717826Y-79139708D01*
X112905025Y-79078883D01*
X113080405Y-78989523D01*
X113239646Y-78873827D01*
X113378828Y-78734645D01*
X113494524Y-78575404D01*
X113583884Y-78400024D01*
X113644709Y-78212825D01*
X113675500Y-78018421D01*
X113675500Y-77821576D01*
X113644709Y-77627172D01*
X113583882Y-77439969D01*
X113494523Y-77264593D01*
X113378828Y-77105353D01*
X113239646Y-76966171D01*
X113080405Y-76850475D01*
X112905029Y-76761116D01*
X112811182Y-76730623D01*
X112761820Y-76700373D01*
X112471450Y-76410002D01*
X112477663Y-76410002D01*
X112579396Y-76382743D01*
X112670608Y-76330082D01*
X112745082Y-76255608D01*
X112797743Y-76164396D01*
X112825002Y-76062663D01*
X112825002Y-76056449D01*
X113468680Y-76700128D01*
X113468680Y-76700127D01*
X113494097Y-76665145D01*
X113583420Y-76489837D01*
X113644223Y-76302707D01*
X113675002Y-76108384D01*
X113675002Y-75911619D01*
X113644223Y-75717296D01*
X113583420Y-75530166D01*
X113497767Y-75362061D01*
X113484871Y-75293392D01*
X113511147Y-75228651D01*
X113526346Y-75213880D01*
X113526278Y-75213812D01*
X113532538Y-75207550D01*
X113532546Y-75207545D01*
X113618796Y-75092330D01*
X113669091Y-74957482D01*
X113675500Y-74897872D01*
X113675499Y-73302127D01*
X113669091Y-73242516D01*
X113618796Y-73107668D01*
X113618795Y-73107667D01*
X113618793Y-73107663D01*
X113532547Y-72992454D01*
X113532544Y-72992451D01*
X113417335Y-72906205D01*
X113417328Y-72906201D01*
X113282482Y-72855907D01*
X113282483Y-72855907D01*
X113222883Y-72849500D01*
X113222881Y-72849499D01*
X113222873Y-72849499D01*
X113222864Y-72849499D01*
X111627129Y-72849499D01*
X111627123Y-72849500D01*
X111567516Y-72855907D01*
X111432671Y-72906201D01*
X111432664Y-72906205D01*
X111317455Y-72992451D01*
X111317452Y-72992454D01*
X111231206Y-73107663D01*
X111231202Y-73107670D01*
X111180908Y-73242516D01*
X111174501Y-73302115D01*
X111174501Y-73302122D01*
X111174500Y-73302134D01*
X106500500Y-73302134D01*
X106500500Y-69874000D01*
X106520185Y-69806961D01*
X106572989Y-69761206D01*
X106624500Y-69750000D01*
X119448638Y-69750000D01*
X119515677Y-69769685D01*
G37*
%TD.AperFunction*%
%TD*%
M02*
