%TF.GenerationSoftware,KiCad,Pcbnew,9.0.2*%
%TF.CreationDate,2025-09-16T11:52:20+02:00*%
%TF.ProjectId,CeB_CURR_PCB,4365425f-4355-4525-925f-5043422e6b69,rev?*%
%TF.SameCoordinates,Original*%
%TF.FileFunction,Legend,Top*%
%TF.FilePolarity,Positive*%
%FSLAX46Y46*%
G04 Gerber Fmt 4.6, Leading zero omitted, Abs format (unit mm)*
G04 Created by KiCad (PCBNEW 9.0.2) date 2025-09-16 11:52:20*
%MOMM*%
%LPD*%
G01*
G04 APERTURE LIST*
%ADD10C,0.100000*%
%ADD11C,0.150000*%
%ADD12C,0.254000*%
%ADD13C,0.120000*%
%ADD14C,0.200000*%
G04 APERTURE END LIST*
D10*
X127553884Y-60372419D02*
X127553884Y-59372419D01*
X127553884Y-59372419D02*
X127887217Y-60086704D01*
X127887217Y-60086704D02*
X128220550Y-59372419D01*
X128220550Y-59372419D02*
X128220550Y-60372419D01*
X127887217Y-93098609D02*
X127553884Y-93098609D01*
X127553884Y-93622419D02*
X127553884Y-92622419D01*
X127553884Y-92622419D02*
X128030074Y-92622419D01*
D11*
X128579820Y-76771900D02*
X129389343Y-76771900D01*
X129389343Y-76771900D02*
X129484581Y-76724281D01*
X129484581Y-76724281D02*
X129532201Y-76676662D01*
X129532201Y-76676662D02*
X129579820Y-76581424D01*
X129579820Y-76581424D02*
X129579820Y-76390948D01*
X129579820Y-76390948D02*
X129532201Y-76295710D01*
X129532201Y-76295710D02*
X129484581Y-76248091D01*
X129484581Y-76248091D02*
X129389343Y-76200472D01*
X129389343Y-76200472D02*
X128579820Y-76200472D01*
X129579820Y-75200472D02*
X129579820Y-75771900D01*
X129579820Y-75486186D02*
X128579820Y-75486186D01*
X128579820Y-75486186D02*
X128722677Y-75581424D01*
X128722677Y-75581424D02*
X128817915Y-75676662D01*
X128817915Y-75676662D02*
X128865534Y-75771900D01*
X109583333Y-82384819D02*
X109250000Y-81908628D01*
X109011905Y-82384819D02*
X109011905Y-81384819D01*
X109011905Y-81384819D02*
X109392857Y-81384819D01*
X109392857Y-81384819D02*
X109488095Y-81432438D01*
X109488095Y-81432438D02*
X109535714Y-81480057D01*
X109535714Y-81480057D02*
X109583333Y-81575295D01*
X109583333Y-81575295D02*
X109583333Y-81718152D01*
X109583333Y-81718152D02*
X109535714Y-81813390D01*
X109535714Y-81813390D02*
X109488095Y-81861009D01*
X109488095Y-81861009D02*
X109392857Y-81908628D01*
X109392857Y-81908628D02*
X109011905Y-81908628D01*
X109964286Y-81480057D02*
X110011905Y-81432438D01*
X110011905Y-81432438D02*
X110107143Y-81384819D01*
X110107143Y-81384819D02*
X110345238Y-81384819D01*
X110345238Y-81384819D02*
X110440476Y-81432438D01*
X110440476Y-81432438D02*
X110488095Y-81480057D01*
X110488095Y-81480057D02*
X110535714Y-81575295D01*
X110535714Y-81575295D02*
X110535714Y-81670533D01*
X110535714Y-81670533D02*
X110488095Y-81813390D01*
X110488095Y-81813390D02*
X109916667Y-82384819D01*
X109916667Y-82384819D02*
X110535714Y-82384819D01*
D10*
X114916666Y-81707419D02*
X114916666Y-82421704D01*
X114916666Y-82421704D02*
X114869047Y-82564561D01*
X114869047Y-82564561D02*
X114773809Y-82659800D01*
X114773809Y-82659800D02*
X114630952Y-82707419D01*
X114630952Y-82707419D02*
X114535714Y-82707419D01*
X115535714Y-82135990D02*
X115440476Y-82088371D01*
X115440476Y-82088371D02*
X115392857Y-82040752D01*
X115392857Y-82040752D02*
X115345238Y-81945514D01*
X115345238Y-81945514D02*
X115345238Y-81897895D01*
X115345238Y-81897895D02*
X115392857Y-81802657D01*
X115392857Y-81802657D02*
X115440476Y-81755038D01*
X115440476Y-81755038D02*
X115535714Y-81707419D01*
X115535714Y-81707419D02*
X115726190Y-81707419D01*
X115726190Y-81707419D02*
X115821428Y-81755038D01*
X115821428Y-81755038D02*
X115869047Y-81802657D01*
X115869047Y-81802657D02*
X115916666Y-81897895D01*
X115916666Y-81897895D02*
X115916666Y-81945514D01*
X115916666Y-81945514D02*
X115869047Y-82040752D01*
X115869047Y-82040752D02*
X115821428Y-82088371D01*
X115821428Y-82088371D02*
X115726190Y-82135990D01*
X115726190Y-82135990D02*
X115535714Y-82135990D01*
X115535714Y-82135990D02*
X115440476Y-82183609D01*
X115440476Y-82183609D02*
X115392857Y-82231228D01*
X115392857Y-82231228D02*
X115345238Y-82326466D01*
X115345238Y-82326466D02*
X115345238Y-82516942D01*
X115345238Y-82516942D02*
X115392857Y-82612180D01*
X115392857Y-82612180D02*
X115440476Y-82659800D01*
X115440476Y-82659800D02*
X115535714Y-82707419D01*
X115535714Y-82707419D02*
X115726190Y-82707419D01*
X115726190Y-82707419D02*
X115821428Y-82659800D01*
X115821428Y-82659800D02*
X115869047Y-82612180D01*
X115869047Y-82612180D02*
X115916666Y-82516942D01*
X115916666Y-82516942D02*
X115916666Y-82326466D01*
X115916666Y-82326466D02*
X115869047Y-82231228D01*
X115869047Y-82231228D02*
X115821428Y-82183609D01*
X115821428Y-82183609D02*
X115726190Y-82135990D01*
D11*
X111940476Y-83407200D02*
X112083333Y-83454819D01*
X112083333Y-83454819D02*
X112321428Y-83454819D01*
X112321428Y-83454819D02*
X112416666Y-83407200D01*
X112416666Y-83407200D02*
X112464285Y-83359580D01*
X112464285Y-83359580D02*
X112511904Y-83264342D01*
X112511904Y-83264342D02*
X112511904Y-83169104D01*
X112511904Y-83169104D02*
X112464285Y-83073866D01*
X112464285Y-83073866D02*
X112416666Y-83026247D01*
X112416666Y-83026247D02*
X112321428Y-82978628D01*
X112321428Y-82978628D02*
X112130952Y-82931009D01*
X112130952Y-82931009D02*
X112035714Y-82883390D01*
X112035714Y-82883390D02*
X111988095Y-82835771D01*
X111988095Y-82835771D02*
X111940476Y-82740533D01*
X111940476Y-82740533D02*
X111940476Y-82645295D01*
X111940476Y-82645295D02*
X111988095Y-82550057D01*
X111988095Y-82550057D02*
X112035714Y-82502438D01*
X112035714Y-82502438D02*
X112130952Y-82454819D01*
X112130952Y-82454819D02*
X112369047Y-82454819D01*
X112369047Y-82454819D02*
X112511904Y-82502438D01*
X112940476Y-83454819D02*
X112940476Y-82454819D01*
X112940476Y-82931009D02*
X113511904Y-82931009D01*
X113511904Y-83454819D02*
X113511904Y-82454819D01*
X113988095Y-83454819D02*
X113988095Y-82454819D01*
X113988095Y-82454819D02*
X114226190Y-82454819D01*
X114226190Y-82454819D02*
X114369047Y-82502438D01*
X114369047Y-82502438D02*
X114464285Y-82597676D01*
X114464285Y-82597676D02*
X114511904Y-82692914D01*
X114511904Y-82692914D02*
X114559523Y-82883390D01*
X114559523Y-82883390D02*
X114559523Y-83026247D01*
X114559523Y-83026247D02*
X114511904Y-83216723D01*
X114511904Y-83216723D02*
X114464285Y-83311961D01*
X114464285Y-83311961D02*
X114369047Y-83407200D01*
X114369047Y-83407200D02*
X114226190Y-83454819D01*
X114226190Y-83454819D02*
X113988095Y-83454819D01*
D10*
X110666666Y-92007419D02*
X110666666Y-92721704D01*
X110666666Y-92721704D02*
X110619047Y-92864561D01*
X110619047Y-92864561D02*
X110523809Y-92959800D01*
X110523809Y-92959800D02*
X110380952Y-93007419D01*
X110380952Y-93007419D02*
X110285714Y-93007419D01*
X111047619Y-92007419D02*
X111714285Y-92007419D01*
X111714285Y-92007419D02*
X111285714Y-93007419D01*
D11*
X107642857Y-93431009D02*
X107785714Y-93478628D01*
X107785714Y-93478628D02*
X107833333Y-93526247D01*
X107833333Y-93526247D02*
X107880952Y-93621485D01*
X107880952Y-93621485D02*
X107880952Y-93764342D01*
X107880952Y-93764342D02*
X107833333Y-93859580D01*
X107833333Y-93859580D02*
X107785714Y-93907200D01*
X107785714Y-93907200D02*
X107690476Y-93954819D01*
X107690476Y-93954819D02*
X107309524Y-93954819D01*
X107309524Y-93954819D02*
X107309524Y-92954819D01*
X107309524Y-92954819D02*
X107642857Y-92954819D01*
X107642857Y-92954819D02*
X107738095Y-93002438D01*
X107738095Y-93002438D02*
X107785714Y-93050057D01*
X107785714Y-93050057D02*
X107833333Y-93145295D01*
X107833333Y-93145295D02*
X107833333Y-93240533D01*
X107833333Y-93240533D02*
X107785714Y-93335771D01*
X107785714Y-93335771D02*
X107738095Y-93383390D01*
X107738095Y-93383390D02*
X107642857Y-93431009D01*
X107642857Y-93431009D02*
X107309524Y-93431009D01*
X108261905Y-93669104D02*
X108738095Y-93669104D01*
X108166667Y-93954819D02*
X108500000Y-92954819D01*
X108500000Y-92954819D02*
X108833333Y-93954819D01*
X109023810Y-92954819D02*
X109595238Y-92954819D01*
X109309524Y-93954819D02*
X109309524Y-92954819D01*
X109928572Y-93573866D02*
X110690477Y-93573866D01*
D10*
X114821666Y-86457419D02*
X114821666Y-87171704D01*
X114821666Y-87171704D02*
X114774047Y-87314561D01*
X114774047Y-87314561D02*
X114678809Y-87409800D01*
X114678809Y-87409800D02*
X114535952Y-87457419D01*
X114535952Y-87457419D02*
X114440714Y-87457419D01*
X115726428Y-86457419D02*
X115535952Y-86457419D01*
X115535952Y-86457419D02*
X115440714Y-86505038D01*
X115440714Y-86505038D02*
X115393095Y-86552657D01*
X115393095Y-86552657D02*
X115297857Y-86695514D01*
X115297857Y-86695514D02*
X115250238Y-86885990D01*
X115250238Y-86885990D02*
X115250238Y-87266942D01*
X115250238Y-87266942D02*
X115297857Y-87362180D01*
X115297857Y-87362180D02*
X115345476Y-87409800D01*
X115345476Y-87409800D02*
X115440714Y-87457419D01*
X115440714Y-87457419D02*
X115631190Y-87457419D01*
X115631190Y-87457419D02*
X115726428Y-87409800D01*
X115726428Y-87409800D02*
X115774047Y-87362180D01*
X115774047Y-87362180D02*
X115821666Y-87266942D01*
X115821666Y-87266942D02*
X115821666Y-87028847D01*
X115821666Y-87028847D02*
X115774047Y-86933609D01*
X115774047Y-86933609D02*
X115726428Y-86885990D01*
X115726428Y-86885990D02*
X115631190Y-86838371D01*
X115631190Y-86838371D02*
X115440714Y-86838371D01*
X115440714Y-86838371D02*
X115345476Y-86885990D01*
X115345476Y-86885990D02*
X115297857Y-86933609D01*
X115297857Y-86933609D02*
X115250238Y-87028847D01*
D11*
X112250000Y-87204819D02*
X112440476Y-87204819D01*
X112440476Y-87204819D02*
X112535714Y-87252438D01*
X112535714Y-87252438D02*
X112630952Y-87347676D01*
X112630952Y-87347676D02*
X112678571Y-87538152D01*
X112678571Y-87538152D02*
X112678571Y-87871485D01*
X112678571Y-87871485D02*
X112630952Y-88061961D01*
X112630952Y-88061961D02*
X112535714Y-88157200D01*
X112535714Y-88157200D02*
X112440476Y-88204819D01*
X112440476Y-88204819D02*
X112250000Y-88204819D01*
X112250000Y-88204819D02*
X112154762Y-88157200D01*
X112154762Y-88157200D02*
X112059524Y-88061961D01*
X112059524Y-88061961D02*
X112011905Y-87871485D01*
X112011905Y-87871485D02*
X112011905Y-87538152D01*
X112011905Y-87538152D02*
X112059524Y-87347676D01*
X112059524Y-87347676D02*
X112154762Y-87252438D01*
X112154762Y-87252438D02*
X112250000Y-87204819D01*
X113107143Y-87204819D02*
X113107143Y-88014342D01*
X113107143Y-88014342D02*
X113154762Y-88109580D01*
X113154762Y-88109580D02*
X113202381Y-88157200D01*
X113202381Y-88157200D02*
X113297619Y-88204819D01*
X113297619Y-88204819D02*
X113488095Y-88204819D01*
X113488095Y-88204819D02*
X113583333Y-88157200D01*
X113583333Y-88157200D02*
X113630952Y-88109580D01*
X113630952Y-88109580D02*
X113678571Y-88014342D01*
X113678571Y-88014342D02*
X113678571Y-87204819D01*
X114011905Y-87204819D02*
X114583333Y-87204819D01*
X114297619Y-88204819D02*
X114297619Y-87204819D01*
D10*
X110416666Y-81707419D02*
X110416666Y-82421704D01*
X110416666Y-82421704D02*
X110369047Y-82564561D01*
X110369047Y-82564561D02*
X110273809Y-82659800D01*
X110273809Y-82659800D02*
X110130952Y-82707419D01*
X110130952Y-82707419D02*
X110035714Y-82707419D01*
X111369047Y-81707419D02*
X110892857Y-81707419D01*
X110892857Y-81707419D02*
X110845238Y-82183609D01*
X110845238Y-82183609D02*
X110892857Y-82135990D01*
X110892857Y-82135990D02*
X110988095Y-82088371D01*
X110988095Y-82088371D02*
X111226190Y-82088371D01*
X111226190Y-82088371D02*
X111321428Y-82135990D01*
X111321428Y-82135990D02*
X111369047Y-82183609D01*
X111369047Y-82183609D02*
X111416666Y-82278847D01*
X111416666Y-82278847D02*
X111416666Y-82516942D01*
X111416666Y-82516942D02*
X111369047Y-82612180D01*
X111369047Y-82612180D02*
X111321428Y-82659800D01*
X111321428Y-82659800D02*
X111226190Y-82707419D01*
X111226190Y-82707419D02*
X110988095Y-82707419D01*
X110988095Y-82707419D02*
X110892857Y-82659800D01*
X110892857Y-82659800D02*
X110845238Y-82612180D01*
D11*
X107238095Y-82752438D02*
X107142857Y-82704819D01*
X107142857Y-82704819D02*
X107000000Y-82704819D01*
X107000000Y-82704819D02*
X106857143Y-82752438D01*
X106857143Y-82752438D02*
X106761905Y-82847676D01*
X106761905Y-82847676D02*
X106714286Y-82942914D01*
X106714286Y-82942914D02*
X106666667Y-83133390D01*
X106666667Y-83133390D02*
X106666667Y-83276247D01*
X106666667Y-83276247D02*
X106714286Y-83466723D01*
X106714286Y-83466723D02*
X106761905Y-83561961D01*
X106761905Y-83561961D02*
X106857143Y-83657200D01*
X106857143Y-83657200D02*
X107000000Y-83704819D01*
X107000000Y-83704819D02*
X107095238Y-83704819D01*
X107095238Y-83704819D02*
X107238095Y-83657200D01*
X107238095Y-83657200D02*
X107285714Y-83609580D01*
X107285714Y-83609580D02*
X107285714Y-83276247D01*
X107285714Y-83276247D02*
X107095238Y-83276247D01*
X107714286Y-83704819D02*
X107714286Y-82704819D01*
X107714286Y-82704819D02*
X108285714Y-83704819D01*
X108285714Y-83704819D02*
X108285714Y-82704819D01*
X108761905Y-83704819D02*
X108761905Y-82704819D01*
X108761905Y-82704819D02*
X109000000Y-82704819D01*
X109000000Y-82704819D02*
X109142857Y-82752438D01*
X109142857Y-82752438D02*
X109238095Y-82847676D01*
X109238095Y-82847676D02*
X109285714Y-82942914D01*
X109285714Y-82942914D02*
X109333333Y-83133390D01*
X109333333Y-83133390D02*
X109333333Y-83276247D01*
X109333333Y-83276247D02*
X109285714Y-83466723D01*
X109285714Y-83466723D02*
X109238095Y-83561961D01*
X109238095Y-83561961D02*
X109142857Y-83657200D01*
X109142857Y-83657200D02*
X109000000Y-83704819D01*
X109000000Y-83704819D02*
X108761905Y-83704819D01*
D10*
X110666666Y-86707419D02*
X110666666Y-87421704D01*
X110666666Y-87421704D02*
X110619047Y-87564561D01*
X110619047Y-87564561D02*
X110523809Y-87659800D01*
X110523809Y-87659800D02*
X110380952Y-87707419D01*
X110380952Y-87707419D02*
X110285714Y-87707419D01*
X111571428Y-87040752D02*
X111571428Y-87707419D01*
X111333333Y-86659800D02*
X111095238Y-87374085D01*
X111095238Y-87374085D02*
X111714285Y-87374085D01*
D11*
X107416667Y-87204819D02*
X107750000Y-88204819D01*
X107750000Y-88204819D02*
X108083333Y-87204819D01*
X108988095Y-88109580D02*
X108940476Y-88157200D01*
X108940476Y-88157200D02*
X108797619Y-88204819D01*
X108797619Y-88204819D02*
X108702381Y-88204819D01*
X108702381Y-88204819D02*
X108559524Y-88157200D01*
X108559524Y-88157200D02*
X108464286Y-88061961D01*
X108464286Y-88061961D02*
X108416667Y-87966723D01*
X108416667Y-87966723D02*
X108369048Y-87776247D01*
X108369048Y-87776247D02*
X108369048Y-87633390D01*
X108369048Y-87633390D02*
X108416667Y-87442914D01*
X108416667Y-87442914D02*
X108464286Y-87347676D01*
X108464286Y-87347676D02*
X108559524Y-87252438D01*
X108559524Y-87252438D02*
X108702381Y-87204819D01*
X108702381Y-87204819D02*
X108797619Y-87204819D01*
X108797619Y-87204819D02*
X108940476Y-87252438D01*
X108940476Y-87252438D02*
X108988095Y-87300057D01*
X109988095Y-88109580D02*
X109940476Y-88157200D01*
X109940476Y-88157200D02*
X109797619Y-88204819D01*
X109797619Y-88204819D02*
X109702381Y-88204819D01*
X109702381Y-88204819D02*
X109559524Y-88157200D01*
X109559524Y-88157200D02*
X109464286Y-88061961D01*
X109464286Y-88061961D02*
X109416667Y-87966723D01*
X109416667Y-87966723D02*
X109369048Y-87776247D01*
X109369048Y-87776247D02*
X109369048Y-87633390D01*
X109369048Y-87633390D02*
X109416667Y-87442914D01*
X109416667Y-87442914D02*
X109464286Y-87347676D01*
X109464286Y-87347676D02*
X109559524Y-87252438D01*
X109559524Y-87252438D02*
X109702381Y-87204819D01*
X109702381Y-87204819D02*
X109797619Y-87204819D01*
X109797619Y-87204819D02*
X109940476Y-87252438D01*
X109940476Y-87252438D02*
X109988095Y-87300057D01*
D10*
X114916666Y-92007419D02*
X114916666Y-92721704D01*
X114916666Y-92721704D02*
X114869047Y-92864561D01*
X114869047Y-92864561D02*
X114773809Y-92959800D01*
X114773809Y-92959800D02*
X114630952Y-93007419D01*
X114630952Y-93007419D02*
X114535714Y-93007419D01*
X115297619Y-92007419D02*
X115916666Y-92007419D01*
X115916666Y-92007419D02*
X115583333Y-92388371D01*
X115583333Y-92388371D02*
X115726190Y-92388371D01*
X115726190Y-92388371D02*
X115821428Y-92435990D01*
X115821428Y-92435990D02*
X115869047Y-92483609D01*
X115869047Y-92483609D02*
X115916666Y-92578847D01*
X115916666Y-92578847D02*
X115916666Y-92816942D01*
X115916666Y-92816942D02*
X115869047Y-92912180D01*
X115869047Y-92912180D02*
X115821428Y-92959800D01*
X115821428Y-92959800D02*
X115726190Y-93007419D01*
X115726190Y-93007419D02*
X115440476Y-93007419D01*
X115440476Y-93007419D02*
X115345238Y-92959800D01*
X115345238Y-92959800D02*
X115297619Y-92912180D01*
D11*
X112392857Y-93231009D02*
X112535714Y-93278628D01*
X112535714Y-93278628D02*
X112583333Y-93326247D01*
X112583333Y-93326247D02*
X112630952Y-93421485D01*
X112630952Y-93421485D02*
X112630952Y-93564342D01*
X112630952Y-93564342D02*
X112583333Y-93659580D01*
X112583333Y-93659580D02*
X112535714Y-93707200D01*
X112535714Y-93707200D02*
X112440476Y-93754819D01*
X112440476Y-93754819D02*
X112059524Y-93754819D01*
X112059524Y-93754819D02*
X112059524Y-92754819D01*
X112059524Y-92754819D02*
X112392857Y-92754819D01*
X112392857Y-92754819D02*
X112488095Y-92802438D01*
X112488095Y-92802438D02*
X112535714Y-92850057D01*
X112535714Y-92850057D02*
X112583333Y-92945295D01*
X112583333Y-92945295D02*
X112583333Y-93040533D01*
X112583333Y-93040533D02*
X112535714Y-93135771D01*
X112535714Y-93135771D02*
X112488095Y-93183390D01*
X112488095Y-93183390D02*
X112392857Y-93231009D01*
X112392857Y-93231009D02*
X112059524Y-93231009D01*
X113011905Y-93469104D02*
X113488095Y-93469104D01*
X112916667Y-93754819D02*
X113250000Y-92754819D01*
X113250000Y-92754819D02*
X113583333Y-93754819D01*
X113773810Y-92754819D02*
X114345238Y-92754819D01*
X114059524Y-93754819D02*
X114059524Y-92754819D01*
X114678572Y-93373866D02*
X115440477Y-93373866D01*
X115059524Y-93754819D02*
X115059524Y-92992914D01*
D12*
X127326667Y-56304818D02*
X127326667Y-57211961D01*
X127326667Y-57211961D02*
X127266190Y-57393389D01*
X127266190Y-57393389D02*
X127145238Y-57514342D01*
X127145238Y-57514342D02*
X126963809Y-57574818D01*
X126963809Y-57574818D02*
X126842857Y-57574818D01*
X127870952Y-56425770D02*
X127931428Y-56365294D01*
X127931428Y-56365294D02*
X128052381Y-56304818D01*
X128052381Y-56304818D02*
X128354762Y-56304818D01*
X128354762Y-56304818D02*
X128475714Y-56365294D01*
X128475714Y-56365294D02*
X128536190Y-56425770D01*
X128536190Y-56425770D02*
X128596667Y-56546722D01*
X128596667Y-56546722D02*
X128596667Y-56667675D01*
X128596667Y-56667675D02*
X128536190Y-56849103D01*
X128536190Y-56849103D02*
X127810476Y-57574818D01*
X127810476Y-57574818D02*
X128596667Y-57574818D01*
X127076669Y-96054817D02*
X127076669Y-96961960D01*
X127076669Y-96961960D02*
X127016192Y-97143388D01*
X127016192Y-97143388D02*
X126895240Y-97264341D01*
X126895240Y-97264341D02*
X126713811Y-97324817D01*
X126713811Y-97324817D02*
X126592859Y-97324817D01*
X128346669Y-97324817D02*
X127620954Y-97324817D01*
X127983811Y-97324817D02*
X127983811Y-96054817D01*
X127983811Y-96054817D02*
X127862859Y-96236245D01*
X127862859Y-96236245D02*
X127741907Y-96357198D01*
X127741907Y-96357198D02*
X127620954Y-96417674D01*
D11*
X114289580Y-81666666D02*
X114337200Y-81714285D01*
X114337200Y-81714285D02*
X114384819Y-81857142D01*
X114384819Y-81857142D02*
X114384819Y-81952380D01*
X114384819Y-81952380D02*
X114337200Y-82095237D01*
X114337200Y-82095237D02*
X114241961Y-82190475D01*
X114241961Y-82190475D02*
X114146723Y-82238094D01*
X114146723Y-82238094D02*
X113956247Y-82285713D01*
X113956247Y-82285713D02*
X113813390Y-82285713D01*
X113813390Y-82285713D02*
X113622914Y-82238094D01*
X113622914Y-82238094D02*
X113527676Y-82190475D01*
X113527676Y-82190475D02*
X113432438Y-82095237D01*
X113432438Y-82095237D02*
X113384819Y-81952380D01*
X113384819Y-81952380D02*
X113384819Y-81857142D01*
X113384819Y-81857142D02*
X113432438Y-81714285D01*
X113432438Y-81714285D02*
X113480057Y-81666666D01*
X113480057Y-81285713D02*
X113432438Y-81238094D01*
X113432438Y-81238094D02*
X113384819Y-81142856D01*
X113384819Y-81142856D02*
X113384819Y-80904761D01*
X113384819Y-80904761D02*
X113432438Y-80809523D01*
X113432438Y-80809523D02*
X113480057Y-80761904D01*
X113480057Y-80761904D02*
X113575295Y-80714285D01*
X113575295Y-80714285D02*
X113670533Y-80714285D01*
X113670533Y-80714285D02*
X113813390Y-80761904D01*
X113813390Y-80761904D02*
X114384819Y-81333332D01*
X114384819Y-81333332D02*
X114384819Y-80714285D01*
X109289580Y-75416666D02*
X109337200Y-75464285D01*
X109337200Y-75464285D02*
X109384819Y-75607142D01*
X109384819Y-75607142D02*
X109384819Y-75702380D01*
X109384819Y-75702380D02*
X109337200Y-75845237D01*
X109337200Y-75845237D02*
X109241961Y-75940475D01*
X109241961Y-75940475D02*
X109146723Y-75988094D01*
X109146723Y-75988094D02*
X108956247Y-76035713D01*
X108956247Y-76035713D02*
X108813390Y-76035713D01*
X108813390Y-76035713D02*
X108622914Y-75988094D01*
X108622914Y-75988094D02*
X108527676Y-75940475D01*
X108527676Y-75940475D02*
X108432438Y-75845237D01*
X108432438Y-75845237D02*
X108384819Y-75702380D01*
X108384819Y-75702380D02*
X108384819Y-75607142D01*
X108384819Y-75607142D02*
X108432438Y-75464285D01*
X108432438Y-75464285D02*
X108480057Y-75416666D01*
X109384819Y-74464285D02*
X109384819Y-75035713D01*
X109384819Y-74749999D02*
X108384819Y-74749999D01*
X108384819Y-74749999D02*
X108527676Y-74845237D01*
X108527676Y-74845237D02*
X108622914Y-74940475D01*
X108622914Y-74940475D02*
X108670533Y-75035713D01*
D13*
%TO.C,U1*%
X119605000Y-68890003D02*
X130525000Y-68890000D01*
X119604997Y-70889996D02*
X119605000Y-68890003D01*
X115205000Y-70889997D02*
X119604997Y-70889996D01*
X128444998Y-73130001D02*
X130524999Y-73130002D01*
X128444998Y-73130001D02*
X128445001Y-78890002D01*
X115204997Y-73844999D02*
X113325002Y-73844995D01*
X115205000Y-74355001D02*
X113324998Y-74354996D01*
X115205001Y-75754998D02*
X113324998Y-75755001D01*
X115204997Y-76265000D02*
X113325000Y-76264999D01*
X115205000Y-77664999D02*
X113325000Y-77665002D01*
X115205000Y-78175001D02*
X113325000Y-78174995D01*
X128445001Y-78890002D02*
X130525000Y-78890001D01*
X119604999Y-81130002D02*
X119605004Y-83129999D01*
X115205001Y-81130001D02*
X115205000Y-70889997D01*
X115205001Y-81130001D02*
X119604999Y-81130002D01*
X119605004Y-83129999D02*
X130525002Y-83129998D01*
%TO.C,R2*%
X110004718Y-81022503D02*
X109495271Y-81022498D01*
X110004729Y-79977502D02*
X109495282Y-79977497D01*
D10*
%TO.C,J8*%
X116950000Y-85000000D02*
G75*
G02*
X113550000Y-85000000I-1700000J0D01*
G01*
X113550000Y-85000000D02*
G75*
G02*
X116950000Y-85000000I1700000J0D01*
G01*
%TO.C,J7*%
X112700000Y-95500000D02*
G75*
G02*
X109300000Y-95500000I-1700000J0D01*
G01*
X109300000Y-95500000D02*
G75*
G02*
X112700000Y-95500000I1700000J0D01*
G01*
%TO.C,J6*%
X116950000Y-90000000D02*
G75*
G02*
X113550000Y-90000000I-1700000J0D01*
G01*
X113550000Y-90000000D02*
G75*
G02*
X116950000Y-90000000I1700000J0D01*
G01*
%TO.C,J5*%
X112450000Y-85000000D02*
G75*
G02*
X109050000Y-85000000I-1700000J0D01*
G01*
X109050000Y-85000000D02*
G75*
G02*
X112450000Y-85000000I1700000J0D01*
G01*
%TO.C,J4*%
X112700000Y-90000000D02*
G75*
G02*
X109300000Y-90000000I-1700000J0D01*
G01*
X109300000Y-90000000D02*
G75*
G02*
X112700000Y-90000000I1700000J0D01*
G01*
%TO.C,J3*%
X116950000Y-95500000D02*
G75*
G02*
X113550000Y-95500000I-1700000J0D01*
G01*
X113550000Y-95500000D02*
G75*
G02*
X116950000Y-95500000I1700000J0D01*
G01*
D14*
%TO.C,J2*%
X120000000Y-59662500D02*
X120000000Y-66012500D01*
X120000000Y-66012500D02*
X121250000Y-66012500D01*
X135500000Y-59662500D02*
X135500000Y-66012500D01*
X135500000Y-66012500D02*
X133250000Y-66012500D01*
X120000000Y-56662500D02*
X120000000Y-47812500D01*
X120000000Y-47812500D02*
X135500000Y-47812500D01*
X135500000Y-47812500D02*
X135500000Y-56662500D01*
X129250000Y-66012500D02*
X126750000Y-66012500D01*
D10*
X124150000Y-66662500D02*
X124150000Y-66662500D01*
X124150000Y-66562500D02*
X124150000Y-66562500D01*
X124150000Y-66562500D02*
G75*
G02*
X124150000Y-66662500I0J-50000D01*
G01*
X124150000Y-66662500D02*
G75*
G02*
X124150000Y-66562500I0J50000D01*
G01*
D14*
%TO.C,J1*%
X120499998Y-98587501D02*
X120499998Y-105437500D01*
X120499998Y-105437500D02*
X134500000Y-105437500D01*
X134500000Y-105437500D02*
X134500000Y-98587498D01*
X121499999Y-97737498D02*
X133499998Y-97737500D01*
X119749999Y-94087499D02*
X119749998Y-91587500D01*
X119749998Y-91587500D02*
X120000001Y-91587499D01*
X120000001Y-91587499D02*
X121499998Y-88237497D01*
D10*
X131100001Y-87537501D02*
X131100001Y-87537501D01*
X131099998Y-87437500D02*
X131099998Y-87437500D01*
D14*
X135250001Y-94087502D02*
X135250000Y-91587500D01*
X135250000Y-91587500D02*
X134999998Y-91587504D01*
X134999998Y-91587504D02*
X133900003Y-89087500D01*
D10*
X131099998Y-87437500D02*
G75*
G02*
X131100001Y-87537498I2J-49999D01*
G01*
X131100001Y-87537501D02*
G75*
G02*
X131099998Y-87437497I-1J50002D01*
G01*
D13*
%TO.C,C2*%
X113010003Y-81353731D02*
X113009999Y-81646264D01*
X111990001Y-81353736D02*
X111989997Y-81646269D01*
%TO.C,C1*%
X108010003Y-75103731D02*
X108009999Y-75396264D01*
X106990001Y-75103736D02*
X106989997Y-75396269D01*
%TD*%
M02*
