  0
SECTION
  2
HEADER
  9
$ANGBASE
  50
0.0
  9
$ANGDIR
  70
1
  9
$MEASUREMENT
  70
1
  0
ENDSEC
  0
SECTION
  2
TABLES
  0
TABLE
  2
LTYPE
  70
4
  0
LTYPE
  5
40F
  2
CONTINUOUS
  70
0
  3
Solid line
  72
65
  73
0
  40
0.0
  0
LTYPE
  5
410
  2
DASHDOT
 70
0
  3
Dash Dot ____ _ ____ _
 72
65
 73
4
 40
2.0
 49
1.25
 49
-0.25
 49
0.25
 49
-0.25
  0
LTYPE
  5
411
  2
DASHED
 70
0
  3
Dashed __ __ __ __ __
 72
65
 73
2
 40
0.75
 49
0.5
 49
-0.25
  0
LTYPE
  5
43B
  2
DOTTED
 70
0
  3
Dotted .  .  .  .
 72
65
 73
2
 40
0.2
 49
0.0
 49
-0.2
  0
ENDTAB
  0
TABLE
  2
STYLE
  70
4
  0
STYLE
  2
KICAD
  70
0
  40
0
  41
1
  42
1
  50
0
  71
0
  3
isocp.shx
  0
STYLE
  2
KICADB
  70
0
  40
0
  41
1
  42
1
  50
0
  71
0
  3
isocp.shx
  0
STYLE
  2
KICADI
  70
0
  40
0
  41
1
  42
1
  50
15
  71
0
  3
isocp.shx
  0
STYLE
  2
KICADBI
  70
0
  40
0
  41
1
  42
1
  50
15
  71
0
  3
isocp.shx
  0
ENDTAB
  0
TABLE
  2
LAYER
  70
35
  0
LAYER
  2
BLACK
  70
0
  62
7
  6
CONTINUOUS
  0
LAYER
  2
GRAY1
  70
0
  62
251
  6
CONTINUOUS
  0
LAYER
  2
GRAY2
  70
0
  62
8
  6
CONTINUOUS
  0
LAYER
  2
GRAY3
  70
0
  62
9
  6
CONTINUOUS
  0
LAYER
  2
WHITE
  70
0
  62
7
  6
CONTINUOUS
  0
LAYER
  2
LYELLOW
  70
0
  62
51
  6
CONTINUOUS
  0
LAYER
  2
LORANGE
  70
0
  62
41
  6
CONTINUOUS
  0
LAYER
  2
BLUE1
  70
0
  62
178
  6
CONTINUOUS
  0
LAYER
  2
GREEN1
  70
0
  62
98
  6
CONTINUOUS
  0
LAYER
  2
CYAN1
  70
0
  62
138
  6
CONTINUOUS
  0
LAYER
  2
RED1
  70
0
  62
18
  6
CONTINUOUS
  0
LAYER
  2
MAGENTA1
  70
0
  62
228
  6
CONTINUOUS
  0
LAYER
  2
BROWN1
  70
0
  62
58
  6
CONTINUOUS
  0
LAYER
  2
ORANGE1
  70
0
  62
34
  6
CONTINUOUS
  0
LAYER
  2
BLUE2
  70
0
  62
5
  6
CONTINUOUS
  0
LAYER
  2
GREEN2
  70
0
  62
3
  6
CONTINUOUS
  0
LAYER
  2
CYAN2
  70
0
  62
4
  6
CONTINUOUS
  0
LAYER
  2
RED2
  70
0
  62
1
  6
CONTINUOUS
  0
LAYER
  2
MAGENTA2
  70
0
  62
6
  6
CONTINUOUS
  0
LAYER
  2
BROWN2
  70
0
  62
54
  6
CONTINUOUS
  0
LAYER
  2
ORANGE2
  70
0
  62
42
  6
CONTINUOUS
  0
LAYER
  2
BLUE3
  70
0
  62
171
  6
CONTINUOUS
  0
LAYER
  2
GREEN3
  70
0
  62
91
  6
CONTINUOUS
  0
LAYER
  2
CYAN3
  70
0
  62
131
  6
CONTINUOUS
  0
LAYER
  2
RED3
  70
0
  62
11
  6
CONTINUOUS
  0
LAYER
  2
MAGENTA3
  70
0
  62
221
  6
CONTINUOUS
  0
LAYER
  2
YELLOW3
  70
0
  62
2
  6
CONTINUOUS
  0
LAYER
  2
ORANGE3
  70
0
  62
32
  6
CONTINUOUS
  0
LAYER
  2
BLUE4
  70
0
  62
5
  6
CONTINUOUS
  0
LAYER
  2
GREEN4
  70
0
  62
3
  6
CONTINUOUS
  0
LAYER
  2
CYAN4
  70
0
  62
4
  6
CONTINUOUS
  0
LAYER
  2
RED4
  70
0
  62
1
  6
CONTINUOUS
  0
LAYER
  2
MAGENTA4
  70
0
  62
6
  6
CONTINUOUS
  0
LAYER
  2
YELLOW4
  70
0
  62
2
  6
CONTINUOUS
  0
LAYER
  2
ORANGE4
  70
0
  62
40
  6
CONTINUOUS
  0
ENDTAB
  0
ENDSEC
  0
SECTION
  2
ENTITIES
0
CIRCLE
8
WHITE
10
110.25
20
-128.5
40
2.
0
CIRCLE
8
WHITE
10
110.25
20
-76.25
40
2.
0
CIRCLE
8
WHITE
10
238.
20
-76.25
40
2.
0
LINE
8
WHITE
6
CONTINUOUS
10
106.5
20
-72.5
11
241.75
21
-72.5
0
LINE
8
WHITE
6
CONTINUOUS
10
241.75
20
-72.5
11
241.75
21
-132.
0
LINE
8
WHITE
6
CONTINUOUS
10
241.75
20
-132.
11
106.5
21
-132.
0
LINE
8
WHITE
6
CONTINUOUS
10
106.5
20
-132.
11
106.5
21
-72.5
0
CIRCLE
8
WHITE
10
238.
20
-128.25
40
2.
0
CIRCLE
8
WHITE
10
113.769999999999996
20
-123.25
40
0.5499999999999999
0
CIRCLE
8
WHITE
10
116.3099999999999881
20
-123.25
40
0.5499999999999999
0
CIRCLE
8
WHITE
10
233.5999989999999968
20
-100.2825039999999888
40
0.6
0
CIRCLE
8
WHITE
10
231.0599989999999764
20
-100.2825039999999888
40
0.6
0
CIRCLE
8
WHITE
10
228.5199999999999818
20
-100.2825089999999904
40
0.6
0
CIRCLE
8
WHITE
10
225.9799989999999923
20
-100.2825039999999888
40
0.6
0
CIRCLE
8
WHITE
10
223.4399990000000003
20
-100.2825029999999913
40
0.6
0
CIRCLE
8
WHITE
10
220.8999979999999823
20
-100.2825089999999904
40
0.6
0
ARC
8
WHITE
10
116.0999999999999943
20
-101.8999999999999915
40
0.75
50
-180.00000000
51
0.00000000
0
ARC
8
WHITE
10
116.0999999999999943
20
-101.8999999999999915
40
0.75
50
0.00000000
51
180.00000000
0
ARC
8
WHITE
10
119.1999999999999886
20
-101.8999999999999915
40
0.75
50
-180.00000000
51
0.00000000
0
ARC
8
WHITE
10
119.1999999999999886
20
-101.8999999999999915
40
0.75
50
0.00000000
51
180.00000000
0
ARC
8
WHITE
10
126.6999999999999886
20
-102.
40
0.75
50
-180.00000000
51
0.00000000
0
ARC
8
WHITE
10
126.6999999999999886
20
-102.
40
0.75
50
0.00000000
51
180.00000000
0
ARC
8
WHITE
10
129.7999999999999829
20
-101.8999999999999915
40
0.75
50
-180.00000000
51
0.00000000
0
ARC
8
WHITE
10
129.7999999999999829
20
-101.8999999999999915
40
0.75
50
0.00000000
51
180.00000000
0
ARC
8
WHITE
10
116.0999999999999943
20
-79.5999999999999943
40
0.75
50
-180.00000000
51
0.00000000
0
ARC
8
WHITE
10
116.0999999999999943
20
-79.5999999999999943
40
0.75
50
0.00000000
51
180.00000000
0
ARC
8
WHITE
10
119.1999999999999886
20
-79.5999999999999943
40
0.75
50
-180.00000000
51
0.00000000
0
ARC
8
WHITE
10
119.1999999999999886
20
-79.5999999999999943
40
0.75
50
0.00000000
51
180.00000000
0
ARC
8
WHITE
10
126.6999999999999886
20
-79.5999999999999943
40
0.75
50
-180.00000000
51
0.00000000
0
ARC
8
WHITE
10
126.6999999999999886
20
-79.5999999999999943
40
0.75
50
0.00000000
51
180.00000000
0
ARC
8
WHITE
10
129.6999999999999886
20
-79.5999999999999943
40
0.75
50
-180.00000000
51
0.00000000
0
ARC
8
WHITE
10
129.6999999999999886
20
-79.5999999999999943
40
0.75
50
0.00000000
51
180.00000000
0
CIRCLE
8
WHITE
10
207.3799999999999955
20
-108.8799999999999955
40
0.75
0
CIRCLE
8
WHITE
10
123.2574999999999932
20
-108.2325000000000017
40
0.4
0
CIRCLE
8
WHITE
10
120.7175000000000011
20
-108.2325000000000017
40
0.4
0
CIRCLE
8
WHITE
10
120.7175000000000011
20
-115.852499999999992
40
0.4
0
CIRCLE
8
WHITE
10
123.2574999999999932
20
-115.852499999999992
40
0.4
0
CIRCLE
8
WHITE
10
207.5
20
-123.25
40
0.5499999999999999
0
CIRCLE
8
WHITE
10
210.039999999999992
20
-123.25
40
0.5499999999999999
0
CIRCLE
8
WHITE
10
212.5799999999999841
20
-123.25
40
0.5499999999999999
0
CIRCLE
8
WHITE
10
191.2000019999999836
20
-94.8600009999999969
40
0.5
0
CIRCLE
8
WHITE
10
193.740002000000004
20
-94.8600009999999969
40
0.5
0
CIRCLE
8
WHITE
10
196.2800009999999986
20
-94.8599959999999953
40
0.5
0
CIRCLE
8
WHITE
10
198.8200019999999881
20
-94.8600009999999969
40
0.5
0
CIRCLE
8
WHITE
10
201.3600019999999802
20
-94.8600019999999944
40
0.5
0
CIRCLE
8
WHITE
10
203.9000029999999981
20
-94.8599959999999953
40
0.5
0
CIRCLE
8
WHITE
10
206.4400019999999927
20
-94.8600009999999969
40
0.5
0
CIRCLE
8
WHITE
10
208.9800039999999797
20
-94.859999000000002
40
0.5
0
CIRCLE
8
WHITE
10
211.5200069999999926
20
-94.8600019999999944
40
0.5
0
CIRCLE
8
WHITE
10
214.0600019999999972
20
-94.860006999999996
40
0.5
0
CIRCLE
8
WHITE
10
216.6000019999999893
20
-94.8600009999999969
40
0.5
0
CIRCLE
8
WHITE
10
219.1400019999999813
20
-94.8600009999999969
40
0.5
0
CIRCLE
8
WHITE
10
221.6800029999999992
20
-94.8600029999999919
40
0.5
0
CIRCLE
8
WHITE
10
224.2200029999999913
20
-94.8600009999999969
40
0.5
0
CIRCLE
8
WHITE
10
226.7600019999999859
20
-94.8600009999999969
40
0.5
0
CIRCLE
8
WHITE
10
226.759996000000001
20
-79.620001000000002
40
0.5
0
CIRCLE
8
WHITE
10
224.2199980000000039
20
-79.6199969999999979
40
0.5
0
CIRCLE
8
WHITE
10
221.6800020000000018
20
-79.620001000000002
40
0.5
0
CIRCLE
8
WHITE
10
219.1400050000000022
20
-79.6199989999999929
40
0.5
0
CIRCLE
8
WHITE
10
216.6000019999999893
20
-79.620001000000002
40
0.5
0
CIRCLE
8
WHITE
10
214.0600019999999972
20
-79.6199979999999954
40
0.5
0
CIRCLE
8
WHITE
10
211.5200019999999768
20
-79.620001000000002
40
0.5
0
CIRCLE
8
WHITE
10
208.9800009999999872
20
-79.6200019999999995
40
0.5
0
CIRCLE
8
WHITE
10
206.4399990000000003
20
-79.620002999999997
40
0.5
0
CIRCLE
8
WHITE
10
203.9000010000000032
20
-79.6199989999999929
40
0.5
0
CIRCLE
8
WHITE
10
201.3600029999999776
20
-79.620001000000002
40
0.5
0
CIRCLE
8
WHITE
10
198.8200019999999881
20
-79.620002999999997
40
0.5
0
CIRCLE
8
WHITE
10
196.2800029999999936
20
-79.620002999999997
40
0.5
0
CIRCLE
8
WHITE
10
193.740002000000004
20
-79.620001000000002
40
0.5
0
CIRCLE
8
WHITE
10
191.2000019999999836
20
-79.620001000000002
40
0.5
0
CIRCLE
8
WHITE
10
128.2699999999999818
20
-123.25
40
0.5499999999999999
0
CIRCLE
8
WHITE
10
130.8100000000000023
20
-123.25
40
0.5499999999999999
0
CIRCLE
8
WHITE
10
178.3499999999999943
20
-108.9499999999999886
40
0.75
0
CIRCLE
8
WHITE
10
166.539999999999992
20
-123.2449999999999903
40
0.5499999999999999
0
CIRCLE
8
WHITE
10
169.0799999999999841
20
-123.2449999999999903
40
0.5499999999999999
0
CIRCLE
8
WHITE
10
171.6200000000000045
20
-123.2449999999999903
40
0.5499999999999999
0
CIRCLE
8
WHITE
10
210.
20
-115.1999999999999886
40
0.75
0
CIRCLE
8
WHITE
10
218.75
20
-76.4500000000000028
40
0.75
0
CIRCLE
8
WHITE
10
176.75
20
-123.25
40
0.5499999999999999
0
CIRCLE
8
WHITE
10
179.289999999999992
20
-123.25
40
0.5499999999999999
0
CIRCLE
8
WHITE
10
181.8299999999999841
20
-123.25
40
0.5499999999999999
0
CIRCLE
8
WHITE
10
171.1500000000000057
20
-114.3199999999999932
40
0.75
0
CIRCLE
8
WHITE
10
206.25
20
-104.4499999999999886
40
0.75
0
CIRCLE
8
WHITE
10
217.75
20
-123.25
40
0.5499999999999999
0
CIRCLE
8
WHITE
10
220.289999999999992
20
-123.25
40
0.5499999999999999
0
CIRCLE
8
WHITE
10
222.8299999999999841
20
-123.25
40
0.5499999999999999
0
CIRCLE
8
WHITE
10
146.
20
-123.25
40
0.5499999999999999
0
CIRCLE
8
WHITE
10
148.539999999999992
20
-123.25
40
0.5499999999999999
0
CIRCLE
8
WHITE
10
151.0799999999999841
20
-123.25
40
0.5499999999999999
0
CIRCLE
8
WHITE
10
121.019999999999996
20
-123.25
40
0.5499999999999999
0
CIRCLE
8
WHITE
10
123.5599999999999881
20
-123.25
40
0.5499999999999999
0
CIRCLE
8
WHITE
10
135.75
20
-123.25
40
0.5499999999999999
0
CIRCLE
8
WHITE
10
138.289999999999992
20
-123.25
40
0.5499999999999999
0
CIRCLE
8
WHITE
10
140.8299999999999841
20
-123.25
40
0.5499999999999999
0
CIRCLE
8
WHITE
10
217.25
20
-102.6999999999999886
40
0.75
0
CIRCLE
8
WHITE
10
179.5600000000000023
20
-103.2599999999999909
40
0.75
0
CIRCLE
8
WHITE
10
152.4799999999999898
20
-94.3699999999999903
40
0.5
0
CIRCLE
8
WHITE
10
155.0199999999999818
20
-94.3699999999999903
40
0.5
0
CIRCLE
8
WHITE
10
157.5600000000000023
20
-94.3699999999999903
40
0.5
0
CIRCLE
8
WHITE
10
160.0999999999999943
20
-94.3699999999999903
40
0.5
0
CIRCLE
8
WHITE
10
162.6399999999999864
20
-94.3699999999999903
40
0.5
0
CIRCLE
8
WHITE
10
165.1799999999999784
20
-94.3699999999999903
40
0.5
0
CIRCLE
8
WHITE
10
167.7199999999999989
20
-94.3699999999999903
40
0.5
0
CIRCLE
8
WHITE
10
170.2599999999999909
20
-94.3699999999999903
40
0.5
0
CIRCLE
8
WHITE
10
172.7999999999999829
20
-94.3699999999999903
40
0.5
0
CIRCLE
8
WHITE
10
175.3400000000000034
20
-94.3699999999999903
40
0.5
0
CIRCLE
8
WHITE
10
156.25
20
-123.25
40
0.5499999999999999
0
CIRCLE
8
WHITE
10
158.789999999999992
20
-123.25
40
0.5499999999999999
0
CIRCLE
8
WHITE
10
161.3299999999999841
20
-123.25
40
0.5499999999999999
0
CIRCLE
8
WHITE
10
143.7174969999999803
20
-112.0999989999999968
40
0.6
0
CIRCLE
8
WHITE
10
143.7174969999999803
20
-109.5599989999999906
40
0.6
0
CIRCLE
8
WHITE
10
143.7174919999999929
20
-107.019999999999996
40
0.6
0
CIRCLE
8
WHITE
10
143.7174969999999803
20
-104.4799989999999923
40
0.6
0
CIRCLE
8
WHITE
10
143.7174980000000062
20
-101.9399990000000003
40
0.6
0
CIRCLE
8
WHITE
10
143.7174919999999929
20
-99.3999979999999965
40
0.6
0
CIRCLE
8
WHITE
10
220.7324999999999875
20
-108.7424999999999926
40
0.4
0
CIRCLE
8
WHITE
10
220.7324999999999875
20
-111.2824999999999989
40
0.4
0
CIRCLE
8
WHITE
10
228.352499999999992
20
-111.2824999999999989
40
0.4
0
CIRCLE
8
WHITE
10
228.352499999999992
20
-108.7424999999999926
40
0.4
0
ARC
8
WHITE
10
145.1000019999999893
20
-80.0499980000000022
40
0.75
50
0.00000000
51
180.00000000
0
ARC
8
WHITE
10
145.1000019999999893
20
-80.0499980000000022
40
0.75
50
180.00000000
51
360.00000000
0
ARC
8
WHITE
10
136.5999999999999943
20
-80.0499999999999972
40
0.75
50
0.00000000
51
180.00000000
0
ARC
8
WHITE
10
136.5999999999999943
20
-80.0499999999999972
40
0.75
50
180.00000000
51
360.00000000
0
ARC
8
WHITE
10
145.1000009999999918
20
-94.4499979999999937
40
0.75
50
0.00000000
51
180.00000000
0
ARC
8
WHITE
10
145.1000009999999918
20
-94.4499979999999937
40
0.75
50
180.00000000
51
360.00000000
0
ARC
8
WHITE
10
136.6999999999999886
20
-94.4499999999999886
40
0.75
50
0.00000000
51
180.00000000
0
ARC
8
WHITE
10
136.6999999999999886
20
-94.4499999999999886
40
0.75
50
180.00000000
51
360.00000000
0
CIRCLE
8
WHITE
10
187.039999999999992
20
-123.2449999999999903
40
0.5499999999999999
0
CIRCLE
8
WHITE
10
189.5799999999999841
20
-123.2449999999999903
40
0.5499999999999999
0
CIRCLE
8
WHITE
10
192.1200000000000045
20
-123.2449999999999903
40
0.5499999999999999
0
CIRCLE
8
WHITE
10
228.
20
-123.25
40
0.5499999999999999
0
CIRCLE
8
WHITE
10
230.539999999999992
20
-123.25
40
0.5499999999999999
0
CIRCLE
8
WHITE
10
233.0799999999999841
20
-123.25
40
0.5499999999999999
0
CIRCLE
8
WHITE
10
197.25
20
-123.25
40
0.5499999999999999
0
CIRCLE
8
WHITE
10
199.789999999999992
20
-123.25
40
0.5499999999999999
0
CIRCLE
8
WHITE
10
202.3299999999999841
20
-123.25
40
0.5499999999999999
  0
ENDSEC
  0
EOF
