  0
SECTION
  2
HEADER
  9
$ANGBASE
  50
0.0
  9
$ANGDIR
  70
1
  9
$MEASUREMENT
  70
1
  0
ENDSEC
  0
SECTION
  2
TABLES
  0
TABLE
  2
LTYPE
  70
4
  0
LTYPE
  5
40F
  2
CONTINUOUS
  70
0
  3
Solid line
  72
65
  73
0
  40
0.0
  0
LTYPE
  5
410
  2
DASHDOT
 70
0
  3
Dash Dot ____ _ ____ _
 72
65
 73
4
 40
2.0
 49
1.25
 49
-0.25
 49
0.25
 49
-0.25
  0
LTYPE
  5
411
  2
DASHED
 70
0
  3
Dashed __ __ __ __ __
 72
65
 73
2
 40
0.75
 49
0.5
 49
-0.25
  0
LTYPE
  5
43B
  2
DOTTED
 70
0
  3
Dotted .  .  .  .
 72
65
 73
2
 40
0.2
 49
0.0
 49
-0.2
  0
ENDTAB
  0
TABLE
  2
STYLE
  70
4
  0
STYLE
  2
KICAD
  70
0
  40
0
  41
1
  42
1
  50
0
  71
0
  3
isocp.shx
  0
STYLE
  2
KICADB
  70
0
  40
0
  41
1
  42
1
  50
0
  71
0
  3
isocp.shx
  0
STYLE
  2
KICADI
  70
0
  40
0
  41
1
  42
1
  50
15
  71
0
  3
isocp.shx
  0
STYLE
  2
KICADBI
  70
0
  40
0
  41
1
  42
1
  50
15
  71
0
  3
isocp.shx
  0
ENDTAB
  0
TABLE
  2
LAYER
  70
35
  0
LAYER
  2
BLACK
  70
0
  62
7
  6
CONTINUOUS
  0
LAYER
  2
GRAY1
  70
0
  62
251
  6
CONTINUOUS
  0
LAYER
  2
GRAY2
  70
0
  62
8
  6
CONTINUOUS
  0
LAYER
  2
GRAY3
  70
0
  62
9
  6
CONTINUOUS
  0
LAYER
  2
WHITE
  70
0
  62
7
  6
CONTINUOUS
  0
LAYER
  2
LYELLOW
  70
0
  62
51
  6
CONTINUOUS
  0
LAYER
  2
LORANGE
  70
0
  62
41
  6
CONTINUOUS
  0
LAYER
  2
BLUE1
  70
0
  62
178
  6
CONTINUOUS
  0
LAYER
  2
GREEN1
  70
0
  62
98
  6
CONTINUOUS
  0
LAYER
  2
CYAN1
  70
0
  62
138
  6
CONTINUOUS
  0
LAYER
  2
RED1
  70
0
  62
18
  6
CONTINUOUS
  0
LAYER
  2
MAGENTA1
  70
0
  62
228
  6
CONTINUOUS
  0
LAYER
  2
BROWN1
  70
0
  62
58
  6
CONTINUOUS
  0
LAYER
  2
ORANGE1
  70
0
  62
34
  6
CONTINUOUS
  0
LAYER
  2
BLUE2
  70
0
  62
5
  6
CONTINUOUS
  0
LAYER
  2
GREEN2
  70
0
  62
3
  6
CONTINUOUS
  0
LAYER
  2
CYAN2
  70
0
  62
4
  6
CONTINUOUS
  0
LAYER
  2
RED2
  70
0
  62
1
  6
CONTINUOUS
  0
LAYER
  2
MAGENTA2
  70
0
  62
6
  6
CONTINUOUS
  0
LAYER
  2
BROWN2
  70
0
  62
54
  6
CONTINUOUS
  0
LAYER
  2
ORANGE2
  70
0
  62
42
  6
CONTINUOUS
  0
LAYER
  2
BLUE3
  70
0
  62
171
  6
CONTINUOUS
  0
LAYER
  2
GREEN3
  70
0
  62
91
  6
CONTINUOUS
  0
LAYER
  2
CYAN3
  70
0
  62
131
  6
CONTINUOUS
  0
LAYER
  2
RED3
  70
0
  62
11
  6
CONTINUOUS
  0
LAYER
  2
MAGENTA3
  70
0
  62
221
  6
CONTINUOUS
  0
LAYER
  2
YELLOW3
  70
0
  62
2
  6
CONTINUOUS
  0
LAYER
  2
ORANGE3
  70
0
  62
32
  6
CONTINUOUS
  0
LAYER
  2
BLUE4
  70
0
  62
5
  6
CONTINUOUS
  0
LAYER
  2
GREEN4
  70
0
  62
3
  6
CONTINUOUS
  0
LAYER
  2
CYAN4
  70
0
  62
4
  6
CONTINUOUS
  0
LAYER
  2
RED4
  70
0
  62
1
  6
CONTINUOUS
  0
LAYER
  2
MAGENTA4
  70
0
  62
6
  6
CONTINUOUS
  0
LAYER
  2
YELLOW4
  70
0
  62
2
  6
CONTINUOUS
  0
LAYER
  2
ORANGE4
  70
0
  62
40
  6
CONTINUOUS
  0
ENDTAB
  0
ENDSEC
  0
SECTION
  2
ENTITIES
0
LINE
8
LORANGE
6
CONTINUOUS
10
218.5595799999999826
20
-83.0833329999999961
11
218.6071999999999775
21
-83.0357139999999987
0
LINE
8
LORANGE
6
CONTINUOUS
10
218.6071999999999775
20
-83.0357139999999987
11
218.6548190000000034
21
-82.8928569999999922
0
LINE
8
LORANGE
6
CONTINUOUS
10
218.6548190000000034
20
-82.8928569999999922
11
218.6548190000000034
21
-82.7976189999999974
0
LINE
8
LORANGE
6
CONTINUOUS
10
218.6548190000000034
20
-82.7976189999999974
11
218.6071999999999775
21
-82.654761999999991
0
LINE
8
LORANGE
6
CONTINUOUS
10
218.6071999999999775
20
-82.654761999999991
11
218.5119609999999852
21
-82.5595239999999961
0
LINE
8
LORANGE
6
CONTINUOUS
10
218.5119609999999852
20
-82.5595239999999961
11
218.4167229999999904
21
-82.5119049999999987
0
LINE
8
LORANGE
6
CONTINUOUS
10
218.4167229999999904
20
-82.5119049999999987
11
218.2262470000000008
21
-82.4642860000000013
0
LINE
8
LORANGE
6
CONTINUOUS
10
218.2262470000000008
20
-82.4642860000000013
11
218.0833899999999801
21
-82.4642860000000013
0
LINE
8
LORANGE
6
CONTINUOUS
10
218.0833899999999801
20
-82.4642860000000013
11
217.8929139999999904
21
-82.5119049999999987
0
LINE
8
LORANGE
6
CONTINUOUS
10
217.8929139999999904
20
-82.5119049999999987
11
217.7976759999999956
21
-82.5595239999999961
0
LINE
8
LORANGE
6
CONTINUOUS
10
217.7976759999999956
20
-82.5595239999999961
11
217.7024380000000008
21
-82.654761999999991
0
LINE
8
LORANGE
6
CONTINUOUS
10
217.7024380000000008
20
-82.654761999999991
11
217.6548190000000034
21
-82.7976189999999974
0
LINE
8
LORANGE
6
CONTINUOUS
10
217.6548190000000034
20
-82.7976189999999974
11
217.6548190000000034
21
-82.8928569999999922
0
LINE
8
LORANGE
6
CONTINUOUS
10
217.6548190000000034
20
-82.8928569999999922
11
217.7024380000000008
21
-83.0357139999999987
0
LINE
8
LORANGE
6
CONTINUOUS
10
217.7024380000000008
20
-83.0357139999999987
11
217.7500569999999982
21
-83.0833329999999961
0
LINE
8
LORANGE
6
CONTINUOUS
10
217.7500569999999982
20
-83.4642860000000013
11
217.7024380000000008
21
-83.5119049999999987
0
LINE
8
LORANGE
6
CONTINUOUS
10
217.7024380000000008
20
-83.5119049999999987
11
217.6548190000000034
21
-83.6071429999999935
0
LINE
8
LORANGE
6
CONTINUOUS
10
217.6548190000000034
20
-83.6071429999999935
11
217.6548190000000034
21
-83.8452379999999948
0
LINE
8
LORANGE
6
CONTINUOUS
10
217.6548190000000034
20
-83.8452379999999948
11
217.7024380000000008
21
-83.9404759999999897
0
LINE
8
LORANGE
6
CONTINUOUS
10
217.7024380000000008
20
-83.9404759999999897
11
217.7500569999999982
21
-83.9880950000000013
0
LINE
8
LORANGE
6
CONTINUOUS
10
217.7500569999999982
20
-83.9880950000000013
11
217.845294999999993
21
-84.0357139999999987
0
LINE
8
LORANGE
6
CONTINUOUS
10
217.845294999999993
20
-84.0357139999999987
11
217.9405329999999879
21
-84.0357139999999987
0
LINE
8
LORANGE
6
CONTINUOUS
10
217.9405329999999879
20
-84.0357139999999987
11
218.0833899999999801
21
-83.9880950000000013
0
LINE
8
LORANGE
6
CONTINUOUS
10
218.0833899999999801
20
-83.9880950000000013
11
218.6548190000000034
21
-83.4166669999999897
0
LINE
8
LORANGE
6
CONTINUOUS
10
218.6548190000000034
20
-83.4166669999999897
11
218.6548190000000034
21
-84.0357139999999987
0
LINE
8
LORANGE
6
CONTINUOUS
10
153.859579999999994
20
-90.3333329999999961
11
153.9071999999999889
21
-90.2857139999999987
0
LINE
8
LORANGE
6
CONTINUOUS
10
153.9071999999999889
20
-90.2857139999999987
11
153.9548189999999863
21
-90.1428569999999922
0
LINE
8
LORANGE
6
CONTINUOUS
10
153.9548189999999863
20
-90.1428569999999922
11
153.9548189999999863
21
-90.0476189999999974
0
LINE
8
LORANGE
6
CONTINUOUS
10
153.9548189999999863
20
-90.0476189999999974
11
153.9071999999999889
21
-89.904761999999991
0
LINE
8
LORANGE
6
CONTINUOUS
10
153.9071999999999889
20
-89.904761999999991
11
153.8119609999999966
21
-89.8095239999999961
0
LINE
8
LORANGE
6
CONTINUOUS
10
153.8119609999999966
20
-89.8095239999999961
11
153.7167230000000018
21
-89.7619049999999987
0
LINE
8
LORANGE
6
CONTINUOUS
10
153.7167230000000018
20
-89.7619049999999987
11
153.5262469999999837
21
-89.7142860000000013
0
LINE
8
LORANGE
6
CONTINUOUS
10
153.5262469999999837
20
-89.7142860000000013
11
153.3833899999999915
21
-89.7142860000000013
0
LINE
8
LORANGE
6
CONTINUOUS
10
153.3833899999999915
20
-89.7142860000000013
11
153.1929140000000018
21
-89.7619049999999987
0
LINE
8
LORANGE
6
CONTINUOUS
10
153.1929140000000018
20
-89.7619049999999987
11
153.097676000000007
21
-89.8095239999999961
0
LINE
8
LORANGE
6
CONTINUOUS
10
153.097676000000007
20
-89.8095239999999961
11
153.0024379999999837
21
-89.904761999999991
0
LINE
8
LORANGE
6
CONTINUOUS
10
153.0024379999999837
20
-89.904761999999991
11
152.9548189999999863
21
-90.0476189999999974
0
LINE
8
LORANGE
6
CONTINUOUS
10
152.9548189999999863
20
-90.0476189999999974
11
152.9548189999999863
21
-90.1428569999999922
0
LINE
8
LORANGE
6
CONTINUOUS
10
152.9548189999999863
20
-90.1428569999999922
11
153.0024379999999837
21
-90.2857139999999987
0
LINE
8
LORANGE
6
CONTINUOUS
10
153.0024379999999837
20
-90.2857139999999987
11
153.0500569999999811
21
-90.3333329999999961
0
LINE
8
LORANGE
6
CONTINUOUS
10
153.3833899999999915
20
-90.904761999999991
11
153.335770999999994
21
-90.8095239999999961
0
LINE
8
LORANGE
6
CONTINUOUS
10
153.335770999999994
20
-90.8095239999999961
11
153.2881519999999966
21
-90.7619049999999987
0
LINE
8
LORANGE
6
CONTINUOUS
10
153.2881519999999966
20
-90.7619049999999987
11
153.1929140000000018
21
-90.7142860000000013
0
LINE
8
LORANGE
6
CONTINUOUS
10
153.1929140000000018
20
-90.7142860000000013
11
153.1452950000000044
21
-90.7142860000000013
0
LINE
8
LORANGE
6
CONTINUOUS
10
153.1452950000000044
20
-90.7142860000000013
11
153.0500569999999811
21
-90.7619049999999987
0
LINE
8
LORANGE
6
CONTINUOUS
10
153.0500569999999811
20
-90.7619049999999987
11
153.0024379999999837
21
-90.8095239999999961
0
LINE
8
LORANGE
6
CONTINUOUS
10
153.0024379999999837
20
-90.8095239999999961
11
152.9548189999999863
21
-90.904761999999991
0
LINE
8
LORANGE
6
CONTINUOUS
10
152.9548189999999863
20
-90.904761999999991
11
152.9548189999999863
21
-91.0952379999999948
0
LINE
8
LORANGE
6
CONTINUOUS
10
152.9548189999999863
20
-91.0952379999999948
11
153.0024379999999837
21
-91.1904759999999897
0
LINE
8
LORANGE
6
CONTINUOUS
10
153.0024379999999837
20
-91.1904759999999897
11
153.0500569999999811
21
-91.2380950000000013
0
LINE
8
LORANGE
6
CONTINUOUS
10
153.0500569999999811
20
-91.2380950000000013
11
153.1452950000000044
21
-91.2857139999999987
0
LINE
8
LORANGE
6
CONTINUOUS
10
153.1452950000000044
20
-91.2857139999999987
11
153.1929140000000018
21
-91.2857139999999987
0
LINE
8
LORANGE
6
CONTINUOUS
10
153.1929140000000018
20
-91.2857139999999987
11
153.2881519999999966
21
-91.2380950000000013
0
LINE
8
LORANGE
6
CONTINUOUS
10
153.2881519999999966
20
-91.2380950000000013
11
153.335770999999994
21
-91.1904759999999897
0
LINE
8
LORANGE
6
CONTINUOUS
10
153.335770999999994
20
-91.1904759999999897
11
153.3833899999999915
21
-91.0952379999999948
0
LINE
8
LORANGE
6
CONTINUOUS
10
153.3833899999999915
20
-91.0952379999999948
11
153.3833899999999915
21
-90.904761999999991
0
LINE
8
LORANGE
6
CONTINUOUS
10
153.3833899999999915
20
-90.904761999999991
11
153.4310089999999889
21
-90.8095239999999961
0
LINE
8
LORANGE
6
CONTINUOUS
10
153.4310089999999889
20
-90.8095239999999961
11
153.4786279999999863
21
-90.7619049999999987
0
LINE
8
LORANGE
6
CONTINUOUS
10
153.4786279999999863
20
-90.7619049999999987
11
153.5738659999999811
21
-90.7142860000000013
0
LINE
8
LORANGE
6
CONTINUOUS
10
153.5738659999999811
20
-90.7142860000000013
11
153.7643419999999992
21
-90.7142860000000013
0
LINE
8
LORANGE
6
CONTINUOUS
10
153.7643419999999992
20
-90.7142860000000013
11
153.859579999999994
21
-90.7619049999999987
0
LINE
8
LORANGE
6
CONTINUOUS
10
153.859579999999994
20
-90.7619049999999987
11
153.9071999999999889
21
-90.8095239999999961
0
LINE
8
LORANGE
6
CONTINUOUS
10
153.9071999999999889
20
-90.8095239999999961
11
153.9548189999999863
21
-90.904761999999991
0
LINE
8
LORANGE
6
CONTINUOUS
10
153.9548189999999863
20
-90.904761999999991
11
153.9548189999999863
21
-91.0952379999999948
0
LINE
8
LORANGE
6
CONTINUOUS
10
153.9548189999999863
20
-91.0952379999999948
11
153.9071999999999889
21
-91.1904759999999897
0
LINE
8
LORANGE
6
CONTINUOUS
10
153.9071999999999889
20
-91.1904759999999897
11
153.859579999999994
21
-91.2380950000000013
0
LINE
8
LORANGE
6
CONTINUOUS
10
153.859579999999994
20
-91.2380950000000013
11
153.7643419999999992
21
-91.2857139999999987
0
LINE
8
LORANGE
6
CONTINUOUS
10
153.7643419999999992
20
-91.2857139999999987
11
153.5738659999999811
21
-91.2857139999999987
0
LINE
8
LORANGE
6
CONTINUOUS
10
153.5738659999999811
20
-91.2857139999999987
11
153.4786279999999863
21
-91.2380950000000013
0
LINE
8
LORANGE
6
CONTINUOUS
10
153.4786279999999863
20
-91.2380950000000013
11
153.4310089999999889
21
-91.1904759999999897
0
LINE
8
LORANGE
6
CONTINUOUS
10
153.4310089999999889
20
-91.1904759999999897
11
153.3833899999999915
21
-91.0952379999999948
0
LINE
8
LORANGE
6
CONTINUOUS
10
213.1666659999999922
20
-85.7548189999999977
11
213.4999990000000025
21
-85.2786279999999977
0
LINE
8
LORANGE
6
CONTINUOUS
10
213.7380939999999896
20
-85.7548189999999977
11
213.7380939999999896
21
-84.7548189999999977
0
LINE
8
LORANGE
6
CONTINUOUS
10
213.7380939999999896
20
-84.7548189999999977
11
213.3571419999999819
21
-84.7548189999999977
0
LINE
8
LORANGE
6
CONTINUOUS
10
213.3571419999999819
20
-84.7548189999999977
11
213.261903999999987
21
-84.8024379999999951
0
LINE
8
LORANGE
6
CONTINUOUS
10
213.261903999999987
20
-84.8024379999999951
11
213.2142849999999896
21
-84.8500569999999925
0
LINE
8
LORANGE
6
CONTINUOUS
10
213.2142849999999896
20
-84.8500569999999925
11
213.1666659999999922
21
-84.9452950000000016
0
LINE
8
LORANGE
6
CONTINUOUS
10
213.1666659999999922
20
-84.9452950000000016
11
213.1666659999999922
21
-85.0881519999999938
0
LINE
8
LORANGE
6
CONTINUOUS
10
213.1666659999999922
20
-85.0881519999999938
11
213.2142849999999896
21
-85.1833900000000028
0
LINE
8
LORANGE
6
CONTINUOUS
10
213.2142849999999896
20
-85.1833900000000028
11
213.261903999999987
21
-85.2310090000000002
0
LINE
8
LORANGE
6
CONTINUOUS
10
213.261903999999987
20
-85.2310090000000002
11
213.3571419999999819
21
-85.2786279999999977
0
LINE
8
LORANGE
6
CONTINUOUS
10
213.3571419999999819
20
-85.2786279999999977
11
213.7380939999999896
21
-85.2786279999999977
0
LINE
8
LORANGE
6
CONTINUOUS
10
212.785712999999987
20
-84.8500569999999925
11
212.7380939999999896
21
-84.8024379999999951
0
LINE
8
LORANGE
6
CONTINUOUS
10
212.7380939999999896
20
-84.8024379999999951
11
212.6428559999999948
21
-84.7548189999999977
0
LINE
8
LORANGE
6
CONTINUOUS
10
212.6428559999999948
20
-84.7548189999999977
11
212.4047609999999793
21
-84.7548189999999977
0
LINE
8
LORANGE
6
CONTINUOUS
10
212.4047609999999793
20
-84.7548189999999977
11
212.3095229999999844
21
-84.8024379999999951
0
LINE
8
LORANGE
6
CONTINUOUS
10
212.3095229999999844
20
-84.8024379999999951
11
212.261903999999987
21
-84.8500569999999925
0
LINE
8
LORANGE
6
CONTINUOUS
10
212.261903999999987
20
-84.8500569999999925
11
212.2142849999999896
21
-84.9452950000000016
0
LINE
8
LORANGE
6
CONTINUOUS
10
212.2142849999999896
20
-84.9452950000000016
11
212.2142849999999896
21
-85.0405329999999964
0
LINE
8
LORANGE
6
CONTINUOUS
10
212.2142849999999896
20
-85.0405329999999964
11
212.261903999999987
21
-85.1833900000000028
0
LINE
8
LORANGE
6
CONTINUOUS
10
212.261903999999987
20
-85.1833900000000028
11
212.8333319999999844
21
-85.7548189999999977
0
LINE
8
LORANGE
6
CONTINUOUS
10
212.8333319999999844
20
-85.7548189999999977
11
212.2142849999999896
21
-85.7548189999999977
0
LINE
8
LORANGE
6
CONTINUOUS
10
163.2048189999999863
20
-89.3571419999999961
11
162.7286279999999863
21
-89.023809
0
LINE
8
LORANGE
6
CONTINUOUS
10
163.2048189999999863
20
-88.7857139999999987
11
162.2048189999999863
21
-88.7857139999999987
0
LINE
8
LORANGE
6
CONTINUOUS
10
162.2048189999999863
20
-88.7857139999999987
11
162.2048189999999863
21
-89.1666659999999922
0
LINE
8
LORANGE
6
CONTINUOUS
10
162.2048189999999863
20
-89.1666659999999922
11
162.2524379999999837
21
-89.2619040000000012
0
LINE
8
LORANGE
6
CONTINUOUS
10
162.2524379999999837
20
-89.2619040000000012
11
162.3000569999999811
21
-89.3095229999999987
0
LINE
8
LORANGE
6
CONTINUOUS
10
162.3000569999999811
20
-89.3095229999999987
11
162.3952950000000044
21
-89.3571419999999961
0
LINE
8
LORANGE
6
CONTINUOUS
10
162.3952950000000044
20
-89.3571419999999961
11
162.5381519999999966
21
-89.3571419999999961
0
LINE
8
LORANGE
6
CONTINUOUS
10
162.5381519999999966
20
-89.3571419999999961
11
162.6333899999999915
21
-89.3095229999999987
0
LINE
8
LORANGE
6
CONTINUOUS
10
162.6333899999999915
20
-89.3095229999999987
11
162.6810089999999889
21
-89.2619040000000012
0
LINE
8
LORANGE
6
CONTINUOUS
10
162.6810089999999889
20
-89.2619040000000012
11
162.7286279999999863
21
-89.1666659999999922
0
LINE
8
LORANGE
6
CONTINUOUS
10
162.7286279999999863
20
-89.1666659999999922
11
162.7286279999999863
21
-88.7857139999999987
0
LINE
8
LORANGE
6
CONTINUOUS
10
162.2048189999999863
20
-89.6904759999999897
11
162.2048189999999863
21
-90.3095229999999987
0
LINE
8
LORANGE
6
CONTINUOUS
10
162.2048189999999863
20
-90.3095229999999987
11
162.585770999999994
21
-89.9761900000000026
0
LINE
8
LORANGE
6
CONTINUOUS
10
162.585770999999994
20
-89.9761900000000026
11
162.585770999999994
21
-90.1190469999999948
0
LINE
8
LORANGE
6
CONTINUOUS
10
162.585770999999994
20
-90.1190469999999948
11
162.6333899999999915
21
-90.2142849999999896
0
LINE
8
LORANGE
6
CONTINUOUS
10
162.6333899999999915
20
-90.2142849999999896
11
162.6810089999999889
21
-90.2619040000000012
0
LINE
8
LORANGE
6
CONTINUOUS
10
162.6810089999999889
20
-90.2619040000000012
11
162.7762469999999837
21
-90.3095229999999987
0
LINE
8
LORANGE
6
CONTINUOUS
10
162.7762469999999837
20
-90.3095229999999987
11
163.0143419999999992
21
-90.3095229999999987
0
LINE
8
LORANGE
6
CONTINUOUS
10
163.0143419999999992
20
-90.3095229999999987
11
163.109579999999994
21
-90.2619040000000012
0
LINE
8
LORANGE
6
CONTINUOUS
10
163.109579999999994
20
-90.2619040000000012
11
163.1571999999999889
21
-90.2142849999999896
0
LINE
8
LORANGE
6
CONTINUOUS
10
163.1571999999999889
20
-90.2142849999999896
11
163.2048189999999863
21
-90.1190469999999948
0
LINE
8
LORANGE
6
CONTINUOUS
10
163.2048189999999863
20
-90.1190469999999948
11
163.2048189999999863
21
-89.8333329999999961
0
LINE
8
LORANGE
6
CONTINUOUS
10
163.2048189999999863
20
-89.8333329999999961
11
163.1571999999999889
21
-89.7380950000000013
0
LINE
8
LORANGE
6
CONTINUOUS
10
163.1571999999999889
20
-89.7380950000000013
11
163.109579999999994
21
-89.6904759999999897
0
LINE
8
LORANGE
6
CONTINUOUS
10
162.6333899999999915
20
-90.8809519999999935
11
162.585770999999994
21
-90.7857139999999987
0
LINE
8
LORANGE
6
CONTINUOUS
10
162.585770999999994
20
-90.7857139999999987
11
162.5381519999999966
21
-90.7380950000000013
0
LINE
8
LORANGE
6
CONTINUOUS
10
162.5381519999999966
20
-90.7380950000000013
11
162.4429140000000018
21
-90.6904759999999897
0
LINE
8
LORANGE
6
CONTINUOUS
10
162.4429140000000018
20
-90.6904759999999897
11
162.3952950000000044
21
-90.6904759999999897
0
LINE
8
LORANGE
6
CONTINUOUS
10
162.3952950000000044
20
-90.6904759999999897
11
162.3000569999999811
21
-90.7380950000000013
0
LINE
8
LORANGE
6
CONTINUOUS
10
162.3000569999999811
20
-90.7380950000000013
11
162.2524379999999837
21
-90.7857139999999987
0
LINE
8
LORANGE
6
CONTINUOUS
10
162.2524379999999837
20
-90.7857139999999987
11
162.2048189999999863
21
-90.8809519999999935
0
LINE
8
LORANGE
6
CONTINUOUS
10
162.2048189999999863
20
-90.8809519999999935
11
162.2048189999999863
21
-91.0714279999999974
0
LINE
8
LORANGE
6
CONTINUOUS
10
162.2048189999999863
20
-91.0714279999999974
11
162.2524379999999837
21
-91.1666659999999922
0
LINE
8
LORANGE
6
CONTINUOUS
10
162.2524379999999837
20
-91.1666659999999922
11
162.3000569999999811
21
-91.2142849999999896
0
LINE
8
LORANGE
6
CONTINUOUS
10
162.3000569999999811
20
-91.2142849999999896
11
162.3952950000000044
21
-91.2619040000000012
0
LINE
8
LORANGE
6
CONTINUOUS
10
162.3952950000000044
20
-91.2619040000000012
11
162.4429140000000018
21
-91.2619040000000012
0
LINE
8
LORANGE
6
CONTINUOUS
10
162.4429140000000018
20
-91.2619040000000012
11
162.5381519999999966
21
-91.2142849999999896
0
LINE
8
LORANGE
6
CONTINUOUS
10
162.5381519999999966
20
-91.2142849999999896
11
162.585770999999994
21
-91.1666659999999922
0
LINE
8
LORANGE
6
CONTINUOUS
10
162.585770999999994
20
-91.1666659999999922
11
162.6333899999999915
21
-91.0714279999999974
0
LINE
8
LORANGE
6
CONTINUOUS
10
162.6333899999999915
20
-91.0714279999999974
11
162.6333899999999915
21
-90.8809519999999935
0
LINE
8
LORANGE
6
CONTINUOUS
10
162.6333899999999915
20
-90.8809519999999935
11
162.6810089999999889
21
-90.7857139999999987
0
LINE
8
LORANGE
6
CONTINUOUS
10
162.6810089999999889
20
-90.7857139999999987
11
162.7286279999999863
21
-90.7380950000000013
0
LINE
8
LORANGE
6
CONTINUOUS
10
162.7286279999999863
20
-90.7380950000000013
11
162.8238659999999811
21
-90.6904759999999897
0
LINE
8
LORANGE
6
CONTINUOUS
10
162.8238659999999811
20
-90.6904759999999897
11
163.0143419999999992
21
-90.6904759999999897
0
LINE
8
LORANGE
6
CONTINUOUS
10
163.0143419999999992
20
-90.6904759999999897
11
163.109579999999994
21
-90.7380950000000013
0
LINE
8
LORANGE
6
CONTINUOUS
10
163.109579999999994
20
-90.7380950000000013
11
163.1571999999999889
21
-90.7857139999999987
0
LINE
8
LORANGE
6
CONTINUOUS
10
163.1571999999999889
20
-90.7857139999999987
11
163.2048189999999863
21
-90.8809519999999935
0
LINE
8
LORANGE
6
CONTINUOUS
10
163.2048189999999863
20
-90.8809519999999935
11
163.2048189999999863
21
-91.0714279999999974
0
LINE
8
LORANGE
6
CONTINUOUS
10
163.2048189999999863
20
-91.0714279999999974
11
163.1571999999999889
21
-91.1666659999999922
0
LINE
8
LORANGE
6
CONTINUOUS
10
163.1571999999999889
20
-91.1666659999999922
11
163.109579999999994
21
-91.2142849999999896
0
LINE
8
LORANGE
6
CONTINUOUS
10
163.109579999999994
20
-91.2142849999999896
11
163.0143419999999992
21
-91.2619040000000012
0
LINE
8
LORANGE
6
CONTINUOUS
10
163.0143419999999992
20
-91.2619040000000012
11
162.8238659999999811
21
-91.2619040000000012
0
LINE
8
LORANGE
6
CONTINUOUS
10
162.8238659999999811
20
-91.2619040000000012
11
162.7286279999999863
21
-91.2142849999999896
0
LINE
8
LORANGE
6
CONTINUOUS
10
162.7286279999999863
20
-91.2142849999999896
11
162.6810089999999889
21
-91.1666659999999922
0
LINE
8
LORANGE
6
CONTINUOUS
10
162.6810089999999889
20
-91.1666659999999922
11
162.6333899999999915
21
-91.0714279999999974
0
LINE
8
LORANGE
6
CONTINUOUS
10
167.9548189999999863
20
-89.3571419999999961
11
167.4786279999999863
21
-89.023809
0
LINE
8
LORANGE
6
CONTINUOUS
10
167.9548189999999863
20
-88.7857139999999987
11
166.9548189999999863
21
-88.7857139999999987
0
LINE
8
LORANGE
6
CONTINUOUS
10
166.9548189999999863
20
-88.7857139999999987
11
166.9548189999999863
21
-89.1666659999999922
0
LINE
8
LORANGE
6
CONTINUOUS
10
166.9548189999999863
20
-89.1666659999999922
11
167.0024379999999837
21
-89.2619040000000012
0
LINE
8
LORANGE
6
CONTINUOUS
10
167.0024379999999837
20
-89.2619040000000012
11
167.0500569999999811
21
-89.3095229999999987
0
LINE
8
LORANGE
6
CONTINUOUS
10
167.0500569999999811
20
-89.3095229999999987
11
167.1452950000000044
21
-89.3571419999999961
0
LINE
8
LORANGE
6
CONTINUOUS
10
167.1452950000000044
20
-89.3571419999999961
11
167.2881519999999966
21
-89.3571419999999961
0
LINE
8
LORANGE
6
CONTINUOUS
10
167.2881519999999966
20
-89.3571419999999961
11
167.3833899999999915
21
-89.3095229999999987
0
LINE
8
LORANGE
6
CONTINUOUS
10
167.3833899999999915
20
-89.3095229999999987
11
167.4310089999999889
21
-89.2619040000000012
0
LINE
8
LORANGE
6
CONTINUOUS
10
167.4310089999999889
20
-89.2619040000000012
11
167.4786279999999863
21
-89.1666659999999922
0
LINE
8
LORANGE
6
CONTINUOUS
10
167.4786279999999863
20
-89.1666659999999922
11
167.4786279999999863
21
-88.7857139999999987
0
LINE
8
LORANGE
6
CONTINUOUS
10
166.9548189999999863
20
-89.6904759999999897
11
166.9548189999999863
21
-90.3095229999999987
0
LINE
8
LORANGE
6
CONTINUOUS
10
166.9548189999999863
20
-90.3095229999999987
11
167.335770999999994
21
-89.9761900000000026
0
LINE
8
LORANGE
6
CONTINUOUS
10
167.335770999999994
20
-89.9761900000000026
11
167.335770999999994
21
-90.1190469999999948
0
LINE
8
LORANGE
6
CONTINUOUS
10
167.335770999999994
20
-90.1190469999999948
11
167.3833899999999915
21
-90.2142849999999896
0
LINE
8
LORANGE
6
CONTINUOUS
10
167.3833899999999915
20
-90.2142849999999896
11
167.4310089999999889
21
-90.2619040000000012
0
LINE
8
LORANGE
6
CONTINUOUS
10
167.4310089999999889
20
-90.2619040000000012
11
167.5262469999999837
21
-90.3095229999999987
0
LINE
8
LORANGE
6
CONTINUOUS
10
167.5262469999999837
20
-90.3095229999999987
11
167.7643419999999992
21
-90.3095229999999987
0
LINE
8
LORANGE
6
CONTINUOUS
10
167.7643419999999992
20
-90.3095229999999987
11
167.859579999999994
21
-90.2619040000000012
0
LINE
8
LORANGE
6
CONTINUOUS
10
167.859579999999994
20
-90.2619040000000012
11
167.9071999999999889
21
-90.2142849999999896
0
LINE
8
LORANGE
6
CONTINUOUS
10
167.9071999999999889
20
-90.2142849999999896
11
167.9548189999999863
21
-90.1190469999999948
0
LINE
8
LORANGE
6
CONTINUOUS
10
167.9548189999999863
20
-90.1190469999999948
11
167.9548189999999863
21
-89.8333329999999961
0
LINE
8
LORANGE
6
CONTINUOUS
10
167.9548189999999863
20
-89.8333329999999961
11
167.9071999999999889
21
-89.7380950000000013
0
LINE
8
LORANGE
6
CONTINUOUS
10
167.9071999999999889
20
-89.7380950000000013
11
167.859579999999994
21
-89.6904759999999897
0
LINE
8
LORANGE
6
CONTINUOUS
10
167.9548189999999863
20
-90.7857139999999987
11
167.9548189999999863
21
-90.9761900000000026
0
LINE
8
LORANGE
6
CONTINUOUS
10
167.9548189999999863
20
-90.9761900000000026
11
167.9071999999999889
21
-91.0714279999999974
0
LINE
8
LORANGE
6
CONTINUOUS
10
167.9071999999999889
20
-91.0714279999999974
11
167.859579999999994
21
-91.1190469999999948
0
LINE
8
LORANGE
6
CONTINUOUS
10
167.859579999999994
20
-91.1190469999999948
11
167.7167230000000018
21
-91.2142849999999896
0
LINE
8
LORANGE
6
CONTINUOUS
10
167.7167230000000018
20
-91.2142849999999896
11
167.5262469999999837
21
-91.2619040000000012
0
LINE
8
LORANGE
6
CONTINUOUS
10
167.5262469999999837
20
-91.2619040000000012
11
167.1452950000000044
21
-91.2619040000000012
0
LINE
8
LORANGE
6
CONTINUOUS
10
167.1452950000000044
20
-91.2619040000000012
11
167.0500569999999811
21
-91.2142849999999896
0
LINE
8
LORANGE
6
CONTINUOUS
10
167.0500569999999811
20
-91.2142849999999896
11
167.0024379999999837
21
-91.1666659999999922
0
LINE
8
LORANGE
6
CONTINUOUS
10
167.0024379999999837
20
-91.1666659999999922
11
166.9548189999999863
21
-91.0714279999999974
0
LINE
8
LORANGE
6
CONTINUOUS
10
166.9548189999999863
20
-91.0714279999999974
11
166.9548189999999863
21
-90.8809519999999935
0
LINE
8
LORANGE
6
CONTINUOUS
10
166.9548189999999863
20
-90.8809519999999935
11
167.0024379999999837
21
-90.7857139999999987
0
LINE
8
LORANGE
6
CONTINUOUS
10
167.0024379999999837
20
-90.7857139999999987
11
167.0500569999999811
21
-90.7380950000000013
0
LINE
8
LORANGE
6
CONTINUOUS
10
167.0500569999999811
20
-90.7380950000000013
11
167.1452950000000044
21
-90.6904759999999897
0
LINE
8
LORANGE
6
CONTINUOUS
10
167.1452950000000044
20
-90.6904759999999897
11
167.3833899999999915
21
-90.6904759999999897
0
LINE
8
LORANGE
6
CONTINUOUS
10
167.3833899999999915
20
-90.6904759999999897
11
167.4786279999999863
21
-90.7380950000000013
0
LINE
8
LORANGE
6
CONTINUOUS
10
167.4786279999999863
20
-90.7380950000000013
11
167.5262469999999837
21
-90.7857139999999987
0
LINE
8
LORANGE
6
CONTINUOUS
10
167.5262469999999837
20
-90.7857139999999987
11
167.5738659999999811
21
-90.8809519999999935
0
LINE
8
LORANGE
6
CONTINUOUS
10
167.5738659999999811
20
-90.8809519999999935
11
167.5738659999999811
21
-91.0714279999999974
0
LINE
8
LORANGE
6
CONTINUOUS
10
167.5738659999999811
20
-91.0714279999999974
11
167.5262469999999837
21
-91.1666659999999922
0
LINE
8
LORANGE
6
CONTINUOUS
10
167.5262469999999837
20
-91.1666659999999922
11
167.4786279999999863
21
-91.2142849999999896
0
LINE
8
LORANGE
6
CONTINUOUS
10
167.4786279999999863
20
-91.2142849999999896
11
167.3833899999999915
21
-91.2619040000000012
0
LINE
8
LORANGE
6
CONTINUOUS
10
223.6666689999999846
20
-81.9548190000000005
11
224.000001999999995
21
-81.4786280000000005
0
LINE
8
LORANGE
6
CONTINUOUS
10
224.238096999999982
20
-81.9548190000000005
11
224.238096999999982
21
-80.9548190000000005
0
LINE
8
LORANGE
6
CONTINUOUS
10
224.238096999999982
20
-80.9548190000000005
11
223.8571450000000027
21
-80.9548190000000005
0
LINE
8
LORANGE
6
CONTINUOUS
10
223.8571450000000027
20
-80.9548190000000005
11
223.7619069999999795
21
-81.0024379999999979
0
LINE
8
LORANGE
6
CONTINUOUS
10
223.7619069999999795
20
-81.0024379999999979
11
223.714287999999982
21
-81.0500569999999954
0
LINE
8
LORANGE
6
CONTINUOUS
10
223.714287999999982
20
-81.0500569999999954
11
223.6666689999999846
21
-81.1452949999999902
0
LINE
8
LORANGE
6
CONTINUOUS
10
223.6666689999999846
20
-81.1452949999999902
11
223.6666689999999846
21
-81.2881519999999966
0
LINE
8
LORANGE
6
CONTINUOUS
10
223.6666689999999846
20
-81.2881519999999966
11
223.714287999999982
21
-81.3833899999999915
0
LINE
8
LORANGE
6
CONTINUOUS
10
223.714287999999982
20
-81.3833899999999915
11
223.7619069999999795
21
-81.4310090000000031
0
LINE
8
LORANGE
6
CONTINUOUS
10
223.7619069999999795
20
-81.4310090000000031
11
223.8571450000000027
21
-81.4786280000000005
0
LINE
8
LORANGE
6
CONTINUOUS
10
223.8571450000000027
20
-81.4786280000000005
11
224.238096999999982
21
-81.4786280000000005
0
LINE
8
LORANGE
6
CONTINUOUS
10
222.8095259999999769
20
-81.2881519999999966
11
222.8095259999999769
21
-81.9548190000000005
0
LINE
8
LORANGE
6
CONTINUOUS
10
223.0476209999999924
20
-80.9072000000000031
11
223.2857159999999794
21
-81.6214849999999927
0
LINE
8
LORANGE
6
CONTINUOUS
10
223.2857159999999794
20
-81.6214849999999927
11
222.6666689999999846
21
-81.6214849999999927
0
LINE
8
LORANGE
6
CONTINUOUS
10
215.7595799999999997
20
-91.2333330000000018
11
215.8071999999999946
21
-91.1857139999999902
0
LINE
8
LORANGE
6
CONTINUOUS
10
215.8071999999999946
20
-91.1857139999999902
11
215.854818999999992
21
-91.0428569999999979
0
LINE
8
LORANGE
6
CONTINUOUS
10
215.854818999999992
20
-91.0428569999999979
11
215.854818999999992
21
-90.9476189999999889
0
LINE
8
LORANGE
6
CONTINUOUS
10
215.854818999999992
20
-90.9476189999999889
11
215.8071999999999946
21
-90.8047619999999966
0
LINE
8
LORANGE
6
CONTINUOUS
10
215.8071999999999946
20
-90.8047619999999966
11
215.7119610000000023
21
-90.7095240000000018
0
LINE
8
LORANGE
6
CONTINUOUS
10
215.7119610000000023
20
-90.7095240000000018
11
215.616722999999979
21
-90.6619049999999902
0
LINE
8
LORANGE
6
CONTINUOUS
10
215.616722999999979
20
-90.6619049999999902
11
215.4262469999999894
21
-90.6142859999999928
0
LINE
8
LORANGE
6
CONTINUOUS
10
215.4262469999999894
20
-90.6142859999999928
11
215.2833899999999971
21
-90.6142859999999928
0
LINE
8
LORANGE
6
CONTINUOUS
10
215.2833899999999971
20
-90.6142859999999928
11
215.0929139999999791
21
-90.6619049999999902
0
LINE
8
LORANGE
6
CONTINUOUS
10
215.0929139999999791
20
-90.6619049999999902
11
214.9976759999999842
21
-90.7095240000000018
0
LINE
8
LORANGE
6
CONTINUOUS
10
214.9976759999999842
20
-90.7095240000000018
11
214.9024379999999894
21
-90.8047619999999966
0
LINE
8
LORANGE
6
CONTINUOUS
10
214.9024379999999894
20
-90.8047619999999966
11
214.854818999999992
21
-90.9476189999999889
0
LINE
8
LORANGE
6
CONTINUOUS
10
214.854818999999992
20
-90.9476189999999889
11
214.854818999999992
21
-91.0428569999999979
0
LINE
8
LORANGE
6
CONTINUOUS
10
214.854818999999992
20
-91.0428569999999979
11
214.9024379999999894
21
-91.1857139999999902
0
LINE
8
LORANGE
6
CONTINUOUS
10
214.9024379999999894
20
-91.1857139999999902
11
214.9500569999999868
21
-91.2333330000000018
0
LINE
8
LORANGE
6
CONTINUOUS
10
214.854818999999992
20
-91.5666669999999954
11
214.854818999999992
21
-92.1857139999999902
0
LINE
8
LORANGE
6
CONTINUOUS
10
214.854818999999992
20
-92.1857139999999902
11
215.2357709999999997
21
-91.8523809999999941
0
LINE
8
LORANGE
6
CONTINUOUS
10
215.2357709999999997
20
-91.8523809999999941
11
215.2357709999999997
21
-91.9952380000000005
0
LINE
8
LORANGE
6
CONTINUOUS
10
215.2357709999999997
20
-91.9952380000000005
11
215.2833899999999971
21
-92.0904759999999953
0
LINE
8
LORANGE
6
CONTINUOUS
10
215.2833899999999971
20
-92.0904759999999953
11
215.3310089999999946
21
-92.1380949999999928
0
LINE
8
LORANGE
6
CONTINUOUS
10
215.3310089999999946
20
-92.1380949999999928
11
215.4262469999999894
21
-92.1857139999999902
0
LINE
8
LORANGE
6
CONTINUOUS
10
215.4262469999999894
20
-92.1857139999999902
11
215.6643419999999765
21
-92.1857139999999902
0
LINE
8
LORANGE
6
CONTINUOUS
10
215.6643419999999765
20
-92.1857139999999902
11
215.7595799999999997
21
-92.1380949999999928
0
LINE
8
LORANGE
6
CONTINUOUS
10
215.7595799999999997
20
-92.1380949999999928
11
215.8071999999999946
21
-92.0904759999999953
0
LINE
8
LORANGE
6
CONTINUOUS
10
215.8071999999999946
20
-92.0904759999999953
11
215.854818999999992
21
-91.9952380000000005
0
LINE
8
LORANGE
6
CONTINUOUS
10
215.854818999999992
20
-91.9952380000000005
11
215.854818999999992
21
-91.7095240000000018
0
LINE
8
LORANGE
6
CONTINUOUS
10
215.854818999999992
20
-91.7095240000000018
11
215.8071999999999946
21
-91.6142859999999928
0
LINE
8
LORANGE
6
CONTINUOUS
10
215.8071999999999946
20
-91.6142859999999928
11
215.7595799999999997
21
-91.5666669999999954
0
LINE
8
LORANGE
6
CONTINUOUS
10
215.7595799999999997
20
-83.0833329999999961
11
215.8071999999999946
21
-83.0357139999999987
0
LINE
8
LORANGE
6
CONTINUOUS
10
215.8071999999999946
20
-83.0357139999999987
11
215.854818999999992
21
-82.8928569999999922
0
LINE
8
LORANGE
6
CONTINUOUS
10
215.854818999999992
20
-82.8928569999999922
11
215.854818999999992
21
-82.7976189999999974
0
LINE
8
LORANGE
6
CONTINUOUS
10
215.854818999999992
20
-82.7976189999999974
11
215.8071999999999946
21
-82.654761999999991
0
LINE
8
LORANGE
6
CONTINUOUS
10
215.8071999999999946
20
-82.654761999999991
11
215.7119610000000023
21
-82.5595239999999961
0
LINE
8
LORANGE
6
CONTINUOUS
10
215.7119610000000023
20
-82.5595239999999961
11
215.616722999999979
21
-82.5119049999999987
0
LINE
8
LORANGE
6
CONTINUOUS
10
215.616722999999979
20
-82.5119049999999987
11
215.4262469999999894
21
-82.4642860000000013
0
LINE
8
LORANGE
6
CONTINUOUS
10
215.4262469999999894
20
-82.4642860000000013
11
215.2833899999999971
21
-82.4642860000000013
0
LINE
8
LORANGE
6
CONTINUOUS
10
215.2833899999999971
20
-82.4642860000000013
11
215.0929139999999791
21
-82.5119049999999987
0
LINE
8
LORANGE
6
CONTINUOUS
10
215.0929139999999791
20
-82.5119049999999987
11
214.9976759999999842
21
-82.5595239999999961
0
LINE
8
LORANGE
6
CONTINUOUS
10
214.9976759999999842
20
-82.5595239999999961
11
214.9024379999999894
21
-82.654761999999991
0
LINE
8
LORANGE
6
CONTINUOUS
10
214.9024379999999894
20
-82.654761999999991
11
214.854818999999992
21
-82.7976189999999974
0
LINE
8
LORANGE
6
CONTINUOUS
10
214.854818999999992
20
-82.7976189999999974
11
214.854818999999992
21
-82.8928569999999922
0
LINE
8
LORANGE
6
CONTINUOUS
10
214.854818999999992
20
-82.8928569999999922
11
214.9024379999999894
21
-83.0357139999999987
0
LINE
8
LORANGE
6
CONTINUOUS
10
214.9024379999999894
20
-83.0357139999999987
11
214.9500569999999868
21
-83.0833329999999961
0
LINE
8
LORANGE
6
CONTINUOUS
10
215.854818999999992
20
-84.0357139999999987
11
215.854818999999992
21
-83.4642860000000013
0
LINE
8
LORANGE
6
CONTINUOUS
10
215.854818999999992
20
-83.75
11
214.854818999999992
21
-83.75
0
LINE
8
LORANGE
6
CONTINUOUS
10
214.854818999999992
20
-83.75
11
214.9976759999999842
21
-83.654761999999991
0
LINE
8
LORANGE
6
CONTINUOUS
10
214.9976759999999842
20
-83.654761999999991
11
215.0929139999999791
21
-83.5595239999999961
0
LINE
8
LORANGE
6
CONTINUOUS
10
215.0929139999999791
20
-83.5595239999999961
11
215.1405329999999765
21
-83.4642860000000013
0
LINE
8
LORANGE
6
CONTINUOUS
10
191.4166659999999922
20
-118.6795800000000014
11
191.4642849999999896
21
-118.7271999999999963
0
LINE
8
LORANGE
6
CONTINUOUS
10
191.4642849999999896
20
-118.7271999999999963
11
191.6071419999999819
21
-118.7748189999999937
0
LINE
8
LORANGE
6
CONTINUOUS
10
191.6071419999999819
20
-118.7748189999999937
11
191.7023800000000051
21
-118.7748189999999937
0
LINE
8
LORANGE
6
CONTINUOUS
10
191.7023800000000051
20
-118.7748189999999937
11
191.8452369999999974
21
-118.7271999999999963
0
LINE
8
LORANGE
6
CONTINUOUS
10
191.8452369999999974
20
-118.7271999999999963
11
191.9404749999999922
21
-118.6319609999999898
0
LINE
8
LORANGE
6
CONTINUOUS
10
191.9404749999999922
20
-118.6319609999999898
11
191.9880939999999896
21
-118.536722999999995
0
LINE
8
LORANGE
6
CONTINUOUS
10
191.9880939999999896
20
-118.536722999999995
11
192.035712999999987
21
-118.3462469999999911
0
LINE
8
LORANGE
6
CONTINUOUS
10
192.035712999999987
20
-118.3462469999999911
11
192.035712999999987
21
-118.2033899999999988
0
LINE
8
LORANGE
6
CONTINUOUS
10
192.035712999999987
20
-118.2033899999999988
11
191.9880939999999896
21
-118.012913999999995
0
LINE
8
LORANGE
6
CONTINUOUS
10
191.9880939999999896
20
-118.012913999999995
11
191.9404749999999922
21
-117.9176760000000002
0
LINE
8
LORANGE
6
CONTINUOUS
10
191.9404749999999922
20
-117.9176760000000002
11
191.8452369999999974
21
-117.8224379999999911
0
LINE
8
LORANGE
6
CONTINUOUS
10
191.8452369999999974
20
-117.8224379999999911
11
191.7023800000000051
21
-117.7748189999999937
0
LINE
8
LORANGE
6
CONTINUOUS
10
191.7023800000000051
20
-117.7748189999999937
11
191.6071419999999819
21
-117.7748189999999937
0
LINE
8
LORANGE
6
CONTINUOUS
10
191.6071419999999819
20
-117.7748189999999937
11
191.4642849999999896
21
-117.8224379999999911
0
LINE
8
LORANGE
6
CONTINUOUS
10
191.4642849999999896
20
-117.8224379999999911
11
191.4166659999999922
21
-117.8700569999999885
0
LINE
8
LORANGE
6
CONTINUOUS
10
190.5595229999999844
20
-117.7748189999999937
11
190.7499990000000025
21
-117.7748189999999937
0
LINE
8
LORANGE
6
CONTINUOUS
10
190.7499990000000025
20
-117.7748189999999937
11
190.8452369999999974
21
-117.8224379999999911
0
LINE
8
LORANGE
6
CONTINUOUS
10
190.8452369999999974
20
-117.8224379999999911
11
190.8928559999999948
21
-117.8700569999999885
0
LINE
8
LORANGE
6
CONTINUOUS
10
190.8928559999999948
20
-117.8700569999999885
11
190.9880939999999896
21
-118.012913999999995
0
LINE
8
LORANGE
6
CONTINUOUS
10
190.9880939999999896
20
-118.012913999999995
11
191.035712999999987
21
-118.2033899999999988
0
LINE
8
LORANGE
6
CONTINUOUS
10
191.035712999999987
20
-118.2033899999999988
11
191.035712999999987
21
-118.5843419999999924
0
LINE
8
LORANGE
6
CONTINUOUS
10
191.035712999999987
20
-118.5843419999999924
11
190.9880939999999896
21
-118.6795800000000014
0
LINE
8
LORANGE
6
CONTINUOUS
10
190.9880939999999896
20
-118.6795800000000014
11
190.9404749999999922
21
-118.7271999999999963
0
LINE
8
LORANGE
6
CONTINUOUS
10
190.9404749999999922
20
-118.7271999999999963
11
190.8452369999999974
21
-118.7748189999999937
0
LINE
8
LORANGE
6
CONTINUOUS
10
190.8452369999999974
20
-118.7748189999999937
11
190.6547609999999793
21
-118.7748189999999937
0
LINE
8
LORANGE
6
CONTINUOUS
10
190.6547609999999793
20
-118.7748189999999937
11
190.5595229999999844
21
-118.7271999999999963
0
LINE
8
LORANGE
6
CONTINUOUS
10
190.5595229999999844
20
-118.7271999999999963
11
190.511903999999987
21
-118.6795800000000014
0
LINE
8
LORANGE
6
CONTINUOUS
10
190.511903999999987
20
-118.6795800000000014
11
190.4642849999999896
21
-118.5843419999999924
0
LINE
8
LORANGE
6
CONTINUOUS
10
190.4642849999999896
20
-118.5843419999999924
11
190.4642849999999896
21
-118.3462469999999911
0
LINE
8
LORANGE
6
CONTINUOUS
10
190.4642849999999896
20
-118.3462469999999911
11
190.511903999999987
21
-118.2510089999999963
0
LINE
8
LORANGE
6
CONTINUOUS
10
190.511903999999987
20
-118.2510089999999963
11
190.5595229999999844
21
-118.2033899999999988
0
LINE
8
LORANGE
6
CONTINUOUS
10
190.5595229999999844
20
-118.2033899999999988
11
190.6547609999999793
21
-118.1557710000000014
0
LINE
8
LORANGE
6
CONTINUOUS
10
190.6547609999999793
20
-118.1557710000000014
11
190.8452369999999974
21
-118.1557710000000014
0
LINE
8
LORANGE
6
CONTINUOUS
10
190.8452369999999974
20
-118.1557710000000014
11
190.9404749999999922
21
-118.2033899999999988
0
LINE
8
LORANGE
6
CONTINUOUS
10
190.9404749999999922
20
-118.2033899999999988
11
190.9880939999999896
21
-118.2510089999999963
0
LINE
8
LORANGE
6
CONTINUOUS
10
190.9880939999999896
20
-118.2510089999999963
11
191.035712999999987
21
-118.3462469999999911
0
LINE
8
LORANGE
6
CONTINUOUS
10
174.359579999999994
20
-90.0833329999999961
11
174.4071999999999889
21
-90.0357139999999987
0
LINE
8
LORANGE
6
CONTINUOUS
10
174.4071999999999889
20
-90.0357139999999987
11
174.4548189999999863
21
-89.8928569999999922
0
LINE
8
LORANGE
6
CONTINUOUS
10
174.4548189999999863
20
-89.8928569999999922
11
174.4548189999999863
21
-89.7976189999999974
0
LINE
8
LORANGE
6
CONTINUOUS
10
174.4548189999999863
20
-89.7976189999999974
11
174.4071999999999889
21
-89.654761999999991
0
LINE
8
LORANGE
6
CONTINUOUS
10
174.4071999999999889
20
-89.654761999999991
11
174.3119609999999966
21
-89.5595239999999961
0
LINE
8
LORANGE
6
CONTINUOUS
10
174.3119609999999966
20
-89.5595239999999961
11
174.2167230000000018
21
-89.5119049999999987
0
LINE
8
LORANGE
6
CONTINUOUS
10
174.2167230000000018
20
-89.5119049999999987
11
174.0262469999999837
21
-89.4642860000000013
0
LINE
8
LORANGE
6
CONTINUOUS
10
174.0262469999999837
20
-89.4642860000000013
11
173.8833899999999915
21
-89.4642860000000013
0
LINE
8
LORANGE
6
CONTINUOUS
10
173.8833899999999915
20
-89.4642860000000013
11
173.6929140000000018
21
-89.5119049999999987
0
LINE
8
LORANGE
6
CONTINUOUS
10
173.6929140000000018
20
-89.5119049999999987
11
173.5976759999999786
21
-89.5595239999999961
0
LINE
8
LORANGE
6
CONTINUOUS
10
173.5976759999999786
20
-89.5595239999999961
11
173.5024379999999837
21
-89.654761999999991
0
LINE
8
LORANGE
6
CONTINUOUS
10
173.5024379999999837
20
-89.654761999999991
11
173.4548189999999863
21
-89.7976189999999974
0
LINE
8
LORANGE
6
CONTINUOUS
10
173.4548189999999863
20
-89.7976189999999974
11
173.4548189999999863
21
-89.8928569999999922
0
LINE
8
LORANGE
6
CONTINUOUS
10
173.4548189999999863
20
-89.8928569999999922
11
173.5024379999999837
21
-90.0357139999999987
0
LINE
8
LORANGE
6
CONTINUOUS
10
173.5024379999999837
20
-90.0357139999999987
11
173.5500569999999811
21
-90.0833329999999961
0
LINE
8
LORANGE
6
CONTINUOUS
10
174.4548189999999863
20
-90.5595239999999961
11
174.4548189999999863
21
-90.75
0
LINE
8
LORANGE
6
CONTINUOUS
10
174.4548189999999863
20
-90.75
11
174.4071999999999889
21
-90.8452379999999948
0
LINE
8
LORANGE
6
CONTINUOUS
10
174.4071999999999889
20
-90.8452379999999948
11
174.359579999999994
21
-90.8928569999999922
0
LINE
8
LORANGE
6
CONTINUOUS
10
174.359579999999994
20
-90.8928569999999922
11
174.2167230000000018
21
-90.9880950000000013
0
LINE
8
LORANGE
6
CONTINUOUS
10
174.2167230000000018
20
-90.9880950000000013
11
174.0262469999999837
21
-91.0357139999999987
0
LINE
8
LORANGE
6
CONTINUOUS
10
174.0262469999999837
20
-91.0357139999999987
11
173.6452950000000044
21
-91.0357139999999987
0
LINE
8
LORANGE
6
CONTINUOUS
10
173.6452950000000044
20
-91.0357139999999987
11
173.5500569999999811
21
-90.9880950000000013
0
LINE
8
LORANGE
6
CONTINUOUS
10
173.5500569999999811
20
-90.9880950000000013
11
173.5024379999999837
21
-90.9404759999999897
0
LINE
8
LORANGE
6
CONTINUOUS
10
173.5024379999999837
20
-90.9404759999999897
11
173.4548189999999863
21
-90.8452379999999948
0
LINE
8
LORANGE
6
CONTINUOUS
10
173.4548189999999863
20
-90.8452379999999948
11
173.4548189999999863
21
-90.654761999999991
0
LINE
8
LORANGE
6
CONTINUOUS
10
173.4548189999999863
20
-90.654761999999991
11
173.5024379999999837
21
-90.5595239999999961
0
LINE
8
LORANGE
6
CONTINUOUS
10
173.5024379999999837
20
-90.5595239999999961
11
173.5500569999999811
21
-90.5119049999999987
0
LINE
8
LORANGE
6
CONTINUOUS
10
173.5500569999999811
20
-90.5119049999999987
11
173.6452950000000044
21
-90.4642860000000013
0
LINE
8
LORANGE
6
CONTINUOUS
10
173.6452950000000044
20
-90.4642860000000013
11
173.8833899999999915
21
-90.4642860000000013
0
LINE
8
LORANGE
6
CONTINUOUS
10
173.8833899999999915
20
-90.4642860000000013
11
173.9786279999999863
21
-90.5119049999999987
0
LINE
8
LORANGE
6
CONTINUOUS
10
173.9786279999999863
20
-90.5119049999999987
11
174.0262469999999837
21
-90.5595239999999961
0
LINE
8
LORANGE
6
CONTINUOUS
10
174.0262469999999837
20
-90.5595239999999961
11
174.0738659999999811
21
-90.654761999999991
0
LINE
8
LORANGE
6
CONTINUOUS
10
174.0738659999999811
20
-90.654761999999991
11
174.0738659999999811
21
-90.8452379999999948
0
LINE
8
LORANGE
6
CONTINUOUS
10
174.0738659999999811
20
-90.8452379999999948
11
174.0262469999999837
21
-90.9404759999999897
0
LINE
8
LORANGE
6
CONTINUOUS
10
174.0262469999999837
20
-90.9404759999999897
11
173.9786279999999863
21
-90.9880950000000013
0
LINE
8
LORANGE
6
CONTINUOUS
10
173.9786279999999863
20
-90.9880950000000013
11
173.8833899999999915
21
-91.0357139999999987
0
LINE
8
LORANGE
6
CONTINUOUS
10
223.6666659999999922
20
-84.9548190000000005
11
223.9999990000000025
21
-84.4786280000000005
0
LINE
8
LORANGE
6
CONTINUOUS
10
224.2380939999999896
20
-84.9548190000000005
11
224.2380939999999896
21
-83.9548190000000005
0
LINE
8
LORANGE
6
CONTINUOUS
10
224.2380939999999896
20
-83.9548190000000005
11
223.8571419999999819
21
-83.9548190000000005
0
LINE
8
LORANGE
6
CONTINUOUS
10
223.8571419999999819
20
-83.9548190000000005
11
223.761903999999987
21
-84.0024379999999979
0
LINE
8
LORANGE
6
CONTINUOUS
10
223.761903999999987
20
-84.0024379999999979
11
223.7142849999999896
21
-84.0500569999999954
0
LINE
8
LORANGE
6
CONTINUOUS
10
223.7142849999999896
20
-84.0500569999999954
11
223.6666659999999922
21
-84.1452949999999902
0
LINE
8
LORANGE
6
CONTINUOUS
10
223.6666659999999922
20
-84.1452949999999902
11
223.6666659999999922
21
-84.2881519999999966
0
LINE
8
LORANGE
6
CONTINUOUS
10
223.6666659999999922
20
-84.2881519999999966
11
223.7142849999999896
21
-84.3833899999999915
0
LINE
8
LORANGE
6
CONTINUOUS
10
223.7142849999999896
20
-84.3833899999999915
11
223.761903999999987
21
-84.4310090000000031
0
LINE
8
LORANGE
6
CONTINUOUS
10
223.761903999999987
20
-84.4310090000000031
11
223.8571419999999819
21
-84.4786280000000005
0
LINE
8
LORANGE
6
CONTINUOUS
10
223.8571419999999819
20
-84.4786280000000005
11
224.2380939999999896
21
-84.4786280000000005
0
LINE
8
LORANGE
6
CONTINUOUS
10
223.3333319999999844
20
-83.9548190000000005
11
222.7142849999999896
21
-83.9548190000000005
0
LINE
8
LORANGE
6
CONTINUOUS
10
222.7142849999999896
20
-83.9548190000000005
11
223.0476179999999999
21
-84.335770999999994
0
LINE
8
LORANGE
6
CONTINUOUS
10
223.0476179999999999
20
-84.335770999999994
11
222.9047609999999793
21
-84.335770999999994
0
LINE
8
LORANGE
6
CONTINUOUS
10
222.9047609999999793
20
-84.335770999999994
11
222.8095229999999844
21
-84.3833899999999915
0
LINE
8
LORANGE
6
CONTINUOUS
10
222.8095229999999844
20
-84.3833899999999915
11
222.761903999999987
21
-84.4310090000000031
0
LINE
8
LORANGE
6
CONTINUOUS
10
222.761903999999987
20
-84.4310090000000031
11
222.7142849999999896
21
-84.5262469999999979
0
LINE
8
LORANGE
6
CONTINUOUS
10
222.7142849999999896
20
-84.5262469999999979
11
222.7142849999999896
21
-84.7643419999999992
0
LINE
8
LORANGE
6
CONTINUOUS
10
222.7142849999999896
20
-84.7643419999999992
11
222.761903999999987
21
-84.859579999999994
0
LINE
8
LORANGE
6
CONTINUOUS
10
222.761903999999987
20
-84.859579999999994
11
222.8095229999999844
21
-84.9072000000000031
0
LINE
8
LORANGE
6
CONTINUOUS
10
222.8095229999999844
20
-84.9072000000000031
11
222.9047609999999793
21
-84.9548190000000005
0
LINE
8
LORANGE
6
CONTINUOUS
10
222.9047609999999793
20
-84.9548190000000005
11
223.1904749999999922
21
-84.9548190000000005
0
LINE
8
LORANGE
6
CONTINUOUS
10
223.1904749999999922
20
-84.9548190000000005
11
223.285712999999987
21
-84.9072000000000031
0
LINE
8
LORANGE
6
CONTINUOUS
10
223.285712999999987
20
-84.9072000000000031
11
223.3333319999999844
21
-84.859579999999994
0
LINE
8
LORANGE
6
CONTINUOUS
10
212.9166659999999922
20
-83.0548189999999948
11
213.2499990000000025
21
-82.5786279999999948
0
LINE
8
LORANGE
6
CONTINUOUS
10
213.4880939999999896
20
-83.0548189999999948
11
213.4880939999999896
21
-82.0548189999999948
0
LINE
8
LORANGE
6
CONTINUOUS
10
213.4880939999999896
20
-82.0548189999999948
11
213.1071419999999819
21
-82.0548189999999948
0
LINE
8
LORANGE
6
CONTINUOUS
10
213.1071419999999819
20
-82.0548189999999948
11
213.011903999999987
21
-82.1024379999999923
0
LINE
8
LORANGE
6
CONTINUOUS
10
213.011903999999987
20
-82.1024379999999923
11
212.9642849999999896
21
-82.1500569999999897
0
LINE
8
LORANGE
6
CONTINUOUS
10
212.9642849999999896
20
-82.1500569999999897
11
212.9166659999999922
21
-82.2452949999999987
0
LINE
8
LORANGE
6
CONTINUOUS
10
212.9166659999999922
20
-82.2452949999999987
11
212.9166659999999922
21
-82.3881519999999909
0
LINE
8
LORANGE
6
CONTINUOUS
10
212.9166659999999922
20
-82.3881519999999909
11
212.9642849999999896
21
-82.48339
0
LINE
8
LORANGE
6
CONTINUOUS
10
212.9642849999999896
20
-82.48339
11
213.011903999999987
21
-82.5310089999999974
0
LINE
8
LORANGE
6
CONTINUOUS
10
213.011903999999987
20
-82.5310089999999974
11
213.1071419999999819
21
-82.5786279999999948
0
LINE
8
LORANGE
6
CONTINUOUS
10
213.1071419999999819
20
-82.5786279999999948
11
213.4880939999999896
21
-82.5786279999999948
0
LINE
8
LORANGE
6
CONTINUOUS
10
211.9642849999999896
20
-83.0548189999999948
11
212.535712999999987
21
-83.0548189999999948
0
LINE
8
LORANGE
6
CONTINUOUS
10
212.2499990000000025
20
-83.0548189999999948
11
212.2499990000000025
21
-82.0548189999999948
0
LINE
8
LORANGE
6
CONTINUOUS
10
212.2499990000000025
20
-82.0548189999999948
11
212.3452369999999974
21
-82.1976760000000013
0
LINE
8
LORANGE
6
CONTINUOUS
10
212.3452369999999974
20
-82.1976760000000013
11
212.4404749999999922
21
-82.2929139999999961
0
LINE
8
LORANGE
6
CONTINUOUS
10
212.4404749999999922
20
-82.2929139999999961
11
212.535712999999987
21
-82.3405329999999935
0
LINE
8
LORANGE
6
CONTINUOUS
10
172.7380939999999896
20
-87.2548189999999977
11
172.7380939999999896
21
-86.2548189999999977
0
LINE
8
LORANGE
6
CONTINUOUS
10
172.7380939999999896
20
-86.2548189999999977
11
172.4999990000000025
21
-86.2548189999999977
0
LINE
8
LORANGE
6
CONTINUOUS
10
172.4999990000000025
20
-86.2548189999999977
11
172.3571419999999819
21
-86.3024379999999951
0
LINE
8
LORANGE
6
CONTINUOUS
10
172.3571419999999819
20
-86.3024379999999951
11
172.261903999999987
21
-86.3976759999999899
0
LINE
8
LORANGE
6
CONTINUOUS
10
172.261903999999987
20
-86.3976759999999899
11
172.2142849999999896
21
-86.492913999999999
0
LINE
8
LORANGE
6
CONTINUOUS
10
172.2142849999999896
20
-86.492913999999999
11
172.1666659999999922
21
-86.6833900000000028
0
LINE
8
LORANGE
6
CONTINUOUS
10
172.1666659999999922
20
-86.6833900000000028
11
172.1666659999999922
21
-86.8262469999999951
0
LINE
8
LORANGE
6
CONTINUOUS
10
172.1666659999999922
20
-86.8262469999999951
11
172.2142849999999896
21
-87.0167229999999989
0
LINE
8
LORANGE
6
CONTINUOUS
10
172.2142849999999896
20
-87.0167229999999989
11
172.261903999999987
21
-87.1119609999999938
0
LINE
8
LORANGE
6
CONTINUOUS
10
172.261903999999987
20
-87.1119609999999938
11
172.3571419999999819
21
-87.2072000000000003
0
LINE
8
LORANGE
6
CONTINUOUS
10
172.3571419999999819
20
-87.2072000000000003
11
172.4999990000000025
21
-87.2548189999999977
0
LINE
8
LORANGE
6
CONTINUOUS
10
172.4999990000000025
20
-87.2548189999999977
11
172.7380939999999896
21
-87.2548189999999977
0
LINE
8
LORANGE
6
CONTINUOUS
10
171.785712999999987
20
-86.3500569999999925
11
171.7380939999999896
21
-86.3024379999999951
0
LINE
8
LORANGE
6
CONTINUOUS
10
171.7380939999999896
20
-86.3024379999999951
11
171.6428559999999948
21
-86.2548189999999977
0
LINE
8
LORANGE
6
CONTINUOUS
10
171.6428559999999948
20
-86.2548189999999977
11
171.4047609999999793
21
-86.2548189999999977
0
LINE
8
LORANGE
6
CONTINUOUS
10
171.4047609999999793
20
-86.2548189999999977
11
171.3095229999999844
21
-86.3024379999999951
0
LINE
8
LORANGE
6
CONTINUOUS
10
171.3095229999999844
20
-86.3024379999999951
11
171.261903999999987
21
-86.3500569999999925
0
LINE
8
LORANGE
6
CONTINUOUS
10
171.261903999999987
20
-86.3500569999999925
11
171.2142849999999896
21
-86.4452950000000016
0
LINE
8
LORANGE
6
CONTINUOUS
10
171.2142849999999896
20
-86.4452950000000016
11
171.2142849999999896
21
-86.5405329999999964
0
LINE
8
LORANGE
6
CONTINUOUS
10
171.2142849999999896
20
-86.5405329999999964
11
171.261903999999987
21
-86.6833900000000028
0
LINE
8
LORANGE
6
CONTINUOUS
10
171.261903999999987
20
-86.6833900000000028
11
171.8333319999999844
21
-87.2548189999999977
0
LINE
8
LORANGE
6
CONTINUOUS
10
171.8333319999999844
20
-87.2548189999999977
11
171.2142849999999896
21
-87.2548189999999977
0
LINE
8
LORANGE
6
CONTINUOUS
10
200.7595799999999997
20
-91.2333330000000018
11
200.8071999999999946
21
-91.1857139999999902
0
LINE
8
LORANGE
6
CONTINUOUS
10
200.8071999999999946
20
-91.1857139999999902
11
200.854818999999992
21
-91.0428569999999979
0
LINE
8
LORANGE
6
CONTINUOUS
10
200.854818999999992
20
-91.0428569999999979
11
200.854818999999992
21
-90.9476189999999889
0
LINE
8
LORANGE
6
CONTINUOUS
10
200.854818999999992
20
-90.9476189999999889
11
200.8071999999999946
21
-90.8047619999999966
0
LINE
8
LORANGE
6
CONTINUOUS
10
200.8071999999999946
20
-90.8047619999999966
11
200.7119610000000023
21
-90.7095240000000018
0
LINE
8
LORANGE
6
CONTINUOUS
10
200.7119610000000023
20
-90.7095240000000018
11
200.616722999999979
21
-90.6619049999999902
0
LINE
8
LORANGE
6
CONTINUOUS
10
200.616722999999979
20
-90.6619049999999902
11
200.4262469999999894
21
-90.6142859999999928
0
LINE
8
LORANGE
6
CONTINUOUS
10
200.4262469999999894
20
-90.6142859999999928
11
200.2833899999999971
21
-90.6142859999999928
0
LINE
8
LORANGE
6
CONTINUOUS
10
200.2833899999999971
20
-90.6142859999999928
11
200.0929139999999791
21
-90.6619049999999902
0
LINE
8
LORANGE
6
CONTINUOUS
10
200.0929139999999791
20
-90.6619049999999902
11
199.9976759999999842
21
-90.7095240000000018
0
LINE
8
LORANGE
6
CONTINUOUS
10
199.9976759999999842
20
-90.7095240000000018
11
199.9024379999999894
21
-90.8047619999999966
0
LINE
8
LORANGE
6
CONTINUOUS
10
199.9024379999999894
20
-90.8047619999999966
11
199.854818999999992
21
-90.9476189999999889
0
LINE
8
LORANGE
6
CONTINUOUS
10
199.854818999999992
20
-90.9476189999999889
11
199.854818999999992
21
-91.0428569999999979
0
LINE
8
LORANGE
6
CONTINUOUS
10
199.854818999999992
20
-91.0428569999999979
11
199.9024379999999894
21
-91.1857139999999902
0
LINE
8
LORANGE
6
CONTINUOUS
10
199.9024379999999894
20
-91.1857139999999902
11
199.9500569999999868
21
-91.2333330000000018
0
LINE
8
LORANGE
6
CONTINUOUS
10
199.854818999999992
20
-92.1380949999999928
11
199.854818999999992
21
-91.6619049999999902
0
LINE
8
LORANGE
6
CONTINUOUS
10
199.854818999999992
20
-91.6619049999999902
11
200.3310089999999946
21
-91.6142859999999928
0
LINE
8
LORANGE
6
CONTINUOUS
10
200.3310089999999946
20
-91.6142859999999928
11
200.2833899999999971
21
-91.6619049999999902
0
LINE
8
LORANGE
6
CONTINUOUS
10
200.2833899999999971
20
-91.6619049999999902
11
200.2357709999999997
21
-91.7571429999999992
0
LINE
8
LORANGE
6
CONTINUOUS
10
200.2357709999999997
20
-91.7571429999999992
11
200.2357709999999997
21
-91.9952380000000005
0
LINE
8
LORANGE
6
CONTINUOUS
10
200.2357709999999997
20
-91.9952380000000005
11
200.2833899999999971
21
-92.0904759999999953
0
LINE
8
LORANGE
6
CONTINUOUS
10
200.2833899999999971
20
-92.0904759999999953
11
200.3310089999999946
21
-92.1380949999999928
0
LINE
8
LORANGE
6
CONTINUOUS
10
200.3310089999999946
20
-92.1380949999999928
11
200.4262469999999894
21
-92.1857139999999902
0
LINE
8
LORANGE
6
CONTINUOUS
10
200.4262469999999894
20
-92.1857139999999902
11
200.6643420000000049
21
-92.1857139999999902
0
LINE
8
LORANGE
6
CONTINUOUS
10
200.6643420000000049
20
-92.1857139999999902
11
200.7595799999999997
21
-92.1380949999999928
0
LINE
8
LORANGE
6
CONTINUOUS
10
200.7595799999999997
20
-92.1380949999999928
11
200.8071999999999946
21
-92.0904759999999953
0
LINE
8
LORANGE
6
CONTINUOUS
10
200.8071999999999946
20
-92.0904759999999953
11
200.854818999999992
21
-91.9952380000000005
0
LINE
8
LORANGE
6
CONTINUOUS
10
200.854818999999992
20
-91.9952380000000005
11
200.854818999999992
21
-91.7571429999999992
0
LINE
8
LORANGE
6
CONTINUOUS
10
200.854818999999992
20
-91.7571429999999992
11
200.8071999999999946
21
-91.6619049999999902
0
LINE
8
LORANGE
6
CONTINUOUS
10
200.8071999999999946
20
-91.6619049999999902
11
200.7595799999999997
21
-91.6142859999999928
0
LINE
8
LORANGE
6
CONTINUOUS
10
218.7399969999999882
20
-83.1037329999999912
11
218.7400009999999781
21
-83.3962659999999971
0
LINE
8
LORANGE
6
CONTINUOUS
10
219.7599989999999934
20
-83.1037340000000029
11
219.7600029999999833
21
-83.3962669999999946
0
LINE
8
LORANGE
6
CONTINUOUS
10
154.4899969999999882
20
-90.6462689999999895
11
154.4900010000000066
21
-90.3537359999999978
0
LINE
8
LORANGE
6
CONTINUOUS
10
155.5099989999999934
20
-90.6462640000000022
11
155.5100029999999833
21
-90.3537309999999962
0
LINE
8
LORANGE
6
CONTINUOUS
10
212.649312999999978
20
-85.8692439999999948
11
213.1034429999999986
21
-85.8692439999999948
0
LINE
8
LORANGE
6
CONTINUOUS
10
212.649312999999978
20
-87.3392419999999987
11
213.1034429999999986
21
-87.3392419999999987
0
LINE
8
LORANGE
6
CONTINUOUS
10
163.7649999999999864
20
-90.2270649999999961
11
163.7650009999999838
21
-89.7729360000000014
0
LINE
8
LORANGE
6
CONTINUOUS
10
165.2349989999999877
20
-90.2270639999999986
11
165.2349999999999852
21
-89.7729349999999897
0
LINE
8
LORANGE
6
CONTINUOUS
10
168.2649999999999864
20
-89.7729349999999897
11
168.2650009999999838
21
-90.2270639999999986
0
LINE
8
LORANGE
6
CONTINUOUS
10
169.7349989999999877
20
-89.7729360000000014
11
169.7349999999999852
21
-90.2270649999999961
0
LINE
8
LORANGE
6
CONTINUOUS
10
223.7270639999999844
20
-82.0649999999999977
11
223.2729359999999872
21
-82.0649999999999977
0
LINE
8
LORANGE
6
CONTINUOUS
10
223.7270639999999844
20
-83.5349999999999966
11
223.2729359999999872
21
-83.5349999999999966
0
LINE
8
LORANGE
6
CONTINUOUS
10
215.9899969999999882
20
-91.6462689999999895
11
215.9900009999999781
21
-91.3537359999999978
0
LINE
8
LORANGE
6
CONTINUOUS
10
217.0099989999999934
20
-91.6462640000000022
11
217.0100029999999833
21
-91.3537309999999962
0
LINE
8
LORANGE
6
CONTINUOUS
10
215.9900030000000015
20
-83.1037369999999953
11
215.9899959999999908
21
-83.3962659999999971
0
LINE
8
LORANGE
6
CONTINUOUS
10
217.0100039999999808
20
-83.1037340000000029
11
217.0099969999999985
21
-83.3962629999999905
0
LINE
8
LORANGE
6
CONTINUOUS
10
191.3962669999999946
20
-119.2399999999999949
11
191.1037330000000054
21
-119.2399999999999949
0
LINE
8
LORANGE
6
CONTINUOUS
10
191.3962669999999946
20
-120.2599999999999909
11
191.1037330000000054
21
-120.2599999999999909
0
LINE
8
LORANGE
6
CONTINUOUS
10
174.7399969999999882
20
-90.3962649999999996
11
174.740003999999999
21
-90.1037369999999953
0
LINE
8
LORANGE
6
CONTINUOUS
10
175.759996000000001
20
-90.3962629999999905
11
175.7600029999999833
21
-90.1037350000000004
0
LINE
8
LORANGE
6
CONTINUOUS
10
223.2729329999999948
20
-85.0150019999999955
11
223.7270629999999869
21
-85.0150019999999955
0
LINE
8
LORANGE
6
CONTINUOUS
10
223.2729329999999948
20
-86.4849999999999994
11
223.7270629999999869
21
-86.4849999999999994
0
LINE
8
LORANGE
6
CONTINUOUS
10
213.1034439999999961
20
-83.1692329999999913
11
212.6493159999999989
21
-83.1692329999999913
0
LINE
8
LORANGE
6
CONTINUOUS
10
213.1034439999999961
20
-84.6392329999999902
11
212.6493159999999989
21
-84.6392329999999902
0
LINE
8
LORANGE
6
CONTINUOUS
10
168.5900000000000034
20
-82.8900000000000006
11
174.3999989999999798
21
-82.890000999999998
0
LINE
8
LORANGE
6
CONTINUOUS
10
168.5900000000000034
20
-86.1099999999999994
11
168.5900000000000034
21
-82.8900000000000006
0
LINE
8
LORANGE
6
CONTINUOUS
10
174.3999989999999798
20
-86.1100009999999969
11
168.5900000000000034
21
-86.1099999999999994
0
LINE
8
LORANGE
6
CONTINUOUS
10
200.9899969999999882
20
-91.6462689999999895
11
200.9900009999999781
21
-91.3537359999999978
0
LINE
8
LORANGE
6
CONTINUOUS
10
202.0099989999999934
20
-91.6462640000000022
11
202.0100029999999833
21
-91.3537309999999962
0
CIRCLE
8
LORANGE
10
113.769999999999996
20
-123.25
40
0.5499999999999999
0
CIRCLE
8
LORANGE
10
116.3099999999999881
20
-123.25
40
0.5499999999999999
0
CIRCLE
8
LORANGE
10
233.5999989999999968
20
-100.2825039999999888
40
0.6
0
CIRCLE
8
LORANGE
10
231.0599989999999764
20
-100.2825039999999888
40
0.6
0
CIRCLE
8
LORANGE
10
228.5199999999999818
20
-100.2825089999999904
40
0.6
0
CIRCLE
8
LORANGE
10
225.9799989999999923
20
-100.2825039999999888
40
0.6
0
CIRCLE
8
LORANGE
10
223.4399990000000003
20
-100.2825029999999913
40
0.6
0
CIRCLE
8
LORANGE
10
220.8999979999999823
20
-100.2825089999999904
40
0.6
0
ARC
8
LORANGE
10
116.0999999999999943
20
-101.8999999999999915
40
0.75
50
-180.00000000
51
0.00000000
0
ARC
8
LORANGE
10
116.0999999999999943
20
-101.8999999999999915
40
0.75
50
0.00000000
51
180.00000000
0
ARC
8
LORANGE
10
119.1999999999999886
20
-101.8999999999999915
40
0.75
50
-180.00000000
51
0.00000000
0
ARC
8
LORANGE
10
119.1999999999999886
20
-101.8999999999999915
40
0.75
50
0.00000000
51
180.00000000
0
ARC
8
LORANGE
10
126.6999999999999886
20
-102.
40
0.75
50
-180.00000000
51
0.00000000
0
ARC
8
LORANGE
10
126.6999999999999886
20
-102.
40
0.75
50
0.00000000
51
180.00000000
0
ARC
8
LORANGE
10
129.7999999999999829
20
-101.8999999999999915
40
0.75
50
-180.00000000
51
0.00000000
0
ARC
8
LORANGE
10
129.7999999999999829
20
-101.8999999999999915
40
0.75
50
0.00000000
51
180.00000000
0
ARC
8
LORANGE
10
116.0999999999999943
20
-79.5999999999999943
40
0.75
50
-180.00000000
51
0.00000000
0
ARC
8
LORANGE
10
116.0999999999999943
20
-79.5999999999999943
40
0.75
50
0.00000000
51
180.00000000
0
ARC
8
LORANGE
10
119.1999999999999886
20
-79.5999999999999943
40
0.75
50
-180.00000000
51
0.00000000
0
ARC
8
LORANGE
10
119.1999999999999886
20
-79.5999999999999943
40
0.75
50
0.00000000
51
180.00000000
0
ARC
8
LORANGE
10
126.6999999999999886
20
-79.5999999999999943
40
0.75
50
-180.00000000
51
0.00000000
0
ARC
8
LORANGE
10
126.6999999999999886
20
-79.5999999999999943
40
0.75
50
0.00000000
51
180.00000000
0
ARC
8
LORANGE
10
129.6999999999999886
20
-79.5999999999999943
40
0.75
50
-180.00000000
51
0.00000000
0
ARC
8
LORANGE
10
129.6999999999999886
20
-79.5999999999999943
40
0.75
50
0.00000000
51
180.00000000
0
CIRCLE
8
LORANGE
10
207.3799999999999955
20
-108.8799999999999955
40
0.75
0
CIRCLE
8
LORANGE
10
123.2574999999999932
20
-108.2325000000000017
40
0.4
0
CIRCLE
8
LORANGE
10
120.7175000000000011
20
-108.2325000000000017
40
0.4
0
CIRCLE
8
LORANGE
10
120.7175000000000011
20
-115.852499999999992
40
0.4
0
CIRCLE
8
LORANGE
10
123.2574999999999932
20
-115.852499999999992
40
0.4
0
CIRCLE
8
LORANGE
10
207.5
20
-123.25
40
0.5499999999999999
0
CIRCLE
8
LORANGE
10
210.039999999999992
20
-123.25
40
0.5499999999999999
0
CIRCLE
8
LORANGE
10
212.5799999999999841
20
-123.25
40
0.5499999999999999
0
CIRCLE
8
LORANGE
10
191.2000019999999836
20
-94.8600009999999969
40
0.5
0
CIRCLE
8
LORANGE
10
193.740002000000004
20
-94.8600009999999969
40
0.5
0
CIRCLE
8
LORANGE
10
196.2800009999999986
20
-94.8599959999999953
40
0.5
0
CIRCLE
8
LORANGE
10
198.8200019999999881
20
-94.8600009999999969
40
0.5
0
CIRCLE
8
LORANGE
10
201.3600019999999802
20
-94.8600019999999944
40
0.5
0
CIRCLE
8
LORANGE
10
203.9000029999999981
20
-94.8599959999999953
40
0.5
0
CIRCLE
8
LORANGE
10
206.4400019999999927
20
-94.8600009999999969
40
0.5
0
CIRCLE
8
LORANGE
10
208.9800039999999797
20
-94.859999000000002
40
0.5
0
CIRCLE
8
LORANGE
10
211.5200069999999926
20
-94.8600019999999944
40
0.5
0
CIRCLE
8
LORANGE
10
214.0600019999999972
20
-94.860006999999996
40
0.5
0
CIRCLE
8
LORANGE
10
216.6000019999999893
20
-94.8600009999999969
40
0.5
0
CIRCLE
8
LORANGE
10
219.1400019999999813
20
-94.8600009999999969
40
0.5
0
CIRCLE
8
LORANGE
10
221.6800029999999992
20
-94.8600029999999919
40
0.5
0
CIRCLE
8
LORANGE
10
224.2200029999999913
20
-94.8600009999999969
40
0.5
0
CIRCLE
8
LORANGE
10
226.7600019999999859
20
-94.8600009999999969
40
0.5
0
CIRCLE
8
LORANGE
10
226.759996000000001
20
-79.620001000000002
40
0.5
0
CIRCLE
8
LORANGE
10
224.2199980000000039
20
-79.6199969999999979
40
0.5
0
CIRCLE
8
LORANGE
10
221.6800020000000018
20
-79.620001000000002
40
0.5
0
CIRCLE
8
LORANGE
10
219.1400050000000022
20
-79.6199989999999929
40
0.5
0
CIRCLE
8
LORANGE
10
216.6000019999999893
20
-79.620001000000002
40
0.5
0
CIRCLE
8
LORANGE
10
214.0600019999999972
20
-79.6199979999999954
40
0.5
0
CIRCLE
8
LORANGE
10
211.5200019999999768
20
-79.620001000000002
40
0.5
0
CIRCLE
8
LORANGE
10
208.9800009999999872
20
-79.6200019999999995
40
0.5
0
CIRCLE
8
LORANGE
10
206.4399990000000003
20
-79.620002999999997
40
0.5
0
CIRCLE
8
LORANGE
10
203.9000010000000032
20
-79.6199989999999929
40
0.5
0
CIRCLE
8
LORANGE
10
201.3600029999999776
20
-79.620001000000002
40
0.5
0
CIRCLE
8
LORANGE
10
198.8200019999999881
20
-79.620002999999997
40
0.5
0
CIRCLE
8
LORANGE
10
196.2800029999999936
20
-79.620002999999997
40
0.5
0
CIRCLE
8
LORANGE
10
193.740002000000004
20
-79.620001000000002
40
0.5
0
CIRCLE
8
LORANGE
10
191.2000019999999836
20
-79.620001000000002
40
0.5
0
CIRCLE
8
LORANGE
10
128.2699999999999818
20
-123.25
40
0.5499999999999999
0
CIRCLE
8
LORANGE
10
130.8100000000000023
20
-123.25
40
0.5499999999999999
0
CIRCLE
8
LORANGE
10
178.3499999999999943
20
-108.9499999999999886
40
0.75
0
CIRCLE
8
LORANGE
10
166.539999999999992
20
-123.2449999999999903
40
0.5499999999999999
0
CIRCLE
8
LORANGE
10
169.0799999999999841
20
-123.2449999999999903
40
0.5499999999999999
0
CIRCLE
8
LORANGE
10
171.6200000000000045
20
-123.2449999999999903
40
0.5499999999999999
0
CIRCLE
8
LORANGE
10
210.
20
-115.1999999999999886
40
0.75
0
CIRCLE
8
LORANGE
10
218.75
20
-76.4500000000000028
40
0.75
0
CIRCLE
8
LORANGE
10
176.75
20
-123.25
40
0.5499999999999999
0
CIRCLE
8
LORANGE
10
179.289999999999992
20
-123.25
40
0.5499999999999999
0
CIRCLE
8
LORANGE
10
181.8299999999999841
20
-123.25
40
0.5499999999999999
0
CIRCLE
8
LORANGE
10
171.1500000000000057
20
-114.3199999999999932
40
0.75
0
CIRCLE
8
LORANGE
10
206.25
20
-104.4499999999999886
40
0.75
0
CIRCLE
8
LORANGE
10
217.75
20
-123.25
40
0.5499999999999999
0
CIRCLE
8
LORANGE
10
220.289999999999992
20
-123.25
40
0.5499999999999999
0
CIRCLE
8
LORANGE
10
222.8299999999999841
20
-123.25
40
0.5499999999999999
0
CIRCLE
8
LORANGE
10
146.
20
-123.25
40
0.5499999999999999
0
CIRCLE
8
LORANGE
10
148.539999999999992
20
-123.25
40
0.5499999999999999
0
CIRCLE
8
LORANGE
10
151.0799999999999841
20
-123.25
40
0.5499999999999999
0
CIRCLE
8
LORANGE
10
121.019999999999996
20
-123.25
40
0.5499999999999999
0
CIRCLE
8
LORANGE
10
123.5599999999999881
20
-123.25
40
0.5499999999999999
0
CIRCLE
8
LORANGE
10
135.75
20
-123.25
40
0.5499999999999999
0
CIRCLE
8
LORANGE
10
138.289999999999992
20
-123.25
40
0.5499999999999999
0
CIRCLE
8
LORANGE
10
140.8299999999999841
20
-123.25
40
0.5499999999999999
0
CIRCLE
8
LORANGE
10
217.25
20
-102.6999999999999886
40
0.75
0
CIRCLE
8
LORANGE
10
179.5600000000000023
20
-103.2599999999999909
40
0.75
0
CIRCLE
8
LORANGE
10
152.4799999999999898
20
-94.3699999999999903
40
0.5
0
CIRCLE
8
LORANGE
10
155.0199999999999818
20
-94.3699999999999903
40
0.5
0
CIRCLE
8
LORANGE
10
157.5600000000000023
20
-94.3699999999999903
40
0.5
0
CIRCLE
8
LORANGE
10
160.0999999999999943
20
-94.3699999999999903
40
0.5
0
CIRCLE
8
LORANGE
10
162.6399999999999864
20
-94.3699999999999903
40
0.5
0
CIRCLE
8
LORANGE
10
165.1799999999999784
20
-94.3699999999999903
40
0.5
0
CIRCLE
8
LORANGE
10
167.7199999999999989
20
-94.3699999999999903
40
0.5
0
CIRCLE
8
LORANGE
10
170.2599999999999909
20
-94.3699999999999903
40
0.5
0
CIRCLE
8
LORANGE
10
172.7999999999999829
20
-94.3699999999999903
40
0.5
0
CIRCLE
8
LORANGE
10
175.3400000000000034
20
-94.3699999999999903
40
0.5
0
CIRCLE
8
LORANGE
10
156.25
20
-123.25
40
0.5499999999999999
0
CIRCLE
8
LORANGE
10
158.789999999999992
20
-123.25
40
0.5499999999999999
0
CIRCLE
8
LORANGE
10
161.3299999999999841
20
-123.25
40
0.5499999999999999
0
CIRCLE
8
LORANGE
10
143.7174969999999803
20
-112.0999989999999968
40
0.6
0
CIRCLE
8
LORANGE
10
143.7174969999999803
20
-109.5599989999999906
40
0.6
0
CIRCLE
8
LORANGE
10
143.7174919999999929
20
-107.019999999999996
40
0.6
0
CIRCLE
8
LORANGE
10
143.7174969999999803
20
-104.4799989999999923
40
0.6
0
CIRCLE
8
LORANGE
10
143.7174980000000062
20
-101.9399990000000003
40
0.6
0
CIRCLE
8
LORANGE
10
143.7174919999999929
20
-99.3999979999999965
40
0.6
0
CIRCLE
8
LORANGE
10
220.7324999999999875
20
-108.7424999999999926
40
0.4
0
CIRCLE
8
LORANGE
10
220.7324999999999875
20
-111.2824999999999989
40
0.4
0
CIRCLE
8
LORANGE
10
228.352499999999992
20
-111.2824999999999989
40
0.4
0
CIRCLE
8
LORANGE
10
228.352499999999992
20
-108.7424999999999926
40
0.4
0
ARC
8
LORANGE
10
145.1000019999999893
20
-80.0499980000000022
40
0.75
50
0.00000000
51
180.00000000
0
ARC
8
LORANGE
10
145.1000019999999893
20
-80.0499980000000022
40
0.75
50
180.00000000
51
360.00000000
0
ARC
8
LORANGE
10
136.5999999999999943
20
-80.0499999999999972
40
0.75
50
0.00000000
51
180.00000000
0
ARC
8
LORANGE
10
136.5999999999999943
20
-80.0499999999999972
40
0.75
50
180.00000000
51
360.00000000
0
ARC
8
LORANGE
10
145.1000009999999918
20
-94.4499979999999937
40
0.75
50
0.00000000
51
180.00000000
0
ARC
8
LORANGE
10
145.1000009999999918
20
-94.4499979999999937
40
0.75
50
180.00000000
51
360.00000000
0
ARC
8
LORANGE
10
136.6999999999999886
20
-94.4499999999999886
40
0.75
50
0.00000000
51
180.00000000
0
ARC
8
LORANGE
10
136.6999999999999886
20
-94.4499999999999886
40
0.75
50
180.00000000
51
360.00000000
0
CIRCLE
8
LORANGE
10
187.039999999999992
20
-123.2449999999999903
40
0.5499999999999999
0
CIRCLE
8
LORANGE
10
189.5799999999999841
20
-123.2449999999999903
40
0.5499999999999999
0
CIRCLE
8
LORANGE
10
192.1200000000000045
20
-123.2449999999999903
40
0.5499999999999999
0
CIRCLE
8
LORANGE
10
228.
20
-123.25
40
0.5499999999999999
0
CIRCLE
8
LORANGE
10
230.539999999999992
20
-123.25
40
0.5499999999999999
0
CIRCLE
8
LORANGE
10
233.0799999999999841
20
-123.25
40
0.5499999999999999
0
CIRCLE
8
LORANGE
10
197.25
20
-123.25
40
0.5499999999999999
0
CIRCLE
8
LORANGE
10
199.789999999999992
20
-123.25
40
0.5499999999999999
0
CIRCLE
8
LORANGE
10
202.3299999999999841
20
-123.25
40
0.5499999999999999
  0
ENDSEC
  0
EOF
