  0
SECTION
  2
HEADER
  9
$ANGBASE
  50
0.0
  9
$ANGDIR
  70
1
  9
$MEASUREMENT
  70
1
  0
ENDSEC
  0
SECTION
  2
TABLES
  0
TABLE
  2
LTYPE
  70
4
  0
LTYPE
  5
40F
  2
CONTINUOUS
  70
0
  3
Solid line
  72
65
  73
0
  40
0.0
  0
LTYPE
  5
410
  2
DASHDOT
 70
0
  3
Dash Dot ____ _ ____ _
 72
65
 73
4
 40
2.0
 49
1.25
 49
-0.25
 49
0.25
 49
-0.25
  0
LTYPE
  5
411
  2
DASHED
 70
0
  3
Dashed __ __ __ __ __
 72
65
 73
2
 40
0.75
 49
0.5
 49
-0.25
  0
LTYPE
  5
43B
  2
DOTTED
 70
0
  3
Dotted .  .  .  .
 72
65
 73
2
 40
0.2
 49
0.0
 49
-0.2
  0
ENDTAB
  0
TABLE
  2
STYLE
  70
4
  0
STYLE
  2
KICAD
  70
0
  40
0
  41
1
  42
1
  50
0
  71
0
  3
isocp.shx
  0
STYLE
  2
KICADB
  70
0
  40
0
  41
1
  42
1
  50
0
  71
0
  3
isocp.shx
  0
STYLE
  2
KICADI
  70
0
  40
0
  41
1
  42
1
  50
15
  71
0
  3
isocp.shx
  0
STYLE
  2
KICADBI
  70
0
  40
0
  41
1
  42
1
  50
15
  71
0
  3
isocp.shx
  0
ENDTAB
  0
TABLE
  2
LAYER
  70
35
  0
LAYER
  2
BLACK
  70
0
  62
7
  6
CONTINUOUS
  0
LAYER
  2
GRAY1
  70
0
  62
251
  6
CONTINUOUS
  0
LAYER
  2
GRAY2
  70
0
  62
8
  6
CONTINUOUS
  0
LAYER
  2
GRAY3
  70
0
  62
9
  6
CONTINUOUS
  0
LAYER
  2
WHITE
  70
0
  62
7
  6
CONTINUOUS
  0
LAYER
  2
LYELLOW
  70
0
  62
51
  6
CONTINUOUS
  0
LAYER
  2
LORANGE
  70
0
  62
41
  6
CONTINUOUS
  0
LAYER
  2
BLUE1
  70
0
  62
178
  6
CONTINUOUS
  0
LAYER
  2
GREEN1
  70
0
  62
98
  6
CONTINUOUS
  0
LAYER
  2
CYAN1
  70
0
  62
138
  6
CONTINUOUS
  0
LAYER
  2
RED1
  70
0
  62
18
  6
CONTINUOUS
  0
LAYER
  2
MAGENTA1
  70
0
  62
228
  6
CONTINUOUS
  0
LAYER
  2
BROWN1
  70
0
  62
58
  6
CONTINUOUS
  0
LAYER
  2
ORANGE1
  70
0
  62
34
  6
CONTINUOUS
  0
LAYER
  2
BLUE2
  70
0
  62
5
  6
CONTINUOUS
  0
LAYER
  2
GREEN2
  70
0
  62
3
  6
CONTINUOUS
  0
LAYER
  2
CYAN2
  70
0
  62
4
  6
CONTINUOUS
  0
LAYER
  2
RED2
  70
0
  62
1
  6
CONTINUOUS
  0
LAYER
  2
MAGENTA2
  70
0
  62
6
  6
CONTINUOUS
  0
LAYER
  2
BROWN2
  70
0
  62
54
  6
CONTINUOUS
  0
LAYER
  2
ORANGE2
  70
0
  62
42
  6
CONTINUOUS
  0
LAYER
  2
BLUE3
  70
0
  62
171
  6
CONTINUOUS
  0
LAYER
  2
GREEN3
  70
0
  62
91
  6
CONTINUOUS
  0
LAYER
  2
CYAN3
  70
0
  62
131
  6
CONTINUOUS
  0
LAYER
  2
RED3
  70
0
  62
11
  6
CONTINUOUS
  0
LAYER
  2
MAGENTA3
  70
0
  62
221
  6
CONTINUOUS
  0
LAYER
  2
YELLOW3
  70
0
  62
2
  6
CONTINUOUS
  0
LAYER
  2
ORANGE3
  70
0
  62
32
  6
CONTINUOUS
  0
LAYER
  2
BLUE4
  70
0
  62
5
  6
CONTINUOUS
  0
LAYER
  2
GREEN4
  70
0
  62
3
  6
CONTINUOUS
  0
LAYER
  2
CYAN4
  70
0
  62
4
  6
CONTINUOUS
  0
LAYER
  2
RED4
  70
0
  62
1
  6
CONTINUOUS
  0
LAYER
  2
MAGENTA4
  70
0
  62
6
  6
CONTINUOUS
  0
LAYER
  2
YELLOW4
  70
0
  62
2
  6
CONTINUOUS
  0
LAYER
  2
ORANGE4
  70
0
  62
40
  6
CONTINUOUS
  0
ENDTAB
  0
ENDSEC
  0
SECTION
  2
ENTITIES
0
LINE
8
BLACK
6
CONTINUOUS
10
190.7783869999999808
20
-119.2930789999999917
11
190.8554379999999924
21
-119.3445619999999963
0
LINE
8
BLACK
6
CONTINUOUS
10
190.8554379999999924
20
-119.3445619999999963
11
190.9069209999999828
21
-119.4216129999999936
0
LINE
8
BLACK
6
CONTINUOUS
10
190.9069209999999828
20
-119.4216129999999936
11
190.9249999999999829
21
-119.5124999999999886
0
LINE
8
BLACK
6
CONTINUOUS
10
190.9249999999999829
20
-119.5124999999999886
11
190.9249999999999829
21
-119.9874999999999972
0
LINE
8
BLACK
6
CONTINUOUS
10
190.9249999999999829
20
-119.9874999999999972
11
190.9069209999999828
21
-120.0783869999999922
0
LINE
8
BLACK
6
CONTINUOUS
10
190.9069209999999828
20
-120.0783869999999922
11
190.8554379999999924
21
-120.1554379999999895
0
LINE
8
BLACK
6
CONTINUOUS
10
190.8554379999999924
20
-120.1554379999999895
11
190.7783869999999808
21
-120.2069209999999941
0
LINE
8
BLACK
6
CONTINUOUS
10
190.7783869999999808
20
-120.2069209999999941
11
190.6875
21
-120.2249999999999943
0
LINE
8
BLACK
6
CONTINUOUS
10
190.6875
20
-120.2249999999999943
11
190.0874999999999773
21
-120.2249999999999943
0
LINE
8
BLACK
6
CONTINUOUS
10
190.0874999999999773
20
-120.2249999999999943
11
189.9966129999999964
21
-120.2069209999999941
0
LINE
8
BLACK
6
CONTINUOUS
10
189.9966129999999964
20
-120.2069209999999941
11
189.9195619999999849
21
-120.1554379999999895
0
LINE
8
BLACK
6
CONTINUOUS
10
189.9195619999999849
20
-120.1554379999999895
11
189.8680789999999945
21
-120.0783869999999922
0
LINE
8
BLACK
6
CONTINUOUS
10
189.8680789999999945
20
-120.0783869999999922
11
189.8499999999999943
21
-119.9874999999999972
0
LINE
8
BLACK
6
CONTINUOUS
10
189.8499999999999943
20
-119.9874999999999972
11
189.8499999999999943
21
-119.5124999999999886
0
LINE
8
BLACK
6
CONTINUOUS
10
189.8499999999999943
20
-119.5124999999999886
11
189.8680789999999945
21
-119.4216129999999936
0
LINE
8
BLACK
6
CONTINUOUS
10
189.8680789999999945
20
-119.4216129999999936
11
189.9195619999999849
21
-119.3445619999999963
0
LINE
8
BLACK
6
CONTINUOUS
10
189.9195619999999849
20
-119.3445619999999963
11
189.9966129999999964
21
-119.2930789999999917
0
LINE
8
BLACK
6
CONTINUOUS
10
189.9966129999999964
20
-119.2930789999999917
11
190.0874999999999773
21
-119.2749999999999915
0
LINE
8
BLACK
6
CONTINUOUS
10
190.0874999999999773
20
-119.2749999999999915
11
190.6875
21
-119.2749999999999915
0
LINE
8
BLACK
6
CONTINUOUS
10
190.6875
20
-119.2749999999999915
11
190.7783869999999808
21
-119.2930789999999917
0
LINE
8
BLACK
6
CONTINUOUS
10
192.5033870000000036
20
-119.2930789999999917
11
192.5804379999999867
21
-119.3445619999999963
0
LINE
8
BLACK
6
CONTINUOUS
10
192.5804379999999867
20
-119.3445619999999963
11
192.6319209999999771
21
-119.4216129999999936
0
LINE
8
BLACK
6
CONTINUOUS
10
192.6319209999999771
20
-119.4216129999999936
11
192.6499999999999773
21
-119.5124999999999886
0
LINE
8
BLACK
6
CONTINUOUS
10
192.6499999999999773
20
-119.5124999999999886
11
192.6499999999999773
21
-119.9874999999999972
0
LINE
8
BLACK
6
CONTINUOUS
10
192.6499999999999773
20
-119.9874999999999972
11
192.6319209999999771
21
-120.0783869999999922
0
LINE
8
BLACK
6
CONTINUOUS
10
192.6319209999999771
20
-120.0783869999999922
11
192.5804379999999867
21
-120.1554379999999895
0
LINE
8
BLACK
6
CONTINUOUS
10
192.5804379999999867
20
-120.1554379999999895
11
192.5033870000000036
21
-120.2069209999999941
0
LINE
8
BLACK
6
CONTINUOUS
10
192.5033870000000036
20
-120.2069209999999941
11
192.4124999999999943
21
-120.2249999999999943
0
LINE
8
BLACK
6
CONTINUOUS
10
192.4124999999999943
20
-120.2249999999999943
11
191.8125
21
-120.2249999999999943
0
LINE
8
BLACK
6
CONTINUOUS
10
191.8125
20
-120.2249999999999943
11
191.7216129999999907
21
-120.2069209999999941
0
LINE
8
BLACK
6
CONTINUOUS
10
191.7216129999999907
20
-120.2069209999999941
11
191.6445619999999792
21
-120.1554379999999895
0
LINE
8
BLACK
6
CONTINUOUS
10
191.6445619999999792
20
-120.1554379999999895
11
191.5930789999999888
21
-120.0783869999999922
0
LINE
8
BLACK
6
CONTINUOUS
10
191.5930789999999888
20
-120.0783869999999922
11
191.5749999999999886
21
-119.9874999999999972
0
LINE
8
BLACK
6
CONTINUOUS
10
191.5749999999999886
20
-119.9874999999999972
11
191.5749999999999886
21
-119.5124999999999886
0
LINE
8
BLACK
6
CONTINUOUS
10
191.5749999999999886
20
-119.5124999999999886
11
191.5930789999999888
21
-119.4216129999999936
0
LINE
8
BLACK
6
CONTINUOUS
10
191.5930789999999888
20
-119.4216129999999936
11
191.6445619999999792
21
-119.3445619999999963
0
LINE
8
BLACK
6
CONTINUOUS
10
191.6445619999999792
20
-119.3445619999999963
11
191.7216129999999907
21
-119.2930789999999917
0
LINE
8
BLACK
6
CONTINUOUS
10
191.7216129999999907
20
-119.2930789999999917
11
191.8125
21
-119.2749999999999915
0
LINE
8
BLACK
6
CONTINUOUS
10
191.8125
20
-119.2749999999999915
11
192.4124999999999943
21
-119.2749999999999915
0
LINE
8
BLACK
6
CONTINUOUS
10
192.4124999999999943
20
-119.2749999999999915
11
192.5033870000000036
21
-119.2930789999999917
0
LINE
8
BLACK
6
CONTINUOUS
10
201.8283889999999872
20
-91.843080999999998
11
201.9054399999999987
21
-91.8945640000000026
0
LINE
8
BLACK
6
CONTINUOUS
10
201.9054399999999987
20
-91.8945640000000026
11
201.9569229999999891
21
-91.9716149999999999
0
LINE
8
BLACK
6
CONTINUOUS
10
201.9569229999999891
20
-91.9716149999999999
11
201.9750019999999893
21
-92.062501999999995
0
LINE
8
BLACK
6
CONTINUOUS
10
201.9750019999999893
20
-92.062501999999995
11
201.9750019999999893
21
-92.6625019999999893
0
LINE
8
BLACK
6
CONTINUOUS
10
201.9750019999999893
20
-92.6625019999999893
11
201.9569229999999891
21
-92.7533889999999985
0
LINE
8
BLACK
6
CONTINUOUS
10
201.9569229999999891
20
-92.7533889999999985
11
201.9054399999999987
21
-92.8304399999999958
0
LINE
8
BLACK
6
CONTINUOUS
10
201.9054399999999987
20
-92.8304399999999958
11
201.8283889999999872
21
-92.8819230000000005
0
LINE
8
BLACK
6
CONTINUOUS
10
201.8283889999999872
20
-92.8819230000000005
11
201.7375019999999779
21
-92.9000020000000006
0
LINE
8
BLACK
6
CONTINUOUS
10
201.7375019999999779
20
-92.9000020000000006
11
201.2625019999999836
21
-92.9000020000000006
0
LINE
8
BLACK
6
CONTINUOUS
10
201.2625019999999836
20
-92.9000020000000006
11
201.1716150000000027
21
-92.8819230000000005
0
LINE
8
BLACK
6
CONTINUOUS
10
201.1716150000000027
20
-92.8819230000000005
11
201.0945639999999912
21
-92.8304399999999958
0
LINE
8
BLACK
6
CONTINUOUS
10
201.0945639999999912
20
-92.8304399999999958
11
201.0430810000000008
21
-92.7533889999999985
0
LINE
8
BLACK
6
CONTINUOUS
10
201.0430810000000008
20
-92.7533889999999985
11
201.0250020000000006
21
-92.6625019999999893
0
LINE
8
BLACK
6
CONTINUOUS
10
201.0250020000000006
20
-92.6625019999999893
11
201.0250020000000006
21
-92.062501999999995
0
LINE
8
BLACK
6
CONTINUOUS
10
201.0250020000000006
20
-92.062501999999995
11
201.0430810000000008
21
-91.9716149999999999
0
LINE
8
BLACK
6
CONTINUOUS
10
201.0430810000000008
20
-91.9716149999999999
11
201.0945639999999912
21
-91.8945640000000026
0
LINE
8
BLACK
6
CONTINUOUS
10
201.0945639999999912
20
-91.8945640000000026
11
201.1716150000000027
21
-91.843080999999998
0
LINE
8
BLACK
6
CONTINUOUS
10
201.1716150000000027
20
-91.843080999999998
11
201.2625019999999836
21
-91.8250019999999978
0
LINE
8
BLACK
6
CONTINUOUS
10
201.2625019999999836
20
-91.8250019999999978
11
201.7375019999999779
21
-91.8250019999999978
0
LINE
8
BLACK
6
CONTINUOUS
10
201.7375019999999779
20
-91.8250019999999978
11
201.8283889999999872
21
-91.843080999999998
0
LINE
8
BLACK
6
CONTINUOUS
10
216.8283889999999872
20
-91.843080999999998
11
216.9054399999999987
21
-91.8945640000000026
0
LINE
8
BLACK
6
CONTINUOUS
10
216.9054399999999987
20
-91.8945640000000026
11
216.9569229999999891
21
-91.9716149999999999
0
LINE
8
BLACK
6
CONTINUOUS
10
216.9569229999999891
20
-91.9716149999999999
11
216.9750019999999893
21
-92.062501999999995
0
LINE
8
BLACK
6
CONTINUOUS
10
216.9750019999999893
20
-92.062501999999995
11
216.9750019999999893
21
-92.6625019999999893
0
LINE
8
BLACK
6
CONTINUOUS
10
216.9750019999999893
20
-92.6625019999999893
11
216.9569229999999891
21
-92.7533889999999985
0
LINE
8
BLACK
6
CONTINUOUS
10
216.9569229999999891
20
-92.7533889999999985
11
216.9054399999999987
21
-92.8304399999999958
0
LINE
8
BLACK
6
CONTINUOUS
10
216.9054399999999987
20
-92.8304399999999958
11
216.8283889999999872
21
-92.8819230000000005
0
LINE
8
BLACK
6
CONTINUOUS
10
216.8283889999999872
20
-92.8819230000000005
11
216.7375019999999779
21
-92.9000020000000006
0
LINE
8
BLACK
6
CONTINUOUS
10
216.7375019999999779
20
-92.9000020000000006
11
216.2625019999999836
21
-92.9000020000000006
0
LINE
8
BLACK
6
CONTINUOUS
10
216.2625019999999836
20
-92.9000020000000006
11
216.1716150000000027
21
-92.8819230000000005
0
LINE
8
BLACK
6
CONTINUOUS
10
216.1716150000000027
20
-92.8819230000000005
11
216.0945639999999912
21
-92.8304399999999958
0
LINE
8
BLACK
6
CONTINUOUS
10
216.0945639999999912
20
-92.8304399999999958
11
216.0430810000000008
21
-92.7533889999999985
0
LINE
8
BLACK
6
CONTINUOUS
10
216.0430810000000008
20
-92.7533889999999985
11
216.0250020000000006
21
-92.6625019999999893
0
LINE
8
BLACK
6
CONTINUOUS
10
216.0250020000000006
20
-92.6625019999999893
11
216.0250020000000006
21
-92.062501999999995
0
LINE
8
BLACK
6
CONTINUOUS
10
216.0250020000000006
20
-92.062501999999995
11
216.0430810000000008
21
-91.9716149999999999
0
LINE
8
BLACK
6
CONTINUOUS
10
216.0430810000000008
20
-91.9716149999999999
11
216.0945639999999912
21
-91.8945640000000026
0
LINE
8
BLACK
6
CONTINUOUS
10
216.0945639999999912
20
-91.8945640000000026
11
216.1716150000000027
21
-91.843080999999998
0
LINE
8
BLACK
6
CONTINUOUS
10
216.1716150000000027
20
-91.843080999999998
11
216.2625019999999836
21
-91.8250019999999978
0
LINE
8
BLACK
6
CONTINUOUS
10
216.2625019999999836
20
-91.8250019999999978
11
216.7375019999999779
21
-91.8250019999999978
0
LINE
8
BLACK
6
CONTINUOUS
10
216.7375019999999779
20
-91.8250019999999978
11
216.8283889999999872
21
-91.843080999999998
0
LINE
8
BLACK
6
CONTINUOUS
10
155.3283889999999872
20
-90.843080999999998
11
155.4054399999999987
21
-90.8945640000000026
0
LINE
8
BLACK
6
CONTINUOUS
10
155.4054399999999987
20
-90.8945640000000026
11
155.4569229999999891
21
-90.9716149999999999
0
LINE
8
BLACK
6
CONTINUOUS
10
155.4569229999999891
20
-90.9716149999999999
11
155.4750019999999893
21
-91.062501999999995
0
LINE
8
BLACK
6
CONTINUOUS
10
155.4750019999999893
20
-91.062501999999995
11
155.4750019999999893
21
-91.6625019999999893
0
LINE
8
BLACK
6
CONTINUOUS
10
155.4750019999999893
20
-91.6625019999999893
11
155.4569229999999891
21
-91.7533889999999985
0
LINE
8
BLACK
6
CONTINUOUS
10
155.4569229999999891
20
-91.7533889999999985
11
155.4054399999999987
21
-91.8304399999999958
0
LINE
8
BLACK
6
CONTINUOUS
10
155.4054399999999987
20
-91.8304399999999958
11
155.3283889999999872
21
-91.8819230000000005
0
LINE
8
BLACK
6
CONTINUOUS
10
155.3283889999999872
20
-91.8819230000000005
11
155.2375020000000063
21
-91.9000020000000006
0
LINE
8
BLACK
6
CONTINUOUS
10
155.2375020000000063
20
-91.9000020000000006
11
154.7625019999999836
21
-91.9000020000000006
0
LINE
8
BLACK
6
CONTINUOUS
10
154.7625019999999836
20
-91.9000020000000006
11
154.6716150000000027
21
-91.8819230000000005
0
LINE
8
BLACK
6
CONTINUOUS
10
154.6716150000000027
20
-91.8819230000000005
11
154.5945639999999912
21
-91.8304399999999958
0
LINE
8
BLACK
6
CONTINUOUS
10
154.5945639999999912
20
-91.8304399999999958
11
154.5430810000000008
21
-91.7533889999999985
0
LINE
8
BLACK
6
CONTINUOUS
10
154.5430810000000008
20
-91.7533889999999985
11
154.5250020000000006
21
-91.6625019999999893
0
LINE
8
BLACK
6
CONTINUOUS
10
154.5250020000000006
20
-91.6625019999999893
11
154.5250020000000006
21
-91.062501999999995
0
LINE
8
BLACK
6
CONTINUOUS
10
154.5250020000000006
20
-91.062501999999995
11
154.5430810000000008
21
-90.9716149999999999
0
LINE
8
BLACK
6
CONTINUOUS
10
154.5430810000000008
20
-90.9716149999999999
11
154.5945639999999912
21
-90.8945640000000026
0
LINE
8
BLACK
6
CONTINUOUS
10
154.5945639999999912
20
-90.8945640000000026
11
154.6716150000000027
21
-90.843080999999998
0
LINE
8
BLACK
6
CONTINUOUS
10
154.6716150000000027
20
-90.843080999999998
11
154.7625019999999836
21
-90.8250019999999978
0
LINE
8
BLACK
6
CONTINUOUS
10
154.7625019999999836
20
-90.8250019999999978
11
155.2375020000000063
21
-90.8250019999999978
0
LINE
8
BLACK
6
CONTINUOUS
10
155.2375020000000063
20
-90.8250019999999978
11
155.3283889999999872
21
-90.843080999999998
0
LINE
8
BLACK
6
CONTINUOUS
10
175.5783879999999897
20
-90.5930819999999954
11
175.6554390000000012
21
-90.6445650000000001
0
LINE
8
BLACK
6
CONTINUOUS
10
175.6554390000000012
20
-90.6445650000000001
11
175.7069219999999916
21
-90.7216159999999974
0
LINE
8
BLACK
6
CONTINUOUS
10
175.7069219999999916
20
-90.7216159999999974
11
175.7250009999999918
21
-90.8125029999999924
0
LINE
8
BLACK
6
CONTINUOUS
10
175.7250009999999918
20
-90.8125029999999924
11
175.7250009999999918
21
-91.412503000000001
0
LINE
8
BLACK
6
CONTINUOUS
10
175.7250009999999918
20
-91.412503000000001
11
175.7069219999999916
21
-91.503389999999996
0
LINE
8
BLACK
6
CONTINUOUS
10
175.7069219999999916
20
-91.503389999999996
11
175.6554390000000012
21
-91.5804409999999933
0
LINE
8
BLACK
6
CONTINUOUS
10
175.6554390000000012
20
-91.5804409999999933
11
175.5783879999999897
21
-91.6319239999999979
0
LINE
8
BLACK
6
CONTINUOUS
10
175.5783879999999897
20
-91.6319239999999979
11
175.4875009999999804
21
-91.6500029999999981
0
LINE
8
BLACK
6
CONTINUOUS
10
175.4875009999999804
20
-91.6500029999999981
11
175.0125009999999861
21
-91.6500029999999981
0
LINE
8
BLACK
6
CONTINUOUS
10
175.0125009999999861
20
-91.6500029999999981
11
174.9216140000000053
21
-91.6319239999999979
0
LINE
8
BLACK
6
CONTINUOUS
10
174.9216140000000053
20
-91.6319239999999979
11
174.8445629999999937
21
-91.5804409999999933
0
LINE
8
BLACK
6
CONTINUOUS
10
174.8445629999999937
20
-91.5804409999999933
11
174.7930800000000033
21
-91.503389999999996
0
LINE
8
BLACK
6
CONTINUOUS
10
174.7930800000000033
20
-91.503389999999996
11
174.7750010000000032
21
-91.412503000000001
0
LINE
8
BLACK
6
CONTINUOUS
10
174.7750010000000032
20
-91.412503000000001
11
174.7750010000000032
21
-90.8125029999999924
0
LINE
8
BLACK
6
CONTINUOUS
10
174.7750010000000032
20
-90.8125029999999924
11
174.7930800000000033
21
-90.7216159999999974
0
LINE
8
BLACK
6
CONTINUOUS
10
174.7930800000000033
20
-90.7216159999999974
11
174.8445629999999937
21
-90.6445650000000001
0
LINE
8
BLACK
6
CONTINUOUS
10
174.8445629999999937
20
-90.6445650000000001
11
174.9216140000000053
21
-90.5930819999999954
0
LINE
8
BLACK
6
CONTINUOUS
10
174.9216140000000053
20
-90.5930819999999954
11
175.0125009999999861
21
-90.5750029999999953
0
LINE
8
BLACK
6
CONTINUOUS
10
175.0125009999999861
20
-90.5750029999999953
11
175.4875009999999804
21
-90.5750029999999953
0
LINE
8
BLACK
6
CONTINUOUS
10
175.4875009999999804
20
-90.5750029999999953
11
175.5783879999999897
21
-90.5930819999999954
0
LINE
8
BLACK
6
CONTINUOUS
10
165.0456709999999987
20
-90.4190299999999922
11
165.1267770000000041
21
-90.4732229999999902
0
LINE
8
BLACK
6
CONTINUOUS
10
165.1267770000000041
20
-90.4732229999999902
11
165.1809700000000021
21
-90.5543289999999956
0
LINE
8
BLACK
6
CONTINUOUS
10
165.1809700000000021
20
-90.5543289999999956
11
165.1999999999999886
21
-90.6499999999999915
0
LINE
8
BLACK
6
CONTINUOUS
10
165.1999999999999886
20
-90.6499999999999915
11
165.1999999999999886
21
-91.3499999999999943
0
LINE
8
BLACK
6
CONTINUOUS
10
165.1999999999999886
20
-91.3499999999999943
11
165.1809700000000021
21
-91.4456709999999902
0
LINE
8
BLACK
6
CONTINUOUS
10
165.1809700000000021
20
-91.4456709999999902
11
165.1267770000000041
21
-91.5267769999999956
0
LINE
8
BLACK
6
CONTINUOUS
10
165.1267770000000041
20
-91.5267769999999956
11
165.0456709999999987
21
-91.5809699999999935
0
LINE
8
BLACK
6
CONTINUOUS
10
165.0456709999999987
20
-91.5809699999999935
11
164.9499999999999886
21
-91.5999999999999943
0
LINE
8
BLACK
6
CONTINUOUS
10
164.9499999999999886
20
-91.5999999999999943
11
164.0499999999999829
21
-91.5999999999999943
0
LINE
8
BLACK
6
CONTINUOUS
10
164.0499999999999829
20
-91.5999999999999943
11
163.9543290000000013
21
-91.5809699999999935
0
LINE
8
BLACK
6
CONTINUOUS
10
163.9543290000000013
20
-91.5809699999999935
11
163.8732229999999959
21
-91.5267769999999956
0
LINE
8
BLACK
6
CONTINUOUS
10
163.8732229999999959
20
-91.5267769999999956
11
163.8190299999999979
21
-91.4456709999999902
0
LINE
8
BLACK
6
CONTINUOUS
10
163.8190299999999979
20
-91.4456709999999902
11
163.7999999999999829
21
-91.3499999999999943
0
LINE
8
BLACK
6
CONTINUOUS
10
163.7999999999999829
20
-91.3499999999999943
11
163.7999999999999829
21
-90.6499999999999915
0
LINE
8
BLACK
6
CONTINUOUS
10
163.7999999999999829
20
-90.6499999999999915
11
163.8190299999999979
21
-90.5543289999999956
0
LINE
8
BLACK
6
CONTINUOUS
10
163.8190299999999979
20
-90.5543289999999956
11
163.8732229999999959
21
-90.4732229999999902
0
LINE
8
BLACK
6
CONTINUOUS
10
163.8732229999999959
20
-90.4732229999999902
11
163.9543290000000013
21
-90.4190299999999922
0
LINE
8
BLACK
6
CONTINUOUS
10
163.9543290000000013
20
-90.4190299999999922
11
164.0499999999999829
21
-90.3999999999999915
0
LINE
8
BLACK
6
CONTINUOUS
10
164.0499999999999829
20
-90.3999999999999915
11
164.9499999999999886
21
-90.3999999999999915
0
LINE
8
BLACK
6
CONTINUOUS
10
164.9499999999999886
20
-90.3999999999999915
11
165.0456709999999987
21
-90.4190299999999922
0
LINE
8
BLACK
6
CONTINUOUS
10
169.5456709999999987
20
-90.4190299999999922
11
169.6267770000000041
21
-90.4732229999999902
0
LINE
8
BLACK
6
CONTINUOUS
10
169.6267770000000041
20
-90.4732229999999902
11
169.6809700000000021
21
-90.5543289999999956
0
LINE
8
BLACK
6
CONTINUOUS
10
169.6809700000000021
20
-90.5543289999999956
11
169.6999999999999886
21
-90.6499999999999915
0
LINE
8
BLACK
6
CONTINUOUS
10
169.6999999999999886
20
-90.6499999999999915
11
169.6999999999999886
21
-91.3499999999999943
0
LINE
8
BLACK
6
CONTINUOUS
10
169.6999999999999886
20
-91.3499999999999943
11
169.6809700000000021
21
-91.4456709999999902
0
LINE
8
BLACK
6
CONTINUOUS
10
169.6809700000000021
20
-91.4456709999999902
11
169.6267770000000041
21
-91.5267769999999956
0
LINE
8
BLACK
6
CONTINUOUS
10
169.6267770000000041
20
-91.5267769999999956
11
169.5456709999999987
21
-91.5809699999999935
0
LINE
8
BLACK
6
CONTINUOUS
10
169.5456709999999987
20
-91.5809699999999935
11
169.4499999999999886
21
-91.5999999999999943
0
LINE
8
BLACK
6
CONTINUOUS
10
169.4499999999999886
20
-91.5999999999999943
11
168.5499999999999829
21
-91.5999999999999943
0
LINE
8
BLACK
6
CONTINUOUS
10
168.5499999999999829
20
-91.5999999999999943
11
168.4543290000000013
21
-91.5809699999999935
0
LINE
8
BLACK
6
CONTINUOUS
10
168.4543290000000013
20
-91.5809699999999935
11
168.3732229999999959
21
-91.5267769999999956
0
LINE
8
BLACK
6
CONTINUOUS
10
168.3732229999999959
20
-91.5267769999999956
11
168.3190299999999979
21
-91.4456709999999902
0
LINE
8
BLACK
6
CONTINUOUS
10
168.3190299999999979
20
-91.4456709999999902
11
168.2999999999999829
21
-91.3499999999999943
0
LINE
8
BLACK
6
CONTINUOUS
10
168.2999999999999829
20
-91.3499999999999943
11
168.2999999999999829
21
-90.6499999999999915
0
LINE
8
BLACK
6
CONTINUOUS
10
168.2999999999999829
20
-90.6499999999999915
11
168.3190299999999979
21
-90.5543289999999956
0
LINE
8
BLACK
6
CONTINUOUS
10
168.3190299999999979
20
-90.5543289999999956
11
168.3732229999999959
21
-90.4732229999999902
0
LINE
8
BLACK
6
CONTINUOUS
10
168.3732229999999959
20
-90.4732229999999902
11
168.4543290000000013
21
-90.4190299999999922
0
LINE
8
BLACK
6
CONTINUOUS
10
168.4543290000000013
20
-90.4190299999999922
11
168.5499999999999829
21
-90.3999999999999915
0
LINE
8
BLACK
6
CONTINUOUS
10
168.5499999999999829
20
-90.3999999999999915
11
169.4499999999999886
21
-90.3999999999999915
0
LINE
8
BLACK
6
CONTINUOUS
10
169.4499999999999886
20
-90.3999999999999915
11
169.5456709999999987
21
-90.4190299999999922
0
LINE
8
BLACK
6
CONTINUOUS
10
201.8283849999999973
20
-90.1180769999999995
11
201.9054359999999804
21
-90.1695599999999899
0
LINE
8
BLACK
6
CONTINUOUS
10
201.9054359999999804
20
-90.1695599999999899
11
201.9569189999999992
21
-90.2466110000000015
0
LINE
8
BLACK
6
CONTINUOUS
10
201.9569189999999992
20
-90.2466110000000015
11
201.9749979999999994
21
-90.3374979999999965
0
LINE
8
BLACK
6
CONTINUOUS
10
201.9749979999999994
20
-90.3374979999999965
11
201.9749979999999994
21
-90.9374979999999908
0
LINE
8
BLACK
6
CONTINUOUS
10
201.9749979999999994
20
-90.9374979999999908
11
201.9569189999999992
21
-91.0283850000000001
0
LINE
8
BLACK
6
CONTINUOUS
10
201.9569189999999992
20
-91.0283850000000001
11
201.9054359999999804
21
-91.1054359999999974
0
LINE
8
BLACK
6
CONTINUOUS
10
201.9054359999999804
20
-91.1054359999999974
11
201.8283849999999973
21
-91.156919000000002
0
LINE
8
BLACK
6
CONTINUOUS
10
201.8283849999999973
20
-91.156919000000002
11
201.737497999999988
21
-91.1749980000000022
0
LINE
8
BLACK
6
CONTINUOUS
10
201.737497999999988
20
-91.1749980000000022
11
201.2624979999999937
21
-91.1749980000000022
0
LINE
8
BLACK
6
CONTINUOUS
10
201.2624979999999937
20
-91.1749980000000022
11
201.1716109999999844
21
-91.156919000000002
0
LINE
8
BLACK
6
CONTINUOUS
10
201.1716109999999844
20
-91.156919000000002
11
201.0945600000000013
21
-91.1054359999999974
0
LINE
8
BLACK
6
CONTINUOUS
10
201.0945600000000013
20
-91.1054359999999974
11
201.0430769999999825
21
-91.0283850000000001
0
LINE
8
BLACK
6
CONTINUOUS
10
201.0430769999999825
20
-91.0283850000000001
11
201.0249979999999823
21
-90.9374979999999908
0
LINE
8
BLACK
6
CONTINUOUS
10
201.0249979999999823
20
-90.9374979999999908
11
201.0249979999999823
21
-90.3374979999999965
0
LINE
8
BLACK
6
CONTINUOUS
10
201.0249979999999823
20
-90.3374979999999965
11
201.0430769999999825
21
-90.2466110000000015
0
LINE
8
BLACK
6
CONTINUOUS
10
201.0430769999999825
20
-90.2466110000000015
11
201.0945600000000013
21
-90.1695599999999899
0
LINE
8
BLACK
6
CONTINUOUS
10
201.0945600000000013
20
-90.1695599999999899
11
201.1716109999999844
21
-90.1180769999999995
0
LINE
8
BLACK
6
CONTINUOUS
10
201.1716109999999844
20
-90.1180769999999995
11
201.2624979999999937
21
-90.0999979999999994
0
LINE
8
BLACK
6
CONTINUOUS
10
201.2624979999999937
20
-90.0999979999999994
11
201.737497999999988
21
-90.0999979999999994
0
LINE
8
BLACK
6
CONTINUOUS
10
201.737497999999988
20
-90.0999979999999994
11
201.8283849999999973
21
-90.1180769999999995
0
LINE
8
BLACK
6
CONTINUOUS
10
216.8283849999999973
20
-90.1180769999999995
11
216.9054359999999804
21
-90.1695599999999899
0
LINE
8
BLACK
6
CONTINUOUS
10
216.9054359999999804
20
-90.1695599999999899
11
216.9569189999999992
21
-90.2466110000000015
0
LINE
8
BLACK
6
CONTINUOUS
10
216.9569189999999992
20
-90.2466110000000015
11
216.9749979999999994
21
-90.3374979999999965
0
LINE
8
BLACK
6
CONTINUOUS
10
216.9749979999999994
20
-90.3374979999999965
11
216.9749979999999994
21
-90.9374979999999908
0
LINE
8
BLACK
6
CONTINUOUS
10
216.9749979999999994
20
-90.9374979999999908
11
216.9569189999999992
21
-91.0283850000000001
0
LINE
8
BLACK
6
CONTINUOUS
10
216.9569189999999992
20
-91.0283850000000001
11
216.9054359999999804
21
-91.1054359999999974
0
LINE
8
BLACK
6
CONTINUOUS
10
216.9054359999999804
20
-91.1054359999999974
11
216.8283849999999973
21
-91.156919000000002
0
LINE
8
BLACK
6
CONTINUOUS
10
216.8283849999999973
20
-91.156919000000002
11
216.737497999999988
21
-91.1749980000000022
0
LINE
8
BLACK
6
CONTINUOUS
10
216.737497999999988
20
-91.1749980000000022
11
216.2624979999999937
21
-91.1749980000000022
0
LINE
8
BLACK
6
CONTINUOUS
10
216.2624979999999937
20
-91.1749980000000022
11
216.1716109999999844
21
-91.156919000000002
0
LINE
8
BLACK
6
CONTINUOUS
10
216.1716109999999844
20
-91.156919000000002
11
216.0945600000000013
21
-91.1054359999999974
0
LINE
8
BLACK
6
CONTINUOUS
10
216.0945600000000013
20
-91.1054359999999974
11
216.0430769999999825
21
-91.0283850000000001
0
LINE
8
BLACK
6
CONTINUOUS
10
216.0430769999999825
20
-91.0283850000000001
11
216.0249979999999823
21
-90.9374979999999908
0
LINE
8
BLACK
6
CONTINUOUS
10
216.0249979999999823
20
-90.9374979999999908
11
216.0249979999999823
21
-90.3374979999999965
0
LINE
8
BLACK
6
CONTINUOUS
10
216.0249979999999823
20
-90.3374979999999965
11
216.0430769999999825
21
-90.2466110000000015
0
LINE
8
BLACK
6
CONTINUOUS
10
216.0430769999999825
20
-90.2466110000000015
11
216.0945600000000013
21
-90.1695599999999899
0
LINE
8
BLACK
6
CONTINUOUS
10
216.0945600000000013
20
-90.1695599999999899
11
216.1716109999999844
21
-90.1180769999999995
0
LINE
8
BLACK
6
CONTINUOUS
10
216.1716109999999844
20
-90.1180769999999995
11
216.2624979999999937
21
-90.0999979999999994
0
LINE
8
BLACK
6
CONTINUOUS
10
216.2624979999999937
20
-90.0999979999999994
11
216.737497999999988
21
-90.0999979999999994
0
LINE
8
BLACK
6
CONTINUOUS
10
216.737497999999988
20
-90.0999979999999994
11
216.8283849999999973
21
-90.1180769999999995
0
LINE
8
BLACK
6
CONTINUOUS
10
155.3283849999999973
20
-89.1180769999999995
11
155.4054359999999804
21
-89.1695599999999899
0
LINE
8
BLACK
6
CONTINUOUS
10
155.4054359999999804
20
-89.1695599999999899
11
155.4569189999999992
21
-89.2466110000000015
0
LINE
8
BLACK
6
CONTINUOUS
10
155.4569189999999992
20
-89.2466110000000015
11
155.4749979999999994
21
-89.3374979999999965
0
LINE
8
BLACK
6
CONTINUOUS
10
155.4749979999999994
20
-89.3374979999999965
11
155.4749979999999994
21
-89.9374979999999908
0
LINE
8
BLACK
6
CONTINUOUS
10
155.4749979999999994
20
-89.9374979999999908
11
155.4569189999999992
21
-90.0283850000000001
0
LINE
8
BLACK
6
CONTINUOUS
10
155.4569189999999992
20
-90.0283850000000001
11
155.4054359999999804
21
-90.1054359999999974
0
LINE
8
BLACK
6
CONTINUOUS
10
155.4054359999999804
20
-90.1054359999999974
11
155.3283849999999973
21
-90.156919000000002
0
LINE
8
BLACK
6
CONTINUOUS
10
155.3283849999999973
20
-90.156919000000002
11
155.237497999999988
21
-90.1749980000000022
0
LINE
8
BLACK
6
CONTINUOUS
10
155.237497999999988
20
-90.1749980000000022
11
154.7624979999999937
21
-90.1749980000000022
0
LINE
8
BLACK
6
CONTINUOUS
10
154.7624979999999937
20
-90.1749980000000022
11
154.6716109999999844
21
-90.156919000000002
0
LINE
8
BLACK
6
CONTINUOUS
10
154.6716109999999844
20
-90.156919000000002
11
154.5945600000000013
21
-90.1054359999999974
0
LINE
8
BLACK
6
CONTINUOUS
10
154.5945600000000013
20
-90.1054359999999974
11
154.5430769999999825
21
-90.0283850000000001
0
LINE
8
BLACK
6
CONTINUOUS
10
154.5430769999999825
20
-90.0283850000000001
11
154.5249979999999823
21
-89.9374979999999908
0
LINE
8
BLACK
6
CONTINUOUS
10
154.5249979999999823
20
-89.9374979999999908
11
154.5249979999999823
21
-89.3374979999999965
0
LINE
8
BLACK
6
CONTINUOUS
10
154.5249979999999823
20
-89.3374979999999965
11
154.5430769999999825
21
-89.2466110000000015
0
LINE
8
BLACK
6
CONTINUOUS
10
154.5430769999999825
20
-89.2466110000000015
11
154.5945600000000013
21
-89.1695599999999899
0
LINE
8
BLACK
6
CONTINUOUS
10
154.5945600000000013
20
-89.1695599999999899
11
154.6716109999999844
21
-89.1180769999999995
0
LINE
8
BLACK
6
CONTINUOUS
10
154.6716109999999844
20
-89.1180769999999995
11
154.7624979999999937
21
-89.0999979999999994
0
LINE
8
BLACK
6
CONTINUOUS
10
154.7624979999999937
20
-89.0999979999999994
11
155.237497999999988
21
-89.0999979999999994
0
LINE
8
BLACK
6
CONTINUOUS
10
155.237497999999988
20
-89.0999979999999994
11
155.3283849999999973
21
-89.1180769999999995
0
LINE
8
BLACK
6
CONTINUOUS
10
175.5783859999999947
20
-88.8680760000000021
11
175.6554369999999778
21
-88.9195589999999925
0
LINE
8
BLACK
6
CONTINUOUS
10
175.6554369999999778
20
-88.9195589999999925
11
175.7069199999999967
21
-88.9966099999999898
0
LINE
8
BLACK
6
CONTINUOUS
10
175.7069199999999967
20
-88.9966099999999898
11
175.7249989999999968
21
-89.087496999999999
0
LINE
8
BLACK
6
CONTINUOUS
10
175.7249989999999968
20
-89.087496999999999
11
175.7249989999999968
21
-89.6874969999999934
0
LINE
8
BLACK
6
CONTINUOUS
10
175.7249989999999968
20
-89.6874969999999934
11
175.7069199999999967
21
-89.7783840000000026
0
LINE
8
BLACK
6
CONTINUOUS
10
175.7069199999999967
20
-89.7783840000000026
11
175.6554369999999778
21
-89.8554349999999999
0
LINE
8
BLACK
6
CONTINUOUS
10
175.6554369999999778
20
-89.8554349999999999
11
175.5783859999999947
21
-89.9069179999999903
0
LINE
8
BLACK
6
CONTINUOUS
10
175.5783859999999947
20
-89.9069179999999903
11
175.4874989999999855
21
-89.9249969999999905
0
LINE
8
BLACK
6
CONTINUOUS
10
175.4874989999999855
20
-89.9249969999999905
11
175.0124989999999912
21
-89.9249969999999905
0
LINE
8
BLACK
6
CONTINUOUS
10
175.0124989999999912
20
-89.9249969999999905
11
174.9216119999999819
21
-89.9069179999999903
0
LINE
8
BLACK
6
CONTINUOUS
10
174.9216119999999819
20
-89.9069179999999903
11
174.8445609999999988
21
-89.8554349999999999
0
LINE
8
BLACK
6
CONTINUOUS
10
174.8445609999999988
20
-89.8554349999999999
11
174.79307799999998
21
-89.7783840000000026
0
LINE
8
BLACK
6
CONTINUOUS
10
174.79307799999998
20
-89.7783840000000026
11
174.7749989999999798
21
-89.6874969999999934
0
LINE
8
BLACK
6
CONTINUOUS
10
174.7749989999999798
20
-89.6874969999999934
11
174.7749989999999798
21
-89.087496999999999
0
LINE
8
BLACK
6
CONTINUOUS
10
174.7749989999999798
20
-89.087496999999999
11
174.79307799999998
21
-88.9966099999999898
0
LINE
8
BLACK
6
CONTINUOUS
10
174.79307799999998
20
-88.9966099999999898
11
174.8445609999999988
21
-88.9195589999999925
0
LINE
8
BLACK
6
CONTINUOUS
10
174.8445609999999988
20
-88.9195589999999925
11
174.9216119999999819
21
-88.8680760000000021
0
LINE
8
BLACK
6
CONTINUOUS
10
174.9216119999999819
20
-88.8680760000000021
11
175.0124989999999912
21
-88.8499970000000019
0
LINE
8
BLACK
6
CONTINUOUS
10
175.0124989999999912
20
-88.8499970000000019
11
175.4874989999999855
21
-88.8499970000000019
0
LINE
8
BLACK
6
CONTINUOUS
10
175.4874989999999855
20
-88.8499970000000019
11
175.5783859999999947
21
-88.8680760000000021
0
LINE
8
BLACK
6
CONTINUOUS
10
165.0456709999999987
20
-88.4190299999999922
11
165.1267770000000041
21
-88.4732229999999902
0
LINE
8
BLACK
6
CONTINUOUS
10
165.1267770000000041
20
-88.4732229999999902
11
165.1809700000000021
21
-88.5543289999999956
0
LINE
8
BLACK
6
CONTINUOUS
10
165.1809700000000021
20
-88.5543289999999956
11
165.1999999999999886
21
-88.6499999999999915
0
LINE
8
BLACK
6
CONTINUOUS
10
165.1999999999999886
20
-88.6499999999999915
11
165.1999999999999886
21
-89.3499999999999943
0
LINE
8
BLACK
6
CONTINUOUS
10
165.1999999999999886
20
-89.3499999999999943
11
165.1809700000000021
21
-89.4456709999999902
0
LINE
8
BLACK
6
CONTINUOUS
10
165.1809700000000021
20
-89.4456709999999902
11
165.1267770000000041
21
-89.5267769999999956
0
LINE
8
BLACK
6
CONTINUOUS
10
165.1267770000000041
20
-89.5267769999999956
11
165.0456709999999987
21
-89.5809699999999935
0
LINE
8
BLACK
6
CONTINUOUS
10
165.0456709999999987
20
-89.5809699999999935
11
164.9499999999999886
21
-89.5999999999999943
0
LINE
8
BLACK
6
CONTINUOUS
10
164.9499999999999886
20
-89.5999999999999943
11
164.0499999999999829
21
-89.5999999999999943
0
LINE
8
BLACK
6
CONTINUOUS
10
164.0499999999999829
20
-89.5999999999999943
11
163.9543290000000013
21
-89.5809699999999935
0
LINE
8
BLACK
6
CONTINUOUS
10
163.9543290000000013
20
-89.5809699999999935
11
163.8732229999999959
21
-89.5267769999999956
0
LINE
8
BLACK
6
CONTINUOUS
10
163.8732229999999959
20
-89.5267769999999956
11
163.8190299999999979
21
-89.4456709999999902
0
LINE
8
BLACK
6
CONTINUOUS
10
163.8190299999999979
20
-89.4456709999999902
11
163.7999999999999829
21
-89.3499999999999943
0
LINE
8
BLACK
6
CONTINUOUS
10
163.7999999999999829
20
-89.3499999999999943
11
163.7999999999999829
21
-88.6499999999999915
0
LINE
8
BLACK
6
CONTINUOUS
10
163.7999999999999829
20
-88.6499999999999915
11
163.8190299999999979
21
-88.5543289999999956
0
LINE
8
BLACK
6
CONTINUOUS
10
163.8190299999999979
20
-88.5543289999999956
11
163.8732229999999959
21
-88.4732229999999902
0
LINE
8
BLACK
6
CONTINUOUS
10
163.8732229999999959
20
-88.4732229999999902
11
163.9543290000000013
21
-88.4190299999999922
0
LINE
8
BLACK
6
CONTINUOUS
10
163.9543290000000013
20
-88.4190299999999922
11
164.0499999999999829
21
-88.3999999999999915
0
LINE
8
BLACK
6
CONTINUOUS
10
164.0499999999999829
20
-88.3999999999999915
11
164.9499999999999886
21
-88.3999999999999915
0
LINE
8
BLACK
6
CONTINUOUS
10
164.9499999999999886
20
-88.3999999999999915
11
165.0456709999999987
21
-88.4190299999999922
0
LINE
8
BLACK
6
CONTINUOUS
10
169.5456709999999987
20
-88.4190299999999922
11
169.6267770000000041
21
-88.4732229999999902
0
LINE
8
BLACK
6
CONTINUOUS
10
169.6267770000000041
20
-88.4732229999999902
11
169.6809700000000021
21
-88.5543289999999956
0
LINE
8
BLACK
6
CONTINUOUS
10
169.6809700000000021
20
-88.5543289999999956
11
169.6999999999999886
21
-88.6499999999999915
0
LINE
8
BLACK
6
CONTINUOUS
10
169.6999999999999886
20
-88.6499999999999915
11
169.6999999999999886
21
-89.3499999999999943
0
LINE
8
BLACK
6
CONTINUOUS
10
169.6999999999999886
20
-89.3499999999999943
11
169.6809700000000021
21
-89.4456709999999902
0
LINE
8
BLACK
6
CONTINUOUS
10
169.6809700000000021
20
-89.4456709999999902
11
169.6267770000000041
21
-89.5267769999999956
0
LINE
8
BLACK
6
CONTINUOUS
10
169.6267770000000041
20
-89.5267769999999956
11
169.5456709999999987
21
-89.5809699999999935
0
LINE
8
BLACK
6
CONTINUOUS
10
169.5456709999999987
20
-89.5809699999999935
11
169.4499999999999886
21
-89.5999999999999943
0
LINE
8
BLACK
6
CONTINUOUS
10
169.4499999999999886
20
-89.5999999999999943
11
168.5499999999999829
21
-89.5999999999999943
0
LINE
8
BLACK
6
CONTINUOUS
10
168.5499999999999829
20
-89.5999999999999943
11
168.4543290000000013
21
-89.5809699999999935
0
LINE
8
BLACK
6
CONTINUOUS
10
168.4543290000000013
20
-89.5809699999999935
11
168.3732229999999959
21
-89.5267769999999956
0
LINE
8
BLACK
6
CONTINUOUS
10
168.3732229999999959
20
-89.5267769999999956
11
168.3190299999999979
21
-89.4456709999999902
0
LINE
8
BLACK
6
CONTINUOUS
10
168.3190299999999979
20
-89.4456709999999902
11
168.2999999999999829
21
-89.3499999999999943
0
LINE
8
BLACK
6
CONTINUOUS
10
168.2999999999999829
20
-89.3499999999999943
11
168.2999999999999829
21
-88.6499999999999915
0
LINE
8
BLACK
6
CONTINUOUS
10
168.2999999999999829
20
-88.6499999999999915
11
168.3190299999999979
21
-88.5543289999999956
0
LINE
8
BLACK
6
CONTINUOUS
10
168.3190299999999979
20
-88.5543289999999956
11
168.3732229999999959
21
-88.4732229999999902
0
LINE
8
BLACK
6
CONTINUOUS
10
168.3732229999999959
20
-88.4732229999999902
11
168.4543290000000013
21
-88.4190299999999922
0
LINE
8
BLACK
6
CONTINUOUS
10
168.4543290000000013
20
-88.4190299999999922
11
168.5499999999999829
21
-88.3999999999999915
0
LINE
8
BLACK
6
CONTINUOUS
10
168.5499999999999829
20
-88.3999999999999915
11
169.4499999999999886
21
-88.3999999999999915
0
LINE
8
BLACK
6
CONTINUOUS
10
169.4499999999999886
20
-88.3999999999999915
11
169.5456709999999987
21
-88.4190299999999922
0
LINE
8
BLACK
6
CONTINUOUS
10
212.3220489999999927
20
-85.9232729999999947
11
212.4031549999999982
21
-85.9774659999999926
0
LINE
8
BLACK
6
CONTINUOUS
10
212.4031549999999982
20
-85.9774659999999926
11
212.4573479999999961
21
-86.0585719999999981
0
LINE
8
BLACK
6
CONTINUOUS
10
212.4573479999999961
20
-86.0585719999999981
11
212.4763779999999826
21
-86.1542429999999939
0
LINE
8
BLACK
6
CONTINUOUS
10
212.4763779999999826
20
-86.1542429999999939
11
212.4763779999999826
21
-87.0542429999999996
0
LINE
8
BLACK
6
CONTINUOUS
10
212.4763779999999826
20
-87.0542429999999996
11
212.4573479999999961
21
-87.1499139999999954
0
LINE
8
BLACK
6
CONTINUOUS
10
212.4573479999999961
20
-87.1499139999999954
11
212.4031549999999982
21
-87.2310200000000009
0
LINE
8
BLACK
6
CONTINUOUS
10
212.4031549999999982
20
-87.2310200000000009
11
212.3220489999999927
21
-87.2852129999999988
0
LINE
8
BLACK
6
CONTINUOUS
10
212.3220489999999927
20
-87.2852129999999988
11
212.2263779999999826
21
-87.3042429999999996
0
LINE
8
BLACK
6
CONTINUOUS
10
212.2263779999999826
20
-87.3042429999999996
11
211.526377999999994
21
-87.3042429999999996
0
LINE
8
BLACK
6
CONTINUOUS
10
211.526377999999994
20
-87.3042429999999996
11
211.430706999999984
21
-87.2852129999999988
0
LINE
8
BLACK
6
CONTINUOUS
10
211.430706999999984
20
-87.2852129999999988
11
211.3496009999999785
21
-87.2310200000000009
0
LINE
8
BLACK
6
CONTINUOUS
10
211.3496009999999785
20
-87.2310200000000009
11
211.2954079999999806
21
-87.1499139999999954
0
LINE
8
BLACK
6
CONTINUOUS
10
211.2954079999999806
20
-87.1499139999999954
11
211.276377999999994
21
-87.0542429999999996
0
LINE
8
BLACK
6
CONTINUOUS
10
211.276377999999994
20
-87.0542429999999996
11
211.276377999999994
21
-86.1542429999999939
0
LINE
8
BLACK
6
CONTINUOUS
10
211.276377999999994
20
-86.1542429999999939
11
211.2954079999999806
21
-86.0585719999999981
0
LINE
8
BLACK
6
CONTINUOUS
10
211.2954079999999806
20
-86.0585719999999981
11
211.3496009999999785
21
-85.9774659999999926
0
LINE
8
BLACK
6
CONTINUOUS
10
211.3496009999999785
20
-85.9774659999999926
11
211.430706999999984
21
-85.9232729999999947
0
LINE
8
BLACK
6
CONTINUOUS
10
211.430706999999984
20
-85.9232729999999947
11
211.526377999999994
21
-85.9042429999999939
0
LINE
8
BLACK
6
CONTINUOUS
10
211.526377999999994
20
-85.9042429999999939
11
212.2263779999999826
21
-85.9042429999999939
0
LINE
8
BLACK
6
CONTINUOUS
10
212.2263779999999826
20
-85.9042429999999939
11
212.3220489999999927
21
-85.9232729999999947
0
LINE
8
BLACK
6
CONTINUOUS
10
214.3220489999999927
20
-85.9232729999999947
11
214.4031549999999982
21
-85.9774659999999926
0
LINE
8
BLACK
6
CONTINUOUS
10
214.4031549999999982
20
-85.9774659999999926
11
214.4573479999999961
21
-86.0585719999999981
0
LINE
8
BLACK
6
CONTINUOUS
10
214.4573479999999961
20
-86.0585719999999981
11
214.4763779999999826
21
-86.1542429999999939
0
LINE
8
BLACK
6
CONTINUOUS
10
214.4763779999999826
20
-86.1542429999999939
11
214.4763779999999826
21
-87.0542429999999996
0
LINE
8
BLACK
6
CONTINUOUS
10
214.4763779999999826
20
-87.0542429999999996
11
214.4573479999999961
21
-87.1499139999999954
0
LINE
8
BLACK
6
CONTINUOUS
10
214.4573479999999961
20
-87.1499139999999954
11
214.4031549999999982
21
-87.2310200000000009
0
LINE
8
BLACK
6
CONTINUOUS
10
214.4031549999999982
20
-87.2310200000000009
11
214.3220489999999927
21
-87.2852129999999988
0
LINE
8
BLACK
6
CONTINUOUS
10
214.3220489999999927
20
-87.2852129999999988
11
214.2263779999999826
21
-87.3042429999999996
0
LINE
8
BLACK
6
CONTINUOUS
10
214.2263779999999826
20
-87.3042429999999996
11
213.526377999999994
21
-87.3042429999999996
0
LINE
8
BLACK
6
CONTINUOUS
10
213.526377999999994
20
-87.3042429999999996
11
213.430706999999984
21
-87.2852129999999988
0
LINE
8
BLACK
6
CONTINUOUS
10
213.430706999999984
20
-87.2852129999999988
11
213.3496009999999785
21
-87.2310200000000009
0
LINE
8
BLACK
6
CONTINUOUS
10
213.3496009999999785
20
-87.2310200000000009
11
213.2954079999999806
21
-87.1499139999999954
0
LINE
8
BLACK
6
CONTINUOUS
10
213.2954079999999806
20
-87.1499139999999954
11
213.276377999999994
21
-87.0542429999999996
0
LINE
8
BLACK
6
CONTINUOUS
10
213.276377999999994
20
-87.0542429999999996
11
213.276377999999994
21
-86.1542429999999939
0
LINE
8
BLACK
6
CONTINUOUS
10
213.276377999999994
20
-86.1542429999999939
11
213.2954079999999806
21
-86.0585719999999981
0
LINE
8
BLACK
6
CONTINUOUS
10
213.2954079999999806
20
-86.0585719999999981
11
213.3496009999999785
21
-85.9774659999999926
0
LINE
8
BLACK
6
CONTINUOUS
10
213.3496009999999785
20
-85.9774659999999926
11
213.430706999999984
21
-85.9232729999999947
0
LINE
8
BLACK
6
CONTINUOUS
10
213.430706999999984
20
-85.9232729999999947
11
213.526377999999994
21
-85.9042429999999939
0
LINE
8
BLACK
6
CONTINUOUS
10
213.526377999999994
20
-85.9042429999999939
11
214.2263779999999826
21
-85.9042429999999939
0
LINE
8
BLACK
6
CONTINUOUS
10
214.2263779999999826
20
-85.9042429999999939
11
214.3220489999999927
21
-85.9232729999999947
0
LINE
8
BLACK
6
CONTINUOUS
10
222.945668999999981
20
-85.0690309999999954
11
223.0267749999999864
21
-85.1232239999999933
0
LINE
8
BLACK
6
CONTINUOUS
10
223.0267749999999864
20
-85.1232239999999933
11
223.0809679999999844
21
-85.2043299999999988
0
LINE
8
BLACK
6
CONTINUOUS
10
223.0809679999999844
20
-85.2043299999999988
11
223.0999979999999994
21
-85.3000009999999946
0
LINE
8
BLACK
6
CONTINUOUS
10
223.0999979999999994
20
-85.3000009999999946
11
223.0999979999999994
21
-86.2000010000000003
0
LINE
8
BLACK
6
CONTINUOUS
10
223.0999979999999994
20
-86.2000010000000003
11
223.0809679999999844
21
-86.2956719999999962
0
LINE
8
BLACK
6
CONTINUOUS
10
223.0809679999999844
20
-86.2956719999999962
11
223.0267749999999864
21
-86.3767780000000016
0
LINE
8
BLACK
6
CONTINUOUS
10
223.0267749999999864
20
-86.3767780000000016
11
222.945668999999981
21
-86.4309709999999995
0
LINE
8
BLACK
6
CONTINUOUS
10
222.945668999999981
20
-86.4309709999999995
11
222.8499979999999994
21
-86.4500010000000003
0
LINE
8
BLACK
6
CONTINUOUS
10
222.8499979999999994
20
-86.4500010000000003
11
222.1499979999999823
21
-86.4500010000000003
0
LINE
8
BLACK
6
CONTINUOUS
10
222.1499979999999823
20
-86.4500010000000003
11
222.0543270000000007
21
-86.4309709999999995
0
LINE
8
BLACK
6
CONTINUOUS
10
222.0543270000000007
20
-86.4309709999999995
11
221.9732209999999952
21
-86.3767780000000016
0
LINE
8
BLACK
6
CONTINUOUS
10
221.9732209999999952
20
-86.3767780000000016
11
221.9190279999999973
21
-86.2956719999999962
0
LINE
8
BLACK
6
CONTINUOUS
10
221.9190279999999973
20
-86.2956719999999962
11
221.8999979999999823
21
-86.2000010000000003
0
LINE
8
BLACK
6
CONTINUOUS
10
221.8999979999999823
20
-86.2000010000000003
11
221.8999979999999823
21
-85.3000009999999946
0
LINE
8
BLACK
6
CONTINUOUS
10
221.8999979999999823
20
-85.3000009999999946
11
221.9190279999999973
21
-85.2043299999999988
0
LINE
8
BLACK
6
CONTINUOUS
10
221.9190279999999973
20
-85.2043299999999988
11
221.9732209999999952
21
-85.1232239999999933
0
LINE
8
BLACK
6
CONTINUOUS
10
221.9732209999999952
20
-85.1232239999999933
11
222.0543270000000007
21
-85.0690309999999954
0
LINE
8
BLACK
6
CONTINUOUS
10
222.0543270000000007
20
-85.0690309999999954
11
222.1499979999999823
21
-85.0500009999999946
0
LINE
8
BLACK
6
CONTINUOUS
10
222.1499979999999823
20
-85.0500009999999946
11
222.8499979999999994
21
-85.0500009999999946
0
LINE
8
BLACK
6
CONTINUOUS
10
222.8499979999999994
20
-85.0500009999999946
11
222.945668999999981
21
-85.0690309999999954
0
LINE
8
BLACK
6
CONTINUOUS
10
224.945668999999981
20
-85.0690309999999954
11
225.0267749999999864
21
-85.1232239999999933
0
LINE
8
BLACK
6
CONTINUOUS
10
225.0267749999999864
20
-85.1232239999999933
11
225.0809679999999844
21
-85.2043299999999988
0
LINE
8
BLACK
6
CONTINUOUS
10
225.0809679999999844
20
-85.2043299999999988
11
225.0999979999999994
21
-85.3000009999999946
0
LINE
8
BLACK
6
CONTINUOUS
10
225.0999979999999994
20
-85.3000009999999946
11
225.0999979999999994
21
-86.2000010000000003
0
LINE
8
BLACK
6
CONTINUOUS
10
225.0999979999999994
20
-86.2000010000000003
11
225.0809679999999844
21
-86.2956719999999962
0
LINE
8
BLACK
6
CONTINUOUS
10
225.0809679999999844
20
-86.2956719999999962
11
225.0267749999999864
21
-86.3767780000000016
0
LINE
8
BLACK
6
CONTINUOUS
10
225.0267749999999864
20
-86.3767780000000016
11
224.945668999999981
21
-86.4309709999999995
0
LINE
8
BLACK
6
CONTINUOUS
10
224.945668999999981
20
-86.4309709999999995
11
224.8499979999999994
21
-86.4500010000000003
0
LINE
8
BLACK
6
CONTINUOUS
10
224.8499979999999994
20
-86.4500010000000003
11
224.1499979999999823
21
-86.4500010000000003
0
LINE
8
BLACK
6
CONTINUOUS
10
224.1499979999999823
20
-86.4500010000000003
11
224.0543270000000007
21
-86.4309709999999995
0
LINE
8
BLACK
6
CONTINUOUS
10
224.0543270000000007
20
-86.4309709999999995
11
223.9732209999999952
21
-86.3767780000000016
0
LINE
8
BLACK
6
CONTINUOUS
10
223.9732209999999952
20
-86.3767780000000016
11
223.9190279999999973
21
-86.2956719999999962
0
LINE
8
BLACK
6
CONTINUOUS
10
223.9190279999999973
20
-86.2956719999999962
11
223.8999979999999823
21
-86.2000010000000003
0
LINE
8
BLACK
6
CONTINUOUS
10
223.8999979999999823
20
-86.2000010000000003
11
223.8999979999999823
21
-85.3000009999999946
0
LINE
8
BLACK
6
CONTINUOUS
10
223.8999979999999823
20
-85.3000009999999946
11
223.9190279999999973
21
-85.2043299999999988
0
LINE
8
BLACK
6
CONTINUOUS
10
223.9190279999999973
20
-85.2043299999999988
11
223.9732209999999952
21
-85.1232239999999933
0
LINE
8
BLACK
6
CONTINUOUS
10
223.9732209999999952
20
-85.1232239999999933
11
224.0543270000000007
21
-85.0690309999999954
0
LINE
8
BLACK
6
CONTINUOUS
10
224.0543270000000007
20
-85.0690309999999954
11
224.1499979999999823
21
-85.0500009999999946
0
LINE
8
BLACK
6
CONTINUOUS
10
224.1499979999999823
20
-85.0500009999999946
11
224.8499979999999994
21
-85.0500009999999946
0
LINE
8
BLACK
6
CONTINUOUS
10
224.8499979999999994
20
-85.0500009999999946
11
224.945668999999981
21
-85.0690309999999954
0
LINE
8
BLACK
6
CONTINUOUS
10
170.1956720000000018
20
-83.1690320000000014
11
170.2767779999999789
21
-83.2232249999999993
0
LINE
8
BLACK
6
CONTINUOUS
10
170.2767779999999789
20
-83.2232249999999993
11
170.3309710000000052
21
-83.3043309999999906
0
LINE
8
BLACK
6
CONTINUOUS
10
170.3309710000000052
20
-83.3043309999999906
11
170.3500009999999918
21
-83.4000020000000006
0
LINE
8
BLACK
6
CONTINUOUS
10
170.3500009999999918
20
-83.4000020000000006
11
170.3500009999999918
21
-85.6000019999999893
0
LINE
8
BLACK
6
CONTINUOUS
10
170.3500009999999918
20
-85.6000019999999893
11
170.3309710000000052
21
-85.6956729999999993
0
LINE
8
BLACK
6
CONTINUOUS
10
170.3309710000000052
20
-85.6956729999999993
11
170.2767779999999789
21
-85.7767789999999906
0
LINE
8
BLACK
6
CONTINUOUS
10
170.2767779999999789
20
-85.7767789999999906
11
170.1956720000000018
21
-85.8309720000000027
0
LINE
8
BLACK
6
CONTINUOUS
10
170.1956720000000018
20
-85.8309720000000027
11
170.1000009999999918
21
-85.8500019999999893
0
LINE
8
BLACK
6
CONTINUOUS
10
170.1000009999999918
20
-85.8500019999999893
11
169.1000009999999918
21
-85.8500019999999893
0
LINE
8
BLACK
6
CONTINUOUS
10
169.1000009999999918
20
-85.8500019999999893
11
169.0043299999999817
21
-85.8309720000000027
0
LINE
8
BLACK
6
CONTINUOUS
10
169.0043299999999817
20
-85.8309720000000027
11
168.9232240000000047
21
-85.7767789999999906
0
LINE
8
BLACK
6
CONTINUOUS
10
168.9232240000000047
20
-85.7767789999999906
11
168.8690309999999783
21
-85.6956729999999993
0
LINE
8
BLACK
6
CONTINUOUS
10
168.8690309999999783
20
-85.6956729999999993
11
168.8500009999999918
21
-85.6000019999999893
0
LINE
8
BLACK
6
CONTINUOUS
10
168.8500009999999918
20
-85.6000019999999893
11
168.8500009999999918
21
-83.4000020000000006
0
LINE
8
BLACK
6
CONTINUOUS
10
168.8500009999999918
20
-83.4000020000000006
11
168.8690309999999783
21
-83.3043309999999906
0
LINE
8
BLACK
6
CONTINUOUS
10
168.8690309999999783
20
-83.3043309999999906
11
168.9232240000000047
21
-83.2232249999999993
0
LINE
8
BLACK
6
CONTINUOUS
10
168.9232240000000047
20
-83.2232249999999993
11
169.0043299999999817
21
-83.1690320000000014
0
LINE
8
BLACK
6
CONTINUOUS
10
169.0043299999999817
20
-83.1690320000000014
11
169.1000009999999918
21
-83.1500020000000006
0
LINE
8
BLACK
6
CONTINUOUS
10
169.1000009999999918
20
-83.1500020000000006
11
170.1000009999999918
21
-83.1500020000000006
0
LINE
8
BLACK
6
CONTINUOUS
10
170.1000009999999918
20
-83.1500020000000006
11
170.1956720000000018
21
-83.1690320000000014
0
LINE
8
BLACK
6
CONTINUOUS
10
174.9956699999999898
20
-83.1690279999999973
11
175.0767759999999953
21
-83.2232209999999952
0
LINE
8
BLACK
6
CONTINUOUS
10
175.0767759999999953
20
-83.2232209999999952
11
175.1309689999999932
21
-83.3043270000000007
0
LINE
8
BLACK
6
CONTINUOUS
10
175.1309689999999932
20
-83.3043270000000007
11
175.1499989999999798
21
-83.3999979999999965
0
LINE
8
BLACK
6
CONTINUOUS
10
175.1499989999999798
20
-83.3999979999999965
11
175.1499989999999798
21
-85.5999979999999994
0
LINE
8
BLACK
6
CONTINUOUS
10
175.1499989999999798
20
-85.5999979999999994
11
175.1309689999999932
21
-85.6956689999999952
0
LINE
8
BLACK
6
CONTINUOUS
10
175.1309689999999932
20
-85.6956689999999952
11
175.0767759999999953
21
-85.7767750000000007
0
LINE
8
BLACK
6
CONTINUOUS
10
175.0767759999999953
20
-85.7767750000000007
11
174.9956699999999898
21
-85.8309679999999986
0
LINE
8
BLACK
6
CONTINUOUS
10
174.9956699999999898
20
-85.8309679999999986
11
174.8999989999999798
21
-85.8499979999999994
0
LINE
8
BLACK
6
CONTINUOUS
10
174.8999989999999798
20
-85.8499979999999994
11
173.8999989999999798
21
-85.8499979999999994
0
LINE
8
BLACK
6
CONTINUOUS
10
173.8999989999999798
20
-85.8499979999999994
11
173.8043279999999982
21
-85.8309679999999986
0
LINE
8
BLACK
6
CONTINUOUS
10
173.8043279999999982
20
-85.8309679999999986
11
173.7232219999999927
21
-85.7767750000000007
0
LINE
8
BLACK
6
CONTINUOUS
10
173.7232219999999927
20
-85.7767750000000007
11
173.6690289999999948
21
-85.6956689999999952
0
LINE
8
BLACK
6
CONTINUOUS
10
173.6690289999999948
20
-85.6956689999999952
11
173.6499989999999798
21
-85.5999979999999994
0
LINE
8
BLACK
6
CONTINUOUS
10
173.6499989999999798
20
-85.5999979999999994
11
173.6499989999999798
21
-83.3999979999999965
0
LINE
8
BLACK
6
CONTINUOUS
10
173.6499989999999798
20
-83.3999979999999965
11
173.6690289999999948
21
-83.3043270000000007
0
LINE
8
BLACK
6
CONTINUOUS
10
173.6690289999999948
20
-83.3043270000000007
11
173.7232219999999927
21
-83.2232209999999952
0
LINE
8
BLACK
6
CONTINUOUS
10
173.7232219999999927
20
-83.2232209999999952
11
173.8043279999999982
21
-83.1690279999999973
0
LINE
8
BLACK
6
CONTINUOUS
10
173.8043279999999982
20
-83.1690279999999973
11
173.8999989999999798
21
-83.1499979999999965
0
LINE
8
BLACK
6
CONTINUOUS
10
173.8999989999999798
20
-83.1499979999999965
11
174.8999989999999798
21
-83.1499979999999965
0
LINE
8
BLACK
6
CONTINUOUS
10
174.8999989999999798
20
-83.1499979999999965
11
174.9956699999999898
21
-83.1690279999999973
0
LINE
8
BLACK
6
CONTINUOUS
10
216.8283879999999897
20
-83.5930819999999954
11
216.9054390000000012
21
-83.6445650000000001
0
LINE
8
BLACK
6
CONTINUOUS
10
216.9054390000000012
20
-83.6445650000000001
11
216.9569219999999916
21
-83.7216159999999974
0
LINE
8
BLACK
6
CONTINUOUS
10
216.9569219999999916
20
-83.7216159999999974
11
216.9750009999999918
21
-83.8125029999999924
0
LINE
8
BLACK
6
CONTINUOUS
10
216.9750009999999918
20
-83.8125029999999924
11
216.9750009999999918
21
-84.412503000000001
0
LINE
8
BLACK
6
CONTINUOUS
10
216.9750009999999918
20
-84.412503000000001
11
216.9569219999999916
21
-84.503389999999996
0
LINE
8
BLACK
6
CONTINUOUS
10
216.9569219999999916
20
-84.503389999999996
11
216.9054390000000012
21
-84.5804409999999933
0
LINE
8
BLACK
6
CONTINUOUS
10
216.9054390000000012
20
-84.5804409999999933
11
216.8283879999999897
21
-84.6319239999999979
0
LINE
8
BLACK
6
CONTINUOUS
10
216.8283879999999897
20
-84.6319239999999979
11
216.7375009999999804
21
-84.6500029999999981
0
LINE
8
BLACK
6
CONTINUOUS
10
216.7375009999999804
20
-84.6500029999999981
11
216.2625009999999861
21
-84.6500029999999981
0
LINE
8
BLACK
6
CONTINUOUS
10
216.2625009999999861
20
-84.6500029999999981
11
216.1716139999999768
21
-84.6319239999999979
0
LINE
8
BLACK
6
CONTINUOUS
10
216.1716139999999768
20
-84.6319239999999979
11
216.0945629999999937
21
-84.5804409999999933
0
LINE
8
BLACK
6
CONTINUOUS
10
216.0945629999999937
20
-84.5804409999999933
11
216.0430800000000033
21
-84.503389999999996
0
LINE
8
BLACK
6
CONTINUOUS
10
216.0430800000000033
20
-84.503389999999996
11
216.0250010000000032
21
-84.412503000000001
0
LINE
8
BLACK
6
CONTINUOUS
10
216.0250010000000032
20
-84.412503000000001
11
216.0250010000000032
21
-83.8125029999999924
0
LINE
8
BLACK
6
CONTINUOUS
10
216.0250010000000032
20
-83.8125029999999924
11
216.0430800000000033
21
-83.7216159999999974
0
LINE
8
BLACK
6
CONTINUOUS
10
216.0430800000000033
20
-83.7216159999999974
11
216.0945629999999937
21
-83.6445650000000001
0
LINE
8
BLACK
6
CONTINUOUS
10
216.0945629999999937
20
-83.6445650000000001
11
216.1716139999999768
21
-83.5930819999999954
0
LINE
8
BLACK
6
CONTINUOUS
10
216.1716139999999768
20
-83.5930819999999954
11
216.2625009999999861
21
-83.5750029999999953
0
LINE
8
BLACK
6
CONTINUOUS
10
216.2625009999999861
20
-83.5750029999999953
11
216.7375009999999804
21
-83.5750029999999953
0
LINE
8
BLACK
6
CONTINUOUS
10
216.7375009999999804
20
-83.5750029999999953
11
216.8283879999999897
21
-83.5930819999999954
0
LINE
8
BLACK
6
CONTINUOUS
10
219.5783869999999922
20
-83.5930800000000005
11
219.6554380000000037
21
-83.6445629999999909
0
LINE
8
BLACK
6
CONTINUOUS
10
219.6554380000000037
20
-83.6445629999999909
11
219.7069209999999941
21
-83.7216140000000024
0
LINE
8
BLACK
6
CONTINUOUS
10
219.7069209999999941
20
-83.7216140000000024
11
219.7249999999999943
21
-83.8125009999999975
0
LINE
8
BLACK
6
CONTINUOUS
10
219.7249999999999943
20
-83.8125009999999975
11
219.7249999999999943
21
-84.4125009999999918
0
LINE
8
BLACK
6
CONTINUOUS
10
219.7249999999999943
20
-84.4125009999999918
11
219.7069209999999941
21
-84.5033880000000011
0
LINE
8
BLACK
6
CONTINUOUS
10
219.7069209999999941
20
-84.5033880000000011
11
219.6554380000000037
21
-84.5804389999999984
0
LINE
8
BLACK
6
CONTINUOUS
10
219.6554380000000037
20
-84.5804389999999984
11
219.5783869999999922
21
-84.631922000000003
0
LINE
8
BLACK
6
CONTINUOUS
10
219.5783869999999922
20
-84.631922000000003
11
219.4874999999999829
21
-84.6500010000000032
0
LINE
8
BLACK
6
CONTINUOUS
10
219.4874999999999829
20
-84.6500010000000032
11
219.0124999999999886
21
-84.6500010000000032
0
LINE
8
BLACK
6
CONTINUOUS
10
219.0124999999999886
20
-84.6500010000000032
11
218.9216129999999794
21
-84.631922000000003
0
LINE
8
BLACK
6
CONTINUOUS
10
218.9216129999999794
20
-84.631922000000003
11
218.8445619999999963
21
-84.5804389999999984
0
LINE
8
BLACK
6
CONTINUOUS
10
218.8445619999999963
20
-84.5804389999999984
11
218.7930789999999774
21
-84.5033880000000011
0
LINE
8
BLACK
6
CONTINUOUS
10
218.7930789999999774
20
-84.5033880000000011
11
218.7749999999999773
21
-84.4125009999999918
0
LINE
8
BLACK
6
CONTINUOUS
10
218.7749999999999773
20
-84.4125009999999918
11
218.7749999999999773
21
-83.8125009999999975
0
LINE
8
BLACK
6
CONTINUOUS
10
218.7749999999999773
20
-83.8125009999999975
11
218.7930789999999774
21
-83.7216140000000024
0
LINE
8
BLACK
6
CONTINUOUS
10
218.7930789999999774
20
-83.7216140000000024
11
218.8445619999999963
21
-83.6445629999999909
0
LINE
8
BLACK
6
CONTINUOUS
10
218.8445619999999963
20
-83.6445629999999909
11
218.9216129999999794
21
-83.5930800000000005
0
LINE
8
BLACK
6
CONTINUOUS
10
218.9216129999999794
20
-83.5930800000000005
11
219.0124999999999886
21
-83.5750010000000003
0
LINE
8
BLACK
6
CONTINUOUS
10
219.0124999999999886
20
-83.5750010000000003
11
219.4874999999999829
21
-83.5750010000000003
0
LINE
8
BLACK
6
CONTINUOUS
10
219.4874999999999829
20
-83.5750010000000003
11
219.5783869999999922
21
-83.5930800000000005
0
LINE
8
BLACK
6
CONTINUOUS
10
212.3220509999999877
20
-83.2232630000000029
11
212.4031569999999931
21
-83.2774560000000008
0
LINE
8
BLACK
6
CONTINUOUS
10
212.4031569999999931
20
-83.2774560000000008
11
212.457349999999991
21
-83.3585619999999921
0
LINE
8
BLACK
6
CONTINUOUS
10
212.457349999999991
20
-83.3585619999999921
11
212.4763799999999776
21
-83.4542330000000021
0
LINE
8
BLACK
6
CONTINUOUS
10
212.4763799999999776
20
-83.4542330000000021
11
212.4763799999999776
21
-84.3542329999999936
0
LINE
8
BLACK
6
CONTINUOUS
10
212.4763799999999776
20
-84.3542329999999936
11
212.457349999999991
21
-84.4499039999999894
0
LINE
8
BLACK
6
CONTINUOUS
10
212.457349999999991
20
-84.4499039999999894
11
212.4031569999999931
21
-84.5310099999999949
0
LINE
8
BLACK
6
CONTINUOUS
10
212.4031569999999931
20
-84.5310099999999949
11
212.3220509999999877
21
-84.5852029999999928
0
LINE
8
BLACK
6
CONTINUOUS
10
212.3220509999999877
20
-84.5852029999999928
11
212.2263799999999776
21
-84.6042329999999936
0
LINE
8
BLACK
6
CONTINUOUS
10
212.2263799999999776
20
-84.6042329999999936
11
211.526379999999989
21
-84.6042329999999936
0
LINE
8
BLACK
6
CONTINUOUS
10
211.526379999999989
20
-84.6042329999999936
11
211.4307089999999789
21
-84.5852029999999928
0
LINE
8
BLACK
6
CONTINUOUS
10
211.4307089999999789
20
-84.5852029999999928
11
211.3496030000000019
21
-84.5310099999999949
0
LINE
8
BLACK
6
CONTINUOUS
10
211.3496030000000019
20
-84.5310099999999949
11
211.2954100000000039
21
-84.4499039999999894
0
LINE
8
BLACK
6
CONTINUOUS
10
211.2954100000000039
20
-84.4499039999999894
11
211.276379999999989
21
-84.3542329999999936
0
LINE
8
BLACK
6
CONTINUOUS
10
211.276379999999989
20
-84.3542329999999936
11
211.276379999999989
21
-83.4542330000000021
0
LINE
8
BLACK
6
CONTINUOUS
10
211.276379999999989
20
-83.4542330000000021
11
211.2954100000000039
21
-83.3585619999999921
0
LINE
8
BLACK
6
CONTINUOUS
10
211.2954100000000039
20
-83.3585619999999921
11
211.3496030000000019
21
-83.2774560000000008
0
LINE
8
BLACK
6
CONTINUOUS
10
211.3496030000000019
20
-83.2774560000000008
11
211.4307089999999789
21
-83.2232630000000029
0
LINE
8
BLACK
6
CONTINUOUS
10
211.4307089999999789
20
-83.2232630000000029
11
211.526379999999989
21
-83.2042330000000021
0
LINE
8
BLACK
6
CONTINUOUS
10
211.526379999999989
20
-83.2042330000000021
11
212.2263799999999776
21
-83.2042330000000021
0
LINE
8
BLACK
6
CONTINUOUS
10
212.2263799999999776
20
-83.2042330000000021
11
212.3220509999999877
21
-83.2232630000000029
0
LINE
8
BLACK
6
CONTINUOUS
10
214.3220509999999877
20
-83.2232630000000029
11
214.4031569999999931
21
-83.2774560000000008
0
LINE
8
BLACK
6
CONTINUOUS
10
214.4031569999999931
20
-83.2774560000000008
11
214.457349999999991
21
-83.3585619999999921
0
LINE
8
BLACK
6
CONTINUOUS
10
214.457349999999991
20
-83.3585619999999921
11
214.4763799999999776
21
-83.4542330000000021
0
LINE
8
BLACK
6
CONTINUOUS
10
214.4763799999999776
20
-83.4542330000000021
11
214.4763799999999776
21
-84.3542329999999936
0
LINE
8
BLACK
6
CONTINUOUS
10
214.4763799999999776
20
-84.3542329999999936
11
214.457349999999991
21
-84.4499039999999894
0
LINE
8
BLACK
6
CONTINUOUS
10
214.457349999999991
20
-84.4499039999999894
11
214.4031569999999931
21
-84.5310099999999949
0
LINE
8
BLACK
6
CONTINUOUS
10
214.4031569999999931
20
-84.5310099999999949
11
214.3220509999999877
21
-84.5852029999999928
0
LINE
8
BLACK
6
CONTINUOUS
10
214.3220509999999877
20
-84.5852029999999928
11
214.2263799999999776
21
-84.6042329999999936
0
LINE
8
BLACK
6
CONTINUOUS
10
214.2263799999999776
20
-84.6042329999999936
11
213.526379999999989
21
-84.6042329999999936
0
LINE
8
BLACK
6
CONTINUOUS
10
213.526379999999989
20
-84.6042329999999936
11
213.4307089999999789
21
-84.5852029999999928
0
LINE
8
BLACK
6
CONTINUOUS
10
213.4307089999999789
20
-84.5852029999999928
11
213.3496030000000019
21
-84.5310099999999949
0
LINE
8
BLACK
6
CONTINUOUS
10
213.3496030000000019
20
-84.5310099999999949
11
213.2954100000000039
21
-84.4499039999999894
0
LINE
8
BLACK
6
CONTINUOUS
10
213.2954100000000039
20
-84.4499039999999894
11
213.276379999999989
21
-84.3542329999999936
0
LINE
8
BLACK
6
CONTINUOUS
10
213.276379999999989
20
-84.3542329999999936
11
213.276379999999989
21
-83.4542330000000021
0
LINE
8
BLACK
6
CONTINUOUS
10
213.276379999999989
20
-83.4542330000000021
11
213.2954100000000039
21
-83.3585619999999921
0
LINE
8
BLACK
6
CONTINUOUS
10
213.2954100000000039
20
-83.3585619999999921
11
213.3496030000000019
21
-83.2774560000000008
0
LINE
8
BLACK
6
CONTINUOUS
10
213.3496030000000019
20
-83.2774560000000008
11
213.4307089999999789
21
-83.2232630000000029
0
LINE
8
BLACK
6
CONTINUOUS
10
213.4307089999999789
20
-83.2232630000000029
11
213.526379999999989
21
-83.2042330000000021
0
LINE
8
BLACK
6
CONTINUOUS
10
213.526379999999989
20
-83.2042330000000021
11
214.2263799999999776
21
-83.2042330000000021
0
LINE
8
BLACK
6
CONTINUOUS
10
214.2263799999999776
20
-83.2042330000000021
11
214.3220509999999877
21
-83.2232630000000029
0
LINE
8
BLACK
6
CONTINUOUS
10
222.9456709999999759
20
-82.1190299999999951
11
223.0267769999999814
21
-82.173222999999993
0
LINE
8
BLACK
6
CONTINUOUS
10
223.0267769999999814
20
-82.173222999999993
11
223.0809699999999793
21
-82.2543289999999985
0
LINE
8
BLACK
6
CONTINUOUS
10
223.0809699999999793
20
-82.2543289999999985
11
223.0999999999999943
21
-82.3499999999999943
0
LINE
8
BLACK
6
CONTINUOUS
10
223.0999999999999943
20
-82.3499999999999943
11
223.0999999999999943
21
-83.25
0
LINE
8
BLACK
6
CONTINUOUS
10
223.0999999999999943
20
-83.25
11
223.0809699999999793
21
-83.3456709999999958
0
LINE
8
BLACK
6
CONTINUOUS
10
223.0809699999999793
20
-83.3456709999999958
11
223.0267769999999814
21
-83.4267770000000013
0
LINE
8
BLACK
6
CONTINUOUS
10
223.0267769999999814
20
-83.4267770000000013
11
222.9456709999999759
21
-83.4809699999999992
0
LINE
8
BLACK
6
CONTINUOUS
10
222.9456709999999759
20
-83.4809699999999992
11
222.8499999999999943
21
-83.5
0
LINE
8
BLACK
6
CONTINUOUS
10
222.8499999999999943
20
-83.5
11
222.1499999999999773
21
-83.5
0
LINE
8
BLACK
6
CONTINUOUS
10
222.1499999999999773
20
-83.5
11
222.0543289999999956
21
-83.4809699999999992
0
LINE
8
BLACK
6
CONTINUOUS
10
222.0543289999999956
20
-83.4809699999999992
11
221.9732229999999902
21
-83.4267770000000013
0
LINE
8
BLACK
6
CONTINUOUS
10
221.9732229999999902
20
-83.4267770000000013
11
221.9190299999999922
21
-83.3456709999999958
0
LINE
8
BLACK
6
CONTINUOUS
10
221.9190299999999922
20
-83.3456709999999958
11
221.8999999999999773
21
-83.25
0
LINE
8
BLACK
6
CONTINUOUS
10
221.8999999999999773
20
-83.25
11
221.8999999999999773
21
-82.3499999999999943
0
LINE
8
BLACK
6
CONTINUOUS
10
221.8999999999999773
20
-82.3499999999999943
11
221.9190299999999922
21
-82.2543289999999985
0
LINE
8
BLACK
6
CONTINUOUS
10
221.9190299999999922
20
-82.2543289999999985
11
221.9732229999999902
21
-82.173222999999993
0
LINE
8
BLACK
6
CONTINUOUS
10
221.9732229999999902
20
-82.173222999999993
11
222.0543289999999956
21
-82.1190299999999951
0
LINE
8
BLACK
6
CONTINUOUS
10
222.0543289999999956
20
-82.1190299999999951
11
222.1499999999999773
21
-82.0999999999999943
0
LINE
8
BLACK
6
CONTINUOUS
10
222.1499999999999773
20
-82.0999999999999943
11
222.8499999999999943
21
-82.0999999999999943
0
LINE
8
BLACK
6
CONTINUOUS
10
222.8499999999999943
20
-82.0999999999999943
11
222.9456709999999759
21
-82.1190299999999951
0
LINE
8
BLACK
6
CONTINUOUS
10
224.9456709999999759
20
-82.1190299999999951
11
225.0267769999999814
21
-82.173222999999993
0
LINE
8
BLACK
6
CONTINUOUS
10
225.0267769999999814
20
-82.173222999999993
11
225.0809699999999793
21
-82.2543289999999985
0
LINE
8
BLACK
6
CONTINUOUS
10
225.0809699999999793
20
-82.2543289999999985
11
225.0999999999999943
21
-82.3499999999999943
0
LINE
8
BLACK
6
CONTINUOUS
10
225.0999999999999943
20
-82.3499999999999943
11
225.0999999999999943
21
-83.25
0
LINE
8
BLACK
6
CONTINUOUS
10
225.0999999999999943
20
-83.25
11
225.0809699999999793
21
-83.3456709999999958
0
LINE
8
BLACK
6
CONTINUOUS
10
225.0809699999999793
20
-83.3456709999999958
11
225.0267769999999814
21
-83.4267770000000013
0
LINE
8
BLACK
6
CONTINUOUS
10
225.0267769999999814
20
-83.4267770000000013
11
224.9456709999999759
21
-83.4809699999999992
0
LINE
8
BLACK
6
CONTINUOUS
10
224.9456709999999759
20
-83.4809699999999992
11
224.8499999999999943
21
-83.5
0
LINE
8
BLACK
6
CONTINUOUS
10
224.8499999999999943
20
-83.5
11
224.1499999999999773
21
-83.5
0
LINE
8
BLACK
6
CONTINUOUS
10
224.1499999999999773
20
-83.5
11
224.0543289999999956
21
-83.4809699999999992
0
LINE
8
BLACK
6
CONTINUOUS
10
224.0543289999999956
20
-83.4809699999999992
11
223.9732229999999902
21
-83.4267770000000013
0
LINE
8
BLACK
6
CONTINUOUS
10
223.9732229999999902
20
-83.4267770000000013
11
223.9190299999999922
21
-83.3456709999999958
0
LINE
8
BLACK
6
CONTINUOUS
10
223.9190299999999922
20
-83.3456709999999958
11
223.8999999999999773
21
-83.25
0
LINE
8
BLACK
6
CONTINUOUS
10
223.8999999999999773
20
-83.25
11
223.8999999999999773
21
-82.3499999999999943
0
LINE
8
BLACK
6
CONTINUOUS
10
223.8999999999999773
20
-82.3499999999999943
11
223.9190299999999922
21
-82.2543289999999985
0
LINE
8
BLACK
6
CONTINUOUS
10
223.9190299999999922
20
-82.2543289999999985
11
223.9732229999999902
21
-82.173222999999993
0
LINE
8
BLACK
6
CONTINUOUS
10
223.9732229999999902
20
-82.173222999999993
11
224.0543289999999956
21
-82.1190299999999951
0
LINE
8
BLACK
6
CONTINUOUS
10
224.0543289999999956
20
-82.1190299999999951
11
224.1499999999999773
21
-82.0999999999999943
0
LINE
8
BLACK
6
CONTINUOUS
10
224.1499999999999773
20
-82.0999999999999943
11
224.8499999999999943
21
-82.0999999999999943
0
LINE
8
BLACK
6
CONTINUOUS
10
224.8499999999999943
20
-82.0999999999999943
11
224.9456709999999759
21
-82.1190299999999951
0
LINE
8
BLACK
6
CONTINUOUS
10
219.5783869999999922
20
-81.868077999999997
11
219.6554380000000037
21
-81.9195610000000016
0
LINE
8
BLACK
6
CONTINUOUS
10
219.6554380000000037
20
-81.9195610000000016
11
219.7069209999999941
21
-81.9966119999999989
0
LINE
8
BLACK
6
CONTINUOUS
10
219.7069209999999941
20
-81.9966119999999989
11
219.7249999999999943
21
-82.087498999999994
0
LINE
8
BLACK
6
CONTINUOUS
10
219.7249999999999943
20
-82.087498999999994
11
219.7249999999999943
21
-82.6874990000000025
0
LINE
8
BLACK
6
CONTINUOUS
10
219.7249999999999943
20
-82.6874990000000025
11
219.7069209999999941
21
-82.7783859999999976
0
LINE
8
BLACK
6
CONTINUOUS
10
219.7069209999999941
20
-82.7783859999999976
11
219.6554380000000037
21
-82.8554369999999949
0
LINE
8
BLACK
6
CONTINUOUS
10
219.6554380000000037
20
-82.8554369999999949
11
219.5783869999999922
21
-82.9069199999999995
0
LINE
8
BLACK
6
CONTINUOUS
10
219.5783869999999922
20
-82.9069199999999995
11
219.4874999999999829
21
-82.9249989999999997
0
LINE
8
BLACK
6
CONTINUOUS
10
219.4874999999999829
20
-82.9249989999999997
11
219.0124999999999886
21
-82.9249989999999997
0
LINE
8
BLACK
6
CONTINUOUS
10
219.0124999999999886
20
-82.9249989999999997
11
218.9216129999999794
21
-82.9069199999999995
0
LINE
8
BLACK
6
CONTINUOUS
10
218.9216129999999794
20
-82.9069199999999995
11
218.8445619999999963
21
-82.8554369999999949
0
LINE
8
BLACK
6
CONTINUOUS
10
218.8445619999999963
20
-82.8554369999999949
11
218.7930789999999774
21
-82.7783859999999976
0
LINE
8
BLACK
6
CONTINUOUS
10
218.7930789999999774
20
-82.7783859999999976
11
218.7749999999999773
21
-82.6874990000000025
0
LINE
8
BLACK
6
CONTINUOUS
10
218.7749999999999773
20
-82.6874990000000025
11
218.7749999999999773
21
-82.087498999999994
0
LINE
8
BLACK
6
CONTINUOUS
10
218.7749999999999773
20
-82.087498999999994
11
218.7930789999999774
21
-81.9966119999999989
0
LINE
8
BLACK
6
CONTINUOUS
10
218.7930789999999774
20
-81.9966119999999989
11
218.8445619999999963
21
-81.9195610000000016
0
LINE
8
BLACK
6
CONTINUOUS
10
218.8445619999999963
20
-81.9195610000000016
11
218.9216129999999794
21
-81.868077999999997
0
LINE
8
BLACK
6
CONTINUOUS
10
218.9216129999999794
20
-81.868077999999997
11
219.0124999999999886
21
-81.8499989999999968
0
LINE
8
BLACK
6
CONTINUOUS
10
219.0124999999999886
20
-81.8499989999999968
11
219.4874999999999829
21
-81.8499989999999968
0
LINE
8
BLACK
6
CONTINUOUS
10
219.4874999999999829
20
-81.8499989999999968
11
219.5783869999999922
21
-81.868077999999997
0
LINE
8
BLACK
6
CONTINUOUS
10
216.8283859999999947
20
-81.8680760000000021
11
216.9054369999999778
21
-81.9195589999999925
0
LINE
8
BLACK
6
CONTINUOUS
10
216.9054369999999778
20
-81.9195589999999925
11
216.9569199999999967
21
-81.9966099999999898
0
LINE
8
BLACK
6
CONTINUOUS
10
216.9569199999999967
20
-81.9966099999999898
11
216.9749989999999968
21
-82.087496999999999
0
LINE
8
BLACK
6
CONTINUOUS
10
216.9749989999999968
20
-82.087496999999999
11
216.9749989999999968
21
-82.6874969999999934
0
LINE
8
BLACK
6
CONTINUOUS
10
216.9749989999999968
20
-82.6874969999999934
11
216.9569199999999967
21
-82.7783840000000026
0
LINE
8
BLACK
6
CONTINUOUS
10
216.9569199999999967
20
-82.7783840000000026
11
216.9054369999999778
21
-82.8554349999999999
0
LINE
8
BLACK
6
CONTINUOUS
10
216.9054369999999778
20
-82.8554349999999999
11
216.8283859999999947
21
-82.9069179999999903
0
LINE
8
BLACK
6
CONTINUOUS
10
216.8283859999999947
20
-82.9069179999999903
11
216.7374989999999855
21
-82.9249969999999905
0
LINE
8
BLACK
6
CONTINUOUS
10
216.7374989999999855
20
-82.9249969999999905
11
216.2624989999999912
21
-82.9249969999999905
0
LINE
8
BLACK
6
CONTINUOUS
10
216.2624989999999912
20
-82.9249969999999905
11
216.1716119999999819
21
-82.9069179999999903
0
LINE
8
BLACK
6
CONTINUOUS
10
216.1716119999999819
20
-82.9069179999999903
11
216.0945609999999988
21
-82.8554349999999999
0
LINE
8
BLACK
6
CONTINUOUS
10
216.0945609999999988
20
-82.8554349999999999
11
216.04307799999998
21
-82.7783840000000026
0
LINE
8
BLACK
6
CONTINUOUS
10
216.04307799999998
20
-82.7783840000000026
11
216.0249989999999798
21
-82.6874969999999934
0
LINE
8
BLACK
6
CONTINUOUS
10
216.0249989999999798
20
-82.6874969999999934
11
216.0249989999999798
21
-82.087496999999999
0
LINE
8
BLACK
6
CONTINUOUS
10
216.0249989999999798
20
-82.087496999999999
11
216.04307799999998
21
-81.9966099999999898
0
LINE
8
BLACK
6
CONTINUOUS
10
216.04307799999998
20
-81.9966099999999898
11
216.0945609999999988
21
-81.9195589999999925
0
LINE
8
BLACK
6
CONTINUOUS
10
216.0945609999999988
20
-81.9195589999999925
11
216.1716119999999819
21
-81.8680760000000021
0
LINE
8
BLACK
6
CONTINUOUS
10
216.1716119999999819
20
-81.8680760000000021
11
216.2624989999999912
21
-81.8499970000000019
0
LINE
8
BLACK
6
CONTINUOUS
10
216.2624989999999912
20
-81.8499970000000019
11
216.7374989999999855
21
-81.8499970000000019
0
LINE
8
BLACK
6
CONTINUOUS
10
216.7374989999999855
20
-81.8499970000000019
11
216.8283859999999947
21
-81.8680760000000021
  0
ENDSEC
  0
EOF
