  0
SECTION
  2
HEADER
  9
$ANGBASE
  50
0.0
  9
$ANGDIR
  70
1
  9
$MEASUREMENT
  70
1
  0
ENDSEC
  0
SECTION
  2
TABLES
  0
TABLE
  2
LTYPE
  70
4
  0
LTYPE
  5
40F
  2
CONTINUOUS
  70
0
  3
Solid line
  72
65
  73
0
  40
0.0
  0
LTYPE
  5
410
  2
DASHDOT
 70
0
  3
Dash Dot ____ _ ____ _
 72
65
 73
4
 40
2.0
 49
1.25
 49
-0.25
 49
0.25
 49
-0.25
  0
LTYPE
  5
411
  2
DASHED
 70
0
  3
Dashed __ __ __ __ __
 72
65
 73
2
 40
0.75
 49
0.5
 49
-0.25
  0
LTYPE
  5
43B
  2
DOTTED
 70
0
  3
Dotted .  .  .  .
 72
65
 73
2
 40
0.2
 49
0.0
 49
-0.2
  0
ENDTAB
  0
TABLE
  2
STYLE
  70
4
  0
STYLE
  2
KICAD
  70
0
  40
0
  41
1
  42
1
  50
0
  71
0
  3
isocp.shx
  0
STYLE
  2
KICADB
  70
0
  40
0
  41
1
  42
1
  50
0
  71
0
  3
isocp.shx
  0
STYLE
  2
KICADI
  70
0
  40
0
  41
1
  42
1
  50
15
  71
0
  3
isocp.shx
  0
STYLE
  2
KICADBI
  70
0
  40
0
  41
1
  42
1
  50
15
  71
0
  3
isocp.shx
  0
ENDTAB
  0
TABLE
  2
LAYER
  70
35
  0
LAYER
  2
BLACK
  70
0
  62
7
  6
CONTINUOUS
  0
LAYER
  2
GRAY1
  70
0
  62
251
  6
CONTINUOUS
  0
LAYER
  2
GRAY2
  70
0
  62
8
  6
CONTINUOUS
  0
LAYER
  2
GRAY3
  70
0
  62
9
  6
CONTINUOUS
  0
LAYER
  2
WHITE
  70
0
  62
7
  6
CONTINUOUS
  0
LAYER
  2
LYELLOW
  70
0
  62
51
  6
CONTINUOUS
  0
LAYER
  2
LORANGE
  70
0
  62
41
  6
CONTINUOUS
  0
LAYER
  2
BLUE1
  70
0
  62
178
  6
CONTINUOUS
  0
LAYER
  2
GREEN1
  70
0
  62
98
  6
CONTINUOUS
  0
LAYER
  2
CYAN1
  70
0
  62
138
  6
CONTINUOUS
  0
LAYER
  2
RED1
  70
0
  62
18
  6
CONTINUOUS
  0
LAYER
  2
MAGENTA1
  70
0
  62
228
  6
CONTINUOUS
  0
LAYER
  2
BROWN1
  70
0
  62
58
  6
CONTINUOUS
  0
LAYER
  2
ORANGE1
  70
0
  62
34
  6
CONTINUOUS
  0
LAYER
  2
BLUE2
  70
0
  62
5
  6
CONTINUOUS
  0
LAYER
  2
GREEN2
  70
0
  62
3
  6
CONTINUOUS
  0
LAYER
  2
CYAN2
  70
0
  62
4
  6
CONTINUOUS
  0
LAYER
  2
RED2
  70
0
  62
1
  6
CONTINUOUS
  0
LAYER
  2
MAGENTA2
  70
0
  62
6
  6
CONTINUOUS
  0
LAYER
  2
BROWN2
  70
0
  62
54
  6
CONTINUOUS
  0
LAYER
  2
ORANGE2
  70
0
  62
42
  6
CONTINUOUS
  0
LAYER
  2
BLUE3
  70
0
  62
171
  6
CONTINUOUS
  0
LAYER
  2
GREEN3
  70
0
  62
91
  6
CONTINUOUS
  0
LAYER
  2
CYAN3
  70
0
  62
131
  6
CONTINUOUS
  0
LAYER
  2
RED3
  70
0
  62
11
  6
CONTINUOUS
  0
LAYER
  2
MAGENTA3
  70
0
  62
221
  6
CONTINUOUS
  0
LAYER
  2
YELLOW3
  70
0
  62
2
  6
CONTINUOUS
  0
LAYER
  2
ORANGE3
  70
0
  62
32
  6
CONTINUOUS
  0
LAYER
  2
BLUE4
  70
0
  62
5
  6
CONTINUOUS
  0
LAYER
  2
GREEN4
  70
0
  62
3
  6
CONTINUOUS
  0
LAYER
  2
CYAN4
  70
0
  62
4
  6
CONTINUOUS
  0
LAYER
  2
RED4
  70
0
  62
1
  6
CONTINUOUS
  0
LAYER
  2
MAGENTA4
  70
0
  62
6
  6
CONTINUOUS
  0
LAYER
  2
YELLOW4
  70
0
  62
2
  6
CONTINUOUS
  0
LAYER
  2
ORANGE4
  70
0
  62
40
  6
CONTINUOUS
  0
ENDTAB
  0
ENDSEC
  0
SECTION
  2
ENTITIES
0
LINE
8
BLACK
6
CONTINUOUS
10
188.0456709999999987
20
-112.4190299999999922
11
188.1267770000000041
21
-112.4732229999999902
0
LINE
8
BLACK
6
CONTINUOUS
10
188.1267770000000041
20
-112.4732229999999902
11
188.1809700000000021
21
-112.5543289999999956
0
LINE
8
BLACK
6
CONTINUOUS
10
188.1809700000000021
20
-112.5543289999999956
11
188.1999999999999886
21
-112.6499999999999915
0
LINE
8
BLACK
6
CONTINUOUS
10
188.1999999999999886
20
-112.6499999999999915
11
188.1999999999999886
21
-113.3499999999999943
0
LINE
8
BLACK
6
CONTINUOUS
10
188.1999999999999886
20
-113.3499999999999943
11
188.1809700000000021
21
-113.4456709999999902
0
LINE
8
BLACK
6
CONTINUOUS
10
188.1809700000000021
20
-113.4456709999999902
11
188.1267770000000041
21
-113.5267769999999956
0
LINE
8
BLACK
6
CONTINUOUS
10
188.1267770000000041
20
-113.5267769999999956
11
188.0456709999999987
21
-113.5809699999999935
0
LINE
8
BLACK
6
CONTINUOUS
10
188.0456709999999987
20
-113.5809699999999935
11
187.9499999999999886
21
-113.5999999999999943
0
LINE
8
BLACK
6
CONTINUOUS
10
187.9499999999999886
20
-113.5999999999999943
11
187.0499999999999829
21
-113.5999999999999943
0
LINE
8
BLACK
6
CONTINUOUS
10
187.0499999999999829
20
-113.5999999999999943
11
186.9543290000000013
21
-113.5809699999999935
0
LINE
8
BLACK
6
CONTINUOUS
10
186.9543290000000013
20
-113.5809699999999935
11
186.8732229999999959
21
-113.5267769999999956
0
LINE
8
BLACK
6
CONTINUOUS
10
186.8732229999999959
20
-113.5267769999999956
11
186.8190299999999979
21
-113.4456709999999902
0
LINE
8
BLACK
6
CONTINUOUS
10
186.8190299999999979
20
-113.4456709999999902
11
186.7999999999999829
21
-113.3499999999999943
0
LINE
8
BLACK
6
CONTINUOUS
10
186.7999999999999829
20
-113.3499999999999943
11
186.7999999999999829
21
-112.6499999999999915
0
LINE
8
BLACK
6
CONTINUOUS
10
186.7999999999999829
20
-112.6499999999999915
11
186.8190299999999979
21
-112.5543289999999956
0
LINE
8
BLACK
6
CONTINUOUS
10
186.8190299999999979
20
-112.5543289999999956
11
186.8732229999999959
21
-112.4732229999999902
0
LINE
8
BLACK
6
CONTINUOUS
10
186.8732229999999959
20
-112.4732229999999902
11
186.9543290000000013
21
-112.4190299999999922
0
LINE
8
BLACK
6
CONTINUOUS
10
186.9543290000000013
20
-112.4190299999999922
11
187.0499999999999829
21
-112.3999999999999915
0
LINE
8
BLACK
6
CONTINUOUS
10
187.0499999999999829
20
-112.3999999999999915
11
187.9499999999999886
21
-112.3999999999999915
0
LINE
8
BLACK
6
CONTINUOUS
10
187.9499999999999886
20
-112.3999999999999915
11
188.0456709999999987
21
-112.4190299999999922
0
LINE
8
BLACK
6
CONTINUOUS
10
192.7956709999999987
20
-112.4190299999999922
11
192.8767770000000041
21
-112.4732229999999902
0
LINE
8
BLACK
6
CONTINUOUS
10
192.8767770000000041
20
-112.4732229999999902
11
192.9309700000000021
21
-112.5543289999999956
0
LINE
8
BLACK
6
CONTINUOUS
10
192.9309700000000021
20
-112.5543289999999956
11
192.9499999999999886
21
-112.6499999999999915
0
LINE
8
BLACK
6
CONTINUOUS
10
192.9499999999999886
20
-112.6499999999999915
11
192.9499999999999886
21
-113.3499999999999943
0
LINE
8
BLACK
6
CONTINUOUS
10
192.9499999999999886
20
-113.3499999999999943
11
192.9309700000000021
21
-113.4456709999999902
0
LINE
8
BLACK
6
CONTINUOUS
10
192.9309700000000021
20
-113.4456709999999902
11
192.8767770000000041
21
-113.5267769999999956
0
LINE
8
BLACK
6
CONTINUOUS
10
192.8767770000000041
20
-113.5267769999999956
11
192.7956709999999987
21
-113.5809699999999935
0
LINE
8
BLACK
6
CONTINUOUS
10
192.7956709999999987
20
-113.5809699999999935
11
192.6999999999999886
21
-113.5999999999999943
0
LINE
8
BLACK
6
CONTINUOUS
10
192.6999999999999886
20
-113.5999999999999943
11
191.7999999999999829
21
-113.5999999999999943
0
LINE
8
BLACK
6
CONTINUOUS
10
191.7999999999999829
20
-113.5999999999999943
11
191.7043290000000013
21
-113.5809699999999935
0
LINE
8
BLACK
6
CONTINUOUS
10
191.7043290000000013
20
-113.5809699999999935
11
191.6232229999999959
21
-113.5267769999999956
0
LINE
8
BLACK
6
CONTINUOUS
10
191.6232229999999959
20
-113.5267769999999956
11
191.5690299999999979
21
-113.4456709999999902
0
LINE
8
BLACK
6
CONTINUOUS
10
191.5690299999999979
20
-113.4456709999999902
11
191.5499999999999829
21
-113.3499999999999943
0
LINE
8
BLACK
6
CONTINUOUS
10
191.5499999999999829
20
-113.3499999999999943
11
191.5499999999999829
21
-112.6499999999999915
0
LINE
8
BLACK
6
CONTINUOUS
10
191.5499999999999829
20
-112.6499999999999915
11
191.5690299999999979
21
-112.5543289999999956
0
LINE
8
BLACK
6
CONTINUOUS
10
191.5690299999999979
20
-112.5543289999999956
11
191.6232229999999959
21
-112.4732229999999902
0
LINE
8
BLACK
6
CONTINUOUS
10
191.6232229999999959
20
-112.4732229999999902
11
191.7043290000000013
21
-112.4190299999999922
0
LINE
8
BLACK
6
CONTINUOUS
10
191.7043290000000013
20
-112.4190299999999922
11
191.7999999999999829
21
-112.3999999999999915
0
LINE
8
BLACK
6
CONTINUOUS
10
191.7999999999999829
20
-112.3999999999999915
11
192.6999999999999886
21
-112.3999999999999915
0
LINE
8
BLACK
6
CONTINUOUS
10
192.6999999999999886
20
-112.3999999999999915
11
192.7956709999999987
21
-112.4190299999999922
0
LINE
8
BLACK
6
CONTINUOUS
10
157.2956709999999987
20
-111.4190299999999922
11
157.3767770000000041
21
-111.4732229999999902
0
LINE
8
BLACK
6
CONTINUOUS
10
157.3767770000000041
20
-111.4732229999999902
11
157.4309700000000021
21
-111.5543289999999956
0
LINE
8
BLACK
6
CONTINUOUS
10
157.4309700000000021
20
-111.5543289999999956
11
157.4499999999999886
21
-111.6499999999999915
0
LINE
8
BLACK
6
CONTINUOUS
10
157.4499999999999886
20
-111.6499999999999915
11
157.4499999999999886
21
-112.3499999999999943
0
LINE
8
BLACK
6
CONTINUOUS
10
157.4499999999999886
20
-112.3499999999999943
11
157.4309700000000021
21
-112.4456709999999902
0
LINE
8
BLACK
6
CONTINUOUS
10
157.4309700000000021
20
-112.4456709999999902
11
157.3767770000000041
21
-112.5267769999999956
0
LINE
8
BLACK
6
CONTINUOUS
10
157.3767770000000041
20
-112.5267769999999956
11
157.2956709999999987
21
-112.5809699999999935
0
LINE
8
BLACK
6
CONTINUOUS
10
157.2956709999999987
20
-112.5809699999999935
11
157.1999999999999886
21
-112.5999999999999943
0
LINE
8
BLACK
6
CONTINUOUS
10
157.1999999999999886
20
-112.5999999999999943
11
156.2999999999999829
21
-112.5999999999999943
0
LINE
8
BLACK
6
CONTINUOUS
10
156.2999999999999829
20
-112.5999999999999943
11
156.2043290000000013
21
-112.5809699999999935
0
LINE
8
BLACK
6
CONTINUOUS
10
156.2043290000000013
20
-112.5809699999999935
11
156.1232229999999959
21
-112.5267769999999956
0
LINE
8
BLACK
6
CONTINUOUS
10
156.1232229999999959
20
-112.5267769999999956
11
156.0690299999999979
21
-112.4456709999999902
0
LINE
8
BLACK
6
CONTINUOUS
10
156.0690299999999979
20
-112.4456709999999902
11
156.0499999999999829
21
-112.3499999999999943
0
LINE
8
BLACK
6
CONTINUOUS
10
156.0499999999999829
20
-112.3499999999999943
11
156.0499999999999829
21
-111.6499999999999915
0
LINE
8
BLACK
6
CONTINUOUS
10
156.0499999999999829
20
-111.6499999999999915
11
156.0690299999999979
21
-111.5543289999999956
0
LINE
8
BLACK
6
CONTINUOUS
10
156.0690299999999979
20
-111.5543289999999956
11
156.1232229999999959
21
-111.4732229999999902
0
LINE
8
BLACK
6
CONTINUOUS
10
156.1232229999999959
20
-111.4732229999999902
11
156.2043290000000013
21
-111.4190299999999922
0
LINE
8
BLACK
6
CONTINUOUS
10
156.2043290000000013
20
-111.4190299999999922
11
156.2999999999999829
21
-111.3999999999999915
0
LINE
8
BLACK
6
CONTINUOUS
10
156.2999999999999829
20
-111.3999999999999915
11
157.1999999999999886
21
-111.3999999999999915
0
LINE
8
BLACK
6
CONTINUOUS
10
157.1999999999999886
20
-111.3999999999999915
11
157.2956709999999987
21
-111.4190299999999922
0
LINE
8
BLACK
6
CONTINUOUS
10
160.7956709999999987
20
-111.4190299999999922
11
160.8767770000000041
21
-111.4732229999999902
0
LINE
8
BLACK
6
CONTINUOUS
10
160.8767770000000041
20
-111.4732229999999902
11
160.9309700000000021
21
-111.5543289999999956
0
LINE
8
BLACK
6
CONTINUOUS
10
160.9309700000000021
20
-111.5543289999999956
11
160.9499999999999886
21
-111.6499999999999915
0
LINE
8
BLACK
6
CONTINUOUS
10
160.9499999999999886
20
-111.6499999999999915
11
160.9499999999999886
21
-112.3499999999999943
0
LINE
8
BLACK
6
CONTINUOUS
10
160.9499999999999886
20
-112.3499999999999943
11
160.9309700000000021
21
-112.4456709999999902
0
LINE
8
BLACK
6
CONTINUOUS
10
160.9309700000000021
20
-112.4456709999999902
11
160.8767770000000041
21
-112.5267769999999956
0
LINE
8
BLACK
6
CONTINUOUS
10
160.8767770000000041
20
-112.5267769999999956
11
160.7956709999999987
21
-112.5809699999999935
0
LINE
8
BLACK
6
CONTINUOUS
10
160.7956709999999987
20
-112.5809699999999935
11
160.6999999999999886
21
-112.5999999999999943
0
LINE
8
BLACK
6
CONTINUOUS
10
160.6999999999999886
20
-112.5999999999999943
11
159.7999999999999829
21
-112.5999999999999943
0
LINE
8
BLACK
6
CONTINUOUS
10
159.7999999999999829
20
-112.5999999999999943
11
159.7043290000000013
21
-112.5809699999999935
0
LINE
8
BLACK
6
CONTINUOUS
10
159.7043290000000013
20
-112.5809699999999935
11
159.6232229999999959
21
-112.5267769999999956
0
LINE
8
BLACK
6
CONTINUOUS
10
159.6232229999999959
20
-112.5267769999999956
11
159.5690299999999979
21
-112.4456709999999902
0
LINE
8
BLACK
6
CONTINUOUS
10
159.5690299999999979
20
-112.4456709999999902
11
159.5499999999999829
21
-112.3499999999999943
0
LINE
8
BLACK
6
CONTINUOUS
10
159.5499999999999829
20
-112.3499999999999943
11
159.5499999999999829
21
-111.6499999999999915
0
LINE
8
BLACK
6
CONTINUOUS
10
159.5499999999999829
20
-111.6499999999999915
11
159.5690299999999979
21
-111.5543289999999956
0
LINE
8
BLACK
6
CONTINUOUS
10
159.5690299999999979
20
-111.5543289999999956
11
159.6232229999999959
21
-111.4732229999999902
0
LINE
8
BLACK
6
CONTINUOUS
10
159.6232229999999959
20
-111.4732229999999902
11
159.7043290000000013
21
-111.4190299999999922
0
LINE
8
BLACK
6
CONTINUOUS
10
159.7043290000000013
20
-111.4190299999999922
11
159.7999999999999829
21
-111.3999999999999915
0
LINE
8
BLACK
6
CONTINUOUS
10
159.7999999999999829
20
-111.3999999999999915
11
160.6999999999999886
21
-111.3999999999999915
0
LINE
8
BLACK
6
CONTINUOUS
10
160.6999999999999886
20
-111.3999999999999915
11
160.7956709999999987
21
-111.4190299999999922
0
LINE
8
BLACK
6
CONTINUOUS
10
232.4456739999999968
20
-111.0190240000000017
11
232.5267800000000022
21
-111.0732169999999996
0
LINE
8
BLACK
6
CONTINUOUS
10
232.5267800000000022
20
-111.0732169999999996
11
232.5809730000000002
21
-111.1543229999999909
0
LINE
8
BLACK
6
CONTINUOUS
10
232.5809730000000002
20
-111.1543229999999909
11
232.6000029999999867
21
-111.2499940000000009
0
LINE
8
BLACK
6
CONTINUOUS
10
232.6000029999999867
20
-111.2499940000000009
11
232.6000029999999867
21
-112.1499939999999924
0
LINE
8
BLACK
6
CONTINUOUS
10
232.6000029999999867
20
-112.1499939999999924
11
232.5809730000000002
21
-112.2456649999999883
0
LINE
8
BLACK
6
CONTINUOUS
10
232.5809730000000002
20
-112.2456649999999883
11
232.5267800000000022
21
-112.3267709999999937
0
LINE
8
BLACK
6
CONTINUOUS
10
232.5267800000000022
20
-112.3267709999999937
11
232.4456739999999968
21
-112.3809639999999916
0
LINE
8
BLACK
6
CONTINUOUS
10
232.4456739999999968
20
-112.3809639999999916
11
232.3500029999999867
21
-112.3999939999999924
0
LINE
8
BLACK
6
CONTINUOUS
10
232.3500029999999867
20
-112.3999939999999924
11
231.6500029999999981
21
-112.3999939999999924
0
LINE
8
BLACK
6
CONTINUOUS
10
231.6500029999999981
20
-112.3999939999999924
11
231.5543319999999881
21
-112.3809639999999916
0
LINE
8
BLACK
6
CONTINUOUS
10
231.5543319999999881
20
-112.3809639999999916
11
231.4732259999999826
21
-112.3267709999999937
0
LINE
8
BLACK
6
CONTINUOUS
10
231.4732259999999826
20
-112.3267709999999937
11
231.4190329999999847
21
-112.2456649999999883
0
LINE
8
BLACK
6
CONTINUOUS
10
231.4190329999999847
20
-112.2456649999999883
11
231.4000029999999981
21
-112.1499939999999924
0
LINE
8
BLACK
6
CONTINUOUS
10
231.4000029999999981
20
-112.1499939999999924
11
231.4000029999999981
21
-111.2499940000000009
0
LINE
8
BLACK
6
CONTINUOUS
10
231.4000029999999981
20
-111.2499940000000009
11
231.4190329999999847
21
-111.1543229999999909
0
LINE
8
BLACK
6
CONTINUOUS
10
231.4190329999999847
20
-111.1543229999999909
11
231.4732259999999826
21
-111.0732169999999996
0
LINE
8
BLACK
6
CONTINUOUS
10
231.4732259999999826
20
-111.0732169999999996
11
231.5543319999999881
21
-111.0190240000000017
0
LINE
8
BLACK
6
CONTINUOUS
10
231.5543319999999881
20
-111.0190240000000017
11
231.6500029999999981
21
-110.9999940000000009
0
LINE
8
BLACK
6
CONTINUOUS
10
231.6500029999999981
20
-110.9999940000000009
11
232.3500029999999867
21
-110.9999940000000009
0
LINE
8
BLACK
6
CONTINUOUS
10
232.3500029999999867
20
-110.9999940000000009
11
232.4456739999999968
21
-111.0190240000000017
0
LINE
8
BLACK
6
CONTINUOUS
10
234.4456739999999968
20
-111.0190240000000017
11
234.5267800000000022
21
-111.0732169999999996
0
LINE
8
BLACK
6
CONTINUOUS
10
234.5267800000000022
20
-111.0732169999999996
11
234.5809730000000002
21
-111.1543229999999909
0
LINE
8
BLACK
6
CONTINUOUS
10
234.5809730000000002
20
-111.1543229999999909
11
234.6000029999999867
21
-111.2499940000000009
0
LINE
8
BLACK
6
CONTINUOUS
10
234.6000029999999867
20
-111.2499940000000009
11
234.6000029999999867
21
-112.1499939999999924
0
LINE
8
BLACK
6
CONTINUOUS
10
234.6000029999999867
20
-112.1499939999999924
11
234.5809730000000002
21
-112.2456649999999883
0
LINE
8
BLACK
6
CONTINUOUS
10
234.5809730000000002
20
-112.2456649999999883
11
234.5267800000000022
21
-112.3267709999999937
0
LINE
8
BLACK
6
CONTINUOUS
10
234.5267800000000022
20
-112.3267709999999937
11
234.4456739999999968
21
-112.3809639999999916
0
LINE
8
BLACK
6
CONTINUOUS
10
234.4456739999999968
20
-112.3809639999999916
11
234.3500029999999867
21
-112.3999939999999924
0
LINE
8
BLACK
6
CONTINUOUS
10
234.3500029999999867
20
-112.3999939999999924
11
233.6500029999999981
21
-112.3999939999999924
0
LINE
8
BLACK
6
CONTINUOUS
10
233.6500029999999981
20
-112.3999939999999924
11
233.5543319999999881
21
-112.3809639999999916
0
LINE
8
BLACK
6
CONTINUOUS
10
233.5543319999999881
20
-112.3809639999999916
11
233.4732259999999826
21
-112.3267709999999937
0
LINE
8
BLACK
6
CONTINUOUS
10
233.4732259999999826
20
-112.3267709999999937
11
233.4190329999999847
21
-112.2456649999999883
0
LINE
8
BLACK
6
CONTINUOUS
10
233.4190329999999847
20
-112.2456649999999883
11
233.4000029999999981
21
-112.1499939999999924
0
LINE
8
BLACK
6
CONTINUOUS
10
233.4000029999999981
20
-112.1499939999999924
11
233.4000029999999981
21
-111.2499940000000009
0
LINE
8
BLACK
6
CONTINUOUS
10
233.4000029999999981
20
-111.2499940000000009
11
233.4190329999999847
21
-111.1543229999999909
0
LINE
8
BLACK
6
CONTINUOUS
10
233.4190329999999847
20
-111.1543229999999909
11
233.4732259999999826
21
-111.0732169999999996
0
LINE
8
BLACK
6
CONTINUOUS
10
233.4732259999999826
20
-111.0732169999999996
11
233.5543319999999881
21
-111.0190240000000017
0
LINE
8
BLACK
6
CONTINUOUS
10
233.5543319999999881
20
-111.0190240000000017
11
233.6500029999999981
21
-110.9999940000000009
0
LINE
8
BLACK
6
CONTINUOUS
10
233.6500029999999981
20
-110.9999940000000009
11
234.3500029999999867
21
-110.9999940000000009
0
LINE
8
BLACK
6
CONTINUOUS
10
234.3500029999999867
20
-110.9999940000000009
11
234.4456739999999968
21
-111.0190240000000017
0
LINE
8
BLACK
6
CONTINUOUS
10
165.9456710000000044
20
-110.8190299999999979
11
166.0267769999999814
21
-110.8732229999999959
0
LINE
8
BLACK
6
CONTINUOUS
10
166.0267769999999814
20
-110.8732229999999959
11
166.0809699999999793
21
-110.9543290000000013
0
LINE
8
BLACK
6
CONTINUOUS
10
166.0809699999999793
20
-110.9543290000000013
11
166.0999999999999943
21
-111.0499999999999972
0
LINE
8
BLACK
6
CONTINUOUS
10
166.0999999999999943
20
-111.0499999999999972
11
166.0999999999999943
21
-111.9499999999999886
0
LINE
8
BLACK
6
CONTINUOUS
10
166.0999999999999943
20
-111.9499999999999886
11
166.0809699999999793
21
-112.0456709999999987
0
LINE
8
BLACK
6
CONTINUOUS
10
166.0809699999999793
20
-112.0456709999999987
11
166.0267769999999814
21
-112.1267769999999899
0
LINE
8
BLACK
6
CONTINUOUS
10
166.0267769999999814
20
-112.1267769999999899
11
165.9456710000000044
21
-112.1809699999999879
0
LINE
8
BLACK
6
CONTINUOUS
10
165.9456710000000044
20
-112.1809699999999879
11
165.8499999999999943
21
-112.1999999999999886
0
LINE
8
BLACK
6
CONTINUOUS
10
165.8499999999999943
20
-112.1999999999999886
11
165.1500000000000057
21
-112.1999999999999886
0
LINE
8
BLACK
6
CONTINUOUS
10
165.1500000000000057
20
-112.1999999999999886
11
165.0543289999999956
21
-112.1809699999999879
0
LINE
8
BLACK
6
CONTINUOUS
10
165.0543289999999956
20
-112.1809699999999879
11
164.9732229999999902
21
-112.1267769999999899
0
LINE
8
BLACK
6
CONTINUOUS
10
164.9732229999999902
20
-112.1267769999999899
11
164.9190299999999922
21
-112.0456709999999987
0
LINE
8
BLACK
6
CONTINUOUS
10
164.9190299999999922
20
-112.0456709999999987
11
164.9000000000000057
21
-111.9499999999999886
0
LINE
8
BLACK
6
CONTINUOUS
10
164.9000000000000057
20
-111.9499999999999886
11
164.9000000000000057
21
-111.0499999999999972
0
LINE
8
BLACK
6
CONTINUOUS
10
164.9000000000000057
20
-111.0499999999999972
11
164.9190299999999922
21
-110.9543290000000013
0
LINE
8
BLACK
6
CONTINUOUS
10
164.9190299999999922
20
-110.9543290000000013
11
164.9732229999999902
21
-110.8732229999999959
0
LINE
8
BLACK
6
CONTINUOUS
10
164.9732229999999902
20
-110.8732229999999959
11
165.0543289999999956
21
-110.8190299999999979
0
LINE
8
BLACK
6
CONTINUOUS
10
165.0543289999999956
20
-110.8190299999999979
11
165.1500000000000057
21
-110.7999999999999972
0
LINE
8
BLACK
6
CONTINUOUS
10
165.1500000000000057
20
-110.7999999999999972
11
165.8499999999999943
21
-110.7999999999999972
0
LINE
8
BLACK
6
CONTINUOUS
10
165.8499999999999943
20
-110.7999999999999972
11
165.9456710000000044
21
-110.8190299999999979
0
LINE
8
BLACK
6
CONTINUOUS
10
167.9456710000000044
20
-110.8190299999999979
11
168.0267769999999814
21
-110.8732229999999959
0
LINE
8
BLACK
6
CONTINUOUS
10
168.0267769999999814
20
-110.8732229999999959
11
168.0809699999999793
21
-110.9543290000000013
0
LINE
8
BLACK
6
CONTINUOUS
10
168.0809699999999793
20
-110.9543290000000013
11
168.0999999999999943
21
-111.0499999999999972
0
LINE
8
BLACK
6
CONTINUOUS
10
168.0999999999999943
20
-111.0499999999999972
11
168.0999999999999943
21
-111.9499999999999886
0
LINE
8
BLACK
6
CONTINUOUS
10
168.0999999999999943
20
-111.9499999999999886
11
168.0809699999999793
21
-112.0456709999999987
0
LINE
8
BLACK
6
CONTINUOUS
10
168.0809699999999793
20
-112.0456709999999987
11
168.0267769999999814
21
-112.1267769999999899
0
LINE
8
BLACK
6
CONTINUOUS
10
168.0267769999999814
20
-112.1267769999999899
11
167.9456710000000044
21
-112.1809699999999879
0
LINE
8
BLACK
6
CONTINUOUS
10
167.9456710000000044
20
-112.1809699999999879
11
167.8499999999999943
21
-112.1999999999999886
0
LINE
8
BLACK
6
CONTINUOUS
10
167.8499999999999943
20
-112.1999999999999886
11
167.1500000000000057
21
-112.1999999999999886
0
LINE
8
BLACK
6
CONTINUOUS
10
167.1500000000000057
20
-112.1999999999999886
11
167.0543289999999956
21
-112.1809699999999879
0
LINE
8
BLACK
6
CONTINUOUS
10
167.0543289999999956
20
-112.1809699999999879
11
166.9732229999999902
21
-112.1267769999999899
0
LINE
8
BLACK
6
CONTINUOUS
10
166.9732229999999902
20
-112.1267769999999899
11
166.9190299999999922
21
-112.0456709999999987
0
LINE
8
BLACK
6
CONTINUOUS
10
166.9190299999999922
20
-112.0456709999999987
11
166.9000000000000057
21
-111.9499999999999886
0
LINE
8
BLACK
6
CONTINUOUS
10
166.9000000000000057
20
-111.9499999999999886
11
166.9000000000000057
21
-111.0499999999999972
0
LINE
8
BLACK
6
CONTINUOUS
10
166.9000000000000057
20
-111.0499999999999972
11
166.9190299999999922
21
-110.9543290000000013
0
LINE
8
BLACK
6
CONTINUOUS
10
166.9190299999999922
20
-110.9543290000000013
11
166.9732229999999902
21
-110.8732229999999959
0
LINE
8
BLACK
6
CONTINUOUS
10
166.9732229999999902
20
-110.8732229999999959
11
167.0543289999999956
21
-110.8190299999999979
0
LINE
8
BLACK
6
CONTINUOUS
10
167.0543289999999956
20
-110.8190299999999979
11
167.1500000000000057
21
-110.7999999999999972
0
LINE
8
BLACK
6
CONTINUOUS
10
167.1500000000000057
20
-110.7999999999999972
11
167.8499999999999943
21
-110.7999999999999972
0
LINE
8
BLACK
6
CONTINUOUS
10
167.8499999999999943
20
-110.7999999999999972
11
167.9456710000000044
21
-110.8190299999999979
0
LINE
8
BLACK
6
CONTINUOUS
10
188.0456709999999987
20
-110.4190299999999922
11
188.1267770000000041
21
-110.4732229999999902
0
LINE
8
BLACK
6
CONTINUOUS
10
188.1267770000000041
20
-110.4732229999999902
11
188.1809700000000021
21
-110.5543289999999956
0
LINE
8
BLACK
6
CONTINUOUS
10
188.1809700000000021
20
-110.5543289999999956
11
188.1999999999999886
21
-110.6499999999999915
0
LINE
8
BLACK
6
CONTINUOUS
10
188.1999999999999886
20
-110.6499999999999915
11
188.1999999999999886
21
-111.3499999999999943
0
LINE
8
BLACK
6
CONTINUOUS
10
188.1999999999999886
20
-111.3499999999999943
11
188.1809700000000021
21
-111.4456709999999902
0
LINE
8
BLACK
6
CONTINUOUS
10
188.1809700000000021
20
-111.4456709999999902
11
188.1267770000000041
21
-111.5267769999999956
0
LINE
8
BLACK
6
CONTINUOUS
10
188.1267770000000041
20
-111.5267769999999956
11
188.0456709999999987
21
-111.5809699999999935
0
LINE
8
BLACK
6
CONTINUOUS
10
188.0456709999999987
20
-111.5809699999999935
11
187.9499999999999886
21
-111.5999999999999943
0
LINE
8
BLACK
6
CONTINUOUS
10
187.9499999999999886
20
-111.5999999999999943
11
187.0499999999999829
21
-111.5999999999999943
0
LINE
8
BLACK
6
CONTINUOUS
10
187.0499999999999829
20
-111.5999999999999943
11
186.9543290000000013
21
-111.5809699999999935
0
LINE
8
BLACK
6
CONTINUOUS
10
186.9543290000000013
20
-111.5809699999999935
11
186.8732229999999959
21
-111.5267769999999956
0
LINE
8
BLACK
6
CONTINUOUS
10
186.8732229999999959
20
-111.5267769999999956
11
186.8190299999999979
21
-111.4456709999999902
0
LINE
8
BLACK
6
CONTINUOUS
10
186.8190299999999979
20
-111.4456709999999902
11
186.7999999999999829
21
-111.3499999999999943
0
LINE
8
BLACK
6
CONTINUOUS
10
186.7999999999999829
20
-111.3499999999999943
11
186.7999999999999829
21
-110.6499999999999915
0
LINE
8
BLACK
6
CONTINUOUS
10
186.7999999999999829
20
-110.6499999999999915
11
186.8190299999999979
21
-110.5543289999999956
0
LINE
8
BLACK
6
CONTINUOUS
10
186.8190299999999979
20
-110.5543289999999956
11
186.8732229999999959
21
-110.4732229999999902
0
LINE
8
BLACK
6
CONTINUOUS
10
186.8732229999999959
20
-110.4732229999999902
11
186.9543290000000013
21
-110.4190299999999922
0
LINE
8
BLACK
6
CONTINUOUS
10
186.9543290000000013
20
-110.4190299999999922
11
187.0499999999999829
21
-110.3999999999999915
0
LINE
8
BLACK
6
CONTINUOUS
10
187.0499999999999829
20
-110.3999999999999915
11
187.9499999999999886
21
-110.3999999999999915
0
LINE
8
BLACK
6
CONTINUOUS
10
187.9499999999999886
20
-110.3999999999999915
11
188.0456709999999987
21
-110.4190299999999922
0
LINE
8
BLACK
6
CONTINUOUS
10
192.7956709999999987
20
-110.4190299999999922
11
192.8767770000000041
21
-110.4732229999999902
0
LINE
8
BLACK
6
CONTINUOUS
10
192.8767770000000041
20
-110.4732229999999902
11
192.9309700000000021
21
-110.5543289999999956
0
LINE
8
BLACK
6
CONTINUOUS
10
192.9309700000000021
20
-110.5543289999999956
11
192.9499999999999886
21
-110.6499999999999915
0
LINE
8
BLACK
6
CONTINUOUS
10
192.9499999999999886
20
-110.6499999999999915
11
192.9499999999999886
21
-111.3499999999999943
0
LINE
8
BLACK
6
CONTINUOUS
10
192.9499999999999886
20
-111.3499999999999943
11
192.9309700000000021
21
-111.4456709999999902
0
LINE
8
BLACK
6
CONTINUOUS
10
192.9309700000000021
20
-111.4456709999999902
11
192.8767770000000041
21
-111.5267769999999956
0
LINE
8
BLACK
6
CONTINUOUS
10
192.8767770000000041
20
-111.5267769999999956
11
192.7956709999999987
21
-111.5809699999999935
0
LINE
8
BLACK
6
CONTINUOUS
10
192.7956709999999987
20
-111.5809699999999935
11
192.6999999999999886
21
-111.5999999999999943
0
LINE
8
BLACK
6
CONTINUOUS
10
192.6999999999999886
20
-111.5999999999999943
11
191.7999999999999829
21
-111.5999999999999943
0
LINE
8
BLACK
6
CONTINUOUS
10
191.7999999999999829
20
-111.5999999999999943
11
191.7043290000000013
21
-111.5809699999999935
0
LINE
8
BLACK
6
CONTINUOUS
10
191.7043290000000013
20
-111.5809699999999935
11
191.6232229999999959
21
-111.5267769999999956
0
LINE
8
BLACK
6
CONTINUOUS
10
191.6232229999999959
20
-111.5267769999999956
11
191.5690299999999979
21
-111.4456709999999902
0
LINE
8
BLACK
6
CONTINUOUS
10
191.5690299999999979
20
-111.4456709999999902
11
191.5499999999999829
21
-111.3499999999999943
0
LINE
8
BLACK
6
CONTINUOUS
10
191.5499999999999829
20
-111.3499999999999943
11
191.5499999999999829
21
-110.6499999999999915
0
LINE
8
BLACK
6
CONTINUOUS
10
191.5499999999999829
20
-110.6499999999999915
11
191.5690299999999979
21
-110.5543289999999956
0
LINE
8
BLACK
6
CONTINUOUS
10
191.5690299999999979
20
-110.5543289999999956
11
191.6232229999999959
21
-110.4732229999999902
0
LINE
8
BLACK
6
CONTINUOUS
10
191.6232229999999959
20
-110.4732229999999902
11
191.7043290000000013
21
-110.4190299999999922
0
LINE
8
BLACK
6
CONTINUOUS
10
191.7043290000000013
20
-110.4190299999999922
11
191.7999999999999829
21
-110.3999999999999915
0
LINE
8
BLACK
6
CONTINUOUS
10
191.7999999999999829
20
-110.3999999999999915
11
192.6999999999999886
21
-110.3999999999999915
0
LINE
8
BLACK
6
CONTINUOUS
10
192.6999999999999886
20
-110.3999999999999915
11
192.7956709999999987
21
-110.4190299999999922
0
LINE
8
BLACK
6
CONTINUOUS
10
157.2956709999999987
20
-109.4190299999999922
11
157.3767770000000041
21
-109.4732229999999902
0
LINE
8
BLACK
6
CONTINUOUS
10
157.3767770000000041
20
-109.4732229999999902
11
157.4309700000000021
21
-109.5543289999999956
0
LINE
8
BLACK
6
CONTINUOUS
10
157.4309700000000021
20
-109.5543289999999956
11
157.4499999999999886
21
-109.6499999999999915
0
LINE
8
BLACK
6
CONTINUOUS
10
157.4499999999999886
20
-109.6499999999999915
11
157.4499999999999886
21
-110.3499999999999943
0
LINE
8
BLACK
6
CONTINUOUS
10
157.4499999999999886
20
-110.3499999999999943
11
157.4309700000000021
21
-110.4456709999999902
0
LINE
8
BLACK
6
CONTINUOUS
10
157.4309700000000021
20
-110.4456709999999902
11
157.3767770000000041
21
-110.5267769999999956
0
LINE
8
BLACK
6
CONTINUOUS
10
157.3767770000000041
20
-110.5267769999999956
11
157.2956709999999987
21
-110.5809699999999935
0
LINE
8
BLACK
6
CONTINUOUS
10
157.2956709999999987
20
-110.5809699999999935
11
157.1999999999999886
21
-110.5999999999999943
0
LINE
8
BLACK
6
CONTINUOUS
10
157.1999999999999886
20
-110.5999999999999943
11
156.2999999999999829
21
-110.5999999999999943
0
LINE
8
BLACK
6
CONTINUOUS
10
156.2999999999999829
20
-110.5999999999999943
11
156.2043290000000013
21
-110.5809699999999935
0
LINE
8
BLACK
6
CONTINUOUS
10
156.2043290000000013
20
-110.5809699999999935
11
156.1232229999999959
21
-110.5267769999999956
0
LINE
8
BLACK
6
CONTINUOUS
10
156.1232229999999959
20
-110.5267769999999956
11
156.0690299999999979
21
-110.4456709999999902
0
LINE
8
BLACK
6
CONTINUOUS
10
156.0690299999999979
20
-110.4456709999999902
11
156.0499999999999829
21
-110.3499999999999943
0
LINE
8
BLACK
6
CONTINUOUS
10
156.0499999999999829
20
-110.3499999999999943
11
156.0499999999999829
21
-109.6499999999999915
0
LINE
8
BLACK
6
CONTINUOUS
10
156.0499999999999829
20
-109.6499999999999915
11
156.0690299999999979
21
-109.5543289999999956
0
LINE
8
BLACK
6
CONTINUOUS
10
156.0690299999999979
20
-109.5543289999999956
11
156.1232229999999959
21
-109.4732229999999902
0
LINE
8
BLACK
6
CONTINUOUS
10
156.1232229999999959
20
-109.4732229999999902
11
156.2043290000000013
21
-109.4190299999999922
0
LINE
8
BLACK
6
CONTINUOUS
10
156.2043290000000013
20
-109.4190299999999922
11
156.2999999999999829
21
-109.3999999999999915
0
LINE
8
BLACK
6
CONTINUOUS
10
156.2999999999999829
20
-109.3999999999999915
11
157.1999999999999886
21
-109.3999999999999915
0
LINE
8
BLACK
6
CONTINUOUS
10
157.1999999999999886
20
-109.3999999999999915
11
157.2956709999999987
21
-109.4190299999999922
0
LINE
8
BLACK
6
CONTINUOUS
10
160.7956709999999987
20
-109.4190299999999922
11
160.8767770000000041
21
-109.4732229999999902
0
LINE
8
BLACK
6
CONTINUOUS
10
160.8767770000000041
20
-109.4732229999999902
11
160.9309700000000021
21
-109.5543289999999956
0
LINE
8
BLACK
6
CONTINUOUS
10
160.9309700000000021
20
-109.5543289999999956
11
160.9499999999999886
21
-109.6499999999999915
0
LINE
8
BLACK
6
CONTINUOUS
10
160.9499999999999886
20
-109.6499999999999915
11
160.9499999999999886
21
-110.3499999999999943
0
LINE
8
BLACK
6
CONTINUOUS
10
160.9499999999999886
20
-110.3499999999999943
11
160.9309700000000021
21
-110.4456709999999902
0
LINE
8
BLACK
6
CONTINUOUS
10
160.9309700000000021
20
-110.4456709999999902
11
160.8767770000000041
21
-110.5267769999999956
0
LINE
8
BLACK
6
CONTINUOUS
10
160.8767770000000041
20
-110.5267769999999956
11
160.7956709999999987
21
-110.5809699999999935
0
LINE
8
BLACK
6
CONTINUOUS
10
160.7956709999999987
20
-110.5809699999999935
11
160.6999999999999886
21
-110.5999999999999943
0
LINE
8
BLACK
6
CONTINUOUS
10
160.6999999999999886
20
-110.5999999999999943
11
159.7999999999999829
21
-110.5999999999999943
0
LINE
8
BLACK
6
CONTINUOUS
10
159.7999999999999829
20
-110.5999999999999943
11
159.7043290000000013
21
-110.5809699999999935
0
LINE
8
BLACK
6
CONTINUOUS
10
159.7043290000000013
20
-110.5809699999999935
11
159.6232229999999959
21
-110.5267769999999956
0
LINE
8
BLACK
6
CONTINUOUS
10
159.6232229999999959
20
-110.5267769999999956
11
159.5690299999999979
21
-110.4456709999999902
0
LINE
8
BLACK
6
CONTINUOUS
10
159.5690299999999979
20
-110.4456709999999902
11
159.5499999999999829
21
-110.3499999999999943
0
LINE
8
BLACK
6
CONTINUOUS
10
159.5499999999999829
20
-110.3499999999999943
11
159.5499999999999829
21
-109.6499999999999915
0
LINE
8
BLACK
6
CONTINUOUS
10
159.5499999999999829
20
-109.6499999999999915
11
159.5690299999999979
21
-109.5543289999999956
0
LINE
8
BLACK
6
CONTINUOUS
10
159.5690299999999979
20
-109.5543289999999956
11
159.6232229999999959
21
-109.4732229999999902
0
LINE
8
BLACK
6
CONTINUOUS
10
159.6232229999999959
20
-109.4732229999999902
11
159.7043290000000013
21
-109.4190299999999922
0
LINE
8
BLACK
6
CONTINUOUS
10
159.7043290000000013
20
-109.4190299999999922
11
159.7999999999999829
21
-109.3999999999999915
0
LINE
8
BLACK
6
CONTINUOUS
10
159.7999999999999829
20
-109.3999999999999915
11
160.6999999999999886
21
-109.3999999999999915
0
LINE
8
BLACK
6
CONTINUOUS
10
160.6999999999999886
20
-109.3999999999999915
11
160.7956709999999987
21
-109.4190299999999922
0
LINE
8
BLACK
6
CONTINUOUS
10
170.7956709999999987
20
-109.1690299999999922
11
170.8767770000000041
21
-109.2232229999999902
0
LINE
8
BLACK
6
CONTINUOUS
10
170.8767770000000041
20
-109.2232229999999902
11
170.9309700000000021
21
-109.3043289999999956
0
LINE
8
BLACK
6
CONTINUOUS
10
170.9309700000000021
20
-109.3043289999999956
11
170.9499999999999886
21
-109.3999999999999915
0
LINE
8
BLACK
6
CONTINUOUS
10
170.9499999999999886
20
-109.3999999999999915
11
170.9499999999999886
21
-110.0999999999999943
0
LINE
8
BLACK
6
CONTINUOUS
10
170.9499999999999886
20
-110.0999999999999943
11
170.9309700000000021
21
-110.1956709999999902
0
LINE
8
BLACK
6
CONTINUOUS
10
170.9309700000000021
20
-110.1956709999999902
11
170.8767770000000041
21
-110.2767769999999956
0
LINE
8
BLACK
6
CONTINUOUS
10
170.8767770000000041
20
-110.2767769999999956
11
170.7956709999999987
21
-110.3309699999999935
0
LINE
8
BLACK
6
CONTINUOUS
10
170.7956709999999987
20
-110.3309699999999935
11
170.6999999999999886
21
-110.3499999999999943
0
LINE
8
BLACK
6
CONTINUOUS
10
170.6999999999999886
20
-110.3499999999999943
11
169.7999999999999829
21
-110.3499999999999943
0
LINE
8
BLACK
6
CONTINUOUS
10
169.7999999999999829
20
-110.3499999999999943
11
169.7043290000000013
21
-110.3309699999999935
0
LINE
8
BLACK
6
CONTINUOUS
10
169.7043290000000013
20
-110.3309699999999935
11
169.6232229999999959
21
-110.2767769999999956
0
LINE
8
BLACK
6
CONTINUOUS
10
169.6232229999999959
20
-110.2767769999999956
11
169.5690299999999979
21
-110.1956709999999902
0
LINE
8
BLACK
6
CONTINUOUS
10
169.5690299999999979
20
-110.1956709999999902
11
169.5499999999999829
21
-110.0999999999999943
0
LINE
8
BLACK
6
CONTINUOUS
10
169.5499999999999829
20
-110.0999999999999943
11
169.5499999999999829
21
-109.3999999999999915
0
LINE
8
BLACK
6
CONTINUOUS
10
169.5499999999999829
20
-109.3999999999999915
11
169.5690299999999979
21
-109.3043289999999956
0
LINE
8
BLACK
6
CONTINUOUS
10
169.5690299999999979
20
-109.3043289999999956
11
169.6232229999999959
21
-109.2232229999999902
0
LINE
8
BLACK
6
CONTINUOUS
10
169.6232229999999959
20
-109.2232229999999902
11
169.7043290000000013
21
-109.1690299999999922
0
LINE
8
BLACK
6
CONTINUOUS
10
169.7043290000000013
20
-109.1690299999999922
11
169.7999999999999829
21
-109.1499999999999915
0
LINE
8
BLACK
6
CONTINUOUS
10
169.7999999999999829
20
-109.1499999999999915
11
170.6999999999999886
21
-109.1499999999999915
0
LINE
8
BLACK
6
CONTINUOUS
10
170.6999999999999886
20
-109.1499999999999915
11
170.7956709999999987
21
-109.1690299999999922
0
LINE
8
BLACK
6
CONTINUOUS
10
215.145670999999993
20
-108.1190299999999951
11
215.2267769999999985
21
-108.173222999999993
0
LINE
8
BLACK
6
CONTINUOUS
10
215.2267769999999985
20
-108.173222999999993
11
215.2809699999999964
21
-108.2543289999999985
0
LINE
8
BLACK
6
CONTINUOUS
10
215.2809699999999964
20
-108.2543289999999985
11
215.2999999999999829
21
-108.3499999999999943
0
LINE
8
BLACK
6
CONTINUOUS
10
215.2999999999999829
20
-108.3499999999999943
11
215.2999999999999829
21
-109.25
0
LINE
8
BLACK
6
CONTINUOUS
10
215.2999999999999829
20
-109.25
11
215.2809699999999964
21
-109.3456709999999958
0
LINE
8
BLACK
6
CONTINUOUS
10
215.2809699999999964
20
-109.3456709999999958
11
215.2267769999999985
21
-109.4267770000000013
0
LINE
8
BLACK
6
CONTINUOUS
10
215.2267769999999985
20
-109.4267770000000013
11
215.145670999999993
21
-109.4809699999999992
0
LINE
8
BLACK
6
CONTINUOUS
10
215.145670999999993
20
-109.4809699999999992
11
215.0499999999999829
21
-109.5
0
LINE
8
BLACK
6
CONTINUOUS
10
215.0499999999999829
20
-109.5
11
214.3499999999999943
21
-109.5
0
LINE
8
BLACK
6
CONTINUOUS
10
214.3499999999999943
20
-109.5
11
214.2543289999999843
21
-109.4809699999999992
0
LINE
8
BLACK
6
CONTINUOUS
10
214.2543289999999843
20
-109.4809699999999992
11
214.1732229999999788
21
-109.4267770000000013
0
LINE
8
BLACK
6
CONTINUOUS
10
214.1732229999999788
20
-109.4267770000000013
11
214.1190299999999809
21
-109.3456709999999958
0
LINE
8
BLACK
6
CONTINUOUS
10
214.1190299999999809
20
-109.3456709999999958
11
214.0999999999999943
21
-109.25
0
LINE
8
BLACK
6
CONTINUOUS
10
214.0999999999999943
20
-109.25
11
214.0999999999999943
21
-108.3499999999999943
0
LINE
8
BLACK
6
CONTINUOUS
10
214.0999999999999943
20
-108.3499999999999943
11
214.1190299999999809
21
-108.2543289999999985
0
LINE
8
BLACK
6
CONTINUOUS
10
214.1190299999999809
20
-108.2543289999999985
11
214.1732229999999788
21
-108.173222999999993
0
LINE
8
BLACK
6
CONTINUOUS
10
214.1732229999999788
20
-108.173222999999993
11
214.2543289999999843
21
-108.1190299999999951
0
LINE
8
BLACK
6
CONTINUOUS
10
214.2543289999999843
20
-108.1190299999999951
11
214.3499999999999943
21
-108.0999999999999943
0
LINE
8
BLACK
6
CONTINUOUS
10
214.3499999999999943
20
-108.0999999999999943
11
215.0499999999999829
21
-108.0999999999999943
0
LINE
8
BLACK
6
CONTINUOUS
10
215.0499999999999829
20
-108.0999999999999943
11
215.145670999999993
21
-108.1190299999999951
0
LINE
8
BLACK
6
CONTINUOUS
10
217.145670999999993
20
-108.1190299999999951
11
217.2267769999999985
21
-108.173222999999993
0
LINE
8
BLACK
6
CONTINUOUS
10
217.2267769999999985
20
-108.173222999999993
11
217.2809699999999964
21
-108.2543289999999985
0
LINE
8
BLACK
6
CONTINUOUS
10
217.2809699999999964
20
-108.2543289999999985
11
217.2999999999999829
21
-108.3499999999999943
0
LINE
8
BLACK
6
CONTINUOUS
10
217.2999999999999829
20
-108.3499999999999943
11
217.2999999999999829
21
-109.25
0
LINE
8
BLACK
6
CONTINUOUS
10
217.2999999999999829
20
-109.25
11
217.2809699999999964
21
-109.3456709999999958
0
LINE
8
BLACK
6
CONTINUOUS
10
217.2809699999999964
20
-109.3456709999999958
11
217.2267769999999985
21
-109.4267770000000013
0
LINE
8
BLACK
6
CONTINUOUS
10
217.2267769999999985
20
-109.4267770000000013
11
217.145670999999993
21
-109.4809699999999992
0
LINE
8
BLACK
6
CONTINUOUS
10
217.145670999999993
20
-109.4809699999999992
11
217.0499999999999829
21
-109.5
0
LINE
8
BLACK
6
CONTINUOUS
10
217.0499999999999829
20
-109.5
11
216.3499999999999943
21
-109.5
0
LINE
8
BLACK
6
CONTINUOUS
10
216.3499999999999943
20
-109.5
11
216.2543289999999843
21
-109.4809699999999992
0
LINE
8
BLACK
6
CONTINUOUS
10
216.2543289999999843
20
-109.4809699999999992
11
216.1732229999999788
21
-109.4267770000000013
0
LINE
8
BLACK
6
CONTINUOUS
10
216.1732229999999788
20
-109.4267770000000013
11
216.1190299999999809
21
-109.3456709999999958
0
LINE
8
BLACK
6
CONTINUOUS
10
216.1190299999999809
20
-109.3456709999999958
11
216.0999999999999943
21
-109.25
0
LINE
8
BLACK
6
CONTINUOUS
10
216.0999999999999943
20
-109.25
11
216.0999999999999943
21
-108.3499999999999943
0
LINE
8
BLACK
6
CONTINUOUS
10
216.0999999999999943
20
-108.3499999999999943
11
216.1190299999999809
21
-108.2543289999999985
0
LINE
8
BLACK
6
CONTINUOUS
10
216.1190299999999809
20
-108.2543289999999985
11
216.1732229999999788
21
-108.173222999999993
0
LINE
8
BLACK
6
CONTINUOUS
10
216.1732229999999788
20
-108.173222999999993
11
216.2543289999999843
21
-108.1190299999999951
0
LINE
8
BLACK
6
CONTINUOUS
10
216.2543289999999843
20
-108.1190299999999951
11
216.3499999999999943
21
-108.0999999999999943
0
LINE
8
BLACK
6
CONTINUOUS
10
216.3499999999999943
20
-108.0999999999999943
11
217.0499999999999829
21
-108.0999999999999943
0
LINE
8
BLACK
6
CONTINUOUS
10
217.0499999999999829
20
-108.0999999999999943
11
217.145670999999993
21
-108.1190299999999951
0
LINE
8
BLACK
6
CONTINUOUS
10
232.4456709999999759
20
-108.0690299999999979
11
232.5267769999999814
21
-108.1232229999999959
0
LINE
8
BLACK
6
CONTINUOUS
10
232.5267769999999814
20
-108.1232229999999959
11
232.5809699999999793
21
-108.2043290000000013
0
LINE
8
BLACK
6
CONTINUOUS
10
232.5809699999999793
20
-108.2043290000000013
11
232.5999999999999943
21
-108.2999999999999972
0
LINE
8
BLACK
6
CONTINUOUS
10
232.5999999999999943
20
-108.2999999999999972
11
232.5999999999999943
21
-109.1999999999999886
0
LINE
8
BLACK
6
CONTINUOUS
10
232.5999999999999943
20
-109.1999999999999886
11
232.5809699999999793
21
-109.2956709999999987
0
LINE
8
BLACK
6
CONTINUOUS
10
232.5809699999999793
20
-109.2956709999999987
11
232.5267769999999814
21
-109.3767769999999899
0
LINE
8
BLACK
6
CONTINUOUS
10
232.5267769999999814
20
-109.3767769999999899
11
232.4456709999999759
21
-109.4309700000000021
0
LINE
8
BLACK
6
CONTINUOUS
10
232.4456709999999759
20
-109.4309700000000021
11
232.3499999999999943
21
-109.4499999999999886
0
LINE
8
BLACK
6
CONTINUOUS
10
232.3499999999999943
20
-109.4499999999999886
11
231.6499999999999773
21
-109.4499999999999886
0
LINE
8
BLACK
6
CONTINUOUS
10
231.6499999999999773
20
-109.4499999999999886
11
231.5543289999999956
21
-109.4309700000000021
0
LINE
8
BLACK
6
CONTINUOUS
10
231.5543289999999956
20
-109.4309700000000021
11
231.4732229999999902
21
-109.3767769999999899
0
LINE
8
BLACK
6
CONTINUOUS
10
231.4732229999999902
20
-109.3767769999999899
11
231.4190299999999922
21
-109.2956709999999987
0
LINE
8
BLACK
6
CONTINUOUS
10
231.4190299999999922
20
-109.2956709999999987
11
231.3999999999999773
21
-109.1999999999999886
0
LINE
8
BLACK
6
CONTINUOUS
10
231.3999999999999773
20
-109.1999999999999886
11
231.3999999999999773
21
-108.2999999999999972
0
LINE
8
BLACK
6
CONTINUOUS
10
231.3999999999999773
20
-108.2999999999999972
11
231.4190299999999922
21
-108.2043290000000013
0
LINE
8
BLACK
6
CONTINUOUS
10
231.4190299999999922
20
-108.2043290000000013
11
231.4732229999999902
21
-108.1232229999999959
0
LINE
8
BLACK
6
CONTINUOUS
10
231.4732229999999902
20
-108.1232229999999959
11
231.5543289999999956
21
-108.0690299999999979
0
LINE
8
BLACK
6
CONTINUOUS
10
231.5543289999999956
20
-108.0690299999999979
11
231.6499999999999773
21
-108.0499999999999972
0
LINE
8
BLACK
6
CONTINUOUS
10
231.6499999999999773
20
-108.0499999999999972
11
232.3499999999999943
21
-108.0499999999999972
0
LINE
8
BLACK
6
CONTINUOUS
10
232.3499999999999943
20
-108.0499999999999972
11
232.4456709999999759
21
-108.0690299999999979
0
LINE
8
BLACK
6
CONTINUOUS
10
234.4456709999999759
20
-108.0690299999999979
11
234.5267769999999814
21
-108.1232229999999959
0
LINE
8
BLACK
6
CONTINUOUS
10
234.5267769999999814
20
-108.1232229999999959
11
234.5809699999999793
21
-108.2043290000000013
0
LINE
8
BLACK
6
CONTINUOUS
10
234.5809699999999793
20
-108.2043290000000013
11
234.5999999999999943
21
-108.2999999999999972
0
LINE
8
BLACK
6
CONTINUOUS
10
234.5999999999999943
20
-108.2999999999999972
11
234.5999999999999943
21
-109.1999999999999886
0
LINE
8
BLACK
6
CONTINUOUS
10
234.5999999999999943
20
-109.1999999999999886
11
234.5809699999999793
21
-109.2956709999999987
0
LINE
8
BLACK
6
CONTINUOUS
10
234.5809699999999793
20
-109.2956709999999987
11
234.5267769999999814
21
-109.3767769999999899
0
LINE
8
BLACK
6
CONTINUOUS
10
234.5267769999999814
20
-109.3767769999999899
11
234.4456709999999759
21
-109.4309700000000021
0
LINE
8
BLACK
6
CONTINUOUS
10
234.4456709999999759
20
-109.4309700000000021
11
234.3499999999999943
21
-109.4499999999999886
0
LINE
8
BLACK
6
CONTINUOUS
10
234.3499999999999943
20
-109.4499999999999886
11
233.6499999999999773
21
-109.4499999999999886
0
LINE
8
BLACK
6
CONTINUOUS
10
233.6499999999999773
20
-109.4499999999999886
11
233.5543289999999956
21
-109.4309700000000021
0
LINE
8
BLACK
6
CONTINUOUS
10
233.5543289999999956
20
-109.4309700000000021
11
233.4732229999999902
21
-109.3767769999999899
0
LINE
8
BLACK
6
CONTINUOUS
10
233.4732229999999902
20
-109.3767769999999899
11
233.4190299999999922
21
-109.2956709999999987
0
LINE
8
BLACK
6
CONTINUOUS
10
233.4190299999999922
20
-109.2956709999999987
11
233.3999999999999773
21
-109.1999999999999886
0
LINE
8
BLACK
6
CONTINUOUS
10
233.3999999999999773
20
-109.1999999999999886
11
233.3999999999999773
21
-108.2999999999999972
0
LINE
8
BLACK
6
CONTINUOUS
10
233.3999999999999773
20
-108.2999999999999972
11
233.4190299999999922
21
-108.2043290000000013
0
LINE
8
BLACK
6
CONTINUOUS
10
233.4190299999999922
20
-108.2043290000000013
11
233.4732229999999902
21
-108.1232229999999959
0
LINE
8
BLACK
6
CONTINUOUS
10
233.4732229999999902
20
-108.1232229999999959
11
233.5543289999999956
21
-108.0690299999999979
0
LINE
8
BLACK
6
CONTINUOUS
10
233.5543289999999956
20
-108.0690299999999979
11
233.6499999999999773
21
-108.0499999999999972
0
LINE
8
BLACK
6
CONTINUOUS
10
233.6499999999999773
20
-108.0499999999999972
11
234.3499999999999943
21
-108.0499999999999972
0
LINE
8
BLACK
6
CONTINUOUS
10
234.3499999999999943
20
-108.0499999999999972
11
234.4456709999999759
21
-108.0690299999999979
0
LINE
8
BLACK
6
CONTINUOUS
10
166.7956709999999987
20
-107.4190299999999922
11
166.8767770000000041
21
-107.4732229999999902
0
LINE
8
BLACK
6
CONTINUOUS
10
166.8767770000000041
20
-107.4732229999999902
11
166.9309700000000021
21
-107.5543289999999956
0
LINE
8
BLACK
6
CONTINUOUS
10
166.9309700000000021
20
-107.5543289999999956
11
166.9499999999999886
21
-107.6499999999999915
0
LINE
8
BLACK
6
CONTINUOUS
10
166.9499999999999886
20
-107.6499999999999915
11
166.9499999999999886
21
-108.3499999999999943
0
LINE
8
BLACK
6
CONTINUOUS
10
166.9499999999999886
20
-108.3499999999999943
11
166.9309700000000021
21
-108.4456709999999902
0
LINE
8
BLACK
6
CONTINUOUS
10
166.9309700000000021
20
-108.4456709999999902
11
166.8767770000000041
21
-108.5267769999999956
0
LINE
8
BLACK
6
CONTINUOUS
10
166.8767770000000041
20
-108.5267769999999956
11
166.7956709999999987
21
-108.5809699999999935
0
LINE
8
BLACK
6
CONTINUOUS
10
166.7956709999999987
20
-108.5809699999999935
11
166.6999999999999886
21
-108.5999999999999943
0
LINE
8
BLACK
6
CONTINUOUS
10
166.6999999999999886
20
-108.5999999999999943
11
165.7999999999999829
21
-108.5999999999999943
0
LINE
8
BLACK
6
CONTINUOUS
10
165.7999999999999829
20
-108.5999999999999943
11
165.7043290000000013
21
-108.5809699999999935
0
LINE
8
BLACK
6
CONTINUOUS
10
165.7043290000000013
20
-108.5809699999999935
11
165.6232229999999959
21
-108.5267769999999956
0
LINE
8
BLACK
6
CONTINUOUS
10
165.6232229999999959
20
-108.5267769999999956
11
165.5690299999999979
21
-108.4456709999999902
0
LINE
8
BLACK
6
CONTINUOUS
10
165.5690299999999979
20
-108.4456709999999902
11
165.5499999999999829
21
-108.3499999999999943
0
LINE
8
BLACK
6
CONTINUOUS
10
165.5499999999999829
20
-108.3499999999999943
11
165.5499999999999829
21
-107.6499999999999915
0
LINE
8
BLACK
6
CONTINUOUS
10
165.5499999999999829
20
-107.6499999999999915
11
165.5690299999999979
21
-107.5543289999999956
0
LINE
8
BLACK
6
CONTINUOUS
10
165.5690299999999979
20
-107.5543289999999956
11
165.6232229999999959
21
-107.4732229999999902
0
LINE
8
BLACK
6
CONTINUOUS
10
165.6232229999999959
20
-107.4732229999999902
11
165.7043290000000013
21
-107.4190299999999922
0
LINE
8
BLACK
6
CONTINUOUS
10
165.7043290000000013
20
-107.4190299999999922
11
165.7999999999999829
21
-107.3999999999999915
0
LINE
8
BLACK
6
CONTINUOUS
10
165.7999999999999829
20
-107.3999999999999915
11
166.6999999999999886
21
-107.3999999999999915
0
LINE
8
BLACK
6
CONTINUOUS
10
166.6999999999999886
20
-107.3999999999999915
11
166.7956709999999987
21
-107.4190299999999922
0
LINE
8
BLACK
6
CONTINUOUS
10
170.7956709999999987
20
-107.1690299999999922
11
170.8767770000000041
21
-107.2232229999999902
0
LINE
8
BLACK
6
CONTINUOUS
10
170.8767770000000041
20
-107.2232229999999902
11
170.9309700000000021
21
-107.3043289999999956
0
LINE
8
BLACK
6
CONTINUOUS
10
170.9309700000000021
20
-107.3043289999999956
11
170.9499999999999886
21
-107.3999999999999915
0
LINE
8
BLACK
6
CONTINUOUS
10
170.9499999999999886
20
-107.3999999999999915
11
170.9499999999999886
21
-108.0999999999999943
0
LINE
8
BLACK
6
CONTINUOUS
10
170.9499999999999886
20
-108.0999999999999943
11
170.9309700000000021
21
-108.1956709999999902
0
LINE
8
BLACK
6
CONTINUOUS
10
170.9309700000000021
20
-108.1956709999999902
11
170.8767770000000041
21
-108.2767769999999956
0
LINE
8
BLACK
6
CONTINUOUS
10
170.8767770000000041
20
-108.2767769999999956
11
170.7956709999999987
21
-108.3309699999999935
0
LINE
8
BLACK
6
CONTINUOUS
10
170.7956709999999987
20
-108.3309699999999935
11
170.6999999999999886
21
-108.3499999999999943
0
LINE
8
BLACK
6
CONTINUOUS
10
170.6999999999999886
20
-108.3499999999999943
11
169.7999999999999829
21
-108.3499999999999943
0
LINE
8
BLACK
6
CONTINUOUS
10
169.7999999999999829
20
-108.3499999999999943
11
169.7043290000000013
21
-108.3309699999999935
0
LINE
8
BLACK
6
CONTINUOUS
10
169.7043290000000013
20
-108.3309699999999935
11
169.6232229999999959
21
-108.2767769999999956
0
LINE
8
BLACK
6
CONTINUOUS
10
169.6232229999999959
20
-108.2767769999999956
11
169.5690299999999979
21
-108.1956709999999902
0
LINE
8
BLACK
6
CONTINUOUS
10
169.5690299999999979
20
-108.1956709999999902
11
169.5499999999999829
21
-108.0999999999999943
0
LINE
8
BLACK
6
CONTINUOUS
10
169.5499999999999829
20
-108.0999999999999943
11
169.5499999999999829
21
-107.3999999999999915
0
LINE
8
BLACK
6
CONTINUOUS
10
169.5499999999999829
20
-107.3999999999999915
11
169.5690299999999979
21
-107.3043289999999956
0
LINE
8
BLACK
6
CONTINUOUS
10
169.5690299999999979
20
-107.3043289999999956
11
169.6232229999999959
21
-107.2232229999999902
0
LINE
8
BLACK
6
CONTINUOUS
10
169.6232229999999959
20
-107.2232229999999902
11
169.7043290000000013
21
-107.1690299999999922
0
LINE
8
BLACK
6
CONTINUOUS
10
169.7043290000000013
20
-107.1690299999999922
11
169.7999999999999829
21
-107.1499999999999915
0
LINE
8
BLACK
6
CONTINUOUS
10
169.7999999999999829
20
-107.1499999999999915
11
170.6999999999999886
21
-107.1499999999999915
0
LINE
8
BLACK
6
CONTINUOUS
10
170.6999999999999886
20
-107.1499999999999915
11
170.7956709999999987
21
-107.1690299999999922
0
LINE
8
BLACK
6
CONTINUOUS
10
209.6956710000000044
20
-105.3190299999999979
11
209.7767769999999814
21
-105.3732229999999959
0
LINE
8
BLACK
6
CONTINUOUS
10
209.7767769999999814
20
-105.3732229999999959
11
209.8309699999999793
21
-105.4543290000000013
0
LINE
8
BLACK
6
CONTINUOUS
10
209.8309699999999793
20
-105.4543290000000013
11
209.8499999999999943
21
-105.5499999999999972
0
LINE
8
BLACK
6
CONTINUOUS
10
209.8499999999999943
20
-105.5499999999999972
11
209.8499999999999943
21
-106.4499999999999886
0
LINE
8
BLACK
6
CONTINUOUS
10
209.8499999999999943
20
-106.4499999999999886
11
209.8309699999999793
21
-106.5456709999999987
0
LINE
8
BLACK
6
CONTINUOUS
10
209.8309699999999793
20
-106.5456709999999987
11
209.7767769999999814
21
-106.6267769999999899
0
LINE
8
BLACK
6
CONTINUOUS
10
209.7767769999999814
20
-106.6267769999999899
11
209.6956710000000044
21
-106.6809700000000021
0
LINE
8
BLACK
6
CONTINUOUS
10
209.6956710000000044
20
-106.6809700000000021
11
209.5999999999999943
21
-106.6999999999999886
0
LINE
8
BLACK
6
CONTINUOUS
10
209.5999999999999943
20
-106.6999999999999886
11
208.8999999999999773
21
-106.6999999999999886
0
LINE
8
BLACK
6
CONTINUOUS
10
208.8999999999999773
20
-106.6999999999999886
11
208.8043289999999956
21
-106.6809700000000021
0
LINE
8
BLACK
6
CONTINUOUS
10
208.8043289999999956
20
-106.6809700000000021
11
208.7232229999999902
21
-106.6267769999999899
0
LINE
8
BLACK
6
CONTINUOUS
10
208.7232229999999902
20
-106.6267769999999899
11
208.6690299999999922
21
-106.5456709999999987
0
LINE
8
BLACK
6
CONTINUOUS
10
208.6690299999999922
20
-106.5456709999999987
11
208.6499999999999773
21
-106.4499999999999886
0
LINE
8
BLACK
6
CONTINUOUS
10
208.6499999999999773
20
-106.4499999999999886
11
208.6499999999999773
21
-105.5499999999999972
0
LINE
8
BLACK
6
CONTINUOUS
10
208.6499999999999773
20
-105.5499999999999972
11
208.6690299999999922
21
-105.4543290000000013
0
LINE
8
BLACK
6
CONTINUOUS
10
208.6690299999999922
20
-105.4543290000000013
11
208.7232229999999902
21
-105.3732229999999959
0
LINE
8
BLACK
6
CONTINUOUS
10
208.7232229999999902
20
-105.3732229999999959
11
208.8043289999999956
21
-105.3190299999999979
0
LINE
8
BLACK
6
CONTINUOUS
10
208.8043289999999956
20
-105.3190299999999979
11
208.8999999999999773
21
-105.2999999999999972
0
LINE
8
BLACK
6
CONTINUOUS
10
208.8999999999999773
20
-105.2999999999999972
11
209.5999999999999943
21
-105.2999999999999972
0
LINE
8
BLACK
6
CONTINUOUS
10
209.5999999999999943
20
-105.2999999999999972
11
209.6956710000000044
21
-105.3190299999999979
0
LINE
8
BLACK
6
CONTINUOUS
10
211.6956710000000044
20
-105.3190299999999979
11
211.7767769999999814
21
-105.3732229999999959
0
LINE
8
BLACK
6
CONTINUOUS
10
211.7767769999999814
20
-105.3732229999999959
11
211.8309699999999793
21
-105.4543290000000013
0
LINE
8
BLACK
6
CONTINUOUS
10
211.8309699999999793
20
-105.4543290000000013
11
211.8499999999999943
21
-105.5499999999999972
0
LINE
8
BLACK
6
CONTINUOUS
10
211.8499999999999943
20
-105.5499999999999972
11
211.8499999999999943
21
-106.4499999999999886
0
LINE
8
BLACK
6
CONTINUOUS
10
211.8499999999999943
20
-106.4499999999999886
11
211.8309699999999793
21
-106.5456709999999987
0
LINE
8
BLACK
6
CONTINUOUS
10
211.8309699999999793
20
-106.5456709999999987
11
211.7767769999999814
21
-106.6267769999999899
0
LINE
8
BLACK
6
CONTINUOUS
10
211.7767769999999814
20
-106.6267769999999899
11
211.6956710000000044
21
-106.6809700000000021
0
LINE
8
BLACK
6
CONTINUOUS
10
211.6956710000000044
20
-106.6809700000000021
11
211.5999999999999943
21
-106.6999999999999886
0
LINE
8
BLACK
6
CONTINUOUS
10
211.5999999999999943
20
-106.6999999999999886
11
210.8999999999999773
21
-106.6999999999999886
0
LINE
8
BLACK
6
CONTINUOUS
10
210.8999999999999773
20
-106.6999999999999886
11
210.8043289999999956
21
-106.6809700000000021
0
LINE
8
BLACK
6
CONTINUOUS
10
210.8043289999999956
20
-106.6809700000000021
11
210.7232229999999902
21
-106.6267769999999899
0
LINE
8
BLACK
6
CONTINUOUS
10
210.7232229999999902
20
-106.6267769999999899
11
210.6690299999999922
21
-106.5456709999999987
0
LINE
8
BLACK
6
CONTINUOUS
10
210.6690299999999922
20
-106.5456709999999987
11
210.6499999999999773
21
-106.4499999999999886
0
LINE
8
BLACK
6
CONTINUOUS
10
210.6499999999999773
20
-106.4499999999999886
11
210.6499999999999773
21
-105.5499999999999972
0
LINE
8
BLACK
6
CONTINUOUS
10
210.6499999999999773
20
-105.5499999999999972
11
210.6690299999999922
21
-105.4543290000000013
0
LINE
8
BLACK
6
CONTINUOUS
10
210.6690299999999922
20
-105.4543290000000013
11
210.7232229999999902
21
-105.3732229999999959
0
LINE
8
BLACK
6
CONTINUOUS
10
210.7232229999999902
20
-105.3732229999999959
11
210.8043289999999956
21
-105.3190299999999979
0
LINE
8
BLACK
6
CONTINUOUS
10
210.8043289999999956
20
-105.3190299999999979
11
210.8999999999999773
21
-105.2999999999999972
0
LINE
8
BLACK
6
CONTINUOUS
10
210.8999999999999773
20
-105.2999999999999972
11
211.5999999999999943
21
-105.2999999999999972
0
LINE
8
BLACK
6
CONTINUOUS
10
211.5999999999999943
20
-105.2999999999999972
11
211.6956710000000044
21
-105.3190299999999979
0
LINE
8
BLACK
6
CONTINUOUS
10
166.7956709999999987
20
-105.4190299999999922
11
166.8767770000000041
21
-105.4732229999999902
0
LINE
8
BLACK
6
CONTINUOUS
10
166.8767770000000041
20
-105.4732229999999902
11
166.9309700000000021
21
-105.5543289999999956
0
LINE
8
BLACK
6
CONTINUOUS
10
166.9309700000000021
20
-105.5543289999999956
11
166.9499999999999886
21
-105.6499999999999915
0
LINE
8
BLACK
6
CONTINUOUS
10
166.9499999999999886
20
-105.6499999999999915
11
166.9499999999999886
21
-106.3499999999999943
0
LINE
8
BLACK
6
CONTINUOUS
10
166.9499999999999886
20
-106.3499999999999943
11
166.9309700000000021
21
-106.4456709999999902
0
LINE
8
BLACK
6
CONTINUOUS
10
166.9309700000000021
20
-106.4456709999999902
11
166.8767770000000041
21
-106.5267769999999956
0
LINE
8
BLACK
6
CONTINUOUS
10
166.8767770000000041
20
-106.5267769999999956
11
166.7956709999999987
21
-106.5809699999999935
0
LINE
8
BLACK
6
CONTINUOUS
10
166.7956709999999987
20
-106.5809699999999935
11
166.6999999999999886
21
-106.5999999999999943
0
LINE
8
BLACK
6
CONTINUOUS
10
166.6999999999999886
20
-106.5999999999999943
11
165.7999999999999829
21
-106.5999999999999943
0
LINE
8
BLACK
6
CONTINUOUS
10
165.7999999999999829
20
-106.5999999999999943
11
165.7043290000000013
21
-106.5809699999999935
0
LINE
8
BLACK
6
CONTINUOUS
10
165.7043290000000013
20
-106.5809699999999935
11
165.6232229999999959
21
-106.5267769999999956
0
LINE
8
BLACK
6
CONTINUOUS
10
165.6232229999999959
20
-106.5267769999999956
11
165.5690299999999979
21
-106.4456709999999902
0
LINE
8
BLACK
6
CONTINUOUS
10
165.5690299999999979
20
-106.4456709999999902
11
165.5499999999999829
21
-106.3499999999999943
0
LINE
8
BLACK
6
CONTINUOUS
10
165.5499999999999829
20
-106.3499999999999943
11
165.5499999999999829
21
-105.6499999999999915
0
LINE
8
BLACK
6
CONTINUOUS
10
165.5499999999999829
20
-105.6499999999999915
11
165.5690299999999979
21
-105.5543289999999956
0
LINE
8
BLACK
6
CONTINUOUS
10
165.5690299999999979
20
-105.5543289999999956
11
165.6232229999999959
21
-105.4732229999999902
0
LINE
8
BLACK
6
CONTINUOUS
10
165.6232229999999959
20
-105.4732229999999902
11
165.7043290000000013
21
-105.4190299999999922
0
LINE
8
BLACK
6
CONTINUOUS
10
165.7043290000000013
20
-105.4190299999999922
11
165.7999999999999829
21
-105.3999999999999915
0
LINE
8
BLACK
6
CONTINUOUS
10
165.7999999999999829
20
-105.3999999999999915
11
166.6999999999999886
21
-105.3999999999999915
0
LINE
8
BLACK
6
CONTINUOUS
10
166.6999999999999886
20
-105.3999999999999915
11
166.7956709999999987
21
-105.4190299999999922
0
LINE
8
BLACK
6
CONTINUOUS
10
201.7956709999999987
20
-104.1690299999999922
11
201.8767770000000041
21
-104.2232229999999902
0
LINE
8
BLACK
6
CONTINUOUS
10
201.8767770000000041
20
-104.2232229999999902
11
201.9309700000000021
21
-104.3043289999999956
0
LINE
8
BLACK
6
CONTINUOUS
10
201.9309700000000021
20
-104.3043289999999956
11
201.9499999999999886
21
-104.3999999999999915
0
LINE
8
BLACK
6
CONTINUOUS
10
201.9499999999999886
20
-104.3999999999999915
11
201.9499999999999886
21
-105.0999999999999943
0
LINE
8
BLACK
6
CONTINUOUS
10
201.9499999999999886
20
-105.0999999999999943
11
201.9309700000000021
21
-105.1956709999999902
0
LINE
8
BLACK
6
CONTINUOUS
10
201.9309700000000021
20
-105.1956709999999902
11
201.8767770000000041
21
-105.2767769999999956
0
LINE
8
BLACK
6
CONTINUOUS
10
201.8767770000000041
20
-105.2767769999999956
11
201.7956709999999987
21
-105.3309699999999935
0
LINE
8
BLACK
6
CONTINUOUS
10
201.7956709999999987
20
-105.3309699999999935
11
201.6999999999999886
21
-105.3499999999999943
0
LINE
8
BLACK
6
CONTINUOUS
10
201.6999999999999886
20
-105.3499999999999943
11
200.7999999999999829
21
-105.3499999999999943
0
LINE
8
BLACK
6
CONTINUOUS
10
200.7999999999999829
20
-105.3499999999999943
11
200.7043290000000013
21
-105.3309699999999935
0
LINE
8
BLACK
6
CONTINUOUS
10
200.7043290000000013
20
-105.3309699999999935
11
200.6232229999999959
21
-105.2767769999999956
0
LINE
8
BLACK
6
CONTINUOUS
10
200.6232229999999959
20
-105.2767769999999956
11
200.5690299999999979
21
-105.1956709999999902
0
LINE
8
BLACK
6
CONTINUOUS
10
200.5690299999999979
20
-105.1956709999999902
11
200.5499999999999829
21
-105.0999999999999943
0
LINE
8
BLACK
6
CONTINUOUS
10
200.5499999999999829
20
-105.0999999999999943
11
200.5499999999999829
21
-104.3999999999999915
0
LINE
8
BLACK
6
CONTINUOUS
10
200.5499999999999829
20
-104.3999999999999915
11
200.5690299999999979
21
-104.3043289999999956
0
LINE
8
BLACK
6
CONTINUOUS
10
200.5690299999999979
20
-104.3043289999999956
11
200.6232229999999959
21
-104.2232229999999902
0
LINE
8
BLACK
6
CONTINUOUS
10
200.6232229999999959
20
-104.2232229999999902
11
200.7043290000000013
21
-104.1690299999999922
0
LINE
8
BLACK
6
CONTINUOUS
10
200.7043290000000013
20
-104.1690299999999922
11
200.7999999999999829
21
-104.1499999999999915
0
LINE
8
BLACK
6
CONTINUOUS
10
200.7999999999999829
20
-104.1499999999999915
11
201.6999999999999886
21
-104.1499999999999915
0
LINE
8
BLACK
6
CONTINUOUS
10
201.6999999999999886
20
-104.1499999999999915
11
201.7956709999999987
21
-104.1690299999999922
0
LINE
8
BLACK
6
CONTINUOUS
10
192.9456710000000044
20
-102.5690299999999979
11
193.0267769999999814
21
-102.6232229999999959
0
LINE
8
BLACK
6
CONTINUOUS
10
193.0267769999999814
20
-102.6232229999999959
11
193.0809699999999793
21
-102.7043290000000013
0
LINE
8
BLACK
6
CONTINUOUS
10
193.0809699999999793
20
-102.7043290000000013
11
193.0999999999999943
21
-102.7999999999999972
0
LINE
8
BLACK
6
CONTINUOUS
10
193.0999999999999943
20
-102.7999999999999972
11
193.0999999999999943
21
-103.6999999999999886
0
LINE
8
BLACK
6
CONTINUOUS
10
193.0999999999999943
20
-103.6999999999999886
11
193.0809699999999793
21
-103.7956709999999987
0
LINE
8
BLACK
6
CONTINUOUS
10
193.0809699999999793
20
-103.7956709999999987
11
193.0267769999999814
21
-103.8767769999999899
0
LINE
8
BLACK
6
CONTINUOUS
10
193.0267769999999814
20
-103.8767769999999899
11
192.9456710000000044
21
-103.9309700000000021
0
LINE
8
BLACK
6
CONTINUOUS
10
192.9456710000000044
20
-103.9309700000000021
11
192.8499999999999943
21
-103.9499999999999886
0
LINE
8
BLACK
6
CONTINUOUS
10
192.8499999999999943
20
-103.9499999999999886
11
192.1499999999999773
21
-103.9499999999999886
0
LINE
8
BLACK
6
CONTINUOUS
10
192.1499999999999773
20
-103.9499999999999886
11
192.0543289999999956
21
-103.9309700000000021
0
LINE
8
BLACK
6
CONTINUOUS
10
192.0543289999999956
20
-103.9309700000000021
11
191.9732229999999902
21
-103.8767769999999899
0
LINE
8
BLACK
6
CONTINUOUS
10
191.9732229999999902
20
-103.8767769999999899
11
191.9190299999999922
21
-103.7956709999999987
0
LINE
8
BLACK
6
CONTINUOUS
10
191.9190299999999922
20
-103.7956709999999987
11
191.8999999999999773
21
-103.6999999999999886
0
LINE
8
BLACK
6
CONTINUOUS
10
191.8999999999999773
20
-103.6999999999999886
11
191.8999999999999773
21
-102.7999999999999972
0
LINE
8
BLACK
6
CONTINUOUS
10
191.8999999999999773
20
-102.7999999999999972
11
191.9190299999999922
21
-102.7043290000000013
0
LINE
8
BLACK
6
CONTINUOUS
10
191.9190299999999922
20
-102.7043290000000013
11
191.9732229999999902
21
-102.6232229999999959
0
LINE
8
BLACK
6
CONTINUOUS
10
191.9732229999999902
20
-102.6232229999999959
11
192.0543289999999956
21
-102.5690299999999979
0
LINE
8
BLACK
6
CONTINUOUS
10
192.0543289999999956
20
-102.5690299999999979
11
192.1499999999999773
21
-102.5499999999999972
0
LINE
8
BLACK
6
CONTINUOUS
10
192.1499999999999773
20
-102.5499999999999972
11
192.8499999999999943
21
-102.5499999999999972
0
LINE
8
BLACK
6
CONTINUOUS
10
192.8499999999999943
20
-102.5499999999999972
11
192.9456710000000044
21
-102.5690299999999979
0
LINE
8
BLACK
6
CONTINUOUS
10
194.9456710000000044
20
-102.5690299999999979
11
195.0267769999999814
21
-102.6232229999999959
0
LINE
8
BLACK
6
CONTINUOUS
10
195.0267769999999814
20
-102.6232229999999959
11
195.0809699999999793
21
-102.7043290000000013
0
LINE
8
BLACK
6
CONTINUOUS
10
195.0809699999999793
20
-102.7043290000000013
11
195.0999999999999943
21
-102.7999999999999972
0
LINE
8
BLACK
6
CONTINUOUS
10
195.0999999999999943
20
-102.7999999999999972
11
195.0999999999999943
21
-103.6999999999999886
0
LINE
8
BLACK
6
CONTINUOUS
10
195.0999999999999943
20
-103.6999999999999886
11
195.0809699999999793
21
-103.7956709999999987
0
LINE
8
BLACK
6
CONTINUOUS
10
195.0809699999999793
20
-103.7956709999999987
11
195.0267769999999814
21
-103.8767769999999899
0
LINE
8
BLACK
6
CONTINUOUS
10
195.0267769999999814
20
-103.8767769999999899
11
194.9456710000000044
21
-103.9309700000000021
0
LINE
8
BLACK
6
CONTINUOUS
10
194.9456710000000044
20
-103.9309700000000021
11
194.8499999999999943
21
-103.9499999999999886
0
LINE
8
BLACK
6
CONTINUOUS
10
194.8499999999999943
20
-103.9499999999999886
11
194.1499999999999773
21
-103.9499999999999886
0
LINE
8
BLACK
6
CONTINUOUS
10
194.1499999999999773
20
-103.9499999999999886
11
194.0543289999999956
21
-103.9309700000000021
0
LINE
8
BLACK
6
CONTINUOUS
10
194.0543289999999956
20
-103.9309700000000021
11
193.9732229999999902
21
-103.8767769999999899
0
LINE
8
BLACK
6
CONTINUOUS
10
193.9732229999999902
20
-103.8767769999999899
11
193.9190299999999922
21
-103.7956709999999987
0
LINE
8
BLACK
6
CONTINUOUS
10
193.9190299999999922
20
-103.7956709999999987
11
193.8999999999999773
21
-103.6999999999999886
0
LINE
8
BLACK
6
CONTINUOUS
10
193.8999999999999773
20
-103.6999999999999886
11
193.8999999999999773
21
-102.7999999999999972
0
LINE
8
BLACK
6
CONTINUOUS
10
193.8999999999999773
20
-102.7999999999999972
11
193.9190299999999922
21
-102.7043290000000013
0
LINE
8
BLACK
6
CONTINUOUS
10
193.9190299999999922
20
-102.7043290000000013
11
193.9732229999999902
21
-102.6232229999999959
0
LINE
8
BLACK
6
CONTINUOUS
10
193.9732229999999902
20
-102.6232229999999959
11
194.0543289999999956
21
-102.5690299999999979
0
LINE
8
BLACK
6
CONTINUOUS
10
194.0543289999999956
20
-102.5690299999999979
11
194.1499999999999773
21
-102.5499999999999972
0
LINE
8
BLACK
6
CONTINUOUS
10
194.1499999999999773
20
-102.5499999999999972
11
194.8499999999999943
21
-102.5499999999999972
0
LINE
8
BLACK
6
CONTINUOUS
10
194.8499999999999943
20
-102.5499999999999972
11
194.9456710000000044
21
-102.5690299999999979
0
LINE
8
BLACK
6
CONTINUOUS
10
209.6956710000000044
20
-102.3190299999999979
11
209.7767769999999814
21
-102.3732229999999959
0
LINE
8
BLACK
6
CONTINUOUS
10
209.7767769999999814
20
-102.3732229999999959
11
209.8309699999999793
21
-102.4543290000000013
0
LINE
8
BLACK
6
CONTINUOUS
10
209.8309699999999793
20
-102.4543290000000013
11
209.8499999999999943
21
-102.5499999999999972
0
LINE
8
BLACK
6
CONTINUOUS
10
209.8499999999999943
20
-102.5499999999999972
11
209.8499999999999943
21
-103.4499999999999886
0
LINE
8
BLACK
6
CONTINUOUS
10
209.8499999999999943
20
-103.4499999999999886
11
209.8309699999999793
21
-103.5456709999999987
0
LINE
8
BLACK
6
CONTINUOUS
10
209.8309699999999793
20
-103.5456709999999987
11
209.7767769999999814
21
-103.6267769999999899
0
LINE
8
BLACK
6
CONTINUOUS
10
209.7767769999999814
20
-103.6267769999999899
11
209.6956710000000044
21
-103.6809700000000021
0
LINE
8
BLACK
6
CONTINUOUS
10
209.6956710000000044
20
-103.6809700000000021
11
209.5999999999999943
21
-103.6999999999999886
0
LINE
8
BLACK
6
CONTINUOUS
10
209.5999999999999943
20
-103.6999999999999886
11
208.8999999999999773
21
-103.6999999999999886
0
LINE
8
BLACK
6
CONTINUOUS
10
208.8999999999999773
20
-103.6999999999999886
11
208.8043289999999956
21
-103.6809700000000021
0
LINE
8
BLACK
6
CONTINUOUS
10
208.8043289999999956
20
-103.6809700000000021
11
208.7232229999999902
21
-103.6267769999999899
0
LINE
8
BLACK
6
CONTINUOUS
10
208.7232229999999902
20
-103.6267769999999899
11
208.6690299999999922
21
-103.5456709999999987
0
LINE
8
BLACK
6
CONTINUOUS
10
208.6690299999999922
20
-103.5456709999999987
11
208.6499999999999773
21
-103.4499999999999886
0
LINE
8
BLACK
6
CONTINUOUS
10
208.6499999999999773
20
-103.4499999999999886
11
208.6499999999999773
21
-102.5499999999999972
0
LINE
8
BLACK
6
CONTINUOUS
10
208.6499999999999773
20
-102.5499999999999972
11
208.6690299999999922
21
-102.4543290000000013
0
LINE
8
BLACK
6
CONTINUOUS
10
208.6690299999999922
20
-102.4543290000000013
11
208.7232229999999902
21
-102.3732229999999959
0
LINE
8
BLACK
6
CONTINUOUS
10
208.7232229999999902
20
-102.3732229999999959
11
208.8043289999999956
21
-102.3190299999999979
0
LINE
8
BLACK
6
CONTINUOUS
10
208.8043289999999956
20
-102.3190299999999979
11
208.8999999999999773
21
-102.2999999999999972
0
LINE
8
BLACK
6
CONTINUOUS
10
208.8999999999999773
20
-102.2999999999999972
11
209.5999999999999943
21
-102.2999999999999972
0
LINE
8
BLACK
6
CONTINUOUS
10
209.5999999999999943
20
-102.2999999999999972
11
209.6956710000000044
21
-102.3190299999999979
0
LINE
8
BLACK
6
CONTINUOUS
10
211.6956710000000044
20
-102.3190299999999979
11
211.7767769999999814
21
-102.3732229999999959
0
LINE
8
BLACK
6
CONTINUOUS
10
211.7767769999999814
20
-102.3732229999999959
11
211.8309699999999793
21
-102.4543290000000013
0
LINE
8
BLACK
6
CONTINUOUS
10
211.8309699999999793
20
-102.4543290000000013
11
211.8499999999999943
21
-102.5499999999999972
0
LINE
8
BLACK
6
CONTINUOUS
10
211.8499999999999943
20
-102.5499999999999972
11
211.8499999999999943
21
-103.4499999999999886
0
LINE
8
BLACK
6
CONTINUOUS
10
211.8499999999999943
20
-103.4499999999999886
11
211.8309699999999793
21
-103.5456709999999987
0
LINE
8
BLACK
6
CONTINUOUS
10
211.8309699999999793
20
-103.5456709999999987
11
211.7767769999999814
21
-103.6267769999999899
0
LINE
8
BLACK
6
CONTINUOUS
10
211.7767769999999814
20
-103.6267769999999899
11
211.6956710000000044
21
-103.6809700000000021
0
LINE
8
BLACK
6
CONTINUOUS
10
211.6956710000000044
20
-103.6809700000000021
11
211.5999999999999943
21
-103.6999999999999886
0
LINE
8
BLACK
6
CONTINUOUS
10
211.5999999999999943
20
-103.6999999999999886
11
210.8999999999999773
21
-103.6999999999999886
0
LINE
8
BLACK
6
CONTINUOUS
10
210.8999999999999773
20
-103.6999999999999886
11
210.8043289999999956
21
-103.6809700000000021
0
LINE
8
BLACK
6
CONTINUOUS
10
210.8043289999999956
20
-103.6809700000000021
11
210.7232229999999902
21
-103.6267769999999899
0
LINE
8
BLACK
6
CONTINUOUS
10
210.7232229999999902
20
-103.6267769999999899
11
210.6690299999999922
21
-103.5456709999999987
0
LINE
8
BLACK
6
CONTINUOUS
10
210.6690299999999922
20
-103.5456709999999987
11
210.6499999999999773
21
-103.4499999999999886
0
LINE
8
BLACK
6
CONTINUOUS
10
210.6499999999999773
20
-103.4499999999999886
11
210.6499999999999773
21
-102.5499999999999972
0
LINE
8
BLACK
6
CONTINUOUS
10
210.6499999999999773
20
-102.5499999999999972
11
210.6690299999999922
21
-102.4543290000000013
0
LINE
8
BLACK
6
CONTINUOUS
10
210.6690299999999922
20
-102.4543290000000013
11
210.7232229999999902
21
-102.3732229999999959
0
LINE
8
BLACK
6
CONTINUOUS
10
210.7232229999999902
20
-102.3732229999999959
11
210.8043289999999956
21
-102.3190299999999979
0
LINE
8
BLACK
6
CONTINUOUS
10
210.8043289999999956
20
-102.3190299999999979
11
210.8999999999999773
21
-102.2999999999999972
0
LINE
8
BLACK
6
CONTINUOUS
10
210.8999999999999773
20
-102.2999999999999972
11
211.5999999999999943
21
-102.2999999999999972
0
LINE
8
BLACK
6
CONTINUOUS
10
211.5999999999999943
20
-102.2999999999999972
11
211.6956710000000044
21
-102.3190299999999979
0
LINE
8
BLACK
6
CONTINUOUS
10
201.7956709999999987
20
-102.1690299999999922
11
201.8767770000000041
21
-102.2232229999999902
0
LINE
8
BLACK
6
CONTINUOUS
10
201.8767770000000041
20
-102.2232229999999902
11
201.9309700000000021
21
-102.3043289999999956
0
LINE
8
BLACK
6
CONTINUOUS
10
201.9309700000000021
20
-102.3043289999999956
11
201.9499999999999886
21
-102.3999999999999915
0
LINE
8
BLACK
6
CONTINUOUS
10
201.9499999999999886
20
-102.3999999999999915
11
201.9499999999999886
21
-103.0999999999999943
0
LINE
8
BLACK
6
CONTINUOUS
10
201.9499999999999886
20
-103.0999999999999943
11
201.9309700000000021
21
-103.1956709999999902
0
LINE
8
BLACK
6
CONTINUOUS
10
201.9309700000000021
20
-103.1956709999999902
11
201.8767770000000041
21
-103.2767769999999956
0
LINE
8
BLACK
6
CONTINUOUS
10
201.8767770000000041
20
-103.2767769999999956
11
201.7956709999999987
21
-103.3309699999999935
0
LINE
8
BLACK
6
CONTINUOUS
10
201.7956709999999987
20
-103.3309699999999935
11
201.6999999999999886
21
-103.3499999999999943
0
LINE
8
BLACK
6
CONTINUOUS
10
201.6999999999999886
20
-103.3499999999999943
11
200.7999999999999829
21
-103.3499999999999943
0
LINE
8
BLACK
6
CONTINUOUS
10
200.7999999999999829
20
-103.3499999999999943
11
200.7043290000000013
21
-103.3309699999999935
0
LINE
8
BLACK
6
CONTINUOUS
10
200.7043290000000013
20
-103.3309699999999935
11
200.6232229999999959
21
-103.2767769999999956
0
LINE
8
BLACK
6
CONTINUOUS
10
200.6232229999999959
20
-103.2767769999999956
11
200.5690299999999979
21
-103.1956709999999902
0
LINE
8
BLACK
6
CONTINUOUS
10
200.5690299999999979
20
-103.1956709999999902
11
200.5499999999999829
21
-103.0999999999999943
0
LINE
8
BLACK
6
CONTINUOUS
10
200.5499999999999829
20
-103.0999999999999943
11
200.5499999999999829
21
-102.3999999999999915
0
LINE
8
BLACK
6
CONTINUOUS
10
200.5499999999999829
20
-102.3999999999999915
11
200.5690299999999979
21
-102.3043289999999956
0
LINE
8
BLACK
6
CONTINUOUS
10
200.5690299999999979
20
-102.3043289999999956
11
200.6232229999999959
21
-102.2232229999999902
0
LINE
8
BLACK
6
CONTINUOUS
10
200.6232229999999959
20
-102.2232229999999902
11
200.7043290000000013
21
-102.1690299999999922
0
LINE
8
BLACK
6
CONTINUOUS
10
200.7043290000000013
20
-102.1690299999999922
11
200.7999999999999829
21
-102.1499999999999915
0
LINE
8
BLACK
6
CONTINUOUS
10
200.7999999999999829
20
-102.1499999999999915
11
201.6999999999999886
21
-102.1499999999999915
0
LINE
8
BLACK
6
CONTINUOUS
10
201.6999999999999886
20
-102.1499999999999915
11
201.7956709999999987
21
-102.1690299999999922
0
LINE
8
BLACK
6
CONTINUOUS
10
163.2956709999999987
20
-101.9190299999999922
11
163.3767770000000041
21
-101.9732229999999902
0
LINE
8
BLACK
6
CONTINUOUS
10
163.3767770000000041
20
-101.9732229999999902
11
163.4309700000000021
21
-102.0543289999999956
0
LINE
8
BLACK
6
CONTINUOUS
10
163.4309700000000021
20
-102.0543289999999956
11
163.4499999999999886
21
-102.1499999999999915
0
LINE
8
BLACK
6
CONTINUOUS
10
163.4499999999999886
20
-102.1499999999999915
11
163.4499999999999886
21
-102.8499999999999943
0
LINE
8
BLACK
6
CONTINUOUS
10
163.4499999999999886
20
-102.8499999999999943
11
163.4309700000000021
21
-102.9456709999999902
0
LINE
8
BLACK
6
CONTINUOUS
10
163.4309700000000021
20
-102.9456709999999902
11
163.3767770000000041
21
-103.0267769999999956
0
LINE
8
BLACK
6
CONTINUOUS
10
163.3767770000000041
20
-103.0267769999999956
11
163.2956709999999987
21
-103.0809699999999935
0
LINE
8
BLACK
6
CONTINUOUS
10
163.2956709999999987
20
-103.0809699999999935
11
163.1999999999999886
21
-103.0999999999999943
0
LINE
8
BLACK
6
CONTINUOUS
10
163.1999999999999886
20
-103.0999999999999943
11
162.2999999999999829
21
-103.0999999999999943
0
LINE
8
BLACK
6
CONTINUOUS
10
162.2999999999999829
20
-103.0999999999999943
11
162.2043290000000013
21
-103.0809699999999935
0
LINE
8
BLACK
6
CONTINUOUS
10
162.2043290000000013
20
-103.0809699999999935
11
162.1232229999999959
21
-103.0267769999999956
0
LINE
8
BLACK
6
CONTINUOUS
10
162.1232229999999959
20
-103.0267769999999956
11
162.0690299999999979
21
-102.9456709999999902
0
LINE
8
BLACK
6
CONTINUOUS
10
162.0690299999999979
20
-102.9456709999999902
11
162.0499999999999829
21
-102.8499999999999943
0
LINE
8
BLACK
6
CONTINUOUS
10
162.0499999999999829
20
-102.8499999999999943
11
162.0499999999999829
21
-102.1499999999999915
0
LINE
8
BLACK
6
CONTINUOUS
10
162.0499999999999829
20
-102.1499999999999915
11
162.0690299999999979
21
-102.0543289999999956
0
LINE
8
BLACK
6
CONTINUOUS
10
162.0690299999999979
20
-102.0543289999999956
11
162.1232229999999959
21
-101.9732229999999902
0
LINE
8
BLACK
6
CONTINUOUS
10
162.1232229999999959
20
-101.9732229999999902
11
162.2043290000000013
21
-101.9190299999999922
0
LINE
8
BLACK
6
CONTINUOUS
10
162.2043290000000013
20
-101.9190299999999922
11
162.2999999999999829
21
-101.8999999999999915
0
LINE
8
BLACK
6
CONTINUOUS
10
162.2999999999999829
20
-101.8999999999999915
11
163.1999999999999886
21
-101.8999999999999915
0
LINE
8
BLACK
6
CONTINUOUS
10
163.1999999999999886
20
-101.8999999999999915
11
163.2956709999999987
21
-101.9190299999999922
0
LINE
8
BLACK
6
CONTINUOUS
10
171.7956709999999987
20
-101.9190299999999922
11
171.8767770000000041
21
-101.9732229999999902
0
LINE
8
BLACK
6
CONTINUOUS
10
171.8767770000000041
20
-101.9732229999999902
11
171.9309700000000021
21
-102.0543289999999956
0
LINE
8
BLACK
6
CONTINUOUS
10
171.9309700000000021
20
-102.0543289999999956
11
171.9499999999999886
21
-102.1499999999999915
0
LINE
8
BLACK
6
CONTINUOUS
10
171.9499999999999886
20
-102.1499999999999915
11
171.9499999999999886
21
-102.8499999999999943
0
LINE
8
BLACK
6
CONTINUOUS
10
171.9499999999999886
20
-102.8499999999999943
11
171.9309700000000021
21
-102.9456709999999902
0
LINE
8
BLACK
6
CONTINUOUS
10
171.9309700000000021
20
-102.9456709999999902
11
171.8767770000000041
21
-103.0267769999999956
0
LINE
8
BLACK
6
CONTINUOUS
10
171.8767770000000041
20
-103.0267769999999956
11
171.7956709999999987
21
-103.0809699999999935
0
LINE
8
BLACK
6
CONTINUOUS
10
171.7956709999999987
20
-103.0809699999999935
11
171.6999999999999886
21
-103.0999999999999943
0
LINE
8
BLACK
6
CONTINUOUS
10
171.6999999999999886
20
-103.0999999999999943
11
170.7999999999999829
21
-103.0999999999999943
0
LINE
8
BLACK
6
CONTINUOUS
10
170.7999999999999829
20
-103.0999999999999943
11
170.7043290000000013
21
-103.0809699999999935
0
LINE
8
BLACK
6
CONTINUOUS
10
170.7043290000000013
20
-103.0809699999999935
11
170.6232229999999959
21
-103.0267769999999956
0
LINE
8
BLACK
6
CONTINUOUS
10
170.6232229999999959
20
-103.0267769999999956
11
170.5690299999999979
21
-102.9456709999999902
0
LINE
8
BLACK
6
CONTINUOUS
10
170.5690299999999979
20
-102.9456709999999902
11
170.5499999999999829
21
-102.8499999999999943
0
LINE
8
BLACK
6
CONTINUOUS
10
170.5499999999999829
20
-102.8499999999999943
11
170.5499999999999829
21
-102.1499999999999915
0
LINE
8
BLACK
6
CONTINUOUS
10
170.5499999999999829
20
-102.1499999999999915
11
170.5690299999999979
21
-102.0543289999999956
0
LINE
8
BLACK
6
CONTINUOUS
10
170.5690299999999979
20
-102.0543289999999956
11
170.6232229999999959
21
-101.9732229999999902
0
LINE
8
BLACK
6
CONTINUOUS
10
170.6232229999999959
20
-101.9732229999999902
11
170.7043290000000013
21
-101.9190299999999922
0
LINE
8
BLACK
6
CONTINUOUS
10
170.7043290000000013
20
-101.9190299999999922
11
170.7999999999999829
21
-101.8999999999999915
0
LINE
8
BLACK
6
CONTINUOUS
10
170.7999999999999829
20
-101.8999999999999915
11
171.6999999999999886
21
-101.8999999999999915
0
LINE
8
BLACK
6
CONTINUOUS
10
171.6999999999999886
20
-101.8999999999999915
11
171.7956709999999987
21
-101.9190299999999922
0
LINE
8
BLACK
6
CONTINUOUS
10
175.7956709999999987
20
-101.9190299999999922
11
175.8767770000000041
21
-101.9732229999999902
0
LINE
8
BLACK
6
CONTINUOUS
10
175.8767770000000041
20
-101.9732229999999902
11
175.9309700000000021
21
-102.0543289999999956
0
LINE
8
BLACK
6
CONTINUOUS
10
175.9309700000000021
20
-102.0543289999999956
11
175.9499999999999886
21
-102.1499999999999915
0
LINE
8
BLACK
6
CONTINUOUS
10
175.9499999999999886
20
-102.1499999999999915
11
175.9499999999999886
21
-102.8499999999999943
0
LINE
8
BLACK
6
CONTINUOUS
10
175.9499999999999886
20
-102.8499999999999943
11
175.9309700000000021
21
-102.9456709999999902
0
LINE
8
BLACK
6
CONTINUOUS
10
175.9309700000000021
20
-102.9456709999999902
11
175.8767770000000041
21
-103.0267769999999956
0
LINE
8
BLACK
6
CONTINUOUS
10
175.8767770000000041
20
-103.0267769999999956
11
175.7956709999999987
21
-103.0809699999999935
0
LINE
8
BLACK
6
CONTINUOUS
10
175.7956709999999987
20
-103.0809699999999935
11
175.6999999999999886
21
-103.0999999999999943
0
LINE
8
BLACK
6
CONTINUOUS
10
175.6999999999999886
20
-103.0999999999999943
11
174.7999999999999829
21
-103.0999999999999943
0
LINE
8
BLACK
6
CONTINUOUS
10
174.7999999999999829
20
-103.0999999999999943
11
174.7043290000000013
21
-103.0809699999999935
0
LINE
8
BLACK
6
CONTINUOUS
10
174.7043290000000013
20
-103.0809699999999935
11
174.6232229999999959
21
-103.0267769999999956
0
LINE
8
BLACK
6
CONTINUOUS
10
174.6232229999999959
20
-103.0267769999999956
11
174.5690299999999979
21
-102.9456709999999902
0
LINE
8
BLACK
6
CONTINUOUS
10
174.5690299999999979
20
-102.9456709999999902
11
174.5499999999999829
21
-102.8499999999999943
0
LINE
8
BLACK
6
CONTINUOUS
10
174.5499999999999829
20
-102.8499999999999943
11
174.5499999999999829
21
-102.1499999999999915
0
LINE
8
BLACK
6
CONTINUOUS
10
174.5499999999999829
20
-102.1499999999999915
11
174.5690299999999979
21
-102.0543289999999956
0
LINE
8
BLACK
6
CONTINUOUS
10
174.5690299999999979
20
-102.0543289999999956
11
174.6232229999999959
21
-101.9732229999999902
0
LINE
8
BLACK
6
CONTINUOUS
10
174.6232229999999959
20
-101.9732229999999902
11
174.7043290000000013
21
-101.9190299999999922
0
LINE
8
BLACK
6
CONTINUOUS
10
174.7043290000000013
20
-101.9190299999999922
11
174.7999999999999829
21
-101.8999999999999915
0
LINE
8
BLACK
6
CONTINUOUS
10
174.7999999999999829
20
-101.8999999999999915
11
175.6999999999999886
21
-101.8999999999999915
0
LINE
8
BLACK
6
CONTINUOUS
10
175.6999999999999886
20
-101.8999999999999915
11
175.7956709999999987
21
-101.9190299999999922
0
LINE
8
BLACK
6
CONTINUOUS
10
163.2956709999999987
20
-99.9190299999999922
11
163.3767770000000041
21
-99.9732229999999902
0
LINE
8
BLACK
6
CONTINUOUS
10
163.3767770000000041
20
-99.9732229999999902
11
163.4309700000000021
21
-100.0543289999999956
0
LINE
8
BLACK
6
CONTINUOUS
10
163.4309700000000021
20
-100.0543289999999956
11
163.4499999999999886
21
-100.1499999999999915
0
LINE
8
BLACK
6
CONTINUOUS
10
163.4499999999999886
20
-100.1499999999999915
11
163.4499999999999886
21
-100.8499999999999943
0
LINE
8
BLACK
6
CONTINUOUS
10
163.4499999999999886
20
-100.8499999999999943
11
163.4309700000000021
21
-100.9456709999999902
0
LINE
8
BLACK
6
CONTINUOUS
10
163.4309700000000021
20
-100.9456709999999902
11
163.3767770000000041
21
-101.0267769999999956
0
LINE
8
BLACK
6
CONTINUOUS
10
163.3767770000000041
20
-101.0267769999999956
11
163.2956709999999987
21
-101.0809699999999935
0
LINE
8
BLACK
6
CONTINUOUS
10
163.2956709999999987
20
-101.0809699999999935
11
163.1999999999999886
21
-101.0999999999999943
0
LINE
8
BLACK
6
CONTINUOUS
10
163.1999999999999886
20
-101.0999999999999943
11
162.2999999999999829
21
-101.0999999999999943
0
LINE
8
BLACK
6
CONTINUOUS
10
162.2999999999999829
20
-101.0999999999999943
11
162.2043290000000013
21
-101.0809699999999935
0
LINE
8
BLACK
6
CONTINUOUS
10
162.2043290000000013
20
-101.0809699999999935
11
162.1232229999999959
21
-101.0267769999999956
0
LINE
8
BLACK
6
CONTINUOUS
10
162.1232229999999959
20
-101.0267769999999956
11
162.0690299999999979
21
-100.9456709999999902
0
LINE
8
BLACK
6
CONTINUOUS
10
162.0690299999999979
20
-100.9456709999999902
11
162.0499999999999829
21
-100.8499999999999943
0
LINE
8
BLACK
6
CONTINUOUS
10
162.0499999999999829
20
-100.8499999999999943
11
162.0499999999999829
21
-100.1499999999999915
0
LINE
8
BLACK
6
CONTINUOUS
10
162.0499999999999829
20
-100.1499999999999915
11
162.0690299999999979
21
-100.0543289999999956
0
LINE
8
BLACK
6
CONTINUOUS
10
162.0690299999999979
20
-100.0543289999999956
11
162.1232229999999959
21
-99.9732229999999902
0
LINE
8
BLACK
6
CONTINUOUS
10
162.1232229999999959
20
-99.9732229999999902
11
162.2043290000000013
21
-99.9190299999999922
0
LINE
8
BLACK
6
CONTINUOUS
10
162.2043290000000013
20
-99.9190299999999922
11
162.2999999999999829
21
-99.8999999999999915
0
LINE
8
BLACK
6
CONTINUOUS
10
162.2999999999999829
20
-99.8999999999999915
11
163.1999999999999886
21
-99.8999999999999915
0
LINE
8
BLACK
6
CONTINUOUS
10
163.1999999999999886
20
-99.8999999999999915
11
163.2956709999999987
21
-99.9190299999999922
0
LINE
8
BLACK
6
CONTINUOUS
10
171.7956709999999987
20
-99.9190299999999922
11
171.8767770000000041
21
-99.9732229999999902
0
LINE
8
BLACK
6
CONTINUOUS
10
171.8767770000000041
20
-99.9732229999999902
11
171.9309700000000021
21
-100.0543289999999956
0
LINE
8
BLACK
6
CONTINUOUS
10
171.9309700000000021
20
-100.0543289999999956
11
171.9499999999999886
21
-100.1499999999999915
0
LINE
8
BLACK
6
CONTINUOUS
10
171.9499999999999886
20
-100.1499999999999915
11
171.9499999999999886
21
-100.8499999999999943
0
LINE
8
BLACK
6
CONTINUOUS
10
171.9499999999999886
20
-100.8499999999999943
11
171.9309700000000021
21
-100.9456709999999902
0
LINE
8
BLACK
6
CONTINUOUS
10
171.9309700000000021
20
-100.9456709999999902
11
171.8767770000000041
21
-101.0267769999999956
0
LINE
8
BLACK
6
CONTINUOUS
10
171.8767770000000041
20
-101.0267769999999956
11
171.7956709999999987
21
-101.0809699999999935
0
LINE
8
BLACK
6
CONTINUOUS
10
171.7956709999999987
20
-101.0809699999999935
11
171.6999999999999886
21
-101.0999999999999943
0
LINE
8
BLACK
6
CONTINUOUS
10
171.6999999999999886
20
-101.0999999999999943
11
170.7999999999999829
21
-101.0999999999999943
0
LINE
8
BLACK
6
CONTINUOUS
10
170.7999999999999829
20
-101.0999999999999943
11
170.7043290000000013
21
-101.0809699999999935
0
LINE
8
BLACK
6
CONTINUOUS
10
170.7043290000000013
20
-101.0809699999999935
11
170.6232229999999959
21
-101.0267769999999956
0
LINE
8
BLACK
6
CONTINUOUS
10
170.6232229999999959
20
-101.0267769999999956
11
170.5690299999999979
21
-100.9456709999999902
0
LINE
8
BLACK
6
CONTINUOUS
10
170.5690299999999979
20
-100.9456709999999902
11
170.5499999999999829
21
-100.8499999999999943
0
LINE
8
BLACK
6
CONTINUOUS
10
170.5499999999999829
20
-100.8499999999999943
11
170.5499999999999829
21
-100.1499999999999915
0
LINE
8
BLACK
6
CONTINUOUS
10
170.5499999999999829
20
-100.1499999999999915
11
170.5690299999999979
21
-100.0543289999999956
0
LINE
8
BLACK
6
CONTINUOUS
10
170.5690299999999979
20
-100.0543289999999956
11
170.6232229999999959
21
-99.9732229999999902
0
LINE
8
BLACK
6
CONTINUOUS
10
170.6232229999999959
20
-99.9732229999999902
11
170.7043290000000013
21
-99.9190299999999922
0
LINE
8
BLACK
6
CONTINUOUS
10
170.7043290000000013
20
-99.9190299999999922
11
170.7999999999999829
21
-99.8999999999999915
0
LINE
8
BLACK
6
CONTINUOUS
10
170.7999999999999829
20
-99.8999999999999915
11
171.6999999999999886
21
-99.8999999999999915
0
LINE
8
BLACK
6
CONTINUOUS
10
171.6999999999999886
20
-99.8999999999999915
11
171.7956709999999987
21
-99.9190299999999922
0
LINE
8
BLACK
6
CONTINUOUS
10
175.7956709999999987
20
-99.9190299999999922
11
175.8767770000000041
21
-99.9732229999999902
0
LINE
8
BLACK
6
CONTINUOUS
10
175.8767770000000041
20
-99.9732229999999902
11
175.9309700000000021
21
-100.0543289999999956
0
LINE
8
BLACK
6
CONTINUOUS
10
175.9309700000000021
20
-100.0543289999999956
11
175.9499999999999886
21
-100.1499999999999915
0
LINE
8
BLACK
6
CONTINUOUS
10
175.9499999999999886
20
-100.1499999999999915
11
175.9499999999999886
21
-100.8499999999999943
0
LINE
8
BLACK
6
CONTINUOUS
10
175.9499999999999886
20
-100.8499999999999943
11
175.9309700000000021
21
-100.9456709999999902
0
LINE
8
BLACK
6
CONTINUOUS
10
175.9309700000000021
20
-100.9456709999999902
11
175.8767770000000041
21
-101.0267769999999956
0
LINE
8
BLACK
6
CONTINUOUS
10
175.8767770000000041
20
-101.0267769999999956
11
175.7956709999999987
21
-101.0809699999999935
0
LINE
8
BLACK
6
CONTINUOUS
10
175.7956709999999987
20
-101.0809699999999935
11
175.6999999999999886
21
-101.0999999999999943
0
LINE
8
BLACK
6
CONTINUOUS
10
175.6999999999999886
20
-101.0999999999999943
11
174.7999999999999829
21
-101.0999999999999943
0
LINE
8
BLACK
6
CONTINUOUS
10
174.7999999999999829
20
-101.0999999999999943
11
174.7043290000000013
21
-101.0809699999999935
0
LINE
8
BLACK
6
CONTINUOUS
10
174.7043290000000013
20
-101.0809699999999935
11
174.6232229999999959
21
-101.0267769999999956
0
LINE
8
BLACK
6
CONTINUOUS
10
174.6232229999999959
20
-101.0267769999999956
11
174.5690299999999979
21
-100.9456709999999902
0
LINE
8
BLACK
6
CONTINUOUS
10
174.5690299999999979
20
-100.9456709999999902
11
174.5499999999999829
21
-100.8499999999999943
0
LINE
8
BLACK
6
CONTINUOUS
10
174.5499999999999829
20
-100.8499999999999943
11
174.5499999999999829
21
-100.1499999999999915
0
LINE
8
BLACK
6
CONTINUOUS
10
174.5499999999999829
20
-100.1499999999999915
11
174.5690299999999979
21
-100.0543289999999956
0
LINE
8
BLACK
6
CONTINUOUS
10
174.5690299999999979
20
-100.0543289999999956
11
174.6232229999999959
21
-99.9732229999999902
0
LINE
8
BLACK
6
CONTINUOUS
10
174.6232229999999959
20
-99.9732229999999902
11
174.7043290000000013
21
-99.9190299999999922
0
LINE
8
BLACK
6
CONTINUOUS
10
174.7043290000000013
20
-99.9190299999999922
11
174.7999999999999829
21
-99.8999999999999915
0
LINE
8
BLACK
6
CONTINUOUS
10
174.7999999999999829
20
-99.8999999999999915
11
175.6999999999999886
21
-99.8999999999999915
0
LINE
8
BLACK
6
CONTINUOUS
10
175.6999999999999886
20
-99.8999999999999915
11
175.7956709999999987
21
-99.9190299999999922
0
LINE
8
BLACK
6
CONTINUOUS
10
133.6956710000000044
20
-98.1690299999999922
11
133.7767769999999814
21
-98.2232229999999902
0
LINE
8
BLACK
6
CONTINUOUS
10
133.7767769999999814
20
-98.2232229999999902
11
133.8309700000000078
21
-98.3043289999999956
0
LINE
8
BLACK
6
CONTINUOUS
10
133.8309700000000078
20
-98.3043289999999956
11
133.8499999999999943
21
-98.3999999999999915
0
LINE
8
BLACK
6
CONTINUOUS
10
133.8499999999999943
20
-98.3999999999999915
11
133.8499999999999943
21
-100.5999999999999943
0
LINE
8
BLACK
6
CONTINUOUS
10
133.8499999999999943
20
-100.5999999999999943
11
133.8309700000000078
21
-100.6956709999999902
0
LINE
8
BLACK
6
CONTINUOUS
10
133.8309700000000078
20
-100.6956709999999902
11
133.7767769999999814
21
-100.7767769999999956
0
LINE
8
BLACK
6
CONTINUOUS
10
133.7767769999999814
20
-100.7767769999999956
11
133.6956710000000044
21
-100.8309699999999935
0
LINE
8
BLACK
6
CONTINUOUS
10
133.6956710000000044
20
-100.8309699999999935
11
133.5999999999999943
21
-100.8499999999999943
0
LINE
8
BLACK
6
CONTINUOUS
10
133.5999999999999943
20
-100.8499999999999943
11
132.5999999999999943
21
-100.8499999999999943
0
LINE
8
BLACK
6
CONTINUOUS
10
132.5999999999999943
20
-100.8499999999999943
11
132.5043289999999843
21
-100.8309699999999935
0
LINE
8
BLACK
6
CONTINUOUS
10
132.5043289999999843
20
-100.8309699999999935
11
132.4232230000000072
21
-100.7767769999999956
0
LINE
8
BLACK
6
CONTINUOUS
10
132.4232230000000072
20
-100.7767769999999956
11
132.3690299999999809
21
-100.6956709999999902
0
LINE
8
BLACK
6
CONTINUOUS
10
132.3690299999999809
20
-100.6956709999999902
11
132.3499999999999943
21
-100.5999999999999943
0
LINE
8
BLACK
6
CONTINUOUS
10
132.3499999999999943
20
-100.5999999999999943
11
132.3499999999999943
21
-98.3999999999999915
0
LINE
8
BLACK
6
CONTINUOUS
10
132.3499999999999943
20
-98.3999999999999915
11
132.3690299999999809
21
-98.3043289999999956
0
LINE
8
BLACK
6
CONTINUOUS
10
132.3690299999999809
20
-98.3043289999999956
11
132.4232230000000072
21
-98.2232229999999902
0
LINE
8
BLACK
6
CONTINUOUS
10
132.4232230000000072
20
-98.2232229999999902
11
132.5043289999999843
21
-98.1690299999999922
0
LINE
8
BLACK
6
CONTINUOUS
10
132.5043289999999843
20
-98.1690299999999922
11
132.5999999999999943
21
-98.1499999999999915
0
LINE
8
BLACK
6
CONTINUOUS
10
132.5999999999999943
20
-98.1499999999999915
11
133.5999999999999943
21
-98.1499999999999915
0
LINE
8
BLACK
6
CONTINUOUS
10
133.5999999999999943
20
-98.1499999999999915
11
133.6956710000000044
21
-98.1690299999999922
0
LINE
8
BLACK
6
CONTINUOUS
10
138.4956709999999873
20
-98.1690299999999922
11
138.5767769999999928
21
-98.2232229999999902
0
LINE
8
BLACK
6
CONTINUOUS
10
138.5767769999999928
20
-98.2232229999999902
11
138.6309699999999907
21
-98.3043289999999956
0
LINE
8
BLACK
6
CONTINUOUS
10
138.6309699999999907
20
-98.3043289999999956
11
138.6500000000000057
21
-98.3999999999999915
0
LINE
8
BLACK
6
CONTINUOUS
10
138.6500000000000057
20
-98.3999999999999915
11
138.6500000000000057
21
-100.5999999999999943
0
LINE
8
BLACK
6
CONTINUOUS
10
138.6500000000000057
20
-100.5999999999999943
11
138.6309699999999907
21
-100.6956709999999902
0
LINE
8
BLACK
6
CONTINUOUS
10
138.6309699999999907
20
-100.6956709999999902
11
138.5767769999999928
21
-100.7767769999999956
0
LINE
8
BLACK
6
CONTINUOUS
10
138.5767769999999928
20
-100.7767769999999956
11
138.4956709999999873
21
-100.8309699999999935
0
LINE
8
BLACK
6
CONTINUOUS
10
138.4956709999999873
20
-100.8309699999999935
11
138.4000000000000057
21
-100.8499999999999943
0
LINE
8
BLACK
6
CONTINUOUS
10
138.4000000000000057
20
-100.8499999999999943
11
137.4000000000000057
21
-100.8499999999999943
0
LINE
8
BLACK
6
CONTINUOUS
10
137.4000000000000057
20
-100.8499999999999943
11
137.3043289999999956
21
-100.8309699999999935
0
LINE
8
BLACK
6
CONTINUOUS
10
137.3043289999999956
20
-100.8309699999999935
11
137.2232229999999902
21
-100.7767769999999956
0
LINE
8
BLACK
6
CONTINUOUS
10
137.2232229999999902
20
-100.7767769999999956
11
137.1690299999999922
21
-100.6956709999999902
0
LINE
8
BLACK
6
CONTINUOUS
10
137.1690299999999922
20
-100.6956709999999902
11
137.1500000000000057
21
-100.5999999999999943
0
LINE
8
BLACK
6
CONTINUOUS
10
137.1500000000000057
20
-100.5999999999999943
11
137.1500000000000057
21
-98.3999999999999915
0
LINE
8
BLACK
6
CONTINUOUS
10
137.1500000000000057
20
-98.3999999999999915
11
137.1690299999999922
21
-98.3043289999999956
0
LINE
8
BLACK
6
CONTINUOUS
10
137.1690299999999922
20
-98.3043289999999956
11
137.2232229999999902
21
-98.2232229999999902
0
LINE
8
BLACK
6
CONTINUOUS
10
137.2232229999999902
20
-98.2232229999999902
11
137.3043289999999956
21
-98.1690299999999922
0
LINE
8
BLACK
6
CONTINUOUS
10
137.3043289999999956
20
-98.1690299999999922
11
137.4000000000000057
21
-98.1499999999999915
0
LINE
8
BLACK
6
CONTINUOUS
10
137.4000000000000057
20
-98.1499999999999915
11
138.4000000000000057
21
-98.1499999999999915
0
LINE
8
BLACK
6
CONTINUOUS
10
138.4000000000000057
20
-98.1499999999999915
11
138.4956709999999873
21
-98.1690299999999922
0
LINE
8
BLACK
6
CONTINUOUS
10
201.7956709999999987
20
-99.6690299999999922
11
201.8767770000000041
21
-99.7232229999999902
0
LINE
8
BLACK
6
CONTINUOUS
10
201.8767770000000041
20
-99.7232229999999902
11
201.9309700000000021
21
-99.8043289999999956
0
LINE
8
BLACK
6
CONTINUOUS
10
201.9309700000000021
20
-99.8043289999999956
11
201.9499999999999886
21
-99.8999999999999915
0
LINE
8
BLACK
6
CONTINUOUS
10
201.9499999999999886
20
-99.8999999999999915
11
201.9499999999999886
21
-100.5999999999999943
0
LINE
8
BLACK
6
CONTINUOUS
10
201.9499999999999886
20
-100.5999999999999943
11
201.9309700000000021
21
-100.6956709999999902
0
LINE
8
BLACK
6
CONTINUOUS
10
201.9309700000000021
20
-100.6956709999999902
11
201.8767770000000041
21
-100.7767769999999956
0
LINE
8
BLACK
6
CONTINUOUS
10
201.8767770000000041
20
-100.7767769999999956
11
201.7956709999999987
21
-100.8309699999999935
0
LINE
8
BLACK
6
CONTINUOUS
10
201.7956709999999987
20
-100.8309699999999935
11
201.6999999999999886
21
-100.8499999999999943
0
LINE
8
BLACK
6
CONTINUOUS
10
201.6999999999999886
20
-100.8499999999999943
11
200.7999999999999829
21
-100.8499999999999943
0
LINE
8
BLACK
6
CONTINUOUS
10
200.7999999999999829
20
-100.8499999999999943
11
200.7043290000000013
21
-100.8309699999999935
0
LINE
8
BLACK
6
CONTINUOUS
10
200.7043290000000013
20
-100.8309699999999935
11
200.6232229999999959
21
-100.7767769999999956
0
LINE
8
BLACK
6
CONTINUOUS
10
200.6232229999999959
20
-100.7767769999999956
11
200.5690299999999979
21
-100.6956709999999902
0
LINE
8
BLACK
6
CONTINUOUS
10
200.5690299999999979
20
-100.6956709999999902
11
200.5499999999999829
21
-100.5999999999999943
0
LINE
8
BLACK
6
CONTINUOUS
10
200.5499999999999829
20
-100.5999999999999943
11
200.5499999999999829
21
-99.8999999999999915
0
LINE
8
BLACK
6
CONTINUOUS
10
200.5499999999999829
20
-99.8999999999999915
11
200.5690299999999979
21
-99.8043289999999956
0
LINE
8
BLACK
6
CONTINUOUS
10
200.5690299999999979
20
-99.8043289999999956
11
200.6232229999999959
21
-99.7232229999999902
0
LINE
8
BLACK
6
CONTINUOUS
10
200.6232229999999959
20
-99.7232229999999902
11
200.7043290000000013
21
-99.6690299999999922
0
LINE
8
BLACK
6
CONTINUOUS
10
200.7043290000000013
20
-99.6690299999999922
11
200.7999999999999829
21
-99.6499999999999915
0
LINE
8
BLACK
6
CONTINUOUS
10
200.7999999999999829
20
-99.6499999999999915
11
201.6999999999999886
21
-99.6499999999999915
0
LINE
8
BLACK
6
CONTINUOUS
10
201.6999999999999886
20
-99.6499999999999915
11
201.7956709999999987
21
-99.6690299999999922
0
LINE
8
BLACK
6
CONTINUOUS
10
192.9456710000000044
20
-99.3190299999999979
11
193.0267769999999814
21
-99.3732229999999959
0
LINE
8
BLACK
6
CONTINUOUS
10
193.0267769999999814
20
-99.3732229999999959
11
193.0809699999999793
21
-99.4543290000000013
0
LINE
8
BLACK
6
CONTINUOUS
10
193.0809699999999793
20
-99.4543290000000013
11
193.0999999999999943
21
-99.5499999999999972
0
LINE
8
BLACK
6
CONTINUOUS
10
193.0999999999999943
20
-99.5499999999999972
11
193.0999999999999943
21
-100.4499999999999886
0
LINE
8
BLACK
6
CONTINUOUS
10
193.0999999999999943
20
-100.4499999999999886
11
193.0809699999999793
21
-100.5456709999999987
0
LINE
8
BLACK
6
CONTINUOUS
10
193.0809699999999793
20
-100.5456709999999987
11
193.0267769999999814
21
-100.6267769999999899
0
LINE
8
BLACK
6
CONTINUOUS
10
193.0267769999999814
20
-100.6267769999999899
11
192.9456710000000044
21
-100.6809700000000021
0
LINE
8
BLACK
6
CONTINUOUS
10
192.9456710000000044
20
-100.6809700000000021
11
192.8499999999999943
21
-100.6999999999999886
0
LINE
8
BLACK
6
CONTINUOUS
10
192.8499999999999943
20
-100.6999999999999886
11
192.1499999999999773
21
-100.6999999999999886
0
LINE
8
BLACK
6
CONTINUOUS
10
192.1499999999999773
20
-100.6999999999999886
11
192.0543289999999956
21
-100.6809700000000021
0
LINE
8
BLACK
6
CONTINUOUS
10
192.0543289999999956
20
-100.6809700000000021
11
191.9732229999999902
21
-100.6267769999999899
0
LINE
8
BLACK
6
CONTINUOUS
10
191.9732229999999902
20
-100.6267769999999899
11
191.9190299999999922
21
-100.5456709999999987
0
LINE
8
BLACK
6
CONTINUOUS
10
191.9190299999999922
20
-100.5456709999999987
11
191.8999999999999773
21
-100.4499999999999886
0
LINE
8
BLACK
6
CONTINUOUS
10
191.8999999999999773
20
-100.4499999999999886
11
191.8999999999999773
21
-99.5499999999999972
0
LINE
8
BLACK
6
CONTINUOUS
10
191.8999999999999773
20
-99.5499999999999972
11
191.9190299999999922
21
-99.4543290000000013
0
LINE
8
BLACK
6
CONTINUOUS
10
191.9190299999999922
20
-99.4543290000000013
11
191.9732229999999902
21
-99.3732229999999959
0
LINE
8
BLACK
6
CONTINUOUS
10
191.9732229999999902
20
-99.3732229999999959
11
192.0543289999999956
21
-99.3190299999999979
0
LINE
8
BLACK
6
CONTINUOUS
10
192.0543289999999956
20
-99.3190299999999979
11
192.1499999999999773
21
-99.2999999999999972
0
LINE
8
BLACK
6
CONTINUOUS
10
192.1499999999999773
20
-99.2999999999999972
11
192.8499999999999943
21
-99.2999999999999972
0
LINE
8
BLACK
6
CONTINUOUS
10
192.8499999999999943
20
-99.2999999999999972
11
192.9456710000000044
21
-99.3190299999999979
0
LINE
8
BLACK
6
CONTINUOUS
10
194.9456710000000044
20
-99.3190299999999979
11
195.0267769999999814
21
-99.3732229999999959
0
LINE
8
BLACK
6
CONTINUOUS
10
195.0267769999999814
20
-99.3732229999999959
11
195.0809699999999793
21
-99.4543290000000013
0
LINE
8
BLACK
6
CONTINUOUS
10
195.0809699999999793
20
-99.4543290000000013
11
195.0999999999999943
21
-99.5499999999999972
0
LINE
8
BLACK
6
CONTINUOUS
10
195.0999999999999943
20
-99.5499999999999972
11
195.0999999999999943
21
-100.4499999999999886
0
LINE
8
BLACK
6
CONTINUOUS
10
195.0999999999999943
20
-100.4499999999999886
11
195.0809699999999793
21
-100.5456709999999987
0
LINE
8
BLACK
6
CONTINUOUS
10
195.0809699999999793
20
-100.5456709999999987
11
195.0267769999999814
21
-100.6267769999999899
0
LINE
8
BLACK
6
CONTINUOUS
10
195.0267769999999814
20
-100.6267769999999899
11
194.9456710000000044
21
-100.6809700000000021
0
LINE
8
BLACK
6
CONTINUOUS
10
194.9456710000000044
20
-100.6809700000000021
11
194.8499999999999943
21
-100.6999999999999886
0
LINE
8
BLACK
6
CONTINUOUS
10
194.8499999999999943
20
-100.6999999999999886
11
194.1499999999999773
21
-100.6999999999999886
0
LINE
8
BLACK
6
CONTINUOUS
10
194.1499999999999773
20
-100.6999999999999886
11
194.0543289999999956
21
-100.6809700000000021
0
LINE
8
BLACK
6
CONTINUOUS
10
194.0543289999999956
20
-100.6809700000000021
11
193.9732229999999902
21
-100.6267769999999899
0
LINE
8
BLACK
6
CONTINUOUS
10
193.9732229999999902
20
-100.6267769999999899
11
193.9190299999999922
21
-100.5456709999999987
0
LINE
8
BLACK
6
CONTINUOUS
10
193.9190299999999922
20
-100.5456709999999987
11
193.8999999999999773
21
-100.4499999999999886
0
LINE
8
BLACK
6
CONTINUOUS
10
193.8999999999999773
20
-100.4499999999999886
11
193.8999999999999773
21
-99.5499999999999972
0
LINE
8
BLACK
6
CONTINUOUS
10
193.8999999999999773
20
-99.5499999999999972
11
193.9190299999999922
21
-99.4543290000000013
0
LINE
8
BLACK
6
CONTINUOUS
10
193.9190299999999922
20
-99.4543290000000013
11
193.9732229999999902
21
-99.3732229999999959
0
LINE
8
BLACK
6
CONTINUOUS
10
193.9732229999999902
20
-99.3732229999999959
11
194.0543289999999956
21
-99.3190299999999979
0
LINE
8
BLACK
6
CONTINUOUS
10
194.0543289999999956
20
-99.3190299999999979
11
194.1499999999999773
21
-99.2999999999999972
0
LINE
8
BLACK
6
CONTINUOUS
10
194.1499999999999773
20
-99.2999999999999972
11
194.8499999999999943
21
-99.2999999999999972
0
LINE
8
BLACK
6
CONTINUOUS
10
194.8499999999999943
20
-99.2999999999999972
11
194.9456710000000044
21
-99.3190299999999979
0
LINE
8
BLACK
6
CONTINUOUS
10
207.0456709999999987
20
-98.9190299999999922
11
207.1267770000000041
21
-98.9732229999999902
0
LINE
8
BLACK
6
CONTINUOUS
10
207.1267770000000041
20
-98.9732229999999902
11
207.1809700000000021
21
-99.0543289999999956
0
LINE
8
BLACK
6
CONTINUOUS
10
207.1809700000000021
20
-99.0543289999999956
11
207.1999999999999886
21
-99.1499999999999915
0
LINE
8
BLACK
6
CONTINUOUS
10
207.1999999999999886
20
-99.1499999999999915
11
207.1999999999999886
21
-99.8499999999999943
0
LINE
8
BLACK
6
CONTINUOUS
10
207.1999999999999886
20
-99.8499999999999943
11
207.1809700000000021
21
-99.9456709999999902
0
LINE
8
BLACK
6
CONTINUOUS
10
207.1809700000000021
20
-99.9456709999999902
11
207.1267770000000041
21
-100.0267769999999956
0
LINE
8
BLACK
6
CONTINUOUS
10
207.1267770000000041
20
-100.0267769999999956
11
207.0456709999999987
21
-100.0809699999999935
0
LINE
8
BLACK
6
CONTINUOUS
10
207.0456709999999987
20
-100.0809699999999935
11
206.9499999999999886
21
-100.0999999999999943
0
LINE
8
BLACK
6
CONTINUOUS
10
206.9499999999999886
20
-100.0999999999999943
11
206.0499999999999829
21
-100.0999999999999943
0
LINE
8
BLACK
6
CONTINUOUS
10
206.0499999999999829
20
-100.0999999999999943
11
205.9543290000000013
21
-100.0809699999999935
0
LINE
8
BLACK
6
CONTINUOUS
10
205.9543290000000013
20
-100.0809699999999935
11
205.8732229999999959
21
-100.0267769999999956
0
LINE
8
BLACK
6
CONTINUOUS
10
205.8732229999999959
20
-100.0267769999999956
11
205.8190299999999979
21
-99.9456709999999902
0
LINE
8
BLACK
6
CONTINUOUS
10
205.8190299999999979
20
-99.9456709999999902
11
205.7999999999999829
21
-99.8499999999999943
0
LINE
8
BLACK
6
CONTINUOUS
10
205.7999999999999829
20
-99.8499999999999943
11
205.7999999999999829
21
-99.1499999999999915
0
LINE
8
BLACK
6
CONTINUOUS
10
205.7999999999999829
20
-99.1499999999999915
11
205.8190299999999979
21
-99.0543289999999956
0
LINE
8
BLACK
6
CONTINUOUS
10
205.8190299999999979
20
-99.0543289999999956
11
205.8732229999999959
21
-98.9732229999999902
0
LINE
8
BLACK
6
CONTINUOUS
10
205.8732229999999959
20
-98.9732229999999902
11
205.9543290000000013
21
-98.9190299999999922
0
LINE
8
BLACK
6
CONTINUOUS
10
205.9543290000000013
20
-98.9190299999999922
11
206.0499999999999829
21
-98.8999999999999915
0
LINE
8
BLACK
6
CONTINUOUS
10
206.0499999999999829
20
-98.8999999999999915
11
206.9499999999999886
21
-98.8999999999999915
0
LINE
8
BLACK
6
CONTINUOUS
10
206.9499999999999886
20
-98.8999999999999915
11
207.0456709999999987
21
-98.9190299999999922
0
LINE
8
BLACK
6
CONTINUOUS
10
212.0456709999999987
20
-98.9190299999999922
11
212.1267770000000041
21
-98.9732229999999902
0
LINE
8
BLACK
6
CONTINUOUS
10
212.1267770000000041
20
-98.9732229999999902
11
212.1809700000000021
21
-99.0543289999999956
0
LINE
8
BLACK
6
CONTINUOUS
10
212.1809700000000021
20
-99.0543289999999956
11
212.1999999999999886
21
-99.1499999999999915
0
LINE
8
BLACK
6
CONTINUOUS
10
212.1999999999999886
20
-99.1499999999999915
11
212.1999999999999886
21
-99.8499999999999943
0
LINE
8
BLACK
6
CONTINUOUS
10
212.1999999999999886
20
-99.8499999999999943
11
212.1809700000000021
21
-99.9456709999999902
0
LINE
8
BLACK
6
CONTINUOUS
10
212.1809700000000021
20
-99.9456709999999902
11
212.1267770000000041
21
-100.0267769999999956
0
LINE
8
BLACK
6
CONTINUOUS
10
212.1267770000000041
20
-100.0267769999999956
11
212.0456709999999987
21
-100.0809699999999935
0
LINE
8
BLACK
6
CONTINUOUS
10
212.0456709999999987
20
-100.0809699999999935
11
211.9499999999999886
21
-100.0999999999999943
0
LINE
8
BLACK
6
CONTINUOUS
10
211.9499999999999886
20
-100.0999999999999943
11
211.0499999999999829
21
-100.0999999999999943
0
LINE
8
BLACK
6
CONTINUOUS
10
211.0499999999999829
20
-100.0999999999999943
11
210.9543290000000013
21
-100.0809699999999935
0
LINE
8
BLACK
6
CONTINUOUS
10
210.9543290000000013
20
-100.0809699999999935
11
210.8732229999999959
21
-100.0267769999999956
0
LINE
8
BLACK
6
CONTINUOUS
10
210.8732229999999959
20
-100.0267769999999956
11
210.8190299999999979
21
-99.9456709999999902
0
LINE
8
BLACK
6
CONTINUOUS
10
210.8190299999999979
20
-99.9456709999999902
11
210.7999999999999829
21
-99.8499999999999943
0
LINE
8
BLACK
6
CONTINUOUS
10
210.7999999999999829
20
-99.8499999999999943
11
210.7999999999999829
21
-99.1499999999999915
0
LINE
8
BLACK
6
CONTINUOUS
10
210.7999999999999829
20
-99.1499999999999915
11
210.8190299999999979
21
-99.0543289999999956
0
LINE
8
BLACK
6
CONTINUOUS
10
210.8190299999999979
20
-99.0543289999999956
11
210.8732229999999959
21
-98.9732229999999902
0
LINE
8
BLACK
6
CONTINUOUS
10
210.8732229999999959
20
-98.9732229999999902
11
210.9543290000000013
21
-98.9190299999999922
0
LINE
8
BLACK
6
CONTINUOUS
10
210.9543290000000013
20
-98.9190299999999922
11
211.0499999999999829
21
-98.8999999999999915
0
LINE
8
BLACK
6
CONTINUOUS
10
211.0499999999999829
20
-98.8999999999999915
11
211.9499999999999886
21
-98.8999999999999915
0
LINE
8
BLACK
6
CONTINUOUS
10
211.9499999999999886
20
-98.8999999999999915
11
212.0456709999999987
21
-98.9190299999999922
0
LINE
8
BLACK
6
CONTINUOUS
10
214.5456709999999987
20
-98.9190299999999922
11
214.6267770000000041
21
-98.9732229999999902
0
LINE
8
BLACK
6
CONTINUOUS
10
214.6267770000000041
20
-98.9732229999999902
11
214.6809700000000021
21
-99.0543289999999956
0
LINE
8
BLACK
6
CONTINUOUS
10
214.6809700000000021
20
-99.0543289999999956
11
214.6999999999999886
21
-99.1499999999999915
0
LINE
8
BLACK
6
CONTINUOUS
10
214.6999999999999886
20
-99.1499999999999915
11
214.6999999999999886
21
-99.8499999999999943
0
LINE
8
BLACK
6
CONTINUOUS
10
214.6999999999999886
20
-99.8499999999999943
11
214.6809700000000021
21
-99.9456709999999902
0
LINE
8
BLACK
6
CONTINUOUS
10
214.6809700000000021
20
-99.9456709999999902
11
214.6267770000000041
21
-100.0267769999999956
0
LINE
8
BLACK
6
CONTINUOUS
10
214.6267770000000041
20
-100.0267769999999956
11
214.5456709999999987
21
-100.0809699999999935
0
LINE
8
BLACK
6
CONTINUOUS
10
214.5456709999999987
20
-100.0809699999999935
11
214.4499999999999886
21
-100.0999999999999943
0
LINE
8
BLACK
6
CONTINUOUS
10
214.4499999999999886
20
-100.0999999999999943
11
213.5499999999999829
21
-100.0999999999999943
0
LINE
8
BLACK
6
CONTINUOUS
10
213.5499999999999829
20
-100.0999999999999943
11
213.4543290000000013
21
-100.0809699999999935
0
LINE
8
BLACK
6
CONTINUOUS
10
213.4543290000000013
20
-100.0809699999999935
11
213.3732229999999959
21
-100.0267769999999956
0
LINE
8
BLACK
6
CONTINUOUS
10
213.3732229999999959
20
-100.0267769999999956
11
213.3190299999999979
21
-99.9456709999999902
0
LINE
8
BLACK
6
CONTINUOUS
10
213.3190299999999979
20
-99.9456709999999902
11
213.2999999999999829
21
-99.8499999999999943
0
LINE
8
BLACK
6
CONTINUOUS
10
213.2999999999999829
20
-99.8499999999999943
11
213.2999999999999829
21
-99.1499999999999915
0
LINE
8
BLACK
6
CONTINUOUS
10
213.2999999999999829
20
-99.1499999999999915
11
213.3190299999999979
21
-99.0543289999999956
0
LINE
8
BLACK
6
CONTINUOUS
10
213.3190299999999979
20
-99.0543289999999956
11
213.3732229999999959
21
-98.9732229999999902
0
LINE
8
BLACK
6
CONTINUOUS
10
213.3732229999999959
20
-98.9732229999999902
11
213.4543290000000013
21
-98.9190299999999922
0
LINE
8
BLACK
6
CONTINUOUS
10
213.4543290000000013
20
-98.9190299999999922
11
213.5499999999999829
21
-98.8999999999999915
0
LINE
8
BLACK
6
CONTINUOUS
10
213.5499999999999829
20
-98.8999999999999915
11
214.4499999999999886
21
-98.8999999999999915
0
LINE
8
BLACK
6
CONTINUOUS
10
214.4499999999999886
20
-98.8999999999999915
11
214.5456709999999987
21
-98.9190299999999922
0
LINE
8
BLACK
6
CONTINUOUS
10
201.7956709999999987
20
-97.6690299999999922
11
201.8767770000000041
21
-97.7232229999999902
0
LINE
8
BLACK
6
CONTINUOUS
10
201.8767770000000041
20
-97.7232229999999902
11
201.9309700000000021
21
-97.8043289999999956
0
LINE
8
BLACK
6
CONTINUOUS
10
201.9309700000000021
20
-97.8043289999999956
11
201.9499999999999886
21
-97.8999999999999915
0
LINE
8
BLACK
6
CONTINUOUS
10
201.9499999999999886
20
-97.8999999999999915
11
201.9499999999999886
21
-98.5999999999999943
0
LINE
8
BLACK
6
CONTINUOUS
10
201.9499999999999886
20
-98.5999999999999943
11
201.9309700000000021
21
-98.6956709999999902
0
LINE
8
BLACK
6
CONTINUOUS
10
201.9309700000000021
20
-98.6956709999999902
11
201.8767770000000041
21
-98.7767769999999956
0
LINE
8
BLACK
6
CONTINUOUS
10
201.8767770000000041
20
-98.7767769999999956
11
201.7956709999999987
21
-98.8309699999999935
0
LINE
8
BLACK
6
CONTINUOUS
10
201.7956709999999987
20
-98.8309699999999935
11
201.6999999999999886
21
-98.8499999999999943
0
LINE
8
BLACK
6
CONTINUOUS
10
201.6999999999999886
20
-98.8499999999999943
11
200.7999999999999829
21
-98.8499999999999943
0
LINE
8
BLACK
6
CONTINUOUS
10
200.7999999999999829
20
-98.8499999999999943
11
200.7043290000000013
21
-98.8309699999999935
0
LINE
8
BLACK
6
CONTINUOUS
10
200.7043290000000013
20
-98.8309699999999935
11
200.6232229999999959
21
-98.7767769999999956
0
LINE
8
BLACK
6
CONTINUOUS
10
200.6232229999999959
20
-98.7767769999999956
11
200.5690299999999979
21
-98.6956709999999902
0
LINE
8
BLACK
6
CONTINUOUS
10
200.5690299999999979
20
-98.6956709999999902
11
200.5499999999999829
21
-98.5999999999999943
0
LINE
8
BLACK
6
CONTINUOUS
10
200.5499999999999829
20
-98.5999999999999943
11
200.5499999999999829
21
-97.8999999999999915
0
LINE
8
BLACK
6
CONTINUOUS
10
200.5499999999999829
20
-97.8999999999999915
11
200.5690299999999979
21
-97.8043289999999956
0
LINE
8
BLACK
6
CONTINUOUS
10
200.5690299999999979
20
-97.8043289999999956
11
200.6232229999999959
21
-97.7232229999999902
0
LINE
8
BLACK
6
CONTINUOUS
10
200.6232229999999959
20
-97.7232229999999902
11
200.7043290000000013
21
-97.6690299999999922
0
LINE
8
BLACK
6
CONTINUOUS
10
200.7043290000000013
20
-97.6690299999999922
11
200.7999999999999829
21
-97.6499999999999915
0
LINE
8
BLACK
6
CONTINUOUS
10
200.7999999999999829
20
-97.6499999999999915
11
201.6999999999999886
21
-97.6499999999999915
0
LINE
8
BLACK
6
CONTINUOUS
10
201.6999999999999886
20
-97.6499999999999915
11
201.7956709999999987
21
-97.6690299999999922
0
LINE
8
BLACK
6
CONTINUOUS
10
207.0456709999999987
20
-96.9190299999999922
11
207.1267770000000041
21
-96.9732229999999902
0
LINE
8
BLACK
6
CONTINUOUS
10
207.1267770000000041
20
-96.9732229999999902
11
207.1809700000000021
21
-97.0543289999999956
0
LINE
8
BLACK
6
CONTINUOUS
10
207.1809700000000021
20
-97.0543289999999956
11
207.1999999999999886
21
-97.1499999999999915
0
LINE
8
BLACK
6
CONTINUOUS
10
207.1999999999999886
20
-97.1499999999999915
11
207.1999999999999886
21
-97.8499999999999943
0
LINE
8
BLACK
6
CONTINUOUS
10
207.1999999999999886
20
-97.8499999999999943
11
207.1809700000000021
21
-97.9456709999999902
0
LINE
8
BLACK
6
CONTINUOUS
10
207.1809700000000021
20
-97.9456709999999902
11
207.1267770000000041
21
-98.0267769999999956
0
LINE
8
BLACK
6
CONTINUOUS
10
207.1267770000000041
20
-98.0267769999999956
11
207.0456709999999987
21
-98.0809699999999935
0
LINE
8
BLACK
6
CONTINUOUS
10
207.0456709999999987
20
-98.0809699999999935
11
206.9499999999999886
21
-98.0999999999999943
0
LINE
8
BLACK
6
CONTINUOUS
10
206.9499999999999886
20
-98.0999999999999943
11
206.0499999999999829
21
-98.0999999999999943
0
LINE
8
BLACK
6
CONTINUOUS
10
206.0499999999999829
20
-98.0999999999999943
11
205.9543290000000013
21
-98.0809699999999935
0
LINE
8
BLACK
6
CONTINUOUS
10
205.9543290000000013
20
-98.0809699999999935
11
205.8732229999999959
21
-98.0267769999999956
0
LINE
8
BLACK
6
CONTINUOUS
10
205.8732229999999959
20
-98.0267769999999956
11
205.8190299999999979
21
-97.9456709999999902
0
LINE
8
BLACK
6
CONTINUOUS
10
205.8190299999999979
20
-97.9456709999999902
11
205.7999999999999829
21
-97.8499999999999943
0
LINE
8
BLACK
6
CONTINUOUS
10
205.7999999999999829
20
-97.8499999999999943
11
205.7999999999999829
21
-97.1499999999999915
0
LINE
8
BLACK
6
CONTINUOUS
10
205.7999999999999829
20
-97.1499999999999915
11
205.8190299999999979
21
-97.0543289999999956
0
LINE
8
BLACK
6
CONTINUOUS
10
205.8190299999999979
20
-97.0543289999999956
11
205.8732229999999959
21
-96.9732229999999902
0
LINE
8
BLACK
6
CONTINUOUS
10
205.8732229999999959
20
-96.9732229999999902
11
205.9543290000000013
21
-96.9190299999999922
0
LINE
8
BLACK
6
CONTINUOUS
10
205.9543290000000013
20
-96.9190299999999922
11
206.0499999999999829
21
-96.8999999999999915
0
LINE
8
BLACK
6
CONTINUOUS
10
206.0499999999999829
20
-96.8999999999999915
11
206.9499999999999886
21
-96.8999999999999915
0
LINE
8
BLACK
6
CONTINUOUS
10
206.9499999999999886
20
-96.8999999999999915
11
207.0456709999999987
21
-96.9190299999999922
0
LINE
8
BLACK
6
CONTINUOUS
10
212.0456709999999987
20
-96.9190299999999922
11
212.1267770000000041
21
-96.9732229999999902
0
LINE
8
BLACK
6
CONTINUOUS
10
212.1267770000000041
20
-96.9732229999999902
11
212.1809700000000021
21
-97.0543289999999956
0
LINE
8
BLACK
6
CONTINUOUS
10
212.1809700000000021
20
-97.0543289999999956
11
212.1999999999999886
21
-97.1499999999999915
0
LINE
8
BLACK
6
CONTINUOUS
10
212.1999999999999886
20
-97.1499999999999915
11
212.1999999999999886
21
-97.8499999999999943
0
LINE
8
BLACK
6
CONTINUOUS
10
212.1999999999999886
20
-97.8499999999999943
11
212.1809700000000021
21
-97.9456709999999902
0
LINE
8
BLACK
6
CONTINUOUS
10
212.1809700000000021
20
-97.9456709999999902
11
212.1267770000000041
21
-98.0267769999999956
0
LINE
8
BLACK
6
CONTINUOUS
10
212.1267770000000041
20
-98.0267769999999956
11
212.0456709999999987
21
-98.0809699999999935
0
LINE
8
BLACK
6
CONTINUOUS
10
212.0456709999999987
20
-98.0809699999999935
11
211.9499999999999886
21
-98.0999999999999943
0
LINE
8
BLACK
6
CONTINUOUS
10
211.9499999999999886
20
-98.0999999999999943
11
211.0499999999999829
21
-98.0999999999999943
0
LINE
8
BLACK
6
CONTINUOUS
10
211.0499999999999829
20
-98.0999999999999943
11
210.9543290000000013
21
-98.0809699999999935
0
LINE
8
BLACK
6
CONTINUOUS
10
210.9543290000000013
20
-98.0809699999999935
11
210.8732229999999959
21
-98.0267769999999956
0
LINE
8
BLACK
6
CONTINUOUS
10
210.8732229999999959
20
-98.0267769999999956
11
210.8190299999999979
21
-97.9456709999999902
0
LINE
8
BLACK
6
CONTINUOUS
10
210.8190299999999979
20
-97.9456709999999902
11
210.7999999999999829
21
-97.8499999999999943
0
LINE
8
BLACK
6
CONTINUOUS
10
210.7999999999999829
20
-97.8499999999999943
11
210.7999999999999829
21
-97.1499999999999915
0
LINE
8
BLACK
6
CONTINUOUS
10
210.7999999999999829
20
-97.1499999999999915
11
210.8190299999999979
21
-97.0543289999999956
0
LINE
8
BLACK
6
CONTINUOUS
10
210.8190299999999979
20
-97.0543289999999956
11
210.8732229999999959
21
-96.9732229999999902
0
LINE
8
BLACK
6
CONTINUOUS
10
210.8732229999999959
20
-96.9732229999999902
11
210.9543290000000013
21
-96.9190299999999922
0
LINE
8
BLACK
6
CONTINUOUS
10
210.9543290000000013
20
-96.9190299999999922
11
211.0499999999999829
21
-96.8999999999999915
0
LINE
8
BLACK
6
CONTINUOUS
10
211.0499999999999829
20
-96.8999999999999915
11
211.9499999999999886
21
-96.8999999999999915
0
LINE
8
BLACK
6
CONTINUOUS
10
211.9499999999999886
20
-96.8999999999999915
11
212.0456709999999987
21
-96.9190299999999922
0
LINE
8
BLACK
6
CONTINUOUS
10
214.5456709999999987
20
-96.9190299999999922
11
214.6267770000000041
21
-96.9732229999999902
0
LINE
8
BLACK
6
CONTINUOUS
10
214.6267770000000041
20
-96.9732229999999902
11
214.6809700000000021
21
-97.0543289999999956
0
LINE
8
BLACK
6
CONTINUOUS
10
214.6809700000000021
20
-97.0543289999999956
11
214.6999999999999886
21
-97.1499999999999915
0
LINE
8
BLACK
6
CONTINUOUS
10
214.6999999999999886
20
-97.1499999999999915
11
214.6999999999999886
21
-97.8499999999999943
0
LINE
8
BLACK
6
CONTINUOUS
10
214.6999999999999886
20
-97.8499999999999943
11
214.6809700000000021
21
-97.9456709999999902
0
LINE
8
BLACK
6
CONTINUOUS
10
214.6809700000000021
20
-97.9456709999999902
11
214.6267770000000041
21
-98.0267769999999956
0
LINE
8
BLACK
6
CONTINUOUS
10
214.6267770000000041
20
-98.0267769999999956
11
214.5456709999999987
21
-98.0809699999999935
0
LINE
8
BLACK
6
CONTINUOUS
10
214.5456709999999987
20
-98.0809699999999935
11
214.4499999999999886
21
-98.0999999999999943
0
LINE
8
BLACK
6
CONTINUOUS
10
214.4499999999999886
20
-98.0999999999999943
11
213.5499999999999829
21
-98.0999999999999943
0
LINE
8
BLACK
6
CONTINUOUS
10
213.5499999999999829
20
-98.0999999999999943
11
213.4543290000000013
21
-98.0809699999999935
0
LINE
8
BLACK
6
CONTINUOUS
10
213.4543290000000013
20
-98.0809699999999935
11
213.3732229999999959
21
-98.0267769999999956
0
LINE
8
BLACK
6
CONTINUOUS
10
213.3732229999999959
20
-98.0267769999999956
11
213.3190299999999979
21
-97.9456709999999902
0
LINE
8
BLACK
6
CONTINUOUS
10
213.3190299999999979
20
-97.9456709999999902
11
213.2999999999999829
21
-97.8499999999999943
0
LINE
8
BLACK
6
CONTINUOUS
10
213.2999999999999829
20
-97.8499999999999943
11
213.2999999999999829
21
-97.1499999999999915
0
LINE
8
BLACK
6
CONTINUOUS
10
213.2999999999999829
20
-97.1499999999999915
11
213.3190299999999979
21
-97.0543289999999956
0
LINE
8
BLACK
6
CONTINUOUS
10
213.3190299999999979
20
-97.0543289999999956
11
213.3732229999999959
21
-96.9732229999999902
0
LINE
8
BLACK
6
CONTINUOUS
10
213.3732229999999959
20
-96.9732229999999902
11
213.4543290000000013
21
-96.9190299999999922
0
LINE
8
BLACK
6
CONTINUOUS
10
213.4543290000000013
20
-96.9190299999999922
11
213.5499999999999829
21
-96.8999999999999915
0
LINE
8
BLACK
6
CONTINUOUS
10
213.5499999999999829
20
-96.8999999999999915
11
214.4499999999999886
21
-96.8999999999999915
0
LINE
8
BLACK
6
CONTINUOUS
10
214.4499999999999886
20
-96.8999999999999915
11
214.5456709999999987
21
-96.9190299999999922
0
LINE
8
BLACK
6
CONTINUOUS
10
182.2956709999999987
20
-96.6690299999999922
11
182.3767770000000041
21
-96.7232229999999902
0
LINE
8
BLACK
6
CONTINUOUS
10
182.3767770000000041
20
-96.7232229999999902
11
182.4309700000000021
21
-96.8043289999999956
0
LINE
8
BLACK
6
CONTINUOUS
10
182.4309700000000021
20
-96.8043289999999956
11
182.4499999999999886
21
-96.8999999999999915
0
LINE
8
BLACK
6
CONTINUOUS
10
182.4499999999999886
20
-96.8999999999999915
11
182.4499999999999886
21
-97.5999999999999943
0
LINE
8
BLACK
6
CONTINUOUS
10
182.4499999999999886
20
-97.5999999999999943
11
182.4309700000000021
21
-97.6956709999999902
0
LINE
8
BLACK
6
CONTINUOUS
10
182.4309700000000021
20
-97.6956709999999902
11
182.3767770000000041
21
-97.7767769999999956
0
LINE
8
BLACK
6
CONTINUOUS
10
182.3767770000000041
20
-97.7767769999999956
11
182.2956709999999987
21
-97.8309699999999935
0
LINE
8
BLACK
6
CONTINUOUS
10
182.2956709999999987
20
-97.8309699999999935
11
182.1999999999999886
21
-97.8499999999999943
0
LINE
8
BLACK
6
CONTINUOUS
10
182.1999999999999886
20
-97.8499999999999943
11
181.2999999999999829
21
-97.8499999999999943
0
LINE
8
BLACK
6
CONTINUOUS
10
181.2999999999999829
20
-97.8499999999999943
11
181.2043290000000013
21
-97.8309699999999935
0
LINE
8
BLACK
6
CONTINUOUS
10
181.2043290000000013
20
-97.8309699999999935
11
181.1232229999999959
21
-97.7767769999999956
0
LINE
8
BLACK
6
CONTINUOUS
10
181.1232229999999959
20
-97.7767769999999956
11
181.0690299999999979
21
-97.6956709999999902
0
LINE
8
BLACK
6
CONTINUOUS
10
181.0690299999999979
20
-97.6956709999999902
11
181.0499999999999829
21
-97.5999999999999943
0
LINE
8
BLACK
6
CONTINUOUS
10
181.0499999999999829
20
-97.5999999999999943
11
181.0499999999999829
21
-96.8999999999999915
0
LINE
8
BLACK
6
CONTINUOUS
10
181.0499999999999829
20
-96.8999999999999915
11
181.0690299999999979
21
-96.8043289999999956
0
LINE
8
BLACK
6
CONTINUOUS
10
181.0690299999999979
20
-96.8043289999999956
11
181.1232229999999959
21
-96.7232229999999902
0
LINE
8
BLACK
6
CONTINUOUS
10
181.1232229999999959
20
-96.7232229999999902
11
181.2043290000000013
21
-96.6690299999999922
0
LINE
8
BLACK
6
CONTINUOUS
10
181.2043290000000013
20
-96.6690299999999922
11
181.2999999999999829
21
-96.6499999999999915
0
LINE
8
BLACK
6
CONTINUOUS
10
181.2999999999999829
20
-96.6499999999999915
11
182.1999999999999886
21
-96.6499999999999915
0
LINE
8
BLACK
6
CONTINUOUS
10
182.1999999999999886
20
-96.6499999999999915
11
182.2956709999999987
21
-96.6690299999999922
0
LINE
8
BLACK
6
CONTINUOUS
10
182.2956709999999987
20
-94.6690299999999922
11
182.3767770000000041
21
-94.7232229999999902
0
LINE
8
BLACK
6
CONTINUOUS
10
182.3767770000000041
20
-94.7232229999999902
11
182.4309700000000021
21
-94.8043289999999956
0
LINE
8
BLACK
6
CONTINUOUS
10
182.4309700000000021
20
-94.8043289999999956
11
182.4499999999999886
21
-94.8999999999999915
0
LINE
8
BLACK
6
CONTINUOUS
10
182.4499999999999886
20
-94.8999999999999915
11
182.4499999999999886
21
-95.5999999999999943
0
LINE
8
BLACK
6
CONTINUOUS
10
182.4499999999999886
20
-95.5999999999999943
11
182.4309700000000021
21
-95.6956709999999902
0
LINE
8
BLACK
6
CONTINUOUS
10
182.4309700000000021
20
-95.6956709999999902
11
182.3767770000000041
21
-95.7767769999999956
0
LINE
8
BLACK
6
CONTINUOUS
10
182.3767770000000041
20
-95.7767769999999956
11
182.2956709999999987
21
-95.8309699999999935
0
LINE
8
BLACK
6
CONTINUOUS
10
182.2956709999999987
20
-95.8309699999999935
11
182.1999999999999886
21
-95.8499999999999943
0
LINE
8
BLACK
6
CONTINUOUS
10
182.1999999999999886
20
-95.8499999999999943
11
181.2999999999999829
21
-95.8499999999999943
0
LINE
8
BLACK
6
CONTINUOUS
10
181.2999999999999829
20
-95.8499999999999943
11
181.2043290000000013
21
-95.8309699999999935
0
LINE
8
BLACK
6
CONTINUOUS
10
181.2043290000000013
20
-95.8309699999999935
11
181.1232229999999959
21
-95.7767769999999956
0
LINE
8
BLACK
6
CONTINUOUS
10
181.1232229999999959
20
-95.7767769999999956
11
181.0690299999999979
21
-95.6956709999999902
0
LINE
8
BLACK
6
CONTINUOUS
10
181.0690299999999979
20
-95.6956709999999902
11
181.0499999999999829
21
-95.5999999999999943
0
LINE
8
BLACK
6
CONTINUOUS
10
181.0499999999999829
20
-95.5999999999999943
11
181.0499999999999829
21
-94.8999999999999915
0
LINE
8
BLACK
6
CONTINUOUS
10
181.0499999999999829
20
-94.8999999999999915
11
181.0690299999999979
21
-94.8043289999999956
0
LINE
8
BLACK
6
CONTINUOUS
10
181.0690299999999979
20
-94.8043289999999956
11
181.1232229999999959
21
-94.7232229999999902
0
LINE
8
BLACK
6
CONTINUOUS
10
181.1232229999999959
20
-94.7232229999999902
11
181.2043290000000013
21
-94.6690299999999922
0
LINE
8
BLACK
6
CONTINUOUS
10
181.2043290000000013
20
-94.6690299999999922
11
181.2999999999999829
21
-94.6499999999999915
0
LINE
8
BLACK
6
CONTINUOUS
10
181.2999999999999829
20
-94.6499999999999915
11
182.1999999999999886
21
-94.6499999999999915
0
LINE
8
BLACK
6
CONTINUOUS
10
182.1999999999999886
20
-94.6499999999999915
11
182.2956709999999987
21
-94.6690299999999922
0
LINE
8
BLACK
6
CONTINUOUS
10
185.0456709999999987
20
-91.9190299999999922
11
185.1267770000000041
21
-91.9732229999999902
0
LINE
8
BLACK
6
CONTINUOUS
10
185.1267770000000041
20
-91.9732229999999902
11
185.1809700000000021
21
-92.0543289999999956
0
LINE
8
BLACK
6
CONTINUOUS
10
185.1809700000000021
20
-92.0543289999999956
11
185.1999999999999886
21
-92.1499999999999915
0
LINE
8
BLACK
6
CONTINUOUS
10
185.1999999999999886
20
-92.1499999999999915
11
185.1999999999999886
21
-92.8499999999999943
0
LINE
8
BLACK
6
CONTINUOUS
10
185.1999999999999886
20
-92.8499999999999943
11
185.1809700000000021
21
-92.9456709999999902
0
LINE
8
BLACK
6
CONTINUOUS
10
185.1809700000000021
20
-92.9456709999999902
11
185.1267770000000041
21
-93.0267769999999956
0
LINE
8
BLACK
6
CONTINUOUS
10
185.1267770000000041
20
-93.0267769999999956
11
185.0456709999999987
21
-93.0809699999999935
0
LINE
8
BLACK
6
CONTINUOUS
10
185.0456709999999987
20
-93.0809699999999935
11
184.9499999999999886
21
-93.0999999999999943
0
LINE
8
BLACK
6
CONTINUOUS
10
184.9499999999999886
20
-93.0999999999999943
11
184.0499999999999829
21
-93.0999999999999943
0
LINE
8
BLACK
6
CONTINUOUS
10
184.0499999999999829
20
-93.0999999999999943
11
183.9543290000000013
21
-93.0809699999999935
0
LINE
8
BLACK
6
CONTINUOUS
10
183.9543290000000013
20
-93.0809699999999935
11
183.8732229999999959
21
-93.0267769999999956
0
LINE
8
BLACK
6
CONTINUOUS
10
183.8732229999999959
20
-93.0267769999999956
11
183.8190299999999979
21
-92.9456709999999902
0
LINE
8
BLACK
6
CONTINUOUS
10
183.8190299999999979
20
-92.9456709999999902
11
183.7999999999999829
21
-92.8499999999999943
0
LINE
8
BLACK
6
CONTINUOUS
10
183.7999999999999829
20
-92.8499999999999943
11
183.7999999999999829
21
-92.1499999999999915
0
LINE
8
BLACK
6
CONTINUOUS
10
183.7999999999999829
20
-92.1499999999999915
11
183.8190299999999979
21
-92.0543289999999956
0
LINE
8
BLACK
6
CONTINUOUS
10
183.8190299999999979
20
-92.0543289999999956
11
183.8732229999999959
21
-91.9732229999999902
0
LINE
8
BLACK
6
CONTINUOUS
10
183.8732229999999959
20
-91.9732229999999902
11
183.9543290000000013
21
-91.9190299999999922
0
LINE
8
BLACK
6
CONTINUOUS
10
183.9543290000000013
20
-91.9190299999999922
11
184.0499999999999829
21
-91.8999999999999915
0
LINE
8
BLACK
6
CONTINUOUS
10
184.0499999999999829
20
-91.8999999999999915
11
184.9499999999999886
21
-91.8999999999999915
0
LINE
8
BLACK
6
CONTINUOUS
10
184.9499999999999886
20
-91.8999999999999915
11
185.0456709999999987
21
-91.9190299999999922
0
LINE
8
BLACK
6
CONTINUOUS
10
185.0456709999999987
20
-89.9190299999999922
11
185.1267770000000041
21
-89.9732229999999902
0
LINE
8
BLACK
6
CONTINUOUS
10
185.1267770000000041
20
-89.9732229999999902
11
185.1809700000000021
21
-90.0543289999999956
0
LINE
8
BLACK
6
CONTINUOUS
10
185.1809700000000021
20
-90.0543289999999956
11
185.1999999999999886
21
-90.1499999999999915
0
LINE
8
BLACK
6
CONTINUOUS
10
185.1999999999999886
20
-90.1499999999999915
11
185.1999999999999886
21
-90.8499999999999943
0
LINE
8
BLACK
6
CONTINUOUS
10
185.1999999999999886
20
-90.8499999999999943
11
185.1809700000000021
21
-90.9456709999999902
0
LINE
8
BLACK
6
CONTINUOUS
10
185.1809700000000021
20
-90.9456709999999902
11
185.1267770000000041
21
-91.0267769999999956
0
LINE
8
BLACK
6
CONTINUOUS
10
185.1267770000000041
20
-91.0267769999999956
11
185.0456709999999987
21
-91.0809699999999935
0
LINE
8
BLACK
6
CONTINUOUS
10
185.0456709999999987
20
-91.0809699999999935
11
184.9499999999999886
21
-91.0999999999999943
0
LINE
8
BLACK
6
CONTINUOUS
10
184.9499999999999886
20
-91.0999999999999943
11
184.0499999999999829
21
-91.0999999999999943
0
LINE
8
BLACK
6
CONTINUOUS
10
184.0499999999999829
20
-91.0999999999999943
11
183.9543290000000013
21
-91.0809699999999935
0
LINE
8
BLACK
6
CONTINUOUS
10
183.9543290000000013
20
-91.0809699999999935
11
183.8732229999999959
21
-91.0267769999999956
0
LINE
8
BLACK
6
CONTINUOUS
10
183.8732229999999959
20
-91.0267769999999956
11
183.8190299999999979
21
-90.9456709999999902
0
LINE
8
BLACK
6
CONTINUOUS
10
183.8190299999999979
20
-90.9456709999999902
11
183.7999999999999829
21
-90.8499999999999943
0
LINE
8
BLACK
6
CONTINUOUS
10
183.7999999999999829
20
-90.8499999999999943
11
183.7999999999999829
21
-90.1499999999999915
0
LINE
8
BLACK
6
CONTINUOUS
10
183.7999999999999829
20
-90.1499999999999915
11
183.8190299999999979
21
-90.0543289999999956
0
LINE
8
BLACK
6
CONTINUOUS
10
183.8190299999999979
20
-90.0543289999999956
11
183.8732229999999959
21
-89.9732229999999902
0
LINE
8
BLACK
6
CONTINUOUS
10
183.8732229999999959
20
-89.9732229999999902
11
183.9543290000000013
21
-89.9190299999999922
0
LINE
8
BLACK
6
CONTINUOUS
10
183.9543290000000013
20
-89.9190299999999922
11
184.0499999999999829
21
-89.8999999999999915
0
LINE
8
BLACK
6
CONTINUOUS
10
184.0499999999999829
20
-89.8999999999999915
11
184.9499999999999886
21
-89.8999999999999915
0
LINE
8
BLACK
6
CONTINUOUS
10
184.9499999999999886
20
-89.8999999999999915
11
185.0456709999999987
21
-89.9190299999999922
0
LINE
8
BLACK
6
CONTINUOUS
10
185.0456709999999987
20
-86.4190299999999922
11
185.1267770000000041
21
-86.4732229999999902
0
LINE
8
BLACK
6
CONTINUOUS
10
185.1267770000000041
20
-86.4732229999999902
11
185.1809700000000021
21
-86.5543289999999956
0
LINE
8
BLACK
6
CONTINUOUS
10
185.1809700000000021
20
-86.5543289999999956
11
185.1999999999999886
21
-86.6499999999999915
0
LINE
8
BLACK
6
CONTINUOUS
10
185.1999999999999886
20
-86.6499999999999915
11
185.1999999999999886
21
-87.3499999999999943
0
LINE
8
BLACK
6
CONTINUOUS
10
185.1999999999999886
20
-87.3499999999999943
11
185.1809700000000021
21
-87.4456709999999902
0
LINE
8
BLACK
6
CONTINUOUS
10
185.1809700000000021
20
-87.4456709999999902
11
185.1267770000000041
21
-87.5267769999999956
0
LINE
8
BLACK
6
CONTINUOUS
10
185.1267770000000041
20
-87.5267769999999956
11
185.0456709999999987
21
-87.5809699999999935
0
LINE
8
BLACK
6
CONTINUOUS
10
185.0456709999999987
20
-87.5809699999999935
11
184.9499999999999886
21
-87.5999999999999943
0
LINE
8
BLACK
6
CONTINUOUS
10
184.9499999999999886
20
-87.5999999999999943
11
184.0499999999999829
21
-87.5999999999999943
0
LINE
8
BLACK
6
CONTINUOUS
10
184.0499999999999829
20
-87.5999999999999943
11
183.9543290000000013
21
-87.5809699999999935
0
LINE
8
BLACK
6
CONTINUOUS
10
183.9543290000000013
20
-87.5809699999999935
11
183.8732229999999959
21
-87.5267769999999956
0
LINE
8
BLACK
6
CONTINUOUS
10
183.8732229999999959
20
-87.5267769999999956
11
183.8190299999999979
21
-87.4456709999999902
0
LINE
8
BLACK
6
CONTINUOUS
10
183.8190299999999979
20
-87.4456709999999902
11
183.7999999999999829
21
-87.3499999999999943
0
LINE
8
BLACK
6
CONTINUOUS
10
183.7999999999999829
20
-87.3499999999999943
11
183.7999999999999829
21
-86.6499999999999915
0
LINE
8
BLACK
6
CONTINUOUS
10
183.7999999999999829
20
-86.6499999999999915
11
183.8190299999999979
21
-86.5543289999999956
0
LINE
8
BLACK
6
CONTINUOUS
10
183.8190299999999979
20
-86.5543289999999956
11
183.8732229999999959
21
-86.4732229999999902
0
LINE
8
BLACK
6
CONTINUOUS
10
183.8732229999999959
20
-86.4732229999999902
11
183.9543290000000013
21
-86.4190299999999922
0
LINE
8
BLACK
6
CONTINUOUS
10
183.9543290000000013
20
-86.4190299999999922
11
184.0499999999999829
21
-86.3999999999999915
0
LINE
8
BLACK
6
CONTINUOUS
10
184.0499999999999829
20
-86.3999999999999915
11
184.9499999999999886
21
-86.3999999999999915
0
LINE
8
BLACK
6
CONTINUOUS
10
184.9499999999999886
20
-86.3999999999999915
11
185.0456709999999987
21
-86.4190299999999922
0
LINE
8
BLACK
6
CONTINUOUS
10
185.0456709999999987
20
-84.4190299999999922
11
185.1267770000000041
21
-84.4732229999999902
0
LINE
8
BLACK
6
CONTINUOUS
10
185.1267770000000041
20
-84.4732229999999902
11
185.1809700000000021
21
-84.5543289999999956
0
LINE
8
BLACK
6
CONTINUOUS
10
185.1809700000000021
20
-84.5543289999999956
11
185.1999999999999886
21
-84.6499999999999915
0
LINE
8
BLACK
6
CONTINUOUS
10
185.1999999999999886
20
-84.6499999999999915
11
185.1999999999999886
21
-85.3499999999999943
0
LINE
8
BLACK
6
CONTINUOUS
10
185.1999999999999886
20
-85.3499999999999943
11
185.1809700000000021
21
-85.4456709999999902
0
LINE
8
BLACK
6
CONTINUOUS
10
185.1809700000000021
20
-85.4456709999999902
11
185.1267770000000041
21
-85.5267769999999956
0
LINE
8
BLACK
6
CONTINUOUS
10
185.1267770000000041
20
-85.5267769999999956
11
185.0456709999999987
21
-85.5809699999999935
0
LINE
8
BLACK
6
CONTINUOUS
10
185.0456709999999987
20
-85.5809699999999935
11
184.9499999999999886
21
-85.5999999999999943
0
LINE
8
BLACK
6
CONTINUOUS
10
184.9499999999999886
20
-85.5999999999999943
11
184.0499999999999829
21
-85.5999999999999943
0
LINE
8
BLACK
6
CONTINUOUS
10
184.0499999999999829
20
-85.5999999999999943
11
183.9543290000000013
21
-85.5809699999999935
0
LINE
8
BLACK
6
CONTINUOUS
10
183.9543290000000013
20
-85.5809699999999935
11
183.8732229999999959
21
-85.5267769999999956
0
LINE
8
BLACK
6
CONTINUOUS
10
183.8732229999999959
20
-85.5267769999999956
11
183.8190299999999979
21
-85.4456709999999902
0
LINE
8
BLACK
6
CONTINUOUS
10
183.8190299999999979
20
-85.4456709999999902
11
183.7999999999999829
21
-85.3499999999999943
0
LINE
8
BLACK
6
CONTINUOUS
10
183.7999999999999829
20
-85.3499999999999943
11
183.7999999999999829
21
-84.6499999999999915
0
LINE
8
BLACK
6
CONTINUOUS
10
183.7999999999999829
20
-84.6499999999999915
11
183.8190299999999979
21
-84.5543289999999956
0
LINE
8
BLACK
6
CONTINUOUS
10
183.8190299999999979
20
-84.5543289999999956
11
183.8732229999999959
21
-84.4732229999999902
0
LINE
8
BLACK
6
CONTINUOUS
10
183.8732229999999959
20
-84.4732229999999902
11
183.9543290000000013
21
-84.4190299999999922
0
LINE
8
BLACK
6
CONTINUOUS
10
183.9543290000000013
20
-84.4190299999999922
11
184.0499999999999829
21
-84.3999999999999915
0
LINE
8
BLACK
6
CONTINUOUS
10
184.0499999999999829
20
-84.3999999999999915
11
184.9499999999999886
21
-84.3999999999999915
0
LINE
8
BLACK
6
CONTINUOUS
10
184.9499999999999886
20
-84.3999999999999915
11
185.0456709999999987
21
-84.4190299999999922
0
LINE
8
BLACK
6
CONTINUOUS
10
212.0456709999999987
20
-76.4190299999999922
11
212.1267770000000041
21
-76.4732229999999902
0
LINE
8
BLACK
6
CONTINUOUS
10
212.1267770000000041
20
-76.4732229999999902
11
212.1809700000000021
21
-76.5543289999999956
0
LINE
8
BLACK
6
CONTINUOUS
10
212.1809700000000021
20
-76.5543289999999956
11
212.1999999999999886
21
-76.6499999999999915
0
LINE
8
BLACK
6
CONTINUOUS
10
212.1999999999999886
20
-76.6499999999999915
11
212.1999999999999886
21
-77.3499999999999943
0
LINE
8
BLACK
6
CONTINUOUS
10
212.1999999999999886
20
-77.3499999999999943
11
212.1809700000000021
21
-77.4456709999999902
0
LINE
8
BLACK
6
CONTINUOUS
10
212.1809700000000021
20
-77.4456709999999902
11
212.1267770000000041
21
-77.5267769999999956
0
LINE
8
BLACK
6
CONTINUOUS
10
212.1267770000000041
20
-77.5267769999999956
11
212.0456709999999987
21
-77.5809699999999935
0
LINE
8
BLACK
6
CONTINUOUS
10
212.0456709999999987
20
-77.5809699999999935
11
211.9499999999999886
21
-77.5999999999999943
0
LINE
8
BLACK
6
CONTINUOUS
10
211.9499999999999886
20
-77.5999999999999943
11
211.0499999999999829
21
-77.5999999999999943
0
LINE
8
BLACK
6
CONTINUOUS
10
211.0499999999999829
20
-77.5999999999999943
11
210.9543290000000013
21
-77.5809699999999935
0
LINE
8
BLACK
6
CONTINUOUS
10
210.9543290000000013
20
-77.5809699999999935
11
210.8732229999999959
21
-77.5267769999999956
0
LINE
8
BLACK
6
CONTINUOUS
10
210.8732229999999959
20
-77.5267769999999956
11
210.8190299999999979
21
-77.4456709999999902
0
LINE
8
BLACK
6
CONTINUOUS
10
210.8190299999999979
20
-77.4456709999999902
11
210.7999999999999829
21
-77.3499999999999943
0
LINE
8
BLACK
6
CONTINUOUS
10
210.7999999999999829
20
-77.3499999999999943
11
210.7999999999999829
21
-76.6499999999999915
0
LINE
8
BLACK
6
CONTINUOUS
10
210.7999999999999829
20
-76.6499999999999915
11
210.8190299999999979
21
-76.5543289999999956
0
LINE
8
BLACK
6
CONTINUOUS
10
210.8190299999999979
20
-76.5543289999999956
11
210.8732229999999959
21
-76.4732229999999902
0
LINE
8
BLACK
6
CONTINUOUS
10
210.8732229999999959
20
-76.4732229999999902
11
210.9543290000000013
21
-76.4190299999999922
0
LINE
8
BLACK
6
CONTINUOUS
10
210.9543290000000013
20
-76.4190299999999922
11
211.0499999999999829
21
-76.3999999999999915
0
LINE
8
BLACK
6
CONTINUOUS
10
211.0499999999999829
20
-76.3999999999999915
11
211.9499999999999886
21
-76.3999999999999915
0
LINE
8
BLACK
6
CONTINUOUS
10
211.9499999999999886
20
-76.3999999999999915
11
212.0456709999999987
21
-76.4190299999999922
0
LINE
8
BLACK
6
CONTINUOUS
10
216.2956709999999987
20
-76.4190299999999922
11
216.3767770000000041
21
-76.4732229999999902
0
LINE
8
BLACK
6
CONTINUOUS
10
216.3767770000000041
20
-76.4732229999999902
11
216.4309700000000021
21
-76.5543289999999956
0
LINE
8
BLACK
6
CONTINUOUS
10
216.4309700000000021
20
-76.5543289999999956
11
216.4499999999999886
21
-76.6499999999999915
0
LINE
8
BLACK
6
CONTINUOUS
10
216.4499999999999886
20
-76.6499999999999915
11
216.4499999999999886
21
-77.3499999999999943
0
LINE
8
BLACK
6
CONTINUOUS
10
216.4499999999999886
20
-77.3499999999999943
11
216.4309700000000021
21
-77.4456709999999902
0
LINE
8
BLACK
6
CONTINUOUS
10
216.4309700000000021
20
-77.4456709999999902
11
216.3767770000000041
21
-77.5267769999999956
0
LINE
8
BLACK
6
CONTINUOUS
10
216.3767770000000041
20
-77.5267769999999956
11
216.2956709999999987
21
-77.5809699999999935
0
LINE
8
BLACK
6
CONTINUOUS
10
216.2956709999999987
20
-77.5809699999999935
11
216.1999999999999886
21
-77.5999999999999943
0
LINE
8
BLACK
6
CONTINUOUS
10
216.1999999999999886
20
-77.5999999999999943
11
215.2999999999999829
21
-77.5999999999999943
0
LINE
8
BLACK
6
CONTINUOUS
10
215.2999999999999829
20
-77.5999999999999943
11
215.2043290000000013
21
-77.5809699999999935
0
LINE
8
BLACK
6
CONTINUOUS
10
215.2043290000000013
20
-77.5809699999999935
11
215.1232229999999959
21
-77.5267769999999956
0
LINE
8
BLACK
6
CONTINUOUS
10
215.1232229999999959
20
-77.5267769999999956
11
215.0690299999999979
21
-77.4456709999999902
0
LINE
8
BLACK
6
CONTINUOUS
10
215.0690299999999979
20
-77.4456709999999902
11
215.0499999999999829
21
-77.3499999999999943
0
LINE
8
BLACK
6
CONTINUOUS
10
215.0499999999999829
20
-77.3499999999999943
11
215.0499999999999829
21
-76.6499999999999915
0
LINE
8
BLACK
6
CONTINUOUS
10
215.0499999999999829
20
-76.6499999999999915
11
215.0690299999999979
21
-76.5543289999999956
0
LINE
8
BLACK
6
CONTINUOUS
10
215.0690299999999979
20
-76.5543289999999956
11
215.1232229999999959
21
-76.4732229999999902
0
LINE
8
BLACK
6
CONTINUOUS
10
215.1232229999999959
20
-76.4732229999999902
11
215.2043290000000013
21
-76.4190299999999922
0
LINE
8
BLACK
6
CONTINUOUS
10
215.2043290000000013
20
-76.4190299999999922
11
215.2999999999999829
21
-76.3999999999999915
0
LINE
8
BLACK
6
CONTINUOUS
10
215.2999999999999829
20
-76.3999999999999915
11
216.1999999999999886
21
-76.3999999999999915
0
LINE
8
BLACK
6
CONTINUOUS
10
216.1999999999999886
20
-76.3999999999999915
11
216.2956709999999987
21
-76.4190299999999922
0
LINE
8
BLACK
6
CONTINUOUS
10
205.0456709999999987
20
-76.1690299999999922
11
205.1267770000000041
21
-76.2232229999999902
0
LINE
8
BLACK
6
CONTINUOUS
10
205.1267770000000041
20
-76.2232229999999902
11
205.1809700000000021
21
-76.3043289999999956
0
LINE
8
BLACK
6
CONTINUOUS
10
205.1809700000000021
20
-76.3043289999999956
11
205.1999999999999886
21
-76.3999999999999915
0
LINE
8
BLACK
6
CONTINUOUS
10
205.1999999999999886
20
-76.3999999999999915
11
205.1999999999999886
21
-77.0999999999999943
0
LINE
8
BLACK
6
CONTINUOUS
10
205.1999999999999886
20
-77.0999999999999943
11
205.1809700000000021
21
-77.1956709999999902
0
LINE
8
BLACK
6
CONTINUOUS
10
205.1809700000000021
20
-77.1956709999999902
11
205.1267770000000041
21
-77.2767769999999956
0
LINE
8
BLACK
6
CONTINUOUS
10
205.1267770000000041
20
-77.2767769999999956
11
205.0456709999999987
21
-77.3309699999999935
0
LINE
8
BLACK
6
CONTINUOUS
10
205.0456709999999987
20
-77.3309699999999935
11
204.9499999999999886
21
-77.3499999999999943
0
LINE
8
BLACK
6
CONTINUOUS
10
204.9499999999999886
20
-77.3499999999999943
11
204.0499999999999829
21
-77.3499999999999943
0
LINE
8
BLACK
6
CONTINUOUS
10
204.0499999999999829
20
-77.3499999999999943
11
203.9543290000000013
21
-77.3309699999999935
0
LINE
8
BLACK
6
CONTINUOUS
10
203.9543290000000013
20
-77.3309699999999935
11
203.8732229999999959
21
-77.2767769999999956
0
LINE
8
BLACK
6
CONTINUOUS
10
203.8732229999999959
20
-77.2767769999999956
11
203.8190299999999979
21
-77.1956709999999902
0
LINE
8
BLACK
6
CONTINUOUS
10
203.8190299999999979
20
-77.1956709999999902
11
203.7999999999999829
21
-77.0999999999999943
0
LINE
8
BLACK
6
CONTINUOUS
10
203.7999999999999829
20
-77.0999999999999943
11
203.7999999999999829
21
-76.3999999999999915
0
LINE
8
BLACK
6
CONTINUOUS
10
203.7999999999999829
20
-76.3999999999999915
11
203.8190299999999979
21
-76.3043289999999956
0
LINE
8
BLACK
6
CONTINUOUS
10
203.8190299999999979
20
-76.3043289999999956
11
203.8732229999999959
21
-76.2232229999999902
0
LINE
8
BLACK
6
CONTINUOUS
10
203.8732229999999959
20
-76.2232229999999902
11
203.9543290000000013
21
-76.1690299999999922
0
LINE
8
BLACK
6
CONTINUOUS
10
203.9543290000000013
20
-76.1690299999999922
11
204.0499999999999829
21
-76.1499999999999915
0
LINE
8
BLACK
6
CONTINUOUS
10
204.0499999999999829
20
-76.1499999999999915
11
204.9499999999999886
21
-76.1499999999999915
0
LINE
8
BLACK
6
CONTINUOUS
10
204.9499999999999886
20
-76.1499999999999915
11
205.0456709999999987
21
-76.1690299999999922
0
LINE
8
BLACK
6
CONTINUOUS
10
208.5456709999999987
20
-76.1690299999999922
11
208.6267770000000041
21
-76.2232229999999902
0
LINE
8
BLACK
6
CONTINUOUS
10
208.6267770000000041
20
-76.2232229999999902
11
208.6809700000000021
21
-76.3043289999999956
0
LINE
8
BLACK
6
CONTINUOUS
10
208.6809700000000021
20
-76.3043289999999956
11
208.6999999999999886
21
-76.3999999999999915
0
LINE
8
BLACK
6
CONTINUOUS
10
208.6999999999999886
20
-76.3999999999999915
11
208.6999999999999886
21
-77.0999999999999943
0
LINE
8
BLACK
6
CONTINUOUS
10
208.6999999999999886
20
-77.0999999999999943
11
208.6809700000000021
21
-77.1956709999999902
0
LINE
8
BLACK
6
CONTINUOUS
10
208.6809700000000021
20
-77.1956709999999902
11
208.6267770000000041
21
-77.2767769999999956
0
LINE
8
BLACK
6
CONTINUOUS
10
208.6267770000000041
20
-77.2767769999999956
11
208.5456709999999987
21
-77.3309699999999935
0
LINE
8
BLACK
6
CONTINUOUS
10
208.5456709999999987
20
-77.3309699999999935
11
208.4499999999999886
21
-77.3499999999999943
0
LINE
8
BLACK
6
CONTINUOUS
10
208.4499999999999886
20
-77.3499999999999943
11
207.5499999999999829
21
-77.3499999999999943
0
LINE
8
BLACK
6
CONTINUOUS
10
207.5499999999999829
20
-77.3499999999999943
11
207.4543290000000013
21
-77.3309699999999935
0
LINE
8
BLACK
6
CONTINUOUS
10
207.4543290000000013
20
-77.3309699999999935
11
207.3732229999999959
21
-77.2767769999999956
0
LINE
8
BLACK
6
CONTINUOUS
10
207.3732229999999959
20
-77.2767769999999956
11
207.3190299999999979
21
-77.1956709999999902
0
LINE
8
BLACK
6
CONTINUOUS
10
207.3190299999999979
20
-77.1956709999999902
11
207.2999999999999829
21
-77.0999999999999943
0
LINE
8
BLACK
6
CONTINUOUS
10
207.2999999999999829
20
-77.0999999999999943
11
207.2999999999999829
21
-76.3999999999999915
0
LINE
8
BLACK
6
CONTINUOUS
10
207.2999999999999829
20
-76.3999999999999915
11
207.3190299999999979
21
-76.3043289999999956
0
LINE
8
BLACK
6
CONTINUOUS
10
207.3190299999999979
20
-76.3043289999999956
11
207.3732229999999959
21
-76.2232229999999902
0
LINE
8
BLACK
6
CONTINUOUS
10
207.3732229999999959
20
-76.2232229999999902
11
207.4543290000000013
21
-76.1690299999999922
0
LINE
8
BLACK
6
CONTINUOUS
10
207.4543290000000013
20
-76.1690299999999922
11
207.5499999999999829
21
-76.1499999999999915
0
LINE
8
BLACK
6
CONTINUOUS
10
207.5499999999999829
20
-76.1499999999999915
11
208.4499999999999886
21
-76.1499999999999915
0
LINE
8
BLACK
6
CONTINUOUS
10
208.4499999999999886
20
-76.1499999999999915
11
208.5456709999999987
21
-76.1690299999999922
0
LINE
8
BLACK
6
CONTINUOUS
10
212.0456709999999987
20
-74.4190299999999922
11
212.1267770000000041
21
-74.4732229999999902
0
LINE
8
BLACK
6
CONTINUOUS
10
212.1267770000000041
20
-74.4732229999999902
11
212.1809700000000021
21
-74.5543289999999956
0
LINE
8
BLACK
6
CONTINUOUS
10
212.1809700000000021
20
-74.5543289999999956
11
212.1999999999999886
21
-74.6499999999999915
0
LINE
8
BLACK
6
CONTINUOUS
10
212.1999999999999886
20
-74.6499999999999915
11
212.1999999999999886
21
-75.3499999999999943
0
LINE
8
BLACK
6
CONTINUOUS
10
212.1999999999999886
20
-75.3499999999999943
11
212.1809700000000021
21
-75.4456709999999902
0
LINE
8
BLACK
6
CONTINUOUS
10
212.1809700000000021
20
-75.4456709999999902
11
212.1267770000000041
21
-75.5267769999999956
0
LINE
8
BLACK
6
CONTINUOUS
10
212.1267770000000041
20
-75.5267769999999956
11
212.0456709999999987
21
-75.5809699999999935
0
LINE
8
BLACK
6
CONTINUOUS
10
212.0456709999999987
20
-75.5809699999999935
11
211.9499999999999886
21
-75.5999999999999943
0
LINE
8
BLACK
6
CONTINUOUS
10
211.9499999999999886
20
-75.5999999999999943
11
211.0499999999999829
21
-75.5999999999999943
0
LINE
8
BLACK
6
CONTINUOUS
10
211.0499999999999829
20
-75.5999999999999943
11
210.9543290000000013
21
-75.5809699999999935
0
LINE
8
BLACK
6
CONTINUOUS
10
210.9543290000000013
20
-75.5809699999999935
11
210.8732229999999959
21
-75.5267769999999956
0
LINE
8
BLACK
6
CONTINUOUS
10
210.8732229999999959
20
-75.5267769999999956
11
210.8190299999999979
21
-75.4456709999999902
0
LINE
8
BLACK
6
CONTINUOUS
10
210.8190299999999979
20
-75.4456709999999902
11
210.7999999999999829
21
-75.3499999999999943
0
LINE
8
BLACK
6
CONTINUOUS
10
210.7999999999999829
20
-75.3499999999999943
11
210.7999999999999829
21
-74.6499999999999915
0
LINE
8
BLACK
6
CONTINUOUS
10
210.7999999999999829
20
-74.6499999999999915
11
210.8190299999999979
21
-74.5543289999999956
0
LINE
8
BLACK
6
CONTINUOUS
10
210.8190299999999979
20
-74.5543289999999956
11
210.8732229999999959
21
-74.4732229999999902
0
LINE
8
BLACK
6
CONTINUOUS
10
210.8732229999999959
20
-74.4732229999999902
11
210.9543290000000013
21
-74.4190299999999922
0
LINE
8
BLACK
6
CONTINUOUS
10
210.9543290000000013
20
-74.4190299999999922
11
211.0499999999999829
21
-74.3999999999999915
0
LINE
8
BLACK
6
CONTINUOUS
10
211.0499999999999829
20
-74.3999999999999915
11
211.9499999999999886
21
-74.3999999999999915
0
LINE
8
BLACK
6
CONTINUOUS
10
211.9499999999999886
20
-74.3999999999999915
11
212.0456709999999987
21
-74.4190299999999922
0
LINE
8
BLACK
6
CONTINUOUS
10
216.2956709999999987
20
-74.4190299999999922
11
216.3767770000000041
21
-74.4732229999999902
0
LINE
8
BLACK
6
CONTINUOUS
10
216.3767770000000041
20
-74.4732229999999902
11
216.4309700000000021
21
-74.5543289999999956
0
LINE
8
BLACK
6
CONTINUOUS
10
216.4309700000000021
20
-74.5543289999999956
11
216.4499999999999886
21
-74.6499999999999915
0
LINE
8
BLACK
6
CONTINUOUS
10
216.4499999999999886
20
-74.6499999999999915
11
216.4499999999999886
21
-75.3499999999999943
0
LINE
8
BLACK
6
CONTINUOUS
10
216.4499999999999886
20
-75.3499999999999943
11
216.4309700000000021
21
-75.4456709999999902
0
LINE
8
BLACK
6
CONTINUOUS
10
216.4309700000000021
20
-75.4456709999999902
11
216.3767770000000041
21
-75.5267769999999956
0
LINE
8
BLACK
6
CONTINUOUS
10
216.3767770000000041
20
-75.5267769999999956
11
216.2956709999999987
21
-75.5809699999999935
0
LINE
8
BLACK
6
CONTINUOUS
10
216.2956709999999987
20
-75.5809699999999935
11
216.1999999999999886
21
-75.5999999999999943
0
LINE
8
BLACK
6
CONTINUOUS
10
216.1999999999999886
20
-75.5999999999999943
11
215.2999999999999829
21
-75.5999999999999943
0
LINE
8
BLACK
6
CONTINUOUS
10
215.2999999999999829
20
-75.5999999999999943
11
215.2043290000000013
21
-75.5809699999999935
0
LINE
8
BLACK
6
CONTINUOUS
10
215.2043290000000013
20
-75.5809699999999935
11
215.1232229999999959
21
-75.5267769999999956
0
LINE
8
BLACK
6
CONTINUOUS
10
215.1232229999999959
20
-75.5267769999999956
11
215.0690299999999979
21
-75.4456709999999902
0
LINE
8
BLACK
6
CONTINUOUS
10
215.0690299999999979
20
-75.4456709999999902
11
215.0499999999999829
21
-75.3499999999999943
0
LINE
8
BLACK
6
CONTINUOUS
10
215.0499999999999829
20
-75.3499999999999943
11
215.0499999999999829
21
-74.6499999999999915
0
LINE
8
BLACK
6
CONTINUOUS
10
215.0499999999999829
20
-74.6499999999999915
11
215.0690299999999979
21
-74.5543289999999956
0
LINE
8
BLACK
6
CONTINUOUS
10
215.0690299999999979
20
-74.5543289999999956
11
215.1232229999999959
21
-74.4732229999999902
0
LINE
8
BLACK
6
CONTINUOUS
10
215.1232229999999959
20
-74.4732229999999902
11
215.2043290000000013
21
-74.4190299999999922
0
LINE
8
BLACK
6
CONTINUOUS
10
215.2043290000000013
20
-74.4190299999999922
11
215.2999999999999829
21
-74.3999999999999915
0
LINE
8
BLACK
6
CONTINUOUS
10
215.2999999999999829
20
-74.3999999999999915
11
216.1999999999999886
21
-74.3999999999999915
0
LINE
8
BLACK
6
CONTINUOUS
10
216.1999999999999886
20
-74.3999999999999915
11
216.2956709999999987
21
-74.4190299999999922
0
LINE
8
BLACK
6
CONTINUOUS
10
205.0456709999999987
20
-74.1690299999999922
11
205.1267770000000041
21
-74.2232229999999902
0
LINE
8
BLACK
6
CONTINUOUS
10
205.1267770000000041
20
-74.2232229999999902
11
205.1809700000000021
21
-74.3043289999999956
0
LINE
8
BLACK
6
CONTINUOUS
10
205.1809700000000021
20
-74.3043289999999956
11
205.1999999999999886
21
-74.3999999999999915
0
LINE
8
BLACK
6
CONTINUOUS
10
205.1999999999999886
20
-74.3999999999999915
11
205.1999999999999886
21
-75.0999999999999943
0
LINE
8
BLACK
6
CONTINUOUS
10
205.1999999999999886
20
-75.0999999999999943
11
205.1809700000000021
21
-75.1956709999999902
0
LINE
8
BLACK
6
CONTINUOUS
10
205.1809700000000021
20
-75.1956709999999902
11
205.1267770000000041
21
-75.2767769999999956
0
LINE
8
BLACK
6
CONTINUOUS
10
205.1267770000000041
20
-75.2767769999999956
11
205.0456709999999987
21
-75.3309699999999935
0
LINE
8
BLACK
6
CONTINUOUS
10
205.0456709999999987
20
-75.3309699999999935
11
204.9499999999999886
21
-75.3499999999999943
0
LINE
8
BLACK
6
CONTINUOUS
10
204.9499999999999886
20
-75.3499999999999943
11
204.0499999999999829
21
-75.3499999999999943
0
LINE
8
BLACK
6
CONTINUOUS
10
204.0499999999999829
20
-75.3499999999999943
11
203.9543290000000013
21
-75.3309699999999935
0
LINE
8
BLACK
6
CONTINUOUS
10
203.9543290000000013
20
-75.3309699999999935
11
203.8732229999999959
21
-75.2767769999999956
0
LINE
8
BLACK
6
CONTINUOUS
10
203.8732229999999959
20
-75.2767769999999956
11
203.8190299999999979
21
-75.1956709999999902
0
LINE
8
BLACK
6
CONTINUOUS
10
203.8190299999999979
20
-75.1956709999999902
11
203.7999999999999829
21
-75.0999999999999943
0
LINE
8
BLACK
6
CONTINUOUS
10
203.7999999999999829
20
-75.0999999999999943
11
203.7999999999999829
21
-74.3999999999999915
0
LINE
8
BLACK
6
CONTINUOUS
10
203.7999999999999829
20
-74.3999999999999915
11
203.8190299999999979
21
-74.3043289999999956
0
LINE
8
BLACK
6
CONTINUOUS
10
203.8190299999999979
20
-74.3043289999999956
11
203.8732229999999959
21
-74.2232229999999902
0
LINE
8
BLACK
6
CONTINUOUS
10
203.8732229999999959
20
-74.2232229999999902
11
203.9543290000000013
21
-74.1690299999999922
0
LINE
8
BLACK
6
CONTINUOUS
10
203.9543290000000013
20
-74.1690299999999922
11
204.0499999999999829
21
-74.1499999999999915
0
LINE
8
BLACK
6
CONTINUOUS
10
204.0499999999999829
20
-74.1499999999999915
11
204.9499999999999886
21
-74.1499999999999915
0
LINE
8
BLACK
6
CONTINUOUS
10
204.9499999999999886
20
-74.1499999999999915
11
205.0456709999999987
21
-74.1690299999999922
0
LINE
8
BLACK
6
CONTINUOUS
10
208.5456709999999987
20
-74.1690299999999922
11
208.6267770000000041
21
-74.2232229999999902
0
LINE
8
BLACK
6
CONTINUOUS
10
208.6267770000000041
20
-74.2232229999999902
11
208.6809700000000021
21
-74.3043289999999956
0
LINE
8
BLACK
6
CONTINUOUS
10
208.6809700000000021
20
-74.3043289999999956
11
208.6999999999999886
21
-74.3999999999999915
0
LINE
8
BLACK
6
CONTINUOUS
10
208.6999999999999886
20
-74.3999999999999915
11
208.6999999999999886
21
-75.0999999999999943
0
LINE
8
BLACK
6
CONTINUOUS
10
208.6999999999999886
20
-75.0999999999999943
11
208.6809700000000021
21
-75.1956709999999902
0
LINE
8
BLACK
6
CONTINUOUS
10
208.6809700000000021
20
-75.1956709999999902
11
208.6267770000000041
21
-75.2767769999999956
0
LINE
8
BLACK
6
CONTINUOUS
10
208.6267770000000041
20
-75.2767769999999956
11
208.5456709999999987
21
-75.3309699999999935
0
LINE
8
BLACK
6
CONTINUOUS
10
208.5456709999999987
20
-75.3309699999999935
11
208.4499999999999886
21
-75.3499999999999943
0
LINE
8
BLACK
6
CONTINUOUS
10
208.4499999999999886
20
-75.3499999999999943
11
207.5499999999999829
21
-75.3499999999999943
0
LINE
8
BLACK
6
CONTINUOUS
10
207.5499999999999829
20
-75.3499999999999943
11
207.4543290000000013
21
-75.3309699999999935
0
LINE
8
BLACK
6
CONTINUOUS
10
207.4543290000000013
20
-75.3309699999999935
11
207.3732229999999959
21
-75.2767769999999956
0
LINE
8
BLACK
6
CONTINUOUS
10
207.3732229999999959
20
-75.2767769999999956
11
207.3190299999999979
21
-75.1956709999999902
0
LINE
8
BLACK
6
CONTINUOUS
10
207.3190299999999979
20
-75.1956709999999902
11
207.2999999999999829
21
-75.0999999999999943
0
LINE
8
BLACK
6
CONTINUOUS
10
207.2999999999999829
20
-75.0999999999999943
11
207.2999999999999829
21
-74.3999999999999915
0
LINE
8
BLACK
6
CONTINUOUS
10
207.2999999999999829
20
-74.3999999999999915
11
207.3190299999999979
21
-74.3043289999999956
0
LINE
8
BLACK
6
CONTINUOUS
10
207.3190299999999979
20
-74.3043289999999956
11
207.3732229999999959
21
-74.2232229999999902
0
LINE
8
BLACK
6
CONTINUOUS
10
207.3732229999999959
20
-74.2232229999999902
11
207.4543290000000013
21
-74.1690299999999922
0
LINE
8
BLACK
6
CONTINUOUS
10
207.4543290000000013
20
-74.1690299999999922
11
207.5499999999999829
21
-74.1499999999999915
0
LINE
8
BLACK
6
CONTINUOUS
10
207.5499999999999829
20
-74.1499999999999915
11
208.4499999999999886
21
-74.1499999999999915
0
LINE
8
BLACK
6
CONTINUOUS
10
208.4499999999999886
20
-74.1499999999999915
11
208.5456709999999987
21
-74.1690299999999922
  0
ENDSEC
  0
EOF
