%TF.GenerationSoftware,KiCad,Pcbnew,9.0.2*%
%TF.CreationDate,2025-09-16T11:51:29+02:00*%
%TF.ProjectId,CeB_CURR_PCB,4365425f-4355-4525-925f-5043422e6b69,rev?*%
%TF.SameCoordinates,Original*%
%TF.FileFunction,Drillmap*%
%TF.FilePolarity,Positive*%
%FSLAX45Y45*%
G04 Gerber Fmt 4.5, Leading zero omitted, Abs format (unit mm)*
G04 Created by KiCad (PCBNEW 9.0.2) date 2025-09-16 11:51:29*
%MOMM*%
%LPD*%
G01*
G04 APERTURE LIST*
%ADD10C,0.050000*%
%ADD11C,0.200000*%
G04 APERTURE END LIST*
D10*
X10600000Y-5625000D02*
X13775000Y-5625000D01*
X13775000Y-9800000D01*
X10600000Y-9800000D01*
X10600000Y-5625000D01*
D11*
X10858277Y-10113984D02*
X10858277Y-9913984D01*
X10858277Y-9913984D02*
X10905896Y-9913984D01*
X10905896Y-9913984D02*
X10934467Y-9923508D01*
X10934467Y-9923508D02*
X10953515Y-9942555D01*
X10953515Y-9942555D02*
X10963039Y-9961603D01*
X10963039Y-9961603D02*
X10972563Y-9999698D01*
X10972563Y-9999698D02*
X10972563Y-10028270D01*
X10972563Y-10028270D02*
X10963039Y-10066365D01*
X10963039Y-10066365D02*
X10953515Y-10085412D01*
X10953515Y-10085412D02*
X10934467Y-10104460D01*
X10934467Y-10104460D02*
X10905896Y-10113984D01*
X10905896Y-10113984D02*
X10858277Y-10113984D01*
X11058277Y-10113984D02*
X11058277Y-9980650D01*
X11058277Y-10018746D02*
X11067801Y-9999698D01*
X11067801Y-9999698D02*
X11077324Y-9990174D01*
X11077324Y-9990174D02*
X11096372Y-9980650D01*
X11096372Y-9980650D02*
X11115420Y-9980650D01*
X11182086Y-10113984D02*
X11182086Y-9980650D01*
X11182086Y-9913984D02*
X11172563Y-9923508D01*
X11172563Y-9923508D02*
X11182086Y-9933031D01*
X11182086Y-9933031D02*
X11191610Y-9923508D01*
X11191610Y-9923508D02*
X11182086Y-9913984D01*
X11182086Y-9913984D02*
X11182086Y-9933031D01*
X11305896Y-10113984D02*
X11286848Y-10104460D01*
X11286848Y-10104460D02*
X11277324Y-10085412D01*
X11277324Y-10085412D02*
X11277324Y-9913984D01*
X11410658Y-10113984D02*
X11391610Y-10104460D01*
X11391610Y-10104460D02*
X11382086Y-10085412D01*
X11382086Y-10085412D02*
X11382086Y-9913984D01*
X11639229Y-10113984D02*
X11639229Y-9913984D01*
X11639229Y-9913984D02*
X11705896Y-10056841D01*
X11705896Y-10056841D02*
X11772562Y-9913984D01*
X11772562Y-9913984D02*
X11772562Y-10113984D01*
X11953515Y-10113984D02*
X11953515Y-10009222D01*
X11953515Y-10009222D02*
X11943991Y-9990174D01*
X11943991Y-9990174D02*
X11924943Y-9980650D01*
X11924943Y-9980650D02*
X11886848Y-9980650D01*
X11886848Y-9980650D02*
X11867801Y-9990174D01*
X11953515Y-10104460D02*
X11934467Y-10113984D01*
X11934467Y-10113984D02*
X11886848Y-10113984D01*
X11886848Y-10113984D02*
X11867801Y-10104460D01*
X11867801Y-10104460D02*
X11858277Y-10085412D01*
X11858277Y-10085412D02*
X11858277Y-10066365D01*
X11858277Y-10066365D02*
X11867801Y-10047317D01*
X11867801Y-10047317D02*
X11886848Y-10037793D01*
X11886848Y-10037793D02*
X11934467Y-10037793D01*
X11934467Y-10037793D02*
X11953515Y-10028270D01*
X12048753Y-9980650D02*
X12048753Y-10180650D01*
X12048753Y-9990174D02*
X12067801Y-9980650D01*
X12067801Y-9980650D02*
X12105896Y-9980650D01*
X12105896Y-9980650D02*
X12124943Y-9990174D01*
X12124943Y-9990174D02*
X12134467Y-9999698D01*
X12134467Y-9999698D02*
X12143991Y-10018746D01*
X12143991Y-10018746D02*
X12143991Y-10075889D01*
X12143991Y-10075889D02*
X12134467Y-10094936D01*
X12134467Y-10094936D02*
X12124943Y-10104460D01*
X12124943Y-10104460D02*
X12105896Y-10113984D01*
X12105896Y-10113984D02*
X12067801Y-10113984D01*
X12067801Y-10113984D02*
X12048753Y-10104460D01*
X12229705Y-10094936D02*
X12239229Y-10104460D01*
X12239229Y-10104460D02*
X12229705Y-10113984D01*
X12229705Y-10113984D02*
X12220182Y-10104460D01*
X12220182Y-10104460D02*
X12229705Y-10094936D01*
X12229705Y-10094936D02*
X12229705Y-10113984D01*
X12229705Y-9990174D02*
X12239229Y-9999698D01*
X12239229Y-9999698D02*
X12229705Y-10009222D01*
X12229705Y-10009222D02*
X12220182Y-9999698D01*
X12220182Y-9999698D02*
X12229705Y-9990174D01*
X12229705Y-9990174D02*
X12229705Y-10009222D01*
M02*
